<svg xmlns="http://www.w3.org/2000/svg" width="95" height="80" viewBox="0 0 95 80">
  <g id="icon_badge" transform="translate(-632.513 -575.858)">
    <g id="그룹_4765" data-name="그룹 4765" transform="translate(648.38 589.646)">
      <g id="그룹_4762" data-name="그룹 4762" transform="translate(1.408 1.408)">
        <g id="그룹_4761" data-name="그룹 4761">
          <path id="패스_14612" data-name="패스 14612" d="M682.895,657.732a1.33,1.33,0,0,1-.426-.07,44.885,44.885,0,0,1-15.1-8.636,45.781,45.781,0,0,1-10-12.237c-4.162-7.65-4.349-13.828-4.354-34.082v-3.148a6.6,6.6,0,0,1,.046-.919c0-.514.009-1.277.014-2.407a1.826,1.826,0,0,1,1.794-1.835h27.691a1.741,1.741,0,0,1,.465-.063h28.156a1.824,1.824,0,0,1,1.794,1.835c0,1.127.01,1.888.014,2.4a6.536,6.536,0,0,1,.046.919v3.154c-.006,20.253-.193,26.431-4.354,34.081a45.81,45.81,0,0,1-10,12.236,44.863,44.863,0,0,1-14.907,8.571l-.523.149A1.328,1.328,0,0,1,682.895,657.732Z" transform="translate(-653.017 -594.336)" fill="#386392"/>
        </g>
      </g>
      <g id="그룹_4764" data-name="그룹 4764" transform="translate(0 0)">
        <g id="그룹_4763" data-name="그룹 4763">
          <path id="패스_14613" data-name="패스 14613" d="M710.875,595.4a.431.431,0,0,1,.425.434c.013,2.777.025,3.523.034,3.523s.018-1.01.022-1.01.006.823,0,3.954c-.006,19.969-.186,26.052-4.185,33.395a44.333,44.333,0,0,1-9.7,11.847A43.571,43.571,0,0,1,683,655.857l-.451.126a43.6,43.6,0,0,1-14.661-8.377,44.337,44.337,0,0,1-9.7-11.847c-4-7.343-4.18-13.426-4.185-33.394,0-3.127,0-3.949,0-3.949s.012,1.01.023,1.01.019-.747.033-3.528a.431.431,0,0,1,.425-.434h27.97a.421.421,0,0,1,.22-.063h28.19m0-2.815h-28.19a3.124,3.124,0,0,0-.618.063H654.5a3.217,3.217,0,0,0-3.168,3.236c0,.942-.009,1.624-.012,2.116a9.724,9.724,0,0,0-.048,1.218c0,.6,0,1.585,0,3.147.005,20.537.2,26.812,4.534,34.768a47.247,47.247,0,0,0,10.324,12.626,46.285,46.285,0,0,0,15.574,8.9,2.661,2.661,0,0,0,1.573.042l.45-.125c.049-.014.1-.029.147-.045a46.311,46.311,0,0,0,15.376-8.831,47.262,47.262,0,0,0,10.324-12.627c4.333-7.956,4.529-14.231,4.534-34.768,0-1.568,0-2.557,0-3.156l0-.638a3.836,3.836,0,0,0-.046-.59c0-.491-.008-1.167-.012-2.1a3.217,3.217,0,0,0-3.167-3.236Z" transform="translate(-651.267 -592.586)" fill="#15375d"/>
        </g>
      </g>
    </g>
    <g id="그룹_4768" data-name="그룹 4768" transform="translate(666.399 575.858)">
      <g id="그룹_4766" data-name="그룹 4766" transform="translate(1.206 1.207)">
        <path id="패스_14614" data-name="패스 14614" d="M689.855,598.109c-.244,0-.475-.006-.693-.015-.218.009-.45.015-.693.015h0a15.961,15.961,0,0,1-7.294-1.745,2.061,2.061,0,0,1-1.02-1.206l-3.888-12.234a1.206,1.206,0,0,1,1.813-1.373,7.323,7.323,0,0,0,2.32,1.009,7.249,7.249,0,0,0,1.7.2,1.213,1.213,0,0,1,1.155,1.592,8.8,8.8,0,0,0-.611,3.438,4.464,4.464,0,0,0,.835-.542,1.207,1.207,0,0,1,1.287-.132,3.44,3.44,0,0,0,1.523.422c.063,0,.119,0,.166-.006.021-.491-.239-1.865-1.65-4.526a1.2,1.2,0,0,1,.526-1.643,5.286,5.286,0,0,0,1.434-1.051,5.358,5.358,0,0,0,1.243-2.107,1.207,1.207,0,0,1,2.3,0,5.339,5.339,0,0,0,1.243,2.107,5.267,5.267,0,0,0,1.433,1.05,1.207,1.207,0,0,1,.526,1.644c-1.345,2.537-1.417,4.1-1.281,4.532h0a3.144,3.144,0,0,0,1.316-.422,1.207,1.207,0,0,1,1.287.132,4.413,4.413,0,0,0,.835.542,8.84,8.84,0,0,0-.611-3.438,1.206,1.206,0,0,1,1.143-1.592h0a7.285,7.285,0,0,0,4.033-1.211,1.207,1.207,0,0,1,1.813,1.373l-3.913,12.316a1.84,1.84,0,0,1-.914,1.084,15.973,15.973,0,0,1-7.374,1.786Zm-4.256-3.744a18.384,18.384,0,0,0,3.566.376h0a18.808,18.808,0,0,0,3.673-.376,25.645,25.645,0,0,0-3.619-.264h-.006A25.593,25.593,0,0,0,685.6,594.364Z" transform="translate(-676.21 -577.358)" fill="#ffd800"/>
      </g>
      <g id="그룹_4767" data-name="그룹 4767" transform="translate(0 0)">
        <path id="패스_14615" data-name="패스 14615" d="M688.868,578.271a6.456,6.456,0,0,0,3.289,3.876c-1.579,2.978-1.87,5.423-.94,6.107a1.175,1.175,0,0,0,.728.2,4.278,4.278,0,0,0,1.856-.549,3.281,3.281,0,0,0,1.873.9.735.735,0,0,0,.358-.079c.794-.425.766-2.431-.118-5.051h.01a8.5,8.5,0,0,0,4.689-1.409L696.7,594.58a.642.642,0,0,1-.321.379,14.718,14.718,0,0,1-2.225.93,14.907,14.907,0,0,1-4.6.72c-.244,0-.474-.006-.689-.015-.216.009-.446.015-.689.015a14.9,14.9,0,0,1-4.6-.72A14.69,14.69,0,0,1,681.43,595a.836.836,0,0,1-.418-.494q-1.945-6.118-3.889-12.237a8.5,8.5,0,0,0,4.688,1.409h.01c-.883,2.62-.911,4.626-.117,5.051a.738.738,0,0,0,.358.079,3.282,3.282,0,0,0,1.873-.9,4.633,4.633,0,0,0,2.064.549,1.9,1.9,0,0,0,.958-.2c.93-.684.2-3.129-1.377-6.107a6.459,6.459,0,0,0,3.288-3.876m.055,17.383c3.255,0,6.783-.949,6.757-1.7-.027-.78-3.858-1.35-6.753-1.351h0c-2.9,0-6.723.571-6.75,1.351-.026.754,3.492,1.693,6.695,1.7h.055m-.055-19.8a2.413,2.413,0,0,0-2.3,1.692,4.13,4.13,0,0,1-.96,1.629,4.038,4.038,0,0,1-1.105.81,2.412,2.412,0,0,0-1.219,1.423,2.441,2.441,0,0,0-.072.287,2.417,2.417,0,0,0-1.387-.438h0a6.082,6.082,0,0,1-3.371-1.012A2.413,2.413,0,0,0,674.823,583l3.889,12.238a3.27,3.27,0,0,0,1.62,1.912,17.171,17.171,0,0,0,7.847,1.877q.362,0,.689-.014.327.013.689.014a17.184,17.184,0,0,0,7.93-1.919A3.045,3.045,0,0,0,699,595.31l3.394-10.682.519-1.634a2.413,2.413,0,0,0-3.627-2.746,6.076,6.076,0,0,1-3.361,1.012,2.429,2.429,0,0,0-1.4.442,2.377,2.377,0,0,0-.073-.292,2.413,2.413,0,0,0-1.219-1.422,4.054,4.054,0,0,1-1.1-.81,4.123,4.123,0,0,1-.96-1.628,2.415,2.415,0,0,0-2.3-1.693Zm-5.072,9.635c.073-.287.164-.606.28-.956.18.389.324.728.437,1.022a2.433,2.433,0,0,0-.578-.07c-.047,0-.093,0-.139,0Zm9.539.041c.085-.282.2-.6.339-.951.108.331.2.634.265.91-.047,0-.093,0-.139,0a2.386,2.386,0,0,0-.465.045Z" transform="translate(-674.71 -575.858)" fill="#15375d"/>
      </g>
    </g>
    <g id="그룹_4771" data-name="그룹 4771" transform="translate(632.513 598.085)">
      <g id="그룹_4769" data-name="그룹 4769" transform="translate(1.206 1.207)">
        <path id="패스_14616" data-name="패스 14616" d="M651.885,641.18a1.206,1.206,0,0,1-1.119-1.66c1.246-3.071,1.457-5.27.61-6.362A7.718,7.718,0,0,0,650.3,632.1a4.139,4.139,0,0,1-1.844-2.975,3.66,3.66,0,0,1,1.137-2.643A5.4,5.4,0,0,0,649.1,626a5.578,5.578,0,0,0-2.007-1.094,1.206,1.206,0,0,1-.318-2.161l.112-.073a4.255,4.255,0,0,0-.634-.048,4.574,4.574,0,0,0-1.52.264,1.206,1.206,0,0,1-1.6-.979,4.155,4.155,0,0,1,1.028-3.336c-.106-.061-.216-.116-.327-.167a3.909,3.909,0,0,0-1.586-.341l-.141,0a1.206,1.206,0,0,1-.98-1.91,15.164,15.164,0,0,1,.967-1.209q.223-.25.456-.489a8.671,8.671,0,0,0-3.778-2.921,1.206,1.206,0,0,1,.275-2.315l1.612-.231a4.656,4.656,0,0,1,.077-2.5,4.5,4.5,0,0,1,.606-1.214,1.2,1.2,0,0,1,.831-.5,1.138,1.138,0,0,1,.156-.011,1.2,1.2,0,0,1,.776.283c1.645,1.383,3.3,2.81,4.913,4.243,4.539,4.027,7.039,6.246,8.443,8.483a17.852,17.852,0,0,1,3.073,10.481c-.342,6.7-4.935,11.081-6.894,12.656A1.207,1.207,0,0,1,651.885,641.18Z" transform="translate(-638.013 -604.768)" fill="#fff"/>
      </g>
      <g id="그룹_4770" data-name="그룹 4770" transform="translate(0 0)">
        <path id="패스_14617" data-name="패스 14617" d="M642.036,605.681c1.155.971,2.859,2.421,4.888,4.222,4.607,4.087,6.936,6.172,8.223,8.222a16.722,16.722,0,0,1,2.888,9.778c-.34,6.676-5.346,10.893-6.444,11.777,1.752-4.318,1.317-6.431.445-7.555-1.028-1.325-2.619-1.943-2.666-3.333a3.337,3.337,0,0,1,1.555-2.444,6.69,6.69,0,0,0-3.777-2.888,4.107,4.107,0,0,1,.889-.445,4.149,4.149,0,0,1,1.4-.239c.143,0,.272.007.381.017a5.349,5.349,0,0,0-2-1.334,5.263,5.263,0,0,0-1.854-.332,5.821,5.821,0,0,0-1.924.332,3,3,0,0,1,.445-2,2.967,2.967,0,0,1,1.333-1.112,5.074,5.074,0,0,0-3.861-1.779l-.139,0a13.867,13.867,0,0,1,.89-1.111,13.522,13.522,0,0,1,1.111-1.111,9.872,9.872,0,0,0-4.889-4.222l3.111-.445a4,4,0,0,1-.444-3.111,3.3,3.3,0,0,1,.444-.889m0-2.413a2.423,2.423,0,0,0-1.974,1.026,5.625,5.625,0,0,0-1.033,3.379l-.445.064a2.413,2.413,0,0,0-.552,4.63,7.464,7.464,0,0,1,2.182,1.343q.23.2.442.424c-.281.331-.549.675-.8,1.027a2.413,2.413,0,0,0,1.959,3.821h.2a5.443,5.443,0,0,0-.37,2.793,2.412,2.412,0,0,0,2.392,2.1,2.437,2.437,0,0,0,.718-.109l.006.045a2.412,2.412,0,0,0,1.691,1.961,4.35,4.35,0,0,1,1.208.577,4.435,4.435,0,0,0-.7,2.529,5.316,5.316,0,0,0,2.26,3.842,6.994,6.994,0,0,1,.911.886c.421.542.438,2.185-.774,5.17a2.413,2.413,0,0,0,3.748,2.788c2.086-1.677,6.976-6.354,7.342-13.535a18.976,18.976,0,0,0-3.254-11.183c-1.5-2.387-4.044-4.645-8.665-8.745-1.626-1.443-3.287-2.877-4.937-4.264a2.413,2.413,0,0,0-1.552-.566Z" transform="translate(-636.513 -603.268)" fill="#15375d"/>
      </g>
    </g>
    <g id="그룹_4774" data-name="그룹 4774" transform="translate(703.558 598.085)">
      <g id="그룹_4772" data-name="그룹 4772" transform="translate(1.207 1.207)">
        <path id="패스_14618" data-name="패스 14618" d="M727.386,641.18a1.207,1.207,0,0,1-.756-.266c-1.959-1.575-6.552-5.961-6.894-12.656a17.851,17.851,0,0,1,3.072-10.479c1.406-2.239,3.905-4.457,8.444-8.484,1.619-1.436,3.272-2.864,4.913-4.243a1.2,1.2,0,0,1,.776-.283,1.135,1.135,0,0,1,.156.011,1.207,1.207,0,0,1,.832.5,4.468,4.468,0,0,1,.6,1.214,4.65,4.65,0,0,1,.078,2.5l1.612.231a1.206,1.206,0,0,1,.275,2.315,8.668,8.668,0,0,0-3.778,2.921c.155.16.307.322.455.488a15.316,15.316,0,0,1,.968,1.211,1.207,1.207,0,0,1-.98,1.91l-.142,0a3.912,3.912,0,0,0-1.585.34c-.111.051-.221.106-.327.167a4.065,4.065,0,0,1,.4.522,4.18,4.18,0,0,1,.628,2.814,1.209,1.209,0,0,1-1.6.979,4.575,4.575,0,0,0-1.52-.264,4.225,4.225,0,0,0-.633.048l.112.073a1.206,1.206,0,0,1-.319,2.161A5.587,5.587,0,0,0,730.17,626a5.345,5.345,0,0,0-.495.48,3.664,3.664,0,0,1,1.138,2.643,4.14,4.14,0,0,1-1.845,2.975,7.706,7.706,0,0,0-1.074,1.058c-.848,1.092-.637,3.292.609,6.362a1.208,1.208,0,0,1-1.118,1.661Z" transform="translate(-719.717 -604.768)" fill="#fff"/>
      </g>
      <g id="그룹_4773" data-name="그룹 4773" transform="translate(0 0)">
        <path id="패스_14619" data-name="패스 14619" d="M736.647,605.681a3.292,3.292,0,0,1,.444.889,3.993,3.993,0,0,1-.444,3.111l3.11.445a9.874,9.874,0,0,0-4.888,4.222,13.541,13.541,0,0,1,1.11,1.111,13.779,13.779,0,0,1,.89,1.111l-.139,0a5.074,5.074,0,0,0-3.861,1.779,2.968,2.968,0,0,1,1.333,1.112,3.007,3.007,0,0,1,.445,2,5.822,5.822,0,0,0-1.924-.332,5.265,5.265,0,0,0-1.854.332,5.354,5.354,0,0,0-2,1.334c.11-.01.238-.017.381-.017a4.151,4.151,0,0,1,1.4.239,4.1,4.1,0,0,1,.889.445,6.692,6.692,0,0,0-3.777,2.888,3.337,3.337,0,0,1,1.555,2.444c-.047,1.39-1.639,2.009-2.666,3.333-.872,1.125-1.307,3.237.445,7.555-1.1-.884-6.1-5.1-6.445-11.777a16.722,16.722,0,0,1,2.889-9.778c1.288-2.05,3.616-4.135,8.223-8.222,2.029-1.8,3.733-3.252,4.888-4.222m0-2.413a2.414,2.414,0,0,0-1.552.566c-1.651,1.387-3.312,2.822-4.938,4.264-4.621,4.1-7.166,6.358-8.664,8.744a18.986,18.986,0,0,0-3.255,11.183c.367,7.182,5.257,11.858,7.343,13.536a2.413,2.413,0,0,0,3.749-2.788c-1.212-2.985-1.195-4.628-.774-5.169a6.937,6.937,0,0,1,.911-.887,5.312,5.312,0,0,0,2.259-3.843,4.426,4.426,0,0,0-.7-2.528,4.355,4.355,0,0,1,1.208-.577,2.413,2.413,0,0,0,1.691-1.96l.006-.046a2.413,2.413,0,0,0,3.11-1.988,5.443,5.443,0,0,0-.37-2.793h.2a2.413,2.413,0,0,0,1.959-3.821c-.254-.352-.523-.7-.8-1.027q.211-.221.442-.424a7.466,7.466,0,0,1,2.182-1.343,2.413,2.413,0,0,0-.552-4.63l-.444-.064a5.628,5.628,0,0,0-1.032-3.378,2.422,2.422,0,0,0-1.975-1.027Z" transform="translate(-718.216 -603.268)" fill="#15375d"/>
      </g>
    </g>
    <g id="그룹_4779" data-name="그룹 4779" transform="translate(659.888 606.51)">
      <g id="그룹_4775" data-name="그룹 4775" transform="translate(0 0)">
        <path id="패스_14620" data-name="패스 14620" d="M689.152,644.709l-4.09-3.286a22.349,22.349,0,0,1,3.52-4.594,33.821,33.821,0,0,1,6.358-5.385c.934-.725,3.675-2.36,4.454-4.019a4.374,4.374,0,0,0-.381-4.328,4.758,4.758,0,0,0-4.546-1.434c-2.141.5-3.438,2.341-4.661,5.774a16.559,16.559,0,0,1-3.028,5.759,10.425,10.425,0,0,1-4.706,3,9.721,9.721,0,0,1-4.807.194,9.324,9.324,0,0,1-4.249-2.15,10.662,10.662,0,0,1-3.427-7.581,9.538,9.538,0,0,1,3.139-7.2,9.731,9.731,0,0,1,4.846-2.6,8.981,8.981,0,0,1,4.354.257,11.271,11.271,0,0,1,4.06,2.253l-3.283,3.572.015.014a6.518,6.518,0,0,0-2.326-1.232,4.252,4.252,0,0,0-4.332,1.264,4.746,4.746,0,0,0-1.622,3.6,5.828,5.828,0,0,0,1.808,4.03,4.678,4.678,0,0,0,4.437.925c1.215-.362,3.1-1.635,4.433-5.363,1.014-2.847,1.786-4.681,3.26-6.277a9.85,9.85,0,0,1,4.981-2.963,9.6,9.6,0,0,1,9.293,2.951,8.451,8.451,0,0,1,2.2,6.256,9.13,9.13,0,0,1-3.3,6.158c-1.846,1.688-4.314,3.1-6.99,5.734a27.649,27.649,0,0,0-5.415,6.672" transform="translate(-667.176 -614.283)" fill="#ffc500"/>
        <path id="패스_14621" data-name="패스 14621" d="M688.565,646.534a2.412,2.412,0,0,1-1.512-.532l-4.09-3.286a2.412,2.412,0,0,1-.523-3.179c.158-.247.288-.459.408-.652a17.628,17.628,0,0,1,1.128-1.664,12.367,12.367,0,0,1-1.8.7,12.152,12.152,0,0,1-6,.24,11.735,11.735,0,0,1-5.347-2.709,13.145,13.145,0,0,1-4.232-9.347,11.892,11.892,0,0,1,3.894-8.983,12.094,12.094,0,0,1,6.045-3.216,11.393,11.393,0,0,1,5.513.316,13.794,13.794,0,0,1,4.815,2.628,11.931,11.931,0,0,1,17.02.862,10.814,10.814,0,0,1,2.8,8.012A11.5,11.5,0,0,1,702.6,633.5c-.848.776-1.773,1.469-2.752,2.2a38.924,38.924,0,0,0-4.178,3.472,25.326,25.326,0,0,0-5,6.126,2.407,2.407,0,0,1-1.645,1.192A2.434,2.434,0,0,1,688.565,646.534Zm-.88-6.215.29.233a37.856,37.856,0,0,1,4.314-4.824c.765-.752,1.509-1.406,2.223-1.995l-.159.113a23.811,23.811,0,0,0-4.568,4.015C688.649,639.117,688.076,639.794,687.684,640.32Zm-9.054-21.79a6.2,6.2,0,0,0-1.183.113,7.356,7.356,0,0,0-3.646,1.984,7.093,7.093,0,0,0-2.385,5.408,8.294,8.294,0,0,0,2.622,5.816,6.92,6.92,0,0,0,3.148,1.59,7.322,7.322,0,0,0,3.611-.147,8.03,8.03,0,0,0,3.613-2.311,14.53,14.53,0,0,0,2.536-4.942c1.119-3.139,2.752-6.464,6.384-7.314a7.139,7.139,0,0,1,6.908,2.19,6.735,6.735,0,0,1,.754,6.949,5.644,5.644,0,0,1-.445.776,5.9,5.9,0,0,0,1.312-3.245,6.015,6.015,0,0,0-1.6-4.5,7.16,7.16,0,0,0-6.931-2.2,7.449,7.449,0,0,0-3.76,2.251c-1.139,1.234-1.772,2.679-2.759,5.449-1.759,4.937-4.525,6.422-6.017,6.867a7.1,7.1,0,0,1-6.734-1.437,8.269,8.269,0,0,1-2.613-5.8,7.161,7.161,0,0,1,2.376-5.389,6.633,6.633,0,0,1,6.632-1.837,8.25,8.25,0,0,1,1.235.453l.017-.018a8.083,8.083,0,0,0-1.058-.4A6.922,6.922,0,0,0,678.63,618.529Zm16.274,4.844a2.067,2.067,0,0,0-.474.052c-.81.189-1.726.834-2.938,4.235a31.289,31.289,0,0,1-1.333,3.269c.5-.381.961-.709,1.406-1.023s.863-.61,1.308-.956c.213-.165.508-.373.852-.614.763-.533,2.55-1.782,2.9-2.524a2.171,2.171,0,0,0-.031-1.736A2.322,2.322,0,0,0,694.9,623.373Zm-16.269,0a2.214,2.214,0,0,0-1.5.777,2.321,2.321,0,0,0-.866,1.814,3.429,3.429,0,0,0,1,2.266,2.288,2.288,0,0,0,2.14.411c.8-.238,1.964-1.378,2.849-3.861l0-.009a2.363,2.363,0,0,1-1.722-.594,4.19,4.19,0,0,0-1.375-.718A1.951,1.951,0,0,0,678.636,623.376Z" transform="translate(-666.589 -613.697)" fill="#15375d"/>
      </g>
      <g id="그룹_4776" data-name="그룹 4776" transform="translate(2.413 2.411)">
        <path id="패스_14622" data-name="패스 14622" d="M689.152,644.709l-4.09-3.286a22.349,22.349,0,0,1,3.52-4.594,33.821,33.821,0,0,1,6.358-5.385c.934-.725,3.675-2.36,4.454-4.019a4.374,4.374,0,0,0-.381-4.328,4.758,4.758,0,0,0-4.546-1.434c-2.141.5-3.438,2.341-4.661,5.774a16.559,16.559,0,0,1-3.028,5.759,10.425,10.425,0,0,1-4.706,3,9.721,9.721,0,0,1-4.807.194,9.324,9.324,0,0,1-4.249-2.15,10.662,10.662,0,0,1-3.427-7.581,9.538,9.538,0,0,1,3.139-7.2,9.731,9.731,0,0,1,4.846-2.6,8.981,8.981,0,0,1,4.354.257,11.271,11.271,0,0,1,4.06,2.253l-3.283,3.572.015.014a6.518,6.518,0,0,0-2.326-1.232,4.252,4.252,0,0,0-4.332,1.264,4.746,4.746,0,0,0-1.622,3.6,5.828,5.828,0,0,0,1.808,4.03,4.678,4.678,0,0,0,4.437.925c1.215-.362,3.1-1.635,4.433-5.363,1.014-2.847,1.786-4.681,3.26-6.277a9.85,9.85,0,0,1,4.981-2.963,9.6,9.6,0,0,1,9.293,2.951,8.451,8.451,0,0,1,2.2,6.256,9.13,9.13,0,0,1-3.3,6.158c-1.846,1.688-4.314,3.1-6.99,5.734a27.649,27.649,0,0,0-5.415,6.672" transform="translate(-669.59 -616.694)" fill="#ffd800"/>
      </g>
      <g id="그룹_4777" data-name="그룹 4777" transform="translate(9.152 8.757)">
        <path id="패스_14623" data-name="패스 14623" d="M684.68,627.939a3.356,3.356,0,1,1-3.356-3.355A3.356,3.356,0,0,1,684.68,627.939Z" transform="translate(-677.968 -624.584)" fill="#15375d"/>
      </g>
      <g id="그룹_4778" data-name="그룹 4778" transform="translate(22.933 8.757)">
        <path id="패스_14624" data-name="패스 14624" d="M704.156,627.939c0,1.853-6.68,5.613-8.533,5.613s1.822-3.759,1.822-5.613a3.356,3.356,0,0,1,6.711,0Z" transform="translate(-695.101 -624.584)" fill="#15375d"/>
      </g>
    </g>
  </g>
</svg>
