<svg xmlns="http://www.w3.org/2000/svg" width="80" height="80" viewBox="0 0 80 80">
  <g id="icon_gf" transform="translate(-226.15 -219.035)">
    <g id="그룹_4630" data-name="그룹 4630" transform="translate(226.15 219.035)">
      <path id="패스_14370" data-name="패스 14370" d="M605.78,273a40,40,0,1,1,40-40A40.045,40.045,0,0,1,605.78,273Zm0-77.14A37.14,37.14,0,1,0,642.92,233,37.182,37.182,0,0,0,605.78,195.861Z" transform="translate(-565.78 -193.001)" fill="#fcce03"/>
    </g>
    <g id="그룹_4636" data-name="그룹 4636" transform="translate(238.298 227.041)">
      <path id="패스_14403" data-name="패스 14403" d="M608.355,257.58a1.151,1.151,0,0,0,1.708-.1,2.278,2.278,0,0,0,.5-.8,1.788,1.788,0,0,1,.173-.458.687.687,0,0,1,.745-.341.719.719,0,0,1,.568.821,3.19,3.19,0,0,1-.868,1.788c-1.016,1.123-2.582,1.737-3.98.473l-1.316-1.19c-1.4-1.264-.945-2.884.07-4.008a3.121,3.121,0,0,1,1.466-1,.736.736,0,0,1,.708,1.277,2.163,2.163,0,0,1-.456.237,2.06,2.06,0,0,0-.6.5,1.151,1.151,0,0,0,.076,1.709Z" transform="translate(-605.006 -241.675)" fill="#1a1311"/>
      <path id="패스_14404" data-name="패스 14404" d="M622.513,242.188a1.158,1.158,0,0,1,.482-1.243,1.129,1.129,0,0,1,1.286-.076l5.536,3.6-1.544,1.152-.906-.644-1.8,1.345.366,1.047-1.515,1.13Zm2.553,2.7,1.073-.8-1.8-1.3Z" transform="translate(-616.896 -233.478)" fill="#1a1311"/>
      <path id="패스_14405" data-name="패스 14405" d="M643.687,231.247l2.652,1.771-1.8.83-2.155-1.531-1.017.47.964,2.083-1.629.753-2.317-5.008c-.412-.89-.28-1.356.674-1.8l1.461-.677c1.375-.636,2.678-.467,3.319.918l.043.093A2.1,2.1,0,0,1,643.687,231.247Zm-2.921.233L641.8,231a.8.8,0,0,0,.474-1.1l-.025-.054a.8.8,0,0,0-1.147-.352l-.8.371c-.183.085-.213.145-.127.331Z" transform="translate(-627.581 -224.687)" fill="#1a1311"/>
      <path id="패스_14406" data-name="패스 14406" d="M661.9,223.41l2.322-.566a.7.7,0,0,1,.866.561.675.675,0,0,1-.517.873l-2.321.566.236.97c.048.2.109.228.305.181l2.237-.545a.678.678,0,0,1,.862.545.7.7,0,0,1-.509.905l-2.9.707c-1.02.249-1.413-.033-1.645-.986l-.987-4.053c-.233-.953-.013-1.384,1.008-1.633l2.815-.686a.7.7,0,0,1,.869.57.678.678,0,0,1-.515.881l-2.152.524c-.2.048-.236.1-.188.3Z" transform="translate(-642.284 -219.538)" fill="#1a1311"/>
      <path id="패스_14407" data-name="패스 14407" d="M684.47,222.32l-.141-3.4a.8.8,0,1,1,1.591-.066l.224,5.371a.868.868,0,0,1-.823.854,1.244,1.244,0,0,1-1.166-.447l-2.286-3.594.169,4.075-1.591.066-.25-6.027a.908.908,0,0,1,.839-.888,1.2,1.2,0,0,1,1.148.448Z" transform="translate(-656.191 -218.075)" fill="#1a1311"/>
      <path id="패스_14408" data-name="패스 14408" d="M702.853,220.458a1.159,1.159,0,0,1,1.236-.5,1.129,1.129,0,0,1,.937.885l1.169,6.5L704.3,227l-.152-1.1-2.215-.393-.512.983-1.862-.33Zm-.222,3.711,1.319.234-.285-2.207Z" transform="translate(-669.371 -219.342)" fill="#1a1311"/>
      <path id="패스_14409" data-name="패스 14409" d="M723.717,230.023l1.907-5-1.251-.477a.7.7,0,0,1-.392-.962.677.677,0,0,1,.923-.433l4.2,1.6a.678.678,0,0,1,.4.938.7.7,0,0,1-.933.457l-1.251-.477-1.907,5Z" transform="translate(-685.818 -221.489)" fill="#1a1311"/>
      <path id="패스_14410" data-name="패스 14410" d="M738.5,232.353a.912.912,0,0,1,1.591.884l-2.936,5.287-1.591-.884Z" transform="translate(-693.882 -227.49)" fill="#1a1311"/>
      <path id="패스_14411" data-name="패스 14411" d="M746.889,240.394c1.191-1.56,2.867-1.085,3.91-.288a2.636,2.636,0,0,1,.752,3.848l-1.134,1.485a2.954,2.954,0,0,1-4.663-3.559Zm3.274,2.435a1.148,1.148,0,0,0-1.823-1.392l-1.2,1.567a1.149,1.149,0,0,0,1.824,1.392Z" transform="translate(-700.438 -232.568)" fill="#1a1311"/>
      <path id="패스_14412" data-name="패스 14412" d="M762.858,258.648l2.621-2.172A.8.8,0,1,1,766.5,257.7l-4.138,3.43a.867.867,0,0,1-1.178-.138,1.245,1.245,0,0,1-.35-1.2l1.475-4-3.14,2.6-1.017-1.227,4.644-3.85a.908.908,0,0,1,1.215.129,1.2,1.2,0,0,1,.339,1.185Z" transform="translate(-709.257 -241.948)" fill="#1a1311"/>
    </g>
    <g id="그룹_4637" data-name="그룹 4637" transform="translate(239.383 268.23)">
      <path id="패스_14413" data-name="패스 14413" d="M612.742,367.673c-1.532,1.013-2.848.353-3.689-.919-.851-1.287-1.065-3.006.587-4.1l1.646-1.088c1.668-1.1,3.151-.223,4.017,1.087a3.533,3.533,0,0,1,.673,1.822.828.828,0,0,1-.716.87.768.768,0,0,1-.772-.463,2.16,2.16,0,0,1-.112-.514,2.722,2.722,0,0,0-.409-.831,1.227,1.227,0,0,0-1.745-.408l-1.509,1a1.2,1.2,0,0,0-.323,1.742,1.017,1.017,0,0,0,1.43.456l.091-.06c.151-.1.154-.145.06-.286l-.162-.246a.7.7,0,0,1,.24-1.014.722.722,0,0,1,1.05.161l.448.677c.58.878.449,1.286-.4,1.845Z" transform="translate(-608.402 -356.981)" fill="#1a1311"/>
      <path id="패스_14414" data-name="패스 14414" d="M624.012,377.151a3,3,0,0,1,4.382,4.065l-1.347,1.452a3,3,0,0,1-4.382-4.065Zm3.085,2.788a1.169,1.169,0,0,0-1.714-1.59l-1.421,1.532a1.169,1.169,0,0,0,1.713,1.59Z" transform="translate(-617.583 -367.302)" fill="#1a1311"/>
      <path id="패스_14415" data-name="패스 14415" d="M640.9,389.888a3,3,0,0,1,5.23,2.892l-.958,1.734a3,3,0,0,1-5.23-2.892Zm3.664,1.964a1.169,1.169,0,0,0-2.045-1.131l-1.011,1.828a1.169,1.169,0,0,0,2.045,1.131Z" transform="translate(-629.609 -375.626)" fill="#1a1311"/>
      <path id="패스_14416" data-name="패스 14416" d="M663.549,395.861a2.994,2.994,0,0,1,2.173,4.064l-.156.567a2.993,2.993,0,0,1-3.938,2.392l-1.282-.351c-1.033-.283-1.24-.743-.966-1.746l1.167-4.266c.274-1,.687-1.294,1.72-1.011ZM664,399.3a1.41,1.41,0,0,0-.92-1.949l-.568-.156c-.2-.054-.262-.025-.319.185l-.956,3.5c-.057.209-.017.267.181.321l.568.156c.809.221,1.5-.189,1.783-1.209Z" transform="translate(-643.031 -380.359)" fill="#1a1311"/>
      <path id="패스_14417" data-name="패스 14417" d="M697.545,405.955l-.79-5.8c-.141-1.031.125-1.459,1.186-1.6l2.943-.4a.735.735,0,0,1,.825.7.708.708,0,0,1-.611.868l-2.245.306c-.2.027-.25.08-.221.295l.154,1.129,2.272-.309a.735.735,0,0,1,.825.7.707.707,0,0,1-.611.868l-2.272.309.367,2.688Z" transform="translate(-668.524 -382.222)" fill="#1a1311"/>
      <path id="패스_14418" data-name="패스 14418" d="M718.306,397.655l2.6,2.105-1.888.709-2.109-1.807-1.069.4.856,2.278-1.713.644-2.058-5.479c-.366-.974-.2-1.451.8-1.828l1.537-.578c1.445-.543,2.767-.248,3.337,1.268l.038.1A2.245,2.245,0,0,1,718.306,397.655Zm-3-.022,1.086-.408a.832.832,0,0,0,.553-1.116l-.022-.059a.831.831,0,0,0-1.151-.476l-.844.317c-.192.072-.226.133-.15.337Z" transform="translate(-679.436 -379.298)" fill="#1a1311"/>
      <path id="패스_14419" data-name="패스 14419" d="M730.321,390.093a.928.928,0,0,1,1.6-.939l3.246,5.534-1.6.939Z" transform="translate(-691.298 -375.785)" fill="#1a1311"/>
      <path id="패스_14420" data-name="패스 14420" d="M739.621,382.177l1.881-1.548a.731.731,0,0,1,1.064.155.7.7,0,0,1-.069,1.053l-1.881,1.548.673.818c.138.167.208.168.366.038l1.812-1.492a.708.708,0,0,1,1.053.141.733.733,0,0,1-.046,1.081l-2.349,1.935c-.827.681-1.322.585-1.984-.219l-2.812-3.415c-.662-.8-.661-1.308.166-1.989l2.28-1.877a.734.734,0,0,1,1.07.162.707.707,0,0,1-.063,1.061l-1.743,1.435c-.158.13-.171.2-.033.367Z" transform="translate(-695.845 -368.67)" fill="#1a1311"/>
      <path id="패스_14421" data-name="패스 14421" d="M754.8,367.313l-2.882-2.172a.813.813,0,1,1,.977-1.3l4.55,3.429a.9.9,0,0,1,.167,1.221,1.248,1.248,0,0,1-1.122.618l-4.43-.614,3.453,2.6-.977,1.3-5.106-3.849a.944.944,0,0,1-.186-1.257,1.2,1.2,0,0,1,1.111-.6Z" transform="translate(-704.176 -358.739)" fill="#1a1311"/>
      <path id="패스_14422" data-name="패스 14422" d="M760.879,350.265a3,3,0,0,1,4.305-1.645l.544.225a2.992,2.992,0,0,1,1.88,4.206l-.509,1.228c-.41.989-.892,1.137-1.853.739l-4.088-1.692c-.962-.4-1.2-.844-.788-1.833Zm3.475-.02a1.411,1.411,0,0,0-2.049.668l-.225.544c-.079.19-.057.257.143.339l3.352,1.388c.2.083.263.051.341-.139l.225-.544a1.41,1.41,0,0,0-.977-1.92Z" transform="translate(-711.723 -348.27)" fill="#1a1311"/>
    </g>
    <g id="그룹_4640" data-name="그룹 4640" transform="translate(236.368 267.516)">
      <path id="패스_14423" data-name="패스 14423" d="M599.027,345.62l1.447.961,1.612-.647-.467,1.673,1.113,1.333-1.735.073-.924,1.471-.606-1.628-1.684-.424,1.361-1.079Z" transform="translate(-597.784 -345.62)" fill="#1a1311"/>
    </g>
    <g id="그룹_4641" data-name="그룹 4641" transform="translate(292.31 261.625)">
      <path id="패스_14424" data-name="패스 14424" d="M774.187,328.275l.94,1.46-.67,1.6,1.679-.443,1.317,1.132.1-1.734,1.484-.9-1.619-.629-.4-1.69-1.1,1.345Z" transform="translate(-774.187 -327.071)" fill="#1a1311"/>
    </g>
    <g id="그룹_4697" data-name="그룹 4697" transform="translate(242.744 236.051)">
      <g id="그룹_4689" data-name="그룹 4689" transform="translate(0 0)">
        <g id="그룹_4684" data-name="그룹 4684">
          <circle id="타원_464" data-name="타원 464" cx="20.455" cy="20.455" r="20.455" transform="translate(0 40.382) rotate(-80.783)" fill="#1a1311"/>
        </g>
        <g id="그룹_4688" data-name="그룹 4688" transform="translate(3.552 3.492)">
          <g id="그룹_4687" data-name="그룹 4687">
            <g id="그룹_4685" data-name="그룹 4685" transform="translate(0.813 0.812)">
              <circle id="타원_465" data-name="타원 465" cx="19.039" cy="19.039" r="19.039" fill="#ffd800"/>
            </g>
            <g id="그룹_4686" data-name="그룹 4686">
              <path id="패스_14489" data-name="패스 14489" d="M649.322,297.549A19.851,19.851,0,1,1,669.174,277.7,19.874,19.874,0,0,1,649.322,297.549Zm0-38.078A18.226,18.226,0,1,0,667.549,277.7,18.247,18.247,0,0,0,649.322,259.471Z" transform="translate(-629.471 -257.846)" fill="#1a1311"/>
            </g>
          </g>
        </g>
      </g>
      <g id="그룹_4690" data-name="그룹 4690" transform="translate(4.927 5.058)">
        <circle id="타원_466" data-name="타원 466" cx="18.488" cy="18.488" r="18.488" fill="#ffd800"/>
      </g>
      <g id="그룹_4696" data-name="그룹 4696" transform="translate(11.56 15.573)">
        <g id="그룹_4692" data-name="그룹 4692" transform="translate(0 10.009)">
          <g id="그룹_4691" data-name="그룹 4691">
            <path id="패스_14490" data-name="패스 14490" d="M666.661,336.275c-.3,0-.476-.011-.5-.013a13.2,13.2,0,0,1-9.17-4.289A12.038,12.038,0,0,1,654.6,328.1a.813.813,0,0,1,1.543-.511,11.222,11.222,0,0,0,10.129,7.05,13.692,13.692,0,0,0,4.626-.678,9.3,9.3,0,0,0,6.263-6.2.813.813,0,0,1,1.547.5,10.99,10.99,0,0,1-7.354,7.266A15.533,15.533,0,0,1,666.661,336.275Z" transform="translate(-654.556 -327.035)" fill="#1a1311"/>
          </g>
        </g>
        <g id="그룹_4695" data-name="그룹 4695" transform="translate(4.352)">
          <g id="그룹_4693" data-name="그룹 4693">
            <path id="패스_14491" data-name="패스 14491" d="M669.943,301.754h0A1.756,1.756,0,0,1,668.187,300v-2.556a1.756,1.756,0,0,1,1.756-1.756h0a1.756,1.756,0,0,1,1.757,1.756V300A1.756,1.756,0,0,1,669.943,301.754Z" transform="translate(-668.187 -295.685)" fill="#1a1311"/>
          </g>
          <g id="그룹_4694" data-name="그룹 4694" transform="translate(11.558)">
            <path id="패스_14492" data-name="패스 14492" d="M706.147,301.754h0A1.756,1.756,0,0,1,704.391,300v-2.556a1.756,1.756,0,0,1,1.756-1.756h0a1.756,1.756,0,0,1,1.757,1.756V300A1.756,1.756,0,0,1,706.147,301.754Z" transform="translate(-704.391 -295.685)" fill="#1a1311"/>
          </g>
        </g>
      </g>
    </g>
  </g>
</svg>
