<svg xmlns="http://www.w3.org/2000/svg" width="80" height="80" viewBox="0 0 80 80">
  <g id="icon_gc" transform="translate(-156.323 -219.07)">
    <g id="그룹_4633" data-name="그룹 4633" transform="translate(156.323 219.07)">
      <path id="패스_14382" data-name="패스 14382" d="M335.488,273.139a40,40,0,1,1,40-40A40.045,40.045,0,0,1,335.488,273.139Zm0-77.14a37.14,37.14,0,1,0,37.14,37.14A37.182,37.182,0,0,0,335.488,196Z" transform="translate(-295.488 -193.139)" fill="#e13c47"/>
    </g>
    <g id="그룹_4634" data-name="그룹 4634" transform="translate(168.956 227.072)">
      <path id="패스_14383" data-name="패스 14383" d="M338.309,257.238a1.124,1.124,0,0,0,1.668-.1,2.236,2.236,0,0,0,.492-.779,1.748,1.748,0,0,1,.169-.447.674.674,0,0,1,.728-.335.7.7,0,0,1,.554.8,3.136,3.136,0,0,1-.851,1.747c-.994,1.1-2.524,1.7-3.887.47l-1.283-1.159c-1.363-1.231-.918-2.814.076-3.913a3.066,3.066,0,0,1,1.433-.979.717.717,0,0,1,.689,1.246,2.118,2.118,0,0,1-.445.232,2.021,2.021,0,0,0-.585.487,1.124,1.124,0,0,0,.071,1.669Z" transform="translate(-335.042 -241.666)" fill="#1a1311"/>
      <path id="패스_14384" data-name="패스 14384" d="M352.214,242.156a1.134,1.134,0,0,1,.471-1.215,1.1,1.1,0,0,1,1.257-.079l5.4,3.492-1.509,1.129-.884-.625-1.763,1.319.357,1.02-1.482,1.109Zm2.491,2.63,1.049-.785-1.761-1.267Z" transform="translate(-346.735 -233.602)" fill="#1a1311"/>
      <path id="패스_14385" data-name="패스 14385" d="M372.96,231.341l2.594,1.717-1.755.816-2.108-1.485-.994.462.943,2.027-1.592.74-2.268-4.875c-.4-.866-.274-1.321.658-1.754l1.429-.664c1.344-.624,2.617-.465,3.245.883l.042.09A2.045,2.045,0,0,1,372.96,231.341Zm-2.856.237,1.01-.47a.783.783,0,0,0,.463-1.076l-.024-.053a.783.783,0,0,0-1.122-.34l-.784.365c-.179.083-.208.142-.124.323Z" transform="translate(-357.239 -224.916)" fill="#1a1311"/>
      <path id="패스_14386" data-name="패스 14386" d="M390.875,223.595l2.27-.559a.683.683,0,0,1,.848.545.659.659,0,0,1-.5.852l-2.27.559.233.944c.048.194.108.222.3.174l2.188-.538a.661.661,0,0,1,.844.528.685.685,0,0,1-.5.884l-2.835.7c-1,.246-1.383-.027-1.611-.956l-.972-3.947c-.228-.928-.015-1.349.983-1.595l2.752-.678a.686.686,0,0,1,.851.552.661.661,0,0,1-.5.86l-2.1.518c-.191.047-.231.1-.183.294Z" transform="translate(-371.722 -219.803)" fill="#1a1311"/>
      <path id="패스_14387" data-name="패스 14387" d="M413.027,222.477l-.143-3.313a.779.779,0,1,1,1.556-.068l.226,5.232a.848.848,0,0,1-.8.834,1.22,1.22,0,0,1-1.142-.433l-2.242-3.5.172,3.969-1.557.068-.254-5.871a.887.887,0,0,1,.819-.867,1.171,1.171,0,0,1,1.124.434Z" transform="translate(-385.412 -218.34)" fill="#1a1311"/>
      <path id="패스_14388" data-name="패스 14388" d="M431.111,220.647a1.133,1.133,0,0,1,1.207-.488,1.1,1.1,0,0,1,.918.862l1.155,6.329-1.856-.327-.15-1.072-2.167-.381-.5.958-1.822-.321Zm-.211,3.616,1.29.227-.282-2.151Z" transform="translate(-398.42 -219.567)" fill="#1a1311"/>
      <path id="패스_14389" data-name="패스 14389" d="M451.668,229.973l1.858-4.879-1.224-.466a.685.685,0,0,1-.385-.938.662.662,0,0,1,.9-.422l4.114,1.565a.661.661,0,0,1,.393.915.686.686,0,0,1-.911.445l-1.224-.466-1.858,4.878Z" transform="translate(-414.644 -221.666)" fill="#1a1311"/>
      <path id="패스_14390" data-name="패스 14390" d="M466.195,232.339a.893.893,0,0,1,1.556.866l-2.869,5.148-1.557-.866Z" transform="translate(-422.601 -227.598)" fill="#1a1311"/>
      <path id="패스_14391" data-name="패스 14391" d="M474.419,240.227c1.16-1.52,2.8-1.055,3.82-.276a2.576,2.576,0,0,1,.743,3.756l-1.1,1.447a2.891,2.891,0,0,1-4.563-3.481Zm3.2,2.381a1.124,1.124,0,0,0-1.784-1.361l-1.165,1.527a1.124,1.124,0,0,0,1.784,1.361Z" transform="translate(-429.047 -232.595)" fill="#1a1311"/>
      <path id="패스_14392" data-name="패스 14392" d="M490.1,258.221l2.562-2.107a.78.78,0,1,1,.99,1.2l-4.044,3.327a.848.848,0,0,1-1.15-.142,1.219,1.219,0,0,1-.341-1.173l1.446-3.9-3.069,2.524-.99-1.2,4.539-3.734a.888.888,0,0,1,1.186.133,1.173,1.173,0,0,1,.33,1.16Z" transform="translate(-437.736 -241.893)" fill="#1a1311"/>
    </g>
    <g id="그룹_4638" data-name="그룹 4638" transform="translate(165.263 228.013)">
      <path id="패스_14627" data-name="패스 14627" d="M21.962,0A21.962,21.962,0,1,1,0,21.962,21.962,21.962,0,0,1,21.962,0Z" transform="translate(0 31.059) rotate(-45)" fill="#ffd800"/>
    </g>
    <g id="그룹_4644" data-name="그룹 4644" transform="translate(220.091 267.012)">
      <path id="패스_14427" data-name="패스 14427" d="M499.414,344.316a3.288,3.288,0,0,1,1.145,1.486,6.8,6.8,0,0,1,.4,1.29c.075.351.154.774-.175,1a3.331,3.331,0,0,1-.838.378,5.312,5.312,0,0,1-1.672.262,2.508,2.508,0,0,1-1.738-.527,1.253,1.253,0,0,1-.056-1.8,1.31,1.31,0,0,1,.6-.326,1.141,1.141,0,0,1,.642-.015,1.356,1.356,0,0,1-.2-1.468C497.929,343.815,498.76,343.9,499.414,344.316Z" transform="translate(-496.12 -344.004)" fill="#e34953"/>
    </g>
    <g id="그룹_4645" data-name="그룹 4645" transform="translate(168.572 271.75)">
      <path id="패스_14428" data-name="패스 14428" d="M338.122,363.1a3.286,3.286,0,0,1-1.791.557,6.8,6.8,0,0,1-1.348-.077c-.356-.052-.779-.125-.88-.512a3.335,3.335,0,0,1-.063-.917,5.312,5.312,0,0,1,.335-1.659,2.507,2.507,0,0,1,1.1-1.447,1.253,1.253,0,0,1,1.71.574,1.31,1.31,0,0,1,.1.674,1.141,1.141,0,0,1-.209.608,1.355,1.355,0,0,1,1.447.321C339.107,361.886,338.74,362.636,338.122,363.1Z" transform="translate(-334.035 -358.911)" fill="#e34953"/>
    </g>
    <g id="그룹_4655" data-name="그룹 4655" transform="translate(176.449 249.252)">
      <g id="그룹_4648" data-name="그룹 4648" transform="translate(7.467)">
        <g id="그룹_4646" data-name="그룹 4646" transform="translate(0.693 0.668)">
          <path id="패스_14429" data-name="패스 14429" d="M395.9,294.135c-.723-3.543-5.79-5.237-8.958-2.817a6.838,6.838,0,0,0-2.47,5.22,12.238,12.238,0,0,0,1.439,5.73c2.165,4.393,5.826,7.854,9.605,10.969a.988.988,0,0,0,1.6-.1,66.687,66.687,0,0,0,6.493-6.679,21.2,21.2,0,0,0,3.664-5.61,8.821,8.821,0,0,0,.3-6.823,6.587,6.587,0,0,0-5.938-3.753c-3.293,0-5.143,2.6-6.251,5.354" transform="translate(-384.468 -290.184)" fill="#e13c4b"/>
        </g>
        <g id="그룹_4647" data-name="그룹 4647">
          <path id="패스_14430" data-name="패스 14430" d="M395.478,293.285c-.976-4.418-7.146-5.5-10.144-2.514-2.05,2.042-2.39,5.161-1.716,7.857a20.413,20.413,0,0,0,4.251,7.783,45.96,45.96,0,0,0,6.5,6.288,1.5,1.5,0,0,0,1.454.469,5.631,5.631,0,0,0,1.75-1.4q1.869-1.739,3.6-3.618a28.649,28.649,0,0,0,5.475-7.476c1.148-2.6,1.656-5.828.04-8.35a6.974,6.974,0,0,0-7.308-3.01c-2.654.649-4.205,3.094-5.172,5.466-.187.459.558.659.743.2.784-1.92,1.992-3.957,4.025-4.738a6.08,6.08,0,0,1,6.361,1.6c1.926,2.015,1.88,4.913,1.04,7.409a20.874,20.874,0,0,1-4.346,6.776,51.637,51.637,0,0,1-5.988,6.089.793.793,0,0,1-1.206-.027c-.232-.188-.459-.382-.687-.574q-.8-.676-1.581-1.375c-.939-.844-1.851-1.719-2.716-2.639a25.442,25.442,0,0,1-4.5-6.368c-1.157-2.418-1.814-5.274-.765-7.848a5.41,5.41,0,0,1,5.646-3.432,5,5,0,0,1,4.5,3.636c.107.484.85.279.743-.205Z" transform="translate(-382.981 -288.768)" fill="#1a1311"/>
          <path id="패스_14431" data-name="패스 14431" d="M394.781,312.854a2.114,2.114,0,0,1-1.3-.6,45.824,45.824,0,0,1-6.547-6.332,20.41,20.41,0,0,1-4.315-7.908c-.8-3.191-.125-6.242,1.8-8.159A6.731,6.731,0,0,1,391,288.371a5.763,5.763,0,0,1,3.646,2.9,6.819,6.819,0,0,1,3.965-2.957,7.3,7.3,0,0,1,7.65,3.147c1.431,2.234,1.425,5.387-.017,8.65a28.532,28.532,0,0,1-5.532,7.563c-1.155,1.253-2.371,2.476-3.617,3.635-.113.106-.229.223-.349.344a4.164,4.164,0,0,1-1.518,1.128A1.428,1.428,0,0,1,394.781,312.854Zm-5.82-24.142a5.8,5.8,0,0,0-4.1,1.594c-1.765,1.758-2.375,4.582-1.631,7.555a19.8,19.8,0,0,0,4.189,7.659,45.224,45.224,0,0,0,6.459,6.243c.449.366.765.541,1.154.413a3.663,3.663,0,0,0,1.265-.972c.126-.127.248-.25.368-.362,1.234-1.149,2.439-2.36,3.583-3.6a28.033,28.033,0,0,0,5.418-7.389c.641-1.45,1.93-5.137.063-8.05a6.654,6.654,0,0,0-6.965-2.874,6.325,6.325,0,0,0-3.826,3.039c.017.051.033.1.049.155a6.56,6.56,0,0,1,3.183-2.866,6.392,6.392,0,0,1,6.7,1.678c1.745,1.825,2.15,4.643,1.111,7.73a21.327,21.327,0,0,1-4.406,6.882,51.72,51.72,0,0,1-6.026,6.125,1.1,1.1,0,0,1-1.608-.025c-.189-.153-.376-.311-.562-.468l-.13-.11c-.578-.488-1.1-.94-1.588-1.381-1.028-.924-1.923-1.793-2.735-2.658a25.523,25.523,0,0,1-4.556-6.449c-1-2.1-1.954-5.207-.773-8.1a5.7,5.7,0,0,1,5.973-3.628,5.474,5.474,0,0,1,4.572,3.213q.046-.079.092-.156a5.076,5.076,0,0,0-3.414-2.926A6.636,6.636,0,0,0,388.962,288.712Zm-.025.738a5.075,5.075,0,0,0-4.746,3.266c-1.093,2.683-.191,5.609.757,7.591a24.908,24.908,0,0,0,4.446,6.288c.8.851,1.682,1.708,2.7,2.621.486.436,1,.884,1.574,1.368l.13.11c.183.155.365.309.551.46.357.289.484.293.8.029a51.179,51.179,0,0,0,5.95-6.051,20.786,20.786,0,0,0,4.285-6.669c.961-2.856.608-5.44-.969-7.089a5.743,5.743,0,0,0-6.018-1.524c-1.583.609-2.841,2.1-3.845,4.562a.739.739,0,0,1-.977.4.625.625,0,0,1-.355-.842q.24-.588.5-1.117a4.686,4.686,0,0,0-4.217-3.369A5.448,5.448,0,0,0,388.936,289.45Zm5.243,3.916q-.19.4-.368.84c-.005.011.037.03.086.022a.084.084,0,0,0,.07-.056q.165-.407.341-.78A.707.707,0,0,1,394.179,293.366Z" transform="translate(-382.286 -288.078)" fill="#1a1311"/>
        </g>
      </g>
      <g id="그룹_4651" data-name="그룹 4651" transform="translate(0 6.559)">
        <g id="그룹_4649" data-name="그룹 4649" transform="translate(0.538 0.537)">
          <path id="패스_14432" data-name="패스 14432" d="M369.95,316.745a.987.987,0,0,0-.923-.9,1.2,1.2,0,0,0-1.114.728c-.724,1.681,1.739,2.742,2.881,1.647a2.48,2.48,0,0,0,.556-2.559c-.777-2.389-3.265-3.385-5.435-4.146a20.2,20.2,0,0,0-3.754-1.042,1.68,1.68,0,0,0-1.342.217,1.359,1.359,0,0,0-.3,1.384,3.34,3.34,0,0,0,1.133,1.657,8.4,8.4,0,0,0,1.742,1.05c-.514-.1-1.141-.152-1.467.257a.955.955,0,0,0,0,1.07,2.133,2.133,0,0,0,.869.717,5.947,5.947,0,0,0,2.36.656c-.332-.1-.619.346-.5.671a1.1,1.1,0,0,0,.795.6,5.29,5.29,0,0,0,3.087-.178" transform="translate(-360.459 -310.431)" fill="#fff"/>
        </g>
        <g id="그룹_4650" data-name="그룹 4650">
          <path id="패스_14433" data-name="패스 14433" d="M369.52,315.932a1.4,1.4,0,0,0-2.1-1.083,1.748,1.748,0,0,0-.671,2.225,2.259,2.259,0,0,0,1.894,1.158,2.193,2.193,0,0,0,2.158-1.339c.96-2.1-.843-4.221-2.542-5.233a16.774,16.774,0,0,0-3.057-1.331,17.326,17.326,0,0,0-4.032-1.078,1.6,1.6,0,0,0-1.833,2.112c.373,1.471,1.787,2.317,3.053,2.937l.3-.7a2.117,2.117,0,0,0-1.657.187,1.252,1.252,0,0,0-.359,1.469c.49,1.292,2.478,1.7,3.676,1.8v-.771a.852.852,0,0,0-.9.765,1.133,1.133,0,0,0,.758,1.141,5.011,5.011,0,0,0,3.621-.056c.459-.175.26-.921-.205-.744a4.907,4.907,0,0,1-1.837.315,4.232,4.232,0,0,1-.823-.083,1.931,1.931,0,0,1-.364-.1c-.091-.039-.618-.494-.252-.468.5.036.491-.731,0-.771a5.445,5.445,0,0,1-2.333-.694c-.3-.181-.791-.545-.662-.974.138-.458.794-.331,1.131-.273.4.069.72-.5.3-.7a6.24,6.24,0,0,1-2.191-1.514c-.534-.655-1-2.121.314-2.114a9.7,9.7,0,0,1,2.76.614c.777.248,1.551.516,2.312.809a7.854,7.854,0,0,1,3.554,2.311,3.275,3.275,0,0,1,.752,2.13,1.647,1.647,0,0,1-1.2,1.571,1.592,1.592,0,0,1-1.586-.61.946.946,0,0,1-.033-.928c.251-.51,1.19-.737,1.289.028.063.485.835.491.771,0Z" transform="translate(-359.105 -309.081)" fill="#1a1311"/>
          <path id="패스_14434" data-name="패스 14434" d="M365.459,318.32a3.951,3.951,0,0,1-1.661-.331,1.306,1.306,0,0,1-.854-1.266c-1.056-.211-2.359-.686-2.765-1.757a1.4,1.4,0,0,1,.411-1.652,3.966,3.966,0,0,1-1.75-2.254,1.869,1.869,0,0,1,.318-1.722,1.925,1.925,0,0,1,1.684-.587,16.767,16.767,0,0,1,3.921,1.034l.15.053A16.984,16.984,0,0,1,368,311.183c1.927,1.149,3.564,3.339,2.6,5.436a2.356,2.356,0,0,1-2.313,1.431,2.707,2.707,0,0,1-.692-.137c-.018.009-.037.017-.056.025A6.064,6.064,0,0,1,365.459,318.32Zm-2.2-1.54c-.042.544.5.842.674.921a4.783,4.783,0,0,0,3.248.027,2.4,2.4,0,0,1-.475-.341,5.2,5.2,0,0,1-1.263.132,4.408,4.408,0,0,1-.853-.086l-.047-.01a1.769,1.769,0,0,1-.348-.1,1.222,1.222,0,0,1-.461-.48C363.588,316.828,363.428,316.807,363.258,316.78Zm4.591.877a2.392,2.392,0,0,0,.462.076,2.047,2.047,0,0,0,2-1.246c.878-1.918-.669-3.953-2.478-5.031a16.719,16.719,0,0,0-3.029-1.317l-.15-.053a16.52,16.52,0,0,0-3.845-1.017,1.6,1.6,0,0,0-1.413.478,1.56,1.56,0,0,0-.251,1.437,3.78,3.78,0,0,0,1.753,2.157,1.813,1.813,0,0,1,.657-.122,4.822,4.822,0,0,1-1.435-1.139,2.1,2.1,0,0,1-.482-1.9.886.886,0,0,1,.919-.471,9.147,9.147,0,0,1,2.632.566l.175.056c.832.265,1.591.531,2.321.813a7.994,7.994,0,0,1,3.624,2.364,3.411,3.411,0,0,1,.784,2.237,1.809,1.809,0,0,1-1.329,1.715,1.906,1.906,0,0,1-.9-.061.618.618,0,0,1,.029.307A.573.573,0,0,1,367.849,317.657Zm-.774-.372a2.172,2.172,0,0,0,.469.268.248.248,0,0,0,.039-.1.271.271,0,0,0-.078-.244.159.159,0,0,0-.168-.014Q367.207,317.243,367.075,317.285Zm-2.936-.4a1.177,1.177,0,0,0,.184.154,1.541,1.541,0,0,0,.283.077l.048.01a4.108,4.108,0,0,0,.792.079,5,5,0,0,0,1.012-.087A1.867,1.867,0,0,1,367,314.37a1.518,1.518,0,0,1,1.455-.065,1.63,1.63,0,0,1,.883,1.264h0a.462.462,0,0,1-.417.541.587.587,0,0,1-.669-.5.353.353,0,0,0-.29-.351.73.73,0,0,0-.7.372.784.784,0,0,0,.025.774,1.443,1.443,0,0,0,1.422.538,1.494,1.494,0,0,0,1.071-1.426,3.1,3.1,0,0,0-.72-2.023,7.712,7.712,0,0,0-3.485-2.259c-.724-.279-1.477-.543-2.3-.806l-.176-.056a8.921,8.921,0,0,0-2.537-.55h-.008a.621.621,0,0,0-.623.291,1.807,1.807,0,0,0,.441,1.565,5.836,5.836,0,0,0,2.045,1.426l.155.027-.018.043a.469.469,0,0,1,.218.569.6.6,0,0,1-.633.415l-.007.018-.058-.029c-.416-.07-.826-.108-.909.17-.1.337.38.666.591.791a5.281,5.281,0,0,0,2.264.672l.147.011v.019a.568.568,0,0,1,.369.59.482.482,0,0,1-.369.455v.026Zm3.655-2.412a1.264,1.264,0,0,0-.636.177,1.589,1.589,0,0,0-.608,2.017,1.655,1.655,0,0,0,.252.372q.215-.059.422-.138l.057-.018a1.3,1.3,0,0,1-.264-.3,1.11,1.11,0,0,1-.04-1.082,1.043,1.043,0,0,1,1.035-.545.664.664,0,0,1,.553.623.274.274,0,0,0,.314.226.146.146,0,0,0,.142-.185h0a1.313,1.313,0,0,0-.708-1.021A1.175,1.175,0,0,0,367.793,314.468Zm-4.449,2c.191.03.362.051.5.066V316.1A.672.672,0,0,0,363.344,316.471Zm.819-.283v.319a.209.209,0,0,0,.052-.131A.291.291,0,0,0,364.163,316.188ZM360.88,313.5a1.076,1.076,0,0,0-.1.065,1.1,1.1,0,0,0-.305,1.285c.357.941,1.591,1.368,2.546,1.559a1.055,1.055,0,0,1,.294-.4,5.258,5.258,0,0,1-1.726-.627c-.591-.351-.852-.762-.733-1.156a.606.606,0,0,1,.528-.429C361.214,313.7,361.046,313.606,360.88,313.5Zm1.544-.03-.15.356a.29.29,0,0,0,.193-.184A.15.15,0,0,0,362.424,313.473Zm-1.161-.11c.231.135.468.261.7.379l.153-.363A2.6,2.6,0,0,0,361.263,313.363Z" transform="translate(-358.764 -308.74)" fill="#1a1311"/>
        </g>
      </g>
      <g id="그룹_4654" data-name="그룹 4654" transform="translate(28.07 6.507)">
        <g id="그룹_4652" data-name="그룹 4652" transform="translate(0.545 0.544)">
          <path id="패스_14435" data-name="패스 14435" d="M450.438,316.6a.987.987,0,0,1,.923-.9,1.2,1.2,0,0,1,1.114.728c.724,1.681-1.739,2.742-2.881,1.647a2.479,2.479,0,0,1-.557-2.559c.777-2.389,3.265-3.385,5.435-4.146a20.213,20.213,0,0,1,3.754-1.042,1.679,1.679,0,0,1,1.342.217,1.359,1.359,0,0,1,.3,1.384,3.345,3.345,0,0,1-1.133,1.657,8.414,8.414,0,0,1-1.742,1.05c.514-.1,1.141-.152,1.467.257a.955.955,0,0,1,0,1.07,2.135,2.135,0,0,1-.869.717,5.947,5.947,0,0,1-2.36.656c.331-.1.619.347.5.672a1.1,1.1,0,0,1-.795.6,5.289,5.289,0,0,1-3.087-.178" transform="translate(-448.902 -310.287)" fill="#fff"/>
        </g>
        <g id="그룹_4653" data-name="그룹 4653">
          <path id="패스_14436" data-name="패스 14436" d="M449.992,315.772a.643.643,0,0,1,1.112-.287,1,1,0,0,1,.244.977,1.4,1.4,0,0,1-1.181.831,1.423,1.423,0,0,1-1.536-.9,2.607,2.607,0,0,1,.277-2.339,6.556,6.556,0,0,1,3.273-2.542,23.835,23.835,0,0,1,4.783-1.544c.463-.09,1.336-.319,1.645.2a1.526,1.526,0,0,1-.2,1.424,5.34,5.34,0,0,1-2.451,1.891c-.419.206-.1.774.3.7.335-.058.806-.154,1.036.149.337.443-.218.886-.567,1.1a5.373,5.373,0,0,1-2.333.695c-.49.039-.5.807,0,.771.4-.029-.138.411-.161.424a1.612,1.612,0,0,1-.378.126,4.173,4.173,0,0,1-.9.1,4.9,4.9,0,0,1-1.837-.315c-.464-.177-.665.568-.205.744a5,5,0,0,0,3.621.056,1.156,1.156,0,0,0,.767-1.067.862.862,0,0,0-.906-.839v.771c1.2-.1,3.185-.508,3.676-1.8a1.252,1.252,0,0,0-.359-1.469,2.118,2.118,0,0,0-1.657-.186l.3.7a5.569,5.569,0,0,0,2.893-2.5c.4-.9.324-2.177-.783-2.5a3.693,3.693,0,0,0-1.7.07,17.919,17.919,0,0,0-2.194.6,26.073,26.073,0,0,0-3.368,1.3c-1.794.883-3.811,2.637-3.476,4.87a2.363,2.363,0,0,0,1.795,2.053,2.441,2.441,0,0,0,2.129-.637,1.754,1.754,0,0,0,0-2.461,1.413,1.413,0,0,0-2.428.832c-.063.491.708.486.771,0Z" transform="translate(-447.526 -308.914)" fill="#1a1311"/>
          <path id="패스_14437" data-name="패스 14437" d="M452.6,318.162a6.063,6.063,0,0,1-2.085-.384c-.019-.007-.037-.015-.054-.024a2.639,2.639,0,0,1-1.317.1,2.534,2.534,0,0,1-1.923-2.185c-.338-2.253,1.619-4.078,3.563-5.036a26.335,26.335,0,0,1,3.388-1.305,17.808,17.808,0,0,1,2.214-.6,3.83,3.83,0,0,1,1.777-.067,1.454,1.454,0,0,1,.947.795,2.4,2.4,0,0,1-.063,1.917,4.31,4.31,0,0,1-1.581,1.788,1.4,1.4,0,0,1,.411,1.651c-.407,1.07-1.709,1.546-2.764,1.757,0,.015,0,.03,0,.045a1.3,1.3,0,0,1-.858,1.221A3.932,3.932,0,0,1,452.6,318.162Zm-1.718-.592a4.77,4.77,0,0,0,3.243-.028c.167-.078.709-.374.676-.913v-.008c-.162.026-.315.046-.452.062a1.089,1.089,0,0,1-.382.433,1.716,1.716,0,0,1-.416.14,4.305,4.305,0,0,1-.933.1,5.3,5.3,0,0,1-1.259-.131A2.359,2.359,0,0,1,450.883,317.57Zm6.651-8.68a5.63,5.63,0,0,0-1.056.138,17.546,17.546,0,0,0-2.205.6,26.013,26.013,0,0,0-3.348,1.289c-1.844.908-3.7,2.62-3.389,4.7a2.217,2.217,0,0,0,1.666,1.92,2.314,2.314,0,0,0,1.006-.041.572.572,0,0,1-.048-.156.613.613,0,0,1,.031-.313,1.942,1.942,0,0,1-.346.079,1.573,1.573,0,0,1-1.7-1,2.77,2.77,0,0,1,.284-2.481,6.815,6.815,0,0,1,3.348-2.61,23.99,23.99,0,0,1,4.816-1.554l.118-.024c.505-.1,1.351-.276,1.693.3a1.7,1.7,0,0,1-.195,1.585,4.369,4.369,0,0,1-1.708,1.536,1.809,1.809,0,0,1,.656.123,4.128,4.128,0,0,0,1.6-1.742,2.105,2.105,0,0,0,.065-1.654,1.131,1.131,0,0,0-.747-.624A1.961,1.961,0,0,0,457.534,308.891Zm-6.893,8.127a.134.134,0,0,0-.087.031.27.27,0,0,0-.079.244.245.245,0,0,0,.041.1,2.174,2.174,0,0,0,.471-.269q-.134-.042-.265-.092A.217.217,0,0,0,450.641,317.018Zm.959-.063a4.91,4.91,0,0,0,1.012.087,4,4,0,0,0,.865-.095,1.468,1.468,0,0,0,.341-.113,1.329,1.329,0,0,0,.125-.115l-.049,0V316.7a.481.481,0,0,1-.368-.455.568.568,0,0,1,.368-.59v-.019l.147-.011a5.189,5.189,0,0,0,2.263-.672,1.19,1.19,0,0,0,.59-.621.3.3,0,0,0-.067-.245c-.163-.214-.538-.149-.84-.1l-.059.029-.007-.018a.605.605,0,0,1-.632-.413.47.47,0,0,1,.217-.57l-.018-.043.155-.027a5.126,5.126,0,0,0,2.29-1.782c.11-.19.449-.843.2-1.263-.227-.379-.907-.24-1.357-.148l-.122.024a23.661,23.661,0,0,0-4.751,1.534,6.526,6.526,0,0,0-3.2,2.476,2.467,2.467,0,0,0-.269,2.2,1.269,1.269,0,0,0,1.369.811,1.254,1.254,0,0,0,1.051-.722.845.845,0,0,0-.2-.814.6.6,0,0,0-.588-.134.374.374,0,0,0-.256.328h0a.562.562,0,0,1-.35.456.581.581,0,0,1-.567-.055.458.458,0,0,1-.169-.442,1.6,1.6,0,0,1,1.055-1.324,1.574,1.574,0,0,1,1.643.4,1.856,1.856,0,0,1,.549,1.324A1.94,1.94,0,0,1,451.6,316.956Zm-.824-.236a.59.59,0,0,1,.058.019,4.438,4.438,0,0,0,.424.138,1.615,1.615,0,0,0,.393-1.064,1.54,1.54,0,0,0-.455-1.1,1.254,1.254,0,0,0-2.159.74.141.141,0,0,0,.047.149.267.267,0,0,0,.252.014.246.246,0,0,0,.157-.2.693.693,0,0,1,.466-.587.911.911,0,0,1,.913.206,1.149,1.149,0,0,1,.285,1.139A1.186,1.186,0,0,1,450.776,316.719Zm3.436-.776v.434c.139-.014.31-.035.5-.066a.721.721,0,0,0-.165-.212A.648.648,0,0,0,454.213,315.944Zm-.317.086a.287.287,0,0,0-.052.189.207.207,0,0,0,.052.13Zm.849-.18.013.011a1.055,1.055,0,0,1,.279.393c.954-.191,2.188-.618,2.546-1.559a1.1,1.1,0,0,0-.305-1.285,1.01,1.01,0,0,0-.1-.064c-.167.1-.338.2-.513.3a.67.67,0,0,1,.415.25.613.613,0,0,1,.126.5,1.512,1.512,0,0,1-.737.833A5.114,5.114,0,0,1,454.745,315.85Zm.889-2.535a.152.152,0,0,0-.042.174.3.3,0,0,0,.194.188Zm.3-.094.153.363c.238-.119.475-.244.7-.378A2.578,2.578,0,0,0,455.938,313.22Z" transform="translate(-447.184 -308.574)" fill="#1a1311"/>
        </g>
      </g>
    </g>
    <g id="그룹_4662" data-name="그룹 4662" transform="translate(192.565 258.079)">
      <g id="그룹_4658" data-name="그룹 4658" transform="translate(0.783 4.981)">
        <g id="그룹_4656" data-name="그룹 4656" transform="translate(0.356 0.356)">
          <path id="패스_14438" data-name="패스 14438" d="M413.117,332.695a2.944,2.944,0,0,0,2.636,1.849,2.84,2.84,0,0,0,2.849-1.81" transform="translate(-413.117 -332.695)" fill="#e13c4b"/>
        </g>
        <g id="그룹_4657" data-name="그룹 4657">
          <path id="패스_14439" data-name="패스 14439" d="M415.144,334.139c-.063,0-.123,0-.18-.006a3.279,3.279,0,0,1-2.95-2.092.356.356,0,0,1,.675-.224,2.579,2.579,0,0,0,2.323,1.606,2.464,2.464,0,0,0,2.485-1.564.356.356,0,0,1,.678.218A3.107,3.107,0,0,1,415.144,334.139Z" transform="translate(-411.996 -331.573)" fill="#1a1311"/>
        </g>
      </g>
      <g id="그룹_4661" data-name="그룹 4661" transform="translate(0 0)">
        <g id="그룹_4659" data-name="그룹 4659">
          <path id="패스_14440" data-name="패스 14440" d="M410.41,318.923h0a.879.879,0,0,1-.879-.879v-1.28a.879.879,0,0,1,.879-.879h0a.879.879,0,0,1,.879.879v1.28A.879.879,0,0,1,410.41,318.923Z" transform="translate(-409.531 -315.884)" fill="#1a1311"/>
        </g>
        <g id="그룹_4660" data-name="그룹 4660" transform="translate(5.787)">
          <path id="패스_14441" data-name="패스 14441" d="M428.639,318.923h0a.879.879,0,0,1-.879-.879v-1.28a.879.879,0,0,1,.879-.879h0a.88.88,0,0,1,.88.879v1.28A.88.88,0,0,1,428.639,318.923Z" transform="translate(-427.76 -315.884)" fill="#1a1311"/>
        </g>
      </g>
    </g>
    <g id="그룹_4698" data-name="그룹 4698" transform="translate(172.988 273.016)">
      <path id="패스_14493" data-name="패스 14493" d="M352.6,379.474c-1.314,1.23-2.705.8-3.742-.311s-1.553-2.762-.135-4.089l1.411-1.322c1.431-1.34,3.023-.716,4.09.423a3.547,3.547,0,0,1,.968,1.669.805.805,0,0,1-.546.961.766.766,0,0,1-.83-.329,2.147,2.147,0,0,1-.2-.484,2.771,2.771,0,0,0-.541-.745,1.213,1.213,0,0,0-1.765-.121l-1.3,1.212a1.183,1.183,0,0,0-.013,1.75,1.007,1.007,0,0,0,1.468.217l.077-.073c.13-.121.125-.165.009-.288l-.2-.214a.685.685,0,0,1,.059-1.027.711.711,0,0,1,1.048-.01l.552.589c.715.764.657,1.182-.068,1.862Z" transform="translate(-347.851 -369.766)" fill="#1a1311"/>
      <path id="패스_14494" data-name="패스 14494" d="M365.392,387.046a2.985,2.985,0,0,1,4.983,3.241l-1.059,1.629a2.985,2.985,0,0,1-4.983-3.241Zm3.494,2.209a1.162,1.162,0,0,0-1.949-1.267l-1.117,1.717a1.163,1.163,0,0,0,1.949,1.267Z" transform="translate(-358.774 -378.51)" fill="#1a1311"/>
      <path id="패스_14495" data-name="패스 14495" d="M384.251,396.8a2.985,2.985,0,0,1,5.625,1.922l-.628,1.839a2.985,2.985,0,0,1-5.626-1.922Zm3.93,1.286a1.163,1.163,0,0,0-2.2-.751l-.663,1.94a1.163,1.163,0,0,0,2.2.751Z" transform="translate(-372.149 -384.783)" fill="#1a1311"/>
      <path id="패스_14496" data-name="패스 14496" d="M408.088,399.221a2.957,2.957,0,0,1,2.859,3.54l-.05.575a2.957,2.957,0,0,1-3.418,3l-1.317-.112c-1.061-.091-1.347-.5-1.26-1.515l.369-4.324c.087-1.017.438-1.37,1.5-1.279Zm1.068,3.244c.088-1.034-.42-1.648-1.251-1.719l-.584-.05c-.2-.018-.26.022-.278.234l-.3,3.546c-.018.212.031.261.234.278l.584.05c.831.071,1.436-.448,1.525-1.482Z" transform="translate(-386.781 -387.581)" fill="#1a1311"/>
      <path id="패스_14497" data-name="패스 14497" d="M435.435,401.664a1.181,1.181,0,0,0,1.494.923,2.257,2.257,0,0,0,.874-.386,1.775,1.775,0,0,1,.4-.29.691.691,0,0,1,.821.147.762.762,0,0,1,.016,1.037,3.178,3.178,0,0,1-1.743,1.018c-1.491.364-3.158-.034-3.622-1.939l-.437-1.793c-.464-1.9.833-3.024,2.325-3.388a3.1,3.1,0,0,1,1.8.009.805.805,0,0,1,.569.948.767.767,0,0,1-.694.562,2.144,2.144,0,0,1-.518-.065,2.039,2.039,0,0,0-.786.073,1.181,1.181,0,0,0-.9,1.507Z" transform="translate(-406.068 -386.06)" fill="#1a1311"/>
      <path id="패스_14498" data-name="패스 14498" d="M453.558,392.392a1.172,1.172,0,0,1,.682-1.178,1.142,1.142,0,0,1,1.307.157l5,4.674-1.737.891-.81-.821-2.029,1.041.2,1.133-1.705.875Zm2.14,3.22,1.208-.62-1.608-1.658Z" transform="translate(-419.994 -382.11)" fill="#1a1311"/>
      <path id="패스_14499" data-name="패스 14499" d="M471.51,381.261l3.133,1.014-1.506,1.323-2.575-.914-.853.749,1.575,1.793-1.366,1.2-3.788-4.311c-.673-.767-.684-1.264.115-1.966l1.226-1.077c1.153-1.013,2.479-1.21,3.527-.017l.07.08A2.2,2.2,0,0,1,471.51,381.261Zm-2.789,1.045.866-.761a.821.821,0,0,0,.129-1.224l-.041-.047a.821.821,0,0,0-1.23-.029l-.673.592c-.153.134-.164.2-.023.363Z" transform="translate(-428.244 -373.342)" fill="#1a1311"/>
      <path id="패스_14500" data-name="패스 14500" d="M482.175,366.766l1.41-1.97a.721.721,0,0,1,1.053-.131.7.7,0,0,1,.2,1.024l-1.409,1.97.845.6c.173.124.24.106.358-.06l1.358-1.9a.7.7,0,0,1,1.039-.14.723.723,0,0,1,.224,1.044l-1.76,2.461c-.62.866-1.116.9-1.946.31l-3.529-2.524c-.83-.594-.955-1.076-.335-1.942l1.708-2.389a.724.724,0,0,1,1.061-.125.7.7,0,0,1,.2,1.029l-1.306,1.826c-.119.166-.114.235.059.359Z" transform="translate(-437.562 -362.825)" fill="#1a1311"/>
    </g>
  </g>
</svg>
