<svg xmlns="http://www.w3.org/2000/svg" width="80" height="80" viewBox="0 0 80 80">
  <g id="icon_gr" transform="translate(-87.452 -219.07)">
    <g id="그룹_4631" data-name="그룹 4631" transform="translate(87.452 219.07)">
      <path id="패스_14371" data-name="패스 14371" d="M68.9,273.139a40,40,0,1,1,40-40A40.045,40.045,0,0,1,68.9,273.139Zm0-77.14a37.14,37.14,0,1,0,37.14,37.14A37.182,37.182,0,0,0,68.9,196Z" transform="translate(-28.898 -193.139)" fill="#0092e5"/>
    </g>
    <g id="그룹_4632" data-name="그룹 4632" transform="translate(100.267 226.758)">
      <path id="패스_14372" data-name="패스 14372" d="M72.287,255.863a1.119,1.119,0,0,0,1.661-.091,2.206,2.206,0,0,0,.488-.774,1.732,1.732,0,0,1,.167-.444.668.668,0,0,1,.724-.331.7.7,0,0,1,.554.8,3.092,3.092,0,0,1-.843,1.736c-.986,1.091-2.509,1.685-3.87.454l-1.281-1.158c-1.361-1.231-.922-2.805.065-3.9a3.025,3.025,0,0,1,1.425-.969.716.716,0,0,1,.689,1.243,2.1,2.1,0,0,1-.443.23,1.982,1.982,0,0,0-.582.483,1.118,1.118,0,0,0,.075,1.661Z" transform="translate(-69.029 -240.426)" fill="#1a1311"/>
      <path id="패스_14373" data-name="패스 14373" d="M86.093,240.872a1.124,1.124,0,0,1,.467-1.208,1.1,1.1,0,0,1,1.25-.072l5.382,3.506-1.5,1.118-.881-.627-1.75,1.306.357,1.018-1.471,1.1Zm2.483,2.634,1.042-.778-1.754-1.271Z" transform="translate(-80.648 -232.419)" fill="#1a1311"/>
      <path id="패스_14374" data-name="패스 14374" d="M106.741,230.186l2.577,1.727-1.743.806-2.094-1.492-.987.456.937,2.028-1.582.731-2.254-4.877c-.4-.867-.273-1.319.653-1.747l1.419-.656c1.335-.617,2.6-.452,3.223.9l.042.09A2.048,2.048,0,0,1,106.741,230.186Zm-2.837.223,1-.464a.78.78,0,0,0,.459-1.073l-.025-.053a.778.778,0,0,0-1.114-.344l-.779.36c-.177.082-.206.141-.123.322Z" transform="translate(-91.11 -223.812)" fill="#1a1311"/>
      <path id="패스_14375" data-name="패스 14375" d="M124.53,222.542l2.255-.549a.681.681,0,0,1,.842.547.657.657,0,0,1-.5.849l-2.255.55.23.944c.047.194.107.222.3.176l2.172-.53a.659.659,0,0,1,.838.531.684.684,0,0,1-.494.881l-2.816.686c-.991.242-1.373-.033-1.6-.961l-.962-3.945c-.226-.928-.014-1.347.977-1.589l2.734-.666a.683.683,0,0,1,.844.555.659.659,0,0,1-.5.857l-2.089.509c-.19.046-.23.1-.183.293Z" transform="translate(-105.494 -218.778)" fill="#1a1311"/>
      <path id="패스_14376" data-name="패스 14376" d="M146.547,221.48l-.139-3.309a.773.773,0,1,1,1.545-.065l.219,5.226a.843.843,0,0,1-.8.831,1.208,1.208,0,0,1-1.133-.435l-2.222-3.5.166,3.965-1.545.064-.246-5.864a.883.883,0,0,1,.814-.865,1.161,1.161,0,0,1,1.116.436Z" transform="translate(-119.104 -217.35)" fill="#1a1311"/>
      <path id="패스_14377" data-name="패스 14377" d="M164.467,219.644a1.125,1.125,0,0,1,1.2-.489,1.094,1.094,0,0,1,.91.859l1.138,6.32-1.841-.323-.148-1.071-2.151-.378-.5.958-1.808-.317Zm-.214,3.613,1.281.225-.277-2.148Z" transform="translate(-131.987 -218.568)" fill="#1a1311"/>
      <path id="패스_14378" data-name="패스 14378" d="M184.883,228.949l1.848-4.875-1.217-.46a.683.683,0,0,1-.382-.935.66.66,0,0,1,.9-.424l4.086,1.547a.659.659,0,0,1,.391.912.684.684,0,0,1-.906.447l-1.216-.46-1.848,4.875Z" transform="translate(-148.104 -220.66)" fill="#1a1311"/>
      <path id="패스_14379" data-name="패스 14379" d="M199.294,231.2a.886.886,0,0,1,1.548.854L198,237.207l-1.548-.854Z" transform="translate(-155.998 -226.504)" fill="#1a1311"/>
      <path id="패스_14380" data-name="패스 14380" d="M207.538,239.049a2.866,2.866,0,0,1,4.525,3.455l-1.1,1.445a2.866,2.866,0,0,1-4.525-3.455Zm3.177,2.363a1.114,1.114,0,0,0-1.77-1.351l-1.164,1.524a1.114,1.114,0,0,0,1.77,1.351Z" transform="translate(-162.44 -231.476)" fill="#1a1311"/>
      <path id="패스_14381" data-name="패스 14381" d="M223.132,256.753l2.542-2.125a.774.774,0,1,1,.993,1.186l-4.013,3.356a.844.844,0,0,1-1.146-.128,1.206,1.206,0,0,1-.345-1.163l1.42-3.892-3.044,2.546-.993-1.186,4.5-3.766a.885.885,0,0,1,1.183.119,1.162,1.162,0,0,1,.334,1.15Z" transform="translate(-171.081 -240.591)" fill="#1a1311"/>
    </g>
    <g id="그룹_4635" data-name="그룹 4635" transform="translate(100.011 268.396)">
      <path id="패스_14393" data-name="패스 14393" d="M72.752,373.348c-1.51,1.111-2.872.522-3.782-.713s-1.213-2.972.415-4.17l1.621-1.193c1.643-1.21,3.186-.408,4.122.864a3.511,3.511,0,0,1,.763,1.8.851.851,0,0,1-.688.918.768.768,0,0,1-.8-.422,2.16,2.16,0,0,1-.137-.512,2.709,2.709,0,0,0-.451-.815,1.242,1.242,0,0,0-1.788-.31l-1.487,1.095a1.21,1.21,0,0,0-.251,1.777,1.026,1.026,0,0,0,1.47.377l.089-.066c.149-.11.15-.155.049-.292l-.176-.238a.705.705,0,0,1,.2-1.037.733.733,0,0,1,1.072.1l.484.657c.627.852.512,1.271-.321,1.884Z" transform="translate(-68.222 -360.831)" fill="#1a1311"/>
      <path id="패스_14394" data-name="패스 14394" d="M84.653,382.344a3.011,3.011,0,0,1,4.586,3.883l-1.307,1.543a3.011,3.011,0,0,1-4.586-3.883ZM87.878,385a1.175,1.175,0,1,0-1.793-1.518l-1.378,1.628A1.175,1.175,0,1,0,86.5,386.63Z" transform="translate(-78.054 -370.816)" fill="#1a1311"/>
      <path id="패스_14395" data-name="패스 14395" d="M102.245,394.436a3.012,3.012,0,0,1,5.368,2.705l-.91,1.806a3.012,3.012,0,0,1-5.367-2.705ZM106,396.268a1.175,1.175,0,1,0-2.1-1.058l-.96,1.9a1.175,1.175,0,1,0,2.1,1.058Z" transform="translate(-90.585 -378.714)" fill="#1a1311"/>
      <path id="패스_14396" data-name="패스 14396" d="M125.387,399.694c1.51.358,2.9,1.562,2.309,4.059l-.139.584c-.592,2.5-2.376,2.948-3.886,2.589l-1.3-.308c-1.047-.248-1.27-.71-1.025-1.743l1.042-4.394c.245-1.033.651-1.345,1.7-1.1Zm.563,3.493c.25-1.051-.164-1.757-.984-1.951l-.576-.137c-.2-.048-.264-.015-.315.2l-.854,3.6c-.051.216-.01.273.191.321l.576.137c.82.195,1.506-.25,1.756-1.3Z" transform="translate(-104.42 -383.103)" fill="#1a1311"/>
      <path id="패스_14397" data-name="패스 14397" d="M156.283,406.924l1.935,2.8-2.021.163-1.541-2.367-1.144.093.2,2.476-1.833.149-.48-5.955c-.085-1.058.2-1.48,1.277-1.567l1.645-.133c1.547-.125,2.743.537,2.876,2.185l.009.11A2.3,2.3,0,0,1,156.283,406.924Zm-2.9-.868,1.162-.094a.841.841,0,0,0,.842-.939l-.005-.064a.841.841,0,0,0-.982-.791l-.9.073c-.205.017-.255.067-.237.288Z" transform="translate(-124.985 -385.329)" fill="#1a1311"/>
      <path id="패스_14398" data-name="패스 14398" d="M172.873,401.009l2.338-.729a.742.742,0,0,1,.935.56.716.716,0,0,1-.46.966l-2.338.729.321,1.031c.066.212.131.24.328.178l2.252-.7a.718.718,0,0,1,.93.542.746.746,0,0,1-.449,1l-2.92.91c-1.028.32-1.454.037-1.77-.977l-1.342-4.312c-.316-1.014-.125-1.49.9-1.81l2.835-.883a.745.745,0,0,1,.938.569.718.718,0,0,1-.457.975l-2.167.675c-.2.061-.235.122-.169.333Z" transform="translate(-138.071 -381.856)" fill="#1a1311"/>
      <path id="패스_14399" data-name="패스 14399" d="M191.952,395.629l-1.569.9-5.089-4.248a.893.893,0,0,1-.052-1.366.953.953,0,0,1,1.376-.037L190,393.992l-1.014-4.488a.909.909,0,0,1,.687-1.142.876.876,0,0,1,1.118.773Z" transform="translate(-147.893 -375.609)" fill="#1a1311"/>
      <path id="패스_14400" data-name="패스 14400" d="M202.3,385.882a.933.933,0,0,1,1.437-1.19l4.176,5.042-1.437,1.19Z" transform="translate(-159.569 -372.882)" fill="#1a1311"/>
      <path id="패스_14401" data-name="패스 14401" d="M210.978,375.719l1.613-1.843a.743.743,0,0,1,1.09-.012.715.715,0,0,1,.112,1.064l-1.613,1.843.813.711c.167.146.237.136.373-.019l1.553-1.776a.718.718,0,0,1,1.076-.024.746.746,0,0,1,.14,1.088l-2.014,2.3c-.709.81-1.22.792-2.019.092l-3.4-2.974c-.8-.7-.885-1.2-.177-2.014l1.955-2.235a.745.745,0,0,1,1.1-.005.718.718,0,0,1,.119,1.07L210.2,374.7c-.136.155-.137.226.03.372Z" transform="translate(-163.658 -364.247)" fill="#1a1311"/>
      <path id="패스_14402" data-name="패스 14402" d="M224.564,352.5l-3.5-2.631a.845.845,0,0,1-.157-1.232.829.829,0,0,1,1.214-.174l5.217,4.012-.838,1.786-4.626-1.011,3.738,2.9-.781,1.664-6.439-1.386a.838.838,0,0,1-.643-1.064.854.854,0,0,1,1.052-.676l4.016.963-3.086-2.359a.995.995,0,0,1,.808-1.721Z" transform="translate(-170.259 -348.269)" fill="#1a1311"/>
    </g>
    <g id="그룹_4639" data-name="그룹 4639" transform="translate(100.977 233.639)">
      <circle id="타원_463" data-name="타원 463" cx="21.935" cy="21.935" r="21.935" transform="matrix(0.23, -0.973, 0.973, 0.23, 0, 42.697)" fill="#0092e5"/>
    </g>
    <g id="그룹_4642" data-name="그룹 4642" transform="translate(97.84 268.888)">
      <path id="패스_14425" data-name="패스 14425" d="M62.855,349.9l1.438.955,1.6-.644-.464,1.663,1.107,1.325-1.725.073-.918,1.462-.6-1.618-1.675-.421,1.353-1.073Z" transform="translate(-61.619 -349.902)" fill="#1a1311"/>
    </g>
    <g id="그룹_4643" data-name="그룹 4643" transform="translate(154.084 263.209)">
      <path id="패스_14426" data-name="패스 14426" d="M238.551,333.227l.935,1.452-.666,1.593,1.67-.44,1.309,1.126.1-1.724,1.475-.9-1.61-.625-.4-1.68-1.092,1.338Z" transform="translate(-238.551 -332.03)" fill="#1a1311"/>
    </g>
    <g id="그룹_4674" data-name="그룹 4674" transform="translate(114.724 245.711)">
      <g id="그룹_4665" data-name="그룹 4665" transform="translate(0 13.072)">
        <g id="그룹_4663" data-name="그룹 4663" transform="translate(0.531 0.533)">
          <path id="패스_14442" data-name="패스 14442" d="M118.862,319.938c-.562-.377-1.337.035-1.746.574a5.162,5.162,0,0,0-.619,4.035,12.654,12.654,0,0,0,3.377,6.553,4.671,4.671,0,0,0,1.836,1.271,2.1,2.1,0,0,0,2.106-.4" transform="translate(-116.359 -319.792)" fill="#ffd800"/>
        </g>
        <g id="그룹_4664" data-name="그룹 4664">
          <path id="패스_14443" data-name="패스 14443" d="M118.248,318.812c-1.526-.841-2.721,1.111-2.955,2.368a9.5,9.5,0,0,0,.781,5.166,12.735,12.735,0,0,0,3.009,4.471c1.13,1.062,2.874,1.806,4.194.611.352-.319-.17-.838-.52-.521-1.211,1.1-2.766-.168-3.615-1.078a12.34,12.34,0,0,1-2.249-3.422,10.626,10.626,0,0,1-.962-3.9,4.5,4.5,0,0,1,.346-2.025c.252-.543.9-1.416,1.6-1.033.415.229.787-.407.372-.636Z" transform="translate(-115.029 -318.451)" fill="#1a1311"/>
          <path id="패스_14444" data-name="패스 14444" d="M121.382,331.861a4.272,4.272,0,0,1-2.75-1.267,12.9,12.9,0,0,1-3.047-4.528,9.488,9.488,0,0,1-.79-5.255,3.7,3.7,0,0,1,1.7-2.545,1.579,1.579,0,0,1,1.488.067h0a.5.5,0,0,1,.194.7.521.521,0,0,1-.718.218A.545.545,0,0,0,117,319.2a1.938,1.938,0,0,0-.923,1,4.285,4.285,0,0,0-.332,1.954A10.441,10.441,0,0,0,116.7,326a12.116,12.116,0,0,0,2.219,3.378c.782.838,2.263,2.092,3.393,1.069a.513.513,0,0,1,.512-.115.569.569,0,0,1,.38.41.476.476,0,0,1-.158.461A2.41,2.41,0,0,1,121.382,331.861Zm-4.216-13.432a1.248,1.248,0,0,0-.536.125,3.424,3.424,0,0,0-1.523,2.317,9.187,9.187,0,0,0,.771,5.077,12.583,12.583,0,0,0,2.971,4.416c1.053.99,2.727,1.743,3.979.608a.159.159,0,0,0,.061-.158.252.252,0,0,0-.167-.175.2.2,0,0,0-.2.048c-1.332,1.206-2.976-.164-3.838-1.088a12.433,12.433,0,0,1-2.277-3.466,10.767,10.767,0,0,1-.976-3.96,4.6,4.6,0,0,1,.361-2.1A2.24,2.24,0,0,1,116.9,318.9a.861.861,0,0,1,.708.068.205.205,0,0,0,.287-.093.181.181,0,0,0-.069-.264A1.367,1.367,0,0,0,117.167,318.429Z" transform="translate(-114.687 -318.112)" fill="#1a1311"/>
        </g>
      </g>
      <g id="그룹_4668" data-name="그룹 4668" transform="translate(2.662 0)">
        <g id="그룹_4666" data-name="그룹 4666" transform="translate(0.527 0.535)">
          <path id="패스_14445" data-name="패스 14445" d="M145.142,298.128a2.256,2.256,0,0,1,.16.932,2.082,2.082,0,0,1-.533,1.029,13.337,13.337,0,0,1-12.173,4.677,5.917,5.917,0,0,1-2.319-.784,7.677,7.677,0,0,1-2.905-5.339,1.708,1.708,0,0,0-.04-.611,1.587,1.587,0,0,0-.492-.6,7.685,7.685,0,0,1-1.918-7.195c.3-1.444.95-2.786,1.276-4.223a6.744,6.744,0,0,0-.74-3.994,3.024,3.024,0,0,1-.492-2.121,1.765,1.765,0,0,1,.886-.952,3.394,3.394,0,0,1,3.269.2,5.429,5.429,0,0,1,2.113,2.621,7.105,7.105,0,0,1,.451,3.849,1.821,1.821,0,0,0-.022.862,1.242,1.242,0,0,0,.663.665,3.849,3.849,0,0,0,2.363.246c.794-.135,1.556-.412,2.334-.621a13.877,13.877,0,0,1,1.5-.316,1.472,1.472,0,0,1,.9.061,1.557,1.557,0,0,1,.569.663,22.536,22.536,0,0,1,1.605,3.264,25.72,25.72,0,0,0,1.284,3.512,11.044,11.044,0,0,0,1.107,1.61A11.321,11.321,0,0,1,145.142,298.128Z" transform="translate(-124.731 -278.617)" fill="#fff"/>
        </g>
        <g id="그룹_4667" data-name="그룹 4667">
          <path id="패스_14446" data-name="패스 14446" d="M144,297.417a1.465,1.465,0,0,1,.046,1.121,3.487,3.487,0,0,1-.543.743,12.66,12.66,0,0,1-1.2,1.212,13.083,13.083,0,0,1-9.653,3.2,5.617,5.617,0,0,1-3.614-1.358,7.845,7.845,0,0,1-1.944-3.354,4.1,4.1,0,0,1-.144-.951,3.217,3.217,0,0,0-.053-.9c-.157-.491-.662-.8-.991-1.169a6.378,6.378,0,0,1-1.43-2.97,8.57,8.57,0,0,1,.012-3.456c.284-1.376.894-2.656,1.227-4.019a6.081,6.081,0,0,0-.339-3.547c-.41-1.119-1.634-2.705-.127-3.5a3.21,3.21,0,0,1,3.628.766,6.139,6.139,0,0,1,1.649,3.336,6.657,6.657,0,0,1,.055,1.859,2.373,2.373,0,0,0,.084,1.647c.578.917,2,1.033,2.959.922,1.509-.173,2.952-1.009,4.48-1.015.731,0,1.171,1.262,1.467,1.827a16.43,16.43,0,0,1,.945,2.1,21.454,21.454,0,0,0,1.429,3.762c.329.563.8,1.023,1.126,1.59a11.545,11.545,0,0,1,.927,2.163c.147.448.858.256.71-.2a14.023,14.023,0,0,0-.736-1.84,12.811,12.811,0,0,0-1.2-1.794,15.026,15.026,0,0,1-1.549-3.881,16.426,16.426,0,0,0-1.893-3.829c-.8-1.136-2.5-.477-3.583-.164a13.069,13.069,0,0,1-2.218.55c-.67.072-1.769.063-2.2-.548-.231-.324-.08-.738-.033-1.1a7.256,7.256,0,0,0,.062-.978,7.508,7.508,0,0,0-.354-2.223c-.725-2.255-2.77-4.493-5.369-3.876a2.155,2.155,0,0,0-1.857,2.368,9.423,9.423,0,0,0,.755,1.9,7.306,7.306,0,0,1,.588,2.308c.088,1.509-.728,2.981-1.136,4.4a9.8,9.8,0,0,0-.358,3.742,7.856,7.856,0,0,0,1.07,3.292,6.622,6.622,0,0,0,1.1,1.333,1.1,1.1,0,0,1,.424.948,6.3,6.3,0,0,0,.123,1.154,8.581,8.581,0,0,0,1.93,3.6,5.517,5.517,0,0,0,3.442,1.727,13.758,13.758,0,0,0,11.493-3.644,9.8,9.8,0,0,0,1.3-1.471,2.08,2.08,0,0,0,.2-1.976C144.564,296.77,143.853,296.963,144,297.417Z" transform="translate(-123.413 -277.274)" fill="#1a1311"/>
          <path id="패스_14447" data-name="패스 14447" d="M133.363,304.284a13,13,0,0,1-2.022-.156,5.653,5.653,0,0,1-3.536-1.779,8.734,8.734,0,0,1-1.965-3.668,6.454,6.454,0,0,1-.127-1.182.957.957,0,0,0-.375-.839,6.8,6.8,0,0,1-1.122-1.365,7.971,7.971,0,0,1-1.093-3.359,9.907,9.907,0,0,1,.363-3.8c.123-.428.285-.868.442-1.293a7.8,7.8,0,0,0,.688-3.056,7.085,7.085,0,0,0-.576-2.257c-.079-.193-.17-.383-.261-.573a5.271,5.271,0,0,1-.5-1.363,2.311,2.311,0,0,1,1.977-2.55c2.606-.619,4.769,1.535,5.556,3.982a7.708,7.708,0,0,1,.361,2.271,7.477,7.477,0,0,1-.063,1c-.01.078-.025.158-.04.239a.974.974,0,0,0,.044.75c.42.589,1.58.533,2.059.482a9.779,9.779,0,0,0,1.753-.414c.146-.044.292-.088.437-.13l.318-.095c1.118-.339,2.649-.8,3.44.32a16.317,16.317,0,0,1,1.912,3.866c.129.36.243.734.354,1.1a9.275,9.275,0,0,0,1.175,2.745c.093.129.186.255.278.38a9.384,9.384,0,0,1,.931,1.436,14.068,14.068,0,0,1,.741,1.849l0,.013,0,.014a2.215,2.215,0,0,1-.229,2.1,10.061,10.061,0,0,1-1.323,1.5,13.639,13.639,0,0,1-3.458,2.41A14.071,14.071,0,0,1,133.363,304.284Zm-7.211-27.033a3.565,3.565,0,0,0-.825.1,2.007,2.007,0,0,0-1.737,2.187,5.042,5.042,0,0,0,.476,1.28c.094.2.187.392.268.59a7.389,7.389,0,0,1,.6,2.359,8.032,8.032,0,0,1-.708,3.184c-.162.439-.315.853-.435,1.27a9.593,9.593,0,0,0-.353,3.682,7.655,7.655,0,0,0,1.048,3.226,6.489,6.489,0,0,0,1.07,1.3,1.255,1.255,0,0,1,.473,1.056,6.105,6.105,0,0,0,.119,1.125,8.414,8.414,0,0,0,1.894,3.528,5.35,5.35,0,0,0,3.347,1.675,13.552,13.552,0,0,0,7.981-1.248,13.327,13.327,0,0,0,3.377-2.354,9.742,9.742,0,0,0,1.281-1.446,1.742,1.742,0,0,0,.3-1.372.578.578,0,0,1-.4.09,1.241,1.241,0,0,1-.084.78,3.333,3.333,0,0,1-.519.725l-.047.054a12.866,12.866,0,0,1-1.21,1.227,13.237,13.237,0,0,1-9.772,3.237,5.81,5.81,0,0,1-3.713-1.4,7.949,7.949,0,0,1-1.986-3.425,4.243,4.243,0,0,1-.149-.988c0-.09,0-.181,0-.271a1.768,1.768,0,0,0-.048-.589,1.97,1.97,0,0,0-.613-.774c-.118-.108-.24-.22-.346-.337a6.553,6.553,0,0,1-1.467-3.043,8.746,8.746,0,0,1,.012-3.521,17.5,17.5,0,0,1,.657-2.2c.207-.594.42-1.208.571-1.826a5.863,5.863,0,0,0-.334-3.455c-.08-.219-.192-.457-.312-.709-.48-1.016-1.078-2.281.259-2.99a3.385,3.385,0,0,1,3.813.793,6.285,6.285,0,0,1,1.695,3.422,6.783,6.783,0,0,1,.056,1.9c-.012.112-.029.224-.046.335a1.674,1.674,0,0,0,.107,1.21c.508.805,1.782.967,2.806.85a10.693,10.693,0,0,0,1.954-.486,8.68,8.68,0,0,1,2.543-.531h0c.7,0,1.131.91,1.442,1.575.059.126.113.242.163.337a16.4,16.4,0,0,1,.953,2.122c.13.365.247.735.364,1.1a12.778,12.778,0,0,0,1.053,2.63,7.075,7.075,0,0,0,.543.765,7.209,7.209,0,0,1,.583.827,10.735,10.735,0,0,1,.79,1.756.574.574,0,0,1,.4-.123,12.8,12.8,0,0,0-.569-1.356,9.147,9.147,0,0,0-.9-1.388c-.093-.126-.187-.253-.281-.383a9.506,9.506,0,0,1-1.22-2.837c-.11-.359-.224-.73-.35-1.083a15.988,15.988,0,0,0-1.873-3.791c-.658-.936-2.062-.51-3.088-.2-.112.034-.22.067-.322.1-.144.042-.289.085-.434.129a9.977,9.977,0,0,1-1.811.425c-.664.071-1.852.086-2.351-.613a1.235,1.235,0,0,1-.1-.992c.014-.076.028-.15.037-.223a7.157,7.157,0,0,0,.061-.957,7.373,7.373,0,0,0-.346-2.176C129.851,279.08,128.2,277.252,126.151,277.252Zm-.059.735a2.346,2.346,0,0,0-1.112.271c-.993.527-.676,1.4-.121,2.574.123.259.238.5.323.736a6.172,6.172,0,0,1,.344,3.639c-.155.632-.371,1.254-.58,1.855a17.212,17.212,0,0,0-.646,2.158,8.421,8.421,0,0,0-.012,3.392,6.237,6.237,0,0,0,1.393,2.9c.095.106.206.207.323.315a2.208,2.208,0,0,1,.7.912,2.039,2.039,0,0,1,.062.694c0,.085,0,.169,0,.253a3.93,3.93,0,0,0,.138.915,7.728,7.728,0,0,0,1.9,3.283,5.526,5.526,0,0,0,3.516,1.312,12.925,12.925,0,0,0,9.534-3.159,12.528,12.528,0,0,0,1.18-1.2l.047-.055a3.056,3.056,0,0,0,.473-.653,1.3,1.3,0,0,0-.054-1,11.266,11.266,0,0,0-.913-2.132,6.943,6.943,0,0,0-.558-.79,7.377,7.377,0,0,1-.567-.8,13,13,0,0,1-1.081-2.695c-.116-.366-.232-.732-.361-1.094a16.185,16.185,0,0,0-.936-2.082c-.052-.1-.108-.219-.17-.35-.26-.554-.652-1.392-1.155-1.392h0a8.438,8.438,0,0,0-2.449.516,10.917,10.917,0,0,1-2.013.5c-1.12.128-2.525-.065-3.111-1a1.94,1.94,0,0,1-.152-1.427c.016-.107.032-.214.044-.322a6.47,6.47,0,0,0-.053-1.814,5.964,5.964,0,0,0-1.6-3.249A3.49,3.49,0,0,0,126.092,277.987Zm17.714,19.041a.194.194,0,0,0,.151.14.252.252,0,0,0,.232-.069.156.156,0,0,0,.028-.159l0-.011,0-.009a.188.188,0,0,0-.143-.132.255.255,0,0,0-.233.068A.163.163,0,0,0,143.805,297.027Z" transform="translate(-123.071 -276.933)" fill="#1a1311"/>
        </g>
      </g>
      <g id="그룹_4671" data-name="그룹 4671" transform="translate(10.911 4.577)">
        <g id="그룹_4669" data-name="그룹 4669" transform="translate(0.521 0.517)">
          <path id="패스_14448" data-name="패스 14448" d="M160.605,293.27c-1.961-1-4.838.818-6.6,1.867a8.683,8.683,0,0,0-2.171,1.7,4.454,4.454,0,0,0-1.135,2.632,2.713,2.713,0,0,0,1.141,2.473.541.541,0,0,1,.263.23.656.656,0,0,1,.009.336,3.49,3.49,0,0,0,1.7,3.513.474.474,0,0,1,.218.164.626.626,0,0,1,.012.42,3,3,0,0,0,1.584,3.243,2.174,2.174,0,0,0,.44,2.15,2.488,2.488,0,0,0,1.906.757,5.422,5.422,0,0,0,2.029-.532,14.712,14.712,0,0,0,3.416-2.092,5.164,5.164,0,0,0,1.584-1.9,2.466,2.466,0,0,0-.185-2.446,1.375,1.375,0,0,1-.415-.633,1.189,1.189,0,0,1,.116-.57,4.693,4.693,0,0,0,.342-2.186,2.074,2.074,0,0,0-1.112-1.7.559.559,0,0,1-.294-.184.691.691,0,0,1,0-.517,3.238,3.238,0,0,0-1.164-3.345.565.565,0,0,1-.262-.273.719.719,0,0,1,0-.308A2.807,2.807,0,0,0,160.605,293.27Z" transform="translate(-150.699 -292.98)" fill="#fff"/>
        </g>
        <g id="그룹_4670" data-name="그룹 4670">
          <path id="패스_14449" data-name="패스 14449" d="M160,292.183c-1.532-.725-3.234-.128-4.663.57a14.344,14.344,0,0,0-4.55,3.056c-1.146,1.319-1.753,3.37-.7,4.931a2.622,2.622,0,0,0,.352.425c.117.112.34.206.431.328.139.186.063.453.061.662a4,4,0,0,0,.051.675,3.9,3.9,0,0,0,1.166,2.256,3.387,3.387,0,0,0,.433.337c.276.18.32.24.283.576a3.511,3.511,0,0,0,.12,1.37,3.174,3.174,0,0,0,1.67,2.03l-.169-.416a2.558,2.558,0,0,0,.663,2.637,3.161,3.161,0,0,0,2.86.634,10.671,10.671,0,0,0,3.33-1.508,10.419,10.419,0,0,0,2.626-2.176,3.5,3.5,0,0,0,.823-2.65,2.306,2.306,0,0,0-.5-1.163.836.836,0,0,1-.17-.941,6.308,6.308,0,0,0,.284-1.082,3.154,3.154,0,0,0-.678-2.718c-.166-.171-.425-.25-.581-.407-.175-.176-.095-.372-.059-.615a3.778,3.778,0,0,0-.091-1.523,3.559,3.559,0,0,0-.666-1.32c-.169-.207-.411-.345-.577-.543-.13-.156-.114-.1-.137-.308-.018-.165.029-.35.019-.519a3.211,3.211,0,0,0-1.632-2.6c-.415-.23-.787.406-.372.635a2.469,2.469,0,0,1,1.267,2.31c-.022.353-.07.624.2.9a5.368,5.368,0,0,1,.842.833,2.977,2.977,0,0,1,.435,1.252,10.082,10.082,0,0,1-.115,1.386.72.72,0,0,0,.358.678,1.841,1.841,0,0,1,.947.937,2.809,2.809,0,0,1,.123,1.476c-.081.534-.36,1.026-.428,1.555a1.138,1.138,0,0,0,.309.905,1.86,1.86,0,0,1,.514,1.215c.058,2-2.29,3.416-3.8,4.259a6.328,6.328,0,0,1-3.352,1.092,1.87,1.87,0,0,1-1.73-2.434.369.369,0,0,0-.169-.416,2.5,2.5,0,0,1-1.373-1.745,3.44,3.44,0,0,1-.017-1.228.769.769,0,0,0-.227-.731c-.269-.227-.6-.342-.85-.6a3.088,3.088,0,0,1-.661-1.035,3.379,3.379,0,0,1-.232-1.186c0-.328.124-.711-.03-1.019-.137-.273-.466-.375-.677-.575a2.234,2.234,0,0,1-.589-1.059,3.439,3.439,0,0,1,.47-2.6c.852-1.433,2.443-2.259,3.851-3.054,1.375-.776,3.347-1.865,4.94-1.111C160.059,293.02,160.433,292.385,160,292.183Z" transform="translate(-149.391 -291.693)" fill="#1a1311"/>
          <path id="패스_14450" data-name="패스 14450" d="M156.818,312.163a3.042,3.042,0,0,1-2.111-.77,2.726,2.726,0,0,1-.806-2.385,3.415,3.415,0,0,1-1.4-1.938,3.67,3.67,0,0,1-.126-1.432c.03-.267.021-.273-.212-.425a3.506,3.506,0,0,1-.453-.353,4.081,4.081,0,0,1-1.216-2.349,4.14,4.14,0,0,1-.053-.7c0-.056.006-.115.012-.176a.586.586,0,0,0-.041-.389.875.875,0,0,0-.2-.15,1.424,1.424,0,0,1-.217-.158,2.786,2.786,0,0,1-.374-.451c-1.121-1.665-.415-3.823.715-5.124a14.479,14.479,0,0,1,4.6-3.095c1.358-.663,3.12-1.327,4.736-.6a.561.561,0,0,1,.068.032.5.5,0,0,1,.064.037,3.375,3.375,0,0,1,1.654,2.7,1.739,1.739,0,0,1-.011.268,1.224,1.224,0,0,0-.008.243l0,.045a.6.6,0,0,0,.01.082.389.389,0,0,1,.027.029l.059.068a1.94,1.94,0,0,0,.258.24,2.246,2.246,0,0,1,.32.3,3.721,3.721,0,0,1,.7,1.379,3.96,3.96,0,0,1,.095,1.588c-.007.044-.014.086-.022.127-.036.2-.042.273.037.353a1.224,1.224,0,0,0,.245.168,1.475,1.475,0,0,1,.337.24,3.287,3.287,0,0,1,.721,2.853,6.382,6.382,0,0,1-.291,1.109.68.68,0,0,0,.143.788,2.463,2.463,0,0,1,.531,1.242,3.656,3.656,0,0,1-.856,2.771,10.708,10.708,0,0,1-2.666,2.211,11.007,11.007,0,0,1-3.382,1.528A4.25,4.25,0,0,1,156.818,312.163Zm-2.619-2.989a2.4,2.4,0,0,0,.724,1.987,3,3,0,0,0,2.718.595,10.715,10.715,0,0,0,3.279-1.487,10.416,10.416,0,0,0,2.587-2.14,3.342,3.342,0,0,0,.79-2.529,2.154,2.154,0,0,0-.461-1.085.99.99,0,0,1-.2-1.093,6.094,6.094,0,0,0,.277-1.055,2.978,2.978,0,0,0-.635-2.582,1.236,1.236,0,0,0-.268-.187,1.435,1.435,0,0,1-.312-.219.635.635,0,0,1-.124-.634c.007-.038.014-.076.02-.116a3.64,3.64,0,0,0-.087-1.459,3.407,3.407,0,0,0-.636-1.261,1.971,1.971,0,0,0-.276-.26,2.283,2.283,0,0,1-.3-.281l-.053-.062a.379.379,0,0,1-.116-.287l0-.044a1.5,1.5,0,0,1,.008-.307,1.423,1.423,0,0,0,.01-.219,3.063,3.063,0,0,0-1.143-2.2.588.588,0,0,1-.232.326l-.018.012a2.641,2.641,0,0,1,.974,2.206l-.007.1c-.02.291-.034.483.157.68a4.012,4.012,0,0,0,.308.277,2.514,2.514,0,0,1,.554.582,3.144,3.144,0,0,1,.459,1.318,3.012,3.012,0,0,1-.053.852,3.783,3.783,0,0,0-.062.554.564.564,0,0,0,.283.541l.072.044a1.882,1.882,0,0,1,.94.97,2.919,2.919,0,0,1,.132,1.559,4.518,4.518,0,0,1-.219.787,3.908,3.908,0,0,0-.208.764.976.976,0,0,0,.275.784,2.011,2.011,0,0,1,.55,1.311c.057,1.94-1.932,3.314-3.885,4.4a6.438,6.438,0,0,1-3.442,1.112,2.192,2.192,0,0,1-1.65-.942,1.891,1.891,0,0,1-.321-1.125l-.352-.16Zm3.909-16.795a8.223,8.223,0,0,0-3.672,1.345l-.28.157a8.809,8.809,0,0,0-3.512,2.839,3.261,3.261,0,0,0-.452,2.481,2.074,2.074,0,0,0,.544.984,1.7,1.7,0,0,0,.244.177,1.186,1.186,0,0,1,.465.441,1.384,1.384,0,0,1,.068.785,2.593,2.593,0,0,0-.022.3,3.237,3.237,0,0,0,.221,1.13,2.928,2.928,0,0,0,.626.981,2.122,2.122,0,0,0,.442.321,2.983,2.983,0,0,1,.4.27.935.935,0,0,1,.283.869,3.278,3.278,0,0,0,.014,1.174,2.325,2.325,0,0,0,1.284,1.637.528.528,0,0,1,.254.61,1.613,1.613,0,0,0,.18,1.424,1.875,1.875,0,0,0,1.412.8,6.163,6.163,0,0,0,3.262-1.073c1.869-1.042,3.773-2.345,3.722-4.115a1.7,1.7,0,0,0-.478-1.119,1.3,1.3,0,0,1-.344-1.026,4.177,4.177,0,0,1,.223-.827,4.192,4.192,0,0,0,.2-.731,2.614,2.614,0,0,0-.113-1.393,1.59,1.59,0,0,0-.81-.817l-.073-.044a.872.872,0,0,1-.434-.816,4.057,4.057,0,0,1,.066-.6,2.752,2.752,0,0,0,.051-.765,2.827,2.827,0,0,0-.411-1.185,2.23,2.23,0,0,0-.49-.508,4.33,4.33,0,0,1-.332-.3,1.044,1.044,0,0,1-.246-.923l.006-.095a2.32,2.32,0,0,0-1.181-2.159A2.593,2.593,0,0,0,158.108,292.38Zm-3.919,15.93.419,1.03a2.087,2.087,0,0,1,.1-.553.215.215,0,0,0-.084-.222A2.505,2.505,0,0,1,154.189,308.31Zm3.961-16.641a7.284,7.284,0,0,0-3.073.884,14.214,14.214,0,0,0-4.5,3.018c-1.053,1.212-1.718,3.211-.691,4.738a2.438,2.438,0,0,0,.33.4,1.171,1.171,0,0,0,.168.12,1.041,1.041,0,0,1,.28.227.84.84,0,0,1,.1.609c0,.052-.01.1-.01.151a3.851,3.851,0,0,0,.049.648,3.76,3.76,0,0,0,1.117,2.164,3.2,3.2,0,0,0,.412.321.6.6,0,0,1,.354.726,3.358,3.358,0,0,0,.115,1.307,3.127,3.127,0,0,0,1.172,1.695c.009-.028.017-.057.026-.085l.111-.339a2.732,2.732,0,0,1-.947-1.539,3.586,3.586,0,0,1-.021-1.282.606.606,0,0,0-.172-.593,2.732,2.732,0,0,0-.356-.241,2.42,2.42,0,0,1-.5-.37,3.249,3.249,0,0,1-.7-1.089,3.558,3.558,0,0,1-.243-1.242,2.961,2.961,0,0,1,.024-.341,1.118,1.118,0,0,0-.036-.609.919.919,0,0,0-.352-.316,1.9,1.9,0,0,1-.292-.214,2.385,2.385,0,0,1-.633-1.134,3.574,3.574,0,0,1,.486-2.724,9.174,9.174,0,0,1,3.63-2.953l.28-.157c1.245-.7,3.076-1.736,4.679-1.271a.567.567,0,0,1,.156-.378A3.5,3.5,0,0,0,158.15,291.669Zm1.221.665a.21.21,0,0,0,.217-.018.251.251,0,0,0,.113-.21.131.131,0,0,0-.06-.1l-.043-.024-.044-.021a.178.178,0,0,0-.156.016.253.253,0,0,0-.12.211A.166.166,0,0,0,159.371,292.334Z" transform="translate(-149.057 -291.35)" fill="#1a1311"/>
        </g>
      </g>
      <g id="그룹_4672" data-name="그룹 4672" transform="translate(15.026 8.932)">
        <path id="패스_14451" data-name="패스 14451" d="M163.141,309.487a12.691,12.691,0,0,1,4.551-3.18c.433-.177.243-.889-.2-.71a13.517,13.517,0,0,0-4.876,3.369c-.32.348.2.87.521.521Z" transform="translate(-162.361 -305.41)" fill="#1a1311"/>
        <path id="패스_14452" data-name="패스 14452" d="M162.555,309.421a.462.462,0,0,1-.1-.012.569.569,0,0,1-.408-.383.509.509,0,0,1,.118-.508,13.64,13.64,0,0,1,4.933-3.409.452.452,0,0,1,.615.259.563.563,0,0,1-.3.744,12.472,12.472,0,0,0-4.494,3.14h0A.49.49,0,0,1,162.555,309.421Zm4.735-4.034a.2.2,0,0,0-.075.017,13.325,13.325,0,0,0-4.819,3.329.193.193,0,0,0-.049.2.253.253,0,0,0,.174.168.161.161,0,0,0,.162-.06h0a12.79,12.79,0,0,1,4.609-3.219.25.25,0,0,0,.125-.33A.137.137,0,0,0,167.29,305.387Z" transform="translate(-162.02 -305.07)" fill="#1a1311"/>
      </g>
      <g id="그룹_4673" data-name="그룹 4673" transform="translate(10.695 13.862)">
        <path id="패스_14453" data-name="패스 14453" d="M150.306,321.563a6.333,6.333,0,0,1-1.339,5.18c-.3.363.218.886.521.521a7.132,7.132,0,0,0,1.528-5.9c-.087-.465-.8-.268-.71.2Z" transform="translate(-148.718 -320.942)" fill="#1a1311"/>
        <path id="패스_14454" data-name="패스 14454" d="M148.9,327.2a.5.5,0,0,1-.316-.121.553.553,0,0,1-.086-.784,6.212,6.212,0,0,0,1.305-5.049h0a.549.549,0,0,1,.452-.64.466.466,0,0,1,.57.386,7.32,7.32,0,0,1-1.562,6.027A.472.472,0,0,1,148.9,327.2Zm1.216-6.013a6.535,6.535,0,0,1-1.373,5.31.235.235,0,0,0,.043.337.148.148,0,0,0,.233-.019,7,7,0,0,0,1.495-5.766.154.154,0,0,0-.2-.132.231.231,0,0,0-.2.269Z" transform="translate(-148.377 -320.6)" fill="#1a1311"/>
      </g>
    </g>
  </g>
</svg>
