<svg xmlns="http://www.w3.org/2000/svg" width="70" height="80" viewBox="0 0 70 80">
  <g id="icon_support" transform="translate(-157.115 -294.318)">
    <g id="그룹_4624" data-name="그룹 4624" transform="translate(157.115 294.318)">
      <g id="그룹_4622" data-name="그룹 4622" transform="translate(1.254 1.252)">
        <path id="패스_14366" data-name="패스 14366" d="M369.867,503.792l-.272-.251a2.157,2.157,0,0,0-.327-.387l-12.66-11.7-1.844-1.925a2.214,2.214,0,0,0-1.507-.59h-.01a2.211,2.211,0,0,0-1.23.379c-.332.224-.7.451-1.109.694-.044.026-.087.052-.13.082-2.832,1.936-8.178,3.188-13.94,3.267-5.607-.08-10.809-1.284-13.578-3.141-.042-.028-.085-.055-.129-.08-.416-.239-.781-.463-1.116-.684a2.209,2.209,0,0,0-1.222-.368h-.01a2.214,2.214,0,0,0-1.512.6l-14.036,13.2-1.431,1.183a2.228,2.228,0,0,0-.475,2.62c.047.1,4.753,9.776,4.221,15.884a41.314,41.314,0,0,1-.856,4.7c-1.583,7.284-3.975,18.291,5.648,26.635,9.728,8.436,21.886,12.519,25.273,12.518l.138,0a.453.453,0,0,0,.086,0h.062a2.243,2.243,0,0,0,.879-.186,60.256,60.256,0,0,0,22.99-12.54c9.549-8.43,7.06-19.415,5.413-26.685a41.238,41.238,0,0,1-.9-4.7c-.585-6.1,4.034-15.824,4.081-15.921A2.229,2.229,0,0,0,369.867,503.792Z" transform="translate(-303.095 -488.943)" fill="#c08d4e"/>
      </g>
      <g id="그룹_4623" data-name="그룹 4623" transform="translate(0 0)">
        <path id="패스_14367" data-name="패스 14367" d="M334.328,564.41c-3.945,0-16.384-4.4-26.093-12.824-10.184-8.832-7.7-20.276-6.051-27.848a40.607,40.607,0,0,0,.832-4.546c.5-5.729-4.051-15.127-4.1-15.221a3.478,3.478,0,0,1,.743-4.087l.06-.053,1.4-1.158,14-13.17a3.475,3.475,0,0,1,4.3-.369c.315.207.658.418,1.049.643.073.043.138.083.2.125,2.538,1.7,7.59,2.851,12.879,2.929,5.441-.077,10.633-1.273,13.228-3.047.07-.048.136-.09.2-.129.388-.228.729-.441,1.042-.652a3.475,3.475,0,0,1,4.3.33l.055.054,1.818,1.9,12.63,11.668a3.293,3.293,0,0,1,.424.478l.174.161a3.479,3.479,0,0,1,.778,4.082c-.045.094-4.512,9.525-3.962,15.255a40.579,40.579,0,0,0,.872,4.537c1.713,7.558,4.3,18.98-5.806,27.9A61.771,61.771,0,0,1,335.9,564.156a3.5,3.5,0,0,1-1.278.249H334.6c-.043,0-.087,0-.131,0Zm-32.967-62.672a.965.965,0,0,0-.184,1.127c.2.413,4.9,10.118,4.344,16.545a41.957,41.957,0,0,1-.88,4.862c-1.611,7.41-3.816,17.56,5.242,25.415,9.75,8.456,21.59,12.21,24.445,12.209l.091,0,.072-.007.118,0h.023a.969.969,0,0,0,.359-.081l.089-.039.093-.025a59,59,0,0,0,22.475-12.265c8.989-7.935,6.694-18.065,5.018-25.461a41.972,41.972,0,0,1-.923-4.853c-.618-6.441,4-16.171,4.2-16.582a.966.966,0,0,0-.217-1.148l-.381-.352-.082-.123a.947.947,0,0,0-.136-.165l-12.713-11.748L350.6,487.16a.961.961,0,0,0-1.168-.071c-.356.24-.74.481-1.175.735l-.06.038c-3.021,2.066-8.627,3.4-14.627,3.484h-.036c-5.836-.084-11.3-1.369-14.259-3.354l-.062-.038c-.43-.247-.817-.485-1.176-.721a.961.961,0,0,0-1.19.1l-14.094,13.25Z" transform="translate(-298.556 -484.41)" fill="#c08d4e"/>
      </g>
    </g>
    <g id="그룹_4629" data-name="그룹 4629" transform="translate(158.816 296.054)">
      <g id="그룹_4626" data-name="그룹 4626" transform="translate(0.415 0.412)">
        <g id="그룹_4625" data-name="그룹 4625">
          <path id="패스_14368" data-name="패스 14368" d="M371.462,506.736l-.306-.282a1.77,1.77,0,0,0-.285-.348L358.35,494.537l-1.8-1.883a1.778,1.778,0,0,0-2.2-.169c-.337.227-.7.455-1.118.7-.036.021-.07.043-.1.066-2.879,1.968-8.22,3.219-14.007,3.3-5.632-.08-10.8-1.274-13.634-3.171-.034-.023-.069-.044-.1-.065-.418-.24-.785-.466-1.124-.69a1.777,1.777,0,0,0-2.2.189l-.7.658-.006,0-13.176,12.39-1.394,1.151a1.8,1.8,0,0,0-.381,2.1c.047.1,4.745,9.753,4.209,15.905a40.938,40.938,0,0,1-.853,4.7c-1.542,7.1-3.874,17.824,5.445,25.905,9.819,8.516,21.933,12.4,24.842,12.258a.04.04,0,0,0,.028,0h.1a1.779,1.779,0,0,0,.732-.161,58.776,58.776,0,0,0,22.569-12.3c9.247-8.163,6.821-18.868,5.216-25.952a41,41,0,0,1-.895-4.689c-.59-6.147,4.023-15.845,4.069-15.942A1.8,1.8,0,0,0,371.462,506.736Z" transform="translate(-306.215 -492.181)" fill="#c08d4e"/>
        </g>
      </g>
      <g id="그룹_4628" data-name="그룹 4628" transform="translate(0 0)">
        <g id="그룹_4627" data-name="그룹 4627">
          <path id="패스_14369" data-name="패스 14369" d="M338.8,567.22c-3.345,0-15.352-4.031-24.959-12.362-9.5-8.241-7.141-19.111-5.578-26.3a40.743,40.743,0,0,0,.846-4.645c.525-6.033-4.121-15.591-4.168-15.687a2.2,2.2,0,0,1,.469-2.587l1.413-1.168,13.861-13.035a2.188,2.188,0,0,1,1.493-.6h.01a2.182,2.182,0,0,1,1.207.364c.332.219.692.44,1.1.676.044.026.086.052.127.079,2.734,1.834,7.872,3.023,13.409,3.1,5.69-.078,10.97-1.314,13.767-3.226.043-.029.085-.056.128-.081.409-.24.767-.464,1.1-.685a2.184,2.184,0,0,1,1.215-.374h.01a2.187,2.187,0,0,1,1.489.583l1.821,1.9,12.5,11.55a2.145,2.145,0,0,1,.322.383l.269.248a2.2,2.2,0,0,1,.492,2.583c-.046.1-4.608,9.7-4.03,15.723A40.678,40.678,0,0,0,368,528.3c1.627,7.179,4.085,18.028-5.345,26.352a59.5,59.5,0,0,1-22.7,12.384,2.212,2.212,0,0,1-.868.183h-.062a.478.478,0,0,1-.085,0Zm-18.277-74.5-13.153,12.369-1.413,1.168a1.372,1.372,0,0,0-.273,1.6c.048.1,4.795,9.864,4.25,16.123a41.175,41.175,0,0,1-.861,4.749c-1.522,7-3.821,17.584,5.311,25.5,9.59,8.316,21.507,12.287,24.525,12.158l.037,0,.086,0,.007,0h.037a1.378,1.378,0,0,0,.565-.124l.067-.024a58.59,58.59,0,0,0,22.4-12.212c9.062-8,6.669-18.561,5.086-25.549a41.259,41.259,0,0,1-.9-4.741c-.6-6.252,4.06-16.062,4.108-16.16a1.4,1.4,0,0,0-.307-1.617l-.373-.363a1.361,1.361,0,0,0-.218-.268l-12.521-11.568-1.821-1.9a1.353,1.353,0,0,0-.909-.345h-.006a1.361,1.361,0,0,0-.755.233c-.342.231-.715.465-1.139.713-.028.016-.055.034-.081.052-2.922,2-8.377,3.289-14.232,3.37-5.786-.083-10.967-1.295-13.869-3.242-.026-.017-.053-.034-.08-.05-.424-.244-.8-.474-1.146-.7a1.454,1.454,0,0,0-.757-.226,1.362,1.362,0,0,0-.93.371Z" transform="translate(-304.714 -490.689)" fill="#fff"/>
        </g>
      </g>
    </g>
    <g id="그룹_4677" data-name="그룹 4677" transform="translate(162.708 299.961)">
      <g id="그룹_4675" data-name="그룹 4675" transform="translate(0.552 0.553)">
        <path id="패스_14455" data-name="패스 14455" d="M349.893,574.477a.555.555,0,0,1-.295-.085,53.923,53.923,0,0,1-20.932-11.262c-8.223-7.194-6.16-16.491-4.653-23.28a39.194,39.194,0,0,0,.845-4.556c.559-6.108-3.956-15.48-4-15.575a.555.555,0,0,1,.121-.649l12.964-12.083a.555.555,0,0,1,.687-.055c.337.225.7.45,1.113.689l.033.02c2.952,2,8.386,3.241,14.181,3.241s11.229-1.242,14.181-3.241l.032-.02c.412-.239.776-.465,1.113-.69a.556.556,0,0,1,.687.056l12.964,12.083a.555.555,0,0,1,.121.649c-.046.094-4.561,9.471-4,15.574a39.123,39.123,0,0,0,.844,4.556c1.507,6.789,3.571,16.086-4.653,23.28a53.925,53.925,0,0,1-20.932,11.262.555.555,0,0,1-.295.085.511.511,0,0,0-.122,0Z" transform="translate(-320.8 -506.839)" fill="#fff"/>
      </g>
      <g id="그룹_4676" data-name="그룹 4676">
        <path id="패스_14456" data-name="패스 14456" d="M364.141,505.948,377.1,518.03s-4.635,9.534-4.055,15.866,6.445,18.559-3.621,27.366a52.954,52.954,0,0,1-20.859,11.18v.028l-.061-.014-.061.014v-.028a52.956,52.956,0,0,1-20.859-11.18c-10.066-8.807-4.2-21.034-3.621-27.366s-4.055-15.866-4.055-15.866l12.963-12.082c.383.255.763.488,1.142.708,2.951,2,8.336,3.336,14.491,3.336s11.54-1.338,14.491-3.336c.379-.22.76-.453,1.143-.708m0-1.11a1.108,1.108,0,0,0-.616.187c-.327.218-.682.438-1.084.672-.022.013-.044.026-.065.041-2.865,1.94-8.179,3.145-13.869,3.145s-11-1.205-13.869-3.145c-.021-.014-.043-.028-.065-.041-.4-.234-.757-.453-1.084-.672a1.11,1.11,0,0,0-1.374.112l-12.963,12.082a1.11,1.11,0,0,0-.242,1.3c.045.093,4.492,9.334,3.948,15.281a38.833,38.833,0,0,1-.833,4.486c-.734,3.307-1.647,7.421-1.328,11.569a17.337,17.337,0,0,0,6.157,12.247,54.6,54.6,0,0,0,21.092,11.365,1.109,1.109,0,0,0,.5.118l.061,0,.061,0a1.111,1.111,0,0,0,.5-.118A54.6,54.6,0,0,0,370.158,562.1a17.338,17.338,0,0,0,6.157-12.247c.319-4.148-.595-8.263-1.329-11.569a38.822,38.822,0,0,1-.833-4.486c-.545-5.955,3.9-15.188,3.948-15.28a1.11,1.11,0,0,0-.242-1.3L364.9,505.136a1.109,1.109,0,0,0-.758-.3Z" transform="translate(-318.8 -504.838)" fill="#905b44"/>
      </g>
    </g>
    <g id="그룹_4678" data-name="그룹 4678" transform="translate(171.761 309.793)">
      <path id="패스_14457" data-name="패스 14457" d="M357.531,544.01a2.438,2.438,0,0,1,.312,1.239c0,1.517-.924,2.65-1.87,2.65-.451,0-.817-.321-.817-.983a2.312,2.312,0,0,1,1.182-1.9.035.035,0,0,1,.011.064,2.449,2.449,0,0,0-1.107,1.816c0,.417.194.8.473.8.634,0,1.7-2.126,1.7-3.269a1.314,1.314,0,0,0-.054-.374,1.994,1.994,0,0,1-.441.043c-.323,0-.613-.1-.613-.438a.267.267,0,0,1,.28-.289,1.246,1.246,0,0,1,.806.449,2.3,2.3,0,0,0,.892-1.784,1.524,1.524,0,0,0-.484-1.207,13.663,13.663,0,0,0-2.117,3.611c-.881,1.784-1.881,3.462-3.461,3.473a1.111,1.111,0,0,1-1.193-1.133c0-.363.129-.727.376-.727.215,0,.376.32.376.609,0,.31-.193.566-.408.566h-.011c.011.331.344.545.806.545,1.236,0,1.892-1.987,2.934-3.943a9.112,9.112,0,0,1,2.537-3.13,2.386,2.386,0,0,0-1.3-.353,3.4,3.4,0,0,0-3.16,2.938c0,.513.247.983.58.983.742,0,1.644-1.773,1.634-2.959,0-.043.065-.021.065,0,0,.064.011.139.011.214,0,1.239-.785,2.874-1.666,2.874-.4,0-.709-.481-.709-1.079,0-1.869,2-3.141,3.59-3.141a2.373,2.373,0,0,1,1.247.342,2.763,2.763,0,0,1,.8-.289c.065,0,.054.085.022.085a2.088,2.088,0,0,0-.666.3,1.742,1.742,0,0,1,.8,1.485A1.855,1.855,0,0,1,357.531,544.01Zm-.913-.513c-.107,0-.236.021-.236.149,0,.225.193.3.419.3a1.608,1.608,0,0,0,.452-.075A.721.721,0,0,0,356.618,543.5Z" transform="translate(-351.029 -540.174)" fill="#1a1311"/>
      <path id="패스_14458" data-name="패스 14458" d="M377.428,559.2c-.322,0-.559-.225-.559-.941,0-1.2,1.214-2.5,1.87-2.5.236,0,.462.235.462.62a1.327,1.327,0,0,1-1.3,1.282c-.043,0-.129-.011-.129-.011l-.548.951a.454.454,0,0,0-.064.256c0,.2.172.235.3.235.419,0,1.075-.491,1.9-1.8l.064.064C378.6,558.722,377.944,559.2,377.428,559.2Zm1.473-3.27a.192.192,0,0,0-.161.1,13.815,13.815,0,0,0-.892,1.5,1.456,1.456,0,0,0,1.171-1.368C379.018,556.03,378.965,555.934,378.9,555.934Z" transform="translate(-369.731 -551.457)" fill="#1a1311"/>
      <path id="패스_14459" data-name="패스 14459" d="M386.247,556.424a1.422,1.422,0,0,1-1.1.855c-.462,0-.849-.427-.849-1.068,0-.535.193-.662.58-1.037a9.36,9.36,0,0,0,1.064-1.282.931.931,0,0,1-.022-.181c0-.342.226-.694.365-.694.1,0,.14.139.14.256,0,.2-.2.427-.376.716a4.826,4.826,0,0,1,.419,1.56,2.013,2.013,0,0,1-.161.769,1.993,1.993,0,0,0,.838-1l.064.064A1.745,1.745,0,0,1,386.247,556.424Zm-.268-2.34-1.021,1.207a.542.542,0,0,1,.258.513c0,.3-.161.513-.344.513s-.323-.235-.323-.513a.563.563,0,0,0-.161.406c0,.32.193.812.408.812.312,0,1.354-1.848,1.354-2.35A1.179,1.179,0,0,0,385.979,554.084Z" transform="translate(-375.111 -549.469)" fill="#1a1311"/>
      <path id="패스_14460" data-name="패스 14460" d="M395.554,549.817h.494l-.043.128h-.516l-1.967,3.43a.464.464,0,0,0-.064.182.137.137,0,0,0,.151.139c.365,0,1.247-1.015,1.709-1.742l.065.064c-.645.983-1.451,1.806-1.806,1.806-.29,0-.441-.31-.441-.684a2.251,2.251,0,0,1,.355-1.1l1.236-2.094h-.419l.064-.128h.419l.86-1.442h.731Z" transform="translate(-381.505 -546.11)" fill="#1a1311"/>
      <path id="패스_14461" data-name="패스 14461" d="M415.311,544.142a8.995,8.995,0,0,0-1.268,3.077.729.729,0,0,0,.731.833c.924-.01,2.139-1.923,2.139-2.649a.446.446,0,0,0-.365-.47c-.634,0-1.236.951-1.494,1.528,0,.022-.054,0-.043-.021.258-.705.945-1.624,1.526-1.624.29,0,.494.342.494.726a2.582,2.582,0,0,1-2.16,2.607c-.72,0-1.182-.609-1.182-1.635a5.961,5.961,0,0,1,.8-2.511,1.752,1.752,0,0,1-1.075-1.731,1.809,1.809,0,0,1,1.623-1.795,1.515,1.515,0,0,1,1.182.491c.011.021-.022.064-.043.054a1.6,1.6,0,0,0-1-.417,1.637,1.637,0,0,0-1.473,1.8,1.531,1.531,0,0,0,.86,1.474c.924-1.72,2.472-3.43,3.934-3.43.376,0,.849.128.849.705C419.342,542.518,417.031,544.088,415.311,544.142Zm3.235-3.568c-.828,0-2.171,1.741-3.181,3.472,1.612-.032,3.891-1.742,3.891-2.906C419.256,540.669,418.847,540.573,418.546,540.573Z" transform="translate(-396.178 -540.37)" fill="#1a1311"/>
      <path id="패스_14462" data-name="패스 14462" d="M429.678,559.339c-.194,0-.387-.257-.387-.716a1.575,1.575,0,0,1,.011-.225c-.312.46-.591.962-.935.973-.3,0-.441-.535-.441-.983a2.545,2.545,0,0,1,1.913-2.393.438.438,0,0,1,.43.438l.247-.427h.763l-1.569,2.863a.513.513,0,0,0-.086.246c0,.075.043.1.086.1.441,0,1.074-.834,1.666-1.742l.064.064C430.935,558.355,430.215,559.339,429.678,559.339Zm.29-3.216a.52.52,0,0,0-.333.256c-.473.759-1.042,1.8-1.322,2.35a.981.981,0,0,0-.1.289c0,.128.075.225.151.225.355,0,.688-.673,1.032-1.261l.656-1.143a.7.7,0,0,0,.107-.427C430.161,556.293,430.1,556.133,429.968,556.122Z" transform="translate(-406.685 -551.624)" fill="#1a1311"/>
      <path id="패스_14463" data-name="패스 14463" d="M437.285,559.283h-.72l1.881-3.334h.72l-.913,1.613.656-.385c.183-.6.559-1.261.881-1.261.086,0,.183.118.183.246,0,.609-.667,1.036-1.01,1.164.011.267.043.631.279.631.183,0,.376-.2.6-.545l.064.064c-.247.353-.43.566-.666.566-.29,0-.365-.363-.355-.694a1.78,1.78,0,0,0-.935.759Z" transform="translate(-412.938 -551.568)" fill="#1a1311"/>
      <path id="패스_14464" data-name="패스 14464" d="M448.137,559.2c-.322,0-.559-.225-.559-.941,0-1.2,1.215-2.5,1.87-2.5.236,0,.462.235.462.62a1.327,1.327,0,0,1-1.3,1.282c-.043,0-.129-.011-.129-.011l-.548.951a.452.452,0,0,0-.065.256c0,.2.172.235.3.235.419,0,1.075-.491,1.9-1.8l.064.064C449.308,558.722,448.653,559.2,448.137,559.2Zm1.473-3.27a.192.192,0,0,0-.161.1,13.817,13.817,0,0,0-.892,1.5,1.456,1.456,0,0,0,1.171-1.368C449.728,556.03,449.674,555.934,449.609,555.934Z" transform="translate(-420.909 -551.457)" fill="#1a1311"/>
      <path id="패스_14465" data-name="패스 14465" d="M453.606,559.257c-.333.556-1.763,2.853-2.687,2.853-.215,0-.344-.192-.344-.449.011-.609,1.086-1.549,2.106-2.094l.322-.577a.789.789,0,0,1-.526.353c-.3.01-.441-.534-.441-.983a2.564,2.564,0,0,1,1.9-2.4.534.534,0,0,1,.516.47l.258-.448h.774l-1.795,3.13a4.655,4.655,0,0,0,1.924-1.667l.064.064A4.738,4.738,0,0,1,453.606,559.257Zm-2.945,2.4c0,.2.107.353.258.353.451,0,1.451-1.859,1.687-2.308C451.65,560.241,450.661,561.138,450.661,561.661Zm3.418-5.566a.519.519,0,0,0-.333.256c-.473.759-1.042,1.8-1.322,2.35a.982.982,0,0,0-.1.289c0,.128.075.225.151.225.387,0,.8-.823,1.215-1.432l.505-.887a1.29,1.29,0,0,0,.075-.513C454.272,556.266,454.208,556.105,454.079,556.095Z" transform="translate(-423.078 -551.597)" fill="#1a1311"/>
      <path id="패스_14466" data-name="패스 14466" d="M467.745,554.132c-.247,0-.4-.342-.4-.77a1.639,1.639,0,0,1,.183-.716l1.053-1.859h.763l-1.58,2.864a.514.514,0,0,0-.075.246.093.093,0,0,0,.1.107c.365,0,.978-.834,1.558-1.742l.065.064C468.927,553.149,468.293,554.132,467.745,554.132Zm2.074-4.3c-.161,0-.279-.16-.279-.4.01-.331.247-.641.419-.641.14,0,.269.16.269.417C470.227,549.516,469.98,549.836,469.819,549.836Z" transform="translate(-435.218 -546.417)" fill="#1a1311"/>
      <path id="패스_14467" data-name="패스 14467" d="M476.511,557.55a.789.789,0,0,1-.623.46.355.355,0,0,1-.183-.043c-.451.737-1.086,1.4-1.58,1.4-.355,0-.591-.427-.591-.93a1.915,1.915,0,0,1,.215-.823l.849-1.581h.774l-1.462,2.682a.72.72,0,0,0-.075.267.269.269,0,0,0,.29.289c.548,0,1.236-.887,1.483-1.378a1.09,1.09,0,0,1-.14-.524c0-.449.376-1.336.656-1.336.129,0,.2.149.2.32a3.536,3.536,0,0,1-.57,1.539.2.2,0,0,0,.118.043c.172,0,.387-.117.57-.438l.065.064Z" transform="translate(-439.696 -551.652)" fill="#1a1311"/>
      <path id="패스_14468" data-name="패스 14468" d="M483.783,559.2c-.322,0-.559-.225-.559-.941,0-1.2,1.215-2.5,1.87-2.5.236,0,.462.235.462.62a1.327,1.327,0,0,1-1.3,1.282c-.043,0-.129-.011-.129-.011l-.548.951a.453.453,0,0,0-.065.256c0,.2.172.235.3.235.419,0,1.075-.491,1.9-1.8l.064.064C484.954,558.722,484.3,559.2,483.783,559.2Zm1.473-3.27a.192.192,0,0,0-.161.1,13.812,13.812,0,0,0-.892,1.5,1.456,1.456,0,0,0,1.171-1.368C485.374,556.03,485.32,555.934,485.255,555.934Z" transform="translate(-446.709 -551.457)" fill="#1a1311"/>
      <path id="패스_14469" data-name="패스 14469" d="M489.12,559.283h-.72l1.881-3.334H491l-.913,1.613.656-.385c.183-.6.559-1.261.881-1.261.086,0,.183.118.183.246,0,.609-.667,1.036-1.01,1.164.011.267.043.631.28.631.183,0,.376-.2.6-.545l.064.064c-.247.353-.43.566-.666.566-.29,0-.365-.363-.355-.694a1.778,1.778,0,0,0-.935.759Z" transform="translate(-450.455 -551.568)" fill="#1a1311"/>
    </g>
    <g id="그룹_4679" data-name="그룹 4679" transform="translate(171.848 330.517)">
      <path id="패스_14470" data-name="패스 14470" d="M356.737,633.158a1.378,1.378,0,0,0-.44-.017c-.2.006-.4.021-.594.038a6.879,6.879,0,0,1-.8.064,1.857,1.857,0,0,1-.869-.259c-.207-.118-.477-.35-.442-.633s.328-.346.528-.38a1.885,1.885,0,0,1,.856.083,4.955,4.955,0,0,1,.966.438,4.609,4.609,0,0,1,.577.367,13.92,13.92,0,0,1-.771-1.225,1.33,1.33,0,0,0-.441-.074c-.2-.018-.4-.026-.592-.033a6.839,6.839,0,0,1-.8-.033,1.827,1.827,0,0,1-.824-.359c-.189-.141-.425-.4-.354-.674s.37-.3.572-.31a1.887,1.887,0,0,1,.836.185,4.871,4.871,0,0,1,.9.546,4.32,4.32,0,0,1,.533.443,13.851,13.851,0,0,1-.6-1.3,1.276,1.276,0,0,0-.435-.131c-.194-.042-.388-.074-.581-.1a6.883,6.883,0,0,1-.783-.129,1.814,1.814,0,0,1-.769-.453c-.169-.162-.369-.446-.264-.707s.406-.25.608-.235a1.879,1.879,0,0,1,.8.285,4.784,4.784,0,0,1,.817.646,4.082,4.082,0,0,1,.481.515,13.945,13.945,0,0,1-.43-1.364,1.221,1.221,0,0,0-.421-.188c-.187-.065-.375-.12-.563-.174a6.832,6.832,0,0,1-.76-.223,1.805,1.805,0,0,1-.705-.541.7.7,0,0,1-.172-.731c.137-.242.434-.2.632-.158a1.882,1.882,0,0,1,.762.38,4.752,4.752,0,0,1,.728.738,3.917,3.917,0,0,1,.422.587,14.1,14.1,0,0,1-.256-1.41h0a1.176,1.176,0,0,0-.4-.244c-.177-.088-.357-.166-.536-.242a6.825,6.825,0,0,1-.726-.315,1.794,1.794,0,0,1-.632-.623.7.7,0,0,1-.079-.745c.166-.223.455-.141.647-.078a1.88,1.88,0,0,1,.709.471,4.759,4.759,0,0,1,.63.821,3.783,3.783,0,0,1,.353.654,13.983,13.983,0,0,1-.08-1.442l-.006-.007a1.178,1.178,0,0,0-.367-.291c-.165-.109-.333-.208-.5-.306a6.759,6.759,0,0,1-.681-.4,1.789,1.789,0,0,1-.549-.7.7.7,0,0,1,.015-.75c.193-.2.469-.084.651,0a1.88,1.88,0,0,1,.644.556,4.761,4.761,0,0,1,.523.893,3.656,3.656,0,0,1,.274.713,14,14,0,0,1,.1-1.458.023.023,0,0,1-.011-.012,1.185,1.185,0,0,0-.327-.335c-.15-.128-.3-.248-.46-.366a6.793,6.793,0,0,1-.625-.484,1.79,1.79,0,0,1-.457-.761.7.7,0,0,1,.109-.746c.217-.176.477-.026.646.084a1.88,1.88,0,0,1,.569.634,4.793,4.793,0,0,1,.406.954,3.557,3.557,0,0,1,.185.77,13.934,13.934,0,0,1,.287-1.463.019.019,0,0,1-.015-.015,1.187,1.187,0,0,0-.283-.374c-.133-.146-.271-.285-.41-.422a6.73,6.73,0,0,1-.559-.56,1.8,1.8,0,0,1-.356-.817.714.714,0,0,1,.205-.731c.239-.149.476.033.631.163a1.878,1.878,0,0,1,.482.7,4.858,4.858,0,0,1,.28,1,3.48,3.48,0,0,1,.084.817,13.913,13.913,0,0,1,.479-1.45c-.009,0-.016,0-.018-.017a1.184,1.184,0,0,0-.232-.409c-.113-.163-.232-.318-.352-.473a6.63,6.63,0,0,1-.482-.629,1.792,1.792,0,0,1-.246-.861.729.729,0,0,1,.3-.708c.257-.121.47.091.605.241a1.867,1.867,0,0,1,.384.764,4.931,4.931,0,0,1,.145,1.038,3.414,3.414,0,0,1-.03.857,13.875,13.875,0,0,1,.746-1.539h0c-.009,0-.016-.005-.017-.018a1.031,1.031,0,0,0-.152-.388c-.078-.156-.164-.307-.25-.457a6.041,6.041,0,0,1-.347-.608,1.6,1.6,0,0,1-.116-.782c.018-.207.1-.507.343-.588s.4.129.505.275a1.629,1.629,0,0,1,.252.714,4.283,4.283,0,0,1,0,.932,2.906,2.906,0,0,1-.141.778q.222-.383.47-.755a1.717,1.717,0,0,1,.234-.82,3.382,3.382,0,0,1,.556-.819,2.479,2.479,0,0,1,.717-.542c.2-.1.493-.215.641-.11s.011.331-.108.486a3.3,3.3,0,0,1-.586.581c-.213.165-.439.309-.649.477-.156.124-.309.255-.454.4a1.47,1.47,0,0,0-.308.357.027.027,0,0,1-.023.017.014.014,0,0,1-.019-.009q-.254.387-.481.787a1.921,1.921,0,0,1,.648-.506,2.456,2.456,0,0,1,.842-.289,1.408,1.408,0,0,1,.723.083c.164.068.4.186.414.395s-.191.317-.355.372a1.873,1.873,0,0,1-.7.093c-.228-.013-.449-.061-.676-.081a4.376,4.376,0,0,0-.513-.017.91.91,0,0,0-.41.063c-.012.006-.02,0-.024,0a.022.022,0,0,1-.005-.008,13.837,13.837,0,0,0-.75,1.578,2.138,2.138,0,0,1,.625-.617,2.652,2.652,0,0,1,.9-.429,1.588,1.588,0,0,1,.818.005c.193.055.467.16.521.385s-.162.368-.336.448a2.137,2.137,0,0,1-.765.189c-.256.015-.511-.008-.767,0a4.69,4.69,0,0,0-.575.052,1.018,1.018,0,0,0-.448.129.018.018,0,0,1-.028,0l0,0a13.761,13.761,0,0,0-.478,1.484,2.158,2.158,0,0,1,.525-.653,2.619,2.619,0,0,1,.83-.53,1.587,1.587,0,0,1,.809-.094c.2.031.483.1.566.315s-.111.381-.272.481a2.138,2.138,0,0,1-.732.279c-.252.046-.507.054-.76.094a4.818,4.818,0,0,0-.564.122,1.017,1.017,0,0,0-.427.181c-.01.009-.019.009-.026,0a13.88,13.88,0,0,0-.28,1.489,2.2,2.2,0,0,1,.428-.68,2.6,2.6,0,0,1,.755-.624,1.59,1.59,0,0,1,.79-.191c.2.006.492.04.6.241s-.061.388-.208.507a2.138,2.138,0,0,1-.691.365c-.244.076-.5.116-.742.187a4.655,4.655,0,0,0-.543.19,1.014,1.014,0,0,0-.4.232.019.019,0,0,1-.019.009,13.972,13.972,0,0,0-.091,1.48,2.233,2.233,0,0,1,.334-.7,2.587,2.587,0,0,1,.671-.71,1.59,1.59,0,0,1,.76-.286c.2-.018.492-.022.627.164s-.012.391-.143.526a2.121,2.121,0,0,1-.639.446c-.232.106-.477.176-.712.277a4.756,4.756,0,0,0-.515.255,1.009,1.009,0,0,0-.369.28.025.025,0,0,1-.012.01,13.911,13.911,0,0,0,.091,1.454,2.276,2.276,0,0,1,.241-.71,2.575,2.575,0,0,1,.576-.788,1.588,1.588,0,0,1,.718-.378c.2-.043.486-.082.643.085s.038.389-.076.539a2.126,2.126,0,0,1-.579.522c-.217.133-.452.234-.673.363a4.709,4.709,0,0,0-.479.317,1.012,1.012,0,0,0-.331.323.022.022,0,0,1-.006.008,13.959,13.959,0,0,0,.269,1.417,2.337,2.337,0,0,1,.149-.715,2.58,2.58,0,0,1,.473-.855,1.587,1.587,0,0,1,.665-.464c.188-.067.472-.142.649,0s.086.382-.007.545a2.131,2.131,0,0,1-.509.591c-.2.159-.419.289-.622.445a4.646,4.646,0,0,0-.436.376,1,1,0,0,0-.288.363h0a13.868,13.868,0,0,0,.442,1.366,2.38,2.38,0,0,1,.059-.709,2.566,2.566,0,0,1,.361-.912,1.576,1.576,0,0,1,.6-.545c.178-.09.451-.2.644-.076s.133.37.062.545a2.138,2.138,0,0,1-.429.653c-.177.184-.379.34-.56.521a4.6,4.6,0,0,0-.384.429,1.034,1.034,0,0,0-.236.391,13.873,13.873,0,0,0,.612,1.3,2.465,2.465,0,0,1-.031-.7,2.575,2.575,0,0,1,.238-.956,1.57,1.57,0,0,1,.526-.619c.165-.112.422-.255.629-.156s.181.353.132.537a2.133,2.133,0,0,1-.34.706c-.151.206-.331.387-.487.591a4.675,4.675,0,0,0-.324.477,1.063,1.063,0,0,0-.181.411,13.886,13.886,0,0,0,.781,1.22,2.542,2.542,0,0,1-.121-.675,2.588,2.588,0,0,1,.107-.988,1.555,1.555,0,0,1,.44-.685c.149-.132.385-.307.6-.233s.227.332.2.522a2.149,2.149,0,0,1-.242.75c-.122.225-.276.429-.4.652a4.6,4.6,0,0,0-.257.518,1.1,1.1,0,0,0-.123.425,14.108,14.108,0,0,0,1.433,1.619l-.094.1A14.181,14.181,0,0,1,356.737,633.158Z" transform="translate(-351.642 -614.765)" fill="#c08d4e"/>
    </g>
    <g id="그룹_4680" data-name="그룹 4680" transform="translate(206.227 330.517)">
      <path id="패스_14471" data-name="패스 14471" d="M477.309,633.158a1.36,1.36,0,0,1,.438-.017c.2.006.4.021.591.038a6.8,6.8,0,0,0,.792.064,1.837,1.837,0,0,0,.864-.259c.206-.118.474-.35.44-.633s-.326-.346-.525-.38a1.862,1.862,0,0,0-.85.083,4.9,4.9,0,0,0-.96.438,4.6,4.6,0,0,0-.573.367,13.942,13.942,0,0,0,.766-1.225,1.313,1.313,0,0,1,.438-.074c.2-.018.393-.026.588-.033a6.758,6.758,0,0,0,.791-.033,1.81,1.81,0,0,0,.818-.359c.188-.141.422-.4.352-.674s-.369-.3-.569-.31a1.867,1.867,0,0,0-.831.185,4.841,4.841,0,0,0-.891.546,4.3,4.3,0,0,0-.53.443,13.952,13.952,0,0,0,.6-1.3,1.261,1.261,0,0,1,.432-.131c.193-.042.385-.074.577-.1a6.812,6.812,0,0,0,.779-.129,1.8,1.8,0,0,0,.764-.453.709.709,0,0,0,.262-.707c-.1-.258-.4-.25-.6-.235a1.862,1.862,0,0,0-.8.285,4.775,4.775,0,0,0-.812.646,4.107,4.107,0,0,0-.479.515,13.92,13.92,0,0,0,.427-1.364,1.212,1.212,0,0,1,.419-.188c.186-.065.373-.12.559-.174a6.78,6.78,0,0,0,.755-.223,1.8,1.8,0,0,0,.7-.541.7.7,0,0,0,.171-.731c-.136-.242-.431-.2-.628-.158a1.867,1.867,0,0,0-.757.38,4.745,4.745,0,0,0-.724.738,3.919,3.919,0,0,0-.42.587,14.089,14.089,0,0,0,.255-1.41h0a1.168,1.168,0,0,1,.4-.244c.176-.088.355-.166.533-.242a6.744,6.744,0,0,0,.722-.315,1.791,1.791,0,0,0,.628-.623.7.7,0,0,0,.079-.745c-.165-.223-.452-.141-.643-.078a1.869,1.869,0,0,0-.7.471,4.76,4.76,0,0,0-.626.821,3.773,3.773,0,0,0-.351.654,14.13,14.13,0,0,0,.079-1.442l.006-.007a1.169,1.169,0,0,1,.365-.291c.164-.109.331-.208.5-.306a6.705,6.705,0,0,0,.677-.4,1.788,1.788,0,0,0,.546-.7.7.7,0,0,0-.014-.75c-.191-.2-.466-.084-.647,0a1.871,1.871,0,0,0-.64.556,4.749,4.749,0,0,0-.52.893,3.651,3.651,0,0,0-.272.713,14.156,14.156,0,0,0-.1-1.458.025.025,0,0,0,.011-.012,1.179,1.179,0,0,1,.325-.335c.149-.128.3-.248.457-.366a6.724,6.724,0,0,0,.622-.484,1.794,1.794,0,0,0,.454-.761.707.707,0,0,0-.109-.746c-.215-.176-.473-.026-.642.084a1.878,1.878,0,0,0-.565.634,4.807,4.807,0,0,0-.4.954,3.559,3.559,0,0,0-.184.77,14,14,0,0,0-.285-1.463.019.019,0,0,0,.015-.015,1.178,1.178,0,0,1,.281-.374c.132-.146.269-.285.407-.422a6.707,6.707,0,0,0,.556-.56,1.8,1.8,0,0,0,.354-.817.717.717,0,0,0-.2-.731c-.237-.149-.474.033-.627.163a1.877,1.877,0,0,0-.479.7,4.858,4.858,0,0,0-.278,1,3.5,3.5,0,0,0-.084.817,14.019,14.019,0,0,0-.476-1.45c.008,0,.016,0,.018-.017a1.183,1.183,0,0,1,.23-.409c.112-.163.23-.318.349-.473a6.628,6.628,0,0,0,.479-.629,1.8,1.8,0,0,0,.244-.861.732.732,0,0,0-.3-.708c-.256-.121-.467.091-.6.241a1.874,1.874,0,0,0-.382.764,4.965,4.965,0,0,0-.144,1.038,3.432,3.432,0,0,0,.03.857,13.977,13.977,0,0,0-.741-1.539h0c.009,0,.015-.005.017-.018a1.029,1.029,0,0,1,.151-.388c.078-.156.163-.307.249-.457a6.08,6.08,0,0,0,.345-.608,1.612,1.612,0,0,0,.116-.782c-.018-.207-.1-.507-.341-.588s-.4.129-.5.275a1.631,1.631,0,0,0-.251.714,4.285,4.285,0,0,0-.005.932,2.906,2.906,0,0,0,.14.778q-.221-.383-.468-.755a1.728,1.728,0,0,0-.233-.82,3.384,3.384,0,0,0-.553-.819,2.468,2.468,0,0,0-.713-.542c-.2-.1-.49-.215-.637-.11s-.011.331.107.486a3.289,3.289,0,0,0,.583.581c.212.165.436.309.645.477.155.124.307.255.451.4a1.468,1.468,0,0,1,.307.357.027.027,0,0,0,.023.017.014.014,0,0,0,.019-.009q.253.387.478.787a1.908,1.908,0,0,0-.644-.506,2.43,2.43,0,0,0-.837-.289,1.393,1.393,0,0,0-.718.083c-.163.068-.392.186-.411.395s.19.317.353.372a1.851,1.851,0,0,0,.7.093c.226-.013.447-.061.672-.081a4.325,4.325,0,0,1,.51-.017.9.9,0,0,1,.407.063.016.016,0,0,0,.024,0,.019.019,0,0,0,0-.008,13.845,13.845,0,0,1,.745,1.578,2.136,2.136,0,0,0-.621-.617,2.631,2.631,0,0,0-.89-.429,1.57,1.57,0,0,0-.813.005c-.191.055-.464.16-.518.385s.161.368.334.448a2.114,2.114,0,0,0,.76.189c.254.015.508-.008.763,0a4.638,4.638,0,0,1,.572.052,1.007,1.007,0,0,1,.445.129.019.019,0,0,0,.028,0l0,0a13.88,13.88,0,0,1,.475,1.484,2.154,2.154,0,0,0-.522-.653,2.6,2.6,0,0,0-.825-.53,1.57,1.57,0,0,0-.8-.094c-.2.031-.48.1-.563.315s.11.381.271.481a2.115,2.115,0,0,0,.728.279c.25.046.5.054.755.094a4.76,4.76,0,0,1,.56.122,1.006,1.006,0,0,1,.425.181c.01.009.019.009.026,0a13.941,13.941,0,0,1,.278,1.489,2.2,2.2,0,0,0-.425-.68,2.592,2.592,0,0,0-.75-.624,1.573,1.573,0,0,0-.785-.191c-.2.006-.489.04-.6.241s.061.388.207.507a2.124,2.124,0,0,0,.686.365c.242.076.493.116.737.187a4.641,4.641,0,0,1,.54.19,1.007,1.007,0,0,1,.4.232.019.019,0,0,0,.019.009,14.012,14.012,0,0,1,.09,1.48,2.235,2.235,0,0,0-.332-.7,2.574,2.574,0,0,0-.667-.71,1.573,1.573,0,0,0-.755-.286c-.2-.018-.49-.022-.624.164s.012.391.142.526a2.109,2.109,0,0,0,.636.446c.231.106.475.176.708.277a4.741,4.741,0,0,1,.512.255,1,1,0,0,1,.367.28.026.026,0,0,0,.012.01,14.011,14.011,0,0,1-.091,1.454,2.282,2.282,0,0,0-.24-.71,2.567,2.567,0,0,0-.573-.788,1.574,1.574,0,0,0-.713-.378c-.194-.043-.483-.082-.639.085s-.037.389.075.539a2.116,2.116,0,0,0,.575.522c.216.133.449.234.668.363a4.677,4.677,0,0,1,.477.317,1.008,1.008,0,0,1,.329.323.022.022,0,0,0,.006.008,14.038,14.038,0,0,1-.267,1.417,2.337,2.337,0,0,0-.148-.715,2.584,2.584,0,0,0-.47-.855,1.575,1.575,0,0,0-.661-.464c-.187-.067-.469-.142-.644,0s-.085.382.007.545a2.125,2.125,0,0,0,.506.591c.2.159.416.289.618.445a4.617,4.617,0,0,1,.433.376,1,1,0,0,1,.286.363h0a13.932,13.932,0,0,1-.44,1.366,2.388,2.388,0,0,0-.058-.709,2.577,2.577,0,0,0-.358-.912,1.573,1.573,0,0,0-.6-.545c-.177-.09-.448-.2-.64-.076s-.133.37-.061.545a2.136,2.136,0,0,0,.427.653c.176.184.376.34.556.521a4.655,4.655,0,0,1,.381.429,1.034,1.034,0,0,1,.235.391,13.779,13.779,0,0,1-.608,1.3,2.479,2.479,0,0,0,.031-.7,2.59,2.59,0,0,0-.237-.956,1.567,1.567,0,0,0-.523-.619c-.164-.112-.419-.255-.626-.156s-.179.353-.131.537a2.134,2.134,0,0,0,.338.706c.15.206.329.387.484.591a4.616,4.616,0,0,1,.322.477,1.062,1.062,0,0,1,.18.411,13.886,13.886,0,0,1-.776,1.22,2.563,2.563,0,0,0,.12-.675,2.6,2.6,0,0,0-.106-.988,1.556,1.556,0,0,0-.437-.685c-.149-.132-.383-.307-.6-.233s-.226.332-.2.522a2.158,2.158,0,0,0,.241.75c.121.225.275.429.4.652a4.651,4.651,0,0,1,.255.518,1.1,1.1,0,0,1,.122.425,14.1,14.1,0,0,1-1.424,1.619l.093.1A14.125,14.125,0,0,0,477.309,633.158Z" transform="translate(-475.523 -614.765)" fill="#c08d4e"/>
    </g>
    <g id="그룹_4681" data-name="그룹 4681" transform="translate(181.93 332.749)">
      <path id="패스_14472" data-name="패스 14472" d="M400.084,640.258l-2.561-2.044a13.939,13.939,0,0,1,2.2-2.858,21.144,21.144,0,0,1,3.98-3.351c.585-.451,2.3-1.469,2.789-2.5a2.708,2.708,0,0,0-.239-2.693,2.99,2.99,0,0,0-2.846-.892c-1.34.312-2.152,1.456-2.918,3.593a10.3,10.3,0,0,1-1.9,3.584,6.536,6.536,0,0,1-2.946,1.864,6.115,6.115,0,0,1-3.009.121,5.847,5.847,0,0,1-2.659-1.338,6.616,6.616,0,0,1-2.145-4.717,5.917,5.917,0,0,1,1.966-4.477,6.1,6.1,0,0,1,3.033-1.618,5.658,5.658,0,0,1,2.725.159,7.06,7.06,0,0,1,2.542,1.4l-2.055,2.223.009.008a4.091,4.091,0,0,0-1.456-.767,2.673,2.673,0,0,0-2.713.786,2.944,2.944,0,0,0-1.015,2.241,3.617,3.617,0,0,0,1.132,2.508,2.942,2.942,0,0,0,2.777.575c.761-.225,1.944-1.018,2.775-3.337a10.542,10.542,0,0,1,2.041-3.906,6.174,6.174,0,0,1,3.118-1.844,6.035,6.035,0,0,1,5.818,1.837,5.239,5.239,0,0,1,1.376,3.892,5.67,5.67,0,0,1-2.063,3.832c-1.155,1.051-2.7,1.932-4.376,3.567a17.235,17.235,0,0,0-3.39,4.152" transform="translate(-387.838 -622.826)" fill="#c08d4e"/>
    </g>
    <g id="그룹_4682" data-name="그룹 4682" transform="translate(178.227 348.221)">
      <path id="패스_14473" data-name="패스 14473" d="M377.7,681.842a8.9,8.9,0,0,0-2.91,1.458.705.705,0,0,0,0,1.076c.682.578,2.8-.057,3.27-.591a.431.431,0,0,0,.037-.577c-.463-.4-1.515-.085-2.076.176-.014.016-.039-.034-.018-.043.643-.354,1.738-.594,2.161-.226.212.184.14.565-.107.847a2.532,2.532,0,0,1-3.258.547c-.526-.457-.47-1.2.191-1.952a5.9,5.9,0,0,1,2.2-1.341,1.7,1.7,0,0,1,.331-1.954,1.771,1.771,0,0,1,2.342-.29,1.45,1.45,0,0,1,.546,1.11c-.006.023-.057.033-.066.012a1.532,1.532,0,0,0-.461-.94,1.6,1.6,0,0,0-2.232.386,1.491,1.491,0,0,0-.323,1.629c1.784-.678,4.015-.953,5.083-.027a.7.7,0,0,1,.165,1.057C381.692,683.2,378.993,682.893,377.7,681.842Zm4.662-.571c-.6-.525-2.708-.1-4.561.535,1.2,1,3.962,1.187,4.713.331C382.821,681.791,382.585,681.461,382.366,681.271Z" transform="translate(-374.444 -678.652)" fill="#c08d4e"/>
      <path id="패스_14474" data-name="패스 14474" d="M388.852,702.633c-.169-.081-.228-.387-.032-.791a1.55,1.55,0,0,1,.1-.193c-.468.273-.926.6-1.231.462-.263-.126-.157-.654.035-1.048a2.494,2.494,0,0,1,2.692-1.3.423.423,0,0,1,.188.565l.4-.272.666.32-2.592,1.857a.5.5,0,0,0-.18.18.079.079,0,0,0,.034.12c.385.185,1.294-.281,2.2-.831l.029.083C390.37,702.3,389.321,702.858,388.852,702.633Zm1.626-2.7a.5.5,0,0,0-.4.086c-.736.468-1.676,1.139-2.157,1.51a.958.958,0,0,0-.208.212c-.055.113-.03.229.036.26.31.149.888-.3,1.439-.675l1.06-.729a.69.69,0,0,0,.276-.33C390.574,700.162,390.586,699.994,390.478,699.931Z" transform="translate(-383.92 -693.876)" fill="#c08d4e"/>
      <path id="패스_14475" data-name="패스 14475" d="M397.387,706.115l-.669-.2,2.684-2.6.669.2-1.3,1.256.717-.179c.338-.509.873-1.024,1.173-.936a.233.233,0,0,1,.1.28c-.171.569-.91.785-1.266.81-.065.252-.137.6.082.665.17.05.407-.086.712-.344l.042.078c-.329.262-.559.411-.778.346-.27-.08-.238-.439-.135-.746a1.74,1.74,0,0,0-1.082.452Z" transform="translate(-390.565 -696.506)" fill="#c08d4e"/>
      <path id="패스_14476" data-name="패스 14476" d="M409.971,708.587c-.309-.048-.5-.3-.391-.989.185-1.152,1.55-2.225,2.178-2.128.227.035.406.3.347.665a1.3,1.3,0,0,1-1.444,1.041c-.041-.006-.122-.03-.122-.03l-.672.834a.446.446,0,0,0-.1.237c-.031.2.128.252.252.271.4.063,1.105-.313,2.1-1.444l.052.071C411.168,708.3,410.465,708.664,409.971,708.587Zm1.915-2.928a.187.187,0,0,0-.169.068,13.587,13.587,0,0,0-1.085,1.307,1.424,1.424,0,0,0,1.333-1.142C411.985,705.769,411.948,705.669,411.886,705.659Z" transform="translate(-399.852 -698.058)" fill="#c08d4e"/>
      <path id="패스_14477" data-name="패스 14477" d="M419.04,709.231c0,.073.021.094.062.093.313,0,1.127-.938,1.577-1.71l.063.063c-.471.833-1.306,1.761-1.65,1.762-.219,0-.438-.27-.437-.614,0-.812,1.181-2.021,1.182-2.438,0-.073-.021-.135-.073-.135a5.763,5.763,0,0,0-1.515,1.637l-.889,1.552h-.7l1.871-3.251h.688l-.659,1.136c.46-.615.95-1.157,1.232-1.157.209,0,.312.385.312.718C420.106,707.938,419.041,708.835,419.04,709.231Z" transform="translate(-405.001 -698.568)" fill="#c08d4e"/>
      <path id="패스_14478" data-name="패스 14478" d="M434.8,707.613c-.184.035-.415-.177-.5-.617a1.509,1.509,0,0,1-.03-.217c-.215.5-.392,1.026-.718,1.1-.287.054-.516-.433-.6-.863a2.479,2.479,0,0,1,1.4-2.633.425.425,0,0,1,.488.343l.159-.454.728-.136-.986,3.022a.5.5,0,0,0-.038.251c.013.072.058.085.1.077.42-.079.876-.99,1.278-1.966l.073.05C435.821,706.448,435.31,707.518,434.8,707.613Zm-.3-3.132a.5.5,0,0,0-.272.3c-.315.811-.674,1.905-.842,2.487a.953.953,0,0,0-.04.294c.023.123.112.2.183.188.339-.063.536-.768.76-1.392l.421-1.212a.681.681,0,0,0,.027-.428C434.715,704.611,434.625,704.469,434.5,704.482Z" transform="translate(-416.768 -697.096)" fill="#c08d4e"/>
      <path id="패스_14479" data-name="패스 14479" d="M446.764,694.979l.454-.156v.132l-.473.162-.718,3.78a.457.457,0,0,0,0,.188.133.133,0,0,0,.182.081c.335-.115.822-1.328,1.016-2.143l.08.039c-.28,1.108-.759,2.121-1.085,2.232-.266.091-.5-.147-.621-.491a2.206,2.206,0,0,1-.023-1.126l.47-2.319-.384.132.018-.139.385-.132.332-1.6.67-.23Z" transform="translate(-425.883 -689.318)" fill="#c08d4e"/>
      <path id="패스_14480" data-name="패스 14480" d="M453.25,697.414c-.218.1-.49-.142-.663-.521a1.6,1.6,0,0,1-.13-.707l.174-2.071.673-.308-.231,3.173a.5.5,0,0,0,.034.248.091.091,0,0,0,.129.055c.323-.147.525-1.132.668-2.17l.083.031C453.894,696.067,453.734,697.193,453.25,697.414Zm.085-4.639c-.143.065-.312-.029-.407-.237-.125-.3-.042-.667.109-.737.123-.056.3.034.407.261C453.565,692.327,453.477,692.71,453.335,692.775Z" transform="translate(-430.906 -688.157)" fill="#c08d4e"/>
      <path id="패스_14481" data-name="패스 14481" d="M460.872,696.493a.464.464,0,0,1-.207.042c.079.857-.069,2-.424,2.221-.293.181-.762.079-1.091-.452-.616-.99-.42-2.63.272-3.057a.6.6,0,0,1,.488-.044.182.182,0,0,1,.056-.047.328.328,0,0,1,.432.161,2.245,2.245,0,0,1,.264,1.135.46.46,0,0,0,.175-.035.442.442,0,0,0,.175-.39l.086.02A.537.537,0,0,1,460.872,696.493Zm-1.206-1.189a5.947,5.947,0,0,0,.113,3.223.314.314,0,0,0,.393.137,3.287,3.287,0,0,0,.4-2.144.811.811,0,0,1-.543-.4,1.072,1.072,0,0,1-.19-.838A.276.276,0,0,0,459.666,695.3Z" transform="translate(-435.484 -690.572)" fill="#c08d4e"/>
      <path id="패스_14482" data-name="패스 14482" d="M469.514,691.163c.049.054.078.056.109.029a4.121,4.121,0,0,0,.044-2.318l.088.006a3.935,3.935,0,0,1-.064,2.4.567.567,0,0,1-.737-.17c-.541-.607-.461-2.289-.738-2.6-.049-.054-.106-.087-.145-.053a5.7,5.7,0,0,0-.045,2.222l.368,1.746-.524.462-.762-3.662.515-.455.263,1.283c-.065-.763-.058-1.491.153-1.678.157-.137.491.082.713.33C469.452,689.495,469.251,690.868,469.514,691.163Z" transform="translate(-441.513 -685.661)" fill="#c08d4e"/>
    </g>
    <g id="그룹_4683" data-name="그룹 4683" transform="translate(179.161 321.897)">
      <path id="패스_14483" data-name="패스 14483" d="M360,582.39v-.525a.63.63,0,0,1,.67-.653.645.645,0,0,1,.67.653v.518a10.245,10.245,0,0,1-.081,1.339c1.144.4,1.706,1.306,1.591,3.224h-1.313c.122-1.01-.054-1.676-.535-2.006a3.116,3.116,0,0,1-1.449,1.925.757.757,0,0,1-.934-.081.542.542,0,0,1,.1-.808C359.706,585.3,360,584.241,360,582.39Zm3.52,1.7h-.86a.579.579,0,0,1,0-1.158h.86v-1.266a.63.63,0,0,1,.671-.653.643.643,0,0,1,.677.653v5.668h-1.347Z" transform="translate(-358.481 -581.01)" fill="#1a1311"/>
      <path id="패스_14484" data-name="패스 14484" d="M383.323,584.439v-.579a.69.69,0,0,1,1.381,0v.579h1.2v-.579a.691.691,0,0,1,1.381,0v.579h.46a.539.539,0,1,1,0,1.077H386v1.158h1.909a.546.546,0,1,1,0,1.091h-5.2a.546.546,0,1,1,0-1.091h1.909v-1.158h-1.753a.539.539,0,1,1,0-1.077Zm4.346-2.638a.565.565,0,1,1,0,1.131h-4.725a.565.565,0,1,1,0-1.131Z" transform="translate(-375.495 -581.579)" fill="#1a1311"/>
      <path id="패스_14485" data-name="패스 14485" d="M406.836,587.062c-.88,0-1.042-.209-1.042-1.05v-3.722c0-.841.163-1.043,1.042-1.043h2.119a.5.5,0,0,1,.508.565.507.507,0,0,1-.508.572H407.31c-.122,0-.176.04-.176.2v.983h1.422a.556.556,0,0,1,0,1.111h-1.422v1.07c0,.155.054.2.176.2h2.024a.565.565,0,0,1,0,1.124Zm3.554-2.4h-.535a.581.581,0,0,1,0-1.158h.535v-1.837a.63.63,0,0,1,.67-.653.643.643,0,0,1,.677.653v5.668h-1.347Z" transform="translate(-392.509 -581.01)" fill="#1a1311"/>
      <path id="패스_14486" data-name="패스 14486" d="M433.709,586.593a.569.569,0,1,1,0,1.138h-5.172a.569.569,0,1,1,0-1.138Zm-1.9-3.7a2.253,2.253,0,0,1-.074.491h.068a2.23,2.23,0,0,1,2.336,2.2h-1.334a1.412,1.412,0,0,0-1.51-1.185,1.177,1.177,0,0,0-.142.013,3.689,3.689,0,0,1-2.342,1.178.624.624,0,0,1-.724-.485.534.534,0,0,1,.454-.633,2.068,2.068,0,0,0,1.868-1.582h-1.632a.569.569,0,0,1,0-1.138h4.685a.569.569,0,0,1,0,1.138Z" transform="translate(-408.447 -581.544)" fill="#1a1311"/>
    </g>
  </g>
</svg>
