<svg xmlns="http://www.w3.org/2000/svg" width="319.997" height="68" viewBox="0 0 319.997 68">
    <g fill="#fff1ec">
        <path d="M11407.255 19270.5c-.086 0-.3-.023-.432-.25l-3.891-6.64-.146-.249h-257.784c-4.676 0-9.07-1.82-12.376-5.125-3.305-3.304-5.125-7.699-5.125-12.375v-24.859c0-4.676 1.82-9.07 5.125-12.377 3.306-3.305 7.7-5.125 12.376-5.125h283.995c4.676 0 9.07 1.82 12.376 5.125 3.305 3.307 5.125 7.701 5.125 12.377v24.86c0 4.675-1.82 9.07-5.125 12.374-3.306 3.305-7.7 5.125-12.376 5.125h-17.273l-.146.248-3.891 6.641c-.132.227-.346.25-.432.25z" transform="translate(-11127.001 -19203)"/>
        <path fill="#a16f5e" d="M11407.255 19269.998v-.002l3.892-6.64.29-.495h17.56c4.542 0 8.812-1.767 12.023-4.978 3.21-3.211 4.978-7.48 4.978-12.022v-24.859c0-4.543-1.769-8.813-4.978-12.023-3.211-3.211-7.48-4.979-12.023-4.979h-283.995c-4.542 0-8.812 1.768-12.023 4.979-3.21 3.21-4.978 7.48-4.978 12.023v24.86c0 4.54 1.769 8.81 4.978 12.02 3.211 3.212 7.481 4.98 12.023 4.98H11403.073l.29.493 3.892 6.643m0 1.002c-.335 0-.67-.166-.863-.498l-3.892-6.64h-257.498c-9.943 0-18.001-8.057-18.001-18v-24.86c0-9.943 8.058-18.002 18.001-18.002h283.995c9.943 0 18.001 8.059 18.001 18.002v24.86c0 9.943-8.058 18-18 18h-16.988l-3.892 6.64c-.193.332-.528.498-.863.498z" transform="translate(-11127.001 -19203)"/>
    </g>
</svg>
