<svg xmlns="http://www.w3.org/2000/svg" width="24" height="24" viewBox="0 0 24 24">
    <defs>
        <style>
            .cls-2{fill:#a87463}
        </style>
    </defs>
    <g id="icon_call" transform="translate(-20 -646)">
        <path id="사각형_758" fill="none" d="M0 0H24V24H0z" transform="translate(20 646)"/>
        <g id="그룹_1422" transform="translate(-625 -181.816)">
            <g id="그룹_1421" transform="translate(645 830.817)">
                <path id="패스_1345" d="M656.417 849.281a.554.554 0 0 1-.553-.555.555.555 0 0 1 .553-.557h2.144a.554.554 0 0 1 .552.557.553.553 0 0 1-.552.555z" class="cls-2" transform="translate(-644.968 -830.788)"/>
                <path id="패스_1346" d="M663.892 846.177a.489.489 0 0 1-.488-.49V836.6a.489.489 0 0 1 .488-.49 5.032 5.032 0 0 1 0 10.063zm.487-9.053v8.043a4.054 4.054 0 0 0 0-8.043z" class="cls-2" transform="translate(-644.899 -830.708)"/>
                <path id="패스_1347" d="M650.009 846.177a5.032 5.032 0 0 1 0-10.063.488.488 0 0 1 .487.49v9.083a.488.488 0 0 1-.487.49zm-.487-9.053a4.054 4.054 0 0 0 0 8.043z" class="cls-2" transform="translate(-645 -830.708)"/>
                <path id="패스_1348" d="M664.041 837.094a.5.5 0 0 1-.486-.369 6.741 6.741 0 0 0-12.963-.077.5.5 0 0 1-.615.347.489.489 0 0 1-.356-.6 7.752 7.752 0 0 1 14.907.088.5.5 0 0 1-.486.611z" class="cls-2" transform="translate(-645.081 -830.817)"/>
                <path id="패스_1349" d="M660.222 849.735a4.071 4.071 0 0 1-1.426-.257.49.49 0 0 1 .341-.919 3.1 3.1 0 0 0 4.186-2.92.488.488 0 1 1 .976 0 4.09 4.09 0 0 1-4.077 4.096z" class="cls-2" transform="translate(-644.92 -830.735)"/>
            </g>
        </g>
    </g>
</svg>
