<svg xmlns="http://www.w3.org/2000/svg" width="24" height="24" viewBox="0 0 24 24">
    <defs>
        <style>
            .cls-2{fill:#a87463}
        </style>
    </defs>
    <g id="icon_noti" transform="translate(-20 -450)">
        <path id="사각형_755" fill="none" d="M0 0H24V24H0z" transform="translate(20 450)"/>
        <g id="그룹_1332" transform="translate(-296 -191.837)">
            <g id="그룹_1330">
                <path id="패스_1230" d="M322.886 660.033h-6.321a.575.575 0 0 1-.565-.585v-11.222a.575.575 0 0 1 .565-.585h6.321a.575.575 0 0 1 .565.585v11.222a.575.575 0 0 1-.565.585zm-5.756-1.17h5.192v-10.052h-5.192z" class="cls-2"/>
                <g id="그룹_1329">
                    <path id="패스_1231" d="M330.476 664.837a.545.545 0 0 1-.3-.091l-7.355-4.822a.6.6 0 0 1-.175-.807.554.554 0 0 1 .78-.182l6.487 4.254v-18.7l-6.487 4.254a.554.554 0 0 1-.78-.182.6.6 0 0 1 .175-.807l7.355-4.822a.547.547 0 0 1 .574-.018.586.586 0 0 1 .293.512v20.83a.589.589 0 0 1-.293.513.551.551 0 0 1-.274.068z" class="cls-2"/>
                </g>
            </g>
            <g id="그룹_1331">
                <path id="패스_1232" d="M334.092 658.053a.557.557 0 0 1-.4-.172.6.6 0 0 1 0-.827 4.663 4.663 0 0 0 0-6.433.6.6 0 0 1 0-.828.552.552 0 0 1 .8 0 5.863 5.863 0 0 1 0 8.088.554.554 0 0 1-.4.172z" class="cls-2"/>
                <path id="패스_1233" d="M336.847 660.905a.553.553 0 0 1-.4-.172.6.6 0 0 1 0-.827 8.81 8.81 0 0 0 0-12.138.6.6 0 0 1 0-.827.552.552 0 0 1 .8 0 10.011 10.011 0 0 1 0 13.792.55.55 0 0 1-.4.172z" class="cls-2"/>
            </g>
        </g>
    </g>
</svg>
