<svg xmlns="http://www.w3.org/2000/svg" width="24" height="24" viewBox="0 0 24 24">
    <defs>
        <style>
            .cls-2{fill:#a87463}
        </style>
    </defs>
    <g id="icon_accident" transform="translate(-20 -534)">
        <path id="사각형_815" fill="none" d="M0 0H24V24H0z" transform="translate(20 534)"/>
        <g id="그룹_4896" transform="translate(19.786 533.895)">
            <g id="그룹_4895" transform="translate(2.214 .105)">
                <path id="패스_14718" d="M12.212 24.105a.529.529 0 0 1-.157-.024q-.546-.166-1.083-.359a16.306 16.306 0 0 1-5.182-2.905 10.067 10.067 0 0 1-3.459-5.953 14.876 14.876 0 0 1-.11-2.558c0-.244.008-.49.008-.733V4.2a.5.5 0 0 1 .333-.47L12.22.139a.524.524 0 0 1 .67.29.5.5 0 0 1-.3.65L3.267 4.541v7.032c0 .248 0 .5-.008.748a13.95 13.95 0 0 0 .1 2.39 9.072 9.072 0 0 0 3.121 5.356 15.288 15.288 0 0 0 4.853 2.712q.513.184 1.035.344a.5.5 0 0 1 .338.631.516.516 0 0 1-.494.351z" class="cls-2" transform="translate(-2.214 -.105)"/>
                <path id="패스_14719" d="M11.912 24.105a.516.516 0 0 1-.495-.352.5.5 0 0 1 .338-.631q.523-.16 1.035-.344a15.279 15.279 0 0 0 4.852-2.712 9.063 9.063 0 0 0 3.125-5.355 13.95 13.95 0 0 0 .1-2.39c0-.249-.007-.5-.007-.748V4.535l-8.923-3.46a.5.5 0 0 1-.289-.654.523.523 0 0 1 .674-.28l9.248 3.586a.5.5 0 0 1 .327.467v7.378c0 .243 0 .489.006.733a14.771 14.771 0 0 1-.109 2.558 10.065 10.065 0 0 1-3.459 5.953 16.289 16.289 0 0 1-5.182 2.906q-.538.193-1.084.359a.528.528 0 0 1-.157.024z" class="cls-2" transform="translate(-1.908 -.105)"/>
                <path id="패스_14720" d="M12.144 21.52a.489.489 0 0 1-.155-.024c-.289-.087-.578-.182-.863-.283A13.018 13.018 0 0 1 7 18.917a7.973 7.973 0 0 1-2.766-4.724 11.654 11.654 0 0 1-.088-2.019l.006-6.353a.5.5 0 0 1 .334-.466l7.624-2.809a.528.528 0 0 1 .67.287.494.494 0 0 1-.3.645L5.192 6.164l-.006 6.025a10.655 10.655 0 0 0 .077 1.852 6.99 6.99 0 0 0 2.43 4.133 11.97 11.97 0 0 0 3.8 2.1c.269.1.538.186.81.268a.494.494 0 0 1 .339.625.516.516 0 0 1-.498.353z" class="cls-2" transform="translate(-2.142 -.016)"/>
                <path id="패스_14721" d="M11.907 21.52a.517.517 0 0 1-.495-.35.5.5 0 0 1 .34-.626q.408-.123.809-.267a11.987 11.987 0 0 0 3.8-2.1 6.98 6.98 0 0 0 2.43-4.133 10.782 10.782 0 0 0 .077-1.854l-.008-6.031-6.975-2.683a.493.493 0 0 1-.289-.649.525.525 0 0 1 .674-.278l7.3 2.809a.5.5 0 0 1 .327.463l.006 6.351a11.781 11.781 0 0 1-.088 2.021 7.971 7.971 0 0 1-2.765 4.724 13.016 13.016 0 0 1-4.127 2.295c-.283.1-.571.2-.861.284a.525.525 0 0 1-.155.024z" class="cls-2" transform="translate(-1.909 -.016)"/>
            </g>
            <rect id="사각형_2140" width="2.166" height="7.179" class="cls-2" rx=".398" transform="translate(11.131 7.975)"/>
            <rect id="사각형_2141" width="2.166" height="7.179" class="cls-2" rx=".398" transform="rotate(90 2.664 13.14)"/>
        </g>
    </g>
</svg>
