<svg xmlns="http://www.w3.org/2000/svg" width="24" height="24" viewBox="0 0 24 24">
    <defs>
        <style>
            .cls-2{fill:#a87463}
        </style>
    </defs>
    <g id="그룹_1430" transform="translate(-20 -247)">
        <path id="사각형_756" fill="none" d="M0 0H24V24H0z" transform="translate(20 247)"/>
        <g id="그룹_1356" transform="translate(-482 -439.899)">
            <g id="그룹_1355" transform="translate(504 688.973)">
                <path id="패스_1266" d="M523.529 704.415h-19.058a.475.475 0 0 1-.419-.244.431.431 0 0 1 .038-.467l1.958-2.591v-4.561a7.962 7.962 0 0 1 15.9 0v4.561l1.958 2.591a.431.431 0 0 1 .037.467.475.475 0 0 1-.414.244zm-18.139-.9h17.22l-1.51-2a.437.437 0 0 1-.088-.262v-4.707a7.02 7.02 0 0 0-14.023 0v4.707a.437.437 0 0 1-.088.262z" class="cls-2" transform="translate(-504 -688.973)"/>
                <path id="패스_1267" d="M516 712.826a3.354 3.354 0 0 1-3.351-3.35.565.565 0 0 1 1.13 0 2.221 2.221 0 0 0 4.442 0 .565.565 0 0 1 1.13 0 3.354 3.354 0 0 1-3.351 3.35z" class="cls-2" transform="translate(-506 -692.974)"/>
            </g>
            <path id="패스_1268" d="M523.529 708.9a.47.47 0 0 1-.332-.138L504.138 689.7a.471.471 0 1 1 .665-.666l19.059 19.066a.47.47 0 0 1-.332.8z" class="cls-2"/>
        </g>
    </g>
</svg>
