<svg xmlns="http://www.w3.org/2000/svg" width="24" height="24" viewBox="0 0 24 24">
    <defs>
        <style>
            .cls-3{fill:#a87463;stroke:#a87463;stroke-width:.25px}
        </style>
    </defs>
    <g id="icon_q" transform="translate(-20 -506)">
        <path id="사각형_755" fill="none" d="M0 0H24V24H0z" transform="translate(20 506)"/>
        <g id="그룹_1334" transform="translate(-296.008 -182.9)">
            <path id="패스_1234" fill="#a87463" d="M328.008 712.9a12 12 0 1 1 12-12 12.014 12.014 0 0 1-12 12zm0-22.871a10.871 10.871 0 1 0 10.871 10.871 10.883 10.883 0 0 0-10.871-10.871z"/>
            <g id="그룹_1333" transform="translate(.72 1.256)">
                <path id="패스_1235" d="M327.288 703.054a.467.467 0 0 1-.466-.467v-2.537a.466.466 0 0 1 .466-.466 2.479 2.479 0 1 0-2.479-2.479.467.467 0 0 1-.933 0 3.412 3.412 0 1 1 3.878 3.38v2.1a.467.467 0 0 1-.466.469z" class="cls-3"/>
                <path id="패스_1236" d="M328.545 707.139a.68.68 0 1 0-.68.68.68.68 0 0 0 .68-.68z" class="cls-3" transform="translate(-.577 -2.225)"/>
            </g>
        </g>
    </g>
</svg>
