<svg xmlns="http://www.w3.org/2000/svg" width="24" height="24" viewBox="0 0 24 24">
    <defs>
        <style>
            .cls-2{fill:#a87463}
        </style>
    </defs>
    <g id="그룹_1433" transform="translate(-20 -436)">
        <path id="사각형_759" fill="none" d="M0 0H24V24H0z" transform="translate(20 436)"/>
        <g id="그룹_1350" transform="translate(-672 -252.9)">
            <g id="그룹_1349">
                <path id="패스_1255" d="M709 707.236a.516.516 0 0 1-.378-.166.586.586 0 0 1 0-.8l5.085-5.372-5.085-5.372a.587.587 0 0 1 0-.8.515.515 0 0 1 .756 0l5.463 5.771a.588.588 0 0 1 0 .8l-5.463 5.771a.519.519 0 0 1-.378.168z" class="cls-2"/>
                <path id="패스_1256" d="M713.913 701.464h-13.936a.565.565 0 0 1 0-1.129h13.936a.565.565 0 0 1 0 1.129z" class="cls-2"/>
            </g>
            <path id="패스_1257" d="M705 712.9h-11.465a.55.55 0 0 1-.535-.565v-22.87a.55.55 0 0 1 .535-.565H705a.565.565 0 0 1 0 1.129h-10.931v21.741H705a.566.566 0 0 1 0 1.13z" class="cls-2"/>
        </g>
    </g>
</svg>
