<svg xmlns="http://www.w3.org/2000/svg" width="89" height="65" viewBox="0 0 89 65">
    <defs>
        <clipPath id="clip-path">
            <path id="사각형_3345" data-name="사각형 3345" class="cls-1" transform="translate(150 206)" d="M0 0h20v18H0z"/>
        </clipPath>
        <clipPath id="clip-path-2">
            <path id="사각형_3346" data-name="사각형 3346" class="cls-1" transform="translate(137 213)" d="M0 0h19v43H0z"/>
        </clipPath>
        <clipPath id="clip-path-3">
            <path id="사각형_3347" data-name="사각형 3347" class="cls-1" transform="translate(-.304)" d="M0 0h19v43H0z"/>
        </clipPath>
        <clipPath id="clip-path-4">
            <path id="사각형_3350" data-name="사각형 3350" class="cls-1" transform="translate(78 1256)" d="M0 0h49v38H0z"/>
        </clipPath>
        <linearGradient id="linear-gradient" y1=".5" x2="1" y2=".5" gradientUnits="objectBoundingBox">
            <stop offset="0" stop-color="#a2670c"/>
            <stop offset=".034" stop-color="#a56b10"/>
            <stop offset=".075" stop-color="#af781f"/>
            <stop offset=".119" stop-color="#c08d37"/>
            <stop offset=".166" stop-color="#d8ab58"/>
            <stop offset=".214" stop-color="#f6d282"/>
            <stop offset=".226" stop-color="#ffdd8f"/>
            <stop offset=".342" stop-color="#e6b449"/>
            <stop offset=".472" stop-color="#e5af3a"/>
            <stop offset=".48" stop-color="#e5af3a"/>
            <stop offset=".618" stop-color="#e9b143"/>
            <stop offset=".638" stop-color="#ebb648"/>
            <stop offset=".717" stop-color="#f3c75b"/>
            <stop offset=".839" stop-color="#c9983d"/>
            <stop offset=".92" stop-color="#b27827"/>
            <stop offset="1" stop-color="#99560f"/>
        </linearGradient>
        <linearGradient id="linear-gradient-2" y1=".5" x2="1" y2=".5" gradientUnits="objectBoundingBox">
            <stop offset="0" stop-color="#d5bd83"/>
            <stop offset=".227" stop-color="#d3b97e"/>
            <stop offset=".476" stop-color="#cdb071"/>
            <stop offset=".735" stop-color="#c5a15b"/>
            <stop offset="1" stop-color="#b98d3d"/>
        </linearGradient>
        <style>
            .cls-1{fill:none}.cls-5{fill:#e4c78a;opacity:.8}.cls-8{fill:url(#linear-gradient-2)}
        </style>
    </defs>
    <g id="그룹_24731" data-name="그룹 24731" transform="translate(-58 -1232)">
        <g id="마스크_그룹_121" data-name="마스크 그룹 121" transform="translate(-57 1026)" style="clip-path:url(#clip-path)">
            <g id="그룹_24716" data-name="그룹 24716" transform="translate(150.818 206.873)">
                <path id="패스_29726" data-name="패스 29726" d="M1194.167 1263.8a.824.824 0 0 0-.759 1.146l-3.828 3.095-3.1-7.368a1.116 1.116 0 1 0-.868 0l-3.1 7.368-3.773-3.05a.813.813 0 0 0 .09-.367.828.828 0 1 0-.648.8l2.234 9.538h11.272l2.239-9.562a.809.809 0 0 0 .251.043.824.824 0 0 0 0-1.648z" transform="translate(-1177.171 -1258.529)" style="fill:url(#linear-gradient)"/>
            </g>
        </g>
        <g id="마스크_그룹_122" data-name="마스크 그룹 122" transform="translate(-79 1041)" style="clip-path:url(#clip-path-2)">
            <path id="패스_29730" data-name="패스 29730" class="cls-5" d="M826.7 116.99a5.237 5.237 0 0 1 2.555 1.332 27.092 27.092 0 0 1-.76-2.671 5.51 5.51 0 0 1-3.325.044 5.753 5.753 0 0 1-2.764-2.467 5.752 5.752 0 0 1 3.7-.175 5.146 5.146 0 0 1 2.184 1.628 27.313 27.313 0 0 1-.384-2.8 4.736 4.736 0 0 1-2.712-.487 5.051 5.051 0 0 1-2.013-2.555 5.051 5.051 0 0 1 3.226.413 4.278 4.278 0 0 1 1.422 1.382q-.049-1.21.007-2.487a4.466 4.466 0 0 1-2.47-.894 4.727 4.727 0 0 1-1.441-2.681 4.727 4.727 0 0 1 2.907.9 4 4 0 0 1 1.08 1.493q.082-.971.23-1.977a4.041 4.041 0 0 1-2.263-.808 4.262 4.262 0 0 1-1.3-2.418 4.261 4.261 0 0 1 2.621.816 3.753 3.753 0 0 1 1.074 1.595 34.6 34.6 0 0 1 .407-1.988 3.6 3.6 0 0 1-1.969-1.067 3.7 3.7 0 0 1-.747-2.265 3.7 3.7 0 0 1 2.12 1.093 3.4 3.4 0 0 1 .715 1.763q.264-1.056.607-2.147a3.3 3.3 0 0 1-1.624-1.28 3.376 3.376 0 0 1-.312-2.151 3.374 3.374 0 0 1 1.729 1.317 3.054 3.054 0 0 1 .366 1.616q.323-.984.714-2a3.132 3.132 0 0 1-1.353-1.483 3.17 3.17 0 0 1 .062-2.04 3.169 3.169 0 0 1 1.385 1.5 2.927 2.927 0 0 1 .054 1.652q.273-.688.577-1.388a2.317 2.317 0 0 1-.99-1.09 2.346 2.346 0 0 1 .046-1.509 2.345 2.345 0 0 1 1.024 1.109c.013.034.023.068.033.1a1.7 1.7 0 0 1 .092-.258 2.346 2.346 0 0 1 1.1-1.035 2.344 2.344 0 0 1-.06 1.509 2.316 2.316 0 0 1-1.068 1.02l-.027.063a2.155 2.155 0 0 1 1.333-.114 2.215 2.215 0 0 1 1.122.9 2.215 2.215 0 0 1-1.419.152 2.165 2.165 0 0 1-1.076-.821c-.12.288-.338.834-.6 1.6a2.888 2.888 0 0 1 1.756-.137 3 3 0 0 1 1.513 1.2 3 3 0 0 1-1.918.205 2.89 2.89 0 0 1-1.419-1.062 36.6 36.6 0 0 0-.661 2.211 3.017 3.017 0 0 1 1.726-.415 3.19 3.19 0 0 1 1.807.975 3.19 3.19 0 0 1-1.973.57 3.046 3.046 0 0 1-1.643-.812 39.012 39.012 0 0 0-.479 2.107 3.2 3.2 0 0 1 1.64-.663 3.5 3.5 0 0 1 2.139.71 3.5 3.5 0 0 1-2.024.992 3.29 3.29 0 0 1-1.854-.517c-.128.7-.241 1.43-.335 2.194a3.734 3.734 0 0 1 1.789-1.149 4.028 4.028 0 0 1 2.566.377 4.027 4.027 0 0 1-2.1 1.529 3.858 3.858 0 0 1-2.318-.261 35.239 35.239 0 0 0-.189 2.662 4.183 4.183 0 0 1 2.035-1.331 4.468 4.468 0 0 1 2.846.418 4.467 4.467 0 0 1-2.324 1.7 4.278 4.278 0 0 1-2.571-.29c-.018.992.009 2.015.091 3.06a4.457 4.457 0 0 1 1.883-1.759 4.772 4.772 0 0 1 3.073-.089 4.771 4.771 0 0 1-2.131 2.215 4.583 4.583 0 0 1-2.778.168c.089.926.221 1.866.408 2.817a4.925 4.925 0 0 1 1.662-2.1 5.436 5.436 0 0 1 3.429-.707 5.437 5.437 0 0 1-1.952 2.906 5.153 5.153 0 0 1-2.959.743q.274 1.195.669 2.4a4.837 4.837 0 0 1 1.232-2.2 5.435 5.435 0 0 1 3.254-1.292 5.436 5.436 0 0 1-1.418 3.2 5.126 5.126 0 0 1-2.735 1.238 25.743 25.743 0 0 0 1.1 2.53 4.9 4.9 0 0 1 .84-2.484 5.437 5.437 0 0 1 2.981-1.837 5.438 5.438 0 0 1-.841 3.4 5.175 5.175 0 0 1-2.563 1.722q.577 1.059 1.282 2.1a4.833 4.833 0 0 1 .831-2.382 5.437 5.437 0 0 1 2.981-1.837 5.438 5.438 0 0 1-.84 3.4 5.065 5.065 0 0 1-2.38 1.66 27.265 27.265 0 0 0 1.99 2.4 4.831 4.831 0 0 1 .405-2.483 5.438 5.438 0 0 1 2.616-2.327 5.436 5.436 0 0 1-.238 3.493 5.074 5.074 0 0 1-2.071 2.057 31.411 31.411 0 0 0 3.739 3.2.538.538 0 1 1-.629.873 27.751 27.751 0 0 1-3.778-3.374 5.482 5.482 0 0 1-2.835 1.677 5.754 5.754 0 0 1-3.627-.754 5.753 5.753 0 0 1 3.117-2 5.092 5.092 0 0 1 2.626.29 30.508 30.508 0 0 1-2.012-2.549 5.556 5.556 0 0 1-3.182 1.234 5.752 5.752 0 0 1-3.441-1.373 5.751 5.751 0 0 1 3.417-1.43 5.212 5.212 0 0 1 2.712.846c-.454-.685-.9-1.415-1.318-2.19a5.467 5.467 0 0 1-3.06 1.142 5.752 5.752 0 0 1-3.441-1.373 5.752 5.752 0 0 1 3.417-1.43 5.168 5.168 0 0 1 2.635.8 27.6 27.6 0 0 1-1.144-2.619 5.536 5.536 0 0 1-3.3.639 5.752 5.752 0 0 1-3.15-1.949 5.751 5.751 0 0 1 3.609-.826zm4.417-21.91h.006v-.013z" transform="translate(-685.152 121.806)"/>
        </g>
        <g id="마스크_그룹_123" data-name="마스크 그룹 123" transform="translate(128.305 1254)" style="clip-path:url(#clip-path-3)">
            <path id="패스_29731" data-name="패스 29731" class="cls-5" d="M836.016 116.99a5.236 5.236 0 0 0-2.554 1.332 27.092 27.092 0 0 0 .76-2.671 5.51 5.51 0 0 0 3.325.044 5.753 5.753 0 0 0 2.764-2.467 5.753 5.753 0 0 0-3.7-.175 5.147 5.147 0 0 0-2.184 1.628 27.245 27.245 0 0 0 .384-2.8 4.736 4.736 0 0 0 2.712-.487 5.052 5.052 0 0 0 2.014-2.555 5.051 5.051 0 0 0-3.226.413 4.277 4.277 0 0 0-1.421 1.382q.049-1.21-.007-2.487a4.466 4.466 0 0 0 2.47-.894 4.727 4.727 0 0 0 1.441-2.681 4.727 4.727 0 0 0-2.907.9 4 4 0 0 0-1.08 1.493 31.5 31.5 0 0 0-.23-1.977 4.042 4.042 0 0 0 2.263-.808 4.262 4.262 0 0 0 1.3-2.418 4.261 4.261 0 0 0-2.621.816 3.751 3.751 0 0 0-1.074 1.595 34.6 34.6 0 0 0-.407-1.988 3.6 3.6 0 0 0 1.962-1.06 3.7 3.7 0 0 0 .747-2.265 3.7 3.7 0 0 0-2.12 1.093 3.4 3.4 0 0 0-.715 1.763q-.264-1.056-.607-2.147a3.3 3.3 0 0 0 1.624-1.28 3.375 3.375 0 0 0 .312-2.151 3.374 3.374 0 0 0-1.729 1.317 3.054 3.054 0 0 0-.366 1.616q-.323-.984-.714-2a3.131 3.131 0 0 0 1.353-1.483 3.17 3.17 0 0 0-.062-2.04 3.169 3.169 0 0 0-1.385 1.5 2.928 2.928 0 0 0-.054 1.652q-.273-.688-.577-1.388a2.317 2.317 0 0 0 .99-1.09 2.346 2.346 0 0 0-.046-1.509 2.345 2.345 0 0 0-1.024 1.109c-.013.034-.023.068-.033.1a1.715 1.715 0 0 0-.092-.258 2.346 2.346 0 0 0-1.1-1.035 2.345 2.345 0 0 0 .06 1.509 2.316 2.316 0 0 0 1.068 1.02l.027.063a2.155 2.155 0 0 0-1.333-.114 2.215 2.215 0 0 0-1.114.893 2.215 2.215 0 0 0 1.419.152 2.164 2.164 0 0 0 1.076-.821c.12.288.338.834.6 1.6a2.888 2.888 0 0 0-1.756-.137 3 3 0 0 0-1.513 1.2 3 3 0 0 0 1.918.205 2.89 2.89 0 0 0 1.419-1.062 36.6 36.6 0 0 1 .661 2.211 3.018 3.018 0 0 0-1.726-.415 3.191 3.191 0 0 0-1.807.975 3.19 3.19 0 0 0 1.973.57 3.045 3.045 0 0 0 1.643-.812c.167.649.329 1.353.479 2.107a3.2 3.2 0 0 0-1.64-.663 3.5 3.5 0 0 0-2.139.71 3.5 3.5 0 0 0 2.024.992 3.289 3.289 0 0 0 1.854-.517c.128.7.241 1.43.335 2.194a3.735 3.735 0 0 0-1.789-1.149 4.028 4.028 0 0 0-2.566.377 4.027 4.027 0 0 0 2.1 1.529 3.857 3.857 0 0 0 2.318-.261c.093.854.159 1.744.189 2.662a4.183 4.183 0 0 0-2.035-1.331 4.467 4.467 0 0 0-2.846.418 4.467 4.467 0 0 0 2.324 1.7 4.277 4.277 0 0 0 2.57-.29c.018.992-.009 2.015-.091 3.06a4.458 4.458 0 0 0-1.883-1.759 4.773 4.773 0 0 0-3.073-.089 4.771 4.771 0 0 0 2.131 2.215 4.583 4.583 0 0 0 2.778.168 28.928 28.928 0 0 1-.408 2.817 4.924 4.924 0 0 0-1.662-2.1 5.436 5.436 0 0 0-3.429-.707 5.437 5.437 0 0 0 1.952 2.906 5.153 5.153 0 0 0 2.959.743q-.274 1.195-.669 2.4a4.836 4.836 0 0 0-1.232-2.2 5.435 5.435 0 0 0-3.254-1.292 5.437 5.437 0 0 0 1.418 3.2 5.126 5.126 0 0 0 2.735 1.238 25.743 25.743 0 0 1-1.1 2.53 4.9 4.9 0 0 0-.84-2.484 5.437 5.437 0 0 0-2.981-1.837 5.438 5.438 0 0 0 .841 3.4 5.176 5.176 0 0 0 2.563 1.722q-.577 1.059-1.282 2.1a4.832 4.832 0 0 0-.831-2.382 5.437 5.437 0 0 0-2.981-1.837 5.438 5.438 0 0 0 .84 3.4 5.065 5.065 0 0 0 2.38 1.66 27.288 27.288 0 0 1-1.99 2.4 4.832 4.832 0 0 0-.405-2.483 5.438 5.438 0 0 0-2.616-2.327 5.437 5.437 0 0 0 .238 3.493 5.075 5.075 0 0 0 2.071 2.057 31.43 31.43 0 0 1-3.739 3.2.538.538 0 1 0 .629.873 27.743 27.743 0 0 0 3.778-3.374 5.482 5.482 0 0 0 2.835 1.677 5.754 5.754 0 0 0 3.628-.754 5.754 5.754 0 0 0-3.117-2 5.092 5.092 0 0 0-2.626.29 30.508 30.508 0 0 0 2.013-2.549 5.555 5.555 0 0 0 3.182 1.234 5.752 5.752 0 0 0 3.441-1.373 5.751 5.751 0 0 0-3.417-1.43 5.212 5.212 0 0 0-2.712.846c.454-.685.9-1.415 1.318-2.19a5.468 5.468 0 0 0 3.06 1.142 5.752 5.752 0 0 0 3.441-1.373 5.752 5.752 0 0 0-3.417-1.43 5.167 5.167 0 0 0-2.635.8 27.57 27.57 0 0 0 1.143-2.619 5.536 5.536 0 0 0 3.3.639 5.753 5.753 0 0 0 3.15-1.949 5.752 5.752 0 0 0-3.613-.826zM831.6 95.08h-.006v-.013z" transform="translate(-821.872 -91.194)"/>
        </g>
        <g id="마스크_그룹_124" data-name="마스크 그룹 124" style="clip-path:url(#clip-path-4)">
            <g id="그룹_24729" data-name="그룹 24729" transform="translate(-17.039 -323.606)">
                <path id="패스_29741" data-name="패스 29741" class="cls-8" d="M96.672 1585.91a4.352 4.352 0 0 1 8.677 0v1.379h2.173v-5.628h3.568v15.066h-3.568v-6.5h-2.173v2.254a4.352 4.352 0 0 1-8.677 0zm3.26 6.763a1.077 1.077 0 0 0 1.1 1.07 1.091 1.091 0 0 0 1.119-1.07v-6.958a1.125 1.125 0 0 0-1.119-1.086 1.111 1.111 0 0 0-1.1 1.086z"/>
                <path id="패스_29742" data-name="패스 29742" class="cls-8" d="M202.49 1589.332h10.768v2.676h-4.152l-1.038 4.719h-3.584l1.038-4.719h-3.032zm.324-4.119a3.318 3.318 0 0 1 3.389-3.39h2.854a3.39 3.39 0 1 1 0 6.779H206.2a3.318 3.318 0 0 1-3.386-3.389zm5.611.859a.893.893 0 0 0 0-1.784h-1.573a.895.895 0 0 0 0 1.784zm1.281 6.617h3.957v-11.028h3.568v15.066h-3.568v-1.492h-3.957z" transform="translate(-89.924)"/>
                <path id="패스_29743" data-name="패스 29743" class="cls-8" d="M310.466 1594.778h14.92v3.082h-14.92zm.568-11.5h13.785v2.838h-5.027c.26 1.914 2.4 3.389 5.206 3.389v2.9c-3.454 0-5.773-1.249-7.071-2.854-1.3 1.606-3.616 2.854-7.055 2.854v-2.9c2.806 0 4.946-1.476 5.206-3.389h-5.044z" transform="translate(-181.681 -1.376)"/>
                <path id="패스_29744" data-name="패스 29744" class="cls-8" d="M148.5 1720.324h14.92v2.871h-5.627v4.184h-3.665v-4.179H148.5zm.568-3.925c3.406 0 5.076-2.124 5.076-3.681v-.405h3.649v.405c0 1.557 1.67 3.681 5.076 3.681v2.854c-3.536 0-5.693-1.3-6.909-2.806-1.249 1.508-3.324 2.806-6.892 2.806z" transform="translate(-44.044 -111.027)"/>
                <path id="패스_29745" data-name="패스 29745" class="cls-8" d="M257.558 1716.877c2.206-.649 3.065-2.433 3.065-4.509v-1.054h3.536v1.054a4.084 4.084 0 0 0 3.065 4.346v2.936a7.823 7.823 0 0 1-4.817-2.757 7.705 7.705 0 0 1-4.849 2.919zm3.828 3.568h7.428a2.975 2.975 0 1 1 0 5.936h-7.428a2.973 2.973 0 1 1 0-5.936zm6.276 3.487c.454 0 .762-.13.762-.519 0-.438-.308-.535-.762-.535h-5.141c-.389 0-.7.1-.7.535 0 .389.308.519.7.519zm.438-12.7h3.568v2.773h1.686v2.838h-1.686v3.276H268.1z" transform="translate(-136.72 -110.11)"/>
            </g>
        </g>
    </g>
</svg>
