<svg xmlns="http://www.w3.org/2000/svg" width="126" height="123" viewBox="0 0 126 123">
    <defs>
        <clipPath id="clip-path">
            <path id="사각형_3245" data-name="사각형 3245" transform="translate(0 -.442)" style="fill:none" d="M0 0h126v123H0z"/>
        </clipPath>
        <style>
            .cls-3{fill:#e4c78a}
        </style>
    </defs>
    <g id="마스크_그룹_106" data-name="마스크 그룹 106" transform="translate(0 .442)" style="clip-path:url(#clip-path)">
        <g id="그룹_24313" data-name="그룹 24313" transform="translate(1.069 5.33)">
            <g id="그룹_24311" data-name="그룹 24311">
                <path id="패스_28260" data-name="패스 28260" class="cls-3" d="M2289.048 2589.084c6.121 1.466 13.1-3.315 13.1-3.315-8.917-1.16-13.1 3.315-13.1 3.315z" transform="translate(-2252.141 -2480.671)"/>
                <path id="패스_28261" data-name="패스 28261" class="cls-3" d="M2270.737 2582.769c5.907 1.956 13.091-2 13.091-2-8.515-1.983-13.091 2-13.091 2z" transform="translate(-2240.305 -2477.205)"/>
                <path id="패스_28262" data-name="패스 28262" class="cls-3" d="M2254.148 2574.749c5.64 2.46 12.963-.632 12.963-.632-8.028-2.79-12.963.632-12.963.632z" transform="translate(-2229.584 -2472.557)"/>
                <path id="패스_28263" data-name="패스 28263" class="cls-3" d="M2252.016 2565.734c-7.442-3.565-12.69-.767-12.69-.767 5.315 2.963 12.69.767 12.69.767z" transform="translate(-2220.004 -2466.676)"/>
                <path id="패스_28264" data-name="패스 28264" class="cls-3" d="M2238.566 2555.568c-6.769-4.279-12.26-2.156-12.26-2.156 4.93 3.448 12.26 2.156 12.26 2.156z" transform="translate(-2211.588 -2459.542)"/>
                <path id="패스_28265" data-name="패스 28265" class="cls-3" d="M2226.772 2543.591c-6.019-4.9-11.672-3.49-11.672-3.49 4.5 3.899 11.672 3.49 11.672 3.49z" transform="translate(-2204.346 -2451.156)"/>
                <path id="패스_28266" data-name="패스 28266" class="cls-3" d="M2205.7 2525.273c4.021 4.3 10.943 4.721 10.943 4.721-5.214-5.412-10.943-4.721-10.943-4.721z" transform="translate(-2198.272 -2441.676)"/>
                <path id="패스_28267" data-name="패스 28267" class="cls-3" d="M2198.089 2509.463c3.523 4.639 10.1 5.811 10.1 5.811-4.389-5.796-10.1-5.811-10.1-5.811z" transform="translate(-2193.351 -2431.476)"/>
                <path id="패스_28268" data-name="패스 28268" class="cls-3" d="M2192.219 2492.7c3.021 4.909 9.185 6.734 9.185 6.734a13.553 13.553 0 0 0-9.185-6.734z" transform="translate(-2189.557 -2420.642)"/>
                <path id="패스_28269" data-name="패스 28269" class="cls-3" d="M2196.284 2482.591a13.338 13.338 0 0 0-8.233-7.482c2.531 5.112 8.233 7.482 8.233 7.482z" transform="translate(-2186.863 -2409.272)"/>
                <path id="패스_28270" data-name="패스 28270" class="cls-3" d="M2192.833 2464.8a13.125 13.125 0 0 0-7.282-8.057c2.064 5.251 7.282 8.057 7.282 8.057z" transform="translate(-2185.247 -2397.399)"/>
                <path id="패스_28271" data-name="패스 28271" class="cls-3" d="M2191.053 2446.1a12.919 12.919 0 0 0-6.361-8.475 17.41 17.41 0 0 0 6.361 8.475z" transform="translate(-2184.692 -2385.046)"/>
                <path id="패스_28272" data-name="패스 28272" class="cls-3" d="M2191.256 2427.8a12.717 12.717 0 0 0-5.219-8.919 17.23 17.23 0 0 0 5.219 8.919z" transform="translate(-2185.561 -2372.932)"/>
                <path id="패스_28273" data-name="패스 28273" class="cls-3" d="M2189.794 2400.955a17.045 17.045 0 0 0 3.986 9.248 12.521 12.521 0 0 0-3.986-9.248z" transform="translate(-2187.99 -2361.344)"/>
                <path id="패스_28274" data-name="패스 28274" class="cls-3" d="M2195.477 2383.658a16.862 16.862 0 0 0 2.81 9.4 12.329 12.329 0 0 0-2.81-9.4z" transform="translate(-2191.661 -2350.164)"/>
                <path id="패스_28275" data-name="패스 28275" class="cls-3" d="M2202.874 2367.155a16.67 16.67 0 0 0 1.7 9.393 12.144 12.144 0 0 0-1.7-9.393z" transform="translate(-2196.376 -2339.498)"/>
                <path id="패스_28276" data-name="패스 28276" class="cls-3" d="M2211.865 2351.615a16.478 16.478 0 0 0 .659 9.259 11.964 11.964 0 0 0-.659-9.259z" transform="translate(-2202.018 -2329.454)"/>
                <path id="패스_28277" data-name="패스 28277" class="cls-3" d="M2222.334 2337.212a16.284 16.284 0 0 0-.318 9.016c2.242-4.27.318-9.016.318-9.016z" transform="translate(-2208.509 -2320.145)"/>
                <path id="패스_28278" data-name="패스 28278" class="cls-3" d="M2234.148 2324.133a16.075 16.075 0 0 0-1.235 8.672c2.57-3.787 1.235-8.672 1.235-8.672z" transform="translate(-2215.761 -2311.691)"/>
                <path id="패스_28279" data-name="패스 28279" class="cls-3" d="M2247.16 2312.568a15.855 15.855 0 0 0-2.1 8.237c2.828-3.285 2.1-8.237 2.1-8.237z" transform="translate(-2223.7 -2304.216)"/>
                <path id="패스_28280" data-name="패스 28280" class="cls-3" d="M2261.238 2302.717a15.624 15.624 0 0 0-2.9 7.71c3.008-2.764 2.9-7.71 2.9-7.71z" transform="translate(-2232.29 -2297.85)"/>
                <path id="패스_28281" data-name="패스 28281" class="cls-3" d="M2276.421 2294.78c-3.273 3.968-3.65 7.095-3.65 7.095 3.129-2.234 3.65-7.095 3.65-7.095z" transform="translate(-2241.62 -2292.719)"/>
                <path id="패스_28282" data-name="패스 28282" class="cls-3" d="M2292.7 2288.954c-3.657 3.571-4.328 6.392-4.328 6.392 3.172-1.701 4.328-6.392 4.328-6.392z" transform="translate(-2251.706 -2288.954)"/>
                <path id="패스_28283" data-name="패스 28283" class="cls-3" d="M2314.864 2562.032a17.569 17.569 0 0 0-7.336-8.88c2.36 7.29 7.336 8.88 7.336 8.88z" transform="translate(-2264.085 -2459.714)"/>
                <path id="패스_28284" data-name="패스 28284" class="cls-3" d="M2300.109 2557.884a17.126 17.126 0 0 0-5.84-9.653c1.264 7.377 5.84 9.653 5.84 9.653z" transform="translate(-2255.515 -2456.533)"/>
                <path id="패스_28285" data-name="패스 28285" class="cls-3" d="M2286.128 2551.657a16.68 16.68 0 0 0-4.4-10.131c.28 7.301 4.4 10.131 4.4 10.131z" transform="translate(-2247.408 -2452.199)"/>
                <path id="패스_28286" data-name="패스 28286" class="cls-3" d="M2272.919 2543.594a16.247 16.247 0 0 0-3.071-10.366c-.57 7.107 3.071 10.366 3.071 10.366z" transform="translate(-2239.692 -2446.836)"/>
                <path id="패스_28287" data-name="패스 28287" class="cls-3" d="M2260.448 2533.937a15.813 15.813 0 0 0-1.858-10.412c-1.299 6.831 1.858 10.412 1.858 10.412z" transform="translate(-2232.251 -2440.565)"/>
                <path id="패스_28288" data-name="패스 28288" class="cls-3" d="M2248.859 2522.932a15.387 15.387 0 0 0-.756-10.316c-1.923 6.501.756 10.316.756 10.316z" transform="translate(-2225.227 -2433.515)"/>
                <path id="패스_28289" data-name="패스 28289" class="cls-3" d="M2238.617 2500.722c-2.462 6.13-.255 10.108-.255 10.108a14.973 14.973 0 0 0 .255-10.108z" transform="translate(-2218.793 -2425.827)"/>
                <path id="패스_28290" data-name="패스 28290" class="cls-3" d="M2230.307 2488.081c-2.937 5.723-1.2 9.806-1.2 9.806a14.555 14.555 0 0 0 1.2-9.806z" transform="translate(-2213.069 -2417.656)"/>
                <path id="패스_28291" data-name="패스 28291" class="cls-3" d="M2223.317 2474.95c-3.367 5.279-2.106 9.416-2.106 9.416a14.151 14.151 0 0 0 2.106-9.416z" transform="translate(-2208.145 -2409.17)"/>
                <path id="패스_28292" data-name="패스 28292" class="cls-3" d="M2217.771 2461.6c-3.767 4.787-3 8.929-3 8.929 3.29-3.723 3-8.929 3-8.929z" transform="translate(-2204.093 -2400.544)"/>
                <path id="패스_28293" data-name="패스 28293" class="cls-3" d="M2213.863 2448.341c-4.146 4.231-3.9 8.323-3.9 8.323 3.601-3.212 3.9-8.323 3.9-8.323z" transform="translate(-2201.026 -2391.971)"/>
                <path id="패스_28294" data-name="패스 28294" class="cls-3" d="M2211.878 2435.473c-4.5 3.588-4.81 7.564-4.81 7.564 3.872-2.62 4.81-7.564 4.81-7.564z" transform="translate(-2199.154 -2383.654)"/>
                <path id="패스_28295" data-name="패스 28295" class="cls-3" d="M2212.061 2421.129c-4.7 3.031-5.442 6.835-5.442 6.835 4.009-2.102 5.442-6.835 5.442-6.835z" transform="translate(-2198.864 -2374.383)"/>
                <path id="패스_28296" data-name="패스 28296" class="cls-3" d="M2213.872 2405.406c-4.748 2.636-5.771 6.259-5.771 6.259 4.026-1.724 5.771-6.259 5.771-6.259z" transform="translate(-2199.822 -2364.221)"/>
                <path id="패스_28297" data-name="패스 28297" class="cls-3" d="M2210.911 2396.413c4.021-1.317 6.1-5.614 6.1-5.614-4.787 2.207-6.1 5.614-6.1 5.614z" transform="translate(-2201.638 -2354.78)"/>
                <path id="패스_28298" data-name="패스 28298" class="cls-3" d="M2221.508 2377.311c-4.806 1.746-6.409 4.9-6.409 4.9 3.987-.886 6.409-4.9 6.409-4.9z" transform="translate(-2204.345 -2346.062)"/>
                <path id="패스_28299" data-name="패스 28299" class="cls-3" d="M2227.393 2364.938c-4.794 1.266-6.674 4.132-6.674 4.132 3.913-.448 6.674-4.132 6.674-4.132z" transform="translate(-2207.978 -2338.065)"/>
                <path id="패스_28300" data-name="패스 28300" class="cls-3" d="M2234.7 2353.657a11.715 11.715 0 0 0-6.87 3.324c3.789-.013 6.87-3.324 6.87-3.324z" transform="translate(-2212.572 -2330.774)"/>
                <path id="패스_28301" data-name="패스 28301" class="cls-3" d="M2236.471 2345.887c3.624.4 6.979-2.51 6.979-2.51a11.769 11.769 0 0 0-6.979 2.51z" transform="translate(-2218.158 -2324.129)"/>
                <path id="패스_28302" data-name="패스 28302" class="cls-3" d="M2246.682 2335.732c3.417.76 6.994-1.727 6.994-1.727a11.86 11.86 0 0 0-6.994 1.727z" transform="translate(-2224.758 -2318.069)"/>
                <path id="패스_28303" data-name="패스 28303" class="cls-3" d="M2258.472 2326.5c3.181 1.066 6.921-1.01 6.921-1.01a11.986 11.986 0 0 0-6.921 1.01z" transform="translate(-2232.378 -2312.504)"/>
                <path id="패스_28304" data-name="패스 28304" class="cls-3" d="M2271.84 2318.213c2.933 1.307 6.775-.382 6.775-.382a12.157 12.157 0 0 0-6.775.382z" transform="translate(-2241.019 -2307.44)"/>
                <path id="패스_28305" data-name="패스 28305" class="cls-3" d="M2293.355 2311.066a12.4 12.4 0 0 0-6.58-.141c2.684 1.482 6.58.141 6.58.141z" transform="translate(-2250.672 -2302.924)"/>
                <path id="패스_28306" data-name="패스 28306" class="cls-3" d="M2256.4 2404.331a10.994 10.994 0 0 1 1.694 1.952 8.1 8.1 0 0 1 1.01 2.081 7.4 7.4 0 0 1 .3 1.421c.031.328.039.5.039.5l-1.3.049-.029-.41a6.091 6.091 0 0 0-.238-1.173 6.819 6.819 0 0 0-.841-1.761 9.874 9.874 0 0 0-1.6-1.842l-.968-.814a24.594 24.594 0 0 0-5.8-3.155 40.541 40.541 0 0 0-4.5-1.486c-.4-.107-.814-.211-1.227-.3s-.859-.2-1.3-.3a52.872 52.872 0 0 1-2.66-.735 51.105 51.105 0 0 1-21.681-13.212 50.883 50.883 0 0 1 3.87-74.76 50.723 50.723 0 0 1 15.573-8.823 50.086 50.086 0 0 1 4.828-1.426c.565-.139 1-.232 1.294-.295l.445-.1-.444.1c-.292.065-.727.162-1.29.305a50.492 50.492 0 0 0-20.272 10.393 50.671 50.671 0 0 0-14.563 20.4 50.4 50.4 0 0 0-3.192 13.85 51.013 51.013 0 0 0 .879 14.63 50.327 50.327 0 0 0 2.03 7.083 50.161 50.161 0 0 0 11.489 18.007 50.223 50.223 0 0 0 10.473 8.091 49.66 49.66 0 0 0 10.884 4.687c.88.265 1.753.487 2.607.7l1.276.285c.435.095.857.2 1.273.305a41.808 41.808 0 0 1 4.644 1.494 25.324 25.324 0 0 1 6.334 3.437" transform="translate(-2196.389 -2295.924)"/>
            </g>
            <g id="그룹_24312" data-name="그룹 24312" transform="translate(61.986)">
                <path id="패스_28260-2" data-name="패스 28260" class="cls-3" d="M2302.144 2589.084c-6.121 1.466-13.1-3.315-13.1-3.315 8.917-1.16 13.1 3.315 13.1 3.315z" transform="translate(-2275.997 -2480.671)"/>
                <path id="패스_28261-2" data-name="패스 28261" class="cls-3" d="M2283.828 2582.769c-5.908 1.956-13.091-2-13.091-2 8.516-1.983 13.091 2 13.091 2z" transform="translate(-2251.205 -2477.205)"/>
                <path id="패스_28262-2" data-name="패스 28262" class="cls-3" d="M2267.11 2574.749c-5.64 2.46-12.963-.632-12.963-.632 8.028-2.79 12.963.632 12.963.632z" transform="translate(-2228.62 -2472.557)"/>
                <path id="패스_28263-2" data-name="패스 28263" class="cls-3" d="M2239.327 2565.734c7.443-3.565 12.69-.767 12.69-.767-5.317 2.963-12.69.767-12.69.767z" transform="translate(-2208.284 -2466.676)"/>
                <path id="패스_28264-2" data-name="패스 28264" class="cls-3" d="M2226.306 2555.568c6.769-4.279 12.26-2.156 12.26-2.156-4.931 3.448-12.26 2.156-12.26 2.156z" transform="translate(-2190.229 -2459.542)"/>
                <path id="패스_28265-2" data-name="패스 28265" class="cls-3" d="M2215.1 2543.591c6.019-4.9 11.672-3.49 11.672-3.49-4.495 3.899-11.672 3.49-11.672 3.49z" transform="translate(-2174.472 -2451.156)"/>
                <path id="패스_28266-2" data-name="패스 28266" class="cls-3" d="M2216.646 2525.273c-4.021 4.3-10.943 4.721-10.943 4.721 5.217-5.412 10.943-4.721 10.943-4.721z" transform="translate(-2161.023 -2441.676)"/>
                <path id="패스_28267-2" data-name="패스 28267" class="cls-3" d="M2208.19 2509.463c-3.523 4.639-10.1 5.811-10.1 5.811 4.392-5.796 10.1-5.811 10.1-5.811z" transform="translate(-2149.874 -2431.476)"/>
                <path id="패스_28268-2" data-name="패스 28268" class="cls-3" d="M2201.4 2492.7c-3.021 4.909-9.185 6.734-9.185 6.734a13.553 13.553 0 0 1 9.185-6.734z" transform="translate(-2141.011 -2420.642)"/>
                <path id="패스_28269-2" data-name="패스 28269" class="cls-3" d="M2188.051 2482.591a13.338 13.338 0 0 1 8.233-7.482c-2.531 5.112-8.233 7.482-8.233 7.482z" transform="translate(-2134.417 -2409.272)"/>
                <path id="패스_28270-2" data-name="패스 28270" class="cls-3" d="M2185.551 2464.8a13.125 13.125 0 0 1 7.282-8.057c-2.064 5.251-7.282 8.057-7.282 8.057z" transform="translate(-2130.083 -2397.399)"/>
                <path id="패스_28271-2" data-name="패스 28271" class="cls-3" d="M2184.692 2446.1a12.918 12.918 0 0 1 6.361-8.475 17.412 17.412 0 0 1-6.361 8.475z" transform="translate(-2127.999 -2385.046)"/>
                <path id="패스_28272-2" data-name="패스 28272" class="cls-3" d="M2186.037 2427.8a12.717 12.717 0 0 1 5.219-8.919 17.229 17.229 0 0 1-5.219 8.919z" transform="translate(-2128.677 -2372.932)"/>
                <path id="패스_28273-2" data-name="패스 28273" class="cls-3" d="M2193.782 2400.955a17.043 17.043 0 0 1-3.986 9.248 12.521 12.521 0 0 1 3.986-9.248z" transform="translate(-2132.532 -2361.344)"/>
                <path id="패스_28274-2" data-name="패스 28274" class="cls-3" d="M2198.395 2383.658a16.862 16.862 0 0 1-2.809 9.4 12.327 12.327 0 0 1 2.809-9.4z" transform="translate(-2139.156 -2350.164)"/>
                <path id="패스_28275-2" data-name="패스 28275" class="cls-3" d="M2204.815 2367.155a16.672 16.672 0 0 1-1.7 9.393 12.144 12.144 0 0 1 1.7-9.393z" transform="translate(-2148.259 -2339.498)"/>
                <path id="패스_28276-2" data-name="패스 28276" class="cls-3" d="M2212.833 2351.615a16.478 16.478 0 0 1-.659 9.259 11.964 11.964 0 0 1 .659-9.259z" transform="translate(-2159.625 -2329.454)"/>
                <path id="패스_28277-2" data-name="패스 28277" class="cls-3" d="M2222.309 2337.212a16.281 16.281 0 0 1 .318 9.016c-2.242-4.27-.318-9.016-.318-9.016z" transform="translate(-2173.081 -2320.145)"/>
                <path id="패스_28278-2" data-name="패스 28278" class="cls-3" d="M2233.109 2324.133a16.077 16.077 0 0 1 1.235 8.672c-2.569-3.787-1.235-8.672-1.235-8.672z" transform="translate(-2188.441 -2311.691)"/>
                <path id="패스_28279-2" data-name="패스 28279" class="cls-3" d="M2245.13 2312.568a15.854 15.854 0 0 1 2.1 8.237c-2.83-3.285-2.1-8.237-2.1-8.237z" transform="translate(-2205.534 -2304.216)"/>
                <path id="패스_28280-2" data-name="패스 28280" class="cls-3" d="M2258.336 2302.717a15.621 15.621 0 0 1 2.9 7.71c-3.008-2.764-2.9-7.71-2.9-7.71z" transform="translate(-2224.23 -2297.85)"/>
                <path id="패스_28281-2" data-name="패스 28281" class="cls-3" d="M2272.771 2294.78c3.273 3.968 3.65 7.095 3.65 7.095-3.126-2.234-3.65-7.095-3.65-7.095z" transform="translate(-2244.517 -2292.719)"/>
                <path id="패스_28282-2" data-name="패스 28282" class="cls-3" d="M2288.375 2288.954c3.657 3.571 4.328 6.392 4.328 6.392-3.169-1.701-4.328-6.392-4.328-6.392z" transform="translate(-2266.318 -2288.954)"/>
                <path id="패스_28283-2" data-name="패스 28283" class="cls-3" d="M2307.528 2562.032a17.572 17.572 0 0 1 7.336-8.88c-2.364 7.29-7.336 8.88-7.336 8.88z" transform="translate(-2295.252 -2459.714)"/>
                <path id="패스_28284-2" data-name="패스 28284" class="cls-3" d="M2294.269 2557.884a17.127 17.127 0 0 1 5.84-9.653c-1.264 7.377-5.84 9.653-5.84 9.653z" transform="translate(-2275.809 -2456.533)"/>
                <path id="패스_28285-2" data-name="패스 28285" class="cls-3" d="M2281.725 2551.657a16.683 16.683 0 0 1 4.4-10.131c-.279 7.301-4.4 10.131-4.4 10.131z" transform="translate(-2257.391 -2452.199)"/>
                <path id="패스_28286-2" data-name="패스 28286" class="cls-3" d="M2269.832 2543.594a16.245 16.245 0 0 1 3.071-10.366c.57 7.107-3.071 10.366-3.071 10.366z" transform="translate(-2240.005 -2446.836)"/>
                <path id="패스_28287-2" data-name="패스 28287" class="cls-3" d="M2258.53 2533.937a15.812 15.812 0 0 1 1.858-10.412c1.299 6.831-1.858 10.412-1.858 10.412z" transform="translate(-2223.671 -2440.565)"/>
                <path id="패스_28288-2" data-name="패스 28288" class="cls-3" d="M2248 2522.932a15.388 15.388 0 0 1 .756-10.316c1.92 6.501-.756 10.316-.756 10.316z" transform="translate(-2208.574 -2433.515)"/>
                <path id="패스_28289-2" data-name="패스 28289" class="cls-3" d="M2238.226 2500.722c2.461 6.13.255 10.108.255 10.108a14.97 14.97 0 0 1-.255-10.108z" transform="translate(-2194.995 -2425.826)"/>
                <path id="패스_28290-2" data-name="패스 28290" class="cls-3" d="M2228.962 2488.081c2.937 5.723 1.2 9.806 1.2 9.806a14.555 14.555 0 0 1-1.2-9.806z" transform="translate(-2183.146 -2417.657)"/>
                <path id="패스_28291-2" data-name="패스 28291" class="cls-3" d="M2221.09 2474.95c3.367 5.279 2.106 9.416 2.106 9.416a14.153 14.153 0 0 1-2.106-9.416z" transform="translate(-2173.207 -2409.17)"/>
                <path id="패스_28292-2" data-name="패스 28292" class="cls-3" d="M2214.715 2461.6c3.767 4.787 3 8.929 3 8.929-3.29-3.723-3-8.929-3-8.929z" transform="translate(-2165.339 -2400.544)"/>
                <path id="패스_28293-2" data-name="패스 28293" class="cls-3" d="M2209.963 2448.341c4.146 4.231 3.9 8.323 3.9 8.323-3.6-3.212-3.9-8.323-3.9-8.323z" transform="translate(-2159.746 -2391.971)"/>
                <path id="패스_28294-2" data-name="패스 28294" class="cls-3" d="M2207.068 2435.473c4.5 3.588 4.809 7.564 4.809 7.564-3.871-2.62-4.809-7.564-4.809-7.564z" transform="translate(-2156.737 -2383.654)"/>
                <path id="패스_28295-2" data-name="패스 28295" class="cls-3" d="M2206.619 2421.129c4.7 3.031 5.442 6.835 5.442 6.835-4.009-2.102-5.442-6.835-5.442-6.835z" transform="translate(-2156.761 -2374.383)"/>
                <path id="패스_28296-2" data-name="패스 28296" class="cls-3" d="M2208.1 2405.406c4.748 2.636 5.771 6.259 5.771 6.259-4.025-1.724-5.771-6.259-5.771-6.259z" transform="translate(-2159.096 -2364.221)"/>
                <path id="패스_28297-2" data-name="패스 28297" class="cls-3" d="M2217.011 2396.413c-4.022-1.317-6.1-5.614-6.1-5.614 4.789 2.207 6.1 5.614 6.1 5.614z" transform="translate(-2163.229 -2354.78)"/>
                <path id="패스_28298-2" data-name="패스 28298" class="cls-3" d="M2215.1 2377.311c4.806 1.746 6.409 4.9 6.409 4.9-3.988-.886-6.409-4.9-6.409-4.9z" transform="translate(-2169.208 -2346.062)"/>
                <path id="패스_28299-2" data-name="패스 28299" class="cls-3" d="M2220.719 2364.938c4.794 1.266 6.674 4.132 6.674 4.132-3.912-.448-6.674-4.132-6.674-4.132z" transform="translate(-2177.08 -2338.065)"/>
                <path id="패스_28300-2" data-name="패스 28300" class="cls-3" d="M2227.827 2353.657a11.714 11.714 0 0 1 6.87 3.324c-3.792-.013-6.87-3.324-6.87-3.324z" transform="translate(-2186.898 -2330.774)"/>
                <path id="패스_28301-2" data-name="패스 28301" class="cls-3" d="M2243.45 2345.887c-3.624.4-6.979-2.51-6.979-2.51a11.769 11.769 0 0 1 6.979 2.51z" transform="translate(-2198.708 -2324.129)"/>
                <path id="패스_28302-2" data-name="패스 28302" class="cls-3" d="M2253.676 2335.732c-3.417.76-6.994-1.727-6.994-1.727a11.86 11.86 0 0 1 6.994 1.727z" transform="translate(-2212.545 -2318.069)"/>
                <path id="패스_28303-2" data-name="패스 28303" class="cls-3" d="M2265.393 2326.5c-3.182 1.066-6.921-1.01-6.921-1.01a11.986 11.986 0 0 1 6.921 1.01z" transform="translate(-2228.432 -2312.504)"/>
                <path id="패스_28304-2" data-name="패스 28304" class="cls-3" d="M2278.615 2318.213c-2.933 1.307-6.775-.382-6.775-.382a12.156 12.156 0 0 1 6.775.382z" transform="translate(-2246.383 -2307.44)"/>
                <path id="패스_28305-2" data-name="패스 28305" class="cls-3" d="M2286.775 2311.066a12.4 12.4 0 0 1 6.58-.141c-2.685 1.482-6.58.141-6.58.141z" transform="translate(-2266.404 -2302.924)"/>
                <path id="패스_28306-2" data-name="패스 28306" class="cls-3" d="M2205.834 2404.331a10.972 10.972 0 0 0-1.694 1.952 8.091 8.091 0 0 0-1.011 2.081 7.377 7.377 0 0 0-.3 1.421c-.031.328-.039.5-.039.5l1.3.049.029-.41a6.129 6.129 0 0 1 .238-1.173 6.819 6.819 0 0 1 .841-1.761 9.881 9.881 0 0 1 1.6-1.842l.968-.814a24.585 24.585 0 0 1 5.8-3.155 40.609 40.609 0 0 1 4.5-1.486c.4-.107.814-.211 1.227-.3s.859-.2 1.3-.3a52.548 52.548 0 0 0 2.659-.735 51.1 51.1 0 0 0 21.681-13.212 50.882 50.882 0 0 0-3.87-74.76 50.712 50.712 0 0 0-15.573-8.823 50.107 50.107 0 0 0-4.828-1.426c-.565-.139-1-.232-1.293-.295l-.445-.1.445.1c.292.065.727.162 1.29.305a50.487 50.487 0 0 1 20.272 10.393 50.671 50.671 0 0 1 14.563 20.4 50.4 50.4 0 0 1 3.192 13.85 50.987 50.987 0 0 1-.879 14.63 50.358 50.358 0 0 1-2.029 7.083 50.985 50.985 0 0 1-3.021 6.653 50.485 50.485 0 0 1-18.941 19.445 49.662 49.662 0 0 1-10.885 4.687c-.88.265-1.753.487-2.607.7l-1.276.285c-.435.095-.857.2-1.273.305a41.775 41.775 0 0 0-4.644 1.494 25.331 25.331 0 0 0-6.334 3.437" transform="translate(-2202.791 -2295.924)"/>
            </g>
        </g>
    </g>
</svg>
