<svg xmlns="http://www.w3.org/2000/svg" width="127" height="25" viewBox="0 0 127 25">
    <defs>
        <clipPath id="clip-path">
            <path id="사각형_3299" data-name="사각형 3299" transform="translate(117 1247)" style="fill:none" d="M0 0h127v25H0z"/>
        </clipPath>
        <style>
            .cls-3{fill:#e5a853}
        </style>
    </defs>
    <g id="마스크_그룹_116" data-name="마스크 그룹 116" transform="translate(-117 -1247)" style="clip-path:url(#clip-path)">
        <g id="imgScore" transform="translate(1604.708 -126.555)">
            <path id="패스_21371" data-name="패스 21371" class="cls-3" d="M-1107.379 1516.808c1.415-2.543 4.335-3.74 5.485-4.127-.752-.115-3.587-.387-5.432 1.571-1.562 1.658-1.334 4.349-2.84 4.551 0 0 5.835.833 7.711-2.671 0 0 .574-.61.743-3.253-2.854.847-5.667 3.929-5.667 3.929z" transform="translate(-327.363 -124.784)"/>
            <path id="패스_21372" data-name="패스 21372" class="cls-3" d="M-1063.619 1450.49c-.026-3.456-4.854-5.174-4.854-5.174 1.077.764-.186 2.743.345 4.651a5.537 5.537 0 0 0 3.545 3.4 8.769 8.769 0 0 1-2.553-5.393s.92 3.51 2.774 5.315c.939-2.099.743-2.799.743-2.799z" transform="translate(-363.66 -66.2)"/>
            <path id="패스_21373" data-name="패스 21373" class="cls-3" d="M-1143.445 1500.547s.54-.586.674-3.1c-2.7.832-5.345 3.788-5.345 3.788a9.579 9.579 0 0 1 5.171-3.975 6.053 6.053 0 0 0-5.144 1.545c-1.469 1.592-1.226 4.145-2.653 4.352-.001.002 5.55.737 7.297-2.61z" transform="translate(-292.038 -111.371)"/>
            <path id="패스_21374" data-name="패스 21374" class="cls-3" d="M-1108.476 1437.735c-.025-3.282-4.611-4.914-4.611-4.914 1.023.725-.177 2.6.328 4.418a5.261 5.261 0 0 0 3.367 3.235 8.336 8.336 0 0 1-2.425-5.125 12.925 12.925 0 0 0 2.634 5.05c.893-1.999.707-2.664.707-2.664z" transform="translate(-324.821 -55.321)"/>
            <path id="패스_21375" data-name="패스 21375" class="cls-3" d="M-1190.282 1494.586c-2.47 1.038-4.684 4.073-4.684 4.073a9.073 9.073 0 0 1 4.5-4.232 5.732 5.732 0 0 0-4.705 1.939c-1.235 1.637-.767 4.023-2.093 4.351 0 0 5.3.172 6.636-3.148.002-.001.455-.602.346-2.983z" transform="translate(-251.541 -108.956)"/>
            <path id="패스_21376" data-name="패스 21376" class="cls-3" d="M-1160.956 1437.464c-.023-3.11-4.368-4.656-4.368-4.656.969.687-.167 2.469.311 4.186a4.983 4.983 0 0 0 3.19 3.064 7.9 7.9 0 0 1-2.3-4.854 12.232 12.232 0 0 0 2.5 4.783c.844-1.893.667-2.523.667-2.523z" transform="translate(-279.346 -55.309)"/>
            <path id="패스_21377" data-name="패스 21377" class="cls-3" d="M-1250.47 1502.6a8.571 8.571 0 0 1 4.265-3.983 5.417 5.417 0 0 0-4.449 1.818c-1.171 1.543-.736 3.8-1.99 4.1 0 0 5.007.178 6.277-2.952 0 0 .43-.568.335-2.817a13.3 13.3 0 0 0-4.438 3.834z" transform="translate(-203.328 -112.6)"/>
            <path id="패스_21378" data-name="패스 21378" class="cls-3" d="M-1217.722 1443.3c-.021-2.936-4.125-4.4-4.125-4.4.915.649-.158 2.331.294 3.953a4.711 4.711 0 0 0 3.013 2.895 7.456 7.456 0 0 1-2.17-4.586 11.551 11.551 0 0 0 2.357 4.518c.799-1.786.631-2.38.631-2.38z" transform="translate(-230.14 -60.614)"/>
            <path id="패스_21379" data-name="패스 21379" class="cls-3" d="M-1308.368 1507.633a8.075 8.075 0 0 1 4.349-3.355 5.1 5.1 0 0 0-4.33 1.31c-1.234 1.341-1.026 3.492-2.228 3.668 0 0 4.676.61 6.143-2.212 0 0 .453-.494.562-2.609a12.506 12.506 0 0 0-4.496 3.198z" transform="translate(-152.894 -117.491)"/>
            <path id="패스_21380" data-name="패스 21380" class="cls-3" d="M-1278.5 1451.708a4.431 4.431 0 0 0 2.836 2.724 7.011 7.011 0 0 1-2.042-4.315 10.873 10.873 0 0 0 2.219 4.252c.751-1.682.594-2.243.594-2.243-.021-2.764-3.883-4.139-3.883-4.139.863.613-.147 2.194.276 3.721z" transform="translate(-180.582 -68.525)"/>
            <path id="패스_21381" data-name="패스 21381" class="cls-3" d="M-1354.734 1508.749a7.565 7.565 0 0 1 3.813-3.459 4.777 4.777 0 0 0-3.948 1.547c-1.053 1.346-.7 3.339-1.809 3.594 0 0 4.416.221 5.576-2.524 0 0 .387-.495.331-2.481a11.73 11.73 0 0 0-3.963 3.323z" transform="translate(-112.779 -118.412)"/>
            <path id="패스_21382" data-name="패스 21382" class="cls-3" d="M-1326.414 1458.246c-.02-2.592-3.641-3.88-3.641-3.88.807.573-.14 2.057.26 3.489a4.158 4.158 0 0 0 2.658 2.554 6.587 6.587 0 0 1-1.914-4.046 10.216 10.216 0 0 0 2.08 3.987c.703-1.578.557-2.104.557-2.104z" transform="translate(-135.96 -74.08)"/>
            <path id="패스_21383" data-name="패스 21383" class="cls-3" d="M-1404.3 1503.022a7.069 7.069 0 0 1 4.25-2.245 4.463 4.463 0 0 0-3.928.483c-1.264.973-1.406 2.858-2.468 2.831 0 0 3.94 1.223 5.626-.991 0 0 .465-.358.874-2.166a10.961 10.961 0 0 0-4.354 2.088z" transform="translate(-69.442 -114.272)"/>
            <path id="패스_21384" data-name="패스 21384" class="cls-3" d="M-1375.669 1459.18a3.879 3.879 0 0 0 2.482 2.383 6.135 6.135 0 0 1-1.787-3.775 9.514 9.514 0 0 0 1.941 3.72c.657-1.471.52-1.962.52-1.962-.018-2.419-3.4-3.622-3.4-3.622.756.536-.128 1.921.244 3.256z" transform="translate(-96.033 -75.437)"/>
            <path id="패스_21385" data-name="패스 21385" class="cls-3" d="M-1446.461 1493.133a6.553 6.553 0 0 1 3.945-2.083 4.139 4.139 0 0 0-3.647.448c-1.173.9-1.3 2.654-2.292 2.628 0 0 3.659 1.136 5.224-.919 0 0 .431-.333.812-2.011a10.163 10.163 0 0 0-4.042 1.937z" transform="translate(-32.87 -105.817)"/>
            <path id="패스_21386" data-name="패스 21386" class="cls-3" d="M-1418.146 1453.5a3.6 3.6 0 0 0 2.3 2.213 5.7 5.7 0 0 1-1.659-3.506 8.85 8.85 0 0 0 1.8 3.455c.611-1.366.483-1.823.483-1.823-.017-2.246-3.155-3.363-3.155-3.363.706.498-.114 1.785.231 3.024z" transform="translate(-59.064 -70.694)"/>
            <path id="패스_21387" data-name="패스 21387" class="cls-3" d="M-1484.365 1476.616a6.052 6.052 0 0 1 3.642-1.923 3.824 3.824 0 0 0-3.367.414c-1.084.834-1.2 2.45-2.116 2.426 0 0 3.378 1.049 4.823-.849 0 0 .4-.308.749-1.856a9.378 9.378 0 0 0-3.731 1.788z" transform="translate(0 -91.591)"/>
            <path id="패스_21388" data-name="패스 21388" class="cls-3" d="M-1460.079 1439.688a3.328 3.328 0 0 0 2.127 2.044 5.263 5.263 0 0 1-1.532-3.237 8.159 8.159 0 0 0 1.664 3.189c.564-1.261.446-1.682.446-1.682-.015-2.073-2.912-3.1-2.912-3.1.645.455-.114 1.642.207 2.786z" transform="translate(-22.568 -58.871)"/>
            <path id="패스_21389" data-name="패스 21389" class="cls-3" d="M-1393.794 1480.317a15.43 15.43 0 0 0-1.318-1.594c-.242-.26-.515-.534-.817-.817.283-.25.589-.5.917-.76.469-.366.991-.726 1.554-1.087a20.568 20.568 0 0 1 1.84-1.019 21.493 21.493 0 0 1 4.466-1.586 25.81 25.81 0 0 1 5.266-.658c1.864-.043 3.773.031 5.727.163s3.929.32 5.91.5c3.962.374 7.935.722 11.674.741a55.48 55.48 0 0 0 5.382-.215 42.218 42.218 0 0 0 4.771-.708 36.369 36.369 0 0 0 3.929-1.086c.568-.209 1.1-.4 1.588-.6s.929-.388 1.322-.578.739-.363 1.045-.511.547-.3.753-.411l.625-.346-.63.339c-.206.108-.456.25-.757.4l-1.05.5c-.394.184-.844.357-1.327.561s-1.022.378-1.593.58a36.222 36.222 0 0 1-3.93 1.036 41.979 41.979 0 0 1-4.763.648c-1.7.136-3.5.183-5.363.149-3.726-.062-7.685-.459-11.639-.88-1.979-.209-3.958-.422-5.915-.577s-3.9-.254-5.765-.232a26.326 26.326 0 0 0-5.394.607 22.109 22.109 0 0 0-4.615 1.576 21 21 0 0 0-1.915 1.031c-.587.366-1.132.732-1.623 1.105-.37.281-.712.56-1.028.833a20.913 20.913 0 0 0-1.026-.833 21.708 21.708 0 0 0-1.624-1.105 21.2 21.2 0 0 0-1.915-1.031 22.143 22.143 0 0 0-4.615-1.576 26.338 26.338 0 0 0-5.395-.607c-1.867-.021-3.813.078-5.764.232s-3.937.369-5.915.577c-3.956.421-7.914.818-11.639.88a55.697 55.697 0 0 1-5.364-.149 42.045 42.045 0 0 1-4.762-.648 36.2 36.2 0 0 1-3.929-1.036c-.571-.2-1.107-.387-1.594-.58s-.932-.377-1.327-.561l-1.049-.5c-.3-.151-.552-.293-.759-.4l-.629-.339.626.346c.2.111.453.257.753.411l1.044.511c.392.189.841.367 1.321.578s1.02.392 1.589.6a36.239 36.239 0 0 0 3.929 1.086 42.2 42.2 0 0 0 4.771.708c1.706.157 3.513.226 5.381.215 3.739-.018 7.714-.367 11.675-.741 1.981-.184 3.961-.373 5.91-.5s3.863-.206 5.727-.163a25.815 25.815 0 0 1 5.266.658 21.486 21.486 0 0 1 4.466 1.586 20.516 20.516 0 0 1 1.841 1.019c.563.36 1.085.72 1.554 1.087.329.255.634.51.917.76-.3.282-.575.557-.817.817a15.334 15.334 0 0 0-1.318 1.594c-.139.2-.242.35-.31.458l-.1.168.671.382.086-.145c.057-.097.152-.24.28-.425a14.7 14.7 0 0 1 1.236-1.53c.239-.263.511-.541.812-.827.3.287.573.565.812.827a14.507 14.507 0 0 1 1.236 1.53c.129.185.222.33.281.425l.086.145.671-.382s-.036-.058-.1-.168-.176-.262-.317-.458z" transform="translate(-28.242 -87.473)"/>
            <path id="패스_21390" data-name="패스 21390" class="cls-3" d="M-971.766 1514.253c-1.845-1.958-4.679-1.686-5.432-1.571 1.15.387 4.071 1.584 5.486 4.127 0 0-2.814-3.083-5.668-3.929.168 2.643.742 3.253.742 3.253 1.876 3.5 7.712 2.671 7.712 2.671-1.505-.204-1.274-2.893-2.84-4.551z" transform="translate(-442.96 -124.784)"/>
            <path id="패스_21391" data-name="패스 21391" class="cls-3" d="M-986.5 1445.316s-4.827 1.717-4.854 5.174c0 0-.2.7.743 2.8 1.855-1.805 2.774-5.315 2.774-5.315a8.772 8.772 0 0 1-2.553 5.393 5.538 5.538 0 0 0 3.544-3.4c.537-1.909-.726-3.888.346-4.652z" transform="translate(-430.786 -66.2)"/>
            <path id="패스_21392" data-name="패스 21392" class="cls-3" d="M-927.766 1498.807a6.053 6.053 0 0 0-5.144-1.545 9.583 9.583 0 0 1 5.17 3.975s-2.643-2.956-5.346-3.788c.135 2.512.676 3.1.676 3.1 1.746 3.347 7.3 2.613 7.3 2.613-1.431-.21-1.19-2.762-2.656-4.355z" transform="translate(-481.52 -111.371)"/>
            <path id="패스_21393" data-name="패스 21393" class="cls-3" d="M-940.242 1432.821s-4.587 1.632-4.611 4.914c0 0-.186.667.706 2.664a12.92 12.92 0 0 0 2.635-5.05 8.329 8.329 0 0 1-2.425 5.125 5.258 5.258 0 0 0 3.367-3.235c.505-1.813-.694-3.693.328-4.418z" transform="translate(-471.264 -55.321)"/>
            <path id="패스_21394" data-name="패스 21394" class="cls-3" d="M-874.114 1496.366a5.731 5.731 0 0 0-4.7-1.939 9.075 9.075 0 0 1 4.5 4.232s-2.214-3.034-4.684-4.073c-.11 2.38.345 2.982.345 2.982 1.334 3.32 6.636 3.148 6.636 3.148-1.33-.328-.862-2.716-2.097-4.35z" transform="translate(-528.59 -108.956)"/>
            <path id="패스_21395" data-name="패스 21395" class="cls-3" d="M-886.367 1432.808s-4.345 1.547-4.369 4.656c0 0-.175.63.669 2.522a12.221 12.221 0 0 0 2.5-4.783 7.892 7.892 0 0 1-2.3 4.854 4.981 4.981 0 0 0 3.189-3.064c.478-1.717-.657-3.493.311-4.185z" transform="translate(-518.378 -55.309)"/>
            <path id="패스_21396" data-name="패스 21396" class="cls-3" d="M-816.124 1500.43a5.417 5.417 0 0 0-4.449-1.818 8.57 8.57 0 0 1 4.264 3.983 13.3 13.3 0 0 0-4.436-3.832c-.1 2.249.335 2.817.335 2.817 1.269 3.13 6.277 2.952 6.277 2.952-1.256-.305-.82-2.559-1.991-4.102z" transform="translate(-579.307 -112.6)"/>
            <path id="패스_21397" data-name="패스 21397" class="cls-3" d="M-828.2 1438.9s-4.1 1.46-4.125 4.4c0 0-.166.6.632 2.383a11.571 11.571 0 0 0 2.358-4.518 7.457 7.457 0 0 1-2.171 4.586 4.711 4.711 0 0 0 3.014-2.895c.452-1.624-.621-3.306.292-3.956z" transform="translate(-569.229 -60.614)"/>
            <path id="패스_21398" data-name="패스 21398" class="cls-3" d="M-758.969 1505.588a5.1 5.1 0 0 0-4.329-1.31 8.075 8.075 0 0 1 4.348 3.355 12.5 12.5 0 0 0-4.5-3.2c.109 2.115.562 2.609.562 2.609 1.467 2.822 6.143 2.212 6.143 2.212-1.198-.174-.99-2.325-2.224-3.666z" transform="translate(-629.201 -117.491)"/>
            <path id="패스_21399" data-name="패스 21399" class="cls-3" d="M-769.63 1447.987s-3.861 1.375-3.882 4.139c0 0-.156.561.594 2.243a10.884 10.884 0 0 0 2.219-4.252 7.01 7.01 0 0 1-2.042 4.315 4.437 4.437 0 0 0 2.836-2.724c.425-1.527-.585-3.108.275-3.721z" transform="translate(-620.429 -68.525)"/>
            <path id="패스_21400" data-name="패스 21400" class="cls-3" d="M-707.107 1506.837a4.777 4.777 0 0 0-3.948-1.547 7.565 7.565 0 0 1 3.813 3.459 11.732 11.732 0 0 0-3.962-3.324c-.057 1.986.33 2.481.33 2.481 1.16 2.745 5.575 2.524 5.575 2.524-1.109-.254-.754-2.247-1.808-3.593z" transform="translate(-674.659 -118.412)"/>
            <path id="패스_21401" data-name="패스 21401" class="cls-3" d="M-716.711 1454.366s-3.621 1.288-3.639 3.88c0 0-.146.526.557 2.1a10.21 10.21 0 0 0 2.081-3.987 6.578 6.578 0 0 1-1.915 4.046 4.158 4.158 0 0 0 2.659-2.554c.397-1.428-.55-2.912.257-3.485z" transform="translate(-666.689 -74.08)"/>
            <path id="패스_21402" data-name="패스 21402" class="cls-3" d="M-661.951 1501.26a4.463 4.463 0 0 0-3.928-.483 7.063 7.063 0 0 1 4.249 2.245 10.953 10.953 0 0 0-4.352-2.087c.408 1.808.874 2.166.874 2.166 1.685 2.214 5.625.991 5.625.991-1.061.026-1.203-1.858-2.468-2.832z" transform="translate(-714.038 -114.272)"/>
            <path id="패스_21403" data-name="패스 21403" class="cls-3" d="M-670.153 1457.788a6.138 6.138 0 0 1-1.787 3.775 3.874 3.874 0 0 0 2.481-2.383c.372-1.336-.512-2.72.242-3.256 0 0-3.379 1.2-3.4 3.622 0 0-.137.49.521 1.962a9.517 9.517 0 0 0 1.943-3.72z" transform="translate(-708.252 -75.437)"/>
            <path id="패스_21404" data-name="패스 21404" class="cls-3" d="M-616.644 1491.5a4.141 4.141 0 0 0-3.648-.448 6.552 6.552 0 0 1 3.946 2.083 10.166 10.166 0 0 0-4.042-1.937c.38 1.678.811 2.011.811 2.011 1.565 2.055 5.224.919 5.224.919-.987.023-1.117-1.728-2.291-2.628z" transform="translate(-753.737 -105.817)"/>
            <path id="패스_21405" data-name="패스 21405" class="cls-3" d="M-625.989 1452.208a5.7 5.7 0 0 1-1.66 3.506 3.6 3.6 0 0 0 2.3-2.213c.345-1.24-.475-2.526.224-3.023 0 0-3.138 1.116-3.155 3.363 0 0-.127.456.483 1.823a8.841 8.841 0 0 0 1.808-3.456z" transform="translate(-746.86 -70.694)"/>
            <path id="패스_21406" data-name="패스 21406" class="cls-3" d="M-575.589 1475.106a3.827 3.827 0 0 0-3.368-.414 6.056 6.056 0 0 1 3.642 1.923 9.387 9.387 0 0 0-3.73-1.788c.35 1.549.749 1.856.749 1.856 1.444 1.9 4.822.849 4.822.849-.911.024-1.032-1.592-2.115-2.426z" transform="translate(-789.734 -91.591)"/>
            <path id="패스_21407" data-name="패스 21407" class="cls-3" d="M-582.361 1438.5a5.268 5.268 0 0 1-1.531 3.237 3.326 3.326 0 0 0 2.126-2.044c.319-1.144-.437-2.331.208-2.789 0 0-2.9 1.03-2.912 3.1 0 0-.118.421.445 1.682a8.151 8.151 0 0 0 1.664-3.186z" transform="translate(-785.001 -58.871)"/>
        </g>
    </g>
</svg>
