<svg xmlns="http://www.w3.org/2000/svg" width="63.054" height="114.406" viewBox="0 0 63.054 114.406">
    <defs>
        <style>
            .cls-1{fill:#e4c78a}
        </style>
    </defs>
    <g id="그룹_24735" data-name="그룹 24735" transform="translate(-238.986 -4337)">
        <g id="그룹_24549" data-name="그룹 24549" transform="translate(238.986 4337)">
            <path id="패스_29338" data-name="패스 29338" class="cls-1" d="M2302.144 2589.084c-6.121 1.466-13.1-3.315-13.1-3.315 8.917-1.16 13.1 3.315 13.1 3.315z" transform="translate(-2275.997 -2480.671)"/>
            <path id="패스_29339" data-name="패스 29339" class="cls-1" d="M2283.828 2582.769c-5.908 1.956-13.091-2-13.091-2 8.516-1.983 13.091 2 13.091 2z" transform="translate(-2251.205 -2477.205)"/>
            <path id="패스_29340" data-name="패스 29340" class="cls-1" d="M2267.11 2574.749c-5.64 2.46-12.963-.632-12.963-.632 8.028-2.79 12.963.632 12.963.632z" transform="translate(-2228.62 -2472.557)"/>
            <path id="패스_29341" data-name="패스 29341" class="cls-1" d="M2239.327 2565.734c7.443-3.565 12.69-.767 12.69-.767-5.317 2.963-12.69.767-12.69.767z" transform="translate(-2208.284 -2466.676)"/>
            <path id="패스_29342" data-name="패스 29342" class="cls-1" d="M2226.306 2555.568c6.769-4.279 12.26-2.156 12.26-2.156-4.931 3.448-12.26 2.156-12.26 2.156z" transform="translate(-2190.229 -2459.542)"/>
            <path id="패스_29343" data-name="패스 29343" class="cls-1" d="M2215.1 2543.591c6.019-4.9 11.672-3.49 11.672-3.49-4.495 3.899-11.672 3.49-11.672 3.49z" transform="translate(-2174.472 -2451.156)"/>
            <path id="패스_29344" data-name="패스 29344" class="cls-1" d="M2216.646 2525.273c-4.021 4.3-10.943 4.721-10.943 4.721 5.217-5.412 10.943-4.721 10.943-4.721z" transform="translate(-2161.023 -2441.676)"/>
            <path id="패스_29345" data-name="패스 29345" class="cls-1" d="M2208.19 2509.463c-3.523 4.639-10.1 5.811-10.1 5.811 4.392-5.796 10.1-5.811 10.1-5.811z" transform="translate(-2149.874 -2431.476)"/>
            <path id="패스_29346" data-name="패스 29346" class="cls-1" d="M2201.4 2492.7c-3.021 4.909-9.185 6.734-9.185 6.734a13.553 13.553 0 0 1 9.185-6.734z" transform="translate(-2141.011 -2420.642)"/>
            <path id="패스_29347" data-name="패스 29347" class="cls-1" d="M2188.051 2482.591a13.338 13.338 0 0 1 8.233-7.482c-2.531 5.112-8.233 7.482-8.233 7.482z" transform="translate(-2134.417 -2409.272)"/>
            <path id="패스_29348" data-name="패스 29348" class="cls-1" d="M2185.551 2464.8a13.125 13.125 0 0 1 7.282-8.057c-2.064 5.251-7.282 8.057-7.282 8.057z" transform="translate(-2130.083 -2397.399)"/>
            <path id="패스_29349" data-name="패스 29349" class="cls-1" d="M2184.692 2446.1a12.918 12.918 0 0 1 6.361-8.475 17.412 17.412 0 0 1-6.361 8.475z" transform="translate(-2127.999 -2385.046)"/>
            <path id="패스_29350" data-name="패스 29350" class="cls-1" d="M2186.037 2427.8a12.717 12.717 0 0 1 5.219-8.919 17.229 17.229 0 0 1-5.219 8.919z" transform="translate(-2128.677 -2372.932)"/>
            <path id="패스_29351" data-name="패스 29351" class="cls-1" d="M2193.782 2400.955a17.043 17.043 0 0 1-3.986 9.248 12.521 12.521 0 0 1 3.986-9.248z" transform="translate(-2132.532 -2361.344)"/>
            <path id="패스_29352" data-name="패스 29352" class="cls-1" d="M2198.395 2383.658a16.862 16.862 0 0 1-2.809 9.4 12.327 12.327 0 0 1 2.809-9.4z" transform="translate(-2139.156 -2350.164)"/>
            <path id="패스_29353" data-name="패스 29353" class="cls-1" d="M2204.815 2367.155a16.672 16.672 0 0 1-1.7 9.393 12.144 12.144 0 0 1 1.7-9.393z" transform="translate(-2148.259 -2339.498)"/>
            <path id="패스_29354" data-name="패스 29354" class="cls-1" d="M2212.833 2351.615a16.478 16.478 0 0 1-.659 9.259 11.964 11.964 0 0 1 .659-9.259z" transform="translate(-2159.625 -2329.454)"/>
            <path id="패스_29355" data-name="패스 29355" class="cls-1" d="M2222.309 2337.212a16.281 16.281 0 0 1 .318 9.016c-2.242-4.27-.318-9.016-.318-9.016z" transform="translate(-2173.081 -2320.145)"/>
            <path id="패스_29356" data-name="패스 29356" class="cls-1" d="M2233.109 2324.133a16.077 16.077 0 0 1 1.235 8.672c-2.569-3.787-1.235-8.672-1.235-8.672z" transform="translate(-2188.441 -2311.691)"/>
            <path id="패스_29357" data-name="패스 29357" class="cls-1" d="M2245.13 2312.568a15.854 15.854 0 0 1 2.1 8.237c-2.83-3.285-2.1-8.237-2.1-8.237z" transform="translate(-2205.534 -2304.216)"/>
            <path id="패스_29358" data-name="패스 29358" class="cls-1" d="M2258.336 2302.717a15.621 15.621 0 0 1 2.9 7.71c-3.008-2.764-2.9-7.71-2.9-7.71z" transform="translate(-2224.23 -2297.85)"/>
            <path id="패스_29359" data-name="패스 29359" class="cls-1" d="M2272.771 2294.78c3.273 3.968 3.65 7.095 3.65 7.095-3.126-2.234-3.65-7.095-3.65-7.095z" transform="translate(-2244.517 -2292.719)"/>
            <path id="패스_29360" data-name="패스 29360" class="cls-1" d="M2288.375 2288.954c3.657 3.571 4.328 6.392 4.328 6.392-3.169-1.701-4.328-6.392-4.328-6.392z" transform="translate(-2266.318 -2288.954)"/>
            <path id="패스_29361" data-name="패스 29361" class="cls-1" d="M2307.528 2562.032a17.572 17.572 0 0 1 7.336-8.88c-2.364 7.29-7.336 8.88-7.336 8.88z" transform="translate(-2295.252 -2459.714)"/>
            <path id="패스_29362" data-name="패스 29362" class="cls-1" d="M2294.269 2557.884a17.127 17.127 0 0 1 5.84-9.653c-1.264 7.377-5.84 9.653-5.84 9.653z" transform="translate(-2275.809 -2456.533)"/>
            <path id="패스_29363" data-name="패스 29363" class="cls-1" d="M2281.725 2551.657a16.683 16.683 0 0 1 4.4-10.131c-.279 7.301-4.4 10.131-4.4 10.131z" transform="translate(-2257.391 -2452.199)"/>
            <path id="패스_29364" data-name="패스 29364" class="cls-1" d="M2269.832 2543.594a16.245 16.245 0 0 1 3.071-10.366c.57 7.107-3.071 10.366-3.071 10.366z" transform="translate(-2240.005 -2446.836)"/>
            <path id="패스_29365" data-name="패스 29365" class="cls-1" d="M2258.53 2533.937a15.812 15.812 0 0 1 1.858-10.412c1.299 6.831-1.858 10.412-1.858 10.412z" transform="translate(-2223.671 -2440.565)"/>
            <path id="패스_29366" data-name="패스 29366" class="cls-1" d="M2248 2522.932a15.388 15.388 0 0 1 .756-10.316c1.92 6.501-.756 10.316-.756 10.316z" transform="translate(-2208.574 -2433.515)"/>
            <path id="패스_29367" data-name="패스 29367" class="cls-1" d="M2238.226 2500.722c2.461 6.13.255 10.108.255 10.108a14.97 14.97 0 0 1-.255-10.108z" transform="translate(-2194.995 -2425.826)"/>
            <path id="패스_29368" data-name="패스 29368" class="cls-1" d="M2228.962 2488.081c2.937 5.723 1.2 9.806 1.2 9.806a14.555 14.555 0 0 1-1.2-9.806z" transform="translate(-2183.146 -2417.657)"/>
            <path id="패스_29369" data-name="패스 29369" class="cls-1" d="M2221.09 2474.95c3.367 5.279 2.106 9.416 2.106 9.416a14.153 14.153 0 0 1-2.106-9.416z" transform="translate(-2173.207 -2409.17)"/>
            <path id="패스_29370" data-name="패스 29370" class="cls-1" d="M2214.715 2461.6c3.767 4.787 3 8.929 3 8.929-3.29-3.723-3-8.929-3-8.929z" transform="translate(-2165.339 -2400.544)"/>
            <path id="패스_29371" data-name="패스 29371" class="cls-1" d="M2209.963 2448.341c4.146 4.231 3.9 8.323 3.9 8.323-3.6-3.212-3.9-8.323-3.9-8.323z" transform="translate(-2159.746 -2391.971)"/>
            <path id="패스_29372" data-name="패스 29372" class="cls-1" d="M2207.068 2435.473c4.5 3.588 4.809 7.564 4.809 7.564-3.871-2.62-4.809-7.564-4.809-7.564z" transform="translate(-2156.737 -2383.654)"/>
            <path id="패스_29373" data-name="패스 29373" class="cls-1" d="M2206.619 2421.129c4.7 3.031 5.442 6.835 5.442 6.835-4.009-2.102-5.442-6.835-5.442-6.835z" transform="translate(-2156.761 -2374.383)"/>
            <path id="패스_29374" data-name="패스 29374" class="cls-1" d="M2208.1 2405.406c4.748 2.636 5.771 6.259 5.771 6.259-4.025-1.724-5.771-6.259-5.771-6.259z" transform="translate(-2159.096 -2364.221)"/>
            <path id="패스_29375" data-name="패스 29375" class="cls-1" d="M2217.011 2396.413c-4.022-1.317-6.1-5.614-6.1-5.614 4.789 2.207 6.1 5.614 6.1 5.614z" transform="translate(-2163.229 -2354.78)"/>
            <path id="패스_29376" data-name="패스 29376" class="cls-1" d="M2215.1 2377.311c4.806 1.746 6.409 4.9 6.409 4.9-3.988-.886-6.409-4.9-6.409-4.9z" transform="translate(-2169.208 -2346.062)"/>
            <path id="패스_29377" data-name="패스 29377" class="cls-1" d="M2220.719 2364.938c4.794 1.266 6.674 4.132 6.674 4.132-3.912-.448-6.674-4.132-6.674-4.132z" transform="translate(-2177.08 -2338.065)"/>
            <path id="패스_29378" data-name="패스 29378" class="cls-1" d="M2227.827 2353.657a11.714 11.714 0 0 1 6.87 3.324c-3.792-.013-6.87-3.324-6.87-3.324z" transform="translate(-2186.898 -2330.774)"/>
            <path id="패스_29379" data-name="패스 29379" class="cls-1" d="M2243.45 2345.887c-3.624.4-6.979-2.51-6.979-2.51a11.769 11.769 0 0 1 6.979 2.51z" transform="translate(-2198.708 -2324.129)"/>
            <path id="패스_29380" data-name="패스 29380" class="cls-1" d="M2253.676 2335.732c-3.417.76-6.994-1.727-6.994-1.727a11.86 11.86 0 0 1 6.994 1.727z" transform="translate(-2212.545 -2318.069)"/>
            <path id="패스_29381" data-name="패스 29381" class="cls-1" d="M2265.393 2326.5c-3.182 1.066-6.921-1.01-6.921-1.01a11.986 11.986 0 0 1 6.921 1.01z" transform="translate(-2228.432 -2312.504)"/>
            <path id="패스_29382" data-name="패스 29382" class="cls-1" d="M2278.615 2318.213c-2.933 1.307-6.775-.382-6.775-.382a12.156 12.156 0 0 1 6.775.382z" transform="translate(-2246.383 -2307.44)"/>
            <path id="패스_29383" data-name="패스 29383" class="cls-1" d="M2286.775 2311.066a12.4 12.4 0 0 1 6.58-.141c-2.685 1.482-6.58.141-6.58.141z" transform="translate(-2266.404 -2302.924)"/>
            <path id="패스_29384" data-name="패스 29384" class="cls-1" d="M2205.834 2404.331a10.972 10.972 0 0 0-1.694 1.952 8.091 8.091 0 0 0-1.011 2.081 7.377 7.377 0 0 0-.3 1.421c-.031.328-.039.5-.039.5l1.3.049.029-.41a6.129 6.129 0 0 1 .238-1.173 6.819 6.819 0 0 1 .841-1.761 9.881 9.881 0 0 1 1.6-1.842l.968-.814a24.585 24.585 0 0 1 5.8-3.155 40.609 40.609 0 0 1 4.5-1.486c.4-.107.814-.211 1.227-.3s.859-.2 1.3-.3a52.548 52.548 0 0 0 2.659-.735 51.1 51.1 0 0 0 21.681-13.212 50.882 50.882 0 0 0-3.87-74.76 50.712 50.712 0 0 0-15.573-8.823 50.107 50.107 0 0 0-4.828-1.426c-.565-.139-1-.232-1.293-.295l-.445-.1.445.1c.292.065.727.162 1.29.305a50.487 50.487 0 0 1 20.272 10.393 50.671 50.671 0 0 1 14.563 20.4 50.4 50.4 0 0 1 3.192 13.85 50.987 50.987 0 0 1-.879 14.63 50.358 50.358 0 0 1-2.029 7.083 50.985 50.985 0 0 1-3.021 6.653 50.485 50.485 0 0 1-18.941 19.445 49.662 49.662 0 0 1-10.885 4.687c-.88.265-1.753.487-2.607.7l-1.276.285c-.435.095-.857.2-1.273.305a41.775 41.775 0 0 0-4.644 1.494 25.331 25.331 0 0 0-6.334 3.437" transform="translate(-2202.791 -2295.924)"/>
        </g>
    </g>
</svg>
