<svg xmlns="http://www.w3.org/2000/svg" width="138" height="21" viewBox="0 0 138 21">
    <defs>
        <linearGradient id="c" x1=".5" x2=".5" y2="1" gradientUnits="objectBoundingBox">
            <stop offset="0" stop-color="#f8f8f6"/>
            <stop offset="1" stop-color="#c0c2c0"/>
        </linearGradient>
        <clipPath id="a">
            <path data-name="사각형 3069" transform="translate(111 100)" style="fill:none" d="M0 0h138v21H0z"/>
        </clipPath>
        <filter id="b" x="-8.093" y="-4.849" width="154.187" height="37.699" filterUnits="userSpaceOnUse">
            <feOffset dy="3"/>
            <feGaussianBlur stdDeviation="3" result="blur"/>
            <feFlood flood-opacity=".161"/>
            <feComposite operator="in" in2="blur"/>
            <feComposite in="SourceGraphic"/>
        </filter>
    </defs>
    <g style="clip-path:url(#a)">
        <g style="filter:url(#b)" data-name="마스크 그룹 73" transform="translate(-111 -100)">
            <path data-name="패스 21404" d="M-67.507 1.069h9.807V-1.32h-5.777l1.558-1.6c1.558-1.621 4.177-4.3 4.177-7.044 0-2.784-1.725-4.364-5.216-4.364a9 9 0 0 0-4.364 1.081l.397 2.247a7.243 7.243 0 0 1 3.055-.914c1.87 0 2.888.6 2.888 2.39s-1.808 3.782-3.886 5.984l-2.639 2.802zm16.852-2.078c-1.932 0-2.805-1.642-2.805-5.07v-.956c0-3.449.914-4.945 2.826-4.945 1.87 0 2.826 1.579 2.826 5.091v.956c0 3.533-.935 4.925-2.847 4.925zm-.021 2.348c3.262 0 6.109-1.995 6.109-7.439v-.79c0-5.382-2.805-7.439-6.047-7.439-3.2 0-6.13 2.016-6.13 7.522v.79c.001 5.237 2.682 7.357 6.069 7.357zm7.356-.27h9.808V-1.32h-5.777l1.558-1.6c1.558-1.621 4.177-4.3 4.177-7.044 0-2.784-1.725-4.364-5.216-4.364a9 9 0 0 0-4.364 1.081l.396 2.247a7.243 7.243 0 0 1 3.055-.914c1.87 0 2.888.6 2.888 2.39s-1.805 3.778-3.886 5.98L-43.32-.738zm13.049.1h3.158v-15.31h-1.621l-4.01 1.766v1.829L-30.27-11zm11.013-14.9v2.306h4.613a12.979 12.979 0 0 1-.312 2.244l-5.382.291.332 2.41 4.3-.519a10.6 10.6 0 0 1-4.945 4.821l1.725 2.2a13.418 13.418 0 0 0 5.987-6.516h2.618v9.35h2.7v-18.472h-2.7V-8.8h-1.891a20.26 20.26 0 0 0 .457-4.925zm15.689 17.46v-19.7h-2.743v19.7zM5.408-7.6c0 2.971-1.039 4.509-2.348 4.509C1.792-3.086.774-4.624.774-7.6c0-2.992 1.018-4.53 2.286-4.53 1.309.005 2.348 1.542 2.348 4.53zm-7.439 0c0 4.073 1.953 7.065 5.091 7.065C5.927-.531 7.776-3 8.088-6.473h3.034v10.2h2.971v-19.7h-2.971v7H8.067C7.693-12.375 5.865-14.7 3.06-14.7c-3.138 0-5.091 2.99-5.091 7.1zm26.576 3.662a23.46 23.46 0 0 1-4.717.5h-.374v-10.7h-2.909v13.13h1.579a35.3 35.3 0 0 0 6.712-.6zm1.33-3.616v10.39H28.6v-18.473h-2.725V-9.9h-3.7v2.348zm6.712 11.283v-19.7H29.8v19.7zM42-7.6c0 2.971-1.039 4.509-2.452 4.509-1.33 0-2.369-1.538-2.369-4.509 0-2.992 1.039-4.53 2.369-4.53C40.961-12.125 42-10.588 42-7.6zm-7.605 0c0 4.073 1.932 7.065 5.153 7.065 3.283 0 5.195-3.013 5.195-7.065 0-4.135-1.912-7.106-5.195-7.106-3.221.006-5.153 2.996-5.153 7.106zM50.228 3.729v-19.7h-2.909v19.7zm13.444-9.953A5.986 5.986 0 0 1 59.433-12v-2.64H56.42v2.784c0 2.722-1.725 5.008-4.655 6.109l1.5 2.39a8.093 8.093 0 0 0 4.613-4.281 8.19 8.19 0 0 0 4.239 3.844zM68.68 3.23V.945H57.937v-3.8h-2.909V3.23zm-3.324-14.005v1.517h-2.889v2.327h2.888v5.257h2.971v-14.3h-2.97v2.826h-2.889v2.369z" transform="translate(179.41 117.12)" style="fill:url(#c)"/>
        </g>
    </g>
</svg>
