<svg xmlns="http://www.w3.org/2000/svg" width="25" height="25" viewBox="0 0 25 25">
    <g data-name="그룹 23977" transform="translate(-61 -822)">
        <circle data-name="타원 839" cx="12.5" cy="12.5" r="12.5" transform="translate(61 822)" style="fill:#d2ad5f"/>
        <path data-name="패스 27328" d="M4.218-4.751a6 6 0 0 1-.451 2.423A4.16 4.16 0 0 1 2.516-.677L4.17.622 2.864 1.777.745.075a4.486 4.486 0 0 1-.752.062 4.141 4.141 0 0 1-2.208-.595 3.951 3.951 0 0 1-1.5-1.7 5.837 5.837 0 0 1-.54-2.54v-.492a5.977 5.977 0 0 1 .53-2.587 3.945 3.945 0 0 1 1.5-1.716 4.118 4.118 0 0 1 2.211-.6 4.118 4.118 0 0 1 2.211.6 3.945 3.945 0 0 1 1.5 1.716A5.96 5.96 0 0 1 4.218-5.2zM2.14-5.2a4.188 4.188 0 0 0-.561-2.379 1.827 1.827 0 0 0-1.6-.813 1.827 1.827 0 0 0-1.593.8 4.141 4.141 0 0 0-.567 2.355v.485a4.241 4.241 0 0 0 .561 2.366 1.822 1.822 0 0 0 1.613.841 1.806 1.806 0 0 0 1.586-.81 4.216 4.216 0 0 0 .561-2.362z" transform="translate(73.521 838.656)" style="fill:#fff"/>
    </g>
</svg>
