<svg xmlns="http://www.w3.org/2000/svg" width="32" height="32" viewBox="0 0 32 32">
    <defs>
        <clipPath id="clip-path">
            <path id="사각형_3244" data-name="사각형 3244" transform="translate(150.325 693.325)" style="fill:none" d="M0 0h32v32H0z"/>
        </clipPath>
        <style>
            .cls-3{fill:#f2b426}
        </style>
    </defs>
    <g id="마스크_그룹_105" data-name="마스크 그룹 105" transform="translate(-150.325 -693.325)" style="clip-path:url(#clip-path)">
        <g id="그룹_24307" data-name="그룹 24307" transform="translate(152.726 696.13)">
            <g id="그룹_24306" data-name="그룹 24306">
                <path id="패스_28164" data-name="패스 28164" class="cls-3" d="m147.8 407.477.644 2.69h17.11l.643-2.69z" transform="translate(-143.238 -386.455)"/>
                <path id="패스_28165" data-name="패스 28165" class="cls-3" d="M162.97 368.642a4.26 4.26 0 0 0-1.8-3.8c-1.406-.922-3.3-.859-5.288.148a3.539 3.539 0 0 0-.82-.78 4.453 4.453 0 0 0-4.018-.309c0-.043.012-.084.012-.128a2.131 2.131 0 0 0-.677-1.572 1.165 1.165 0 0 0 .194-.637 1.528 1.528 0 0 0-.011-.153 2.212 2.212 0 0 1 2.639 1.405c1.416-1.649-.611-4-3.244-2.443.741-1.922 1.622-3.045-.746-5.216-2.368 2.171-1.488 3.293-.747 5.216-2.633-1.555-4.66.794-3.244 2.443a2.212 2.212 0 0 1 2.639-1.405 1.432 1.432 0 0 0-.011.153 1.162 1.162 0 0 0 .163.587 2.127 2.127 0 0 0-.733 1.622c0 .038.008.073.01.111a4.43 4.43 0 0 0-3.957.326 3.524 3.524 0 0 0-.819.78c-1.989-1.007-3.883-1.071-5.289-.148a4.261 4.261 0 0 0-1.8 3.8c.059 2.282 1.437 4.68 3.812 6.8h3.206c-3.719-2.446-5.131-5.1-5.176-6.855a2.222 2.222 0 0 1 .908-2.016c.85-.558 2.138-.463 3.533.234a6.3 6.3 0 0 0-.139 1.513 11.214 11.214 0 0 0 3.292 7.125h2.965a9.923 9.923 0 0 1-4.414-7.188 2.7 2.7 0 0 1 .89-2.328c.843-.568 2.271-.364 3.962.534v8.981h1.838v-8.965c1.7-.912 3.145-1.122 3.991-.55a2.7 2.7 0 0 1 .89 2.328 9.922 9.922 0 0 1-4.414 7.188h2.965a11.214 11.214 0 0 0 3.292-7.125 6.3 6.3 0 0 0-.139-1.512c1.4-.7 2.683-.793 3.533-.234a2.222 2.222 0 0 1 .908 2.016c-.045 1.76-1.457 4.409-5.176 6.855h3.206c2.378-2.121 3.755-4.519 3.814-6.801z" transform="translate(-135.418 -355.156)"/>
                <path id="패스_28166" data-name="패스 28166" class="cls-3" d="M164.15 416.776h-18.231a.358.358 0 0 0-.344.369v1.279a.355.355 0 0 0 .344.369h19.351a.355.355 0 0 0 .344-.369v-1.279a.358.358 0 0 0-.344-.369h-1.12z" transform="translate(-141.831 -392.327)"/>
            </g>
        </g>
    </g>
</svg>
