<svg xmlns="http://www.w3.org/2000/svg" width="360" height="101" viewBox="0 0 360 101">
    <defs>
        <clipPath id="clip-path">
            <path id="사각형_1734" fill="#eef9ff" d="M0 0H360V101H0z" transform="translate(1240 90)"/>
        </clipPath>
        <style>
            .cls-3{fill:#d8e7ef}.cls-4{fill:#cde3ef}
        </style>
    </defs>
    <g id="마스크_그룹_28" clip-path="url(#clip-path)" transform="translate(-1240 -90)">
        <g id="그룹_5384" transform="translate(1061.095 -210.303)">
            <path id="패스_15035" d="M554.09 366.866h-15.884l-12.851-12.851h-8.547v-1.872h9.322l12.851 12.851h15.11z" class="cls-3" transform="translate(-14.728 -2.09)"/>
            <path id="패스_15036" d="M551.515 393.811H532.2l-6.986-6.986 1.323-1.323 6.438 6.438h18.545z" class="cls-3" transform="translate(-12.151 -18.155)"/>
            <path id="패스_15037" d="M535.372 424.171h-29.046V422.3H534.6l7.162-7.162 1.323 1.323z" class="cls-3" transform="translate(-3.057 -32.427)"/>
            <path id="패스_15038" d="M517.033 350.988a3.186 3.186 0 1 1-3.186-3.186 3.186 3.186 0 0 1 3.186 3.186z" class="cls-4" transform="translate(-11.768)"/>
            <circle id="타원_426" cx="3.186" cy="3.186" r="3.186" class="cls-4" transform="translate(510.533 364.822)"/>
            <path id="패스_15039" d="M506.552 427.8a3.186 3.186 0 1 1-3.186-3.186 3.186 3.186 0 0 1 3.186 3.186z" class="cls-4" transform="translate(-0.098 -36.99)"/>
        </g>
        <g id="그룹_5385" transform="translate(925.547 -365.752)">
            <path id="패스_15040" d="M675.87 487.592h-2.235v-10.21l-15.351-15.351v-18.976h2.235V461.1l15.351 15.351z" class="cls-3" transform="translate(-21.458)"/>
            <path id="패스_15041" d="M645.641 487.251l-8.345-8.345v-23.079h2.235v22.153l7.691 7.69z" class="cls-3" transform="translate(-13.467 -4.863)"/>
            <path id="패스_15042" d="M608.5 498.459h-2.236v-34.7l9.211-9.211 1.581 1.581-8.556 8.556z" class="cls-3" transform="translate(-1.652 -4.377)"/>
            <path id="패스_15043" d="M682.538 508.826a3.806 3.806 0 1 0 3.806 3.806 3.806 3.806 0 0 0-3.806-3.806z" class="cls-4" transform="translate(-29.243 -25.04)"/>
            <circle id="타원_427" cx="3.806" cy="3.806" r="3.806" class="cls-4" transform="translate(629.158 477.792)"/>
            <path id="패스_15044" d="M605.727 519.308a3.806 3.806 0 1 0 3.806 3.805 3.805 3.805 0 0 0-3.806-3.805z" class="cls-4" transform="translate(0 -29.031)"/>
        </g>
    </g>
</svg>
