<svg xmlns="http://www.w3.org/2000/svg" width="174" height="123" viewBox="0 0 174 123">
    <defs>
        <clipPath id="clip-path">
            <path id="사각형_1148" fill="none" d="M0 0H132V122H0z"/>
        </clipPath>
        <style>
            .cls-4{fill:#bc8877}.cls-6{fill:#fff}.cls-7{fill:#e2e2e2}.cls-8{fill:#848484}.cls-9{fill:#d8a79a}.cls-10{fill:#fd0}.cls-11{fill:#bababa}.cls-12{fill:#f4f4f4}
        </style>
    </defs>
    <g id="그룹_2620" transform="translate(-93 -120)">
        <g id="그룹_2619">
            <g id="그룹_2613" transform="translate(-2373.592 -1179.875)">
                <g id="그룹_2612" clip-path="url(#clip-path)" transform="translate(2487.591 1299.875)">
                    <g id="그룹_2556" transform="translate(0 9.455)">
                        <rect id="사각형_1139" width="131.206" height="192.161" fill="#ededed" rx="10" transform="translate(.397 .397)"/>
                        <path id="패스_4044" d="M2611.581 1374.1H2495.6a8.022 8.022 0 0 0-8.01 8.016v176.923a8.022 8.022 0 0 0 8.01 8.016h115.979a8.022 8.022 0 0 0 8.01-8.016v-176.923a8.022 8.022 0 0 0-8.008-8.016zm7.217 184.939a7.227 7.227 0 0 1-7.217 7.222H2495.6a7.227 7.227 0 0 1-7.217-7.222v-176.923a7.227 7.227 0 0 1 7.217-7.222h115.979a7.227 7.227 0 0 1 7.217 7.222z" class="cls-4" transform="translate(-2487.591 -1374.1)"/>
                    </g>
                    <path id="사각형_1140" fill="#be9186" d="M0 0H110.415V172.515H0z" transform="translate(10.792 22.919)"/>
                    <g id="그룹_2557" transform="translate(10.395 18.413)">
                        <path id="사각형_1141" d="M0 0H110.415V172.515H0z" class="cls-6" transform="translate(.397 .397)"/>
                        <path id="패스_4045" d="M2680.066 1444.419H2569.65a.4.4 0 0 0-.4.4v172.515a.4.4 0 0 0 .4.4h110.416a.4.4 0 0 0 .4-.4v-172.518a.4.4 0 0 0-.4-.397zm-.4 172.515h-109.619v-171.72h109.621z" class="cls-4" transform="translate(-2569.253 -1444.419)"/>
                    </g>
                    <g id="그룹_2569" transform="translate(19.48 33.548)">
                        <g id="그룹_2558">
                            <path id="사각형_1142" d="M0 0H45.281V49.613H0z" class="cls-6" transform="translate(.794 .794)"/>
                            <path id="패스_4046" d="M2686.693 1563.228h-45.281a.794.794 0 0 0-.794.794v49.613a.794.794 0 0 0 .794.794h45.281a.794.794 0 0 0 .794-.794v-49.613a.794.794 0 0 0-.794-.794zm0 50.407h-45.281v-49.613h45.281z" class="cls-4" transform="translate(-2640.618 -1563.228)"/>
                        </g>
                        <g id="그룹_2559" transform="translate(2.389 41.391)">
                            <path id="패스_4047" d="M2696.3 1894.389h-20.85c-3.989 0-8.158 3.474-9.826 8.222h40.025c-.576-5.011-5.432-8.222-9.349-8.222z" class="cls-7" transform="translate(-2664.829 -1893.595)"/>
                            <path id="패스_4048" d="M2697.283 1890.561a11.391 11.391 0 0 0-3.115-1.777 9.594 9.594 0 0 0-3.31-.631h-20.85a10.014 10.014 0 0 0-6.292 2.515 14.474 14.474 0 0 0-4.283 6.238.794.794 0 0 0 .749 1.058h40.024a.794.794 0 0 0 .789-.885 9.828 9.828 0 0 0-3.712-6.518zm-37.1 6.608c1.668-4.748 5.837-8.222 9.826-8.222h20.85c3.917 0 8.774 3.213 9.348 8.222z" class="cls-4" transform="translate(-2659.387 -1888.153)"/>
                        </g>
                        <g id="그룹_2560" transform="translate(16.258 35.199)">
                            <path id="패스_4049" d="M2774.567 1855.932c0 .8 2.858 1.456 6.383 1.456s6.383-.652 6.383-1.456v-10.155h-12.766z" class="cls-6" transform="translate(-2773.773 -1844.983)"/>
                            <path id="패스_4050" d="M2781.891 1839.542h-12.766a.794.794 0 0 0-.794.794v10.155a1.447 1.447 0 0 0 .919 1.266 6.355 6.355 0 0 0 1.568.538 24.866 24.866 0 0 0 9.38 0 6.363 6.363 0 0 0 1.568-.538 1.512 1.512 0 0 0 .919-1.266v-10.155a.794.794 0 0 0-.794-.794zm0 10.949c0 .8-2.858 1.456-6.383 1.456s-6.383-.652-6.383-1.456v-10.155h12.766z" class="cls-4" transform="translate(-2768.331 -1839.542)"/>
                        </g>
                        <path id="패스_4051" d="M2774.567 1851.868a12.033 12.033 0 0 0 12.766-.407v-5.684h-12.766z" class="cls-8" transform="translate(-2757.515 -1809.784)"/>
                        <g id="그룹_2561" transform="translate(31.291 28.863)">
                            <path id="패스_4052" d="M2893.03 1796.1l-.365-.062a1.212 1.212 0 0 0 .365.062z" class="cls-7" transform="translate(-2891.871 -1795.246)"/>
                            <path id="패스_4053" d="M2887.721 1789.878l-.365-.062a.811.811 0 0 0-.134-.011.794.794 0 0 0-.238 1.552 1.981 1.981 0 0 0 .6.1.794.794 0 0 0 .133-1.578zm-.5.721l.365.062a1.2 1.2 0 0 1-.364-.061z" class="cls-4" transform="translate(-2886.428 -1789.804)"/>
                        </g>
                        <g id="그룹_2562" transform="translate(27.923 28.216)">
                            <path id="패스_4054" d="M2868.828 1790.962c-1.052.088-2.259.071-2.625.071l3.369.576a1.25 1.25 0 0 1-.744-.647z" class="cls-7" transform="translate(-2865.409 -1790.168)"/>
                            <path id="패스_4055" d="M2864.369 1785.411a.459.459 0 0 1-.27-.238.793.793 0 0 0-.713-.447h-.066c-.557.047-1.232.069-2.065.069h-.494a.794.794 0 0 0-.134 1.577l3.369.577a.794.794 0 0 0 .374-1.54zm-3.609.181h.494c.546 0 1.378-.009 2.131-.072a1.251 1.251 0 0 0 .744.647z" class="cls-4" transform="translate(-2859.966 -1784.727)"/>
                        </g>
                        <g id="그룹_2563" transform="translate(9.236 23.815)">
                            <path id="패스_4056" d="M2730.9 1756.416h-10.213a1.277 1.277 0 0 0-1.277 1.277l.638 5.11a1.277 1.277 0 0 0 1.276 1.278h9.574a1.277 1.277 0 0 0 1.277-1.278v-5.11a1.277 1.277 0 0 0-1.275-1.277z" class="cls-6" transform="translate(-2718.617 -1755.622)"/>
                            <path id="패스_4057" d="M2725.458 1750.181h-10.213a2.073 2.073 0 0 0-2.07 2.072.783.783 0 0 0 .006.1l.633 5.066a2.074 2.074 0 0 0 2.07 2.017h9.574a2.074 2.074 0 0 0 2.071-2.072v-5.11a2.073 2.073 0 0 0-2.071-2.073zm1.277 7.182a1.277 1.277 0 0 1-1.277 1.278h-9.574a1.277 1.277 0 0 1-1.277-1.278l-.638-5.11a1.277 1.277 0 0 1 1.276-1.278h10.213a1.277 1.277 0 0 1 1.277 1.278z" class="cls-4" transform="translate(-2713.175 -1750.181)"/>
                        </g>
                        <g id="그룹_2564" transform="translate(27.881 11.397)">
                            <path id="패스_4058" d="M2871.292 1657.637c-1.626-2.3-4.234-1.771-5.642-1.771s-2.9-.2-2.9 1.211a9.624 9.624 0 0 1 3.264 5.153c1.16 3.774 1.16 10.379 1.16 10.379a3.153 3.153 0 0 0 1.451 2.323c.972.313.933.008.933-.789.004 0 3.36-14.21 1.734-16.506z" class="cls-9" transform="translate(-2862.357 -1655.417)"/>
                            <path id="패스_4059" d="M2863.589 1652.726c-.24.011-.466.022-.66.022h-.463a3.348 3.348 0 0 0-2.419.507 1.489 1.489 0 0 0-.41 1.106.4.4 0 0 0 .179.332 9.3 9.3 0 0 1 3.1 4.938 30.911 30.911 0 0 1 1 6.509c.142 2.086.144 3.736.144 3.753a3.478 3.478 0 0 0 1.726 2.7 2.358 2.358 0 0 0 .7.14.729.729 0 0 0 .447-.134c.311-.227.31-.625.309-1.084v-.044c.1-.429.877-3.8 1.47-7.373.873-5.276.935-8.353.188-9.409-1.521-2.145-3.8-2.036-5.311-1.963zm4.336 11.236c-.626 3.783-1.462 7.334-1.47 7.369a.4.4 0 0 0-.01.091v.091c0 .145 0 .318-.011.419a2.147 2.147 0 0 1-.4-.1 2.84 2.84 0 0 1-1.175-1.944c0-.272-.013-6.708-1.178-10.5a10.507 10.507 0 0 0-3.234-5.227.6.6 0 0 1 .16-.35c.307-.3 1.092-.291 1.85-.279h.475c.213 0 .448-.011.7-.023 1.416-.068 3.355-.161 4.621 1.626.339.496.755 2.288-.328 8.827z" class="cls-4" transform="translate(-2859.637 -1652.696)"/>
                        </g>
                        <g id="그룹_2565" transform="translate(22.641 23.815)">
                            <path id="패스_4060" d="M2836.2 1756.416h-10.213a1.277 1.277 0 0 0-1.276 1.277v5.11a1.277 1.277 0 0 0 1.276 1.278h9.574a1.277 1.277 0 0 0 1.276-1.278l.639-5.11a1.277 1.277 0 0 0-1.276-1.277z" class="cls-6" transform="translate(-2823.915 -1755.622)"/>
                            <path id="패스_4061" d="M2830.756 1750.181h-10.213a2.073 2.073 0 0 0-2.071 2.072v5.11a2.074 2.074 0 0 0 2.071 2.072h9.574a2.074 2.074 0 0 0 2.07-2.017l.633-5.066a.783.783 0 0 0 .006-.1 2.073 2.073 0 0 0-2.07-2.071zm.638 7.182a1.277 1.277 0 0 1-1.277 1.278h-9.574a1.277 1.277 0 0 1-1.277-1.278v-5.11a1.277 1.277 0 0 1 1.277-1.278h10.213a1.277 1.277 0 0 1 1.277 1.278z" class="cls-4" transform="translate(-2818.473 -1750.181)"/>
                        </g>
                        <g id="그룹_2566" transform="translate(11.151 13.349)">
                            <path id="패스_4062" d="M2734.454 1682.021v9.085c0 5.644 5 10.22 11.171 10.22s11.169-4.576 11.169-10.22v-16.854l-17.446.287z" class="cls-6" transform="translate(-2733.66 -1673.459)"/>
                            <path id="패스_4063" d="M2751.352 1668.017h-.013l-17.446.287a.793.793 0 0 0-.651.359l-4.895 7.481a.8.8 0 0 0-.129.435v9.085a10.2 10.2 0 0 0 .951 4.311 10.977 10.977 0 0 0 2.579 3.5 12.035 12.035 0 0 0 3.8 2.345 12.966 12.966 0 0 0 9.269 0 12.037 12.037 0 0 0 3.8-2.345 10.975 10.975 0 0 0 2.578-3.5 10.2 10.2 0 0 0 .951-4.311v-16.854a.794.794 0 0 0-.794-.794zm0 17.648c0 5.644-5 10.22-11.169 10.22s-11.171-4.576-11.171-10.22v-9.085l4.894-7.482 17.446-.287z" class="cls-4" transform="translate(-2728.218 -1668.017)"/>
                        </g>
                        <path id="패스_4064" d="M2754.789 1678.065c1.8.02 3.924-.872 7.833.19 3.632.987 7.081 1.849 10.133 1.443a4.718 4.718 0 0 0 1.785-.607v-4.838l-17.446.287z" class="cls-8" transform="translate(-2740.255 -1660.11)"/>
                        <g id="그룹_2567" transform="translate(10.343 11.392)">
                            <path id="패스_4065" d="M2732.911 1656.38c0-1.41-3.967.117-5.377.117a2.552 2.552 0 0 0-2.552 2.554l.876 13.2c0 .8 2.63-12.01 5.5-13.063 3.705-1.359 1.553-2.808 1.553-2.808z" class="cls-9" transform="translate(-2724.586 -1655.385)"/>
                            <path id="패스_4066" d="M2730.566 1653.447a.862.862 0 0 0-.309-.507c-.605-.488-1.824-.267-3.613.124a10.928 10.928 0 0 1-1.831.312 2.953 2.953 0 0 0-2.948 2.951v.026l.876 13.19a.405.405 0 0 0 .353.412.417.417 0 0 0 .056 0c.128 0 .31-.058.41-.353.021-.061.046-.145.079-.264.061-.216.141-.522.243-.91.394-1.5 1.129-4.295 2.026-6.754.6-1.634 1.761-4.437 2.865-4.842 1.536-.564 2.329-1.222 2.425-2.013a1.637 1.637 0 0 0-.632-1.372zm-7.031 16.079zm6.876-14.8c-.075.625-1.361 1.161-1.91 1.363a4.066 4.066 0 0 0-1.838 1.939 22.262 22.262 0 0 0-1.5 3.376c-.734 2.012-1.357 4.234-1.78 5.812l-.724-10.9a2.158 2.158 0 0 1 2.155-2.144 11.162 11.162 0 0 0 2-.33c.969-.212 2.592-.567 2.946-.281.015.012.033.027.033.1a.4.4 0 0 0 .176.33s.49.343.442.736z" class="cls-4" transform="translate(-2721.865 -1652.659)"/>
                        </g>
                        <g id="그룹_2568" transform="translate(11.396 5.493)">
                            <path id="패스_4067" d="M2753.829 1613.934c-1.737-.281-4.7-3.028-7.459-3.78-9.228-2.513-12.624 2.345-13.1 5.981a4.972 4.972 0 0 0 2.445 4.39c2.172 1.245 3.777-1.188 8.974-.274 3.707.652 7.22 1.2 10.222.515 5.423-1.232 2.649-8.7 2.649-8.7s-.479 2.394-3.731 1.868z" class="cls-9" transform="translate(-2732.857 -1609.063)"/>
                            <path id="패스_4068" d="M2754.812 1608.955a.4.4 0 0 0-.359.314 2.283 2.283 0 0 1-2.464 1.624 5.1 5.1 0 0 1-.813-.069 10.66 10.66 0 0 1-3.01-1.54 17.745 17.745 0 0 0-4.409-2.231 16.847 16.847 0 0 0-6.046-.646 9.017 9.017 0 0 0-4.147 1.408 7.934 7.934 0 0 0-3.406 5.551 5.338 5.338 0 0 0 2.642 4.786c1.166.668 2.216.4 3.432.083a11.98 11.98 0 0 1 5.67-.31 42.859 42.859 0 0 0 7.2.835 14.309 14.309 0 0 0 3.176-.325 4.333 4.333 0 0 0 3.015-2.171c1.487-2.751-.017-6.878-.082-7.052a.4.4 0 0 0-.399-.257zm-.215 6.931a3.572 3.572 0 0 1-2.492 1.774c-2.875.653-6.259.152-10.066-.518a12.784 12.784 0 0 0-6.007.323c-1.176.3-1.953.5-2.839 0a4.554 4.554 0 0 1-2.249-3.993 7.139 7.139 0 0 1 3.059-4.993 8.235 8.235 0 0 1 3.787-1.279 16.068 16.068 0 0 1 5.759.622 17.186 17.186 0 0 1 4.2 2.138 10.722 10.722 0 0 0 3.3 1.651 3.859 3.859 0 0 0 3.43-.849 2.884 2.884 0 0 0 .277-.324c.344 1.319.761 3.745-.156 5.448z" class="cls-4" transform="translate(-2730.139 -1606.346)"/>
                        </g>
                    </g>
                    <g id="그룹_2574" transform="translate(80.875 152.976)">
                        <g id="그룹_2572">
                            <g id="그룹_2570">
                                <path id="패스_4138" d="M12.55.01A12.536 12.536 0 1 1 .01 12.55 12.526 12.526 0 0 1 12.55.01z" class="cls-6" transform="rotate(-45 21.385 8.858)"/>
                                <path id="패스_4069" d="M3173.656 2538.263h-.154a12.938 12.938 0 0 0 .146 25.875h.154a12.938 12.938 0 0 0-.146-25.875zm8.675 21.425a12.139 12.139 0 1 1-8.82-20.63h.144a12.145 12.145 0 0 1 8.676 20.63z" class="cls-4" transform="translate(-3155.909 -2533.485)"/>
                            </g>
                            <path id="패스_4139" d="M9.72.007A9.709 9.709 0 1 1 .007 9.72 9.7 9.7 0 0 1 9.72.007z" class="cls-10" transform="rotate(-45 23.386 4.028)"/>
                            <g id="그룹_2571" transform="translate(10.614 9.839)">
                                <path id="패스_4070" d="M3207.928 2599.229a.4.4 0 0 0-.559.051 7.912 7.912 0 0 0-1.039 1.611.4.4 0 1 0 .715.346 7.12 7.12 0 0 1 .934-1.448.4.4 0 0 0-.051-.56z" class="cls-6" transform="translate(-3206.291 -2596.443)"/>
                                <path id="패스_4071" d="M3231.715 2577.992a7.844 7.844 0 0 0-4.174 1.255.4.4 0 0 0 .431.667 7.053 7.053 0 0 1 3.753-1.128.4.4 0 0 0 0-.794z" class="cls-6" transform="translate(-3224.673 -2577.992)"/>
                            </g>
                        </g>
                        <g id="그룹_2573" transform="translate(9.98 12.595)">
                            <path id="패스_4140" d="M1.766 0a1.758 1.758 0 0 1 1.759 1.76v4.36A1.759 1.759 0 1 1 0 6.122v-4.36A1.761 1.761 0 0 1 1.766 0z" class="cls-6" transform="rotate(-45 7.885 3.266)"/>
                            <path id="패스_4141" d="M1.761.013h10.075A1.758 1.758 0 0 1 13.6 1.768a1.761 1.761 0 0 1-1.76 1.76H1.765a1.759 1.759 0 1 1 0-3.519z" class="cls-6" transform="rotate(-45 13.133 1.087)"/>
                        </g>
                    </g>
                    <g id="그룹_2587" transform="translate(21.309 103.881)">
                        <g id="그룹_2576">
                            <path id="패스_4072" d="M2707.621 2164.7a.4.4 0 1 0-.543.579l.891.838-.525.559-.891-.838a.4.4 0 0 0-.544.579l1.181 1.11a.4.4 0 0 0 .561-.018l1.069-1.138a.4.4 0 0 0-.017-.561z" class="cls-7" transform="translate(-2699.404 -2158.323)"/>
                            <path id="패스_4073" d="M2662.5 2116.563a4.464 4.464 0 1 0 .2 6.312 4.465 4.465 0 0 0-.2-6.312zm-.383 5.768a3.67 3.67 0 1 1-2.787-6.184h.116a3.671 3.671 0 0 1 2.67 6.186z" class="cls-7" transform="translate(-2654.982 -2115.353)"/>
                            <g id="그룹_2575" transform="translate(1.378 1.378)">
                                <path id="패스_4074" d="M2671 2127.006a3.085 3.085 0 1 0-2.115 5.334h.1a3.086 3.086 0 0 0 2.017-5.333zm-.444 3.818a2.291 2.291 0 1 1-1.739-3.86h.073a2.291 2.291 0 0 1 1.667 3.861z" class="cls-7" transform="translate(-2665.808 -2126.168)"/>
                            </g>
                            <path id="패스_4075" d="M2715.025 2170.218a.736.736 0 0 0-1.039.032l-1.657 1.764a.738.738 0 0 0 .032 1.041l3.907 3.675a.736.736 0 0 0 1.04-.032l1.657-1.764a.737.737 0 0 0-.032-1.04zm1.745 5.893l-3.823-3.6 1.577-1.678 3.823 3.6zm1.619-1.639z" class="cls-7" transform="translate(-2704.854 -2163.055)"/>
                        </g>
                        <g id="그룹_2578" transform="translate(.513 40.271)">
                            <g id="그룹_2577">
                                <path id="패스_4076" d="M2671.2 2436.584h-1.322q-.064-.176-.142-.345l.934-.935a1.1 1.1 0 0 0 0-1.55l-.641-.641a1.095 1.095 0 0 0-1.548 0l-.934.935q-.169-.078-.345-.143v-1.323a1.1 1.1 0 0 0-1.095-1.1h-.906a1.1 1.1 0 0 0-1.095 1.1v1.323q-.176.064-.345.143l-.934-.935a1.095 1.095 0 0 0-1.548 0l-.64.641a1.1 1.1 0 0 0 0 1.55l.934.935q-.078.169-.143.345h-1.322a1.1 1.1 0 0 0-1.095 1.1v.906a1.1 1.1 0 0 0 1.095 1.1h1.322c.043.117.09.232.143.345l-.934.935a1.1 1.1 0 0 0 0 1.55l.64.641a1.1 1.1 0 0 0 1.548 0l.934-.935q.169.078.345.143v1.323a1.1 1.1 0 0 0 1.095 1.1h.906a1.1 1.1 0 0 0 1.095-1.1v-1.323q.176-.064.345-.142l.934.935a1.1 1.1 0 0 0 1.548 0l.641-.641a1.1 1.1 0 0 0 0-1.55l-.934-.935c.052-.113.1-.228.142-.345h1.322a1.1 1.1 0 0 0 1.095-1.1v-.906a1.1 1.1 0 0 0-1.095-1.101zm.3 2a.3.3 0 0 1-.3.3h-1.609a.4.4 0 0 0-.381.286 3.7 3.7 0 0 1-.306.74.4.4 0 0 0 .067.472l1.137 1.138a.3.3 0 0 1 0 .426l-.64.641a.3.3 0 0 1-.426 0l-1.137-1.138a.4.4 0 0 0-.471-.067 3.692 3.692 0 0 1-.74.306.4.4 0 0 0-.285.381v1.61a.3.3 0 0 1-.3.3h-.906a.3.3 0 0 1-.3-.3v-1.61a.4.4 0 0 0-.286-.381 3.69 3.69 0 0 1-.74-.306.4.4 0 0 0-.472.067l-1.137 1.138a.3.3 0 0 1-.426 0l-.641-.641a.3.3 0 0 1 0-.426l1.137-1.138a.4.4 0 0 0 .067-.472 3.713 3.713 0 0 1-.306-.74.4.4 0 0 0-.381-.286h-1.609a.3.3 0 0 1-.3-.3v-.906a.3.3 0 0 1 .3-.3h1.609a.4.4 0 0 0 .381-.286 3.713 3.713 0 0 1 .306-.74.4.4 0 0 0-.067-.472l-1.137-1.138a.3.3 0 0 1 0-.426l.641-.641a.3.3 0 0 1 .426 0l1.137 1.138a.4.4 0 0 0 .472.067 3.7 3.7 0 0 1 .74-.306.4.4 0 0 0 .286-.381v-1.61a.3.3 0 0 1 .3-.3h.906a.3.3 0 0 1 .3.3v1.61a.4.4 0 0 0 .286.381 3.7 3.7 0 0 1 .74.306.4.4 0 0 0 .471-.067l1.137-1.138a.3.3 0 0 1 .426 0l.64.641a.3.3 0 0 1 0 .426l-1.137 1.138a.4.4 0 0 0-.067.472 3.7 3.7 0 0 1 .306.74.4.4 0 0 0 .381.286h1.609a.3.3 0 0 1 .3.3z" class="cls-7" transform="translate(-2659.015 -2431.488)"/>
                                <path id="패스_4077" d="M2689.078 2458.327a3.226 3.226 0 1 0 3.224 3.226 3.228 3.228 0 0 0-3.224-3.226zm0 5.657a2.432 2.432 0 1 1 2.43-2.431 2.433 2.433 0 0 1-2.43 2.431z" class="cls-7" transform="translate(-2682.437 -2454.908)"/>
                                <path id="패스_4078" d="M2701.677 2472.888a1.387 1.387 0 1 0 1.386 1.386 1.388 1.388 0 0 0-1.386-1.386zm0 1.979a.593.593 0 1 1 .592-.593.593.593 0 0 1-.592.593z" class="cls-7" transform="translate(-2695.036 -2467.615)"/>
                            </g>
                        </g>
                        <g id="그룹_2580" transform="translate(.682 22.12)">
                            <g id="그룹_2579" transform="translate(.794)">
                                <path id="패스_4079" d="M2669.481 2314.686h-2.5a.4.4 0 0 0-.4.4v5.546a.4.4 0 0 0 .4.4h2.5a.4.4 0 0 0 .4-.4v-5.546a.4.4 0 0 0-.4-.4zm-.4 5.547h-1.709v-4.752h1.709z" class="cls-7" transform="translate(-2666.581 -2311.414)"/>
                                <path id="패스_4080" d="M2701.373 2301.486h-2.5a.4.4 0 0 0-.4.4v7.228a.4.4 0 0 0 .4.4h2.5a.4.4 0 0 0 .4-.4v-7.228a.4.4 0 0 0-.4-.4zm-.4 7.228h-1.709v-6.434h1.709z" class="cls-7" transform="translate(-2694.413 -2299.895)"/>
                                <path id="패스_4081" d="M2733.265 2289h-2.5a.4.4 0 0 0-.4.4v8.819a.4.4 0 0 0 .4.4h2.5a.4.4 0 0 0 .4-.4v-8.819a.4.4 0 0 0-.4-.4zm-.4 8.819h-1.709v-8.025h1.709z" class="cls-7" transform="translate(-2722.245 -2288.996)"/>
                            </g>
                            <path id="패스_4082" d="M2672.888 2358.225h-12.149a.4.4 0 1 0 0 .794h12.149a.4.4 0 0 0 0-.794z" class="cls-7" transform="translate(-2660.342 -2349.406)"/>
                        </g>
                        <g id="그룹_2582" transform="translate(24.329 1.256)">
                            <g id="그룹_2581">
                                <path id="패스_4083" d="M2910.155 2125.215H2846.5a.4.4 0 0 0 0 .794h63.657a.4.4 0 0 0 0-.794z" class="cls-7" transform="translate(-2846.101 -2125.215)"/>
                                <path id="패스_4084" d="M2904.907 2166.687H2846.5a.4.4 0 0 0 0 .794h58.409a.4.4 0 0 0 0-.794z" class="cls-7" transform="translate(-2846.101 -2161.404)"/>
                                <path id="패스_4085" d="M2869.5 2208.158h-23a.4.4 0 0 0 0 .794h23a.4.4 0 0 0 0-.794z" class="cls-7" transform="translate(-2846.101 -2197.592)"/>
                            </g>
                        </g>
                        <g id="그룹_2584" transform="translate(24.329 21.246)">
                            <g id="그룹_2583">
                                <path id="패스_4086" d="M2910.155 2282.139H2846.5a.4.4 0 0 0 0 .794h63.657a.4.4 0 1 0 0-.794z" class="cls-7" transform="translate(-2846.101 -2282.139)"/>
                                <path id="패스_4087" d="M2904.907 2323.61H2846.5a.4.4 0 0 0 0 .794h58.409a.4.4 0 0 0 0-.794z" class="cls-7" transform="translate(-2846.101 -2318.327)"/>
                                <path id="패스_4088" d="M2869.5 2365.082h-23a.4.4 0 0 0 0 .794h23a.4.4 0 0 0 0-.794z" class="cls-7" transform="translate(-2846.101 -2354.516)"/>
                            </g>
                        </g>
                        <g id="그룹_2586" transform="translate(24.329 41.236)">
                            <g id="그룹_2585">
                                <path id="패스_4089" d="M2910.155 2439.062H2846.5a.4.4 0 0 0 0 .795h63.657a.4.4 0 0 0 0-.795z" class="cls-7" transform="translate(-2846.101 -2439.062)"/>
                                <path id="패스_4090" d="M2904.907 2480.534H2846.5a.4.4 0 0 0 0 .795h58.409a.4.4 0 0 0 0-.795z" class="cls-7" transform="translate(-2846.101 -2475.251)"/>
                                <path id="패스_4091" d="M2869.5 2522.006h-23a.4.4 0 0 0 0 .795h23a.4.4 0 0 0 0-.795z" class="cls-7" transform="translate(-2846.101 -2511.44)"/>
                            </g>
                        </g>
                    </g>
                    <g id="그룹_2588" transform="translate(71.89 33.945)">
                        <path id="패스_4092" d="M3089.106 1566.346h-36.379a.4.4 0 0 0 0 .794h36.379a.4.4 0 0 0 0-.794z" class="cls-7" transform="translate(-3052.33 -1566.346)"/>
                        <path id="패스_4093" d="M3089.106 1615.533h-36.379a.4.4 0 0 0 0 .794h36.379a.4.4 0 0 0 0-.794z" class="cls-7" transform="translate(-3052.33 -1609.267)"/>
                        <path id="패스_4094" d="M3089.106 1664.72h-36.379a.4.4 0 0 0 0 .794h36.379a.4.4 0 0 0 0-.794z" class="cls-7" transform="translate(-3052.33 -1652.188)"/>
                        <path id="패스_4095" d="M3089.106 1713.907h-36.379a.4.4 0 0 0 0 .794h36.379a.4.4 0 0 0 0-.794z" class="cls-7" transform="translate(-3052.33 -1695.11)"/>
                        <path id="패스_4096" d="M3089.106 1763.094h-36.379a.4.4 0 0 0 0 .794h36.379a.4.4 0 0 0 0-.794z" class="cls-7" transform="translate(-3052.33 -1738.031)"/>
                        <path id="패스_4097" d="M3089.106 1812.281h-36.379a.4.4 0 0 0 0 .794h36.379a.4.4 0 0 0 0-.794z" class="cls-7" transform="translate(-3052.33 -1780.952)"/>
                        <path id="패스_4098" d="M3089.106 1861.468h-36.379a.4.4 0 0 0 0 .794h36.379a.4.4 0 0 0 0-.794z" class="cls-7" transform="translate(-3052.33 -1823.873)"/>
                        <path id="패스_4099" d="M3089.106 1910.655h-36.379a.4.4 0 0 0 0 .794h36.379a.4.4 0 0 0 0-.794z" class="cls-7" transform="translate(-3052.33 -1866.795)"/>
                        <path id="패스_4100" d="M3068.435 1959.841h-15.708a.4.4 0 0 0 0 .794h15.708a.4.4 0 0 0 0-.794z" class="cls-7" transform="translate(-3052.33 -1909.715)"/>
                    </g>
                    <g id="그룹_2591" transform="translate(37.632)">
                        <g id="그룹_2589" transform="translate(11.695)">
                            <path id="패스_4101" d="M2903 1306.11h-12.185a9.55 9.55 0 0 0-9.5 9.6v3.4h3.9v-3.4a5.658 5.658 0 0 1 5.6-5.7H2903a5.657 5.657 0 0 1 5.6 5.7v3.4h3.9v-3.4a9.549 9.549 0 0 0-9.5-9.6z" class="cls-11" transform="translate(-2880.526 -1305.316)"/>
                            <path id="패스_4102" d="M2904.84 1302.923a10.245 10.245 0 0 0-3.271-2.229 10.135 10.135 0 0 0-4.009-.818h-12.185a10.139 10.139 0 0 0-4.009.818 10.254 10.254 0 0 0-3.271 2.229 10.418 10.418 0 0 0-3.012 7.347v3.4a.794.794 0 0 0 .794.794h3.9a.794.794 0 0 0 .794-.794v-3.4a4.863 4.863 0 0 1 4.808-4.906h12.185a4.862 4.862 0 0 1 4.8 4.906v3.4a.794.794 0 0 0 .794.794h3.9a.794.794 0 0 0 .794-.794v-3.4a10.417 10.417 0 0 0-3.011-7.347zm2.217 10.748h-3.9v-3.4a5.657 5.657 0 0 0-5.6-5.7h-12.185a5.658 5.658 0 0 0-5.6 5.7v3.4h-3.9v-3.4a9.55 9.55 0 0 1 9.5-9.6h12.185a9.549 9.549 0 0 1 9.5 9.6z" class="cls-4" transform="translate(-2875.083 -1299.875)"/>
                        </g>
                        <g id="그룹_2590" transform="translate(0 7.8)">
                            <path id="패스_4103" d="M2834.521 1367.345h-35.572a9.552 9.552 0 0 0-9.5 9.6v4.7h54.57v-4.7a9.551 9.551 0 0 0-9.498-9.6z" class="cls-11" transform="translate(-2788.655 -1366.55)"/>
                            <path id="패스_4104" d="M2836.358 1364.157a10.247 10.247 0 0 0-3.271-2.229 10.137 10.137 0 0 0-4.009-.818h-35.572a10.141 10.141 0 0 0-4.009.818 10.256 10.256 0 0 0-3.272 2.229 10.421 10.421 0 0 0-3.013 7.349v4.7a.794.794 0 0 0 .794.794h54.57a.794.794 0 0 0 .794-.794v-4.7a10.422 10.422 0 0 0-3.012-7.349zm2.218 12.049h-54.57v-4.7a9.552 9.552 0 0 1 9.5-9.6h35.572a9.551 9.551 0 0 1 9.5 9.6z" class="cls-4" transform="translate(-2783.213 -1361.109)"/>
                        </g>
                        <path id="패스_4105" d="M2996.831 1383.758h-20.894a.4.4 0 0 0 0 .794h20.894a6.217 6.217 0 0 1 6.169 6.248v3.251a.4.4 0 1 0 .794 0v-3.251a7.012 7.012 0 0 0-6.963-7.042z" class="cls-6" transform="translate(-2951.057 -1373.073)"/>
                    </g>
                    <g id="그룹_2611" transform="translate(-1.109 22.664)">
                        <g id="그룹_2599">
                            <g id="그룹_2592" transform="translate(23.317 72.151)">
                                <path id="패스_4142" d="M0 .008h10.748v5.51H0z" class="cls-11" transform="rotate(-69.873 8.186 4.882)"/>
                                <path id="패스_4106" d="M2671.981 2046.127l-5.173-1.9a.793.793 0 0 0-1.019.473l-3.7 10.092a.795.795 0 0 0 .472 1.019l5.174 1.9a.792.792 0 0 0 1.018-.472l3.7-10.093a.795.795 0 0 0-.472-1.019zm-3.969 10.838l-5.173-1.9 3.7-10.093 5.174 1.9z" class="cls-4" transform="translate(-2662.045 -2044.181)"/>
                            </g>
                            <g id="그룹_2594" transform="translate(1.462 79.877)">
                                <g id="그룹_2593">
                                    <path id="패스_4143" d="M.006.044l61-.014v8.783L0 8.827z" class="cls-12" transform="rotate(-69.88 41.934 28.496)"/>
                                    <path id="패스_4107" d="M2520.653 2107.907l-8.246-3.024a.793.793 0 0 0-1.019.472l-20.979 57.284a.795.795 0 0 0 .472 1.019l8.246 3.024a.792.792 0 0 0 1.019-.473l20.979-57.284a.794.794 0 0 0-.472-1.019zm-21.252 58.03l-8.246-3.024 20.979-57.284 8.246 3.024z" class="cls-4" transform="translate(-2490.361 -2104.834)"/>
                                </g>
                                <path id="패스_4144" d="M0 .044L61 .03v4.123L0 4.167z" class="cls-9" transform="rotate(-69.873 41.937 28.495)"/>
                            </g>
                            <path id="패스_4108" d="M2540.76 2485.121l-5.068-1.858a.4.4 0 0 0-.273.746l5.068 1.858a.4.4 0 0 0 .273-.746z" class="cls-4" transform="translate(-2527.994 -2355.157)"/>
                            <path id="패스_4109" d="M2543.106 2503.769l-2.3-.844a.4.4 0 0 0-.273.746l2.3.845a.4.4 0 0 0 .273-.746z" class="cls-4" transform="translate(-2532.453 -2372.315)"/>
                            <g id="그룹_2598">
                                <g id="그룹_2595" transform="translate(2.645 2.554)">
                                    <ellipse id="타원_262" cx="38.622" cy="38.649" class="cls-12" rx="38.622" ry="38.649" transform="translate(.805 .805)"/>
                                    <path id="패스_4110" d="M2577.349 1527.833a39.564 39.564 0 0 0-11.368-19.388 39.425 39.425 0 0 0-65.174 38.293 39.565 39.565 0 0 0 11.368 19.388 39.35 39.35 0 0 0 38.639 8.815 39.417 39.417 0 0 0 26.535-47.109zm-2.008 22.751a38.662 38.662 0 1 1-22.974-49.584 38.639 38.639 0 0 1 22.974 49.585z" class="cls-4" transform="translate(-2499.65 -1497.832)"/>
                                </g>
                                <g id="그룹_2596" transform="translate(6.854 6.766)">
                                    <ellipse id="타원_263" cx="34.414" cy="34.438" class="cls-9" rx="34.414" ry="34.438" transform="translate(.804 .804)"/>
                                    <path id="패스_4111" d="M2602.122 1557.7a35.333 35.333 0 0 0-10.155-17.318 35.149 35.149 0 0 0-34.513-7.874 35.263 35.263 0 0 0-13.547 59.4 35.151 35.151 0 0 0 34.514 7.874 35.209 35.209 0 0 0 23.7-42.079zm-1.873 20.293a34.45 34.45 0 1 1-20.471-44.184 34.429 34.429 0 0 1 20.471 44.183z" class="cls-4" transform="translate(-2532.719 -1530.901)"/>
                                </g>
                                <g id="그룹_2597" transform="translate(9.276 9.19)">
                                    <ellipse id="타원_264" cx="31.992" cy="32.014" class="cls-6" rx="31.992" ry="32.014" transform="translate(.803 .803)"/>
                                    <path id="패스_4112" d="M2616.376 1574.883a32.907 32.907 0 0 0-9.456-16.127 32.733 32.733 0 0 0-32.14-7.333 32.838 32.838 0 0 0-12.616 55.312 32.732 32.732 0 0 0 32.14 7.333 32.787 32.787 0 0 0 22.072-39.185zm-1.8 18.879a32.025 32.025 0 1 1-19.03-41.076 32.006 32.006 0 0 1 19.035 41.076z" class="cls-4" transform="translate(-2551.747 -1549.928)"/>
                                </g>
                                <ellipse id="타원_265" cx="31.992" cy="32.014" class="cls-11" rx="31.992" ry="32.014" transform="translate(10.079 9.993)"/>
                                <path id="패스_4145" d="M29.759.023A29.726 29.726 0 1 1 .023 29.759 29.7 29.7 0 0 1 29.759.023z" class="cls-6" transform="rotate(-45 50.707 21.003)"/>
                                <path id="패스_4113" d="M2581.16 1679.124a32.047 32.047 0 0 1-13.652-50.467 32.01 32.01 0 1 0 47.141 43.2 31.979 31.979 0 0 1-33.489 7.267z" class="cls-11" transform="translate(-2547.916 -1609.438)"/>
                            </g>
                        </g>
                        <path id="패스_4114" d="M2616.376 1574.883a32.907 32.907 0 0 0-9.456-16.127 32.733 32.733 0 0 0-32.14-7.333 32.838 32.838 0 0 0-12.616 55.312 32.732 32.732 0 0 0 32.14 7.333 32.787 32.787 0 0 0 22.072-39.185zm-1.8 18.879a32.025 32.025 0 1 1-19.03-41.076 32.006 32.006 0 0 1 19.035 41.076z" class="cls-4" transform="translate(-2542.471 -1540.738)"/>
                        <g id="그룹_2610" transform="translate(20.925 17.026)">
                            <g id="그룹_2600" transform="translate(0 43.715)">
                                <path id="패스_4115" d="M2682.2 1960.846h-25.34c-2.556 0-5.168 2.229-7.369 5.175a31.983 31.983 0 0 0 40.484.179c-2.244-3.064-5.175-5.354-7.775-5.354z" class="cls-7" transform="translate(-2648.699 -1960.052)"/>
                                <path id="패스_4116" d="M2681.24 1956.287a7.827 7.827 0 0 0-4.48-1.676h-25.34c-3.224 0-6.133 2.987-8 5.493a.8.8 0 0 0 .131 1.088 32.784 32.784 0 0 0 41.488.184.8.8 0 0 0 .141-1.088 18.052 18.052 0 0 0-3.94-4.001zm-16.84 11.613a32.057 32.057 0 0 1-20.344-7.319c2.2-2.946 4.813-5.175 7.369-5.175h25.34c2.6 0 5.529 2.29 7.775 5.354a32.086 32.086 0 0 1-20.14 7.14z" class="cls-4" transform="translate(-2643.257 -1954.611)"/>
                            </g>
                            <g id="그룹_2601" transform="translate(12.281 36.189)">
                                <path id="패스_4117" d="M2745.971 1914.109c0 .977 3.473 1.77 7.757 1.77s7.758-.792 7.758-1.77v-12.342h-15.515z" class="cls-6" transform="translate(-2745.177 -1900.973)"/>
                                <path id="패스_4118" d="M2756.044 1895.531h-15.515a.794.794 0 0 0-.794.794v12.342a1.679 1.679 0 0 0 1.027 1.388 7.59 7.59 0 0 0 1.863.638 30.042 30.042 0 0 0 11.323 0 7.6 7.6 0 0 0 1.863-.638 1.68 1.68 0 0 0 1.027-1.388v-12.342a.794.794 0 0 0-.794-.794zm0 13.136c0 .977-3.473 1.77-7.757 1.77s-7.757-.792-7.757-1.77v-12.342h15.515z" class="cls-4" transform="translate(-2739.735 -1895.531)"/>
                            </g>
                            <path id="패스_4119" d="M2745.971 1909.169a14.625 14.625 0 0 0 15.515-.495v-6.908h-15.515z" class="cls-8" transform="translate(-2732.896 -1864.784)"/>
                            <g id="그룹_2602" transform="translate(30.552 28.488)">
                                <path id="패스_4120" d="M2889.945 1841.395l-.444-.076a1.468 1.468 0 0 0 .444.076z" class="cls-7" transform="translate(-2888.707 -1840.525)"/>
                                <path id="패스_4121" d="M2884.635 1835.17l-.444-.076a.794.794 0 0 0-.373 1.541 2.247 2.247 0 0 0 .683.113.794.794 0 0 0 .133-1.577zm-.577.707l.444.076a1.459 1.459 0 0 1-.444-.076z" class="cls-4" transform="translate(-2883.264 -1835.083)"/>
                            </g>
                            <g id="그룹_2603" transform="translate(26.458 27.702)">
                                <path id="패스_4122" d="M2860.53 1835.148c-1.279.107-2.746.086-3.19.086l4.094.7a1.517 1.517 0 0 1-.904-.786z" class="cls-7" transform="translate(-2856.546 -1834.354)"/>
                                <path id="패스_4123" d="M2856.231 1829.735a.731.731 0 0 1-.43-.377.793.793 0 0 0-.713-.447h-.066c-.681.057-1.507.085-2.525.085h-.6a.794.794 0 0 0-.134 1.577l4.094.7a.784.784 0 0 0 .135.011.794.794 0 0 0 .239-1.552zm-4.334.057h.6c.664 0 1.676-.011 2.591-.087a1.517 1.517 0 0 0 .9.786z" class="cls-4" transform="translate(-2851.104 -1828.912)"/>
                            </g>
                            <g id="그룹_2604" transform="translate(3.748 22.354)">
                                <path id="패스_4124" d="M2692.9 1793.163h-12.412a1.552 1.552 0 0 0-1.552 1.552l.776 6.21a1.552 1.552 0 0 0 1.552 1.552h11.636a1.552 1.552 0 0 0 1.552-1.552v-6.21a1.552 1.552 0 0 0-1.552-1.552z" class="cls-6" transform="translate(-2678.144 -1792.369)"/>
                                <path id="패스_4125" d="M2687.459 1786.927h-12.412a2.349 2.349 0 0 0-2.346 2.347.782.782 0 0 0 .006.1l.77 6.166a2.349 2.349 0 0 0 2.345 2.292h11.636a2.349 2.349 0 0 0 2.345-2.347v-6.21a2.349 2.349 0 0 0-2.344-2.348zm1.551 8.557a1.552 1.552 0 0 1-1.551 1.552h-11.636a1.552 1.552 0 0 1-1.552-1.552l-.776-6.21a1.552 1.552 0 0 1 1.552-1.553h12.412a1.552 1.552 0 0 1 1.551 1.553z" class="cls-4" transform="translate(-2672.702 -1786.927)"/>
                            </g>
                            <g id="그룹_2605" transform="translate(26.322 7.176)">
                                <path id="패스_4126" d="M2863.525 1673.112c-1.976-2.791-5.145-2.152-6.857-2.152s-3.519-.241-3.519 1.472c0 0 2.556 1.676 3.967 6.263s1.41 12.614 1.41 12.614c0 .747.851 2.529 1.763 2.823 1.182.38 1.134.009 1.134-.959 0 0 4.077-17.273 2.102-20.061z" class="cls-9" transform="translate(-2852.752 -1670.5)"/>
                                <path id="패스_4127" d="M2854.753 1667.815c-.292.014-.569.027-.806.027-.187 0-.378 0-.564-.006-1.154-.018-2.243-.035-2.879.592a1.728 1.728 0 0 0-.473 1.284.4.4 0 0 0 .178.332c.025.016 2.461 1.673 3.806 6.048a37.616 37.616 0 0 1 1.217 7.931c.174 2.538.176 4.545.176 4.565 0 .859.923 2.841 2.038 3.2a2.8 2.8 0 0 0 .817.166.809.809 0 0 0 .494-.146c.343-.251.342-.691.341-1.248v-.063c.111-.477 1.063-4.593 1.787-8.964a63.552 63.552 0 0 0 .82-6.809c.122-2.349-.067-3.841-.577-4.562-1.816-2.562-4.56-2.434-6.375-2.347zm5.35 13.585c-.761 4.6-1.778 8.918-1.788 8.961a.412.412 0 0 0-.01.091v.11a3.464 3.464 0 0 1-.028.6 1.916 1.916 0 0 1-.587-.128 3.5 3.5 0 0 1-1.488-2.445c0-.33-.016-8.139-1.427-12.73a12.6 12.6 0 0 0-3.939-6.341.838.838 0 0 1 .226-.523c.4-.393 1.371-.378 2.31-.364.188 0 .383.006.576.006.257 0 .542-.014.844-.028 1.741-.084 4.125-.2 5.689 2.012.425.602.943 2.802-.381 10.779z" class="cls-4" transform="translate(-2850.031 -1667.78)"/>
                            </g>
                            <g id="그룹_2606" transform="translate(20.039 22.354)">
                                <path id="패스_4128" d="M2820.874 1793.163h-12.412a1.552 1.552 0 0 0-1.552 1.552v6.21a1.552 1.552 0 0 0 1.552 1.552h11.638a1.552 1.552 0 0 0 1.551-1.552l.776-6.21a1.552 1.552 0 0 0-1.553-1.552z" class="cls-6" transform="translate(-2806.116 -1792.369)"/>
                                <path id="패스_4129" d="M2815.432 1786.927h-12.412a2.349 2.349 0 0 0-2.345 2.347v6.21a2.349 2.349 0 0 0 2.345 2.347h11.636a2.349 2.349 0 0 0 2.345-2.292l.77-6.166a.782.782 0 0 0 .006-.1 2.349 2.349 0 0 0-2.345-2.346zm.776 8.557a1.552 1.552 0 0 1-1.552 1.552h-11.636a1.552 1.552 0 0 1-1.552-1.552v-6.21a1.552 1.552 0 0 1 1.552-1.553h12.412a1.552 1.552 0 0 1 1.552 1.553z" class="cls-4" transform="translate(-2800.675 -1786.927)"/>
                            </g>
                            <g id="그룹_2607" transform="translate(6.076 9.634)">
                                <path id="패스_4130" d="M2697.22 1702.747v11.042c0 6.859 6.079 12.421 13.576 12.421s13.575-5.561 13.575-12.421v-20.483l-21.2.349z" class="cls-6" transform="translate(-2696.427 -1692.512)"/>
                                <path id="패스_4131" d="M2718.929 1687.07h-.013l-21.2.349a.793.793 0 0 0-.651.359l-5.948 9.092a.793.793 0 0 0-.13.435v11.042a12.229 12.229 0 0 0 1.141 5.168 13.171 13.171 0 0 0 3.094 4.2 14.455 14.455 0 0 0 4.565 2.817 15.583 15.583 0 0 0 11.141 0 14.449 14.449 0 0 0 4.564-2.817 13.165 13.165 0 0 0 3.094-4.2 12.23 12.23 0 0 0 1.14-5.168v-20.483a.794.794 0 0 0-.794-.794zm0 21.277c0 6.859-6.077 12.42-13.575 12.42s-13.576-5.561-13.576-12.42v-11.042l5.948-9.092 21.2-.349z" class="cls-4" transform="translate(-2690.984 -1687.07)"/>
                            </g>
                            <path id="패스_4132" d="M2721.934 1697.938c2.184.024 4.769-1.059 9.52.231 4.414 1.2 8.606 2.247 12.315 1.754a5.733 5.733 0 0 0 2.17-.738v-5.88l-21.2.349z" class="cls-8" transform="translate(-2711.919 -1682.878)"/>
                            <g id="그룹_2608" transform="translate(5.007 7.17)">
                                <path id="패스_4133" d="M2695.345 1671.584c0-1.714-4.821.143-6.534.143a3.1 3.1 0 0 0-3.1 3.1l1.065 16.043c0 .967 3.2-14.6 6.683-15.876 4.501-1.649 1.886-3.41 1.886-3.41z" class="cls-9" transform="translate(-2685.312 -1670.46)"/>
                                <path id="패스_4134" d="M2693 1668.649a.964.964 0 0 0-.35-.595c-.759-.611-2.489-.233-4.32.168a13.31 13.31 0 0 1-2.243.381 3.5 3.5 0 0 0-3.5 3.5v.026l1.065 16.032a.411.411 0 0 0 .354.421.472.472 0 0 0 .058 0c.144 0 .315-.073.416-.371.025-.072.055-.173.1-.317.073-.262.171-.633.295-1.1.48-1.825 1.373-5.224 2.465-8.217.891-2.443 2.228-5.457 3.533-5.936 1.834-.673 2.78-1.45 2.892-2.376a1.919 1.919 0 0 0-.765-1.616zm-.025 1.522c-.041.334-.4 1-2.378 1.726-1.3.475-2.605 2.572-4.005 6.409-.972 2.663-1.785 5.631-2.295 7.558l-.915-13.773a2.709 2.709 0 0 1 2.7-2.694 13.557 13.557 0 0 0 2.413-.4c1.27-.278 3.19-.7 3.653-.325a.2.2 0 0 1 .072.184.4.4 0 0 0 .176.329c.012.006.646.449.582.986z" class="cls-4" transform="translate(-2682.591 -1667.733)"/>
                            </g>
                            <g id="그룹_2609" transform="translate(6.287)">
                                <path id="패스_4135" d="M2720.767 1620c-2.111-.342-5.708-3.68-9.066-4.594-11.215-3.055-15.342 2.85-15.923 7.269a6.043 6.043 0 0 0 2.972 5.335c2.64 1.513 4.59-1.444 10.906-.333 4.505.793 8.775 1.455 12.423.625 6.591-1.5 3.22-10.571 3.22-10.571s-.58 2.906-4.532 2.269z" class="cls-9" transform="translate(-2695.364 -1614.164)"/>
                                <path id="패스_4136" d="M2722.552 1614.615a.4.4 0 0 0-.358.318 2.648 2.648 0 0 1-.677 1.172 3.716 3.716 0 0 1-3.4.781 12.973 12.973 0 0 1-3.69-1.884 21.5 21.5 0 0 0-5.335-2.7 20.386 20.386 0 0 0-7.317-.783 10.875 10.875 0 0 0-5 1.7 9.559 9.559 0 0 0-4.1 6.686 5.635 5.635 0 0 0 .517 2.72 6.351 6.351 0 0 0 2.652 3.011c1.386.795 2.587.485 4.106.092a14.643 14.643 0 0 1 6.928-.378 52 52 0 0 0 8.74 1.014 17.312 17.312 0 0 0 3.841-.393 5.186 5.186 0 0 0 3.608-2.6c1.789-3.31-.026-8.29-.1-8.5a.4.4 0 0 0-.415-.256zm-.19 8.38a4.424 4.424 0 0 1-3.086 2.2c-3.508.8-7.631.187-12.267-.629a15.459 15.459 0 0 0-7.264.392c-1.45.374-2.407.622-3.514-.012a5.629 5.629 0 0 1-2.776-4.938 8.763 8.763 0 0 1 3.755-6.129 10.094 10.094 0 0 1 4.641-1.568 19.608 19.608 0 0 1 7.029.759 20.936 20.936 0 0 1 5.122 2.608 12.992 12.992 0 0 0 3.984 1.995 4.61 4.61 0 0 0 4.094-1.007 3.476 3.476 0 0 0 .432-.534c.425 1.568 1.024 4.69-.151 6.868z" class="cls-4" transform="translate(-2692.646 -1611.446)"/>
                            </g>
                        </g>
                    </g>
                </g>
            </g>
            <path id="패스_4137" fill="none" stroke="#bc8877" d="M-8255.936-21046.051h174" transform="translate(8348.936 21288.051)"/>
        </g>
        <g id="그룹_2618" transform="translate(-3777.573 -2065.238)">
            <g id="그룹_2616" transform="translate(3969.021 2263.826)">
                <g id="그룹_2614">
                    <circle id="타원_266" cx="15.702" cy="15.702" r="15.702" class="cls-6" transform="rotate(-45 26.805 11.103)"/>
                    <path id="패스_4146" d="M4022.885 2301.486h-.192a16.2 16.2 0 0 0 .182 32.4h.193a16.2 16.2 0 0 0-.183-32.4zm10.87 26.825a15.2 15.2 0 1 1-11.051-25.83h.181a15.2 15.2 0 0 1 10.87 25.831z" class="cls-4" transform="translate(-4000.674 -2295.479)"/>
                </g>
                <circle id="타원_267" cx="12.161" cy="12.161" r="12.161" class="cls-10" transform="rotate(-45 29.309 5.058)"/>
                <g id="그룹_2615" transform="translate(13.274 12.343)">
                    <path id="패스_4147" d="M4054.3 2362.475a.5.5 0 0 0-.7.063 9.868 9.868 0 0 0-1.3 2.017.5.5 0 1 0 .9.434 8.892 8.892 0 0 1 1.17-1.813.5.5 0 0 0-.07-.701z" class="cls-6" transform="translate(-4052.249 -2358.987)"/>
                    <path id="패스_4148" d="M4078.775 2341.215h-.006a9.83 9.83 0 0 0-5.23 1.571.5.5 0 0 0 .54.835 8.847 8.847 0 0 1 4.7-1.412.5.5 0 0 0-.006-.994z" class="cls-6" transform="translate(-4069.952 -2341.215)"/>
                </g>
            </g>
            <g id="그룹_2617" transform="translate(3981.509 2279.617)">
                <path id="사각형_1149" d="M2.2 0a2.2 2.2 0 0 1 2.2 2.2v5.465a2.2 2.2 0 0 1-2.2 2.2 2.2 2.2 0 0 1-2.2-2.2V2.2A2.2 2.2 0 0 1 2.2 0z" class="cls-6" transform="rotate(-45 9.872 4.089)"/>
                <path id="사각형_1150" d="M2.2 0h12.623a2.2 2.2 0 0 1 2.2 2.2 2.2 2.2 0 0 1-2.2 2.2H2.2A2.2 2.2 0 0 1 0 2.2 2.2 2.2 0 0 1 2.2 0z" class="cls-6" transform="rotate(-45 16.463 1.358)"/>
            </g>
        </g>
    </g>
</svg>
