<svg xmlns="http://www.w3.org/2000/svg" width="100.002" height="90" viewBox="0 0 100.002 90">
    <defs>
        <style>
            .cls-2{fill:#fff}.cls-3{fill:#bc8877}.cls-4{fill:#b8b8b8}
        </style>
    </defs>
    <g id="그룹_4510" transform="translate(-350.115 -482.206)">
        <g id="그룹_4503" transform="translate(360.632 482.206)">
            <path id="패스_14309" fill="#f6f6f6" d="M447.3 527.205a44.743 44.743 0 1 1-44.742-45 44.873 44.873 0 0 1 44.742 45z" transform="translate(-357.818 -482.206)"/>
        </g>
        <g id="그룹_4504" transform="translate(368.949 501.052)">
            <rect id="사각형_1739" width="69.152" height="48.61" class="cls-2" rx=".6" transform="translate(1.849 1.848)"/>
            <path id="패스_14310" d="M434.829 549.6h-67.674a2.59 2.59 0 0 1-2.588-2.587v-47.136a2.59 2.59 0 0 1 2.588-2.588h67.674a2.59 2.59 0 0 1 2.588 2.588v47.132a2.59 2.59 0 0 1-2.588 2.591zm-66.565-3.7h65.456v-44.914h-65.456z" class="cls-3" transform="translate(-364.567 -497.289)"/>
        </g>
        <path id="패스_14311" d="M433.381 498.231a1.85 1.85 0 0 0-2.611-.113l-26.76 24.535a5.475 5.475 0 0 1-7.163 0l-26.76-24.535a1.848 1.848 0 0 0-2.5 2.725l22.593 20.715-16.11 15.251a1.849 1.849 0 1 0 2.542 2.684l16.3-15.43 1.435 1.316a9.174 9.174 0 0 0 12.161 0l1.793-1.645 15.911 15.731a1.848 1.848 0 1 0 2.6-2.629l-15.782-15.6 22.237-20.39a1.847 1.847 0 0 0 .114-2.615z" class="cls-3" transform="translate(4.945 3.793)"/>
        <g id="그룹_4507" transform="translate(362.112 535.083)">
            <g id="그룹_4505">
                <path id="패스_14312" d="M358.251 525.658l8.107-.659s6.555-.741 10.2 1.116l7.594 3.653s4.07 1.758 2.5 5.57c0 0-1.107 3.228-6.3 1.561a27.824 27.824 0 0 0 12.483 1.39 29.686 29.686 0 0 0 7.873-2.635c3.321-1.8 5.962-1.424 7.36.639 0 0 2.79 3.472-3.758 6.973l-10.836 4.378s-4.7 1.76-12.022.251l-23.2-3.4z" class="cls-2" transform="translate(-356.621 -523.191)"/>
                <path id="패스_14313" d="M387.4 550.268a30.445 30.445 0 0 1-6.152-.646l-23.106-3.378a1.63 1.63 0 0 1-1.394-1.612v-18.84a1.63 1.63 0 0 1 1.5-1.624l8.107-.66v.039c2.428-.511 8.291-.167 11.07 1.248l7.561 3.637a5.84 5.84 0 0 1 3.3 7.658 3.48 3.48 0 0 1-.421.828 24.025 24.025 0 0 0 4.884-.112 28.331 28.331 0 0 0 7.306-2.452c3.969-2.15 7.5-1.73 9.461 1.122a4.886 4.886 0 0 1 .794 3.816c-.428 2.094-2.147 3.959-5.109 5.544a1.624 1.624 0 0 1-.159.074l-10.836 4.378a20.725 20.725 0 0 1-6.806.98zm-27.392-7.045l21.805 3.191c6.8 1.4 11.177-.15 11.22-.166l10.709-4.327c1.929-1.044 3.123-2.189 3.366-3.232a1.654 1.654 0 0 0-.21-1.275c-1.33-1.955-3.881-.959-5.288-.195a31.165 31.165 0 0 1-8.374 2.809 29.332 29.332 0 0 1-13.358-1.482 1.63 1.63 0 0 1 1.1-3.067c3.577 1.15 4.258-.521 4.264-.537a2.7 2.7 0 0 0-1.6-3.546l-7.655-3.681c-2.659-1.354-7.606-1.154-9.3-.965l-.062.005-6.609.538z" class="cls-4" transform="translate(-356.751 -523.323)"/>
            </g>
            <g id="그룹_4506" transform="translate(17.975 9.973)">
                <path id="선_446" d="M4.125 2.106L0 0" class="cls-2" transform="translate(1.631 1.63)"/>
                <path id="패스_14314" d="M379.047 537.867a1.621 1.621 0 0 1-.74-.179l-4.125-2.1a1.63 1.63 0 1 1 1.483-2.9l4.124 2.1a1.631 1.631 0 0 1-.742 3.083z" class="cls-4" transform="translate(-373.293 -532.502)"/>
            </g>
        </g>
        <g id="그룹_4508" transform="translate(350.115 533.308)">
            <path id="패스_14315" d="M359.478 527.242v-4.052H347.21v23.987h12.268v-19.935z" class="cls-2" transform="translate(-345.579 -521.56)"/>
            <path id="패스_14316" d="M359.607 548.936h-12.268a1.63 1.63 0 0 1-1.63-1.63V523.32a1.63 1.63 0 0 1 1.63-1.63h12.268a1.629 1.629 0 0 1 1.63 1.63v23.987a1.63 1.63 0 0 1-1.63 1.629zm-10.639-3.26h9.009V524.95h-9.009z" class="cls-4" transform="translate(-345.709 -521.69)"/>
        </g>
        <g id="그룹_4509" transform="translate(355.997 549.683)">
            <path id="선_447" d="M0 0L0 2.595" class="cls-2" transform="translate(1.521 1.522)"/>
            <path id="패스_14317" d="M352.644 542.5a1.521 1.521 0 0 1-1.521-1.521v-2.6a1.521 1.521 0 1 1 3.042 0v2.6a1.522 1.522 0 0 1-1.521 1.521z" class="cls-3" transform="translate(-351.123 -536.856)"/>
        </g>
    </g>
</svg>
