<svg xmlns="http://www.w3.org/2000/svg" width="90" height="90.001" viewBox="0 0 90 90.001">
    <defs>
        <style>
            .cls-2{fill:#e1e1e1}
        </style>
    </defs>
    <g id="icon-2" transform="translate(-503.745 -540.199)">
        <path id="사각형_203" fill="none" d="M0 0H90V90H0z" transform="translate(503.745 540.199)"/>
        <path id="패스_367" d="M578.725 631.5h-59.96a9.01 9.01 0 0 1-9.02-8.98v-62.547a9.01 9.01 0 0 1 9.02-8.98 1.742 1.742 0 1 1 0 3.484 5.514 5.514 0 0 0-5.52 5.5v62.546a5.514 5.514 0 0 0 5.52 5.5h59.96a5.514 5.514 0 0 0 5.52-5.5v-62.55a5.514 5.514 0 0 0-5.52-5.5 1.742 1.742 0 1 1 0-3.484 9.01 9.01 0 0 1 9.02 8.98v62.546a9.01 9.01 0 0 1-9.02 8.985z" class="cls-2" transform="translate(0 -1.3)"/>
        <path id="패스_368" d="M578.439 623.48h-56.991a1.745 1.745 0 0 1-1.748-1.74v-69.007a1.744 1.744 0 0 1 1.748-1.74h13.267a1.74 1.74 0 1 1 0 3.481H523.2V620h53.5v-65.526h-6.716a1.74 1.74 0 1 1 0-3.481h8.464a1.744 1.744 0 0 1 1.747 1.74v69.007a1.745 1.745 0 0 1-1.756 1.74z" class="cls-2" transform="translate(-1.199 -1.3)"/>
        <path id="패스_369" d="M566.9 561.879h-29.721a1.759 1.759 0 0 1-1.759-1.759V546.5a1.759 1.759 0 0 1 1.759-1.759h7.421a8.361 8.361 0 0 1 14.874 0h7.426a1.759 1.759 0 0 1 1.759 1.759v13.62a1.76 1.76 0 0 1-1.759 1.759zm-27.959-3.518h26.2v-10.1h-6.83a1.758 1.758 0 0 1-1.67-1.209 4.841 4.841 0 0 0-9.2 0 1.759 1.759 0 0 1-1.67 1.209h-6.83z" class="cls-2" transform="translate(-3.294)"/>
        <path id="패스_370" fill="#e1e1e1" stroke="#e1e1e1" d="M563.541 537.148a1.22 1.22 0 0 1-.849-.337l-9.232-8.853a1.119 1.119 0 0 1 0-1.631 1.241 1.241 0 0 1 1.7 0l8.38 8.039 15.516-14.88a1.235 1.235 0 0 1 1.7 0 1.119 1.119 0 0 1 0 1.631l-16.366 15.695a1.225 1.225 0 0 1-.849.336z" transform="translate(-18.362 60.051)"/>
    </g>
</svg>
