<svg xmlns="http://www.w3.org/2000/svg" width="36" height="36" viewBox="0 0 36 36">
    <defs>
        <style>
            .cls-2{fill:#fff}
        </style>
    </defs>
    <g id="icon_4" transform="translate(-229 -373)">
        <circle id="타원_34" cx="18" cy="18" r="18" fill="#5a76ff" transform="translate(229 373)"/>
        <g id="그룹_450" transform="translate(238.837 381.097)">
            <g id="그룹_448" transform="translate(0 8.052)">
                <path id="패스_633" d="M286.454 651.183a5.805 5.805 0 1 1 0-11.61.45.45 0 1 1 0 .9 4.9 4.9 0 1 0 4.9 4.9.45.45 0 0 1 .9 0 5.812 5.812 0 0 1-5.8 5.81z" class="cls-2" transform="translate(-280.649 -639.573)"/>
            </g>
            <g id="그룹_447" transform="translate(4.546 3.809)">
                <path id="패스_632" d="M317.246 628.939a1.656 1.656 0 0 1-1.295-.619l-2.517-3.12H309.5a1.661 1.661 0 0 1-1.577-1.136l-1.956-5.86a1.663 1.663 0 1 1 3.154-1.053l.329.986h3.954a1.663 1.663 0 1 1 0 3.326h-2.843l.138.413h3.529a1.656 1.656 0 0 1 1.294.618l3.016 3.738a1.663 1.663 0 0 1-1.294 2.707zm-9.7-12.023a.766.766 0 0 0-.242.039.763.763 0 0 0-.481.964l1.956 5.86a.761.761 0 0 0 .723.521h4.147a.45.45 0 0 1 .351.168l2.652 3.287a.762.762 0 1 0 1.186-.957l-3.015-3.739a.759.759 0 0 0-.593-.283h-3.854a.451.451 0 0 1-.427-.308l-.438-1.313a.45.45 0 0 1 .427-.593h3.469a.762.762 0 1 0 0-1.524h-4.278a.451.451 0 0 1-.427-.308l-.432-1.293a.761.761 0 0 0-.723-.521z" class="cls-2" transform="translate(-305.883 -616.015)"/>
            </g>
            <g id="그룹_449" transform="translate(3.92)">
                <circle id="타원_26" cx="1.566" cy="1.566" r="1.566" class="cls-2" transform="rotate(-13.34 3.083 .36)"/>
            </g>
        </g>
    </g>
</svg>
