<svg xmlns="http://www.w3.org/2000/svg" width="64" height="64" viewBox="0 0 64 64">
    <defs>
        <style>
            .cls-2{fill:#fff}.cls-3{fill:#555}.cls-4{fill:#fd0}
        </style>
    </defs>
    <g id="icon_loading" transform="translate(-148 -372)">
        <path id="사각형_745" fill="none" d="M0 0H64V64H0z" transform="translate(148 372)"/>
        <g id="그룹_1289" transform="translate(-847.103 -167.372)">
            <g id="그룹_1282" transform="translate(1012.159 571.433)">
                <path id="패스_1193" d="M1011.648 579.108s-1.671-19 13.885-19 13.885 19 13.885 19z" class="cls-2" transform="translate(-1010.589 -559.102)"/>
                <path id="패스_1194" d="M1039.921 580.612h-27.767a1 1 0 0 1-1-.914c-.036-.411-.822-10.109 4.513-15.921a13.441 13.441 0 0 1 10.37-4.174c4.338 0 7.829 1.4 10.371 4.174 5.336 5.812 4.549 15.51 4.513 15.921a1 1 0 0 1-1 .914zm-26.8-2h25.844c.05-2.458-.187-9.292-4.04-13.483a12.981 12.981 0 0 0-17.768 0c-3.857 4.187-4.092 11.021-4.04 13.479z" class="cls-3" transform="translate(-1011.094 -559.604)"/>
            </g>
            <g id="그룹_1283" transform="translate(1012.158 551.208)">
                <path id="패스_1195" d="M1039.419 550.01s1.671 19.523-13.885 19.523-13.885-19.523-13.885-19.523" class="cls-2" transform="translate(-1010.589 -549.009)"/>
                <path id="패스_1196" d="M1026.038 571.037a13.3 13.3 0 0 1-10.25-4.148c-5.465-5.94-4.672-16.037-4.634-16.464a1.036 1.036 0 0 1 1.085-.912 1 1 0 0 1 .916 1.082c-.008.1-.751 9.658 4.118 14.942a12.742 12.742 0 0 0 17.531 0c4.869-5.284 4.125-14.846 4.118-14.942a1 1 0 0 1 .916-1.082 1.04 1.04 0 0 1 1.084.912c.038.427.832 10.524-4.632 16.464a13.31 13.31 0 0 1-10.252 4.148z" class="cls-3" transform="translate(-1011.094 -549.511)"/>
            </g>
            <g id="그룹_1284" transform="translate(1010.034 547.821)">
                <path id="사각형_746" d="M0 0H32.133V3.486H0z" class="cls-2" transform="translate(1.003 1.003)"/>
                <path id="패스_1197" d="M1043.167 553.314h-32.129a1 1 0 0 1-1-1v-3.488a1 1 0 0 1 1-1h32.129a1 1 0 0 1 1 1v3.488a1 1 0 0 1-1 1zm-31.125-2h30.122v-1.483h-30.122z" class="cls-3" transform="translate(-1010.034 -547.821)"/>
            </g>
            <g id="그룹_1285" transform="translate(1010.034 590.435)">
                <path id="사각형_747" d="M0 0H32.133V3.486H0z" class="cls-2" transform="translate(33.136 4.487) rotate(180)"/>
                <path id="패스_1198" d="M1043.167 574.572h-32.129a1 1 0 0 1-1-1v-3.484a1 1 0 0 1 1-1h32.129a1 1 0 0 1 1 1v3.484a1 1 0 0 1-1 1zm-31.125-2h30.122v-1.479h-30.122z" class="cls-3" transform="translate(-1010.034 -569.083)"/>
            </g>
            <g id="그룹_1286" transform="translate(1014.144 563.119)">
                <path id="패스_1199" d="M1012.584 555.954c1.835 4.065 5.331 7.608 11.957 7.608s10.122-3.542 11.959-7.608z" class="cls-4" transform="translate(-1011.582 -554.952)"/>
                <path id="패스_1200" d="M1025.043 565.066c-6 0-10.45-2.835-12.871-8.2a1 1 0 0 1 .916-1.413H1037a1 1 0 0 1 .916 1.413c-2.423 5.366-6.874 8.2-12.873 8.2zm-10.311-7.608c2.184 3.721 5.646 5.6 10.311 5.6s8.125-1.882 10.311-5.6z" class="cls-3" transform="translate(-1012.084 -555.454)"/>
            </g>
            <g id="그룹_1288" transform="translate(1012.161 580.001)">
                <g id="그룹_1287">
                    <path id="패스_1201" d="M1013.087 564.378a26.72 26.72 0 0 0-1.439 10.436h27.771a26.7 26.7 0 0 0-1.437-10.436z" class="cls-4" transform="translate(-1010.592 -563.376)"/>
                    <path id="패스_1202" d="M1039.92 576.321h-27.767a1 1 0 0 1-1-.914 27.516 27.516 0 0 1 1.5-10.881 1 1 0 0 1 .94-.647h24.89a1 1 0 0 1 .94.647 27.474 27.474 0 0 1 1.5 10.881 1 1 0 0 1-1.003.914zm-26.807-2h25.846a26.079 26.079 0 0 0-1.185-8.433H1014.3a25.916 25.916 0 0 0-1.187 8.428z" class="cls-3" transform="translate(-1011.095 -563.878)"/>
                </g>
            </g>
        </g>
    </g>
</svg>
