<svg xmlns="http://www.w3.org/2000/svg" width="20" height="20" viewBox="0 0 20 20">
    <defs>
        <style>
            .cls-3{fill:#555}
        </style>
    </defs>
    <g id="icon_money" transform="translate(-597.946 -735.889)">
        <circle id="타원_477" cx="10" cy="10" r="10" fill="#fd0" transform="translate(597.946 735.889)"/>
        <path id="패스_14677" fill="#e6c800" d="M607.946 755.889a10 10 0 1 1 10-10 10.011 10.011 0 0 1-10 10zm0-19.058a9.059 9.059 0 1 0 9.059 9.058 9.068 9.068 0 0 0-9.059-9.058z"/>
        <g id="그룹_4813" transform="translate(601.561 742.405)">
            <path id="패스_14678" d="M614.595 749h-11.828a.471.471 0 1 1 0-.942h11.828a.471.471 0 1 1 0 .942z" class="cls-3" transform="translate(-602.295 -744.435)"/>
            <path id="패스_14679" d="M611.358 751.906a.473.473 0 0 1-.446-.318l-2.049-5.951-2.048 5.951a.473.473 0 0 1-.446.318.472.472 0 0 1-.446-.318l-2.493-7.247a.471.471 0 1 1 .891-.306l2.047 5.951 2.048-5.951a.471.471 0 0 1 .891 0l2.049 5.951 2.049-5.951a.471.471 0 0 1 .891.306l-2.495 7.247a.472.472 0 0 1-.443.318z" class="cls-3" transform="translate(-602.479 -743.716)"/>
        </g>
    </g>
</svg>
