<svg xmlns="http://www.w3.org/2000/svg" width="14" height="12" viewBox="0 0 14 12">
  <g id="iconList" transform="translate(-696.393 -603.077)">
    <path id="패스_16375" data-name="패스 16375" d="M709.873,604.338H696.912a.642.642,0,0,1,0-1.261h12.961a.642.642,0,0,1,0,1.261Z" transform="translate(0)" fill="#777"/>
    <path id="패스_16376" data-name="패스 16376" d="M709.873,608.745H696.912a.643.643,0,0,1,0-1.262h12.961a.643.643,0,0,1,0,1.262Z" transform="translate(0 0.963)" fill="#777"/>
    <path id="패스_16377" data-name="패스 16377" d="M709.873,613.151H696.912a.642.642,0,0,1,0-1.261h12.961a.642.642,0,0,1,0,1.261Z" transform="translate(0 1.926)" fill="#777"/>
  </g>
</svg>
