<svg xmlns="http://www.w3.org/2000/svg" xmlns:xlink="http://www.w3.org/1999/xlink" width="154" height="228" viewBox="0 0 154 228">
    <defs>
        <linearGradient id="linear-gradient" x2="1" y1=".5" y2=".5" gradientUnits="objectBoundingBox">
            <stop offset="0" stop-color="#f9e79d"/>
            <stop offset="1" stop-color="#efdc81"/>
        </linearGradient>
        <linearGradient id="linear-gradient-2" x1="-81.686" x2="-81.637" y1="-4.231" y2="-4.231" xlink:href="#linear-gradient"/>
        <clipPath id="clip-path">
            <rect id="_20200721_Carenation_0531" width="154" height="228" fill="#e4e4e4" rx="14" transform="translate(186 302)"/>
        </clipPath>
        <style>
            .cls-3{fill:none}.cls-4{fill:#efdc81}.cls-5{fill:#c1c1c1}.cls-6{fill:#d5d5d5}.cls-7{fill:url(#linear-gradient)}.cls-11{fill:#f1cd92}.cls-12{fill:#876d59}.cls-15{fill:#3d2614}.cls-16{fill:#87503d}
        </style>
    </defs>
    <g id="마스크_그룹_26" clip-path="url(#clip-path)" transform="translate(-186 -302)">
        <g id="그룹_3578" transform="translate(-1168.896 -650.698)">
            <g id="그룹_3576" transform="translate(1418.877 1063.612)">
                <path id="패스_14076" d="M1471.027 1196.644l.1-1.812q-.647-.219-1.274-.468z" class="cls-4" transform="translate(-1452.042 -1154.966)"/>
                <path id="패스_14077" d="M1523.863 1347.553a3.54 3.54 0 0 0 3.509 1.738 3.444 3.444 0 0 0 3.053-2.558 11.437 11.437 0 0 1-3.432.909 11.68 11.68 0 0 1-3.13-.089z" class="cls-5" transform="translate(-1490.617 -1263.801)"/>
                <path id="패스_14078" d="M1493.127 1308.607a1.239 1.239 0 0 1-.243 0l.1.967a10.521 10.521 0 0 0 .225 1.309 1.229 1.229 0 0 1 .321-.085l20.926-2.325a10.826 10.826 0 0 0-.059-1.156l-.113-1.07c-.03.005-.059.016-.089.019z" class="cls-6" transform="translate(-1468.489 -1234.883)"/>
                <path id="패스_14079" d="M1504.732 1330.528a11.684 11.684 0 0 0 3.13.09 11.429 11.429 0 0 0 3.432-.91 10.2 10.2 0 0 0 5.848-6.81l-20.063 2.229a10.47 10.47 0 0 0 7.653 5.401z" class="cls-6" transform="translate(-1471.485 -1246.776)"/>
                <path id="패스_14080" d="M1491.135 1292.274l.245 2.322a1.247 1.247 0 0 1 .231-.049l21.07-2.341h.1l-.231-2.19-.452.048-20.507 2.162z" class="cls-6" transform="translate(-1467.239 -1223.289)"/>
                <path id="패스_14081" d="M1490.034 1300.018a1.26 1.26 0 0 0-.231.049 1.24 1.24 0 0 0 .5 2.417l21.069-2.341c.031 0 .06-.013.089-.019a1.234 1.234 0 0 0-.258-2.448h-.1z" class="cls-5" transform="translate(-1465.662 -1228.76)"/>
                <path id="패스_14082" d="M1492.066 1316.392a1.237 1.237 0 0 0 .589 2.381l.282-.031 20.063-2.229.724-.081a1.24 1.24 0 0 0-.267-2.466l-.144.016-20.926 2.325a1.217 1.217 0 0 0-.321.085z" class="cls-5" transform="translate(-1467.344 -1240.391)"/>
                <path id="패스_14083" d="M1587.262 1193.1l.026-.056a2.8 2.8 0 0 1-.932-.672 1.768 1.768 0 0 1-.183-.247l-.039-.071-.012-.024-.031.013-.025.01.012.026a2.416 2.416 0 0 0 1.184 1.021z" transform="translate(-1535.046 -1153.299)"/>
                <path id="패스_14084" d="M1586.656 1195.166l.015-.06a1.909 1.909 0 0 1-.895-.556 2.783 2.783 0 0 1-.242-.291c-.055-.077-.083-.125-.083-.125l-.029.017-.025.015.015.024a2.279 2.279 0 0 0 1.244.976z" transform="translate(-1534.57 -1154.802)"/>
                <path id="패스_14085" d="M1586.6 1197.748l.008-.061a2.019 2.019 0 0 1-.9-.4 3 3 0 0 1-.273-.23c-.064-.061-.1-.1-.1-.1l-.032.028-.014.013.017.018a2.45 2.45 0 0 0 1.294.732z" transform="translate(-1534.494 -1156.818)"/>
                <path id="패스_14086" d="M1439.212 1104.974q.626.249 1.274.468l.969-16.791.471-.087 6.857 15.169 2.4-8.946 6.085 10.3-.243-21.1.479-.087 5.371 14.816 7.995-1.223a16.319 16.319 0 0 0 3.761-11.957c-1.1-10.311-12.641-17.535-25.783-16.136s-22.905 10.893-21.807 21.2a16.233 16.233 0 0 0 5.906 10.658l4.017-.669z" class="cls-7" transform="translate(-1421.396 -1065.576)"/>
                <path id="패스_14087" d="M1452.932 1180.912l-3.235.539a22.639 22.639 0 0 0 5.054 3.008z" class="cls-4" transform="translate(-1437.641 -1145.358)"/>
                <path id="패스_14088" fill="url(#linear-gradient-2)" d="M1452.932 1180.912l-3.235.539a22.639 22.639 0 0 0 5.054 3.008z" transform="translate(-1437.641 -1145.358)"/>
                <path id="패스_14089" fill="#fff" d="M1451.826 1141.362l2.264 4.414.2-3.491.918-15.92 7.013 15.513 2.451-9.145 5.846 9.892.581.984-.013-1.136-.235-20.362 5.013 13.83 7.848-1.2 2.288-.35-.074-.488-1.741.266-7.995 1.222-5.371-14.816-.479.087.244 21.1-6.085-10.3-2.4 8.946-6.857-15.169-.471.088-.969 16.791-.1 1.811-1.169-2.28-2.251-4.389-4.017.669-.663.11.081.487 1.089-.181 3.235-.539z" transform="translate(-1434.715 -1102.26)"/>
                <path id="패스_14090" d="M1467.62 1093.5a27.256 27.256 0 0 0 .746-9.841c-.042-.385-.094-.768-.15-1.148a30.5 30.5 0 0 0-60.625 2.839s-1.182 9.846 4.983 17.719a33.893 33.893 0 0 0 11.567 10.386l-.113.031a4.606 4.606 0 0 1 .711.382c1.112.7 3.3 2.511 4.918 6.546l2.193 4.994 20.507-2.162.921-5.827a14.574 14.574 0 0 1 .284-1.684 12.176 12.176 0 0 1 .424-1.432 10.544 10.544 0 0 1 .522-1.2 9.261 9.261 0 0 1 .58-.981 6.3 6.3 0 0 1 .6-.782c.191-.2.37-.412.578-.6s.431-.365.654-.537l.327-.25a3.209 3.209 0 0 0 .3-.261l.6-.6a34.805 34.805 0 0 0 4.181-4.681 33.58 33.58 0 0 0 1.926-2.914c3.018-4.825 3.37-7.997 3.366-7.997zm-18.257 1.025q.848-.442 1.647-.935-.799.492-1.647.934zm-.711-4.373l-5.014-13.83.235 20.362.013 1.136-.581-.983-5.846-9.892-2.451 9.145-7.013-15.513-.919 15.92-.2 3.491-.867-1.691-.035-10.8-3.229-4.494-8.617-.339-.748.307a14.98 14.98 0 0 1-.235-1.482c-1.1-10.311 8.665-19.805 21.807-21.2s24.686 5.825 25.783 16.136a16.321 16.321 0 0 1-3.761 11.958l1.741-.266.074.488-2.288.35z" class="cls-7" transform="translate(-1407.5 -1056.472)"/>
            </g>
            <g id="그룹_3577" transform="translate(1463.141 1072.371)">
                <path id="패스_14091" d="M1653.043 1370.47l.026-.037a.066.066 0 0 0-.026.037z" class="cls-3" transform="translate(-1627.764 -1282.664)"/>
                <path id="패스_14092" fill="#574937" d="M1620.931 1116.207l.355-.019a1.232 1.232 0 0 0 .5-.854l.107-.63c.019-.169.032-.336.041-.492h-.017l.013-.055a2.9 2.9 0 0 1-2.028-3.572l.446-2.275a3.124 3.124 0 0 1 .94-1.69c.641.038 2.375.275 2.959 1.72.736 1.821.622 4.084.792 5.446a5.636 5.636 0 0 0 .255 1.107c.187.8-.2 1.309.172 2.073a2.631 2.631 0 0 0 .635.78 3.023 3.023 0 0 1 .8.869 2.158 2.158 0 0 0 1.928 1.336c.985.061 1.562-1.144 2.787-.354v-.1c.106.113.211.232.314.357a2.011 2.011 0 0 0 .1-2.133c-.306-.577-.91-.911-.756-1.6a5.106 5.106 0 0 0 .328-2.092c-.143-.733-.721-1.1-1.249-1.58a9.3 9.3 0 0 1-1.424-2.323c-.011-.122-.024-.243-.039-.359a4.676 4.676 0 0 0-3.762-4.571s-2.229-.412-3.463.748l-.011-.015s-1.594-.368-1.644 1.941c0 0-.315 4.087-.5 4.592a9.271 9.271 0 0 0-.72 3.648c.011.192.019.364.027.529a6.939 6.939 0 0 1 2.1-.37z" transform="translate(-1604.84 -1105.12)"/>
                <path id="패스_14093" d="M1578.65 1288.969a10.789 10.789 0 0 0-.427 2.706c-.012 2.714 2.265 22.275 2.265 22.275l.016.019-1.457 2.359h.008a.105.105 0 0 0-.018.02c-.023.04-.006.118.469.119 1.083 0 3.5-2.05 3.537-2.083l-.331-.651.037-.58c.077-.191.151-.4.223-.649a79.254 79.254 0 0 0 2.866-20.408s.323-.825.862-2.16a49.594 49.594 0 0 1-7.795-1.979l-.255 1.012z" class="cls-11" transform="translate(-1577.696 -1227.474)"/>
                <path id="패스_14094" d="M1577.968 1369.8a.107.107 0 0 1 .018-.02h-.008c-.084.03-1.677.6-1.292 1.23a3.1 3.1 0 0 0 2.434.1 7.028 7.028 0 0 0 1.809-1.448l.1 1.205h.607a8.24 8.24 0 0 0 .452-1.5 1.891 1.891 0 0 0-.117-1.532c-.038.032-2.454 2.085-3.537 2.082-.472.002-.489-.076-.466-.117z" class="cls-12" transform="translate(-1576.629 -1280.926)"/>
                <path id="패스_14095" d="M1665.66 1365.141l-.048-.077c.01.031.02.062.028.092z" class="cls-11" transform="translate(-1636.176 -1279.072)"/>
                <path id="패스_14096" d="M1630.056 1320.574l-.026.037c-.008.042.052.1.469.124 1.035.049 3.376-1.86 3.615-2.057l-.661-1.063-.823-4.106c-.9-4.652-2.818-12.514-6.028-16.132a8.774 8.774 0 0 1 .2-1.287 56.283 56.283 0 0 1-8.14-.166 10 10 0 0 0 .144 1.147c.129.658.751 2.348.751 2.348l12 19.033-1.493 2.119z" class="cls-11" transform="translate(-1604.751 -1232.805)"/>
                <path id="패스_14097" d="M1654.444 1364.874c-.008-.03-.018-.062-.028-.092-.015-.046-.031-.092-.051-.14l-.024.02c-.239.2-2.58 2.107-3.614 2.057-.417-.02-.477-.083-.469-.125a.065.065 0 0 1 .026-.037c-.015 0-1.717.513-1.352 1.172a3.1 3.1 0 0 0 2.427.21 7.025 7.025 0 0 0 1.872-1.365l.051 1.209.606.026s.3-.921.491-1.714a2.333 2.333 0 0 0 .065-1.221z" class="cls-12" transform="translate(-1624.98 -1278.789)"/>
                <path id="패스_14098" fill="#ceb4e2" d="M1600.764 1238.146c.231-.012.461-.023.693-.038 0 0 2.6-11.115 2.838-13.569a26.306 26.306 0 0 0-.2-7.128c-.114-.993-.4-3.38-.777-5.437l-14.62-2.64a44.7 44.7 0 0 1-3.979 6.434c-.658 1.793-1.33 3.757-1.875 5.637-1.346 4.647-3.083 13.876-3.083 13.876l.174.063a49.59 49.59 0 0 0 7.795 1.979c1.478.261 3.123.493 4.9.657a56.3 56.3 0 0 0 8.134.166z" transform="translate(-1578.722 -1174.859)"/>
                <path id="패스_14099" fill="#e3e3e3" d="M1608.83 1157.356c3.7-.261 7.719-.551 7.735-.578a29.458 29.458 0 0 0 1.4-3.593l-.244-.087.014-.039c.241-.67.842-2.715 1.071-3.37l.078.027c-.224.639-.807 2.622-1.058 3.331l.169.06-.021.059 5.184 1.824c-1.5 3.141-3.05 6.052-5.01 6.55-1.988.5-7-.067-10.784-.623q-.287.615-.594 1.22l14.62 2.64a3.237 3.237 0 0 1 .1-.838c1.106-3.96 3.353-10.383 3.692-11.843 1.162-5.009.141-7.968-1.294-9.7-.1-.125-.208-.245-.314-.357v.1c-1.225-.789-1.8.415-2.787.354a2.159 2.159 0 0 1-1.928-1.336 3.025 3.025 0 0 0-.8-.869l-6 2.858.816-4.335a6.946 6.946 0 0 0-2.1.37l-.1.036c.075.51.144 1.022.2 1.54a37.124 37.124 0 0 1-2.045 16.599zm14.624-2.241l-.016.034-.035-.013-.249-.09.028-.078.214.078c.61-1.26 1.085-2.4 1.453-3.385l.077.029c-.372.997-.853 2.148-1.472 3.425z" transform="translate(-1596.799 -1127.662)"/>
                <path id="패스_14100" d="M1627.581 1119.986c-.37-.763.015-1.277-.172-2.073a5.632 5.632 0 0 1-.255-1.107c-.17-1.362-.055-3.625-.792-5.446-.584-1.445-2.319-1.682-2.959-1.72a3.125 3.125 0 0 0-.94 1.69l-.446 2.275a2.905 2.905 0 0 0 2.028 3.573l.006-.026s.043.01.122.021a2.338 2.338 0 0 0 .326.022 2.034 2.034 0 0 0 1.55-.661l.061.055a2.116 2.116 0 0 1-1.611.689 2.156 2.156 0 0 1-.452-.043c-.009.156-.022.323-.041.492l-.107.631a1.232 1.232 0 0 1-.5.854l-.355.019-.01.057-.816 4.335 6-2.858a2.628 2.628 0 0 1-.637-.779zm-5.057-7.969a.269.269 0 1 1 .231.3.267.267 0 0 1-.231-.3zm.594 1.192l.223-1.3.131.023-.231 1.348-.017.016-.2.181.248.168-.074.109-.389-.263zm.274 1.62c-.44-.058-.431-.6-.431-.6a.932.932 0 0 0 .983.13.474.474 0 0 1-.552.47zm1.309-2.375a.268.268 0 1 1 .231.3.269.269 0 0 1-.232-.3z" class="cls-11" transform="translate(-1606.956 -1108.146)"/>
                <path id="패스_14101" d="M1628.714 1131.226a2.115 2.115 0 0 0 1.611-.689l-.061-.055a2.034 2.034 0 0 1-1.55.661 2.323 2.323 0 0 1-.326-.022c-.079-.011-.122-.022-.122-.021l-.006.026-.013.055h.017a2.159 2.159 0 0 0 .45.045z" transform="translate(-1611.17 -1122.092)"/>
                <path id="패스_14102" d="M1624.218 1116.424a.268.268 0 1 0-.3.231.268.268 0 0 0 .3-.231z" class="cls-15" transform="translate(-1608.117 -1112.482)"/>
                <path id="패스_14103" d="M1630.8 1117.742a.268.268 0 1 0-.3.231.269.269 0 0 0 .3-.231z" class="cls-15" transform="translate(-1612.521 -1113.363)"/>
                <path id="패스_14104" d="M1625 1118.226l-.248-.169.2-.181.017-.015.231-1.348-.131-.023-.223 1.3-.313.279.389.264z" class="cls-16" transform="translate(-1608.69 -1112.729)"/>
                <path id="패스_14105" d="M1625.011 1123.5s-.009.544.431.6a.474.474 0 0 0 .551-.472.932.932 0 0 1-.982-.128z" class="cls-16" transform="translate(-1609.006 -1117.422)"/>
                <path id="패스_14106" d="M1657.99 1177.665c-.368.986-.843 2.124-1.453 3.385l-.214-.077-.028.078.249.09.035.013.016-.034c.619-1.277 1.1-2.428 1.472-3.425z" transform="translate(-1629.941 -1153.667)"/>
                <path id="패스_14107" d="M1640.126 1175.183l.021-.059-.169-.06c.251-.709.834-2.692 1.058-3.331l-.078-.027c-.229.655-.83 2.7-1.071 3.37l-.014.039.244.087.007-.02z" transform="translate(-1618.951 -1149.679)"/>
                <path id="패스_14108" d="M1599.139 1190.589c1.96-.5 3.506-3.409 5.01-6.55l-5.184-1.824-.007.02a29.482 29.482 0 0 1-1.4 3.593c-.017.027-4.038.317-7.735.578-2.5.177-4.856.34-5.717.4-.383-.6-1.578-2.376-2.166-2.222 0 0-.3.5.376 1.328.248.3.059.53-.082.494s-2.02-.066-2.825-1.33c0 0-.576-.366-.651.059a1.138 1.138 0 0 1-.051.158l.042-.018.016.033c.011.022.028.054.053.095a2.348 2.348 0 0 0 .246.331 3.748 3.748 0 0 0 1.25.9l-.035.075a3.239 3.239 0 0 1-1.589-1.367 5.764 5.764 0 0 0-.238.763l.039-.023s.038.065.111.167a3.624 3.624 0 0 0 .324.39 2.557 2.557 0 0 0 1.2.745l-.02.08a3.058 3.058 0 0 1-1.666-1.309 2.835 2.835 0 0 0-.042 1.044l.043-.038s.047.052.133.134a4 4 0 0 0 .366.308 2.7 2.7 0 0 0 1.2.537l-.011.082a3.282 3.282 0 0 1-1.73-.982c-.1.577.292.831.739 1.155 1.432 1.036 2.751 1.325 5.049.9.769.136 2.323.4 4.168.674 3.785.552 8.796 1.125 10.784.62z" class="cls-11" transform="translate(-1577.79 -1156.71)"/>
            </g>
        </g>
    </g>
</svg>
