<svg xmlns="http://www.w3.org/2000/svg" xmlns:xlink="http://www.w3.org/1999/xlink" width="154" height="180" viewBox="0 0 154 180">
  <defs>
    <clipPath id="clip-path">
      <rect id="_20200721_Carenation_0531" data-name="20200721_Carenation_0531" width="154" height="180" rx="14" transform="translate(186 434)" fill="#f6f6f6"/>
    </clipPath>
  </defs>
  <g id="img_xfile" transform="translate(-186 -434)" clip-path="url(#clip-path)">
    <g id="그룹_6392" data-name="그룹 6392" transform="translate(-214.791 311.782)">
      <rect id="사각형_2645" data-name="사각형 2645" width="2.42" height="4.212" rx="1.21" transform="translate(510.981 216.941)" fill="#fef3eb"/>
      <rect id="사각형_2646" data-name="사각형 2646" width="2.42" height="4.212" rx="1.21" transform="translate(511.478 216.941)" fill="#fedec9"/>
      <g id="그룹_6373" data-name="그룹 6373" transform="translate(506.586 229.325)">
        <path id="패스_16652" data-name="패스 16652" d="M571.837,261.319H555.929a2.394,2.394,0,0,1-2.378-2.67l1.9-16.393a3.484,3.484,0,0,1,3.233-3.131h15.564a2.634,2.634,0,0,1,2.5,3.131l-1.9,16.376A3.038,3.038,0,0,1,571.837,261.319Z" transform="translate(-537.067 -239.126)" fill="#889"/>
        <g id="그룹_6370" data-name="그룹 6370" transform="translate(0.357 34.148)">
          <path id="패스_16653" data-name="패스 16653" d="M529.435,293.458a.621.621,0,0,0-1.242,0v27.976a3.7,3.7,0,0,0,3.693,3.694h28.106a.621.621,0,1,0,0-1.242H531.886a2.454,2.454,0,0,1-2.451-2.452Z" transform="translate(-528.193 -292.837)" fill="#889"/>
        </g>
        <g id="그룹_6371" data-name="그룹 6371" transform="translate(27.763 20.189)">
          <path id="패스_16654" data-name="패스 16654" d="M571.922,287.122a.62.62,0,0,0,.614-.533l2.165-15a.62.62,0,1,0-1.228-.177l-2.165,15a.619.619,0,0,0,.526.7A.52.52,0,0,0,571.922,287.122Z" transform="translate(-571.301 -270.882)" fill="#889"/>
        </g>
        <path id="패스_16655" data-name="패스 16655" d="M529.308,292.016h28.954a1.912,1.912,0,0,1,0,3.778H529.247a1.829,1.829,0,0,1-1.585-2.263A1.732,1.732,0,0,1,529.308,292.016Z" transform="translate(-527.632 -258.39)" fill="#727284"/>
        <path id="패스_16657" data-name="패스 16657" d="M569.386,261.319H551a2.6,2.6,0,0,1-2.579-2.9l1.878-16.168a3.484,3.484,0,0,1,3.233-3.131H569.1a2.634,2.634,0,0,1,2.505,3.131Z" transform="translate(-535.198 -239.126)" fill="#727284"/>
      </g>
      <g id="그룹_6374" data-name="그룹 6374" transform="translate(504.851 288.831)">
        <path id="패스_16658" data-name="패스 16658" d="M528.1,332.722l1.013,5.867-2.4.208-1.084-1.247.129-.25L524.9,333Z" transform="translate(-524.902 -332.722)" fill="#fdd9c0"/>
      </g>
      <path id="패스_16659" data-name="패스 16659" d="M520.776,316.191h4.035a.7.7,0,0,0,.662-.9,80.019,80.019,0,0,1-3.5-25.592,4.145,4.145,0,0,0,.572.012l.315,0a18.586,18.586,0,0,1-6.706-5.6,6.469,6.469,0,0,0-1.877,4.406c-.221,4.225.781,9.086,1.422,13.258.685,4.452,2.654,9.332,4.232,13.818A.888.888,0,0,0,520.776,316.191Z" transform="translate(-16.171 -26.187)" fill="#fef3eb"/>
      <g id="그룹_6376" data-name="그룹 6376" transform="translate(489.748 231.294)">
        <path id="패스_16660" data-name="패스 16660" d="M506.492,253.641l2.073,1.333.88-1.745-2.272-.939Z" transform="translate(-503.094 -245.889)" fill="#fdd2b5"/>
        <g id="그룹_6375" data-name="그룹 6375">
          <path id="패스_16661" data-name="패스 16661" d="M504.023,251.08a2.634,2.634,0,0,0-.97-.242.153.153,0,0,0-.1.277c.147.1.555.323.526.505-.014.089-.139.1-.228.077q-.616-.126-1.226-.285a.446.446,0,0,0-.554.157.739.739,0,0,0-.181,1.058,2.9,2.9,0,0,0,1.169,1.16,3.324,3.324,0,0,0,2.886-.87c.268-.321.423-.97-.078-1.174A10.146,10.146,0,0,1,504.023,251.08Z" transform="translate(-501.147 -245.36)" fill="#fdd2b5"/>
          <path id="패스_16662" data-name="패스 16662" d="M523.122,242.318a.718.718,0,0,0-1.013.319,2.207,2.207,0,0,0-.155.538c0,.033-.836,8.432-.836,8.432a1.438,1.438,0,0,1-1.911,1.216,54.439,54.439,0,0,1-9.137-3.977.721.721,0,0,0-.984.3l-.955,1.794a.725.725,0,0,0,.221.938,4.86,4.86,0,0,0,.535.318c4.33,3.262,13.872,9.564,16.046,8.436l.138-.071c.113-.058.219-.113.32-.172,1.28-.751,1.719-1.944,3.612-14.192a.732.732,0,0,0-.358-.747Z" transform="translate(-503.659 -242.222)" fill="#ef9f9f"/>
        </g>
      </g>
      <path id="패스_16663" data-name="패스 16663" d="M488.57,308.479l10.12-62h-1.7l-10.12,62Z" transform="translate(-6.198 -12.478)" fill="#9495be"/>
      <rect id="사각형_2647" data-name="사각형 2647" width="18.616" height="0.766" transform="translate(484.29 279.536)" fill="#9495be"/>
      <rect id="사각형_2648" data-name="사각형 2648" width="20.705" height="0.766" transform="translate(503.769 287.885) rotate(180)" fill="#9495be"/>
      <path id="패스_16664" data-name="패스 16664" d="M523.955,288.318c4.265.044,14.014.144,18.114-.2,4.8-.4.475-7.641-4.36-7.76-6.068-.15-6.273,0-13.455-.059a12.951,12.951,0,0,0-2.353.193,8.672,8.672,0,0,0-4.652,2.226A18.586,18.586,0,0,0,523.955,288.318Z" transform="translate(-17.264 -24.795)" fill="#fef3eb"/>
      <g id="그룹_6377" data-name="그룹 6377" transform="translate(519.466 288.868)">
        <path id="패스_16665" data-name="패스 16665" d="M547.891,332.8l3.187-.017,1.449,4.711-.317,1.26-1.687.009-1.266-1.339.6-.323Z" transform="translate(-547.891 -332.78)" fill="#fdd9c0"/>
      </g>
      <path id="패스_16666" data-name="패스 16666" d="M556.618,281.1c0-.024-11.9.679-18,1.964-3.843.809-7.932,2.663-8.271,6.6Z" transform="translate(-22.033 -25.088)" fill="#fef3eb"/>
      <path id="패스_16667" data-name="패스 16667" d="M530.33,289.665a6.4,6.4,0,0,0-.011.928c.368,4.169,2.3,8.79,3.712,12.777a66.082,66.082,0,0,0,5.277,11.272,1.482,1.482,0,0,0,1.278.726h4.356a.639.639,0,0,0,.555-.943c-6-11.454-6.847-19.046-7.231-22.185a1.417,1.417,0,0,1,1.239-1.586c2.021-.252,5.794-.722,9.814-1.346a8.459,8.459,0,0,0,7.286-8.21Z" transform="translate(-22.02 -25.088)" fill="#fef3eb"/>
      <g id="그룹_6378" data-name="그룹 6378" transform="translate(508.634 255.875)">
        <path id="패스_16668" data-name="패스 16668" d="M531.012,288.189a.161.161,0,0,1-.058-.011.158.158,0,0,1-.089-.206c1.223-3.111,5.039-4.513,8.025-5.143,6.184-1.3,17.632-1.938,17.746-1.944a.161.161,0,0,1,.167.15.159.159,0,0,1-.15.168c-.114.006-11.536.641-17.7,1.938-2.909.612-6.624,1.968-7.8,4.948A.159.159,0,0,1,531.012,288.189Z" transform="translate(-530.853 -280.885)" fill="#fedec9"/>
      </g>
      <path id="패스_16669" data-name="패스 16669" d="M556.607,265.942a1.64,1.64,0,0,0,.368-.767,5.5,5.5,0,0,0-.066-2.97,69.16,69.16,0,0,1-3.011-18.415,6.751,6.751,0,0,0-5.987-6.513c-4.567-.615-10.305-1.033-12.583.292-5.285,2.352-3.894,5.492-3.894,5.492,6.92,10.125,4.661,13.372,5.8,19.514a3.011,3.011,0,0,0,2.713,2.455c4.676.369,8.879,2.068,15.077,1.309a2.908,2.908,0,0,0,1.579-.4Z" transform="translate(-22.37 -8.915)" fill="#ef9f9f"/>
      <g id="그룹_6379" data-name="그룹 6379" transform="translate(510.133 236.521)">
        <path id="패스_16670" data-name="패스 16670" d="M538.069,267.778a.159.159,0,0,1-.155-.123,21.916,21.916,0,0,1-.43-3.949c-.151-3.233-.324-6.9-4.248-13.018a.159.159,0,1,1,.268-.171c3.97,6.192,4.144,9.9,4.3,13.174a21.559,21.559,0,0,0,.422,3.893.16.16,0,0,1-.119.191A.167.167,0,0,1,538.069,267.778Z" transform="translate(-533.211 -250.443)" fill="#dc6f6f"/>
      </g>
      <g id="그룹_6380" data-name="그룹 6380" transform="translate(515.767 227.389)">
        <path id="패스_16671" data-name="패스 16671" d="M543.666,240.813q1.549-1.018,3.123-2c.676-.422.943-1.162.585-1.619a2.757,2.757,0,0,0-2.188-1.113c-1.08-.017-3.147.493-3.114,1.6a20.553,20.553,0,0,0,.221,2.832C542.351,241.049,543.066,241.206,543.666,240.813Z" transform="translate(-542.072 -236.08)" fill="#ffdbc2"/>
      </g>
      <g id="그룹_6383" data-name="그룹 6383" transform="translate(469.85 217.366)">
        <rect id="사각형_2649" data-name="사각형 2649" width="4.966" height="3.505" transform="translate(25.115 4.277)" fill="#9495be"/>
        <rect id="사각형_2650" data-name="사각형 2650" width="4.966" height="3.505" transform="translate(23.629 4.277)" fill="#a8a9c7"/>
        <g id="그룹_6382" data-name="그룹 6382" transform="translate(0 7.089)">
          <path id="패스_16672" data-name="패스 16672" d="M497.99,232.257h21.05a1.184,1.184,0,0,1,1.184,1.184v8.429a1.184,1.184,0,0,1-1.184,1.184H497.99Z" transform="translate(-480.1 -231.754)" fill="#9495be"/>
          <path id="사각형_2651" data-name="사각형 2651" d="M1.127,0h4.8A1.127,1.127,0,0,1,7.059,1.127V9.694a1.127,1.127,0,0,1-1.127,1.127h-4.8A1.128,1.128,0,0,1,0,9.693V1.127A1.127,1.127,0,0,1,1.127,0Z" transform="translate(15.104 0.479)" fill="#a8a9c7"/>
          <rect id="사각형_2652" data-name="사각형 2652" width="11.796" height="9.288" rx="1.127" transform="translate(9.055 2.025)" fill="#9495be"/>
          <g id="그룹_6381" data-name="그룹 6381">
            <rect id="사각형_2653" data-name="사각형 2653" width="9.195" height="11.317" rx="3.589" transform="translate(2.408)" fill="#a8a9c7"/>
            <rect id="사각형_2654" data-name="사각형 2654" width="9.195" height="11.317" rx="3.589" fill="#9495be"/>
            <rect id="사각형_2665" data-name="사각형 2665" width="4.982" height="7.104" rx="2.491" transform="translate(2.107 2.107)" fill="#a8a9c7"/>
          </g>
          <path id="패스_16673" data-name="패스 16673" d="M509.623,242.52h10.909a1.515,1.515,0,0,0,1.514-1.515v-4.912a1.514,1.514,0,0,0-1.514-1.514H509.623Z" transform="translate(-484.337 -232.6)" fill="#a8a9c7"/>
          <rect id="사각형_2655" data-name="사각형 2655" width="2.183" height="7.988" rx="1.091" transform="translate(24.195 1.979)" fill="#9495be"/>
        </g>
        <rect id="사각형_2656" data-name="사각형 2656" width="10.503" height="4.806" rx="1.786" transform="translate(32.609 4.807) rotate(180)" fill="#a8a9c7"/>
        <path id="패스_16674" data-name="패스 16674" d="M523.321,218.836c0-.3-.339-.544-.757-.544H516.47c-.687,0-1.249.323-1.249.718v3.37c0,.395.562.718,1.249.718h6.094c.418,0,.757-.243.757-.544Z" transform="translate(-487.993 -218.292)" fill="#9495be"/>
      </g>
      <path id="패스_16675" data-name="패스 16675" d="M538.374,262.121l2.432.4.113-1.951-2.458.042Z" transform="translate(-24.958 -17.61)" fill="#fdd2b5"/>
      <path id="패스_16676" data-name="패스 16676" d="M550.017,241.906a.612.612,0,0,0-.705.7,2.409,2.409,0,0,0,.149.555c.014.032,3.72,8.069,3.72,8.069a1.258,1.258,0,0,1-1.006,1.876,54.738,54.738,0,0,1-9.967-.013.613.613,0,0,0-.691.664l.122,2.025a.864.864,0,0,0,.684.772,5.209,5.209,0,0,0,.629.079c5.448,1.27,16.988,3.254,18.267,1.355l.081-.121c.067-.1.13-.191.186-.285.708-1.2.457-2.467-4.36-14.457a.879.879,0,0,0-.7-.542Z" transform="translate(-26.102 -10.811)" fill="#ef9f9f"/>
      <g id="그룹_6384" data-name="그룹 6384" transform="translate(515.224 233.641)">
        <path id="패스_16677" data-name="패스 16677" d="M557.659,260.55c-4.52,0-11.971-1.466-14.881-2.144a4.61,4.61,0,0,1-.622-.079,1.022,1.022,0,0,1-.813-.919l-.123-2.024a.785.785,0,0,1,.231-.619.8.8,0,0,1,.634-.213l.189.017a55.547,55.547,0,0,0,9.753,0,1.053,1.053,0,0,0,.851-.5,1.222,1.222,0,0,0,.022-1.147l-3.123-6.775a.159.159,0,1,1,.288-.133l3.124,6.775a1.53,1.53,0,0,1-.037,1.441,1.362,1.362,0,0,1-1.1.659,55.725,55.725,0,0,1-9.8,0l-.188-.017a.462.462,0,0,0-.384.125.467.467,0,0,0-.135.372l.123,2.025a.7.7,0,0,0,.555.625,4.8,4.8,0,0,0,.608.078c6.007,1.4,15.453,2.857,17.732,1.734a.159.159,0,0,1,.141.285A7.593,7.593,0,0,1,557.659,260.55Z" transform="translate(-541.219 -245.913)" fill="#dc6f6f"/>
      </g>
      <path id="패스_16678" data-name="패스 16678" d="M532.923,256.821a.345.345,0,0,1-.472-.121l-5.07-8.6a.344.344,0,1,1,.593-.35l5.07,8.6A.345.345,0,0,1,532.923,256.821Z" transform="translate(-20.937 -12.879)" fill="#9495be"/>
      <g id="그룹_6388" data-name="그룹 6388" transform="translate(512.147 212.218)">
        <path id="패스_16679" data-name="패스 16679" d="M549.989,217.653a1.84,1.84,0,0,1,.524,1.453,5.9,5.9,0,0,0-.186.627,1.775,1.775,0,0,0,.357,1,1.049,1.049,0,0,1,.131,1.019c-.176.294-.577.38-.783.655-.3.406-.116,1.126-.563,1.369-.184.1-.426.074-.593.2-.235.179-.2.565-.423.762a.55.55,0,0,1-.637.022,1.3,1.3,0,0,1-.436-.515,1.752,1.752,0,0,1-.25-1.242c.127-.492.572-.824.876-1.231a2.049,2.049,0,0,0,.16-2.272c-.144-.224-.338-.411-.492-.628a1.019,1.019,0,0,1-.223-.744,1.938,1.938,0,0,1,.335-.633.69.69,0,0,0,.1-.681c-.056-.1-.152-.17-.2-.271-.146-.277.091-.522.355-.565s.387.082.57.24A10.5,10.5,0,0,1,549.989,217.653Z" transform="translate(-540.281 -213.584)" fill="#878080"/>
        <path id="패스_16680" data-name="패스 16680" d="M536.378,215.2c0-.492.079-1.019.471-1.212a3.847,3.847,0,0,0,.507-.195c.238-.165.27-.518.324-.83s.187-.64.5-.661.651.253.965.267c.465.021.751-.523,1.224-.3.2.093.359.3.557.364.279.089.485-.146.763-.079a.777.777,0,0,1,.483.5,1.2,1.2,0,0,1,.018.629,1.116,1.116,0,0,1-.548.879,3.412,3.412,0,0,1-1.374-.026,1.311,1.311,0,0,0-1.459,1.114c-.026.237.007.495-.007.736a.681.681,0,0,1-.275.585,1.479,1.479,0,0,1-.622.079c-.214.011-.437.085-.473.3-.016.1.012.214-.008.312-.057.267-.376.212-.6.025a.818.818,0,0,1-.279-.586A10.348,10.348,0,0,1,536.378,215.2Z" transform="translate(-536.378 -212.218)" fill="#878080"/>
        <path id="패스_16681" data-name="패스 16681" d="M539.721,218.924h3.844a.3.3,0,0,0,.3-.3v-2.047a.6.6,0,0,0-.6-.6h-3.548a1.45,1.45,0,0,0-1.445,1.445v.061A1.449,1.449,0,0,0,539.721,218.924Z" transform="translate(-537.069 -213.586)" fill="#fdd2b5"/>
        <path id="패스_16682" data-name="패스 16682" d="M549.131,224.108a4,4,0,0,1-.765,1.364,2.747,2.747,0,0,1-.8-1.93,1.362,1.362,0,0,0,.408-1.08c0-.644-.3-1.165-.673-1.162-.028,0-.052.02-.079.029l2.486-2.234A8.842,8.842,0,0,1,549.131,224.108Z" transform="translate(-540.33 -214.723)" fill="#878080"/>
        <g id="그룹_6385" data-name="그룹 6385" transform="translate(6.97 6.639)">
          <path id="패스_16683" data-name="패스 16683" d="M548.315,222.661a1.2,1.2,0,1,1-.975,1.188A1.1,1.1,0,0,1,548.315,222.661Z" transform="translate(-547.34 -222.661)" fill="#fdd2b5"/>
        </g>
        <g id="그룹_6386" data-name="그룹 6386" transform="translate(0.495 2.634)">
          <path id="패스_16684" data-name="패스 16684" d="M538.573,216.361a3.858,3.858,0,0,0-1.417,3l.015,3.088a3.394,3.394,0,0,0,3.4,3.671,3.964,3.964,0,0,0,4.043-3.707l-.015-2.986Z" transform="translate(-537.156 -216.361)" fill="#ffdbc2"/>
        </g>
        <g id="그룹_6387" data-name="그룹 6387" transform="translate(4.1 7.799)">
          <path id="패스_16685" data-name="패스 16685" d="M546.429,233.513l-2.849.014a.725.725,0,0,1-.716-.729l-.037-7.562a.725.725,0,0,1,.709-.736l2.849-.014a.724.724,0,0,1,.716.729l.037,7.562A.725.725,0,0,1,546.429,233.513Z" transform="translate(-542.827 -224.486)" fill="#ffdbc2"/>
        </g>
        <path id="패스_16686" data-name="패스 16686" d="M541.568,227.349c-.026.243-.168.54-.755.628,0,0-.861.1-.788-.476Z" transform="translate(-537.704 -217.729)" fill="#fff"/>
        <path id="패스_16687" data-name="패스 16687" d="M542.176,220.772h.844a.224.224,0,1,1,0,.448h-.844a.224.224,0,0,1,0-.448Z" transform="translate(-538.408 -215.334)" fill="#878080"/>
        <path id="패스_16688" data-name="패스 16688" d="M536.944,220.772h.844a.224.224,0,1,1,0,.448h-.844a.224.224,0,1,1,0-.448Z" transform="translate(-536.502 -215.334)" fill="#878080"/>
        <path id="패스_16689" data-name="패스 16689" d="M537.976,222.173c0,.22.116.4.259.4s.259-.178.259-.4-.116-.4-.259-.4S537.976,221.953,537.976,222.173Z" transform="translate(-536.96 -215.699)" fill="#594f4f"/>
        <ellipse id="타원_1" data-name="타원 1" cx="0.259" cy="0.398" rx="0.259" ry="0.398" transform="translate(4.181 6.136)" fill="#594f4f"/>
        <path id="패스_16690" data-name="패스 16690" d="M539.6,224.359l.032-.074a.445.445,0,0,0,.318.373l.439.122a.337.337,0,0,0,.369-.139l.009.043a.349.349,0,0,1-.435.409l-.439-.122A.451.451,0,0,1,539.6,224.359Z" transform="translate(-537.539 -216.613)" fill="#fcbc90"/>
        <path id="패스_16691" data-name="패스 16691" d="M539.585,215.935a5.693,5.693,0,0,1,4.147-.341l-.938.8Z" transform="translate(-537.546 -213.366)" fill="#fdd2b5"/>
        <path id="패스_16692" data-name="패스 16692" d="M537.389,216.822s.847-.772,2.936-.378,1.392,2.815,3.693,3.209l1.12-.242-.394-4.178s-4.208-3.148-7.235.424Z" transform="translate(-536.746 -212.85)" fill="#878080"/>
        <path id="패스_16693" data-name="패스 16693" d="M546.524,216.523a4.671,4.671,0,0,0-3.958-3.615,5.251,5.251,0,0,0-4.987,2.354Z" transform="translate(-536.815 -212.455)" fill="#878080"/>
      </g>
      <path id="패스_16694" data-name="패스 16694" d="M535.057,260.407a2.609,2.609,0,0,0-.985.163.153.153,0,0,0,.021.292c.176.036.638.075.684.254.023.088-.09.143-.178.162q-.615.131-1.238.227c-.267.041-.341.092-.446.364a.739.739,0,0,0,.255,1.043,2.9,2.9,0,0,0,1.534.6,3.326,3.326,0,0,0,2.3-1.947c.118-.4,0-1.058-.539-1.047A10.238,10.238,0,0,1,535.057,260.407Z" transform="translate(-22.93 -17.551)" fill="#fdd2b5"/>
      <rect id="사각형_2657" data-name="사각형 2657" width="2.42" height="4.212" rx="1.21" transform="translate(518.63 216.941)" fill="#fef3eb"/>
      <rect id="사각형_2658" data-name="사각형 2658" width="2.42" height="4.212" rx="1.21" transform="translate(519.127 216.941)" fill="#fedec9"/>
      <g id="그룹_6389" data-name="그룹 6389" transform="translate(516.542 212.477)">
        <path id="패스_16695" data-name="패스 16695" d="M547.144,218.162a.161.161,0,0,1-.159-.167c.177-3.675-3.551-5.048-3.588-5.062a.159.159,0,1,1,.107-.3c.039.014,3.988,1.462,3.8,5.376A.16.16,0,0,1,547.144,218.162Z" transform="translate(-543.291 -212.625)" fill="#fedec9"/>
      </g>
      <g id="그룹_6390" data-name="그룹 6390" transform="translate(516.839 292.108)">
        <path id="패스_16696" data-name="패스 16696" d="M544.546,339.766,550,337.911c.269-.092.6.008.654.2l.889,3.008c.052.175-.159.339-.441.342l-5.864.063C543.7,341.537,543.183,340.23,544.546,339.766Z" transform="translate(-543.758 -337.877)" fill="#a7a2a2"/>
        <rect id="사각형_2659" data-name="사각형 2659" width="0.397" height="1.174" rx="0.198" transform="translate(4.139 1.57) rotate(162.938)" fill="#889"/>
        <rect id="사각형_2660" data-name="사각형 2660" width="0.397" height="1.174" rx="0.198" transform="translate(3.28 1.813) rotate(162.944)" fill="#889"/>
        <rect id="사각형_2661" data-name="사각형 2661" width="0.397" height="1.174" rx="0.198" transform="translate(2.465 2.086) rotate(162.938)" fill="#889"/>
      </g>
      <g id="그룹_6391" data-name="그룹 6391" transform="translate(501.859 292.386)">
        <path id="패스_16697" data-name="패스 16697" d="M520.984,340.2l5.456-1.856c.269-.091.6.008.654.2l.89,3.008c.051.175-.16.339-.441.341l-5.865.063C520.138,341.974,519.621,340.668,520.984,340.2Z" transform="translate(-520.196 -338.314)" fill="#a7a2a2"/>
        <rect id="사각형_2662" data-name="사각형 2662" width="0.397" height="1.174" rx="0.198" transform="translate(4.138 1.57) rotate(162.938)" fill="#c0cfd6"/>
        <rect id="사각형_2663" data-name="사각형 2663" width="0.397" height="1.174" rx="0.198" transform="translate(3.28 1.813) rotate(162.938)" fill="#c0cfd6"/>
        <rect id="사각형_2664" data-name="사각형 2664" width="0.397" height="1.174" rx="0.198" transform="translate(2.464 2.086) rotate(162.938)" fill="#889"/>
      </g>
      <path id="패스_16698" data-name="패스 16698" d="M518.842,308.461l-10.12-62h1.7l10.12,62Z" transform="translate(-14.158 -12.472)" fill="#9495be"/>
    </g>
  </g>
</svg>
