<svg xmlns="http://www.w3.org/2000/svg" width="154" height="107" viewBox="0 0 154 107">
    <defs>
        <clipPath id="j85w9ptioa">
            <rect width="154" height="107" fill="#def5ff" rx="14" transform="translate(20 530)"/>
        </clipPath>
    </defs>
    <g clip-path="url(#j85w9ptioa)" transform="translate(-20 -530)">
        <g>
            <g>
                <path fill="#ffeaae" d="M145.346 194.529c-11.238 0-20.789 3.434-24.283 8.218l17.653 3.316 3.756.705.269.051 1.129.212.516.1.135-.091.322-.218.075-.051 1.623-1.1 13.333-9a47.443 47.443 0 0 0-14.528-2.142z" transform="translate(9.82 371.993) translate(108.638 194.529) translate(-121.063 -194.529)"/>
                <path fill="#f9d687" d="M121.063 228.53v26.7l23.557 4.993V232.91z" transform="translate(9.82 371.993) translate(108.638 194.529) translate(-121.063 -220.312)"/>
                <path fill="#e2b266" d="M233.046 203.391v27.491l-15.254 10.279-.234-27.362z" transform="translate(9.82 371.993) translate(108.638 194.529) translate(-194.235 -201.249)"/>
            </g>
            <g>
                <path fill="#9a624f" d="M218.687 311.245v8.161l31.542 7.93v-8.356z" transform="translate(9.82 371.993) translate(132.234 212.489) translate(-218.687 -300.994)"/>
                <path fill="#db5858" d="M352.59 317.99v7.41s-.6 5.58-3.4 7.048v-8.356a10.247 10.247 0 0 0 3.4-6.102z" transform="translate(9.82 371.993) translate(132.234 212.489) translate(-317.644 -306.109)"/>
                <g>
                    <path fill="#a16f5e" d="M234.61 268.946q-.473-.06-.954-.111l-14.969 10.251 31.571 7.679a11.508 11.508 0 0 0 1.967-2.057 6.739 6.739 0 0 0 1.408-3.992c0-5.646-8.073-10.394-19.023-11.77z" transform="translate(9.82 371.993) translate(132.234 212.489) translate(-218.687 -268.835)"/>
                </g>
            </g>
            <g>
                <path fill="#427ab7" d="M104.677 362.92v9.38c0 8.165 13.9 14.784 31.049 14.784 12.667 0 22.552-3.14 27.382-8.319v-9.377z" transform="translate(9.82 371.993) translate(104.677 228.493) translate(-104.677 -356.183)"/>
                <path fill="#5698d8" d="M108.081 335.047c-2.176 2.02-3.4 4.311-3.4 6.737 0 8.165 13.9 14.785 31.049 14.785 12.667 0 22.552-3.141 27.382-8.319z" transform="translate(9.82 371.993) translate(104.677 228.493) translate(-104.677 -335.047)"/>
            </g>
            <g>
                <path fill="#c2c8cc" d="M128 336.666l-23.322-2.58v6.433a9.323 9.323 0 0 0 3.134 6.575 31.574 31.574 0 0 0 7.765 5.8v-6.643c4.205-3.064 8.371-6.208 12.423-9.585z" transform="translate(9.82 371.993) translate(104.677 221.332) translate(-104.677 -327.157)"/>
                <path fill="#ebf2f7" d="M108.178 305.419c-2.238 2.078-3.5 4.433-3.5 6.929 0 4.705 4.488 8.91 11.537 11.7l15.579-12.384c.181-.161.368-.307.556-.445z" transform="translate(9.82 371.993) translate(104.677 221.332) translate(-104.677 -305.419)"/>
                <path fill="#9ba1aa" d="M166.269 329.412v6.735l-16.86 13.2v-7.109z" transform="translate(9.82 371.993) translate(104.677 221.332) translate(-138.597 -323.613)"/>
            </g>
        </g>
    </g>
</svg>
