<svg xmlns="http://www.w3.org/2000/svg" xmlns:xlink="http://www.w3.org/1999/xlink" width="154" height="116" viewBox="0 0 154 116">
  <defs>
    <clipPath id="clip-path">
      <rect id="_20200721_Carenation_0531" data-name="20200721_Carenation_0531" width="154" height="116" rx="14" transform="translate(20 422)" fill="#ffe9e9"/>
    </clipPath>
  </defs>
  <g id="img_info" transform="translate(-20 -422)" clip-path="url(#clip-path)">
    <g id="그룹_6346" data-name="그룹 6346" transform="translate(490.831 250.427)">
      <g id="그룹_3460" data-name="그룹 3460" transform="translate(-384.963 256.403)">
        <path id="패스_13500" data-name="패스 13500" d="M-236.645,367.185c0,3-1.578,5.484-4.364,5.879h4.019c2.786-.394,4.364-2.875,4.364-5.879,0-3.278-1.878-5.936-5.156-5.936H-241.8C-238.523,361.249-236.645,363.906-236.645,367.185Z" transform="translate(276.747 -361.249)" fill="#dedede"/>
        <path id="패스_13501" data-name="패스 13501" d="M-216.179,367.185c0,3-1.578,5.484-4.364,5.879h14.095c2.786-.394,4.364-2.875,4.364-5.879,0-3.278-1.878-5.936-5.156-5.936h-14.095C-218.057,361.249-216.179,363.906-216.179,367.185Z" transform="translate(261.277 -361.249)" fill="#dedede"/>
        <path id="패스_13502" data-name="패스 13502" d="M-154.438,367.185c0,3-1.578,5.484-4.364,5.879h2.685c2.786-.394,4.364-2.875,4.364-5.879,0-3.278-1.878-5.936-5.156-5.936h-2.685C-156.316,361.249-154.438,363.906-154.438,367.185Z" transform="translate(214.607 -361.249)" fill="#dedede"/>
        <path id="패스_13503" data-name="패스 13503" d="M-158.438,367.185c0,3-1.578,5.484-4.364,5.879h.976c2.786-.394,4.364-2.875,4.364-5.879,0-3.278-1.878-5.936-5.156-5.936h-.976C-160.316,361.249-158.438,363.906-158.438,367.185Z" transform="translate(217.631 -361.249)" fill="#c1c1c1"/>
        <path id="패스_13504" data-name="패스 13504" d="M-220.179,367.185c0,3-1.578,5.484-4.364,5.879h.976c2.786-.394,4.364-2.875,4.364-5.879,0-3.278-1.878-5.936-5.156-5.936h-.976C-222.057,361.249-220.179,363.906-220.179,367.185Z" transform="translate(264.301 -361.249)" fill="#c1c1c1"/>
        <path id="패스_13505" data-name="패스 13505" d="M-345.374,373.063h1.746c2.786-.394,4.364-2.875,4.364-5.879,0-3.278-1.878-5.936-5.156-5.936h-33.139v1.818h33.139c2.27,0,3.338,1.847,3.338,4.118s-1.068,4.117-3.338,4.117h-33.139v1.818h8.641a5.62,5.62,0,0,1,.792-.056Z" transform="translate(379.366 -361.249)" fill="#c1c1c1"/>
        <path id="패스_13506" data-name="패스 13506" d="M-344.42,376.931c2.27,0,3.338-1.847,3.338-4.117s-1.068-4.118-3.338-4.118h-33.139s1.172.9,1.172,4.186-1.172,4.049-1.172,4.049Z" transform="translate(379.366 -366.878)" fill="#fff"/>
        <path id="패스_13507" data-name="패스 13507" d="M-357.248,415.594c0-3.278,1.878-5.935,5.156-5.935h.976c-3.278,0-5.156,2.657-5.156,5.935,0,3.148,1.733,5.723,4.774,5.921h13.558c-3.041-.2-4.775-2.773-4.775-5.921,0-3.278,1.878-5.935,5.156-5.935h.976c-3.278,0-5.156,2.657-5.156,5.935,0,3.148,1.733,5.723,4.775,5.921h4.673c-3.179-.085-5-2.707-5-5.931,0-3.278,1.878-5.936,5.156-5.936h-22.752a5.62,5.62,0,0,0-.792.056c-2.786.395-4.364,2.876-4.364,5.879,0,3.224,1.818,5.846,5,5.931h2.568C-355.514,421.316-357.248,418.742-357.248,415.594Z" transform="translate(366.122 -397.834)" fill="#eaba53"/>
        <path id="패스_13508" data-name="패스 13508" d="M-347.631,415.625c0-3.278,1.878-5.935,5.156-5.935h-.976c-3.278,0-5.156,2.657-5.156,5.935,0,3.148,1.733,5.723,4.774,5.921h.976C-345.9,421.348-347.631,418.773-347.631,415.625Z" transform="translate(357.482 -397.865)" fill="#ffd685"/>
        <path id="패스_13509" data-name="패스 13509" d="M-288.088,415.625c0-3.278,1.878-5.935,5.156-5.935h-.976c-3.278,0-5.156,2.657-5.156,5.935,0,3.148,1.733,5.723,4.775,5.921h.976C-286.354,421.348-288.088,418.773-288.088,415.625Z" transform="translate(312.473 -397.865)" fill="#ffd685"/>
        <path id="패스_13510" data-name="패스 13510" d="M-261.675,419.7c-2.27,0-3.338-1.847-3.338-4.117s1.068-4.118,3.338-4.118h33.139v-1.818h-33.139c-3.278,0-5.156,2.658-5.156,5.936,0,3.224,1.818,5.846,5,5.931h26.147c.054,0,.106,0,.159,0h6.992V419.7Z" transform="translate(295.667 -397.834)" fill="#f7ca66"/>
        <path id="패스_13511" data-name="패스 13511" d="M-222.906,417.1h-33.139c-2.27,0-3.338,1.847-3.338,4.117s1.068,4.117,3.338,4.117h33.139s-1.172-.766-1.172-4.049S-222.906,417.1-222.906,417.1Z" transform="translate(290.037 -403.464)" fill="#fff"/>
        <path id="패스_13512" data-name="패스 13512" d="M-242.651,458.263c4.139,0,6.51,3.355,6.51,7.493s-2.371,7.493-6.51,7.493h25.242c4.139,0,6.51-3.355,6.51-7.493,0-4.085-2.311-7.4-6.351-7.489-.053,0-.105,0-.159,0Zm17.291,12.794h-9.6a10.161,10.161,0,0,0,1.341-5.244,10.059,10.059,0,0,0-1.472-5.457h9.469a7.045,7.045,0,0,1,2.236,5.457A7.28,7.28,0,0,1-225.36,471.057Z" transform="translate(277.39 -434.582)" fill="#72c1a2"/>
        <path id="패스_13513" data-name="패스 13513" d="M-343.714,465.756c0-4.138-2.371-7.493-6.51-7.493h-34.739v2.3h34.739c2.866,0,4.214,2.332,4.214,5.2s-1.348,5.2-4.214,5.2h-34.739v2.3h34.739C-346.086,473.25-343.714,469.895-343.714,465.756Z" transform="translate(384.963 -434.582)" fill="#84d3b1"/>
        <path id="패스_13514" data-name="패스 13514" d="M-350.224,478.061c2.866,0,4.214-2.332,4.214-5.2s-1.348-5.2-4.214-5.2h-34.739s1.48,1.14,1.48,5.285-1.48,5.112-1.48,5.112Z" transform="translate(384.963 -441.689)" fill="#fff"/>
        <path id="패스_13515" data-name="패스 13515" d="M-202.225,466.835h-9.469a10.058,10.058,0,0,1,1.472,5.457,10.161,10.161,0,0,1-1.341,5.244h9.6a7.28,7.28,0,0,0,1.971-5.244A7.045,7.045,0,0,0-202.225,466.835Z" transform="translate(253.989 -441.061)" fill="#84d3b1"/>
      </g>
      <g id="그룹_3462" data-name="그룹 3462" transform="translate(-371.897 215.235)">
        <g id="그룹_3461" data-name="그룹 3461" transform="translate(0)">
          <path id="패스_13516" data-name="패스 13516" d="M-282.475,306.033a13.581,13.581,0,0,0-.615,1.74,1.131,1.131,0,0,0,.14.107,1.036,1.036,0,0,1,.594-.268C-282.4,307.072-282.435,306.542-282.475,306.033Z" transform="translate(293.688 -280.73)" fill="none"/>
          <path id="패스_13517" data-name="패스 13517" d="M-219.886,307.141a12.748,12.748,0,0,0-.884-1.83c-.049.571-.1,1.17-.149,1.783h.732A1.077,1.077,0,0,1-219.886,307.141Z" transform="translate(250.247 -280.225)" fill="none"/>
          <path id="패스_13518" data-name="패스 13518" d="M-219.992,296.848l.008.015-.011.006,0,.02,2.692-1.509Z" transform="translate(249.602 -273.286)" fill="none"/>
          <path id="패스_13519" data-name="패스 13519" d="M-261.082,228.991a.833.833,0,0,1-.315-.324c-.253-.432-.239-.91.03-1.067a.435.435,0,0,1,.36-.021l0-.076.543,1.071s.148-.783.583-2.2a8.313,8.313,0,0,0,2.7-.567,3.917,3.917,0,0,0,1.345-.753c.014-.015.025-.032.038-.047a2.329,2.329,0,0,0,.292-2.269c-.267-.573-1.071-.713-1.679-.693a2.714,2.714,0,0,0-1.434.717,2.705,2.705,0,0,1-1.443.715,2.755,2.755,0,0,0-1.191.518c-.511.243-2.374,1.387-.876,4.648l.184.005c.1.543.222,1.154.379,1.848l0-.005.45-.991Z" transform="translate(279.437 -222.04)" fill="#3d2614"/>
          <path id="패스_13520" data-name="패스 13520" d="M-241.869,237.554a.272.272,0,0,0,.145-.355.271.271,0,0,0-.355-.145.27.27,0,0,0-.145.355A.272.272,0,0,0-241.869,237.554Z" transform="translate(265.148 -232.515)" fill="#3d2614"/>
          <path id="패스_13521" data-name="패스 13521" d="M-239.781,246.476a.4.4,0,0,0,.285.111.635.635,0,0,0,.234-.049.061.061,0,0,0,.034-.078.06.06,0,0,0-.078-.034.509.509,0,0,1-.189.041.282.282,0,0,1-.2-.078l-.045-.054-.01-.017,0,0a.06.06,0,0,0-.079-.031.06.06,0,0,0-.031.08A.383.383,0,0,0-239.781,246.476Z" transform="translate(263.488 -238.976)" fill="#87503d"/>
          <path id="패스_13522" data-name="패스 13522" d="M-250.068,255.054l1.477.987.011.008-.008-.427-.005-.3Z" transform="translate(270.614 -245.108)" fill="#d3aa71"/>
          <path id="패스_13523" data-name="패스 13523" d="M-243.844,364.269c.983.413,2.738,1.867,3.986.991-.284-.327-1.069-1.291-1.708-2.054-2.089.281-3.761.48-4.4.554C-244.779,364.046-243.85,364.267-243.844,364.269Z" transform="translate(267.745 -320.679)" fill="#5b4740"/>
          <path id="패스_13524" data-name="패스 13524" d="M-288.343,341.947a19.2,19.2,0,0,0-3.069-.364l0,.075a19.135,19.135,0,0,1,3.077.366Z" transform="translate(299.504 -305.57)"/>
          <path id="패스_13525" data-name="패스 13525" d="M-255.367,350.2c.628.213,1.19.412,1.66.581s.838.307,1.1.4l.364.139-.16.4.1-.045.159-.4-.036-.014s-1.2-.468-2.95-1.068Z" transform="translate(274.317 -311.589)"/>
          <path id="패스_13526" data-name="패스 13526" d="M-262.664,358.865a4.856,4.856,0,0,1-1.717.479c-.828-.386-1.218-.742-1.955.054-.5.544-.468.564-1.02,1.2v0c-.432.5-.963,1.134-1.36,1.6,1.173.9,2.924-.451,3.907-.864.007,0,1.229-.292,2.654-.639Z" transform="translate(283.645 -317.646)" fill="#5b4740"/>
          <path id="패스_13527" data-name="패스 13527" d="M-278.539,327.879c-1.506-.845-4.318-1.235-7.205-1.395-.6.355-1.26.715-1.95,1.07l-.469,4.165c1.231-.509,2.312-.949,3.02-1.221l.027.07c-.715.275-1.81.72-3.057,1.236l-.205,1.824h-4.146c-1.964.83-3.711,1.576-4.474,1.9l-.378.161.14.519-.073.02-.157-.582.03-.013s2.154-.923,4.718-2.007h-6.369c1.755.6,2.949,1.068,2.95,1.068l.036.014-.159.4-.1.045.16-.4-.364-.139c-.258-.1-.632-.237-1.1-.4s-1.032-.368-1.66-.581h-7.588l-.194-2.152a19.139,19.139,0,0,0-3.077-.366v-.075a19.2,19.2,0,0,1,3.069.364l-.33-3.666c-.773-.38-1.519-.767-2.2-1.152-3.08.255-6.064.957-7.691,2.555-1.125,1.1-1.082,3.219-.668,4.731a4.444,4.444,0,0,0,1.919,2.281c1.573,1.267,9.057,1.688,14.1,1.828.552-.637.516-.657,1.02-1.2.737-.8,1.127-.44,1.955-.054a4.858,4.858,0,0,0,1.717-.479l.508,1.832.017.062.277-.032c.635-.074,2.308-.273,4.4-.554,5.014-.674,12.426-1.819,13.653-2.832a4.445,4.445,0,0,0,1.718-2.437A4.476,4.476,0,0,0-278.539,327.879Z" transform="translate(318.27 -295.02)" fill="#bc8877"/>
          <path id="패스_13528" data-name="패스 13528" d="M-218.364,341.117c1.247-.516,2.343-.962,3.057-1.236l-.027-.07c-.708.272-1.789.712-3.02,1.221Z" transform="translate(248.461 -304.331)"/>
          <path id="패스_13529" data-name="패스 13529" d="M-249.182,352.207l-.03.013.157.582.073-.02-.14-.519.378-.161c.763-.326,2.511-1.072,4.474-1.9h-.194C-247.028,351.284-249.182,352.207-249.182,352.207Z" transform="translate(270.016 -311.591)"/>
          <path id="패스_13530" data-name="패스 13530" d="M-218.973,293.451l-2.692,1.509-.719.4c.23.419.424.773.59,1.08a12.753,12.753,0,0,1,.884,1.83,1.1,1.1,0,0,1,.12.038l.967-.624.041.063-.931.6a1.008,1.008,0,0,1,.529,1.013l-.51,4.527c.69-.356,1.349-.715,1.95-1.07a8.758,8.758,0,0,0,2.988-2.425c1-1.782-.349-4.527-1.726-7.76l-.007-.017Z" transform="translate(251.27 -271.357)" fill="#f1cd92"/>
          <path id="패스_13531" data-name="패스 13531" d="M-223.607,298.005l-.026-.052-.775.392-.7-1.309-.066.035.731,1.375.829-.42.011-.006Z" transform="translate(253.217 -274.443)"/>
          <path id="패스_13532" data-name="패스 13532" d="M-290.385,271.8l.012-.036.151.052.7-1.314.066.035-.728,1.37-.031-.01-.182-.062.012-.036c-.328.605-.568,1.1-.75,1.523.041.509.08,1.039.119,1.579a1.058,1.058,0,0,1,.125-.013h17.87c.051-.613.1-1.212.149-1.783-.166-.307-.36-.661-.59-1.08l.719-.4v-.02l-.829.42-.731-1.375.066-.035.7,1.31.775-.392.026.052,2.687-1.468,1.484-.832.007.017.018-.01a32.341,32.341,0,0,0-3.644-6.442l-.025.023c-2.111-2.875-5.6-3.523-7.523-3.652-.043.444-.345,1.887-2.479,1.942-2.282.06-2.7-1.462-2.767-1.875a9.488,9.488,0,0,0-7.3,4.11,27.817,27.817,0,0,0-3.2,5.752l.018.01.007-.017Z" transform="translate(302.348 -248.016)" fill="#fff"/>
          <path id="패스_13533" data-name="패스 13533" d="M-296.624,299.037a1.04,1.04,0,0,1,.33-.86,1.134,1.134,0,0,1-.14-.107,13.565,13.565,0,0,1,.615-1.74c.182-.419.422-.917.75-1.523l-5.073-2.661-.007.017c-1.359,3.241-2.692,5.993-1.683,7.769a9.784,9.784,0,0,0,3.428,2.653c.685.385,1.43.772,2.2,1.152Zm.129-.926-1.326-.846.041-.064,1.326.846Z" transform="translate(307.031 -271.026)" fill="#f1cd92"/>
          <rect id="사각형_1585" data-name="사각형 1585" width="0.075" height="1.572" transform="translate(9.211 26.238) rotate(-57.446)"/>
          <path id="패스_13534" data-name="패스 13534" d="M-216.084,309.5l-.041-.063-.967.624c.027.012.051.027.077.04Z" transform="translate(247.572 -283.111)"/>
          <path id="패스_13535" data-name="패스 13535" d="M-263.054,312.37a1.008,1.008,0,0,0-.529-1.013c-.026-.014-.05-.029-.077-.04a1.109,1.109,0,0,0-.12-.038,1.076,1.076,0,0,0-.3-.047h-18.6a1.07,1.07,0,0,0-.125.013,1.037,1.037,0,0,0-.594.268,1.04,1.04,0,0,0-.331.86l.424,4.7.33,3.666.007.078.194,2.152h18.53l.205-1.824.01-.086.469-4.165Zm-10.458,4.007a.608.608,0,0,1,.664.53.609.609,0,0,1-.664.531.608.608,0,0,1-.663-.531A.608.608,0,0,1-273.511,316.377Z" transform="translate(294.139 -284.362)" fill="#424f75"/>
          <path id="패스_13536" data-name="패스 13536" d="M-257.885,242.054c2.134-.055,2.436-1.5,2.479-1.942.008-.08.008-.132.008-.132l-.6-.1v-.037l-1.478-.988,1.476.27.005.3,0-.339a2.9,2.9,0,0,0,2.333-3.294l0-.024.762-.443-1.087-1.644a14.394,14.394,0,0,0-.39-1.806c-.013.015-.025.032-.038.047a3.916,3.916,0,0,1-1.345.753,8.315,8.315,0,0,1-2.7.567c-.435,1.422-.583,2.2-.583,2.2l-.543-1.071,0,.076a.435.435,0,0,0-.36.021c-.269.157-.283.635-.03,1.067a.833.833,0,0,0,.315.324l-.027.5-.45.991-.05,2.637-.475.078s0,.04.014.1C-260.582,240.592-260.167,242.113-257.885,242.054Zm3.52-5.834a.06.06,0,0,1,.079.031l0,0,.01.017.045.054a.282.282,0,0,0,.2.078.51.51,0,0,0,.189-.041.06.06,0,0,1,.078.034.061.061,0,0,1-.034.078.635.635,0,0,1-.234.049.4.4,0,0,1-.285-.111.383.383,0,0,1-.084-.114A.06.06,0,0,1-254.366,236.219Zm-.585-2.769a.271.271,0,0,1,.355.145.272.272,0,0,1-.145.355.272.272,0,0,1-.356-.146A.27.27,0,0,1-254.951,233.451Z" transform="translate(278.02 -228.913)" fill="#f1cd92"/>
          <path id="패스_13537" data-name="패스 13537" d="M-251.335,329.374a.609.609,0,0,0,.664-.531.608.608,0,0,0-.664-.53.608.608,0,0,0-.663.53A.608.608,0,0,0-251.335,329.374Z" transform="translate(271.963 -296.298)" fill="#b3b3b3"/>
          <path id="패스_13538" data-name="패스 13538" d="M-278.419,298.066l.03.01.729-1.371-.066-.035-.7,1.314-.151-.052-.012.036-.012.036Z" transform="translate(290.551 -274.188)"/>
          <path id="패스_13539" data-name="패스 13539" d="M3.736,5.35l-.781-.628a4.277,4.277,0,0,1,.672-.877A6.434,6.434,0,0,1,4.841,2.817c.178-.138.7-.451.85-.768a.837.837,0,0,0-.073-.827A.908.908,0,0,0,4.751.949c-.409.1-.657.447-.89,1.1a3.174,3.174,0,0,1-.578,1.1,1.992,1.992,0,0,1-.9.572,1.848,1.848,0,0,1-.918.037,1.787,1.787,0,0,1-.812-.41A2.04,2.04,0,0,1,0,1.9,1.824,1.824,0,0,1,.6.528a1.855,1.855,0,0,1,.925-.5,1.71,1.71,0,0,1,.831.049,2.158,2.158,0,0,1,.776.43l-.627.682,0,0A1.256,1.256,0,0,0,2.064.96a.811.811,0,0,0-.827.241.907.907,0,0,0-.31.688,1.114,1.114,0,0,0,.345.769.894.894,0,0,0,.847.177c.232-.069.593-.312.847-1.024a3.242,3.242,0,0,1,.622-1.2A1.883,1.883,0,0,1,4.539.047,1.833,1.833,0,0,1,6.314.61a1.613,1.613,0,0,1,.42,1.2A1.745,1.745,0,0,1,6.1,2.981c-.353.322-.824.593-1.335,1.095A5.269,5.269,0,0,0,3.736,5.35" transform="translate(21.584 16.746) rotate(3)" fill="#bc8877"/>
        </g>
      </g>
    </g>
  </g>
</svg>
