<svg xmlns="http://www.w3.org/2000/svg" width="188.003" height="40" viewBox="0 0 188.003 40">
    <g fill="#fff">
        <path d="M11282 19242.5c-.176 0-.33-.086-.424-.236l-4.241-6.813-.147-.236h-133.834c-4.234 0-8.215-1.65-11.21-4.647-2.997-2.994-4.646-6.976-4.646-11.21 0-4.237 1.65-8.22 4.646-11.215 2.995-2.995 6.976-4.643 11.21-4.643h155.29c4.235 0 8.216 1.648 11.211 4.643 2.997 2.996 4.646 6.978 4.646 11.214 0 4.235-1.65 8.217-4.646 11.211-2.995 2.996-6.976 4.647-11.21 4.647H11286.812l-.148.236-4.242 6.815c-.093.148-.247.234-.422.234z" transform="translate(-11126.998 -19203)"/>
        <path fill="#a87463" d="M11282 19241.998l4.24-6.812.293-.471H11298.645c4.1 0 7.956-1.598 10.857-4.5 2.901-2.9 4.499-6.756 4.499-10.858 0-4.103-1.598-7.959-4.499-10.86-2.9-2.9-6.757-4.497-10.857-4.497h-155.29c-4.101 0-7.958 1.598-10.858 4.496-2.901 2.902-4.499 6.758-4.499 10.861 0 4.102 1.598 7.957 4.5 10.858 2.9 2.902 6.756 4.5 10.856 4.5H11277.466l.293.47 4.241 6.813m0 1.002c-.326 0-.652-.158-.848-.47l-4.242-6.815h-133.556c-9.03 0-16.356-7.326-16.356-16.358 0-9.037 7.326-16.357 16.356-16.357h155.29c9.03 0 16.357 7.32 16.357 16.357 0 9.032-7.326 16.358-16.356 16.358h-11.556l-4.242 6.814c-.196.313-.522.471-.847.471z" transform="translate(-11126.998 -19203)"/>
    </g>
</svg>
