<svg xmlns="http://www.w3.org/2000/svg" width="320" height="166" viewBox="0 0 320 166">
    <defs>
        <clipPath id="clip-path">
            <rect id="_20200721_Carenation_0531" width="320" height="166" fill="#f6f6f6" rx="14" transform="translate(-146 286)"/>
        </clipPath>
        <style>
            .cls-4{fill:#fff}.cls-5{fill:#424f75}.cls-10{fill:#69798b}.cls-12{fill:#5b4740}.cls-13{fill:#f1cd92}
        </style>
    </defs>
    <g id="마스크_그룹_38" clip-path="url(#clip-path)" transform="translate(146 -286)">
        <g id="그룹_4556" transform="translate(68.03 338.418)">
            <g id="그룹_4554" transform="translate(33.836)">
                <path id="패스_14471" fill="#c9c9c9" d="M798.162 730.845v-78.614a3.773 3.773 0 0 0-3.665-3.851H783.4a7.11 7.11 0 0 1 .74 2.1h10.3v44.8c0 .286 0 .573-.008.859l.037.007-.037.208c0 .058 0 .114-.007.171q-.03 1.332-.121 2.653c-1.13 20.932-5.635 25.347-6.58 26.048-.051.047-.1.093-.157.139l-.027-.037h-44.177v-74.851h10.007a7.117 7.117 0 0 1 .741-2.1h-11.095a3.773 3.773 0 0 0-3.665 3.851v78.614a3.773 3.773 0 0 0 3.665 3.851H794.5a3.773 3.773 0 0 0 3.662-3.848z" transform="translate(-739.351 -641.947)"/>
                <path id="패스_14472" d="M775.27 794.569a4 4 0 0 0-2.909 1.266 4.479 4.479 0 0 0 0 6.113 3.975 3.975 0 0 0 5.818 0 4.478 4.478 0 0 0 0-6.113 4 4 0 0 0-2.909-1.266z" class="cls-4" transform="translate(-763.679 -752.028)"/>
                <path id="패스_14473" d="M775.27 747.827a4 4 0 0 0-2.909 1.266 4.479 4.479 0 0 0 0 6.113 3.975 3.975 0 0 0 5.818 0 4.479 4.479 0 0 0 0-6.113 4 4 0 0 0-2.909-1.266z" class="cls-4" transform="translate(-763.679 -716.831)"/>
                <path id="패스_14474" d="M775.27 888.054a4 4 0 0 0-2.909 1.266 4.479 4.479 0 0 0 0 6.113 3.975 3.975 0 0 0 5.818 0 4.479 4.479 0 0 0 0-6.113 4 4 0 0 0-2.909-1.266z" class="cls-4" transform="translate(-763.679 -822.422)"/>
                <path id="패스_14475" d="M775.27 841.312a4 4 0 0 0-2.909 1.266 4.479 4.479 0 0 0 0 6.113 3.976 3.976 0 0 0 5.818 0 4.479 4.479 0 0 0 0-6.113 4 4 0 0 0-2.909-1.266z" class="cls-4" transform="translate(-763.679 -787.226)"/>
                <path id="패스_14476" d="M775.27 701.085a4 4 0 0 0-2.909 1.266 4.479 4.479 0 0 0 0 6.113 3.976 3.976 0 0 0 5.818 0 4.479 4.479 0 0 0 0-6.113 4 4 0 0 0-2.909-1.266z" class="cls-4" transform="translate(-763.679 -681.634)"/>
                <path id="패스_14477" d="M797.361 658.852h-31.1c0-.093.01-.8.017-.9a9.327 9.327 0 0 1 .146-1.085h-10.006v74.847h44.174l-.009-.012a2.438 2.438 0 0 0 1.045-1.906 4.694 4.694 0 0 0-1.816-3.073 15.845 15.845 0 0 0-2.466-1.814c-.122-.073-.192-.111-.192-.112l-.069-.038.076-.019c2.947-.743 5.3-5.086 7-9.742a81.757 81.757 0 0 0 3.141-11.593c.11-.564.165-.884.165-.885h.021c0-.286.008-.572.008-.859v-44.8H797.2a9.312 9.312 0 0 1 .141 1.021c.007.124.014.854.02.97zm-26.225 12.723h24.445v.247h-24.446zm0 2.174h20.449V674h-20.45zm0 9.467h24.445v.247h-24.446zm0 2.174h20.449v.247h-20.45zm0 9.467h24.445v.247h-24.446zm0 2.174H797.9v.247h-26.765zm0 9.467h15.277v.247h-15.278zm0 2.174h20.449v.247h-20.45zM764 722.864a4.575 4.575 0 1 1 4.349-4.569 4.463 4.463 0 0 1-4.349 4.569zm0-11.545a4.575 4.575 0 1 1 4.349-4.569 4.463 4.463 0 0 1-4.349 4.569zm0-11.545a4.575 4.575 0 1 1 4.349-4.569 4.463 4.463 0 0 1-4.349 4.569zm0-11.545a4.575 4.575 0 1 1 4.349-4.569 4.463 4.463 0 0 1-4.349 4.568zm0-11.545a4.575 4.575 0 1 1 4.349-4.569 4.463 4.463 0 0 1-4.349 4.568zm27.587 43.877h-20.452v-.247h20.449zm4-2.174h-24.452v-.247h24.445zm2.6-2.174h-27.052v-.247h27.049zm0-11.641h-27.052v-.247h27.049zm0-11.641h-27.052v-.247h27.049zm0-11.641h-27.052v-.247h27.049zm0-11.641h-27.052v-.249h27.049z" class="cls-4" transform="translate(-752.406 -648.341)"/>
                <path id="사각형_1755" d="M0 0H27.049V0.247H0z" class="cls-5" transform="translate(18.73 32.7)"/>
                <path id="사각형_1756" d="M0 0H24.445V0.247H0z" class="cls-5" transform="translate(18.73 34.874)"/>
                <path id="사각형_1757" d="M0 0H20.449V0.247H0z" class="cls-5" transform="translate(18.73 37.048)"/>
                <path id="사각형_1758" d="M0 0H27.049V0.247H0z" class="cls-5" transform="translate(18.73 21.059)"/>
                <path id="사각형_1759" d="M0 0H24.445V0.247H0z" class="cls-5" transform="translate(18.73 23.233)"/>
                <path id="사각형_1760" d="M0 0H20.449V0.247H0z" class="cls-5" transform="translate(18.73 25.407)"/>
                <path id="패스_14478" d="M774.505 887.054a4.575 4.575 0 1 0 4.349 4.569 4.463 4.463 0 0 0-4.349-4.569zm2.909 7.626a3.976 3.976 0 0 1-5.818 0 4.479 4.479 0 0 1 0-6.113 3.976 3.976 0 0 1 5.818 0 4.479 4.479 0 0 1 0 6.113z" class="cls-5" transform="translate(-762.914 -821.669)"/>
                <path id="패스_14479" d="M774.505 840.312a4.575 4.575 0 1 0 4.349 4.569 4.463 4.463 0 0 0-4.349-4.569zm2.909 7.626a3.975 3.975 0 0 1-5.818 0 4.479 4.479 0 0 1 0-6.113 3.976 3.976 0 0 1 5.818 0 4.479 4.479 0 0 1 0 6.113z" class="cls-5" transform="translate(-762.914 -786.472)"/>
                <path id="패스_14480" d="M774.505 793.569a4.575 4.575 0 1 0 4.349 4.569 4.463 4.463 0 0 0-4.349-4.569zm2.909 7.626a3.975 3.975 0 0 1-5.818 0 4.479 4.479 0 0 1 0-6.113 3.976 3.976 0 0 1 5.818 0 4.479 4.479 0 0 1 0 6.113z" class="cls-5" transform="translate(-762.914 -751.275)"/>
                <path id="패스_14481" d="M774.505 746.827a4.575 4.575 0 1 0 4.349 4.569 4.463 4.463 0 0 0-4.349-4.569zm2.909 7.625a3.976 3.976 0 0 1-5.818 0 4.479 4.479 0 0 1 0-6.113 3.975 3.975 0 0 1 5.818 0 4.479 4.479 0 0 1 0 6.113z" class="cls-5" transform="translate(-762.914 -716.078)"/>
                <path id="패스_14482" d="M774.505 700.085a4.575 4.575 0 1 0 4.349 4.569 4.463 4.463 0 0 0-4.349-4.569zm2.909 7.625a3.976 3.976 0 0 1-5.818 0 4.479 4.479 0 0 1 0-6.113 3.975 3.975 0 0 1 5.818 0 4.479 4.479 0 0 1 0 6.113z" class="cls-5" transform="translate(-762.914 -680.881)"/>
                <path id="패스_14483" fill="#fd0" d="M798.305 631.951c-.007.093-.012.8-.017.9h31.1c-.005-.115-.013-.846-.022-.959a9.291 9.291 0 0 0-.141-1.021 7.115 7.115 0 0 0-.74-2.1 4.478 4.478 0 0 0-4.092-2.421h-6.638a3.918 3.918 0 1 0-7.833 0h-6.638a4.478 4.478 0 0 0-4.091 2.421 7.122 7.122 0 0 0-.741 2.1 9.323 9.323 0 0 0-.147 1.08zm14.451-6.655a1.038 1.038 0 1 1 1.037 1.089 1.064 1.064 0 0 1-1.036-1.085z" transform="translate(-784.432 -622.336)"/>
                <path id="패스_14484" fill="#efe9e0" d="M861.906 631a1.038 1.038 0 1 0-1.037 1.089 1.064 1.064 0 0 0 1.037-1.089z" transform="translate(-831.508 -628.038)"/>
                <path id="패스_14485" d="M934.507 860.438c-1.27 2.139-2.744 3.734-4.423 4.193a16.388 16.388 0 0 1 2.186 1.531c1.124.943 2.254 2.2 2.256 3.487a2.42 2.42 0 0 1-.911 1.815c.944-.7 5.449-5.115 6.58-26.048q.09-1.32.121-2.653l.007-.171c-.289 1.583-2.258 11.852-5.816 17.846z" class="cls-4" transform="translate(-885.244 -788.189)"/>
                <path id="패스_14486" d="M939.617 842.589a81.751 81.751 0 0 1-3.141 11.593c-1.7 4.656-4.049 9-7 9.742l-.076.019.069.038s.07.039.192.112a15.876 15.876 0 0 1 2.466 1.814 4.693 4.693 0 0 1 1.816 3.073 2.438 2.438 0 0 1-1.045 1.906l.009.012.027.037c.057-.046.106-.093.157-.14a2.419 2.419 0 0 0 .911-1.815c0-1.286-1.132-2.545-2.256-3.487a16.36 16.36 0 0 0-2.186-1.531c1.679-.459 3.153-2.054 4.423-4.193 3.558-5.994 5.526-16.263 5.816-17.847l.037-.208-.036-.007h-.021s-.052.318-.162.882z" transform="translate(-884.724 -787.521)"/>
                <path id="사각형_1761" d="M0 0H27.049V0.247H0z" class="cls-5" transform="translate(18.73 67.624)"/>
                <path id="사각형_1762" d="M0 0H24.445V0.247H0z" class="cls-5" transform="translate(18.73 69.798)"/>
                <path id="사각형_1763" d="M0 0H20.449V0.247H0z" class="cls-5" transform="translate(18.73 71.972)"/>
                <path id="사각형_1764" d="M0 0H27.049V0.247H0z" class="cls-5" transform="translate(18.73 55.982)"/>
                <path id="사각형_1765" d="M0 0H15.277V0.247H0z" class="cls-5" transform="translate(18.73 58.157)"/>
                <path id="사각형_1766" d="M0 0H20.449V0.247H0z" class="cls-5" transform="translate(18.73 60.331)"/>
                <path id="사각형_1767" d="M0 0H27.049V0.247H0z" class="cls-5" transform="translate(18.73 44.341)"/>
                <path id="사각형_1768" d="M0 0H24.445V0.247H0z" class="cls-5" transform="translate(18.73 46.515)"/>
                <path id="사각형_1769" d="M0 0H26.765V0.247H0z" class="cls-5" transform="translate(18.73 48.69)"/>
            </g>
            <g id="그룹_4555" transform="translate(0 7.951)">
                <path id="패스_14487" fill="none" d="M737.642 814.07c-1.177-.061-2.248-.147-3.048-.267.18.782.356 1.561.525 2.322z" transform="translate(-711.914 -766.77)"/>
                <path id="패스_14488" fill="#534741" d="M789.872 778.118l1.566 2.123 5.012-4.039a21.54 21.54 0 0 1-1.566-2.122z" transform="translate(-749.529 -740.382)"/>
                <path id="패스_14489" d="M768.381 781.75l-8.5 6.928 3.446.79a8.479 8.479 0 0 1 2.04-1.63c1.132-.9 1.481-1.4 1.79-1.258 0 0 .318.816-.782 1.816-.4.365-.371.579-.171.563a9.747 9.747 0 0 0 1.4-.129c.048-.011.88-.2 1.175-.31s.821-.054.785.418a.617.617 0 0 1-.1.3l2.776-2.261-1.208-1.636-1.566-2.123z" class="cls-10" transform="translate(-729.119 -745.477)"/>
                <path id="패스_14490" d="M738.76 814.6l-2.523 2.055c.407 1.831.773 3.561 1.06 4.988a12.41 12.41 0 0 1 .251 2.306l10.924-8.9a3.718 3.718 0 0 1-.863-.313c-.809.007-5.3.047-8.849-.136z" class="cls-10" transform="translate(-713.032 -767.299)"/>
                <path id="패스_14491" d="M675.392 863.784l-1.275 1.039a3.417 3.417 0 0 0-.558 4.636 3.076 3.076 0 0 0 2.738 1.267 14.877 14.877 0 0 1-.905-6.942z" class="cls-10" transform="translate(-669.931 -799.973)"/>
                <path id="패스_14492" fill="#60524c" d="M818.945 674.12c-11.115-2.334-21.925 5.241-24.146 16.918a22.372 22.372 0 0 0 3.164 16.358 21.517 21.517 0 0 0 1.567 2.122 20.231 20.231 0 0 0 11.372 6.888c11.114 2.333 21.924-5.241 24.145-16.918s-4.988-23.034-16.102-25.368zm12.882 24.693a17.508 17.508 0 0 1-16.348 14.551 16.462 16.462 0 0 1-3.934-.34c-9.336-1.96-15.392-11.5-13.526-21.309 1.677-8.817 9.186-14.846 17.468-14.551a16.515 16.515 0 0 1 2.815.34c9.335 1.959 15.391 11.496 13.525 21.309z" transform="translate(-752.609 -673.698)"/>
                <path id="패스_14493" d="M806.131 698.551A17.509 17.509 0 0 1 822.48 684c-8.282-.294-15.791 5.734-17.468 14.551-1.865 9.808 4.19 19.349 13.526 21.309a16.458 16.458 0 0 0 3.933.34 16.528 16.528 0 0 1-2.815-.34c-9.334-1.96-15.39-11.501-13.525-21.309z" class="cls-4" transform="translate(-759.602 -680.535)"/>
                <path id="패스_14494" d="M827.678 684.36a16.514 16.514 0 0 0-2.815-.34 17.509 17.509 0 0 0-16.349 14.551c-1.865 9.808 4.191 19.349 13.526 21.309a16.517 16.517 0 0 0 2.815.34 17.508 17.508 0 0 0 16.345-14.55c1.869-9.809-4.187-19.35-13.522-21.31z" class="cls-4" transform="translate(-761.985 -680.555)"/>
                <path id="패스_14495" d="M682.8 1005.294l-.005.076-.055 1.9 5.532.362s.619-1.33-2.891-1.987l-.5-.327-.006.036z" class="cls-12" transform="translate(-676.627 -893.979)"/>
                <path id="패스_14496" d="M682.91 999.99l-.045 1.78h.02l2.071.064.006-.036.272-1.717a4.459 4.459 0 0 1-2.324-.091z" class="cls-13" transform="translate(-676.713 -890.455)"/>
                <path id="패스_14497" d="M714.548 1005.488v.076l.013 1.905 5.541.142s.571-1.353-2.961-1.871l-.515-.306v.036z" class="cls-12" transform="translate(-698.271 -894.072)"/>
                <path id="패스_14498" d="M714.449 1002.2l.013 1.141h.021l2.072-.018v-.036l.131-1.072a4.219 4.219 0 0 1-2.237-.015z" class="cls-13" transform="translate(-698.205 -891.922)"/>
                <path id="패스_14499" fill="#bbb7b4" d="M690.969 847.219c-4.22.85-8.76 1.492-10.077 1.658a17.151 17.151 0 0 0-.363 2.193 14.878 14.878 0 0 0 .9 6.942 13.5 13.5 0 0 0 .906 1.861c-.149 7.044-.1 14.065-.1 14.068-1.043 2.219-1.782 22.358-1.782 22.358a2.387 2.387 0 0 0 .811.494 4.458 4.458 0 0 0 2.325.092c.283-.057.463-.114.463-.114s3.446-17.244 4.477-20.075a17.738 17.738 0 0 0 .669-3.071l.819-5.39h-.012l-1.856-8.08a3.008 3.008 0 0 1-.663-.549 8.625 8.625 0 0 1-1.819-5.557.978.978 0 0 0-.028-.23l.074-.033a.992.992 0 0 1 .034.257c.007.122.012.279.021.467a11.9 11.9 0 0 0 .145 1.423 7.167 7.167 0 0 0 1.632 3.616 4.33 4.33 0 0 0 3.269 1.173 8.172 8.172 0 0 0 1.011-.064c.252-.031.4-.063.4-.063l.016.082a7.632 7.632 0 0 1-1.429.129 5.222 5.222 0 0 1-2.569-.588l1.838 8-.021.006c.5 3.747.922 6.471.921 6.472-.906 2.285-.419 22.432-.419 22.432a2.318 2.318 0 0 0 .747.406 4.217 4.217 0 0 0 2.24.014 5.246 5.246 0 0 0 .634-.19s2.389-17.44 3.247-20.335a17.767 17.767 0 0 0 .481-3.11 160.317 160.317 0 0 0 2.456-22.05 35.4 35.4 0 0 0-.887-7.221 44.355 44.355 0 0 1-8.511 2.577zm-5.345 13.842a6.81 6.81 0 0 0 1.86-.27c.1-.03.156-.049.156-.049l.026.079a6.7 6.7 0 0 1-2.042.324 4.023 4.023 0 0 1-3.53-1.749l.066-.048a3.945 3.945 0 0 0 3.464 1.713z" transform="translate(-675.069 -787.258)"/>
                <path id="패스_14500" d="M688.923 736.068l-.072-1.435a3.461 3.461 0 0 0 2.115-3.943l-.495-2.477a3.5 3.5 0 0 0-.655-1.447 2.266 2.266 0 0 1-.25.365 3.092 3.092 0 0 1-1.154.839c-.1.127-.2.253-.285.365a3.17 3.17 0 0 0-.476 1 .788.788 0 0 0-.547-.032.776.776 0 0 0-.434 1.043.8.8 0 0 0 .642.653l-.018.121a10.761 10.761 0 0 1-.09 1.843l-2.853.848-.082 2.925.892-.221z" class="cls-13" transform="translate(-677.668 -708.951)"/>
                <path id="패스_14501" fill="#574937" d="M682.578 727.609a10.773 10.773 0 0 0 .09-1.843l.018-.12a.8.8 0 0 1-.642-.653.776.776 0 0 1 .434-1.043.786.786 0 0 1 .547.033 3.169 3.169 0 0 1 .476-1c.086-.112.184-.238.285-.365a3.094 3.094 0 0 0 1.154-.839 2.26 2.26 0 0 0 .25-.365c.557-1 .492-2.515-.709-2.677a5.276 5.276 0 0 0-3.446 1.106 4.336 4.336 0 0 0-2.694 1.414c-2.2 2.313.338 5.821 1.355 7.209l.031-.009z" transform="translate(-673.042 -703.6)"/>
                <path id="패스_14502" fill="#ffd894" d="M686.816 776.621c-.169-.761-.345-1.54-.525-2.322a5.612 5.612 0 0 1-1.1-.248c-.709-.276-2.976-2.557-4.824-4.969l-.238.21-.025-.034c-.8-1.05-1.9-2.554-2.812-3.812l.064-.051c.9 1.246 1.984 2.73 2.785 3.777l.179-.158.038.047.58-.54 4.461-3.956.124-.11-4.239-6.252a12.783 12.783 0 0 0-1.657-2.1 6.925 6.925 0 0 0-4.368-1.769l-.4.047-3.762.445-.892.221-.847.21c-4.494 1.42-6.512 8.887-5.5 12.963 1.853 7.43 3.945 13.412 3.945 13.412a40.784 40.784 0 0 0 1.242 7.293s.135-.011.378-.042c1.317-.166 5.858-.807 10.077-1.658a44.348 44.348 0 0 0 8.514-2.575l.06-.027a4.7 4.7 0 0 0 .042-.71 12.415 12.415 0 0 0-.251-2.306c-.276-1.425-.642-3.155-1.049-4.986z" transform="translate(-663.611 -727.266)"/>
                <path id="패스_14503" d="M709.47 790.9l-.179.159c-.8-1.048-1.885-2.532-2.785-3.777l-.064.051c.91 1.259 2.008 2.762 2.812 3.812l.026.034.238-.211-.013-.017z" transform="translate(-692.757 -749.152)"/>
                <path id="패스_14504" d="M738.943 790.551c-.3.114-1.126.3-1.175.31a9.768 9.768 0 0 1-1.4.129c-.2.016-.231-.2.171-.563 1.1-1 .782-1.816.782-1.816-.309-.14-.657.361-1.79 1.259a8.473 8.473 0 0 0-2.04 1.63l-3.446-.79-6.231-1.429-2.737-4.472-4.461 3.956-.58.54.014.017c1.848 2.413 4.115 4.693 4.824 4.969a5.6 5.6 0 0 0 1.1.248c.8.12 1.871.206 3.048.267 3.55.185 8.045.145 8.849.136a3.715 3.715 0 0 0 .863.313 4.723 4.723 0 0 0 3.269-.587c.234-.029 1.226-.065 1.416-.663.092-.29.011-.442-.14-.516a.559.559 0 0 0 .379-.509c0-.241-.075-.363-.191-.418a9.246 9.246 0 0 1-1.8.292v-.084a9.311 9.311 0 0 0 1.806-.294l.014.067a.607.607 0 0 0 .3-.58c-.023-.345-.184-.462-.394-.475a.652.652 0 0 0 .251-.228.616.616 0 0 0 .1-.3c.02-.46-.505-.523-.801-.409zm.268 2.891l.048.032-.031.05a12.212 12.212 0 0 1-1.355.2l-.044-.037.036-.046a11.978 11.978 0 0 0 1.346-.199zm.175-1.893c-.231.077-1.716.347-1.718.347l-.014-.083s.372-.068.773-.145.83-.164.935-.2z" class="cls-13" transform="translate(-699.287 -747.509)"/>
                <path id="패스_14505" d="M784.464 804.849c-.4.077-.772.145-.773.145l.014.083s1.487-.271 1.718-.347l-.024-.08c-.105.035-.536.122-.935.199z" transform="translate(-745.323 -760.69)"/>
                <path id="패스_14506" d="M784.238 810.773l.044.037a12.16 12.16 0 0 0 1.355-.2l.031-.05-.048-.032a12.008 12.008 0 0 1-1.347.2z" transform="translate(-745.696 -764.594)"/>
                <path id="패스_14507" d="M783.685 807.955v.084a9.24 9.24 0 0 0 1.8-.292h.017v-.014l-.014-.068a9.333 9.333 0 0 1-1.803.29z" transform="translate(-745.319 -762.69)"/>
                <path id="패스_14508" fill="#b29278" d="M685.665 888.445l-.066.048a4.024 4.024 0 0 0 3.529 1.749 6.7 6.7 0 0 0 2.042-.324l-.026-.079s-.055.019-.156.049a6.809 6.809 0 0 1-1.86.27 3.945 3.945 0 0 1-3.463-1.713z" transform="translate(-678.573 -816.355)"/>
                <path id="패스_14509" d="M699.3 878.319a5.223 5.223 0 0 0 2.569.588 7.649 7.649 0 0 0 1.429-.129l-.016-.082s-.15.032-.4.063a8.145 8.145 0 0 1-1.011.064 4.331 4.331 0 0 1-3.269-1.173 7.169 7.169 0 0 1-1.632-3.616 11.9 11.9 0 0 1-.145-1.423c-.009-.188-.014-.345-.021-.467a1 1 0 0 0-.034-.257l-.074.033a.98.98 0 0 1 .028.23 8.624 8.624 0 0 0 1.819 5.557 3 3 0 0 0 .663.549l1.856 8.081h.012l.044-.011.021-.006z" transform="translate(-686.125 -805.356)"/>
            </g>
            <path id="패스_14510" fill="#bc8877" d="M124.084 336.107l-2.212-1.868a12.691 12.691 0 0 1 1.9-2.61 18.461 18.461 0 0 1 3.439-3.058c.5-.412 1.986-1.342 2.409-2.284a2.6 2.6 0 0 0-.207-2.46 2.5 2.5 0 0 0-2.458-.813c-1.158.283-1.86 1.329-2.521 3.28a9.612 9.612 0 0 1-1.638 3.272 5.615 5.615 0 0 1-2.545 1.7 4.963 4.963 0 0 1-4.9-1.11 6.208 6.208 0 0 1-1.853-4.309 5.558 5.558 0 0 1 1.7-4.089 5.179 5.179 0 0 1 2.62-1.476 4.621 4.621 0 0 1 2.354.146 6.051 6.051 0 0 1 2.2 1.279l-1.776 2.03.007.007a3.512 3.512 0 0 0-1.258-.7 2.227 2.227 0 0 0-2.342.718 2.761 2.761 0 0 0-.878 2.047 3.389 3.389 0 0 0 .977 2.29 2.44 2.44 0 0 0 2.4.526c.657-.206 1.68-.929 2.4-3.048a9.816 9.816 0 0 1 1.762-3.566 5.287 5.287 0 0 1 2.694-1.684 5.041 5.041 0 0 1 5.027 1.673 4.951 4.951 0 0 1 1.189 3.556 5.279 5.279 0 0 1-1.781 3.5c-1 .959-2.333 1.763-3.782 3.257a15.568 15.568 0 0 0-2.927 3.791" transform="translate(-61.036 -297.415)"/>
        </g>
    </g>
</svg>
