<svg xmlns="http://www.w3.org/2000/svg" width="86" height="86" viewBox="0 0 86 86">
    <defs>
        <style>
            .cls-1{fill:#fd0}
        </style>
    </defs>
    <g id="그룹_2546" transform="translate(-1440.127 -791.869)">
        <path id="path4445" d="M1475.67 792.52a43.059 43.059 0 0 0-7.152 1.911l.212.23-.2.073c-.09.034-.163-.045-.228-.208a42.618 42.618 0 0 0-8.448 4.2c.148-.039.324-.095.438-.116.248-.047.422-.054.457 0 .15.21.073.347-.243.464l-.447.174.487.163c.86.293.722.725-.294.931a20.774 20.774 0 0 0-4.411 1.313c-.758.625-1.485 1.281-2.2 1.955a1.6 1.6 0 0 1 .327-.1c.054-.01.11-.022.167-.029.98-.117.951.091-.07.472a1.732 1.732 0 0 1-.293.07c-.262.048-.452.022-.459-.11-.077.075-.15.156-.226.231.083.116.076.235-.01.269-.065.026-.109-.049-.122-.15a43.363 43.363 0 0 0-6.6 8.387c.569 0 1.206.119 1.26.428.1.552-1.106.682-1.262.318-.128-.3-.21-.325-.26-.069-.016.075-.135.167-.3.263-.033.058-.071.113-.1.172a1.165 1.165 0 0 1 .086.271c.019.111.027.226.034.3a1.052 1.052 0 0 0 .273-.3c.2-.274.45-.371.551-.231s-.085.471-.472.79c-.017.014-.037.016-.052.028.309-.023.583.057.627.31a.466.466 0 0 1-.329.516.963.963 0 0 0-.52.3 4.408 4.408 0 0 1-1.631.822c-.031.064-.07.125-.1.19l1.424-.48.733 1.877c-.542-.208-.725-.71-1.2-.821l-1.116-.262a42.986 42.986 0 0 0-2.979 9.1 1.656 1.656 0 0 1 .16.258 4.01 4.01 0 0 1 1.556-.6c.786-.147 1.523-.122 1.518.153-.006.3-.569.6-1.3.764a5.186 5.186 0 0 1-1.394.111l-.52-.023a1.531 1.531 0 0 1-.176.088 42.675 42.675 0 0 0-.66 5.467l1.93-.646.754 1.892c-.542-.208-.747-.726-1.217-.836l-1.475-.351c-.066 1.168-.1 2.343-.067 3.527.99-.175 1.825-.158 1.863.054s-.692.256-1.682.43l-.148.026a43.085 43.085 0 0 0 .612 5.853c.24 1.36.553 2.681.913 3.986.239.128 1.026.875.876 1.393-.058.2-.283-.037-.527-.175.249.81.53 1.609.824 2.4a.629.629 0 0 1-.031-.4c.118-.407.726-.636 1.1-.691a.69.69 0 0 1 .266-.008c.19.069.221.574.063 1.116s-.442.925-.632.856a1.872 1.872 0 0 1-.757-.822c.4 1.065.839 2.112 1.317 3.131a.658.658 0 0 0 .071-.032 1.851 1.851 0 0 0 .512-.453c-.552.227-.594.177-.424-.346.13-.4.69-.768 1.663-1.077.375-.119.724-.249 1-.368-.321-.729-.612-1.478-.89-2.232a1.733 1.733 0 0 1-.618.07c-.257-.036-.055-.144.456-.233l.092-.016c-.089-.247-.2-.484-.282-.734-.063.017-.148.042-.2.055-.441.105-.546.061-.31-.137a2.216 2.216 0 0 1 .415-.245c-.04-.12-.082-.24-.121-.361-.032-.019-.049-.036-.051-.068a.183.183 0 0 1 .009-.059c-.067-.211-.125-.423-.188-.635a.16.16 0 0 1-.1.075.163.163 0 0 1-.143-.052c-.069-.064-.065-.134.008-.173a.339.339 0 0 1 .093-.017.379.379 0 0 1 .093-.016c-.054-.182-.121-.359-.172-.543h-.019a.164.164 0 0 1-.143-.051c-.092-.087-.048-.163.1-.19-.179-.662-.341-1.338-.489-2.015a.593.593 0 0 1-.049-.278v-.019c-.087-.417-.185-.83-.26-1.254-.217-1.236-.36-2.475-.461-3.7h-.018a3.649 3.649 0 0 1-.383.106c-.345.07-.545.051-.456-.092.12-.19.278-.462.353-.6a.98.98 0 0 1 .431-.267c-.022-.374-.032-.747-.045-1.119-.533.2-1.186.45-1.877.732a2.761 2.761 0 0 1-.305.111c-.249.068-.315 0-.187-.2a4.1 4.1 0 0 1 1.422-.824c.325-.129.646-.28.921-.411a39.041 39.041 0 0 1 .194-4.429c-.111-.055-.115-.156.025-.291.044-.426.1-.847.158-1.27a7.657 7.657 0 0 0-.934.337 2.383 2.383 0 0 1-.287.108c-.229.066-.283-.011-.172-.218a2.218 2.218 0 0 1 1.273-.8 1.3 1.3 0 0 1 .2-.036c.139-.9.3-1.8.5-2.687-.288-.159-.21-.4.146-.58.128-.531.26-1.059.409-1.582a4.192 4.192 0 0 1-.591.009.307.307 0 0 1-.189.338c-.158.052-.764.24-1.341.409a3.623 3.623 0 0 0-1.291.591 1.1 1.1 0 0 1-.094.112.385.385 0 0 1 .071-.031c.149-.026.219.049.163.163a.165.165 0 0 1-.117.1.194.194 0 0 1-.161-.048.1.1 0 0 1-.008-.152c-.047.006-.063-.086-.034-.3a2.229 2.229 0 0 0-.023-.78c-.113-.374.034-.356.235.035.074.143.239.139.359-.025a2.812 2.812 0 0 1 1.04-.6 3.847 3.847 0 0 0 1.395-.972c.375-.452.652-.688.866-.726a.255.255 0 0 1 .267.106 39.477 39.477 0 0 1 1.9-4.615c-.023-.026-.051-.043-.091-.079-.173-.163-.178-.193-.027-.263.013-.006.088-.015.2-.036l.112-.019a39.745 39.745 0 0 1 4.117-6.553c-.049.057-.129.137-.129.137s-1.959.148-1.9-.715c.037-.567.832-1.153 1.577-1.348a2.165 2.165 0 0 1 .315-.056 1.031 1.031 0 0 1 .691.127c.539.36-.116 1.3-.475 1.746.548-.7 1.127-1.376 1.722-2.042a.1.1 0 0 1-.041-.126.917.917 0 0 1 .5-.4 39.485 39.485 0 0 1 4.855-4.429c.313-.481.63-.856.836-.892.1-.018.128.058.11.191a39.029 39.029 0 0 1 3.409-2.225l-.291-.025-.963-.04.986-.479c.556-.267 1.027-.48 1.469-.661a.084.084 0 0 1 0-.019c0-.193.577-.494 1.278-.664a4.443 4.443 0 0 0 1.5-.571c.2-.234.231-.209.172.217a.437.437 0 0 1-.138.2 2.363 2.363 0 0 0 .343-.117c.277-.12.35-.254.246-.445-.152-.279-.69-.241-1.7.109-2.918 1.01-4.031 1.295-3.62.925l.414-.359-.4-.006c-.271 0-.385-.123-.354-.377.019-.149.263-.32.612-.433-.028.005-.073-.083-.142-.261-.137-.357-.137-.473.007-.5s.185.084.178.466c0 .191-.015.289-.043.294a2.825 2.825 0 0 1 .442-.1c.878-.127.958-.112.533.212-.508.387-.228.292 2.174-.784l1.1-.481-1.324.291c-1.09.232-1.324.181-1.286-.251.032-.383.465-.615 1.594-.816a8.909 8.909 0 0 0 2.058-.573.912.912 0 0 1 .3-.13c.117-.016.155.055.117.228a.678.678 0 0 1-.374.486c-.15.042-.235.217-.228.442a1.4 1.4 0 0 1 .664-.136c0-.2.039-.354.108-.363.1-.013.129.063.1.327 0 .021 0 .056-.006.077a1.9 1.9 0 0 1 .418.1c.426.159.381.186-.229.212-.056 0-.1.019-.149.026a3.263 3.263 0 0 0 .234.57.645.645 0 0 0 .632.443q1.353-.482 2.75-.867c-.052-.361-.122-.8-.122-.8l2.112-.7s-.347.6-.747 1.183c.8-.193 1.608-.378 2.429-.524-.039-.075-.048-.088-.119-.246a9.152 9.152 0 0 1-.35-1.333 3.489 3.489 0 0 1-.587.027c-.231-.007-.453-.014-.656-.037a9.958 9.958 0 0 0-2.718 1.378.494.494 0 0 1-.138.082.2.2 0 0 1-.277-.162c-.072-.407.724-.932 2.2-1.478.019-.007.033-.021.052-.028-.165-.064-.285-.125-.284-.2 0-.053.051-.081.135-.1a4.63 4.63 0 0 1 .878 0 3.723 3.723 0 0 0 .594-.314.309.309 0 0 1 .1-.057c.106-.03.194.024.237.15h.019c.089-.016.168.1.2.252h.133a3.846 3.846 0 0 1-.135-1.2c.038-.007.087.205.1.46.018.316.069.386.176.237.119-.167.165-.093.268.545.018.111.041.2.062.352a4.267 4.267 0 0 1 .085 1.131c-.04.007-.011.2.053.411a.885.885 0 0 1 .023.13 39.577 39.577 0 0 1 10.215-.464 9.462 9.462 0 0 1-1.186-2.5c-.026-.145-.025-.225 0-.229.05-.01.219.314.494.963a9.3 9.3 0 0 0 .671 1.314 1.314 1.314 0 0 1 .218.478c.249.022.491.053.74.08l.179-.071a.74.74 0 0 1 .089-.034.223.223 0 0 1 .237.149 39.3 39.3 0 0 1 5.823 1.17c-.015-.142.021-.252.106-.267a.181.181 0 0 1 .214.134.521.521 0 0 1-.016.232c.145.042.3.07.44.114a.676.676 0 0 1 .271-.086c.276-.049.39-.007.267.105a.477.477 0 0 1-.172.107 39.466 39.466 0 0 1 7.757 3.37c.389-.009.709.009.709.009l.066.37a3.609 3.609 0 0 1 .6-.2c.232-.048.379-.037.341.093-.032.111-.24.272-.515.435a39.81 39.81 0 0 1 6.473 4.972 2.1 2.1 0 0 1 .771-.288.858.858 0 0 1 .567.072.614.614 0 0 1 .219.8 4.558 4.558 0 0 0 .99-.557 4.6 4.6 0 0 1 1.524-.669c.062-.012.115-.005.17-.011-.262-.28-.526-.561-.8-.834-.676.358-1.578.748-1.745.289-.14-.387.675-.615 1.3-.746-.595-.586-1.2-1.153-1.828-1.7a2.941 2.941 0 0 0 .088.5c.079.313.089.452.056.43a.379.379 0 0 1-.053-.086 2.5 2.5 0 0 1-.25-.987c-.935-.812-1.911-1.587-2.911-2.315-.383.685-.82 1.273-1.086 1.319-.341.06.1-.854.494-1.75a43.069 43.069 0 0 0-4.6-2.8.331.331 0 0 1-.142.063.273.273 0 0 1-.2-.042c-.084-.058-.063-.134.044-.18-.5-.26-1-.525-1.51-.765a42.951 42.951 0 0 0-9.045-3.086c-.187.071-.352.141-.573.216-.11.037-.195.061-.29.09.011.27-.333.556-.8.638-.5.087-.282-.193-.332-.476s-.333-.47.13-.558h.019a1.221 1.221 0 0 1 .322-.229c-.131-.024-.263-.042-.393-.064l.006.037a9.236 9.236 0 0 1-1.6.455c.505-.123 1.169-.1 1.258.2q.1.32-.419.436a2.929 2.929 0 0 1-.411.054c-.523.042-.989-.077-1.02-.26-.021-.115.062-.222.195-.3a8.48 8.48 0 0 1-1.194.267l-1.433.215 1.161-.453.9-.33a.277.277 0 0 1-.032-.071l-.92.086c-.663.069-1.21.07-1.206-.016a5.579 5.579 0 0 1 1.589-.739c-1.3-.128-2.624-.194-3.952-.2 0 .012 0 .026.006.037s.025 0 .022.015-.012.015-.016.022a1.586 1.586 0 0 1 .071.5.887.887 0 0 1-.054.239c.072.051.044.1-.07.146a7.764 7.764 0 0 1-1.665 2.147c-.013.019-.016.022-.034.025a1.289 1.289 0 0 1-.639.38c-.405-.012.532-1.111 1.134-2.015a4.792 4.792 0 0 1-1.22.445c-.368.079-.659.1-.653-.019a3.293 3.293 0 0 1 1.136-.6 3.546 3.546 0 0 1 .616-.185.6.6 0 0 1 .347.015 1.53 1.53 0 0 0 .239-.6c0-.026-.013-.048-.014-.074a5.762 5.762 0 0 1-.727.2c-.38.075-.69.1-.709-.008-.028-.161.482-.413 1.127-.543.095-.019.153-.027.241-.043-.011-.034-.022-.056-.035-.089a43.163 43.163 0 0 0-6.793.659zm4.793.206c.034-.007.069.007.105.058.073.1.049.2-.057.22s-.163-.068-.128-.187c.017-.06.045-.085.08-.091zm5.01-.081c.026-.012.068.005.106.058.083.116.073.216-.013.25s-.149-.048-.147-.184a.137.137 0 0 1 .054-.124zm3.136-.419l-.287.108c.049-.011.1-.017.148-.026a4.454 4.454 0 0 1 .452-.042zm-14.277 2.785c.026-.012.071.024.11.076.083.116.073.216-.014.251s-.131-.051-.128-.187c0-.069.006-.129.032-.141zm-3.745.756c.149-.038.275-.013.27.124 0 .086-.214.315-.465.5a.774.774 0 0 1-.281.145c-.111.025-.155-.045-.135-.225.024-.234.362-.48.611-.544zm13.608-2.133c.283-.049.578.245.653.668s-.1.82-.382.87-.257-.262-.332-.686-.221-.802.066-.852zm-16.48 2.964c0 .041-.042.07-.117.1-.01 0-.029-.011-.04-.012 0 .051.058.119.179.255.176.2.3.311.339.3s.015-.074-.032-.186a.541.541 0 0 1-.189-.31c-.05-.062-.094-.128-.139-.145zm15.623-2.622c.1-.017.182.1.194.347.013.222-.108.417-.268.429-.234.018-.271-.051-.2-.347.073-.257.179-.412.275-.428zm-14.783 2.951a1.68 1.68 0 0 0-.111.669 4.058 4.058 0 0 0 0 .631l.179-.07a3.2 3.2 0 0 0 .024-.405c.009-.575-.041-.858-.09-.825zm-10.179 2.941c-.111.02-.2.049-.312.074-.087.063-.166.135-.251.2.167-.019.286-.031.558-.079a3.526 3.526 0 0 0 1.006-.253c-.009-.015-.076-.025-.2-.023a5.317 5.317 0 0 0-.799.081zm-.275 1.042c.016-.024.039.079.049.278.016.284.069.459.159.469s.052.21-.077.434c-.069.121-.139.192-.193.205-.09.025-.167-.107-.282-.408-.214-.557-.2-.595.023-.52.135.045.264-.1.291-.3a.657.657 0 0 1 .029-.157zm2.97-.275c.034-.007.069.007.1.057.073.1.05.2-.056.221s-.181-.065-.147-.185a.126.126 0 0 1 .105-.093zm-2 .449a.474.474 0 0 1 .532.308c.074.243-.07.432-.391.489s-.521-.072-.535-.326a.475.475 0 0 1 .392-.471zm36.575-5.246c.3-.057.731-.111 1.227-.2.989-.173.949-.252.986-.04s.188.37-.8.543-1.829.14-1.866-.072c-.022-.104.15-.175.452-.231zm-40.164 7.1c.043-.007.081.256.085.6a1.289 1.289 0 0 1-.081.626c-.043.008-.081-.255-.086-.6a1.284 1.284 0 0 1 .081-.624zm.5.008c.126-.031.192.026.158.144 0 .007.006.012 0 .019a.625.625 0 0 1 .214.344c.069.227.006.4-.135.425s-.241-.12-.254-.356a.835.835 0 0 1 .038-.331.171.171 0 0 1-.084-.043c-.093-.086-.067-.17.06-.2zm-.817.354c.036-.006.073.026.11.076.072.1.046.183-.06.2s-.159-.05-.125-.169c.01-.056.037-.099.071-.107zm1.857-.194c.014.014.114.169.232.341.2.3.208.318.046.374-.093.032-.193-.123-.232-.341a1.64 1.64 0 0 1-.049-.372zm39.215-6.533c.13-.023.252.1.263.3.006.122-.041.2-.116.211a.362.362 0 0 1-.343-.322c-.019-.084.059-.162.193-.187zm4.641-.762c.107-.019.181.065.147.185a.127.127 0 0 1-.1.093c-.035.006-.069-.008-.105-.058-.074-.098-.052-.199.055-.218zm-46.268 8.351c.04-.007.1.158.143.376s.009.418-.058.43-.134-.172-.146-.394.018-.403.058-.41zm45.37-7.81c.078-.031.131.051.128.187 0 .068-.01.111-.036.121s-.068-.005-.106-.058c-.086-.113-.076-.213.011-.248zm.355-.043c.106-.019.162.068.128.187-.017.06-.042.1-.076.109s-.073-.026-.11-.076c-.077-.099-.051-.2.056-.219zm-46.851 8.51a.483.483 0 0 1 .111-.019.37.37 0 0 1 .232.016c.132.07.044.183-.19.225s-.337-.038-.236-.149a.264.264 0 0 1 .08-.071zm2.334-.412a1.187 1.187 0 0 1 .167-.03.855.855 0 0 1 .343 0c.2.051.054.143-.308.207s-.507.022-.341-.093a.609.609 0 0 1 .137-.082zm45.613-7.624a.115.115 0 0 1 .12.036c.093.087.069.19-.057.22s-.2-.045-.162-.163a.125.125 0 0 1 .097-.091zm.519-.092c.023-.016.065-.011.093-.016a.233.233 0 0 1 .176.026c.113.078.073.174-.1.208s-.274-.04-.218-.152a.149.149 0 0 1 .046-.063zm-24.75 4.384a.647.647 0 0 1-.064.393.921.921 0 0 1-1.037.183.625.625 0 0 1-.192-.329c-.733.158-1.445.35-2.157.553a.71.71 0 0 1 .431.382c.276.82-1.777.868-1.777.868l-.483-.679a33.874 33.874 0 0 0-4.931 2.15c.249.377.525.971.306 1.3-.167.253-.423-.443-.808-.468-.344-.024-.825.636-.91.58-.118-.078-.1-.32.006-.612-.962.574-1.894 1.187-2.788 1.848a8.036 8.036 0 0 1 1.207-.194 1.281 1.281 0 0 0 .277-.164.781.781 0 0 1 .237-.175c.1-.028.143.061.141.262 0 .329-.689.69-1.415.861a3.03 3.03 0 0 1-1.076.075c-.112.025-.2.034-.3.052a34.468 34.468 0 0 0-7.236 7.83c.16.706.207 1.062.1 1.128a.179.179 0 0 1-.074.013.652.652 0 0 1-.417-.309c-.047-.069-.051-.078-.078-.12a34.556 34.556 0 0 0-3.425 7.12 7.264 7.264 0 0 1 .761-.23c.094-.02.147-.03.151-.007.016.089-.5.388-1.094.728-.253.76-.481 1.536-.681 2.317a.554.554 0 0 1 .383.544 1.279 1.279 0 0 1-.722.891c-.091.436-.169.883-.244 1.323l1.76-.31a2.685 2.685 0 0 1 .893-.673 1.413 1.413 0 0 0 .689-.752c.053-.3.082-.3.1.021.015.285.113.42.26.394.127-.023.2-.208.176-.413a.349.349 0 0 1 .127-.252c.224-.868.475-1.723.771-2.563a18.478 18.478 0 0 1-1.844.593.544.544 0 0 0-.423.418.456.456 0 0 1-.075.224c-.08.06-.156-.311-.147-.835.008-.4.274-.586 1-.712a3.388 3.388 0 0 0 1.852-.652 30.919 30.919 0 0 1 2.651-5.225 2.784 2.784 0 0 1-.2-.576 7.3 7.3 0 0 1 .184-1.886c.016-.079.03-.111.044-.18-.069-.024-.12-.036-.12-.036s-.02-.6.179-.72a.455.455 0 0 1 .179-.07 3.417 3.417 0 0 1 1.342.355s-.642.315-.84.435a.739.739 0 0 1-.308.092 3.611 3.611 0 0 1-.06.527 5.389 5.389 0 0 0-.122 1.263 1.891 1.891 0 0 0 .1.213c.145-.22.288-.435.439-.651a.146.146 0 0 1 0-.019c-.013-.06-.019-.1.036-.12.011 0 .029 0 .04.012.064-.09.137-.175.2-.265v-.019a2.177 2.177 0 0 1 .163-.487c.1-.246.158-.373.216-.4s.091.056.147.185q.745-.969 1.56-1.88c-.539-.107-1-.223.177-.184.049-.053.1-.107.144-.159-.021-.437-.384-1.721-.288-1.745.111-.028.446.785.659 1.355.5-.517 1.017-1.013 1.552-1.5-.321-.081-.573-.208-.648-.421-.218-.624 1.039-.786 1.536-.825a.242.242 0 0 1 .012-.04.239.239 0 0 1 .169-.125.937.937 0 0 1 .508.063 30.791 30.791 0 0 1 2.633-1.859.5.5 0 0 1 .081-.3.973.973 0 0 1 .612-.319 2.338 2.338 0 0 1 .4-.031 30.641 30.641 0 0 1 8.2-3.242l.033-.025a2.826 2.826 0 0 1 1.1-.481l.633-.092-.443.307c.156-.03.308-.054.463-.081a31.043 31.043 0 0 1 3.992-.437c.01-.151.055-.239.127-.252s.136.072.194.234c.5-.017 1.008-.024 1.506-.017a.874.874 0 0 1 .04-.428 4.661 4.661 0 0 1-1.116.063s.465-.526.6-.717a.768.768 0 0 1 .5-.3 1.083 1.083 0 0 1 .3-.015s.241.493.165.716a2.245 2.245 0 0 1 .086.272c.035.14.053.284.075.426.11 0 .22.014.328.019a.313.313 0 0 1 .17-.125c.171-.021.219-.025.174.122.938.054 1.85.176 2.768.314a1.719 1.719 0 0 1 .8-.982 4.751 4.751 0 0 1 .82-.336c-.007-.013-.02-.018-.025-.034-.166-.457 1.02-.736 1.628-.841a2.789 2.789 0 0 1 .337-.04l.5-.089.027.263-.085.053c.469-.119.957-.238 1.429-.347a34.141 34.141 0 0 0-15.933-.965zm25.314-3.891c.126-.031.211.023.177.141a.151.151 0 0 1-.095.112.165.165 0 0 1-.143-.051c-.094-.086-.067-.169.059-.199zm-1.735.344a1.516 1.516 0 0 1 .2-.036c.339-.059.474 0 .307.117a.779.779 0 0 1-.3.13.66.66 0 0 1-.31-.022c-.13-.039-.076-.128.101-.186zm1.418-.078c.363-.1.963 1.047 1.166 1.189a.664.664 0 0 1 .134.759c-.314.447-1.8.317-1.8.317l-.134-.76s.194-1.384.637-1.502zm-33.07 6.6c.285-.064.513-.048.51.081 0 .092-.406.343-.895.559a3.019 3.019 0 0 1-.358.14c-.316.094-.468.051-.425-.135.054-.234.69-.54 1.166-.645zm9.973-1.186c.043-.007.1.156.14.358a1.06 1.06 0 0 0 .243.511c.1.1.094.2-.032.254s-.25-.122-.32-.517a1.253 1.253 0 0 1-.031-.607zm7.056-.938c.026-.012.067.005.105.058.084.115.074.216-.013.25s-.131-.051-.129-.187c0-.069.009-.11.035-.122zm18.77-2.221c.034.008.086.127.161.373.065.213.079.388.032.4s-.03.2.034.414.076.388.032.4a2.147 2.147 0 0 1-.214-.784c-.089-.499-.094-.781-.047-.808zm.819.314c.1-.047.2.143.261.508.056.316.05.546-.028.6a.066.066 0 0 1-.038.007c-.169 0-.192-.021-.1-.346.1-.342.1-.341-.091-.519-.174-.169-.158-.181-.006-.251zm-11.193 2.509l-1.1.347 1.349-.256c-.087-.031-.168-.063-.25-.092zm-2.694.857l-1.858.515a14.161 14.161 0 0 0-1.715.57c.2.034.4.086.595.124.336-.167.721-.343 1.152-.509zm4.294-.242c-.983.331-2.477.9-3.35 1.26a14.415 14.415 0 0 1-1.993.619c.308.079.617.15.922.238.072-.015.153-.028.222-.039.471-.078.848-.072.858.1a.337.337 0 0 1-.147.255q1.334.435 2.62.99c-.04-.23-.025-.435.018-.442s.09.076.107.172a1.7 1.7 0 0 1 0 .325c.054.024.11.043.164.067-.008-.055-.009-.1-.014-.188-.012-.223.045-.412.117-.422.114-.014.11.04.069.389a2.538 2.538 0 0 1-.047.276c.377.169.755.344 1.125.528a1.112 1.112 0 0 1 .145-.369c.037-.066.064-.089.1-.094.056-.008.105.057.132.206a.469.469 0 0 1-.083.4q1.176.6 2.292 1.3a2.044 2.044 0 0 1 .492-.354 3.152 3.152 0 0 0 .921-.735 4.676 4.676 0 0 1 1.776-.982 34.451 34.451 0 0 0-6.448-3.5zm-49.068 8.94c.026-.011.049.009.087.061.084.116.092.213.005.248s-.149-.048-.147-.184a.137.137 0 0 1 .053-.126zm48.98-8.141c.066-.011.135.172.146.394s0 .4-.043.409-.1-.158-.143-.376-.029-.416.037-.427zm-.884.4c.322-.075.584-.046.607.084.04.231-.708.537-2.249.893a.408.408 0 0 1-.469-.166c-.053-.137.22-.327.6-.411s1-.24 1.389-.359c.042-.01.073-.026.119-.037zm-46.021 8.345c.084-.035.154.115.214.459a4.065 4.065 0 0 1 .076.865.109.109 0 0 1-.028.063c-.023.029-.049-.061-.08-.234-.04-.231-.107-.362-.129-.3s-.086-.066-.146-.28a.66.66 0 0 1 .057-.545.1.1 0 0 1 .034-.024zm58.537-10.055c.042-.008.093.16.106.382s-.016.423-.058.431-.1-.179-.108-.4.016-.402.058-.409zm.266-.009a.138.138 0 0 1 .037-.006c.064 0 .113.071.111.19a.137.137 0 0 1-.055.125c-.026.01-.071-.024-.11-.076-.085-.113-.071-.194.015-.229zm-62.337 11.261c-.025.044-.027.1-.051.143.067.17.126.3.188.311-.027-.069-.057-.183-.089-.29-.021-.059-.039-.11-.05-.16zm51.125-8.863c.495-.087.917 0 .954.214s-.226 1.13-.721 1.216-1.038-.687-1.075-.9.346-.441.841-.527zm-51.484 9.538l-.1.19c.02.114.041.214.052.3a.819.819 0 0 1 .233-.194.585.585 0 0 1-.186-.292zm-.185.357c-.148.281-.3.558-.443.843.179.434.525.194.466-.388a.377.377 0 0 1 .042-.2c-.016-.045-.032-.12-.051-.182-.009-.017-.01-.046-.016-.069zm1.591 2.089c.031-.033.093.083.179.37.064.213.079.387.031.4s-.032.182.032.4.08.406.035.414a1.947 1.947 0 0 1-.233-.781 1.814 1.814 0 0 1-.046-.8zm56.75-9.8c-.271.138-.418.2-.93.47a13.149 13.149 0 0 0-1.741 1.071c.038.163.031.292-.593.429a30.805 30.805 0 0 1 3.478 2.711c.066-.015.138-.042.2-.054.445-.09.787-.108.782 0 0 .03-.128.1-.3.167.238 0 .461.014.461.014l.082.464.074-.013c.177-.027.27-.032.269.01s-.128.13-.3.226l.079.445a30.79 30.79 0 0 1 2.755 3.164c.307.036.548.176.582.374a.367.367 0 0 1-.1.286c.274.383.524.783.781 1.181a.185.185 0 0 1 .128.073.08.08 0 0 1 0 .1q.094.145.186.292l3.687-.65c-.323-.569-.668-1.126-1.021-1.673h-.019a.619.619 0 0 1-.081-.139.31.31 0 0 1-.007-.037c-.278-.424-.573-.831-.87-1.242-.038-.011-.049-.04-.052-.086-.483-.666-1-1.3-1.525-1.928a1.419 1.419 0 0 1-.648.763 1.26 1.26 0 0 1-1.492-.119c-.011 0-.027 0-.037.007-.3.094-.42 0-.463-.243-.06-.338.142-.55.883-.844a2.173 2.173 0 0 1 .958-.418c.027 0 .049-.01.074-.013a34.661 34.661 0 0 0-5.282-4.782zm-46.043 8.655c.011.043.032.051.059.008-.023.005-.038-.001-.061-.002zm-.061.087c-.068 0-.151.289-.177.623-.03.39-.019.573.024.569s.118-.212.179-.605.05-.586-.028-.581zm57.779-9.808a.386.386 0 0 1-.2.15 2.45 2.45 0 0 0-.619.281 23.593 23.593 0 0 1-2.6.993c.438.457.862.919 1.278 1.4 0-.008.014-.014.015-.022.025-.129.048-.213.075-.223s.079.083.123.265c.069.281.2.359.324.21a3.4 3.4 0 0 1 .951-.568c.7-.3.731-.281.547.286-.112.344-.567.658-1.306.937.139.169.3.325.432.5a.211.211 0 0 1 .024-.081.521.521 0 0 1 .3-.167 3.257 3.257 0 0 1 .986-.04l.134.76-1.186-.116c.544.7 1.068 1.428 1.567 2.17a.76.76 0 0 1 .216-.076c.143-.02.223.051.206.193a.427.427 0 0 1-.187.243 39.06 39.06 0 0 1 2.491 4.376c.1-.824.518-2.384.32-2.846-.283-.659-1.185-.9-.657-1.126a.8.8 0 0 1 .2-.054 1.067 1.067 0 0 1 .9.338 1.252 1.252 0 0 1 .067-.164c.018-.037.026-.058.046-.066a.04.04 0 0 1 .019 0c.042 0 .088.068.11.191a.578.578 0 0 1-.022.31 1.735 1.735 0 0 1 .138.243 5.946 5.946 0 0 1-.906 3.638 39.329 39.329 0 0 1 2.01 5.225.165.165 0 0 1 .128-.137c.141-.025.26.116.273.353s-.055.411-.135.426c-.029 0-.054-.028-.087-.062.109.378.2.768.3 1.151a3.7 3.7 0 0 1 .545-.268 6.535 6.535 0 0 1 1.227-.407c.331-.065.558-.052.6.047.084.2-.619.393-1.542.788-.412.176-.586.279-.706.335.2.824.388 1.656.538 2.5a39.976 39.976 0 0 1 .585 5.705l1-.158a.265.265 0 0 0 .025.034c.053-.045.089-.07.15-.122a1.032 1.032 0 0 1 .326-.211c.113-.029.126.085.124.379s-.116.6-.248.655-.57.276-.982.5a1.751 1.751 0 0 1-.394.146 39.233 39.233 0 0 1-.905 8.414 8.586 8.586 0 0 0 1.622-1.2 11.446 11.446 0 0 1 2.427-1.727c.033-.254.066-.507.094-.762-.279.126-.514.224-.514.224l-.444.193-.12-.246a9.9 9.9 0 0 1 1.16-1.007c.11-1.2.171-2.42.179-3.643-.069-.065-.066-.135.007-.173 0-.6-.009-1.2-.033-1.809a1.807 1.807 0 0 1-.6.278 1.158 1.158 0 0 1-.2.036c-.7.062-.754.014-.589-.412a1.041 1.041 0 0 1 .563-.385.28.28 0 0 1-.1-.154c-.085-.281.252-.664.829-1.044-.014-.169-.036-.338-.051-.506a2.939 2.939 0 0 0-.551.345.23.23 0 0 1-.1.057.547.547 0 0 1-.422-.117c-.371-.248-.368-.293.188-.664.27-.179.548-.339.812-.487-.1-.914-.225-1.822-.388-2.74a43.015 43.015 0 0 0-2.317-8.266c-.192-.029-.28-.1-.265-.2.007-.043.061-.087.129-.137a42.766 42.766 0 0 0-6.387-10.873.725.725 0 0 1-.29.2.085.085 0 0 1-.083-.043.5.5 0 0 1 .107-.477c-.424-.511-.847-.999-1.283-1.483zm-60.636 11.266a.44.44 0 0 1 .137.014c.35.078 1.489.25 1.365.81-.053.246-.671.139-1 .369-.427.293-.609.892-.805.849a.459.459 0 0 1-.146-.07c0 .3-.076.415-.265.448-.21.037-.305-.031-.39-.371a.651.651 0 0 1-.043.084c-.1.139-.081.381.03.816.079.312.093.471.06.448a.329.329 0 0 1-.053-.086c-.274-.526-.342-1.411-.113-1.394a.648.648 0 0 1 .1 0c-.014-.07-.026-.153-.043-.241-.119-.679-.1-.785.215-.84a.381.381 0 0 1 .25.013 1.147 1.147 0 0 1 .583-.81.53.53 0 0 1 .116-.032zm61.582-9.58a.036.036 0 0 1 .019 0c.022.006.054.09.079.234.041.231.022.417-.021.424s-.087-.057-.1-.154a1.794 1.794 0 0 1 0-.44.092.092 0 0 1 .021-.058zm-70.566 15.081a1.148 1.148 0 0 0-.232.194 1.218 1.218 0 0 1-.3.226l.427.039c.046-.152.081-.31.129-.462-.013.011-.018.006-.026.01zm8.391-.849a.376.376 0 0 1 .117.017c.281.061.131.337.038.757s-.1.836-.379.774-.438-.455-.345-.875a.852.852 0 0 1 .461-.636.473.473 0 0 1 .106-.03zm62.669-9.485c.016-.013.048-.008.074-.013.106-.019.158.05.125.169-.018.06-.042.1-.076.109s-.073-.026-.109-.077c-.057-.068-.066-.141-.016-.181zm-5.465 4c.1-.018.189.213.254.682.073.529.029.914-.072.891-.033-.007-.083-.059-.126-.169-.174-.438-.211-1.369-.058-1.396zm-.756.152c.037-.007.073.13.087.386.013.223-.044.413-.116.422-.114.014-.111-.04-.069-.39.028-.255.058-.403.096-.409zm.29 1.21c.026-.012.049.009.087.061.083.116.092.212 0 .247s-.149-.048-.147-.184a.136.136 0 0 1 .054-.115zm-57.591 10.443c-.1.067-.214.14-.326.21l.3-.052c.005-.043.011-.097.023-.149zM1520.619 817c.026-.012.068.005.106.058.084.116.073.216-.013.25s-.131-.051-.129-.187c.001-.07.01-.111.036-.121zm-79.459 14.261c.016-.013.028-.005.055-.01.107-.018.159.05.125.169-.016.06-.041.1-.076.109s-.073-.026-.109-.076a.135.135 0 0 1 .004-.193zm79.8-11.455c.035-.007.069.007.106.057.072.1.049.2-.057.22s-.181-.065-.147-.184a.126.126 0 0 1 .099-.099zm1.958.38l1.154 1.669c-.575-.079-.892-.54-1.376-.541h-1.605zm-1.525.345a.284.284 0 0 1 .2.042c.112.077.02.172-.193.206s-.3-.025-.2-.137a.334.334 0 0 1 .194-.112zm-.582 1.9c.106-.019.163.068.129.187-.017.06-.041.1-.077.109s-.073-.026-.109-.076c-.071-.103-.048-.204.058-.222zm-80.3 14.486a.3.3 0 0 1 .254.031c.112.077.039.169-.175.2s-.319-.04-.217-.152a.3.3 0 0 1 .14-.081zm1.112.778a.7.7 0 0 1 .148-.026c.273-.045.63.028.71.238.048.125-.14.273-.42.322a.514.514 0 0 1-.6-.257.225.225 0 0 1 .164-.279zm-1.069.437c.035-.007.073.026.108.077.073.1.05.2-.056.22s-.163-.068-.129-.187c.023-.063.044-.106.079-.112zm83.711-14.419c.036-.006.07.008.106.058.072.1.049.2-.057.22s-.162-.068-.128-.188c.014-.061.046-.086.08-.092zm-83.365 15.045l1.341.126s.206.216.072.408c-.224.32-1.278.225-1.278.225zm83.527-14.272c.042-.01.078.011.124.055.094.087.07.19-.056.22s-.2-.045-.162-.163a.149.149 0 0 1 .089-.112zm-1.212 3.309l1.344-.18s.251.174.164.392c-.145.362-1.21.5-1.21.5zm2.833 4.583a3.31 3.31 0 0 0-.418.226 3.084 3.084 0 0 1 .423-.093c-.007-.044-.007-.089-.01-.133zm-80.866 14.739a.161.161 0 0 1 .143.051c.092.087.052.182-.1.208s-.22-.05-.162-.163a.161.161 0 0 1 .114-.096zm-1.42.614c.19-.039.348-.017.344.111 0 .089-.27.295-.586.466a1.241 1.241 0 0 1-.231.1c-.2.063-.317.012-.295-.158.022-.223.446-.45.763-.52zm.563-.061c.026-.012.071.024.109.076.084.116.073.216-.013.25s-.131-.051-.128-.187c-.005-.069.001-.128.027-.14zm80.1-13.782c.089-.038.16.143.254.681.107.6.1.843-.038.867s-.218-.176-.291-.675a1.523 1.523 0 0 1 .042-.848.089.089 0 0 1 .025-.026zm-81.73 14.49c.035-.006.073.026.109.076.072.1.046.182-.06.2s-.16-.05-.125-.17c.008-.057.033-.101.068-.107zm82.263-14.508c.037-.008.091.056.168.2.191.351.181.4-.018.443-.164.039-.229-.07-.223-.4-.005-.163.029-.235.065-.243zm.2 1.112c.035-.007.073.026.109.076.072.1.046.183-.06.2s-.177-.046-.144-.166a.155.155 0 0 1 .082-.11zm-.178.394a.243.243 0 0 1 .317.173c.032.181-.177.355-.467.388-.6.07-.613-.148-.01-.5a.572.572 0 0 1 .147-.061zm-2.215.983c.078-.031.131.052.129.187 0 .069-.01.111-.036.122s-.068-.005-.106-.058c-.097-.116-.086-.216.001-.251zm.5-.069c.106-.019.162.068.128.187-.017.06-.042.1-.076.109s-.073-.026-.11-.076c-.08-.101-.057-.202.049-.22zm.692-.084a.306.306 0 0 1 .092-.016c.149-.026.22.05.163.163a.162.162 0 0 1-.116.1.165.165 0 0 1-.143-.051.114.114 0 0 1-.005-.197zm-76.607 15.383a1.39 1.39 0 0 1-.141.063c-.417.122-.778.411-.823.642a.492.492 0 0 1-.078.205c-.039.04-.071-.045-.12-.247-.069-.281-.2-.359-.324-.21a2.65 2.65 0 0 1-.587.352v.019a1.041 1.041 0 0 1 .177 1.115 1.181 1.181 0 0 1-.682.789c.065.129.134.256.2.385.034-.02.079-.039.1-.057a15.247 15.247 0 0 1 1.661-.656 2.349 2.349 0 0 1 .113-.555c.156-.478.411-.835.611-.872a.145.145 0 0 1 .077.005 1.859 1.859 0 0 1 .464.358c-.228-.444-.446-.883-.657-1.337zm76.06-12.689a.04.04 0 0 1 .019 0c.049 0 .106.066.165.181.125.243.124.337-.031.368-.229.048-.305-.13-.2-.481a.1.1 0 0 1 .047-.068zm-70.129 12.9c.2.355.413.71.625 1.055.19-.058.252-.079.454-.137a4.785 4.785 0 0 0 1.288-.495c.009-.018.038-.022.071-.031a1.14 1.14 0 0 1 .5.026c.834.2.494.718-.6.909a10.678 10.678 0 0 0-1.318.327c.3.46.608.9.925 1.347.273-.1.487-.162.487-.162l.583.489c.03-.013.059-.046.086-.054.173-.046.255-.241.184-.471s0-.412.166-.469.764-.24 1.342-.408c.185-.054.368-.124.539-.191-.09-.117-.185-.234-.272-.353-.359.138-.7.182-.876-.094a.735.735 0 0 1-.1-.327c-.329-.015-.543-.1-.541-.249 0-.2.276-.4.666-.557-.177-.266-.354-.533-.524-.806l-1.723.3a.209.209 0 0 1 .01.055.324.324 0 0 1-.214.305.437.437 0 0 1-.148.026c-.2.01-.322-.042-.271-.124a1.1 1.1 0 0 1 .14-.178zm60.012-10.583a30.738 30.738 0 0 1-2.788 7.81h.018c.482-.08.778-.068.629.1a2.708 2.708 0 0 1-1.183.877 30.826 30.826 0 0 1-3.782 5.31 11.763 11.763 0 0 0 1.485-.682 15.069 15.069 0 0 1 2.321-.81c.853-.247 1.669-.536 2.217-.754.442-.707.869-1.434 1.26-2.171a2.092 2.092 0 0 1 .623-1.237c.23-.481.449-.98.657-1.472-.018.006-.035.023-.052.028a8.314 8.314 0 0 1-1.222.33c-.427.066-.491-.075-.561-.474-.1-.553-.084-.606.072-.242.128.3.21.325.26.069.023-.12.282-.267.633-.417-.236-.719-.285-.748-.624-.291-.2.274-.465.393-.567.253s.1-.492.487-.812c.016-.013.037-.016.052-.028-.308.023-.586-.075-.63-.329a.43.43 0 0 1 .335-.479.963.963 0 0 0 .517-.32 7.756 7.756 0 0 1 2.689-1.219 34.113 34.113 0 0 0 .841-3.683zm10.234-1.327c.079-.032.153.066.151.2a.1.1 0 0 1-.058.106c-.026.01-.049-.009-.087-.061-.084-.112-.092-.209-.005-.244zm-74.854 14.271c-.052.011-.087.035-.145.044a3.466 3.466 0 0 0-2.044.762 5.2 5.2 0 0 1-1.071.532c.6 1.089 1.233 2.153 1.916 3.178a.238.238 0 0 1 .037-.007c.167-.03.239.04.309.232.074.022.079.03.143.051.083-.142.061-.38-.045-.795-.073-.286-.1-.441-.078-.444s.042.026.072.083a2.3 2.3 0 0 1 .234 1.22c.094.033.3.1.3.1l.465.147-.072.242s-.379.024-.8.026a42.664 42.664 0 0 0 3.048 3.857 1.508 1.508 0 0 1 .358-.139.838.838 0 0 1 .34-.022c.475.1.467.738.362 1.293.617.646 1.261 1.254 1.914 1.86-.084-.115-.073-.216.013-.251s.149.048.147.184a.138.138 0 0 1-.054.125c-.013 0-.022 0-.04-.013a42.54 42.54 0 0 0 4.31 3.539.53.53 0 0 1 .043-.084l.152-.219-.237-.264c-.195-.208-.179-.265.1-.322s.331 0 .26.279c-.087.34-.076.369.1.364.143 0 .183.123.177.465a.519.519 0 0 1-.03.158c0 .005.005.014 0 .019.207.142.433.264.644.4a.11.11 0 0 1 .067-.051c.042-.009.078.011.125.055a.117.117 0 0 1 .029.167c.685.444 1.388.868 2.1 1.273a3.239 3.239 0 0 1 1.333-.35c0-.008.011-.013.016-.022a.263.263 0 0 1 .165-.144c.515-.145 1.86.8 1.86.8l.408.252-.137.2a10.632 10.632 0 0 1-1.522-.4l.319.4a.125.125 0 0 1 .087-.054c.106-.019.18.065.147.184a.185.185 0 0 1-.062.087v.019h-.1c-.082.008-.359.016-.683.025.851.434 1.721.827 2.6 1.2a1.4 1.4 0 0 0 .564-.482 6.194 6.194 0 0 1 .965-1.03 4.961 4.961 0 0 0 .808-.83c.03-.06.043-.089.061-.087s.052.1.049.278a2.812 2.812 0 0 1-.873 1.224 6.692 6.692 0 0 0-1.019 1.154c.63.26 1.263.5 1.906.734.034-.037.079-.1.125-.156-.011-.01-.028.005-.04-.011-.084-.116-.073-.216.013-.251s.139.044.144.166a8.48 8.48 0 0 0 .817-1.214.158.158 0 0 1 .046-.065c.042-.031.07.05.079.234a1.165 1.165 0 0 1-.323.764 2.2 2.2 0 0 0-.452.691 42.7 42.7 0 0 0 15.88 2.3c-.013-.026-.018-.036-.032-.07-.186-.485-.205-.919-.052-.946.086-.016.194.237.252.567a1.9 1.9 0 0 1 .039.433c.308-.016.619-.027.928-.049-.011-.053.029-.1.113-.116.109-.026.193.014.19.1.361-.028.725-.078 1.087-.116v-.018c-.041-.231-.044-.432 0-.44s.1.054.122.151a1.406 1.406 0 0 1 0 .306c.983-.1 1.959-.231 2.946-.405 1.347-.238 2.655-.552 3.948-.906.2-.1.416-.188.638-.285a9.877 9.877 0 0 0 1.607-.856 6.422 6.422 0 0 1 2.241-.721 8.209 8.209 0 0 1 1.2-.134h.019a42.5 42.5 0 0 0 5.439-2.851.457.457 0 0 1-.208-.421c.038-.567.833-1.153 1.577-1.348a2.162 2.162 0 0 1 .315-.055 1.028 1.028 0 0 1 .691.126.5.5 0 0 1 .087.061q1.051-.754 2.055-1.566c-.025.007-.044.027-.071.032-.283.05-.515-.045-.512-.2 0-.013.01-.028.012-.04a1.894 1.894 0 0 1-.692.084c-.256-.036-.051-.125.459-.214.142-.025.26-.055.351-.062a.851.851 0 0 1 .366-.2c.223-.048.439 0 .472.185a.239.239 0 0 1-.021.1c.121-.1.248-.192.368-.294-.051-.022-.08-.064-.085-.156a.428.428 0 0 1 .28-.47c.175-.03.327.014.323.1a.45.45 0 0 1-.036.121 43.3 43.3 0 0 0 9.908-12.715 5.821 5.821 0 0 1-2.548-.257.357.357 0 0 1-.2.073c-.191.034-.275-.026-.2-.137a.236.236 0 0 1 .154-.1.352.352 0 0 1 .037-.007.49.49 0 0 1-.079-.12c-.138-.41.308-.634.785-.75a5.846 5.846 0 0 1 .988-.135l1.056 1.437c.417-.807.809-1.608 1.175-2.442-.033-.083-.023-.153.045-.18a.042.042 0 0 1 .019 0c.009 0 .014.013.022.016.486-1.124.935-2.26 1.325-3.425 0-.013.007-.027.012-.04a1.447 1.447 0 0 1 .12-.4c.2-.612.381-1.233.552-1.855a.385.385 0 0 1-.063-.141c-.04-.223-.012-.342.071-.356a.192.192 0 0 1 .117.017c.137-.524.273-1.048.391-1.578a.794.794 0 0 1-.235.079c-.11.013-.077-.082.01-.27a2.878 2.878 0 0 1 .4-.662q.193-.97.344-1.952a5.831 5.831 0 0 0-1.724 1.164c-.191.223-.4.427-.6.621a.172.172 0 0 1 .037-.006c.062 0 .1.044.122.151.126.706.2 1.455.2 1.455l-2.091.712a17.916 17.916 0 0 1 1.3-1.93 6.267 6.267 0 0 1-1.267.835l.3-.015-.3.377a2.857 2.857 0 0 1-.324.325c-.162.607-.332 1.215-.521 1.811.115-.142.248-.3.312-.4a.185.185 0 0 1 .064-.069c.057-.025.094.071.1.268.013.232.067.409.109.4s.06-.175.049-.372c-.023-.417 2.9-.859 3.051-.462.057.147-.426.38-1.056.511a10.3 10.3 0 0 0-2 .659 2.208 2.208 0 0 1-.614.2.487.487 0 0 1-.25-.013 39.48 39.48 0 0 1-2.583 5.939c.069.079.034.158-.082.186h-.019c-.321.592-.66 1.17-1.01 1.745a5.781 5.781 0 0 1 .006.686l-.5.089c-.588.914-1.217 1.818-1.877 2.681.026.014.051.021.062.027.177-.033.441-.1.46-.1a.279.279 0 0 1 .2.041c.111.078.02.172-.193.206-.017 0-.117.022-.149.026.264.141.571.3.743.423a.3.3 0 0 1 .082.139c.016-.007.03-.023.052-.028.1-.02.125-.2.064-.393s.125-.412.453-.462c.31-.047.534.008.5.122a2.479 2.479 0 0 0 .041.776c.075.425-.017.581-.384.641a.693.693 0 0 1-.683-.3c-.008-.015-.018-.019-.026-.034-.005.013 0 .03-.012.04-.223.32-1.278.226-1.278.226l.014-1.111h-.133a39.414 39.414 0 0 1-4.866 5.234 1.423 1.423 0 0 1-.033.789c-.043.051-.095 0-.166-.181a2.543 2.543 0 0 1-.1-.346 39.282 39.282 0 0 1-13.068 7.578 2.306 2.306 0 0 1 .3.31.865.865 0 0 0 1.307.152h.018v-.535l.379.2c.054-.052.106-.1.162-.162.19-.2.284-.125.359.3.011.063.006.112.011.17.069.041.159.08.211.115-.014-.06-.038-.109-.054-.2-.076-.429-.037-.641.16-.716.154-.058.485-.2.727-.319a3.537 3.537 0 0 1 .9-.293 1.192 1.192 0 0 1 1.059.157c.253.275.24.329-.172.432a.673.673 0 0 1-.71-.238c-.144-.249-.2-.238-.185.032.013.228-.313.457-.747.533a1.105 1.105 0 0 0-.824.527c.268-.3.475-.444.524-.169.126.705.2 1.455.2 1.455l-2.091.713s.331-.589.713-1.157a4.218 4.218 0 0 1-.65 0 2.538 2.538 0 0 1-.336.155c-.326.11-.478.005-.634-.347-.141-.316-.382-.563-.553-.533-.231.041-.307-.058-.3-.405a.838.838 0 0 1 0-.1c-.627.211-1.261.4-1.9.584.009.176-.031.327-.111.344-.14.03-.135.105.013.4.111.219.142.373.087.386s-.134-.153-.2-.367a3.347 3.347 0 0 1-.122-.686c-1.181.324-2.386.612-3.616.829-.547.1-1.092.178-1.637.25a3.866 3.866 0 0 1 .163 1.577 3.107 3.107 0 0 1-1.234.37c-.843.136-1.072.085-1.2-.285-.138.015-.229-.04-.178-.141a.234.234 0 0 1 .117-.1.587.587 0 0 1 .155-.639.447.447 0 0 1-.161.067c-.191.034-.275-.026-.2-.137a.235.235 0 0 1 .333-.059c.054.038.062.075.039.108a3.146 3.146 0 0 1 .609-.337c.217-.1.427-.207.612-.318a39.33 39.33 0 0 1-8.6.006c-.115.359-.4.609-.667.557-.232-.046-.081-.266.035-.56a.045.045 0 0 1-.031-.071 39.527 39.527 0 0 1-3.9-.687l-.022.959s-.841-.391-1.157-.6a.405.405 0 0 1-.085-.482.5.5 0 0 1 .244-.138c-.28-.073-.563-.137-.841-.215a2.565 2.565 0 0 0-.168.24c-.278.466-.441.679-.566.692-.075.008-.131-.064-.187-.2-.126-.3-.3-.322-.5-.1s-.333.172-.375-.068c-.1-.565.368-1.015.833-.8.168.078.25.09.291.025a39.345 39.345 0 0 1-12.821-6.623 2.261 2.261 0 0 0-.232.958c.125.708.958 1.15.392 1.25a1.2 1.2 0 0 1-1.262-1.1 3.285 3.285 0 0 1 .428-1.47 1.514 1.514 0 0 0-.283.126.76.76 0 0 1-.179.069c-.15.042-.228-.019-.2-.174.015-.089.212-.237.467-.388-.124-.1-.255-.193-.377-.3-.394.151-.812.313-1.2.441a9.2 9.2 0 0 1-1.219.349c-.427.066-.494-.093-.564-.493-.1-.553-.081-.586.075-.223.127.3.206.306.256.051.019-.1.19-.206.44-.326a.835.835 0 0 1-.124-.379c-.02-.111-.043-.2-.049-.278-.069.031-.135.131-.254.293-.2.274-.469.373-.57.234s.1-.474.49-.794l.034-.025c-.309.023-.568-.078-.613-.331a.45.45 0 0 1 .333-.5 1.008 1.008 0 0 0 .5-.281c-.526-.526-1.031-1.065-1.528-1.622a.415.415 0 0 1-.068.05c-.081.037-.155-.122-.216-.363-.68-.779-1.336-1.592-1.956-2.425.025.08.018.154-.045.179-.079.032-.153-.067-.15-.2a.139.139 0 0 1 .055-.125c.013-.006.018-.016.037-.007q-.608-.825-1.176-1.684c-.17.336-.371.544-.524.494-.2-.067-1.034-.736-.856-1.282a.962.962 0 0 1 .558-.519c-.176-.355-.397-.731-.61-1.111zm65.152-11.222a.467.467 0 0 1 .117.017c.281.062 0 .341-.095.762s.031.814-.249.752-.438-.455-.346-.876a.768.768 0 0 1 .574-.654zm2.331-.105c.078-.032.149.048.147.184 0 .069-.01.111-.036.122s-.067-.006-.105-.058c-.084-.116-.092-.214-.005-.248zm-57.151 11.206c-.01.011-.024.013-.033.025a2.813 2.813 0 0 1-1.04.6 3.963 3.963 0 0 0-1.218.788l.313.251s-.335.1-.747.208c-.049.051-.082.093-.129.137a34.331 34.331 0 0 0 4.071 4.346 5.845 5.845 0 0 1 .6-.145 1.751 1.751 0 0 1 .588-.027c-.029-.188.008-.346.09-.359a.18.18 0 0 1 .2.137.706.706 0 0 1-.081.3.232.232 0 0 1 .084.157c.045.251-.313.379-.74.456a.345.345 0 0 1-.052.028.194.194 0 0 1-.056.01c.256.218.522.435.783.646.043-.033.08-.045.12-.078a12.057 12.057 0 0 1 1.284-.628 8.287 8.287 0 0 0 1.81-1.218c-.668-.492-1.308-1-1.936-1.55l-.027.062a8.259 8.259 0 0 1-1.976-.263c-.066.166-.131.307-.19.435.07.083.038.177-.079.205h-.019l-.058.105-.4.09a.163.163 0 0 1 .143.051c.092.087.051.182-.1.208s-.237-.046-.18-.159a.193.193 0 0 1 .135-.1c-.559.123-1.517.261-1.6-.309-.093-.617.8-1.5 1.583-1.75a1.448 1.448 0 0 1 .333-.059.818.818 0 0 1 .332.037c.254.086.324.318.3.6a7.365 7.365 0 0 1 1.427.512 30.762 30.762 0 0 1-3.534-3.749zm56.308-9.051c-.133.023-.184.2-.116.422s.018.4-.116.421-.283-.123-.344-.321c-.166-.548-.556-.281-.495.336a.454.454 0 0 1-.038.217c.015.045.029.1.048.164a1.8 1.8 0 0 1 .07.618c-.019.145-.079-.018-.14-.358-.021-.124-.043-.229-.055-.315a.93.93 0 0 1-.23.213c.157.112.253.429.322.955.2-.067.411-.135.635-.188l.349-.081c.191-.5.368-1 .536-1.509-.039 0-.079-.07-.113-.21-.055-.228-.185-.387-.312-.364zm-3 1.924c.169-.034.275.041.218.153a.187.187 0 0 1-.135.1.221.221 0 0 1-.176-.026c-.12-.078-.079-.192.09-.227zm.211.976c.142-.021.252.022.276.162.029.163-.045.333-.167.354a1.446 1.446 0 0 0-.55.346.825.825 0 0 1-.15.122c-.126.069-.178-.013-.176-.236 0-.337.451-.703.764-.749zm1 1.009a.86.86 0 0 1 .111-.019c.247-.042.427.04.464.243s.042.374 0 .343a4.021 4.021 0 0 0-.578-.242l-.509-.177zm7.657-.567a.762.762 0 0 1 .111-.02c.26-.034.413.114.5.466a1.96 1.96 0 0 1 .063.792.436.436 0 0 1-.313.284.459.459 0 0 1-.569-.3c-.067-.22-.03-.426.088-.474l.216-.076-.277-.276c-.231-.212-.2-.292.176-.397zm-60.565 11.35c.107-.019.163.069.129.187-.017.06-.044.084-.08.09a.127.127 0 0 1-.125-.054.131.131 0 0 1 .072-.224zm1.5-.265s.015-.006.018 0c.035.024.157.1.281.18a1.3 1.3 0 0 1 .382.544c.052.138.064.219.043.242s-.072-.013-.171-.1c-.157-.145-.347-.243-.419-.212s-.144-.126-.155-.336c-.014-.192-.009-.305.017-.319zm3.288.662a6.927 6.927 0 0 1-2.02 1.541h.306l-.3.377a2.752 2.752 0 0 1-.577.522c.468.343.951.669 1.435.989.84-.172 1.877-.237 1.967 0 .056.147-.41.358-1.041.489-.039.008-.089.013-.13.023a34.334 34.334 0 0 0 11.32 4.5 3.829 3.829 0 0 1 .28-1.444 5.471 5.471 0 0 1 .935-.337c.475-.115.979-.141 1.112.243.183.526-.392 1.34-1.045 1.77a34.168 34.168 0 0 0 18.431-2.084c-1.482.243-2.966.369-3.048.155-.053-.138.129-.278.4-.32s1.36-.312 2.416-.6 1.957-.388 2-.238.271.076.509-.148a4.787 4.787 0 0 1 1.627-.956c.123-.03.2-.024.2.042 0 .019-.018.039-.026.062.639-.366 1.271-.73 1.882-1.134-.008-.017-.026-.037-.029-.052-.423.027-.785-.12-.829-.37-.05-.282.321-.592.816-.679s.283.193.333.476c.024.139.1.249.117.342a34.446 34.446 0 0 0 7.7-7.224c-.071-.243-.092-.368.009-.384a.56.56 0 0 1 .239.054q.542-.709 1.045-1.445a23.991 23.991 0 0 1-3 .872h-.192c-.094-.008-1.407.477-2.833 1.054-.472.495-.96.98-1.465 1.444a.113.113 0 0 1 .052-.029c.035-.006.069.008.105.058.073.1.05.2-.057.22s-.181-.065-.147-.184a.176.176 0 0 1 .011-.04 30.724 30.724 0 0 1-5.381 3.93c.91-.119 1.377-.075 1.343.145-.053.356-2.342.971-4.255 1.323-.411.182-.823.361-1.244.525a.556.556 0 0 1 .031.071c.037.212-.326.459-.821.546a1.441 1.441 0 0 1-.792-.051c-.485.16-.974.3-1.471.431-.022.084-.038.14-.073.128a.19.19 0 0 1-.072-.083c-.884.238-1.782.448-2.7.611l-.148.026c.348-.011.678.051.73.349.044.248-.571.373-.792.713-.283.434-.218 1.071-.416 1.1-.354.063-.729-.339-.828-.9a1.12 1.12 0 0 1 .3-1.1c-.243.034-.488.063-.729.09-.005.207-.037.357-.087.379s-.115-.064-.185-.293c-.006-.02 0-.036-.01-.056a30.792 30.792 0 0 1-3.543.167.637.637 0 0 1 .235.36c.1.565-.756 1.3-.968 1.335s-.472-.4-.572-.969a2.026 2.026 0 0 1 0-.764 30.558 30.558 0 0 1-8.208-1.59 6.062 6.062 0 0 1-1.078.171l-.555-.762c-.383-.155-.764-.336-1.14-.506-.09.026-.177.064-.271.086a9.606 9.606 0 0 0-1.419.4.15.15 0 0 1-.089.036 3.807 3.807 0 0 1-.789-.033l-.78-.092.6-.182c.782-.243 1.411-.441 1.921-.588-.3-.147-.6-.3-.9-.452-.507.163-.914.284-1.163.339-.433.094-.542.043-.536-.116s.4-.39.959-.627q-.42-.236-.83-.484a2.339 2.339 0 0 1-.546.268c-.109.013-.076-.082.01-.269.044-.1.085-.171.128-.252-.46-.298-.926-.603-1.378-.926zm43.817-7.517a4.634 4.634 0 0 1 .934-.012s-.465.526-.6.717a.907.907 0 0 1-.8.314s-.268-.568-.134-.76a.9.9 0 0 1 .596-.26zm-46.792 9.494c-.056.023-.094.026-.144.045.017.014.028.036.047.049.029-.03.056-.066.093-.095zm-6.531 1.419a.857.857 0 0 1-.234.194c.157.113.253.43.322.956a6.557 6.557 0 0 1 .635-.188c.1-.024.159-.042.256-.064-.285-.254-.564-.506-.842-.768a1.81 1.81 0 0 1 .057.544c-.019.145-.079-.018-.139-.357-.026-.127-.047-.231-.059-.318zm62.929-11.041a.165.165 0 0 1 .143.051c.092.087.052.183-.1.208s-.238-.046-.181-.159a.2.2 0 0 1 .134-.1zm-63.473 11.748c.027.069.053.165.086.272a.845.845 0 0 1 .05.392c.049-.023.1-.061.157-.085-.131-.386-.204-.56-.297-.579zm11.024-1.18c.083-.015.22.076.429.269.255.233.253.275-.067.375a.341.341 0 0 1-.433-.287c-.042-.224-.015-.343.067-.358zm41.027-6.547a3.326 3.326 0 0 1 .487-.048h.019c.177-.044.366-.084.533-.113.415-.073.766-.089.8.011.072.187-.3.464-.917.754-.013.008-.02.017-.034.025a1.572 1.572 0 0 0-.482.41c-.282.434-.221 1.051-.42 1.086-.354.063-.729-.339-.828-.9v-.018c-.163 0-.242-.061-.181-.159s.108-.2.174-.317a.692.692 0 0 1 .479-.639c.086-.024.215-.065.365-.093zm10.53-1.818c.035-.006.069.007.105.058.073.1.05.2-.056.22s-.162-.068-.129-.187c.014-.062.045-.086.077-.092zm-12.856 2.5a.781.781 0 0 1 .149-.026c.274-.045.629.028.71.238.048.125-.14.273-.42.323a.668.668 0 0 1-.471-.07 1.858 1.858 0 0 1 .335.82c.1.565 0 1.05-.209 1.087s-1.432-.215-1.532-.781c-.052-.3.618.027.917-.219.266-.219.153-1.039.253-1.057a.17.17 0 0 1 .12.036.3.3 0 0 1-.031-.071c-.042-.128.042-.233.175-.285zm12.239-1.986a.251.251 0 0 1 .179.045c.113.078.069.155-.1.19s-.271-.022-.215-.134a.184.184 0 0 1 .133-.106zm-60.768 10.75a.164.164 0 0 1 .193.119.8.8 0 0 1-.1.381c-.016.033-.025.075-.042.084-.052.029-.106-.058-.132-.207-.039-.198-.004-.363.081-.377zm-1.158.261c.246-.041.431.06.467.262.039.218.042.375 0 .343a4.8 4.8 0 0 0-.6-.239l-.509-.178.527-.15a1.033 1.033 0 0 1 .116-.039zm45.91-6.262a.615.615 0 0 1 .074-.013c.213-.035.316.022.214.134a.37.37 0 0 1-.187.129.293.293 0 0 1-.2-.06c-.097-.069-.056-.148.097-.189zm16.2-2.627c.057-.01.17.111.291.35.149.3.15.37.013.4-.092.02-.226-.137-.291-.35-.078-.249-.073-.391-.015-.401zm-1.281.646c.064 0 .116.09.114.209 0 .068-.014.093-.04.1s-.068-.006-.105-.058c-.084-.115-.071-.2.016-.232.006-.002.003-.019.012-.019zm-14.432 2.66c.106-.019.162.068.129.187-.018.06-.042.1-.077.109s-.073-.026-.109-.076c-.075-.098-.052-.198.054-.22zm14.773-1.268c-.027 0-.071.051-.114.115-.132.2-.132.306-.006.4a.094.094 0 0 0 .078.006c.063-.014.1-.122.1-.285s-.02-.246-.061-.236zm-55.97 10.425a.161.161 0 0 1 .143.051c.092.087.048.163-.1.19s-.234-.028-.178-.14a.2.2 0 0 1 .132-.102zm54.177-9c.166-.034.273-.038.272.028 0 .134-.405.457-.909.7a2.89 2.89 0 0 1-.648.229c-.166.032-.276.023-.276-.047 0-.14.409-.444.913-.677a3.266 3.266 0 0 1 .645-.234zm-34.055 6.216a.164.164 0 0 1 .193.119.8.8 0 0 1-.1.382.163.163 0 0 1-.046.065c-.052.03-.1-.039-.129-.188-.042-.198-.006-.365.079-.379zm4.58-.674c.089-.016.173.061.262.183.506-.2.978-.3 1.091.017.106.291-.33.5-.823.642.009.039.013.07.02.111.1.565.021 1.047-.191 1.084s-1.432-.215-1.532-.78a.083.083 0 0 1 .058-.106l-.043-.241s.534-.329 1.1-.595c.009-.167.017-.31.055-.316zm-5.9 1.079c.065 0 .115.091.114.209 0 .068-.032.1-.058.106s-.049-.009-.087-.061c-.084-.115-.089-.194 0-.229.001-.005.015-.026.025-.026zm-14.849 2.676c.125-.031.2.045.162.163a.124.124 0 0 1-.1.093c-.042.01-.078-.011-.124-.054-.097-.088-.071-.173.056-.203zm34.181-5.933c.52-.086.687-.026.487.163a20.41 20.41 0 0 1-4.979 1.451c-.305.059-.6.112-.852.151-.048.054-.443.492-.569.674a.694.694 0 0 1-.23.213c.2-.026.279.051.181.159a.329.329 0 0 1-.195.091.26.26 0 0 1-.2-.023c-.078-.054-.066-.126.026-.177a1.69 1.69 0 0 1-.389.069s-.271-.587-.137-.779a.7.7 0 0 1 .4-.2c-.01-.011-.03-.019-.025-.034.053-.194.717-.455 1.483-.586s2.414-.523 3.67-.857c.574-.159 1.01-.263 1.323-.314zm12.787-1.586c.039-.02.091.028.144.166.172.446.21 1.377.057 1.4-.1.018-.186-.194-.251-.663-.073-.482-.041-.86.044-.904zm.593-.1c.079-.032.135.069.132.205 0 .069-.013.093-.039.1s-.068-.005-.106-.057c-.093-.118-.08-.218.007-.253zm2.123-.317c.056-.01.1-.023.166-.03l.9-.1-.736.378a1.7 1.7 0 0 1-.558.194c-.163.018-.276-.019-.323-.1-.088-.138.151-.278.544-.347zm-29.783 5.31a.821.821 0 0 0 .578-.083s-.007-.016 0-.019l-.333.058zm-19.688 3.836c.169-.035.271.022.214.134a.224.224 0 0 1-.153.1.184.184 0 0 1-.158-.029c-.12-.081-.079-.177.09-.211zm18.656-3.081c.026-.012.069.005.106.058.084.116.073.216-.013.251s-.131-.052-.129-.187c-.006-.075.003-.116.028-.128zm29.09-5.015c.113-.015.125.019.084.367-.031.264-.08.415-.117.421s-.073-.129-.087-.386c-.02-.227.04-.399.116-.408zm-47.47 8.792c.078-.031.152.067.15.2a.1.1 0 0 1-.058.106c-.026.01-.068-.006-.105-.058-.092-.119-.081-.219.005-.254zm43.521-6.376a.39.39 0 0 1 .093-.016c.149-.026.216.031.16.144a.161.161 0 0 1-.117.1.2.2 0 0 1-.161-.047.1.1 0 0 1 .017-.187zm-37.967 6.887s-1.752 2.8-1.926 2.079c-.055.01-.11-.122-.124-.379a.794.794 0 0 1 .025-.291c-.052-.389-.087-.711-.087-.711zm39.36-6.578c.556-.1 1.011-.11 1.007-.025-.008.221-.776.529-1.358.641-.35.067-.633.07-.641-.059-.018-.208.426-.465.984-.563zm1.706-.072c.016-.012.029-.005.055-.01.107-.019.16.049.125.169-.016.06-.041.1-.077.109s-.072-.026-.108-.077a.136.136 0 0 1-.003-.197zm-3.036.765a.2.2 0 0 1 .161.047c.092.087.033.186-.115.212s-.219-.05-.163-.163a.163.163 0 0 1 .109-.102zm1.767-.159c.326-.063.565-.058.563.054a3.573 3.573 0 0 1-1.365.6c-.219.069-.4.119-.546.154-.442.1-.565.065-.329-.134a4.569 4.569 0 0 1 1.669-.679zm-3.169.769c.19-.039.33-.013.326.114 0 .089-.252.292-.568.464a1.4 1.4 0 0 1-.249.1c-.2.063-.317.012-.3-.158.024-.226.466-.461.783-.526zm.547-.039c.027-.012.068.005.105.058.084.116.074.216-.012.251s-.131-.052-.129-.187c-.007-.075.002-.116.028-.128zm-39.8 7.115c.042-.009.083.036.1.154a.8.8 0 0 1-.1.381.167.167 0 0 1-.046.066c-.045.028-.086-.061-.094-.212-.023-.228.064-.381.132-.395zm.34-.022c.079-.032.131.051.129.187 0 .068-.01.111-.036.121s-.067-.005-.106-.058c-.09-.121-.081-.222.01-.256zm37.824-6.4a.156.156 0 0 1 .127.073.131.131 0 0 1-.075.223c-.106.019-.162-.068-.129-.187.01-.069.034-.112.07-.118zm-28 7.384c.026-.012.068 0 .106.057.084.116.076.234-.01.27s-.134-.071-.131-.207c-.01-.076-.002-.117.024-.132zm.389-.069a.167.167 0 0 1 .142.051c.093.087.07.19-.057.22s-.214-.042-.18-.159a.149.149 0 0 1 .084-.121zm2.215.431a.154.154 0 0 1 .128.073.119.119 0 0 1-.079.205c-.105.018-.158-.05-.125-.169.006-.068.031-.112.065-.118zm2.686.176a.359.359 0 0 1 .362.318c.015.084-.114.158-.273.182-.186.029-.272-.079-.244-.3.004-.131.064-.194.144-.209zm2.983-.526c-.123.047-.126.107-.01.155a.462.462 0 0 0 .254.032.378.378 0 0 0 .208-.113c.1-.111-.03-.15-.285-.1a1.387 1.387 0 0 0-.178.017zm.982-.173c-.17.045-.238.113-.122.174a.39.39 0 0 0 .236.036.34.34 0 0 0 .191-.11c.1-.112 0-.154-.231-.113-.039-.004-.056-.003-.085.004zm-6.491 1.316c.026-.011.049.009.087.061.084.116.092.213 0 .247s-.149-.048-.147-.184a.138.138 0 0 1 .049-.133zm-1.42.289l1.34.127s.209.235.075.426c-.224.32-1.278.226-1.279.226zm5.794-.945c.494-.087.264.2.313.48s.364.471-.131.558-.949-.076-1-.358.311-.602.807-.691zm10.212-1.782c.327-.073.614-.068.715.046.219.246 0 .4-.817.564-.595.124-1.073.16-1.095.079-.004-.255.64-.576 1.185-.698zm-2.034.492a2.137 2.137 0 0 1 .34-.022.4.4 0 0 1 .414.29c.028.164-.411.432-.984.594-1.42.4-2.429.7-3.245.992.009.061.018.1.029.167.075.424.223.8-.06.852s-.578-.245-.652-.668c0-.027.009-.051.005-.078-.169.069-.344.133-.5.2a4.963 4.963 0 0 1-.734.282c-.186.047-.291.032-.291-.025.006-.317.6-.769 1.533-1.168a2.208 2.208 0 0 0 .864-.515 12.228 12.228 0 0 1 2.764-.793c.174-.043.359-.093.505-.116zm-9.873 2.3c.036-.007.07.007.106.058.072.1.049.2-.057.22s-.162-.068-.128-.187c.009-.073.032-.098.067-.104zm2.514.168a.328.328 0 0 1 .092-.016c.149-.026.235.028.178.14a.193.193 0 0 1-.135.1.161.161 0 0 1-.143-.051c-.081-.078-.076-.147-.004-.186z" class="cls-1"/>
        <g id="그룹_2545" transform="translate(1454.619 823.244)">
            <path id="패스_4025" d="M1464.2 868.319c1.393-1.334 2.364-3 1.617-7.323l-.456-2.638 3.2-.553.456 2.638c.747 4.318 2.222 5.566 3.983 6.354l.6 3.479a8.88 8.88 0 0 1-5.115-3.336 8.9 8.9 0 0 1-3.683 4.858zm7.889-11.429l3.242-.561.86 4.967 1.532-.265.487 2.814-1.532.266 1.022 5.91-3.242.56z" class="cls-1" transform="translate(-1464.203 -848.891)"/>
            <path id="패스_4026" d="M1488.951 853.963l7.87-1.361a2.612 2.612 0 0 1 1.336 5.006l.169.973 2.4-.416.382 2.21-13.559 2.346-.382-2.21 2.461-.426-.166-.958a2.612 2.612 0 0 1-.514-5.163zm1.476 8.882l8-1.385a2.52 2.52 0 1 1 .859 4.967l-8 1.385a2.52 2.52 0 0 1-.859-4.967zm.029-6.061l5.969-1.033a.409.409 0 0 0-.137-.8l-5.968 1.033a.409.409 0 0 0 .137.8zm1.283 8.733l6.293-1.088a.375.375 0 0 0-.128-.737l-6.293 1.089a.375.375 0 0 0 .128.736zm.736-5.926l3.006-.52-.161-.928-3.006.52z" class="cls-1" transform="translate(-1473.233 -847.393)"/>
            <path id="패스_4027" d="M1513.16 849.8l3.64-.629a2.7 2.7 0 0 1 2.97 2.339 2.675 2.675 0 0 1-2.017 3.172l-.279.049.155.9 3.347-.747.408 2.358-9.284 2.058-.408-2.358 2.924-.642-.181-1.046-.325.055a2.652 2.652 0 0 1-2.95-2.312 2.681 2.681 0 0 1 2-3.197zm12.984 11.7l-12.35 2.136-.717-4.141 3.287-.568.311 1.8 9.064-1.568zm-11.585-8.531l2.034-.352a.555.555 0 0 0 .378-.627.587.587 0 0 0-.572-.494l-2.034.352a.573.573 0 0 0-.373.656.543.543 0 0 0 .567.467zm5.679-4.55l3.242-.561.65 3.759 1.533-.266.461 2.668-1.532.265.721 4.171-3.242.561z" class="cls-1" transform="translate(-1482.872 -845.521)"/>
            <path id="패스_4028" d="M1535.511 846.14l12.528-2.166.862 4.981-9.3 1.609.123.707 9.448-1.635.4 2.3-12.674 2.192-.887-5.129 9.3-1.608-.113-.648-9.3 1.608zm1.317 10.685l2.388-.413-.375-2.166 2.977-.515.375 2.166 2.919-.5-.375-2.166 2.977-.515.375 2.166 2.3-.4.459 2.653-13.558 2.346z" class="cls-1" transform="translate(-1492.578 -843.974)"/>
        </g>
    </g>
</svg>
