<svg xmlns="http://www.w3.org/2000/svg" width="86" height="86" viewBox="0 0 86 86">
    <defs>
        <style>
            .cls-1{fill:#dc3545}
        </style>
    </defs>
    <g id="그룹_2544" transform="translate(-1627.96 -791.869)">
        <path id="path4445" d="M1663.5 792.52a43.092 43.092 0 0 0-7.152 1.911l.213.23-.2.073c-.091.034-.164-.045-.228-.208a42.608 42.608 0 0 0-8.448 4.2c.149-.039.324-.095.438-.116.248-.047.422-.054.458 0 .15.209.073.347-.244.464l-.447.174.488.163c.86.293.722.725-.294.931a20.77 20.77 0 0 0-4.411 1.313c-.757.625-1.484 1.281-2.2 1.954a1.624 1.624 0 0 1 .327-.1c.054-.01.11-.022.167-.029.98-.117.951.092-.07.471a1.719 1.719 0 0 1-.293.07c-.262.048-.451.022-.459-.11-.077.075-.15.156-.227.231.084.116.077.235-.01.269-.065.026-.108-.049-.122-.15a43.384 43.384 0 0 0-6.6 8.387c.569 0 1.206.119 1.26.428.1.552-1.106.682-1.261.318-.128-.3-.211-.325-.261-.069-.015.075-.135.167-.3.263-.033.058-.07.113-.1.172a1.188 1.188 0 0 1 .087.271c.019.111.026.226.033.3a1.058 1.058 0 0 0 .273-.3c.2-.274.45-.371.551-.231s-.084.471-.472.79c-.017.014-.036.016-.052.028.309-.023.583.057.627.31a.465.465 0 0 1-.329.516.963.963 0 0 0-.519.3 4.409 4.409 0 0 1-1.631.823c-.031.064-.07.125-.1.19l1.424-.481.733 1.877c-.542-.208-.726-.71-1.2-.821l-1.116-.262a42.931 42.931 0 0 0-2.979 9.1 1.738 1.738 0 0 1 .16.258 4 4 0 0 1 1.556-.6c.785-.147 1.522-.122 1.517.153-.006.3-.569.6-1.3.764a5.188 5.188 0 0 1-1.394.111l-.519-.023a1.584 1.584 0 0 1-.176.088 42.63 42.63 0 0 0-.66 5.467l1.93-.646.754 1.893c-.542-.208-.747-.726-1.217-.836l-1.475-.351c-.066 1.168-.1 2.343-.067 3.527.99-.174 1.826-.158 1.863.054s-.692.256-1.681.43l-.148.026a43.165 43.165 0 0 0 .612 5.853c.24 1.36.553 2.681.912 3.985.239.128 1.026.875.876 1.393-.058.2-.284-.037-.527-.175.249.81.529 1.609.824 2.4a.629.629 0 0 1-.032-.4c.118-.407.726-.636 1.1-.691a.685.685 0 0 1 .266-.008c.191.069.222.574.063 1.116s-.441.925-.632.856a1.881 1.881 0 0 1-.757-.822c.4 1.065.839 2.112 1.317 3.131a.655.655 0 0 0 .07-.032 1.868 1.868 0 0 0 .513-.453c-.553.227-.595.177-.425-.346.13-.4.69-.768 1.663-1.077.375-.119.724-.249 1-.368-.322-.729-.612-1.478-.89-2.231a1.741 1.741 0 0 1-.618.07c-.256-.036-.055-.144.456-.233l.092-.016c-.09-.247-.2-.484-.282-.734-.064.017-.148.042-.2.055-.442.105-.547.061-.311-.137a2.214 2.214 0 0 1 .415-.245l-.121-.361c-.031-.019-.049-.035-.05-.067a.183.183 0 0 1 .009-.059c-.067-.211-.125-.423-.188-.635a.161.161 0 0 1-.1.075.164.164 0 0 1-.143-.052c-.069-.064-.065-.134.008-.173a.338.338 0 0 1 .093-.017.382.382 0 0 1 .093-.016c-.053-.182-.121-.36-.172-.543h-.019a.163.163 0 0 1-.143-.051c-.092-.087-.048-.163.1-.19-.18-.662-.342-1.338-.489-2.015a.6.6 0 0 1-.049-.278.17.17 0 0 0 0-.019c-.087-.417-.184-.83-.259-1.254-.218-1.236-.361-2.475-.462-3.7h-.018a3.62 3.62 0 0 1-.383.106c-.345.07-.545.051-.456-.092.12-.19.278-.462.354-.6a.981.981 0 0 1 .43-.267c-.022-.374-.032-.747-.044-1.119-.534.2-1.186.45-1.877.732a2.831 2.831 0 0 1-.305.111c-.249.068-.316 0-.188-.2a4.114 4.114 0 0 1 1.422-.824c.326-.129.645-.28.92-.411a39.216 39.216 0 0 1 .194-4.429c-.111-.055-.114-.156.025-.291.044-.426.1-.847.158-1.27a7.682 7.682 0 0 0-.934.337 2.319 2.319 0 0 1-.287.108c-.228.066-.283-.011-.172-.218a2.219 2.219 0 0 1 1.274-.8 1.286 1.286 0 0 1 .2-.036c.139-.9.3-1.8.5-2.687-.289-.159-.211-.395.146-.58.128-.53.26-1.059.409-1.582a4.2 4.2 0 0 1-.591.009.307.307 0 0 1-.189.338c-.157.052-.764.24-1.341.409a3.623 3.623 0 0 0-1.291.591 1.111 1.111 0 0 1-.094.112.389.389 0 0 1 .071-.031c.149-.026.219.049.162.163a.165.165 0 0 1-.117.1.2.2 0 0 1-.161-.048.1.1 0 0 1-.008-.152c-.047.006-.063-.086-.033-.3a2.249 2.249 0 0 0-.024-.78c-.113-.375.034-.356.235.035.074.143.24.139.359-.025a2.807 2.807 0 0 1 1.04-.6 3.853 3.853 0 0 0 1.4-.972c.374-.452.652-.688.865-.726a.256.256 0 0 1 .267.106 39.432 39.432 0 0 1 1.9-4.615c-.023-.026-.051-.043-.09-.08-.174-.163-.178-.193-.027-.263.013-.006.087-.015.2-.036l.111-.019a39.75 39.75 0 0 1 4.117-6.554c-.049.057-.129.137-.129.137s-1.96.148-1.9-.715c.037-.567.833-1.152 1.577-1.348a2.18 2.18 0 0 1 .315-.056 1.03 1.03 0 0 1 .691.127c.54.36-.115 1.3-.475 1.746.548-.7 1.127-1.377 1.722-2.042a.1.1 0 0 1-.041-.126.92.92 0 0 1 .5-.4 39.5 39.5 0 0 1 4.854-4.429c.314-.481.63-.856.836-.892.1-.018.128.058.111.191a38.927 38.927 0 0 1 3.409-2.225l-.291-.025-.962-.04.985-.479c.556-.267 1.028-.48 1.469-.66a.085.085 0 0 1 0-.019c0-.193.577-.494 1.278-.664a4.445 4.445 0 0 0 1.5-.571c.2-.234.231-.209.172.217a.44.44 0 0 1-.137.2 2.343 2.343 0 0 0 .342-.117c.277-.12.35-.254.246-.445-.152-.279-.69-.241-1.7.109-2.918 1.01-4.03 1.295-3.62.925l.415-.359-.4-.006c-.271 0-.385-.123-.354-.377.019-.149.263-.32.611-.433-.028.005-.073-.083-.141-.261-.137-.357-.136-.473.008-.5s.184.084.178.466c0 .191-.016.289-.044.294a2.847 2.847 0 0 1 .442-.1c.878-.127.959-.112.534.212-.509.387-.228.292 2.173-.785l1.1-.481-1.324.291c-1.09.232-1.323.181-1.286-.251.033-.384.465-.615 1.595-.816a8.92 8.92 0 0 0 2.058-.573.9.9 0 0 1 .3-.13c.118-.016.155.055.117.228a.677.677 0 0 1-.373.486c-.15.042-.236.217-.228.441a1.4 1.4 0 0 1 .663-.136c0-.2.04-.354.108-.362.1-.013.129.063.1.327 0 .021 0 .056-.006.077a1.912 1.912 0 0 1 .419.1c.426.16.381.186-.23.213a1.493 1.493 0 0 0-.148.026 3.2 3.2 0 0 0 .234.57.644.644 0 0 0 .632.443c.9-.321 1.817-.609 2.751-.867-.052-.361-.122-.8-.122-.8l2.112-.7s-.347.6-.746 1.183c.8-.193 1.607-.378 2.429-.524-.038-.075-.047-.088-.119-.246a9.246 9.246 0 0 1-.35-1.333 3.493 3.493 0 0 1-.588.027c-.231-.007-.453-.014-.656-.037a9.953 9.953 0 0 0-2.718 1.378.5.5 0 0 1-.138.082.2.2 0 0 1-.277-.162c-.072-.407.725-.932 2.2-1.478.019-.007.032-.021.052-.028-.165-.064-.285-.125-.283-.2 0-.053.051-.081.135-.1a4.642 4.642 0 0 1 .878 0 3.77 3.77 0 0 0 .594-.314.3.3 0 0 1 .1-.057c.106-.03.194.024.237.15h.019c.09-.016.169.1.2.252h.133a3.831 3.831 0 0 1-.134-1.2c.038-.007.086.205.1.46.017.315.068.386.176.237.119-.167.164-.093.267.545.018.111.04.2.062.352a4.237 4.237 0 0 1 .085 1.131c-.04.007-.011.2.054.411a.747.747 0 0 1 .023.13 39.568 39.568 0 0 1 10.215-.464 9.453 9.453 0 0 1-1.187-2.5c-.026-.145-.025-.225 0-.229.051-.01.219.314.495.963a9.267 9.267 0 0 0 .672 1.314 1.319 1.319 0 0 1 .218.477c.249.022.491.053.739.08l.179-.071a.774.774 0 0 1 .09-.034.221.221 0 0 1 .237.149 39.3 39.3 0 0 1 5.823 1.17c-.015-.142.021-.252.106-.267a.181.181 0 0 1 .214.133.523.523 0 0 1-.016.233c.145.042.3.07.441.114a.668.668 0 0 1 .271-.086c.276-.049.39-.007.267.105a.475.475 0 0 1-.172.107 39.46 39.46 0 0 1 7.758 3.37c.388-.009.708.009.708.009l.066.37a3.65 3.65 0 0 1 .6-.2c.232-.048.379-.037.341.093-.032.111-.24.272-.516.435a39.767 39.767 0 0 1 6.474 4.972 2.1 2.1 0 0 1 .771-.288.86.86 0 0 1 .567.072.615.615 0 0 1 .218.8 4.577 4.577 0 0 0 .99-.557 4.59 4.59 0 0 1 1.525-.67 1.666 1.666 0 0 1 .17-.011c-.262-.28-.527-.561-.8-.834-.676.358-1.578.748-1.745.289-.14-.387.675-.615 1.3-.746-.6-.586-1.2-1.153-1.828-1.7a2.9 2.9 0 0 0 .089.5c.079.313.089.452.056.43a.378.378 0 0 1-.052-.086 2.485 2.485 0 0 1-.25-.988c-.936-.812-1.911-1.587-2.911-2.315-.384.685-.821 1.273-1.086 1.319-.341.06.1-.854.494-1.75a43.063 43.063 0 0 0-4.6-2.8.338.338 0 0 1-.142.063.275.275 0 0 1-.2-.042c-.083-.058-.062-.134.045-.18-.5-.26-1-.525-1.51-.765a42.961 42.961 0 0 0-9.046-3.086c-.187.071-.352.142-.573.216-.11.037-.194.061-.29.09.01.271-.333.556-.8.638-.5.087-.283-.193-.332-.476s-.332-.47.131-.558h.018a1.235 1.235 0 0 1 .322-.229c-.13-.024-.262-.042-.393-.064l.007.037a9.257 9.257 0 0 1-1.6.454c.505-.123 1.169-.1 1.258.2q.1.321-.42.437a2.9 2.9 0 0 1-.41.054c-.523.042-.988-.077-1.02-.26-.021-.114.063-.222.194-.3a8.5 8.5 0 0 1-1.194.267l-1.433.215 1.162-.453.9-.33a.273.273 0 0 1-.032-.071l-.921.086c-.663.069-1.209.07-1.206-.016a5.577 5.577 0 0 1 1.589-.739c-1.3-.128-2.625-.195-3.953-.2 0 .012 0 .026.007.037s.025 0 .021.015-.012.015-.015.022a1.567 1.567 0 0 1 .07.5.864.864 0 0 1-.054.239c.072.051.044.1-.07.146a7.767 7.767 0 0 1-1.666 2.147c-.012.019-.016.022-.033.025a1.3 1.3 0 0 1-.64.381c-.405-.012.531-1.111 1.135-2.015a4.809 4.809 0 0 1-1.221.445c-.368.079-.658.1-.653-.019a3.3 3.3 0 0 1 1.136-.6 3.539 3.539 0 0 1 .617-.185.6.6 0 0 1 .347.015 1.531 1.531 0 0 0 .239-.6c0-.026-.012-.048-.013-.074a5.766 5.766 0 0 1-.728.2c-.38.075-.69.1-.709-.008-.028-.161.482-.413 1.127-.543.1-.019.153-.027.241-.043-.011-.034-.023-.056-.035-.089a43.16 43.16 0 0 0-6.805.662zm4.793.206c.035-.007.069.007.106.058.072.1.049.2-.057.22s-.162-.068-.128-.187c.019-.06.046-.085.086-.091zm5.01-.081c.027-.012.069.005.106.058.084.116.073.216-.013.251s-.149-.048-.147-.184a.138.138 0 0 1 .056-.126zm3.136-.419l-.286.108c.049-.011.094-.017.148-.026a4.422 4.422 0 0 1 .452-.042zm-14.276 2.785c.026-.012.071.024.109.076.084.116.073.216-.013.251s-.131-.051-.128-.187c.003-.069.008-.129.034-.141zm-3.744.756c.149-.039.275-.013.27.124 0 .086-.214.315-.465.5a.775.775 0 0 1-.28.144c-.112.025-.155-.045-.135-.225.027-.233.363-.48.612-.543zm13.608-2.133c.283-.049.578.244.653.668s-.1.82-.382.87-.256-.262-.331-.686-.221-.802.062-.852zm-16.48 2.964c0 .041-.042.071-.116.1-.01 0-.03-.011-.041-.012 0 .051.058.119.179.255.177.2.3.311.34.3s.014-.074-.032-.186a.537.537 0 0 1-.188-.31c-.05-.062-.095-.128-.14-.145zm15.623-2.621c.1-.017.182.1.2.347.012.222-.109.417-.268.429-.234.018-.271-.051-.2-.347.068-.259.173-.413.27-.429zm-14.782 2.951a1.655 1.655 0 0 0-.111.669 4.085 4.085 0 0 0 0 .631l.179-.07a3.216 3.216 0 0 0 .024-.405c.009-.576-.04-.859-.09-.826zm-10.18 2.941c-.111.02-.2.049-.312.074-.087.063-.166.135-.252.2.167-.019.286-.031.559-.079a3.519 3.519 0 0 0 1.005-.254c-.009-.015-.076-.025-.195-.023a5.315 5.315 0 0 0-.802.081zm-.275 1.042c.017-.023.039.079.049.278.016.284.07.459.159.469s.052.209-.076.434c-.069.121-.139.191-.193.205-.09.025-.167-.107-.282-.408-.214-.557-.2-.595.023-.52.136.045.265-.1.292-.3a.667.667 0 0 1 .03-.158zm2.97-.275c.035-.007.069.007.105.057.073.1.05.2-.057.221s-.181-.065-.147-.185a.125.125 0 0 1 .102-.094zm-2 .449a.474.474 0 0 1 .532.308c.074.243-.07.432-.392.49s-.521-.072-.535-.326a.474.474 0 0 1 .392-.473zm36.576-5.246c.3-.057.731-.111 1.226-.2.989-.173.949-.252.986-.04s.187.37-.8.543-1.829.14-1.866-.072c-.025-.105.151-.176.453-.232zm-40.165 7.1c.043-.007.081.256.085.6a1.3 1.3 0 0 1-.08.626c-.044.008-.081-.255-.087-.6a1.29 1.29 0 0 1 .082-.625zm.5.008c.126-.031.192.026.159.144 0 .007.006.012 0 .019a.625.625 0 0 1 .213.344c.069.226.006.4-.135.425s-.241-.12-.254-.356a.827.827 0 0 1 .037-.331.171.171 0 0 1-.084-.043c-.092-.087-.065-.171.062-.201zm-.817.354c.035-.006.073.026.109.076.072.1.046.183-.06.2s-.159-.05-.125-.169c.014-.057.039-.1.074-.108zm1.857-.194c.013.014.114.169.232.341.2.3.208.318.046.374-.093.032-.193-.124-.231-.341a1.543 1.543 0 0 1-.049-.373zm39.214-6.533c.13-.023.252.1.263.3.007.122-.041.2-.116.211a.362.362 0 0 1-.343-.322c-.017-.085.064-.163.194-.188zm4.642-.762c.107-.019.181.065.147.185a.127.127 0 0 1-.1.093c-.034.006-.069-.008-.1-.058-.079-.099-.057-.2.051-.219zm-46.267 8.351c.04-.007.1.158.142.376s.009.418-.058.43-.134-.172-.146-.394.019-.404.06-.411zm45.37-7.81c.078-.031.131.051.128.187 0 .068-.01.111-.036.121s-.067-.005-.105-.058c-.087-.114-.076-.214.01-.249zm.355-.043c.106-.019.162.068.129.187-.017.06-.042.1-.076.109s-.073-.026-.109-.076c-.076-.1-.053-.201.053-.22zm-46.85 8.51a.475.475 0 0 1 .111-.019.369.369 0 0 1 .232.016c.133.07.044.183-.19.225s-.337-.038-.236-.149a.258.258 0 0 1 .08-.072zm2.334-.412a1.2 1.2 0 0 1 .167-.03.857.857 0 0 1 .343 0c.2.051.054.143-.308.207s-.506.022-.341-.093a.623.623 0 0 1 .136-.083zm45.613-7.623a.115.115 0 0 1 .12.036c.093.087.07.19-.056.221s-.2-.045-.163-.163a.125.125 0 0 1 .096-.094zm.519-.092c.023-.016.064-.011.093-.016a.234.234 0 0 1 .176.026c.113.078.072.174-.1.208s-.275-.04-.219-.152a.153.153 0 0 1 .047-.065zm-24.75 4.384a.648.648 0 0 1-.064.393.922.922 0 0 1-1.038.183.627.627 0 0 1-.192-.329c-.733.158-1.445.35-2.157.553a.713.713 0 0 1 .43.382c.276.82-1.777.868-1.777.868l-.482-.679a33.912 33.912 0 0 0-4.932 2.15c.249.377.525.971.306 1.3-.167.253-.423-.443-.808-.468-.344-.024-.825.636-.91.58-.118-.078-.1-.32.006-.612q-1.442.861-2.788 1.848a8.029 8.029 0 0 1 1.208-.194 1.3 1.3 0 0 0 .277-.164.778.778 0 0 1 .236-.175c.1-.028.143.061.142.262 0 .329-.688.689-1.414.861a3.03 3.03 0 0 1-1.077.075c-.111.025-.2.034-.3.052a34.475 34.475 0 0 0-7.235 7.829c.16.706.207 1.062.1 1.128a.18.18 0 0 1-.074.013.652.652 0 0 1-.418-.309c-.047-.069-.051-.078-.078-.12a34.556 34.556 0 0 0-3.425 7.12 7.155 7.155 0 0 1 .761-.23c.094-.02.148-.03.152-.007.016.089-.5.388-1.094.728-.253.761-.481 1.536-.681 2.317a.553.553 0 0 1 .383.544 1.279 1.279 0 0 1-.721.891c-.092.436-.17.883-.245 1.323l1.76-.31a2.683 2.683 0 0 1 .894-.673 1.415 1.415 0 0 0 .689-.752c.053-.3.082-.3.1.021.016.285.113.419.26.394.127-.023.2-.208.176-.413a.349.349 0 0 1 .128-.252c.223-.868.474-1.723.771-2.563a18.413 18.413 0 0 1-1.843.592.544.544 0 0 0-.424.419.46.46 0 0 1-.075.224c-.079.06-.156-.311-.147-.835.008-.4.274-.587 1-.712a3.386 3.386 0 0 0 1.852-.652 30.91 30.91 0 0 1 2.652-5.225 2.8 2.8 0 0 1-.2-.576 7.316 7.316 0 0 1 .183-1.886c.017-.079.03-.111.045-.179-.069-.024-.121-.036-.121-.036s-.019-.6.179-.719a.455.455 0 0 1 .179-.07 3.421 3.421 0 0 1 1.343.355s-.642.315-.84.435a.739.739 0 0 1-.308.092 3.535 3.535 0 0 1-.06.527 5.384 5.384 0 0 0-.121 1.263 1.758 1.758 0 0 0 .1.213c.145-.22.288-.435.439-.651v-.019c-.013-.06-.019-.1.036-.12.011 0 .029 0 .04.012.064-.09.137-.175.2-.265v-.019a2.146 2.146 0 0 1 .162-.487c.1-.246.159-.373.216-.4s.092.056.147.185c.5-.646 1.014-1.275 1.559-1.88-.539-.107-1-.223.177-.184.049-.053.1-.107.145-.159-.021-.437-.384-1.721-.289-1.745.112-.028.445.784.66 1.355.5-.517 1.017-1.013 1.551-1.5-.32-.081-.573-.208-.647-.421-.219-.624 1.038-.786 1.536-.825a.212.212 0 0 1 .012-.04.241.241 0 0 1 .169-.125.935.935 0 0 1 .507.063 30.853 30.853 0 0 1 2.633-1.859.5.5 0 0 1 .081-.3.973.973 0 0 1 .612-.319 2.328 2.328 0 0 1 .4-.031 30.642 30.642 0 0 1 8.2-3.242l.034-.025a2.82 2.82 0 0 1 1.1-.481l.633-.092-.443.307c.156-.029.308-.054.464-.081a31.024 31.024 0 0 1 3.992-.437c.01-.151.055-.238.127-.252s.136.072.194.234c.5-.017 1.008-.024 1.506-.017a.87.87 0 0 1 .039-.427 4.667 4.667 0 0 1-1.115.063s.465-.526.6-.717a.765.765 0 0 1 .5-.3 1.081 1.081 0 0 1 .3-.015s.24.493.164.716a2.384 2.384 0 0 1 .087.272c.035.14.053.284.075.426.109 0 .219.014.328.019a.308.308 0 0 1 .169-.125c.171-.022.219-.025.174.122.937.054 1.85.176 2.769.314a1.714 1.714 0 0 1 .8-.982 4.757 4.757 0 0 1 .819-.336c-.007-.013-.019-.018-.025-.034-.165-.458 1.02-.737 1.628-.841a2.806 2.806 0 0 1 .337-.04l.5-.088.027.262-.086.053c.47-.119.957-.238 1.429-.348a34.142 34.142 0 0 0-15.938-.968zm25.314-3.891c.126-.031.212.023.178.141a.15.15 0 0 1-.094.112.165.165 0 0 1-.143-.051c-.097-.088-.07-.171.056-.201zm-1.735.344a1.52 1.52 0 0 1 .2-.035c.34-.059.474 0 .307.117a.784.784 0 0 1-.3.13.66.66 0 0 1-.31-.022c-.131-.042-.074-.131.1-.189zm1.419-.078c.363-.1.963 1.047 1.165 1.189a.662.662 0 0 1 .134.759c-.314.447-1.8.317-1.8.317l-.133-.76s.193-1.386.631-1.504zm-33.071 6.6c.286-.064.514-.048.511.081 0 .092-.407.343-.9.559a3.052 3.052 0 0 1-.357.14c-.317.094-.468.051-.426-.135.056-.236.693-.542 1.169-.648zm9.973-1.186c.043-.007.1.156.14.358a1.058 1.058 0 0 0 .243.511c.1.1.094.2-.032.254s-.25-.122-.32-.517a1.252 1.252 0 0 1-.034-.609zm7.056-.938c.026-.012.067.005.105.058.084.115.074.216-.013.251s-.13-.051-.128-.187c-.002-.072.007-.113.033-.125zm18.77-2.221c.034.008.086.127.161.373.065.213.079.388.032.4s-.03.2.035.414.076.388.032.4a2.117 2.117 0 0 1-.215-.783c-.09-.502-.094-.784-.048-.811zm.819.314c.1-.047.2.143.261.508.056.316.049.546-.028.6a.065.065 0 0 1-.037.007c-.169 0-.193-.021-.1-.346.1-.342.1-.341-.091-.519-.177-.171-.16-.183-.008-.253zm-11.192 2.509l-1.1.347 1.35-.256c-.09-.034-.171-.066-.253-.094zm-2.695.857l-1.857.519a14.177 14.177 0 0 0-1.715.57c.2.034.4.086.595.124.335-.167.721-.343 1.153-.509zm4.294-.241c-.983.331-2.477.9-3.351 1.26a14.433 14.433 0 0 1-1.992.619c.308.08.616.15.921.238.072-.015.153-.028.222-.039.471-.078.848-.072.858.1a.335.335 0 0 1-.146.255q1.334.435 2.619.99c-.04-.23-.025-.435.018-.442s.09.076.107.172a1.65 1.65 0 0 1 0 .325c.054.023.11.043.164.067-.008-.055-.01-.1-.015-.188-.011-.223.045-.412.118-.422.113-.014.109.04.068.389a2.667 2.667 0 0 1-.046.276c.377.169.755.344 1.125.527a1.123 1.123 0 0 1 .144-.369c.037-.066.065-.089.1-.094.057-.008.105.057.132.206a.467.467 0 0 1-.083.4q1.176.6 2.292 1.3a2.057 2.057 0 0 1 .492-.354 3.166 3.166 0 0 0 .921-.735 4.666 4.666 0 0 1 1.775-.982 34.44 34.44 0 0 0-6.446-3.502zm-49.068 8.94c.026-.011.049.009.087.061.084.116.093.212.005.247s-.149-.048-.147-.184a.137.137 0 0 1 .052-.128zm48.979-8.141c.067-.011.134.172.146.394s0 .4-.043.409-.1-.158-.143-.376-.029-.419.037-.43zm-.884.4c.322-.075.584-.046.607.084.041.231-.708.537-2.249.893a.407.407 0 0 1-.468-.166c-.053-.137.22-.327.6-.411s1-.24 1.388-.359c.041-.013.073-.03.119-.04zm-46.02 8.345c.085-.035.154.114.214.459a4.032 4.032 0 0 1 .076.865.108.108 0 0 1-.027.063c-.024.029-.049-.061-.08-.234-.041-.231-.108-.362-.129-.3s-.086-.066-.145-.28a.66.66 0 0 1 .057-.545.1.1 0 0 1 .031-.027zm58.537-10.056c.043-.008.094.16.106.383s-.015.423-.058.43-.1-.179-.109-.4.016-.404.058-.412zm.266-.009a.14.14 0 0 1 .037-.006c.065 0 .113.071.111.19a.138.138 0 0 1-.055.125c-.026.01-.071-.024-.109-.076-.087-.115-.074-.197.013-.231zm-62.337 11.261c-.025.044-.027.1-.051.143.067.17.126.3.188.311-.027-.069-.056-.183-.089-.29-.021-.061-.04-.113-.05-.162zm51.125-8.863c.494-.087.917 0 .954.214s-.226 1.13-.722 1.216-1.038-.687-1.075-.9.346-.443.841-.529zm-51.484 9.538l-.1.19c.02.114.041.214.052.3a.832.832 0 0 1 .234-.194.586.586 0 0 1-.186-.294zm-.185.357c-.149.281-.3.558-.444.843.179.434.525.194.467-.388a.37.37 0 0 1 .041-.2c-.015-.045-.032-.12-.051-.182-.009-.019-.01-.048-.015-.071zm1.591 2.089c.031-.033.093.083.179.37.064.213.079.387.032.4s-.033.182.031.4.079.407.035.414a1.946 1.946 0 0 1-.233-.781 1.825 1.825 0 0 1-.05-.802zm56.749-9.8c-.27.138-.418.2-.93.47a13.158 13.158 0 0 0-1.74 1.071c.038.163.031.292-.593.429a30.824 30.824 0 0 1 3.477 2.711c.066-.015.139-.042.2-.054.446-.09.787-.108.783 0 0 .029-.128.1-.3.167.238 0 .461.014.461.014l.081.464.075-.013c.177-.027.27-.032.269.01s-.128.13-.3.226l.079.445a30.974 30.974 0 0 1 2.754 3.164c.307.036.547.176.582.374a.369.369 0 0 1-.1.286c.274.383.524.783.781 1.181a.185.185 0 0 1 .128.073.079.079 0 0 1 0 .1l.186.292 3.687-.65c-.323-.569-.667-1.126-1.021-1.673h-.018a.6.6 0 0 1-.082-.139.364.364 0 0 1-.007-.037c-.278-.424-.573-.831-.869-1.242-.039-.011-.05-.04-.053-.086-.483-.666-1-1.3-1.524-1.928a1.42 1.42 0 0 1-.649.764 1.261 1.261 0 0 1-1.492-.119c-.011 0-.027 0-.037.007-.3.094-.42 0-.463-.243-.06-.338.141-.55.883-.844a2.17 2.17 0 0 1 .957-.418c.027 0 .05-.01.075-.013a34.673 34.673 0 0 0-5.282-4.785zm-46.043 8.655c.011.043.032.051.059.008-.023.003-.041-.003-.061-.004zm-.061.087c-.068 0-.151.289-.176.623-.031.39-.019.573.024.569s.119-.212.18-.605.049-.588-.03-.583zm57.779-9.807a.387.387 0 0 1-.2.15 2.452 2.452 0 0 0-.619.281 23.633 23.633 0 0 1-2.595.993c.438.457.861.919 1.278 1.4 0-.008.013-.014.015-.022.025-.129.048-.213.075-.223s.079.083.123.265c.068.281.2.36.324.21a3.416 3.416 0 0 1 .951-.568c.7-.3.731-.281.547.286-.113.344-.568.658-1.306.937.138.169.3.325.431.5a.215.215 0 0 1 .024-.081.523.523 0 0 1 .3-.167 3.252 3.252 0 0 1 .986-.04l.134.76-1.186-.116c.545.7 1.069 1.428 1.567 2.169a.768.768 0 0 1 .216-.076c.143-.02.223.05.206.193a.429.429 0 0 1-.186.243 39.1 39.1 0 0 1 2.491 4.376c.1-.824.518-2.384.319-2.846-.283-.659-1.184-.9-.657-1.126a.785.785 0 0 1 .2-.054 1.068 1.068 0 0 1 .9.338 1.11 1.11 0 0 1 .066-.164c.018-.037.026-.058.046-.066a.045.045 0 0 1 .019 0c.043 0 .089.068.11.191a.571.571 0 0 1-.022.31 1.729 1.729 0 0 1 .138.243 5.947 5.947 0 0 1-.905 3.637 39.371 39.371 0 0 1 2.01 5.225.165.165 0 0 1 .128-.137c.141-.025.26.116.273.353s-.055.411-.135.426c-.029 0-.054-.028-.087-.061.109.378.2.768.3 1.151a3.69 3.69 0 0 1 .546-.269 6.5 6.5 0 0 1 1.227-.407c.331-.065.558-.052.6.047.084.2-.619.393-1.542.788-.411.177-.585.279-.706.335.2.824.388 1.656.537 2.5a39.977 39.977 0 0 1 .586 5.705l1-.158a.227.227 0 0 0 .025.034c.053-.045.089-.07.151-.122a1.024 1.024 0 0 1 .326-.211c.113-.029.126.086.124.379s-.116.6-.247.655-.571.276-.982.5a1.739 1.739 0 0 1-.395.146 39.209 39.209 0 0 1-.9 8.414 8.6 8.6 0 0 0 1.621-1.2 11.456 11.456 0 0 1 2.427-1.727c.033-.254.066-.507.095-.762-.279.127-.514.224-.514.224l-.443.193-.12-.246a9.887 9.887 0 0 1 1.16-1.008c.111-1.2.171-2.42.179-3.643-.069-.065-.066-.135.008-.173q0-.9-.033-1.809a1.815 1.815 0 0 1-.6.278 1.159 1.159 0 0 1-.2.036c-.7.062-.754.014-.589-.412a1.04 1.04 0 0 1 .563-.385.282.282 0 0 1-.1-.154c-.085-.281.252-.664.828-1.044-.013-.169-.035-.338-.051-.506a2.945 2.945 0 0 0-.55.345.228.228 0 0 1-.1.057.548.548 0 0 1-.422-.117c-.371-.248-.367-.293.189-.664.27-.179.548-.339.812-.487-.1-.914-.225-1.822-.387-2.74a43.05 43.05 0 0 0-2.317-8.266c-.191-.029-.28-.1-.265-.2.006-.043.061-.087.128-.137a42.756 42.756 0 0 0-6.387-10.873.722.722 0 0 1-.289.2.085.085 0 0 1-.084-.043.5.5 0 0 1 .107-.477c-.439-.511-.861-.999-1.297-1.483zm-60.635 11.266a.437.437 0 0 1 .136.014c.35.078 1.49.25 1.365.81-.054.246-.671.139-1 .369-.427.293-.609.892-.805.849a.448.448 0 0 1-.146-.07c0 .3-.077.415-.266.449-.209.037-.305-.031-.39-.371a.66.66 0 0 1-.042.084c-.1.138-.082.38.029.817.08.312.094.471.06.448a.325.325 0 0 1-.053-.086c-.274-.526-.342-1.411-.112-1.394a.674.674 0 0 1 .1 0c-.015-.07-.027-.153-.043-.241-.119-.679-.1-.785.215-.84a.38.38 0 0 1 .25.013 1.147 1.147 0 0 1 .583-.81.513.513 0 0 1 .116-.037zm61.582-9.58a.033.033 0 0 1 .019 0c.022.006.054.09.079.234.04.231.022.417-.02.424s-.087-.057-.1-.154a1.732 1.732 0 0 1 0-.44.089.089 0 0 1 .02-.061zm-70.566 15.081a1.138 1.138 0 0 0-.233.194 1.216 1.216 0 0 1-.3.226l.428.039c.046-.152.081-.31.129-.462-.014.007-.019.003-.026.007zm8.39-.849a.388.388 0 0 1 .118.017c.28.061.13.337.037.758s-.1.836-.379.774-.437-.455-.345-.875a.851.851 0 0 1 .461-.636.456.456 0 0 1 .107-.034zm62.669-9.485c.016-.013.048-.009.074-.013.107-.019.159.05.125.169-.017.06-.041.1-.076.109s-.073-.026-.109-.076c-.056-.072-.066-.145-.016-.185zm-5.465 4c.1-.018.189.213.254.682.073.529.029.914-.071.891-.035-.007-.084-.059-.126-.169-.175-.441-.212-1.372-.062-1.399zm-.756.152c.037-.007.073.13.087.386.012.223-.045.412-.117.422-.113.014-.11-.04-.069-.39.03-.258.059-.406.096-.413zm.29 1.21c.026-.012.049.009.087.061.084.116.092.212.005.247s-.149-.048-.147-.184a.135.135 0 0 1 .052-.118zm-57.591 10.443c-.1.067-.214.14-.326.21l.3-.052c.005-.047.012-.1.023-.153zm67.603-11.38c.026-.012.068.005.106.058.084.116.073.215-.013.25s-.131-.051-.128-.187c.001-.07.009-.111.035-.121zm-79.459 14.261c.016-.013.029-.005.055-.01.106-.018.159.05.125.169-.017.06-.042.1-.076.109s-.073-.026-.109-.077a.135.135 0 0 1 .006-.193zm79.8-11.455c.034-.007.069.007.105.057.072.1.049.2-.057.22s-.181-.065-.147-.184a.127.127 0 0 1 .101-.099zm1.958.381l1.154 1.669c-.575-.08-.892-.54-1.375-.541h-1.605zm-1.525.345a.283.283 0 0 1 .2.042c.112.077.021.172-.193.206s-.3-.025-.2-.137a.335.335 0 0 1 .195-.113zm-.582 1.9c.107-.019.162.068.129.187-.017.06-.041.1-.076.109s-.073-.027-.108-.076c-.072-.104-.049-.205.057-.223zm-80.3 14.486a.3.3 0 0 1 .254.031c.112.077.039.169-.175.2s-.319-.04-.217-.152a.3.3 0 0 1 .141-.082zm1.111.778a.7.7 0 0 1 .148-.026c.273-.045.63.028.71.238.048.125-.14.273-.42.322a.513.513 0 0 1-.6-.257.224.224 0 0 1 .166-.28zm-1.069.437c.035-.007.073.026.109.077.073.1.05.2-.057.22s-.163-.068-.129-.187c.021-.064.046-.107.081-.113zm83.711-14.419c.035-.006.069.008.106.058.072.1.049.2-.057.22s-.162-.068-.128-.188c.02-.062.048-.087.083-.093zm-83.371 15.047l1.341.126s.206.216.072.408c-.224.32-1.279.225-1.279.225zm83.527-14.272c.042-.01.077.011.124.055.093.087.069.19-.057.22s-.2-.045-.162-.163a.149.149 0 0 1 .099-.115zm-1.212 3.309l1.344-.18s.251.174.164.392c-.145.362-1.211.5-1.211.5zm2.832 4.583a3.244 3.244 0 0 0-.418.227 3.052 3.052 0 0 1 .423-.093c.001-.048.002-.093-.001-.137zm-80.865 14.739a.161.161 0 0 1 .143.051c.092.087.052.182-.1.208s-.219-.05-.162-.163a.162.162 0 0 1 .122-.099zm-1.42.613c.19-.039.348-.017.345.111 0 .089-.271.3-.587.467a1.259 1.259 0 0 1-.231.1c-.2.063-.316.012-.295-.158.031-.226.455-.453.771-.523zm.562-.061c.027-.012.071.023.109.076.084.116.074.216-.013.25s-.131-.051-.128-.187c.004-.071.01-.13.036-.142zm80.1-13.782c.088-.039.159.143.254.681.106.6.1.843-.039.867s-.217-.176-.291-.675a1.518 1.518 0 0 1 .042-.848.087.087 0 0 1 .036-.028zm-81.731 14.49c.036-.006.073.026.11.077.072.1.046.182-.06.2s-.16-.05-.125-.17c.017-.06.042-.104.077-.11zm82.263-14.508c.036-.008.091.056.169.2.19.351.181.4-.018.443-.164.038-.229-.07-.223-.4.004-.165.037-.237.074-.245zm.2 1.112c.035-.006.073.026.109.076.072.1.046.183-.06.2s-.178-.046-.144-.166a.155.155 0 0 1 .093-.112zm-.179.395a.243.243 0 0 1 .317.173c.032.181-.177.355-.467.388-.606.07-.614-.148-.011-.495a.567.567 0 0 1 .159-.069zm-2.215.983c.079-.031.131.052.129.187 0 .069-.01.111-.036.122s-.068-.005-.105-.058c-.087-.119-.075-.219.01-.254zm.5-.069c.107-.019.162.068.128.187-.016.06-.041.1-.076.109s-.073-.026-.11-.076c-.07-.104-.047-.205.06-.223zm.692-.084a.3.3 0 0 1 .093-.016c.149-.026.219.05.162.163a.152.152 0 0 1-.259.046.114.114 0 0 1 .006-.197zm-76.606 15.383a1.436 1.436 0 0 1-.142.063c-.417.122-.778.411-.823.642a.481.481 0 0 1-.078.205c-.039.04-.07-.045-.12-.247-.069-.281-.2-.359-.324-.21a2.633 2.633 0 0 1-.588.352v.019a1.041 1.041 0 0 1 .177 1.115 1.181 1.181 0 0 1-.682.789c.065.129.135.256.2.385.035-.02.079-.039.1-.057a15.186 15.186 0 0 1 1.661-.656 2.359 2.359 0 0 1 .112-.555c.156-.478.412-.835.61-.872a.146.146 0 0 1 .078.005 1.855 1.855 0 0 1 .464.358c-.218-.447-.433-.886-.644-1.34zm76.069-12.689a.039.039 0 0 1 .019 0c.049 0 .107.066.166.181.125.243.123.337-.031.368-.229.048-.306-.13-.2-.48a.093.093 0 0 1 .047-.072zm-70.128 12.9c.2.355.412.71.625 1.055.189-.058.252-.079.453-.137a4.77 4.77 0 0 0 1.288-.495c.009-.018.039-.022.071-.031a1.143 1.143 0 0 1 .5.026c.834.2.495.718-.6.909a10.726 10.726 0 0 0-1.318.328c.3.46.608.9.925 1.347.273-.1.487-.163.487-.163l.583.49c.03-.013.059-.047.086-.054.173-.046.255-.241.185-.471s-.005-.412.165-.469.765-.24 1.342-.408c.185-.054.368-.124.539-.191-.089-.117-.185-.234-.272-.353-.359.138-.7.182-.876-.094a.726.726 0 0 1-.1-.327c-.329-.015-.544-.1-.541-.249 0-.2.276-.4.666-.557-.177-.266-.355-.534-.524-.806l-1.724.3a.214.214 0 0 1 .01.055.322.322 0 0 1-.214.305.439.439 0 0 1-.148.026c-.2.01-.321-.042-.27-.124a1.094 1.094 0 0 1 .14-.178zm60.011-10.583a30.753 30.753 0 0 1-2.788 7.81h.019c.482-.079.778-.068.629.1a2.706 2.706 0 0 1-1.183.877 30.823 30.823 0 0 1-3.782 5.31 11.709 11.709 0 0 0 1.485-.682 15.07 15.07 0 0 1 2.322-.81c.853-.247 1.668-.537 2.217-.754.443-.707.87-1.434 1.26-2.171a2.092 2.092 0 0 1 .622-1.237c.231-.481.449-.98.658-1.472-.017.006-.034.023-.052.028a8.294 8.294 0 0 1-1.221.33c-.427.066-.491-.075-.561-.474-.1-.553-.084-.606.072-.242.128.3.211.325.261.069.023-.12.283-.267.633-.417-.237-.719-.286-.748-.624-.291-.2.274-.466.393-.567.253s.1-.493.488-.812c.016-.013.037-.016.052-.028-.309.023-.586-.075-.631-.329a.431.431 0 0 1 .336-.479.958.958 0 0 0 .516-.32 7.755 7.755 0 0 1 2.689-1.219 34.117 34.117 0 0 0 .84-3.683zm10.235-1.327c.079-.032.153.066.15.2 0 .068-.032.1-.057.106s-.05-.009-.088-.061c-.083-.115-.091-.212-.005-.247zm-74.854 14.27c-.052.011-.086.035-.145.045a3.466 3.466 0 0 0-2.043.762 5.191 5.191 0 0 1-1.072.532c.6 1.089 1.233 2.153 1.916 3.178a.236.236 0 0 1 .037-.007c.167-.029.239.04.309.232.074.022.08.03.143.051.083-.142.062-.38-.045-.795-.073-.286-.1-.441-.078-.444s.043.026.072.082a2.3 2.3 0 0 1 .234 1.22c.095.033.3.1.3.1l.465.147-.072.242s-.379.023-.8.026a42.65 42.65 0 0 0 3.049 3.857 1.49 1.49 0 0 1 .357-.139.839.839 0 0 1 .341-.022c.475.1.466.738.361 1.293.617.646 1.261 1.254 1.914 1.86-.084-.116-.073-.216.013-.251s.15.048.147.184a.138.138 0 0 1-.055.125c-.013 0-.022 0-.041-.013a42.54 42.54 0 0 0 4.311 3.539.5.5 0 0 1 .043-.084l.152-.219-.238-.264c-.2-.208-.179-.265.1-.322s.33 0 .259.279c-.087.339-.076.369.1.364.143 0 .183.124.178.466a.5.5 0 0 1-.03.158c0 .005.005.014 0 .019.208.142.434.264.644.4a.112.112 0 0 1 .068-.05c.042-.009.078.011.125.055a.118.118 0 0 1 .029.167c.684.444 1.388.868 2.1 1.273a3.238 3.238 0 0 1 1.333-.35c0-.008.011-.013.015-.022a.263.263 0 0 1 .166-.144c.515-.144 1.86.8 1.86.8l.407.252-.136.2a10.624 10.624 0 0 1-1.523-.4l.32.4a.125.125 0 0 1 .086-.054c.106-.019.181.065.147.184a.18.18 0 0 1-.061.087v.019h-.1c-.081.008-.358.016-.683.025.851.434 1.721.827 2.6 1.2a1.4 1.4 0 0 0 .564-.482 6.21 6.21 0 0 1 .965-1.03 4.988 4.988 0 0 0 .809-.83c.03-.06.043-.089.06-.087s.052.1.049.278a2.813 2.813 0 0 1-.873 1.223 6.746 6.746 0 0 0-1.019 1.154c.63.26 1.262.5 1.906.734.034-.037.08-.1.125-.156-.011-.01-.028.005-.04-.011-.084-.116-.073-.216.013-.251s.139.044.144.166a8.526 8.526 0 0 0 .818-1.214.147.147 0 0 1 .046-.065c.042-.031.069.05.079.234a1.168 1.168 0 0 1-.323.764 2.185 2.185 0 0 0-.452.691 42.7 42.7 0 0 0 15.879 2.3.655.655 0 0 1-.031-.071c-.187-.485-.206-.919-.052-.946.086-.016.194.237.253.567a1.937 1.937 0 0 1 .038.433c.308-.016.62-.027.928-.049-.01-.053.029-.1.113-.116.109-.027.193.014.19.1.362-.028.725-.078 1.088-.116v-.018c-.04-.231-.043-.432 0-.439s.1.054.122.151a1.393 1.393 0 0 1 0 .306c.982-.1 1.959-.231 2.947-.405 1.347-.238 2.654-.552 3.948-.906.2-.1.415-.188.637-.285a9.871 9.871 0 0 0 1.607-.856 6.423 6.423 0 0 1 2.242-.721 8.216 8.216 0 0 1 1.2-.134h.018a42.5 42.5 0 0 0 5.439-2.851.457.457 0 0 1-.208-.421c.037-.567.832-1.153 1.577-1.348a2.145 2.145 0 0 1 .315-.055 1.031 1.031 0 0 1 .691.126.506.506 0 0 1 .087.061q1.051-.754 2.055-1.566c-.025.007-.045.027-.071.032-.284.05-.515-.045-.512-.2 0-.013.01-.028.012-.04a1.892 1.892 0 0 1-.692.084c-.256-.036-.051-.125.459-.214.143-.025.26-.055.352-.062a.849.849 0 0 1 .367-.2c.223-.048.439 0 .472.185a.251.251 0 0 1-.021.1c.121-.1.248-.192.368-.294-.051-.022-.08-.064-.085-.157a.428.428 0 0 1 .28-.47c.175-.03.327.014.323.1a.471.471 0 0 1-.036.121 43.321 43.321 0 0 0 9.908-12.715 5.824 5.824 0 0 1-2.548-.257.356.356 0 0 1-.2.073c-.191.034-.275-.026-.2-.137a.237.237 0 0 1 .154-.1c.012 0 .024-.006.037-.007a.481.481 0 0 1-.078-.12c-.138-.41.308-.634.785-.75a5.851 5.851 0 0 1 .989-.135l1.056 1.437c.416-.807.808-1.608 1.174-2.442-.033-.083-.022-.153.045-.18a.042.042 0 0 1 .019 0c.009 0 .014.013.022.016.486-1.124.935-2.26 1.326-3.425 0-.013.007-.027.011-.04a1.483 1.483 0 0 1 .12-.4c.2-.612.381-1.232.552-1.855a.393.393 0 0 1-.063-.141c-.04-.223-.012-.342.071-.357a.192.192 0 0 1 .117.018c.137-.524.273-1.048.391-1.578a.786.786 0 0 1-.235.079c-.109.013-.076-.082.01-.27a2.876 2.876 0 0 1 .4-.662q.194-.97.343-1.952a5.833 5.833 0 0 0-1.724 1.164c-.19.223-.4.427-.6.621a.163.163 0 0 1 .037-.006c.063 0 .1.044.122.151.126.706.2 1.455.2 1.455l-2.09.712a17.877 17.877 0 0 1 1.3-1.93 6.262 6.262 0 0 1-1.267.835l.3-.015-.3.377a2.82 2.82 0 0 1-.324.325c-.162.607-.332 1.214-.521 1.811.115-.142.248-.3.312-.4a.2.2 0 0 1 .064-.069c.057-.025.094.071.1.268.013.232.066.409.108.4s.06-.175.049-.372c-.023-.417 2.9-.859 3.052-.462.057.148-.426.38-1.056.511a10.293 10.293 0 0 0-2 .659 2.214 2.214 0 0 1-.614.2.487.487 0 0 1-.25-.013 39.428 39.428 0 0 1-2.583 5.939c.069.079.035.158-.082.186a.093.093 0 0 1-.019 0c-.321.592-.66 1.17-1.01 1.745a5.876 5.876 0 0 1 .006.686l-.5.088c-.588.914-1.217 1.818-1.877 2.681.026.014.051.021.062.027.177-.033.441-.1.46-.1a.278.278 0 0 1 .2.041c.112.078.02.172-.193.207-.016 0-.117.022-.148.026.263.141.571.3.743.423a.29.29 0 0 1 .082.138.269.269 0 0 1 .052-.028c.1-.021.125-.2.064-.393s.125-.412.453-.462c.31-.048.534.008.5.122a2.486 2.486 0 0 0 .041.776c.075.425-.017.581-.384.641a.7.7 0 0 1-.683-.3c-.008-.015-.018-.019-.025-.034-.005.013 0 .029-.012.04-.223.32-1.278.226-1.278.226l.014-1.111h-.133a39.366 39.366 0 0 1-4.865 5.234 1.431 1.431 0 0 1-.033.789c-.044.051-.1 0-.166-.181a2.629 2.629 0 0 1-.1-.346 39.267 39.267 0 0 1-13.068 7.578 2.337 2.337 0 0 1 .3.309.865.865 0 0 0 1.307.152h.018v-.535l.379.2c.054-.052.106-.1.162-.162.19-.2.283-.125.358.3.011.063.005.112.011.17.068.041.159.08.211.115-.014-.06-.038-.109-.054-.2-.076-.429-.038-.641.16-.716.154-.058.485-.2.727-.319a3.543 3.543 0 0 1 .9-.293 1.191 1.191 0 0 1 1.059.157c.253.275.24.329-.172.432a.673.673 0 0 1-.71-.238c-.144-.249-.2-.238-.185.032.012.228-.314.457-.747.533a1.106 1.106 0 0 0-.824.527c.268-.3.475-.444.524-.169.126.705.2 1.455.2 1.455l-2.09.713s.331-.589.713-1.157a4.22 4.22 0 0 1-.649 0 2.6 2.6 0 0 1-.335.155c-.326.11-.477.005-.635-.347-.141-.316-.382-.563-.553-.533-.231.041-.307-.058-.3-.405a.729.729 0 0 1 0-.1c-.627.211-1.261.4-1.9.584.008.176-.031.327-.111.344-.14.03-.135.105.013.4.11.219.142.373.087.386s-.134-.153-.2-.367a3.294 3.294 0 0 1-.121-.686c-1.181.324-2.387.612-3.617.829-.547.1-1.092.178-1.637.25a3.88 3.88 0 0 1 .164 1.577 3.114 3.114 0 0 1-1.234.37c-.842.136-1.071.085-1.2-.285-.139.014-.229-.04-.178-.141a.231.231 0 0 1 .116-.1.586.586 0 0 1 .155-.639.446.446 0 0 1-.161.067c-.191.034-.275-.026-.2-.137a.235.235 0 0 1 .333-.059c.054.038.062.075.038.108a3.139 3.139 0 0 1 .609-.337c.217-.1.427-.207.613-.318a39.336 39.336 0 0 1-8.6.006c-.115.359-.4.609-.666.557-.232-.046-.081-.266.034-.56a.045.045 0 0 1-.031-.071 39.5 39.5 0 0 1-3.9-.687l-.022.959s-.84-.391-1.156-.6a.4.4 0 0 1-.085-.482.5.5 0 0 1 .243-.138c-.28-.073-.563-.137-.841-.215a2.565 2.565 0 0 0-.168.24c-.278.466-.441.679-.565.692-.075.008-.131-.064-.188-.2-.126-.3-.3-.322-.5-.1s-.333.172-.375-.067c-.1-.565.368-1.015.834-.8.168.078.251.09.291.025a39.347 39.347 0 0 1-12.821-6.623 2.274 2.274 0 0 0-.232.958c.125.708.958 1.15.393 1.249a1.2 1.2 0 0 1-1.263-1.1 3.282 3.282 0 0 1 .429-1.47 1.51 1.51 0 0 0-.284.126.758.758 0 0 1-.179.069c-.15.042-.228-.019-.2-.174.015-.089.212-.237.467-.388-.123-.1-.255-.193-.377-.3-.393.151-.812.313-1.2.441a9.2 9.2 0 0 1-1.219.349c-.427.066-.494-.093-.564-.493-.1-.553-.081-.586.075-.223.128.3.207.307.257.051.019-.1.189-.206.439-.326a.84.84 0 0 1-.124-.379c-.02-.111-.043-.2-.049-.278-.068.031-.134.131-.254.293-.2.274-.469.373-.57.234s.1-.474.49-.794c.016-.013.019-.013.035-.025-.309.023-.568-.078-.613-.331a.449.449 0 0 1 .333-.5 1.009 1.009 0 0 0 .5-.281c-.527-.526-1.031-1.065-1.528-1.622a.412.412 0 0 1-.067.05c-.082.037-.155-.122-.217-.363-.68-.779-1.336-1.592-1.956-2.425.025.08.018.154-.045.179-.079.032-.153-.067-.15-.2a.139.139 0 0 1 .055-.125c.012-.006.018-.016.037-.007-.4-.55-.8-1.112-1.176-1.684-.17.336-.371.544-.524.494-.2-.067-1.034-.736-.856-1.282a.964.964 0 0 1 .558-.519c-.186-.356-.407-.731-.62-1.111zm65.152-11.222a.463.463 0 0 1 .118.017c.281.062 0 .341-.1.762s.031.814-.249.751-.438-.455-.346-.876a.768.768 0 0 1 .578-.655zm2.331-.105c.078-.032.149.048.147.184 0 .069-.01.111-.036.122s-.068-.006-.106-.058c-.083-.119-.094-.216-.004-.25zm-57.151 11.206c-.009.011-.024.013-.033.025a2.82 2.82 0 0 1-1.04.6 3.951 3.951 0 0 0-1.217.787l.312.251s-.334.1-.746.208c-.049.051-.083.093-.129.137a34.38 34.38 0 0 0 4.071 4.346 5.773 5.773 0 0 1 .6-.145 1.742 1.742 0 0 1 .587-.027c-.028-.188.008-.346.09-.359a.179.179 0 0 1 .2.137.708.708 0 0 1-.081.3.237.237 0 0 1 .085.157c.044.251-.314.38-.741.456a.32.32 0 0 1-.052.028.194.194 0 0 1-.055.01c.255.218.521.435.782.646.043-.033.079-.045.12-.078a11.986 11.986 0 0 1 1.284-.628 8.273 8.273 0 0 0 1.81-1.218c-.668-.492-1.308-1-1.936-1.55l-.027.062a8.26 8.26 0 0 1-1.976-.263c-.066.166-.13.307-.19.435.07.082.038.177-.079.205h-.018l-.058.105-.4.09a.163.163 0 0 1 .143.051c.092.087.051.182-.1.208s-.237-.046-.18-.159a.192.192 0 0 1 .135-.1c-.559.123-1.516.261-1.6-.309-.092-.617.8-1.5 1.583-1.75a1.439 1.439 0 0 1 .333-.059.816.816 0 0 1 .331.037c.254.086.325.318.3.6a7.359 7.359 0 0 1 1.427.512 30.831 30.831 0 0 1-3.534-3.75zm56.308-9.051c-.134.023-.185.2-.117.422s.019.4-.116.422-.284-.123-.343-.321c-.167-.548-.557-.281-.5.336a.442.442 0 0 1-.038.217c.015.045.03.1.048.164a1.781 1.781 0 0 1 .07.618c-.019.145-.079-.018-.139-.358-.022-.124-.044-.229-.056-.315a.924.924 0 0 1-.23.213c.157.112.253.429.322.955.2-.067.411-.135.635-.188.141-.033.221-.05.349-.081.191-.5.368-1 .536-1.509-.039 0-.079-.07-.114-.21-.053-.231-.179-.39-.306-.367zm-3 1.924c.17-.034.274.041.218.153a.189.189 0 0 1-.135.1.222.222 0 0 1-.177-.026c-.115-.08-.078-.194.091-.229zm.211.975c.141-.021.252.022.276.162.029.163-.045.333-.166.354a1.434 1.434 0 0 0-.55.346.873.873 0 0 1-.151.122c-.126.069-.178-.013-.176-.236 0-.338.451-.704.764-.75zm1 1.008a.884.884 0 0 1 .111-.019c.246-.042.427.04.463.243s.042.374 0 .343a3.982 3.982 0 0 0-.578-.241l-.509-.178zm7.656-.567a.761.761 0 0 1 .111-.02c.26-.034.413.114.5.466a1.971 1.971 0 0 1 .063.792.437.437 0 0 1-.313.284.459.459 0 0 1-.569-.3c-.067-.22-.03-.426.088-.474l.216-.077-.278-.276c-.231-.211-.196-.291.178-.396zm-60.564 11.349c.107-.019.162.069.129.187-.017.06-.044.084-.08.09a.128.128 0 0 1-.125-.054.132.132 0 0 1 .072-.223zm1.5-.265s.014-.006.018 0c.034.024.157.1.281.18a1.289 1.289 0 0 1 .382.544c.052.138.065.219.044.241s-.072-.013-.172-.1c-.157-.145-.347-.243-.42-.212s-.143-.127-.155-.336c-.013-.19-.008-.303.019-.317zm3.287.662a6.925 6.925 0 0 1-2.02 1.541h.306l-.3.377a2.761 2.761 0 0 1-.577.522c.467.343.951.669 1.435.989.84-.172 1.878-.237 1.968 0 .057.147-.411.358-1.041.489-.039.008-.089.013-.13.023a34.336 34.336 0 0 0 11.319 4.5 3.83 3.83 0 0 1 .28-1.444 5.46 5.46 0 0 1 .934-.337c.475-.116.98-.141 1.113.243.182.526-.393 1.34-1.045 1.77a34.163 34.163 0 0 0 18.431-2.085c-1.482.243-2.966.369-3.048.155-.053-.138.129-.278.4-.32s1.361-.312 2.417-.6 1.957-.388 2-.238.272.076.509-.148a4.776 4.776 0 0 1 1.627-.956c.122-.03.2-.024.2.042 0 .019-.018.039-.027.062.639-.366 1.272-.73 1.883-1.134-.008-.017-.026-.037-.029-.052-.423.026-.785-.12-.829-.37-.05-.282.322-.592.816-.679s.283.193.333.476c.024.139.1.249.118.342a34.441 34.441 0 0 0 7.7-7.224c-.071-.243-.092-.368.009-.384a.56.56 0 0 1 .239.054q.541-.709 1.044-1.445a24.007 24.007 0 0 1-3 .872h-.192c-.094-.008-1.407.477-2.833 1.054-.472.494-.96.98-1.465 1.443a.117.117 0 0 1 .052-.029c.035-.006.07.008.105.058.073.1.05.2-.057.22s-.181-.065-.147-.184a.156.156 0 0 1 .012-.04 30.738 30.738 0 0 1-5.382 3.93c.91-.119 1.377-.075 1.344.145-.054.356-2.343.971-4.256 1.323-.411.182-.823.361-1.244.525a.521.521 0 0 1 .032.071c.037.212-.326.459-.821.546a1.439 1.439 0 0 1-.792-.051c-.485.16-.974.3-1.471.431-.022.084-.039.14-.073.128a.188.188 0 0 1-.072-.083c-.883.238-1.781.448-2.7.611l-.148.026c.348-.011.678.051.73.349.044.248-.57.373-.792.713-.282.434-.218 1.071-.416 1.1-.353.063-.729-.339-.828-.9a1.12 1.12 0 0 1 .3-1.1c-.242.034-.488.063-.729.09-.005.207-.037.356-.086.379s-.116-.064-.186-.293c-.006-.02 0-.036-.01-.056a30.809 30.809 0 0 1-3.543.167.637.637 0 0 1 .235.36c.1.565-.755 1.3-.967 1.336s-.472-.4-.572-.969a2.014 2.014 0 0 1 0-.764 30.55 30.55 0 0 1-8.208-1.59 6.069 6.069 0 0 1-1.078.171l-.554-.762c-.384-.155-.764-.336-1.14-.506-.09.026-.177.064-.271.086a9.546 9.546 0 0 0-1.418.4.154.154 0 0 1-.09.036 3.815 3.815 0 0 1-.789-.033l-.781-.092.6-.182c.782-.243 1.411-.441 1.921-.588-.3-.147-.6-.295-.9-.452-.506.163-.914.284-1.163.339-.433.094-.542.043-.536-.116s.4-.39.959-.627q-.42-.236-.83-.484a2.332 2.332 0 0 1-.545.268c-.11.013-.076-.082.009-.269.045-.1.086-.171.128-.252-.462-.296-.928-.601-1.38-.924zm43.818-7.517a4.621 4.621 0 0 1 .933-.012s-.465.526-.6.717a.908.908 0 0 1-.8.314s-.268-.568-.134-.76a.9.9 0 0 1 .598-.259zm-46.793 9.494c-.057.023-.094.026-.145.044.017.014.029.036.047.049.031-.028.058-.064.095-.093zm-6.531 1.419a.859.859 0 0 1-.233.194c.157.113.253.43.321.956.2-.067.411-.136.635-.188.1-.024.159-.041.256-.064-.285-.254-.564-.507-.842-.768a1.832 1.832 0 0 1 .058.544c-.019.145-.079-.018-.14-.357-.025-.126-.046-.23-.058-.317zm62.93-11.041a.164.164 0 0 1 .143.051c.092.087.052.182-.1.208s-.238-.046-.181-.159a.2.2 0 0 1 .134-.099zm-63.473 11.748c.027.069.054.165.086.272a.849.849 0 0 1 .05.392c.049-.023.1-.061.157-.085-.131-.385-.204-.559-.297-.578zm11.025-1.18c.083-.014.219.076.429.269.254.233.252.275-.068.375a.341.341 0 0 1-.433-.287c-.04-.223-.015-.342.068-.357zm41.026-6.547a3.343 3.343 0 0 1 .488-.048h.019c.177-.044.367-.084.534-.113.414-.073.766-.088.8.011.072.187-.3.464-.918.754-.013.008-.02.017-.034.025a1.564 1.564 0 0 0-.481.41c-.283.433-.222 1.051-.42 1.086-.354.063-.729-.339-.828-.905v-.018c-.163 0-.243-.061-.181-.16s.107-.2.173-.317a.693.693 0 0 1 .48-.639c.083-.017.213-.058.364-.086zm10.53-1.819c.035-.006.07.007.105.058.073.1.05.2-.057.22s-.162-.068-.129-.187c.013-.06.043-.084.078-.09zm-12.856 2.5a.769.769 0 0 1 .148-.027c.274-.044.63.028.71.238.048.125-.14.273-.421.323a.669.669 0 0 1-.471-.07 1.86 1.86 0 0 1 .336.82c.1.565 0 1.05-.21 1.087s-1.432-.215-1.532-.781c-.052-.3.619.027.917-.219.266-.219.154-1.039.254-1.057a.171.171 0 0 1 .12.036.316.316 0 0 1-.031-.071c-.041-.125.043-.23.177-.282zm12.239-1.987a.253.253 0 0 1 .18.045c.113.078.069.155-.1.19s-.271-.022-.216-.134a.185.185 0 0 1 .132-.103zm-60.768 10.753a.166.166 0 0 1 .193.119.813.813 0 0 1-.1.381c-.017.033-.025.075-.043.084-.052.029-.105-.058-.132-.207-.039-.198-.001-.363.082-.377zm-1.158.261c.247-.041.431.06.467.262.038.218.041.374 0 .343a4.9 4.9 0 0 0-.6-.239l-.508-.177.527-.15a.951.951 0 0 1 .115-.04zm45.91-6.262a.616.616 0 0 1 .074-.013c.214-.035.317.022.215.134a.371.371 0 0 1-.187.129.294.294 0 0 1-.2-.06c-.099-.069-.058-.148.099-.189zm16.2-2.627c.056-.01.17.111.291.35.149.3.15.37.013.4-.092.02-.227-.137-.291-.35-.078-.249-.072-.391-.016-.401zm-1.281.646c.064 0 .115.09.113.209 0 .068-.013.093-.039.1s-.068-.006-.106-.058c-.084-.115-.07-.2.016-.232.007-.002.004-.019.013-.02zm-14.432 2.66c.107-.019.162.068.129.187-.017.06-.042.1-.076.109s-.072-.027-.109-.076c-.076-.098-.053-.198.053-.22zm14.773-1.268c-.027 0-.07.05-.113.115-.133.2-.133.306-.006.4a.094.094 0 0 0 .078.006c.062-.014.1-.122.1-.285s-.017-.246-.062-.236zm-55.97 10.425a.162.162 0 0 1 .143.051c.091.087.048.163-.1.19s-.235-.028-.178-.14a.194.194 0 0 1 .132-.102zm54.177-9c.166-.034.273-.038.273.028 0 .134-.406.457-.909.7a2.905 2.905 0 0 1-.647.229c-.166.032-.276.023-.276-.047 0-.14.408-.444.912-.677a3.248 3.248 0 0 1 .645-.235zm-34.054 6.216a.164.164 0 0 1 .193.119.808.808 0 0 1-.1.382.155.155 0 0 1-.046.065c-.052.03-.1-.039-.128-.188-.044-.199-.008-.365.077-.379zm4.58-.674c.089-.016.173.061.262.183.506-.2.978-.3 1.092.017.105.291-.331.5-.824.642.009.039.013.07.021.111.1.565.021 1.047-.192 1.084s-1.432-.215-1.532-.78a.083.083 0 0 1 .058-.106l-.042-.241s.533-.329 1.1-.595c.006-.167.015-.31.053-.317zm-5.9 1.079c.064 0 .115.091.113.21 0 .068-.031.1-.057.106s-.049-.009-.088-.061c-.083-.115-.088-.194 0-.229.004-.006.015-.027.025-.028zm-14.849 2.677c.126-.031.2.044.162.163a.123.123 0 0 1-.1.093c-.042.01-.078-.011-.124-.054-.098-.09-.072-.174.055-.204zm34.181-5.933c.52-.086.687-.026.488.163a20.426 20.426 0 0 1-4.979 1.451c-.305.059-.6.112-.852.151-.047.054-.442.492-.569.674a.683.683 0 0 1-.23.213c.2-.026.279.051.181.159a.326.326 0 0 1-.194.091.262.262 0 0 1-.2-.023c-.078-.054-.066-.126.026-.177a1.691 1.691 0 0 1-.389.069s-.271-.587-.137-.779a.7.7 0 0 1 .4-.2c-.009-.011-.03-.019-.025-.034.054-.194.718-.455 1.483-.586s2.414-.523 3.669-.857c.568-.16 1.009-.264 1.321-.315zm12.787-1.586c.039-.02.092.028.145.166.172.446.209 1.377.056 1.4-.1.018-.186-.194-.251-.663-.074-.483-.042-.861.043-.905zm.593-.1c.079-.032.134.069.132.205 0 .069-.014.093-.04.1s-.067-.005-.106-.057c-.09-.119-.08-.22.007-.254zm2.122-.317c.056-.01.1-.023.167-.029l.9-.1-.736.378a1.7 1.7 0 0 1-.558.194c-.163.018-.276-.019-.323-.1-.089-.14.15-.28.543-.349zm-29.783 5.31a.82.82 0 0 0 .578-.083s-.007-.016 0-.019l-.334.058zm-19.688 3.836c.17-.035.271.022.215.134a.226.226 0 0 1-.154.1.183.183 0 0 1-.158-.029c-.12-.082-.08-.178.09-.212zm18.656-3.081c.027-.012.068.005.105.058.084.116.073.216-.013.251s-.131-.052-.129-.187c-.01-.076.004-.117.03-.129zm29.089-5.015c.113-.014.125.019.084.367-.032.264-.08.415-.117.422s-.073-.13-.087-.386c-.016-.229.041-.401.113-.41zm-47.47 8.792c.078-.031.152.067.15.2a.1.1 0 0 1-.057.106c-.026.01-.068-.006-.106-.058-.091-.12-.08-.22.006-.255zm43.521-6.376a.4.4 0 0 1 .093-.016c.149-.026.215.031.159.144a.161.161 0 0 1-.117.1.2.2 0 0 1-.161-.048.1.1 0 0 1 .019-.187zm-37.967 6.887s-1.753 2.8-1.926 2.079c-.056.01-.11-.122-.124-.379a.771.771 0 0 1 .025-.291c-.052-.389-.088-.711-.088-.711zm39.359-6.578c.557-.1 1.011-.11 1.008-.025-.008.221-.776.529-1.358.641-.349.067-.633.07-.641-.059-.017-.21.427-.466.985-.564zm1.706-.072c.016-.012.03-.005.056-.01.106-.019.159.049.125.169-.017.06-.042.1-.076.109s-.072-.026-.109-.076a.136.136 0 0 1-.002-.199zm-3.036.765a.2.2 0 0 1 .161.048c.092.087.034.185-.115.212s-.219-.05-.162-.163a.161.161 0 0 1 .11-.104zm1.768-.159c.326-.063.565-.058.563.054a3.566 3.566 0 0 1-1.365.6c-.219.069-.4.119-.546.154-.441.1-.565.065-.329-.134a4.567 4.567 0 0 1 1.67-.68zm-3.169.769c.19-.039.33-.013.326.114 0 .088-.251.292-.568.464a1.367 1.367 0 0 1-.249.1c-.2.063-.317.012-.3-.158.024-.227.467-.462.784-.527zm.547-.039c.026-.012.068.005.106.058.084.116.073.216-.013.251s-.131-.052-.129-.187c-.006-.076.003-.117.029-.129zm-39.8 7.115c.041-.009.083.036.1.154a.8.8 0 0 1-.1.381.172.172 0 0 1-.046.066c-.045.028-.086-.061-.094-.213-.02-.228.065-.381.134-.396zm.34-.022c.079-.032.131.051.129.187 0 .068-.01.111-.036.121s-.068-.005-.105-.058c-.092-.122-.081-.223.005-.257zm37.824-6.4a.156.156 0 0 1 .128.073.131.131 0 0 1-.075.223c-.106.019-.162-.068-.129-.187.01-.07.034-.113.069-.119zm-28 7.384c.026-.012.068 0 .105.057.084.116.076.234-.01.27s-.135-.071-.132-.207c-.008-.077.001-.118.027-.133zm.389-.069a.167.167 0 0 1 .142.051c.093.087.07.19-.056.22s-.214-.042-.181-.159a.151.151 0 0 1 .085-.122zm2.216.431a.155.155 0 0 1 .128.073.119.119 0 0 1-.079.205c-.106.018-.159-.05-.125-.169.006-.069.031-.113.066-.119zm2.686.176a.359.359 0 0 1 .362.318c.015.084-.113.158-.273.182-.186.029-.272-.079-.244-.3.005-.132.064-.195.145-.21zm2.983-.526c-.123.047-.126.107-.011.155a.463.463 0 0 0 .254.032.378.378 0 0 0 .209-.113c.1-.111-.031-.15-.285-.1a1.407 1.407 0 0 0-.177.016zm.982-.173c-.171.045-.239.113-.122.174a.389.389 0 0 0 .236.036.338.338 0 0 0 .191-.11c.1-.112 0-.153-.23-.113a.7.7 0 0 0-.085.003zm-6.492 1.316c.026-.011.049.009.087.061.084.116.091.213.005.247s-.149-.048-.147-.184a.137.137 0 0 1 .045-.134zm-1.42.289l1.341.126s.209.235.075.426c-.225.32-1.278.226-1.279.226zm5.794-.945c.494-.087.264.2.313.48s.364.471-.131.558-.949-.076-1-.358.312-.603.807-.692zm10.212-1.782c.328-.073.614-.068.715.046.22.246 0 .395-.817.564-.594.124-1.072.16-1.094.079-.005-.256.64-.577 1.187-.699zm-2.034.492a2.136 2.136 0 0 1 .34-.022.4.4 0 0 1 .414.29c.029.164-.411.432-.984.594-1.419.4-2.429.7-3.244.992.008.061.018.1.029.167.075.424.223.8-.06.851s-.578-.245-.652-.669c0-.027.008-.05.005-.078-.17.069-.344.132-.5.2a4.959 4.959 0 0 1-.733.282c-.187.047-.292.032-.291-.025.005-.317.6-.77 1.533-1.168a2.213 2.213 0 0 0 .864-.515 12.215 12.215 0 0 1 2.764-.793c.173-.043.358-.093.504-.115zm-9.873 2.3c.035-.007.069.007.105.058.072.1.049.2-.057.22s-.162-.068-.128-.187c.006-.074.034-.099.07-.105zm2.513.168a.333.333 0 0 1 .093-.016c.149-.026.234.028.177.14a.193.193 0 0 1-.135.1.159.159 0 0 1-.142-.051c-.08-.079-.075-.148-.008-.187z" class="cls-1"/>
        <g id="그룹_2543" transform="translate(1640.86 823.223)">
            <path id="패스_4021" d="M1649.478 858.933l8.711-1.507.382 2.214c1.116 6.452-1.942 10.569-6.922 12.283l-.488-2.82c3.3-1.469 5.151-4.236 4.417-8.488l-5.64.975zm9.8-2.151l3.321-.575 2.373 13.716-3.321.575z" class="cls-1" transform="translate(-1649.478 -848.829)"/>
            <path id="패스_4022" d="M1674.016 854.514l8.239-1.425.28 1.624c.825 4.768-2.956 7.171-7.193 7.9l-.408-2.363c3.646-.631 5.026-2.587 4.732-4.285l-5.241.907zm15.326 11.247l-12.371 2.14-.838-4.843 3.292-.569.418 2.421 9.08-1.571zm-5.916-13.1l3.249-.562.6 3.5 1.535-.265.463 2.672-1.535.265.682 3.942-3.249.562z" class="cls-1" transform="translate(-1659.216 -847.197)"/>
            <path id="패스_4023" d="M1698.5 850.279l7.884-1.364 1.287 7.44-7.883 1.364zm15.326 11.247l-12.372 2.139-.863-4.99 3.292-.569.444 2.569 9.08-1.571zm-11.333-6.708l1.713-.3-.47-2.717-1.712.3zm5.417-6.4l3.248-.562.58 3.352 1.535-.265.463 2.671-1.536.266.707 4.089-3.247.562z" class="cls-1" transform="translate(-1668.932 -845.517)"/>
            <path id="패스_4024" d="M1723.344 846.144l12.55-2.17.863 4.99-9.317 1.612.123.709 9.464-1.637.4 2.3-12.7 2.2-.888-5.138 9.316-1.611-.113-.65-9.316 1.611zm1.32 10.7l2.392-.414-.376-2.17 2.982-.516.375 2.169 2.924-.505-.376-2.17 2.982-.516.376 2.169 2.3-.4.46 2.657-13.582 2.35z" class="cls-1" transform="translate(-1678.793 -843.974)"/>
        </g>
    </g>
</svg>
