<svg xmlns="http://www.w3.org/2000/svg" width="24" height="24.001" viewBox="0 0 24 24.001">
    <defs>
        <style>
            .cls-1{fill:#bc8877}
        </style>
    </defs>
    <g id="그룹_2547" transform="translate(-551 -547.712)">
        <path id="패스_4034" d="M563 571.713a12 12 0 1 1 12-12 12.014 12.014 0 0 1-12 12zm0-22.871a10.871 10.871 0 1 0 10.87 10.87 10.882 10.882 0 0 0-10.87-10.87z" class="cls-1"/>
        <path id="패스_4035" d="M561.324 564.367a.566.566 0 0 1-.4-.166l-4.337-4.337a.565.565 0 0 1 .8-.8l3.937 3.936 7.29-7.29a.565.565 0 0 1 .8.8l-7.69 7.69a.564.564 0 0 1-.4.167z" class="cls-1"/>
    </g>
</svg>
