<svg xmlns="http://www.w3.org/2000/svg" xmlns:xlink="http://www.w3.org/1999/xlink" width="112" height="112" viewBox="0 0 112 112">
  <defs>
    <clipPath id="clip-path">
      <circle id="타원_754" data-name="타원 754" cx="56" cy="56" r="56" transform="translate(124 96)" fill="#f6f6f6"/>
    </clipPath>
  </defs>
  <circle id="타원_755" data-name="타원 755" cx="56" cy="56" r="56" fill="#f6f6f6"/>
  <g id="imgCall" transform="translate(-124 -96)" clip-path="url(#clip-path)">
    <g id="그룹_7355" data-name="그룹 7355" transform="translate(-457.874 -491.126)">
      <g id="그룹_7354" data-name="그룹 7354" transform="translate(609.571 611.576)">
        <g id="그룹_7353" data-name="그룹 7353" transform="translate(0 0)">
          <g id="그룹_7350" data-name="그룹 7350" transform="translate(2.815)">
            <path id="패스_20998" data-name="패스 20998" d="M650.561,724.361a6.687,6.687,0,1,0-6.687,6.687A6.686,6.686,0,0,0,650.561,724.361Z" transform="translate(-633.131 -679.958)" fill="#a48b78" stroke="#3e3a39" stroke-linecap="round" stroke-linejoin="round" stroke-width="1"/>
            <g id="그룹_7349" data-name="그룹 7349">
              <path id="패스_20999" data-name="패스 20999" d="M625.778,770.09V759.008a21.458,21.458,0,0,1,21.458-21.458h7.3a21.458,21.458,0,0,1,21.458,21.458V770.09" transform="translate(-625.778 -692.768)" fill="#fff" stroke="#3e3a39" stroke-linecap="round" stroke-linejoin="round" stroke-width="1"/>
              <g id="그룹_7348" data-name="그룹 7348" transform="translate(0.884)">
                <g id="그룹_7336" data-name="그룹 7336" transform="translate(12.994 42.006)">
                  <path id="패스_21000" data-name="패스 21000" d="M677.434,736.05a6.309,6.309,0,1,0-6.308,6.308A6.308,6.308,0,0,0,677.434,736.05Z" transform="translate(-664.817 -729.742)" fill="#fff" stroke="#3e3a39" stroke-linecap="round" stroke-linejoin="round" stroke-width="1"/>
                  <path id="패스_21001" data-name="패스 21001" d="M705.117,736.05a6.308,6.308,0,1,0-6.308,6.308A6.308,6.308,0,0,0,705.117,736.05Z" transform="translate(-682.66 -729.742)" fill="#fff" stroke="#3e3a39" stroke-linecap="round" stroke-linejoin="round" stroke-width="1"/>
                </g>
                <g id="그룹_7347" data-name="그룹 7347">
                  <path id="패스_21002" data-name="패스 21002" d="M690.764,716.062A6.939,6.939,0,0,1,683.824,723h0a6.939,6.939,0,0,1-6.938-6.939V709a6.938,6.938,0,0,1,6.938-6.939h0A6.939,6.939,0,0,1,690.764,709Z" transform="translate(-659.602 -669.893)" fill="#ffddc6" stroke="#3e3a39" stroke-linecap="round" stroke-linejoin="round" stroke-width="1"/>
                  <g id="그룹_7346" data-name="그룹 7346">
                    <g id="그룹_7345" data-name="그룹 7345">
                      <g id="그룹_7344" data-name="그룹 7344">
                        <g id="그룹_7342" data-name="그룹 7342" transform="translate(3.31 4.109)">
                          <g id="그룹_7341" data-name="그룹 7341">
                            <g id="그룹_7339" data-name="그룹 7339">
                              <g id="그룹_7337" data-name="그룹 7337">
                                <path id="패스_21003" data-name="패스 21003" d="M679.4,644.846c0,12.256-9.364,21.713-20.915,21.713s-20.914-9.457-20.914-21.713,9.363-21.712,20.914-21.712S679.4,632.59,679.4,644.846Z" transform="translate(-637.574 -623.134)" fill="#fff3e3" stroke="#3e3a39" stroke-linecap="round" stroke-linejoin="round" stroke-width="1"/>
                              </g>
                              <g id="그룹_7338" data-name="그룹 7338" transform="translate(3.552 20.515)">
                                <path id="패스_21004" data-name="패스 21004" d="M658.581,686.353a5.508,5.508,0,1,1-5.508-5.508A5.507,5.507,0,0,1,658.581,686.353Z" transform="translate(-647.566 -680.845)" fill="#ffddcb"/>
                                <path id="패스_21005" data-name="패스 21005" d="M725.272,686.353a5.508,5.508,0,1,1-5.508-5.508A5.507,5.507,0,0,1,725.272,686.353Z" transform="translate(-690.549 -680.845)" fill="#ffddcb"/>
                              </g>
                            </g>
                            <g id="그룹_7340" data-name="그룹 7340" transform="translate(12.173 20.276)">
                              <path id="패스_21006" data-name="패스 21006" d="M675.409,682.207a1.81,1.81,0,1,1-1.8-2.036A1.927,1.927,0,0,1,675.409,682.207Z" transform="translate(-671.817 -680.171)" fill="#3e3a39"/>
                              <path id="패스_21007" data-name="패스 21007" d="M714.48,682.207a1.81,1.81,0,1,1-1.8-2.036A1.926,1.926,0,0,1,714.48,682.207Z" transform="translate(-696.999 -680.171)" fill="#3e3a39"/>
                            </g>
                          </g>
                          <path id="패스_21008" data-name="패스 21008" d="M695.245,691.562a2.018,2.018,0,0,0-2.854,0" transform="translate(-672.904 -666.856)" fill="none" stroke="#3e3a39" stroke-linecap="round" stroke-linejoin="round" stroke-width="1"/>
                        </g>
                        <path id="패스_21009" data-name="패스 21009" d="M639.248,638.069s7.318-3.532,10.85-10.345c0,0,2.019,5.8-1.009,8.327,0,0,6.56,1.766,5.8-9.841,0,0,2.524,6.055,1.262,10.093h9.841s1.766-4.29-2.019-9.841c0,0,6.388,9.266,13.288,10.184l1.6-1.605s-3.911-14.256-19.808-15.014-21.321,16.023-21.321,16.023" transform="translate(-634.368 -617.007)" fill="#a48b78" stroke="#3e3a39" stroke-linecap="round" stroke-linejoin="round" stroke-width="1"/>
                        <path id="패스_21010" data-name="패스 21010" d="M635.627,641.613v-8.432a21.606,21.606,0,0,1,21.606-21.605h0a21.605,21.605,0,0,1,21.606,21.605v8.432a21.606,21.606,0,0,1-21.606,21.606h0" transform="translate(-633.009 -611.576)" fill="none" stroke="#3e3a39" stroke-linecap="round" stroke-linejoin="round" stroke-width="1"/>
                        <g id="그룹_7343" data-name="그룹 7343" transform="translate(0 16.864)">
                          <path id="패스_21011" data-name="패스 21011" d="M633.816,674.154a2.775,2.775,0,0,1-2.776,2.776h0a2.776,2.776,0,0,1-2.776-2.776V661.79a2.776,2.776,0,0,1,2.776-2.776h0a2.776,2.776,0,0,1,2.776,2.776Z" transform="translate(-628.264 -659.014)" fill="#f2aa93" stroke="#3e3a39" stroke-linecap="round" stroke-linejoin="round" stroke-width="1"/>
                          <path id="패스_21012" data-name="패스 21012" d="M754.484,674.154a2.775,2.775,0,0,1-2.776,2.776h0a2.775,2.775,0,0,1-2.775-2.776V661.79a2.776,2.776,0,0,1,2.775-2.776h0a2.776,2.776,0,0,1,2.776,2.776Z" transform="translate(-706.037 -659.014)" fill="#f2aa93" stroke="#3e3a39" stroke-linecap="round" stroke-linejoin="round" stroke-width="1"/>
                        </g>
                      </g>
                      <path id="패스_21013" data-name="패스 21013" d="M694.356,751.428a2.523,2.523,0,1,0-2.524,2.524A2.524,2.524,0,0,0,694.356,751.428Z" transform="translate(-667.608 -700.087)" fill="#f2aa93" stroke="#3e3a39" stroke-linecap="round" stroke-linejoin="round" stroke-width="1"/>
                    </g>
                    <path id="패스_21014" data-name="패스 21014" d="M685.05,702.058a4.037,4.037,0,0,0,8.074,0Z" transform="translate(-664.863 -669.893)" fill="#f8cab1" stroke="#3e3a39" stroke-linecap="round" stroke-linejoin="round" stroke-width="1"/>
                  </g>
                </g>
              </g>
            </g>
            <path id="패스_21021" data-name="패스 21021" d="M267.522,104.3l-1.636-1.314a8.953,8.953,0,0,1,1.408-1.837A13.528,13.528,0,0,1,269.836,99c.374-.29,1.47-.944,1.782-1.607a1.75,1.75,0,0,0-.152-1.731,1.9,1.9,0,0,0-1.818-.574c-.856.2-1.375.936-1.864,2.309a6.63,6.63,0,0,1-1.211,2.3,4.172,4.172,0,0,1-1.882,1.2,3.886,3.886,0,0,1-1.922.078,3.729,3.729,0,0,1-1.7-.86,4.263,4.263,0,0,1-1.371-3.032,3.814,3.814,0,0,1,1.256-2.878,3.889,3.889,0,0,1,1.938-1.04,3.593,3.593,0,0,1,1.741.1,4.5,4.5,0,0,1,1.624.9L264.944,95.6l.006.005a2.612,2.612,0,0,0-.93-.493,1.7,1.7,0,0,0-1.733.505,1.9,1.9,0,0,0-.648,1.44,2.33,2.33,0,0,0,.723,1.612,1.871,1.871,0,0,0,1.774.37c.486-.145,1.242-.654,1.773-2.145a6.794,6.794,0,0,1,1.3-2.51,3.941,3.941,0,0,1,1.992-1.185,3.841,3.841,0,0,1,3.717,1.18,3.381,3.381,0,0,1,.879,2.5,3.651,3.651,0,0,1-1.318,2.463c-.738.675-1.725,1.242-2.8,2.293a11.064,11.064,0,0,0-2.165,2.668" transform="translate(-230.643 -35.762)" fill="#a16f5e"/>
          </g>
          <g id="그룹_7352" data-name="그룹 7352" transform="translate(41.507 46.524)">
            <g id="그룹_7351" data-name="그룹 7351">
              <path id="패스_21015" data-name="패스 21015" d="M743.906,742.451h36.5A2.9,2.9,0,0,1,783.332,746l-5.108,28.963h-43.6L739.728,746A4.422,4.422,0,0,1,743.906,742.451Z" transform="translate(-734.621 -742.451)" fill="#fff" stroke="#3e3a39" stroke-linecap="round" stroke-linejoin="round" stroke-width="1"/>
              <path id="패스_21016" data-name="패스 21016" d="M779.322,816.417l-1.1,6.221h-43.6l1.1-6.221" transform="translate(-734.621 -790.123)" fill="#dcdddd" stroke="#3e3a39" stroke-linecap="round" stroke-linejoin="round" stroke-width="1"/>
            </g>
            <path id="패스_21017" data-name="패스 21017" d="M795.906,780.874a3.7,3.7,0,0,1,3.5-2.974,2.427,2.427,0,0,1,2.449,2.974,3.7,3.7,0,0,1-3.5,2.973A2.426,2.426,0,0,1,795.906,780.874Z" transform="translate(-774.09 -765.298)" fill="#dcdddd" stroke="#707070" stroke-width="1"/>
          </g>
          <path id="패스_21018" data-name="패스 21018" d="M686.519,806.35a4.538,4.538,0,0,0,4.09.195c2.338-.974,6.427-2.532,7.6,1.363a5.3,5.3,0,0,1,1.363,5.648H687.039" transform="translate(-662.112 -736.498)" fill="#fff3e3" stroke="#3e3a39" stroke-linecap="round" stroke-linejoin="round" stroke-width="1"/>
          <path id="패스_21019" data-name="패스 21019" d="M621.577,780.138l-3.28,11.607s-1.262,3.785.5,6.813h23.971v-9.589l-10.345-3.028" transform="translate(-617.86 -720.217)" fill="#fff" stroke="#3e3a39" stroke-linecap="round" stroke-linejoin="round" stroke-width="1"/>
        </g>
        <path id="패스_21020" data-name="패스 21020" d="M650.319,774.99a11.553,11.553,0,0,1,4.353,7.381" transform="translate(-638.78 -716.899)" fill="none" stroke="#3e3a39" stroke-linecap="round" stroke-linejoin="round" stroke-width="1"/>
      </g>
      <rect id="사각형_2918" data-name="사각형 2918" width="99.418" height="10.542" transform="translate(604.999 689.161)" fill="#f1f1f1" stroke="#3e3a39" stroke-linecap="round" stroke-linejoin="round" stroke-width="1"/>
    </g>
  </g>
</svg>
