<svg xmlns="http://www.w3.org/2000/svg" width="83.5" height="122.75" viewBox="0 0 83.5 122.75">
    <defs>
        <style>
            .cls-5{stroke-width:1.5px;fill:none;stroke:#777;stroke-linecap:round;stroke-linejoin:round}
        </style>
    </defs>
    <g id="그룹_4408" transform="translate(-17.75 -334.39)">
        <rect id="사각형_1717" width="82" height="101.14" fill="#fff" stroke="#c1c1c1" stroke-miterlimit="10" stroke-width="1.5px" rx="12" transform="translate(18.5 355.25)"/>
        <rect id="사각형_1718" width="74.125" height="88" fill="none" stroke="#c1c1c1" stroke-miterlimit="10" stroke-width="1.5px" rx="7.781" transform="translate(22.438 359.265)"/>
        <circle id="타원_437" cx="20.85" cy="20.85" r="20.85" fill="#f6f6f6" transform="translate(39.104 380.104)"/>
        <path id="패스_14131" fill="#fd0" d="M61.506 387.895l20.728-20.471a2.1 2.1 0 0 0-1.474-3.592h-7.781v-.259A29.2 29.2 0 0 0 43.8 334.39H32.058a2.1 2.1 0 0 0-2.042 1.615 2.051 2.051 0 0 0-.057.484 2.1 2.1 0 0 0 1.158 1.875 26.854 26.854 0 0 1 14.906 24.126v1.342H39.3a2.1 2.1 0 0 0-1.475 3.592L45.2 374.7l4.25 4.2 9.109 8.995a2.1 2.1 0 0 0 2.947 0z"/>
        <path id="선_440" d="M0 0L38.875 0" class="cls-5" transform="translate(40.371 426.792)"/>
        <path id="선_441" d="M0 0L38.875 0" class="cls-5" transform="translate(40.371 432.182)"/>
        <path id="패스_14132" fill="#bc8877" d="M64.487 63.534L61.4 61.061a16.859 16.859 0 0 1 2.66-3.457 25.532 25.532 0 0 1 4.8-4.053c.706-.546 2.777-1.776 3.366-3.025a3.281 3.281 0 0 0-.288-3.257 3.6 3.6 0 0 0-3.435-1.08c-1.617.377-2.6 1.762-3.521 4.346a12.46 12.46 0 0 1-2.287 4.335 7.885 7.885 0 0 1-3.555 2.255 7.368 7.368 0 0 1-3.632.146 7.056 7.056 0 0 1-3.21-1.618 8.01 8.01 0 0 1-2.589-5.706 7.165 7.165 0 0 1 2.372-5.415 7.355 7.355 0 0 1 3.661-1.957 6.813 6.813 0 0 1 3.289.193 8.515 8.515 0 0 1 3.068 1.7l-2.48 2.689.011.01a4.936 4.936 0 0 0-1.757-.927 3.222 3.222 0 0 0-3.273.951 3.565 3.565 0 0 0-1.225 2.71 4.379 4.379 0 0 0 1.366 3.034 3.545 3.545 0 0 0 3.352.7c.918-.273 2.346-1.231 3.349-4.037a12.765 12.765 0 0 1 2.458-4.734 7.449 7.449 0 0 1 3.763-2.23 7.273 7.273 0 0 1 7.021 2.221 6.346 6.346 0 0 1 1.661 4.708A6.864 6.864 0 0 1 73.86 54.2c-1.394 1.271-3.259 2.337-5.281 4.315a20.838 20.838 0 0 0-4.091 5.022" transform="translate(-3.199 349.622)"/>
    </g>
</svg>
