<svg xmlns="http://www.w3.org/2000/svg" width="90" height="30" viewBox="0 0 90 30">
    <defs>
        <clipPath id="clip-path">
            <path id="사각형_3345" data-name="사각형 3345" class="cls-1" transform="translate(150 206)" d="M0 0h12v11H0z"/>
        </clipPath>
        <clipPath id="clip-path-2">
            <path id="사각형_3346" data-name="사각형 3346" class="cls-1" transform="translate(137 213)" d="M0 0h10v23H0z"/>
        </clipPath>
        <clipPath id="clip-path-3">
            <path id="사각형_3347" data-name="사각형 3347" class="cls-1" d="M0 0h10v23H0z"/>
        </clipPath>
        <linearGradient id="linear-gradient" y1=".5" x2="1" y2=".5" gradientUnits="objectBoundingBox">
            <stop offset="0" stop-color="#a2670c"/>
            <stop offset=".034" stop-color="#a56b10"/>
            <stop offset=".075" stop-color="#af781f"/>
            <stop offset=".119" stop-color="#c08d37"/>
            <stop offset=".166" stop-color="#d8ab58"/>
            <stop offset=".214" stop-color="#f6d282"/>
            <stop offset=".226" stop-color="#ffdd8f"/>
            <stop offset=".342" stop-color="#e6b449"/>
            <stop offset=".472" stop-color="#e5af3a"/>
            <stop offset=".48" stop-color="#e5af3a"/>
            <stop offset=".618" stop-color="#e9b143"/>
            <stop offset=".638" stop-color="#ebb648"/>
            <stop offset=".717" stop-color="#f3c75b"/>
            <stop offset=".839" stop-color="#c9983d"/>
            <stop offset=".92" stop-color="#b27827"/>
            <stop offset="1" stop-color="#99560f"/>
        </linearGradient>
        <style>
            .cls-1{fill:none}.cls-6{fill:#e4c78a;opacity:.8}
        </style>
    </defs>
    <g id="그룹_24726" data-name="그룹 24726" transform="translate(-137 -206)">
        <path id="패스_29734" data-name="패스 29734" d="M11.13-11.564H9.688v9.184h1.442zm-8.764 4a1.845 1.845 0 0 1 1.946-1.914A1.852 1.852 0 0 1 6.258-7.56a1.86 1.86 0 0 1-1.946 1.918A1.852 1.852 0 0 1 2.366-7.56zm5.292 0a3.163 3.163 0 0 0-3.346-3.164A3.175 3.175 0 0 0 .952-7.56a3.183 3.183 0 0 0 3.36 3.16 3.171 3.171 0 0 0 3.346-3.16zM4.326-.336V-3.3H2.87V.84h8.624V-.336zm9.282-9.9v1.176h4.508c-.252 2.912-1.82 5.138-5.138 6.734l.77 1.148c4.34-2.1 5.852-5.292 5.852-9.058zm8.274-1.33V1.078h1.442v-12.642zm10.542 5.784a4.039 4.039 0 0 1-2.954-3.78v-1.358h-1.456v1.246a4.419 4.419 0 0 1-3.066 4.228l.77 1.148a5.2 5.2 0 0 0 3.052-3 4.978 4.978 0 0 0 2.9 2.646zM30.87-.056c-1.764 0-2.786-.434-2.786-1.246 0-.784 1.022-1.232 2.786-1.232s2.786.448 2.786 1.232c0 .812-1.022 1.246-2.786 1.246zm0-3.612c-2.6 0-4.214.882-4.214 2.366s1.61 2.38 4.214 2.38S35.084.2 35.084-1.3s-1.596-2.368-4.214-2.368zm4.074-4.774v-3.136H33.5v7.6h1.442v-3.274h1.792v-1.19zM50.638-6.9c-2.548-.364-4.452-1.946-4.452-3.584v-.672H44.66v.672c0 1.666-1.876 3.22-4.452 3.584l.56 1.162A6.357 6.357 0 0 0 45.43-8.6a6.4 6.4 0 0 0 4.648 2.86zm.49 2.352H39.7v1.176h4.96v4.464h1.44v-4.466h5.026zm8.106-1.232a4.039 4.039 0 0 1-2.954-3.78v-1.36h-1.456v1.246a4.419 4.419 0 0 1-3.066 4.228l.77 1.148a5.2 5.2 0 0 0 3.052-3 4.978 4.978 0 0 0 2.9 2.646zM57.68-.056c-1.764 0-2.786-.434-2.786-1.246 0-.784 1.022-1.232 2.786-1.232s2.786.448 2.786 1.232c0 .812-1.022 1.246-2.786 1.246zm0-3.612c-2.6 0-4.214.882-4.214 2.366s1.61 2.38 4.214 2.38S61.894.2 61.894-1.3 60.3-3.668 57.68-3.668zm4.074-4.774v-3.136h-1.442v7.6h1.442v-3.274h1.792v-1.19z" transform="translate(150 231)" style="fill:#b08834"/>
        <g id="마스크_그룹_121" data-name="마스크 그룹 121" style="clip-path:url(#clip-path)">
            <g id="그룹_24716" data-name="그룹 24716" transform="translate(-1026.671 -1051.996)">
                <path id="패스_29726" data-name="패스 29726" d="M1187.558 1261.751a.5.5 0 0 0-.464.7l-2.339 1.891-1.9-4.5a.682.682 0 1 0-.53 0l-1.9 4.5-2.305-1.864a.5.5 0 0 0 .055-.224.506.506 0 1 0-.4.491l1.365 5.829h6.888l1.368-5.843a.5.5 0 0 0 .154.026.5.5 0 0 0 0-1.007z" style="fill:url(#linear-gradient)"/>
            </g>
        </g>
        <g id="마스크_그룹_122" data-name="마스크 그룹 122" style="clip-path:url(#clip-path-2)">
            <path id="패스_29730" data-name="패스 29730" class="cls-6" d="M824.706 105.663a2.8 2.8 0 0 1 1.366.713 14.492 14.492 0 0 1-.406-1.429 2.947 2.947 0 0 1-1.778.023 3.077 3.077 0 0 1-1.479-1.319 3.077 3.077 0 0 1 1.979-.094 2.753 2.753 0 0 1 1.168.871 14.591 14.591 0 0 1-.206-1.5 2.533 2.533 0 0 1-1.451-.261 2.7 2.7 0 0 1-1.077-1.366 2.7 2.7 0 0 1 1.726.221 2.287 2.287 0 0 1 .76.739q-.026-.647 0-1.33a2.389 2.389 0 0 1-1.321-.478 2.528 2.528 0 0 1-.771-1.434 2.528 2.528 0 0 1 1.555.484 2.139 2.139 0 0 1 .578.8c.029-.346.069-.7.123-1.057a2.162 2.162 0 0 1-1.21-.432 2.28 2.28 0 0 1-.7-1.293 2.279 2.279 0 0 1 1.4.436 2.007 2.007 0 0 1 .575.853q.091-.523.218-1.063a1.927 1.927 0 0 1-1.053-.571 1.98 1.98 0 0 1-.4-1.211 1.981 1.981 0 0 1 1.134.585 1.819 1.819 0 0 1 .383.943q.141-.565.324-1.148a1.764 1.764 0 0 1-.869-.684 1.806 1.806 0 0 1-.167-1.15 1.8 1.8 0 0 1 .925.7 1.634 1.634 0 0 1 .2.864q.173-.526.382-1.067a1.675 1.675 0 0 1-.724-.793.59.59 0 1 1 .774-.289 1.566 1.566 0 0 1 .029.884q.146-.368.309-.743a1.239 1.239 0 0 1-.529-.583.436.436 0 1 1 .573-.214l.018.054a.914.914 0 0 1 .049-.138.436.436 0 1 1 .556.254 1.239 1.239 0 0 1-.571.546l-.015.034a1.152 1.152 0 0 1 .713-.061 1.185 1.185 0 0 1 .6.474 1.185 1.185 0 0 1-.759.081 1.158 1.158 0 0 1-.575-.439c-.064.154-.181.446-.32.855a1.545 1.545 0 0 1 .939-.073 1.6 1.6 0 0 1 .809.64 1.6 1.6 0 0 1-1.026.11 1.546 1.546 0 0 1-.759-.568c-.111.33-.233.728-.354 1.183a1.614 1.614 0 0 1 .923-.222 1.706 1.706 0 0 1 .967.522 1.706 1.706 0 0 1-1.055.3 1.629 1.629 0 0 1-.879-.434 21 21 0 0 0-.256 1.127 1.711 1.711 0 0 1 .877-.355 1.872 1.872 0 0 1 1.144.38 1.872 1.872 0 0 1-1.083.53 1.76 1.76 0 0 1-.989-.27 20.11 20.11 0 0 0-.179 1.174 2 2 0 0 1 .957-.614 2.155 2.155 0 0 1 1.373.2 2.154 2.154 0 0 1-1.121.818 2.063 2.063 0 0 1-1.24-.14c-.05.457-.085.933-.1 1.424a2.237 2.237 0 0 1 1.089-.712 2.39 2.39 0 0 1 1.522.224 2.389 2.389 0 0 1-1.243.907 2.288 2.288 0 0 1-1.375-.155c-.01.531.005 1.078.049 1.637a2.384 2.384 0 0 1 1.007-.941 2.553 2.553 0 0 1 1.644-.047 2.552 2.552 0 0 1-1.14 1.185 2.451 2.451 0 0 1-1.486.09c.047.5.118 1 .218 1.507a2.634 2.634 0 0 1 .889-1.124 2.908 2.908 0 0 1 1.834-.378 2.908 2.908 0 0 1-1.044 1.554 2.756 2.756 0 0 1-1.583.4q.146.639.358 1.284a2.587 2.587 0 0 1 .659-1.177 2.907 2.907 0 0 1 1.74-.691 2.908 2.908 0 0 1-.758 1.712 2.742 2.742 0 0 1-1.463.662 13.771 13.771 0 0 0 .587 1.353 2.621 2.621 0 0 1 .449-1.329 2.908 2.908 0 0 1 1.594-.983 2.909 2.909 0 0 1-.45 1.818 2.768 2.768 0 0 1-1.371.921q.309.567.686 1.125a2.585 2.585 0 0 1 .444-1.274 2.908 2.908 0 0 1 1.594-.983 2.909 2.909 0 0 1-.45 1.818 2.709 2.709 0 0 1-1.273.888 14.593 14.593 0 0 0 1.065 1.285 2.584 2.584 0 0 1 .217-1.328 2.909 2.909 0 0 1 1.4-1.245 2.908 2.908 0 0 1-.127 1.868 2.714 2.714 0 0 1-1.108 1.1 16.808 16.808 0 0 0 2 1.71.288.288 0 1 1-.336.467 14.843 14.843 0 0 1-2.021-1.8 2.932 2.932 0 0 1-1.516.9 3.078 3.078 0 0 1-1.94-.4 3.078 3.078 0 0 1 1.667-1.071 2.724 2.724 0 0 1 1.4.155 16.32 16.32 0 0 1-1.076-1.363 2.971 2.971 0 0 1-1.7.66 3.077 3.077 0 0 1-1.84-.734 3.076 3.076 0 0 1 1.828-.765 2.788 2.788 0 0 1 1.451.453c-.243-.366-.48-.757-.705-1.171a2.925 2.925 0 0 1-1.637.611 3.077 3.077 0 0 1-1.841-.734 3.077 3.077 0 0 1 1.828-.765 2.764 2.764 0 0 1 1.409.427 14.749 14.749 0 0 1-.612-1.4 2.961 2.961 0 0 1-1.767.342 3.077 3.077 0 0 1-1.685-1.043 3.076 3.076 0 0 1 1.935-.449zm2.362-11.719v-.007z" transform="translate(-685.272 121.135)"/>
        </g>
        <g id="마스크_그룹_123" data-name="마스크 그룹 123" transform="translate(217 213)" style="clip-path:url(#clip-path-3)">
            <path id="패스_29731" data-name="패스 29731" class="cls-6" d="M829.688 105.663a2.8 2.8 0 0 0-1.366.713 14.492 14.492 0 0 0 .406-1.429 2.947 2.947 0 0 0 1.778.023 3.077 3.077 0 0 0 1.479-1.319 3.077 3.077 0 0 0-1.979-.094 2.753 2.753 0 0 0-1.168.871 14.591 14.591 0 0 0 .206-1.5 2.533 2.533 0 0 0 1.451-.261 2.7 2.7 0 0 0 1.077-1.366 2.7 2.7 0 0 0-1.726.221 2.287 2.287 0 0 0-.76.739q.026-.647 0-1.33a2.389 2.389 0 0 0 1.321-.478 2.528 2.528 0 0 0 .771-1.434 2.528 2.528 0 0 0-1.555.484 2.139 2.139 0 0 0-.578.8c-.029-.346-.069-.7-.123-1.057a2.162 2.162 0 0 0 1.21-.432 2.28 2.28 0 0 0 .7-1.293 2.279 2.279 0 0 0-1.4.436 2.007 2.007 0 0 0-.575.853q-.091-.523-.218-1.063a1.927 1.927 0 0 0 1.053-.571 1.98 1.98 0 0 0 .4-1.211 1.981 1.981 0 0 0-1.134.585 1.819 1.819 0 0 0-.383.943q-.141-.565-.324-1.148a1.764 1.764 0 0 0 .869-.684 1.806 1.806 0 0 0 .167-1.15 1.8 1.8 0 0 0-.925.7 1.634 1.634 0 0 0-.2.864q-.173-.526-.382-1.067a1.675 1.675 0 0 0 .724-.793.59.59 0 1 0-.774-.289 1.566 1.566 0 0 0-.029.884q-.146-.368-.309-.743a1.239 1.239 0 0 0 .529-.583.436.436 0 1 0-.573-.214l-.018.054a.914.914 0 0 0-.049-.138.436.436 0 1 0-.556.254 1.239 1.239 0 0 0 .571.546l.015.034a1.152 1.152 0 0 0-.713-.061 1.185 1.185 0 0 0-.6.474 1.185 1.185 0 0 0 .759.081 1.158 1.158 0 0 0 .575-.439c.064.154.181.446.32.855a1.545 1.545 0 0 0-.939-.073 1.6 1.6 0 0 0-.809.64 1.6 1.6 0 0 0 1.026.11 1.546 1.546 0 0 0 .759-.568c.111.33.233.728.354 1.183a1.614 1.614 0 0 0-.923-.222 1.706 1.706 0 0 0-.967.522 1.706 1.706 0 0 0 1.055.3 1.629 1.629 0 0 0 .879-.434 21 21 0 0 1 .256 1.127 1.711 1.711 0 0 0-.877-.355 1.872 1.872 0 0 0-1.144.38 1.872 1.872 0 0 0 1.083.53 1.76 1.76 0 0 0 .991-.277c.068.372.129.765.179 1.174a2 2 0 0 0-.957-.614 2.155 2.155 0 0 0-1.373.2 2.154 2.154 0 0 0 1.121.818 2.063 2.063 0 0 0 1.24-.14c.05.457.085.933.1 1.424a2.237 2.237 0 0 0-1.089-.712 2.39 2.39 0 0 0-1.522.224 2.389 2.389 0 0 0 1.243.907 2.288 2.288 0 0 0 1.375-.155c.01.531-.005 1.078-.049 1.637a2.384 2.384 0 0 0-1.007-.941 2.553 2.553 0 0 0-1.644-.047 2.552 2.552 0 0 0 1.14 1.185 2.451 2.451 0 0 0 1.486.09c-.047.5-.118 1-.218 1.507a2.634 2.634 0 0 0-.889-1.124 2.908 2.908 0 0 0-1.834-.378 2.908 2.908 0 0 0 1.044 1.554 2.756 2.756 0 0 0 1.583.4q-.146.639-.358 1.284a2.587 2.587 0 0 0-.659-1.177 2.907 2.907 0 0 0-1.74-.691 2.908 2.908 0 0 0 .758 1.712 2.742 2.742 0 0 0 1.463.662 13.771 13.771 0 0 1-.587 1.353 2.621 2.621 0 0 0-.449-1.329 2.908 2.908 0 0 0-1.594-.983 2.909 2.909 0 0 0 .45 1.818 2.768 2.768 0 0 0 1.371.921q-.309.567-.686 1.125a2.585 2.585 0 0 0-.444-1.274 2.908 2.908 0 0 0-1.594-.983 2.909 2.909 0 0 0 .45 1.818 2.709 2.709 0 0 0 1.273.888 14.593 14.593 0 0 1-1.065 1.285 2.584 2.584 0 0 0-.217-1.328 2.909 2.909 0 0 0-1.4-1.245 2.908 2.908 0 0 0 .127 1.868 2.714 2.714 0 0 0 1.108 1.1 16.808 16.808 0 0 1-2 1.71.288.288 0 1 0 .336.467 14.843 14.843 0 0 0 2.021-1.8 2.932 2.932 0 0 0 1.516.9 3.078 3.078 0 0 0 1.94-.4 3.078 3.078 0 0 0-1.667-1.071 2.724 2.724 0 0 0-1.4.155 16.32 16.32 0 0 0 1.076-1.363 2.971 2.971 0 0 0 1.7.66 3.077 3.077 0 0 0 1.84-.734 3.076 3.076 0 0 0-1.828-.765 2.788 2.788 0 0 0-1.451.453c.243-.366.48-.757.705-1.171a2.925 2.925 0 0 0 1.637.611 3.077 3.077 0 0 0 1.841-.734 3.077 3.077 0 0 0-1.828-.765 2.764 2.764 0 0 0-1.409.427 14.749 14.749 0 0 0 .612-1.4 2.961 2.961 0 0 0 1.767.342 3.077 3.077 0 0 0 1.685-1.043 3.076 3.076 0 0 0-1.937-.442zm-2.362-11.719v-.007z" transform="translate(-822.122 -91.865)"/>
        </g>
    </g>
</svg>
