<svg xmlns="http://www.w3.org/2000/svg" id="icoc_search" width="14" height="14" viewBox="0 0 14 14">
    <defs>
        <style>
            .cls-1{fill:#fff}
        </style>
    </defs>
    <path id="패스_653" d="M421.886 753.9a6.017 6.017 0 1 1 6.018-6.016 6.023 6.023 0 0 1-6.018 6.016zm0-10.682a4.666 4.666 0 1 0 4.666 4.666 4.67 4.67 0 0 0-4.666-4.665z" class="cls-1" transform="translate(-415.868 -741.867)"/>
    <path id="패스_654" d="M427.645 754.321a.674.674 0 0 1-.478-.2l-3.2-3.2a.677.677 0 1 1 .958-.957l3.2 3.2a.677.677 0 0 1-.478 1.156z" class="cls-1" transform="translate(-414.322 -740.321)"/>
</svg>
