<svg xmlns="http://www.w3.org/2000/svg" width="24" height="17" viewBox="0 0 24 17">
    <defs>
        <style>
            .cls-2,.cls-5{fill:none}.cls-2{stroke:#333;stroke-miterlimit:10}.cls-4{stroke:none}
        </style>
    </defs>
    <g id="icon_coupon" transform="translate(-551.15 -880.448)">
        <g id="그룹_2524" transform="translate(551.15 880.448)">
            <g id="그룹_2523">
                <path id="패스_4006" fill="#333" d="M572.956 897.448h-19.612a2.233 2.233 0 0 1-2.194-2.266v-3.357a.589.589 0 0 1 .3-.517 2.721 2.721 0 0 0 0-4.721.589.589 0 0 1-.3-.517v-3.357a2.233 2.233 0 0 1 2.194-2.266h19.612a2.233 2.233 0 0 1 2.194 2.266v3.357a.59.59 0 0 1-.3.517 2.72 2.72 0 0 0 0 4.721.59.59 0 0 1 .3.517v3.357a2.233 2.233 0 0 1-2.194 2.266zm-20.672-5.292v3.026a1.078 1.078 0 0 0 1.059 1.093h19.612a1.078 1.078 0 0 0 1.059-1.093v-3.026a3.921 3.921 0 0 1 0-6.416v-3.026a1.079 1.079 0 0 0-1.059-1.094h-19.611a1.079 1.079 0 0 0-1.059 1.094v3.026a3.922 3.922 0 0 1 0 6.416z" transform="translate(-551.15 -880.448)"/>
            </g>
            <g id="타원_258" class="cls-2" transform="translate(8.247 4.655)">
                <circle cx="1.487" cy="1.487" r="1.487" class="cls-4"/>
                <circle cx="1.487" cy="1.487" r=".987" class="cls-5"/>
            </g>
            <g id="타원_259" class="cls-2" transform="translate(12.778 9.37)">
                <circle cx="1.487" cy="1.487" r="1.487" class="cls-4"/>
                <circle cx="1.487" cy="1.487" r=".987" class="cls-5"/>
            </g>
            <path id="선_300" fill="none" stroke="#333" stroke-linecap="round" stroke-linejoin="round" d="M0 5.859L5.859 0" transform="translate(9.08 5.635)"/>
        </g>
    </g>
</svg>
