<svg xmlns="http://www.w3.org/2000/svg" width="16" height="16" viewBox="0 0 16 16">
    <g>
        <path fill="none" d="M0 0H16V16H0z" transform="translate(-153 -899) translate(153 899)"/>
        <path fill="#858585" stroke="#858585" stroke-width="0.5px" d="M-151.711 373.417v2.175H-154a.314.314 0 0 0-.313.316.314.314 0 0 0 .313.316h2.287v2.308a.314.314 0 0 0 .313.316.314.314 0 0 0 .313-.316v-2.308h2.287a.314.314 0 0 0 .313-.316.314.314 0 0 0-.313-.316h-2.287v-2.175a4.61 4.61 0 0 0 4.27-4.609 4.609 4.609 0 0 0-4.583-4.625 4.609 4.609 0 0 0-4.583 4.625 4.609 4.609 0 0 0 4.272 4.609zm.313-8.6a3.98 3.98 0 0 1 3.957 3.994 3.98 3.98 0 0 1-3.959 3.989 3.98 3.98 0 0 1-3.957-3.994 3.98 3.98 0 0 1 3.957-3.991z" transform="translate(-153 -899) translate(312.398 535.817)"/>
    </g>
</svg>
