<svg xmlns="http://www.w3.org/2000/svg" width="14.504" height="12.5" viewBox="0 0 14.504 12.5">
    <defs>
        <style>
            .cls-1{fill:#3d3736;stroke:#3d3736;stroke-width:.5px}
        </style>
    </defs>
    <g id="icon_download" transform="translate(-362.75 -784.168)">
        <g id="그룹_5623" transform="translate(366.301 784.418)">
            <path id="패스_16034" d="M372.391 797.955a.328.328 0 0 1-.234-.1l-3.37-3.374a.331.331 0 0 1 .469-.469l3.135 3.139 3.135-3.139a.331.331 0 0 1 .468.469l-3.37 3.374a.329.329 0 0 1-.233.1z" class="cls-1" transform="translate(-368.69 -788.346)"/>
            <path id="패스_16035" d="M374.766 793.686a.332.332 0 0 1-.331-.332v-8.6a.331.331 0 0 1 .331-.332.331.331 0 0 1 .331.332v8.6a.332.332 0 0 1-.331.332z" class="cls-1" transform="translate(-371.066 -784.418)"/>
        </g>
        <path id="패스_16036" d="M376.674 802.847H363.33a.331.331 0 0 1-.33-.331v-2.984a.33.33 0 1 1 .659 0v2.652h12.685v-2.652a.33.33 0 1 1 .659 0v2.984a.331.331 0 0 1-.329.331z" class="cls-1" transform="translate(0 -6.429)"/>
    </g>
</svg>
