<svg xmlns="http://www.w3.org/2000/svg" width="16.25" height="16.302" viewBox="0 0 16.25 16.302">
    <defs>
        <style>
            .cls-1{fill:#a16f5e;stroke:#a16f5e;stroke-width:.25px}
        </style>
    </defs>
    <g id="icon_re_ac" transform="translate(-457.875 -782.899)">
        <g id="그룹_2513" transform="translate(458 783.024)">
            <g id="그룹_2512">
                <g id="그룹_2511">
                    <path id="패스_3997" d="M458.465 799.019a.488.488 0 0 1-.091-.009.445.445 0 0 1-.118-.041.468.468 0 0 1-.12-.086.485.485 0 0 1-.085-.117.47.47 0 0 1-.043-.125.469.469 0 0 1-.008-.089v-4.941a.465.465 0 0 1 .136-.329l10.124-10.12a.465.465 0 0 1 .658 0l4.946 4.945a.465.465 0 0 1 0 .657l-10.124 10.12a.465.465 0 0 1-.329.137h-4.946zm.465-.931h4.288l9.659-9.655-4.289-4.286-9.658 9.654z" class="cls-1" transform="translate(-458 -783.024)"/>
                </g>
                <path id="패스_3998" d="M472.474 791.129a.436.436 0 0 1-.31-.128l-4.311-4.286a.433.433 0 0 1 0-.616.439.439 0 0 1 .62 0l4.311 4.286a.436.436 0 0 1-.309.744z" class="cls-1" transform="translate(-459.515 -783.463)"/>
            </g>
        </g>
        <path id="사각형_1112" d="M0 0H0.771V7.274H0z" class="cls-1" transform="rotate(-45.002 1187.161 -156.47)"/>
        <rect id="사각형_1113" width=".771" height="3.06" class="cls-1" rx=".386" transform="rotate(-45 1191.102 -154.433)"/>
    </g>
</svg>
