<svg xmlns="http://www.w3.org/2000/svg" width="16" height="16" viewBox="0 0 16 16">
    <defs>
        <style>
            .cls-4{fill:none}.cls-2,.cls-3{fill:#333}.cls-3,.cls-4{stroke:#333}.cls-3{stroke-width:.25px}
        </style>
    </defs>
    <g id="iconMore" transform="translate(-168 -433)">
        <path id="사각형_2604" fill="none" d="M0 0H16V16H0z" transform="translate(168 433)"/>
        <g id="icon_re" transform="translate(168.667 433.67)">
            <g id="그룹_2513">
                <g id="그룹_2512">
                    <g id="그룹_2511">
                        <path id="패스_3997" d="M458.426 797.691a.447.447 0 0 1-.083-.008.413.413 0 0 1-.108-.038.427.427 0 0 1-.11-.079.444.444 0 0 1-.078-.107.431.431 0 0 1-.039-.115.432.432 0 0 1-.008-.082v-4.532a.427.427 0 0 1 .125-.3l9.278-9.28a.426.426 0 0 1 .6 0l4.533 4.534a.427.427 0 0 1 0 .6l-9.278 9.28a.426.426 0 0 1-.3.125h-4.533zm.426-.853h3.93l8.852-8.853-3.93-3.93-8.851 8.853z" class="cls-2" transform="translate(-458 -783.024)"/>
                    </g>
                    <path id="패스_3998" d="M472.078 790.7a.4.4 0 0 1-.284-.117l-3.951-3.928a.4.4 0 0 1 0-.564.4.4 0 0 1 .568 0l3.951 3.928a.4.4 0 0 1-.284.681z" class="cls-2" transform="translate(-460.2 -783.671)"/>
                </g>
            </g>
            <path id="사각형_1112" d="M0 0H0.707V6.666H0z" class="cls-3" transform="translate(0.354 9.742) rotate(-45.002)"/>
            <path id="패스_16596" d="M.353 0a.353.353 0 0 1 .354.353l.028 1.9c0 .2-.186-.078-.381-.078A.353.353 0 0 1 0 1.817V.353A.353.353 0 0 1 .353 0z" class="cls-3" transform="matrix(0.707, -0.707, 0.707, 0.707, 0.037, 12.913)"/>
            <path id="패스_16593" d="M462.442 797.212l7.04-7.147" class="cls-4" transform="translate(-460.147 -786.034)"/>
            <path id="패스_16594" d="M462.442 797.212l7.04-7.147" class="cls-4" transform="translate(-458.814 -784.697)"/>
            <path id="패스_16595" fill="none" stroke="#333" stroke-linecap="round" d="M-10053.974-18258h6.218" transform="translate(10061.881 18272.205)"/>
        </g>
    </g>
</svg>
