<svg xmlns="http://www.w3.org/2000/svg" width="16" height="16" viewBox="0 0 16 16">
    <g>
        <path fill="none" d="M0 0H16V16H0z" transform="translate(-40 -558) translate(40 558)"/>
        <g>
            <path fill="none" stroke="#333" stroke-miterlimit="10" d="M653.442 879.016a5.759 5.759 0 0 0-5.645 5.866 9.8 9.8 0 0 0 5.645 8.959 9.8 9.8 0 0 0 5.645-8.959 5.759 5.759 0 0 0-5.645-5.866zm0 9.645a3.782 3.782 0 1 1 3.636-3.779 3.71 3.71 0 0 1-3.636 3.779z" transform="translate(-40 -558) translate(-605.441 -320.428) translate(0 0)"/>
        </g>
    </g>
</svg>
