<svg xmlns="http://www.w3.org/2000/svg" width="16" height="16" viewBox="0 0 16 16">
    <defs>
        <style>
            .cls-2{fill:#333;stroke:#333;stroke-width:.25px}
        </style>
    </defs>
    <g id="iconDelete" transform="translate(-212 -819)">
        <path id="사각형_2612" fill="none" d="M0 0H16V16H0z" transform="translate(212 819)"/>
        <g id="d" transform="translate(-150.796 271.49)">
            <path id="패스_16597" d="M370.8 563.3a7.8 7.8 0 1 1 7.8-7.8 7.805 7.805 0 0 1-7.8 7.8zm0-14.85a7.054 7.054 0 1 0 7.054 7.054 7.062 7.062 0 0 0-7.054-7.049z" class="cls-2"/>
            <path id="패스_16598" d="M370.294 561.232a.371.371 0 0 1-.262-.633l5.855-5.855a.371.371 0 0 1 .525.526l-5.855 5.854a.37.37 0 0 1-.263.108z" class="cls-2" transform="translate(-2.425 -2.425)"/>
            <path id="패스_16599" d="M376.149 561.232a.37.37 0 0 1-.262-.108l-5.855-5.854a.371.371 0 0 1 .525-.526l5.855 5.855a.371.371 0 0 1-.262.633z" class="cls-2" transform="translate(-2.425 -2.425)"/>
        </g>
    </g>
</svg>
