<svg xmlns="http://www.w3.org/2000/svg" width="14" height="16" viewBox="0 0 14 16">
    <defs>
        <style>
            .cls-1{fill:#3d3736}
        </style>
    </defs>
    <g id="그룹_2371" transform="translate(-552 -688.826)">
        <path id="패스_3996" d="M554.246 701.9a2.289 2.289 0 1 1 2.247-2.289 2.271 2.271 0 0 1-2.247 2.289zm0-3.841a1.552 1.552 0 1 0 1.523 1.552 1.539 1.539 0 0 0-1.523-1.556z" class="cls-1" transform="translate(0 -2.781)"/>
        <g id="그룹_2369" transform="translate(561.507 688.826)">
            <path id="패스_3997" d="M569.36 693.4a2.29 2.29 0 1 1 2.246-2.289 2.271 2.271 0 0 1-2.246 2.289zm0-3.842a1.552 1.552 0 1 0 1.523 1.552 1.539 1.539 0 0 0-1.523-1.547z" class="cls-1" transform="translate(-567.113 -688.826)"/>
            <path id="패스_3998" d="M569.36 710.387a2.289 2.289 0 1 1 2.246-2.289 2.271 2.271 0 0 1-2.246 2.289zm0-3.841a1.552 1.552 0 1 0 1.523 1.552 1.539 1.539 0 0 0-1.523-1.552z" class="cls-1" transform="translate(-567.113 -694.387)"/>
        </g>
        <g id="그룹_2370" transform="translate(555.407 691.614)">
            <path id="패스_3999" d="M557.845 697.365a.36.36 0 0 1-.311-.179.372.372 0 0 1 .124-.506l6.2-3.79a.358.358 0 0 1 .5.127.373.373 0 0 1-.124.506l-6.2 3.79a.356.356 0 0 1-.189.052z" class="cls-1" transform="translate(-557.483 -692.838)"/>
            <path id="패스_4000" d="M564.044 706.4a.354.354 0 0 1-.186-.053l-6.2-3.79a.373.373 0 0 1-.124-.506.358.358 0 0 1 .5-.127l6.2 3.79a.373.373 0 0 1 .124.506.36.36 0 0 1-.314.18z" class="cls-1" transform="translate(-557.483 -695.979)"/>
        </g>
    </g>
</svg>
