<svg xmlns="http://www.w3.org/2000/svg" width="18" height="16" viewBox="0 0 18 16">
    <defs>
        <style>
            .cls-2{fill:#333}
        </style>
    </defs>
    <g id="icon_noti" transform="translate(-363 -689.9)">
        <path id="패스_1091" fill="#fd0" d="M370.965 691.278l-7.265 12.41s-.4 1.794 1.007 2.021 14.669 0 14.669 0 1.64-.749 1.359-1.7-7.474-12.843-7.474-12.843-1.054-1.522-2.296.112z" transform="translate(-.16 -.153)"/>
        <g id="그룹_1062" transform="translate(363 689.9)">
            <path id="패스_1092" d="M379.2 705.9h-14.4a1.8 1.8 0 0 1-1.561-2.693l7.2-12.409a1.807 1.807 0 0 1 3.122 0l7.147 12.324a1.794 1.794 0 0 1-1.508 2.778zm-7.2-15.157a.959.959 0 0 0-.827.476l-7.2 12.409a.95.95 0 0 0 0 .951.96.96 0 0 0 .828.476H379.2a.954.954 0 0 0 .955-.952.939.939 0 0 0-.16-.527l-.014-.023-7.153-12.335a.959.959 0 0 0-.828-.475z" class="cls-2" transform="translate(-363 -689.9)"/>
            <g id="그룹_1061" transform="translate(8.509 4.296)">
                <path id="패스_1093" d="M374.861 702.661a.431.431 0 0 1-.426-.437v-5.736a.425.425 0 1 1 .85 0v5.736a.431.431 0 0 1-.424.437z" class="cls-2" transform="translate(-374.369 -696.052)"/>
                <path id="패스_1094" d="M375.329 706.844a.491.491 0 1 0-.49.5.5.5 0 0 0 .49-.5z" class="cls-2" transform="translate(-374.348 -698.591)"/>
            </g>
        </g>
    </g>
</svg>
