<svg xmlns="http://www.w3.org/2000/svg" width="130" height="38.02" viewBox="0 0 130 38.02">
  <g id="logo" transform="translate(-112.999 -233.98)">
    <g id="그룹_4597" data-name="그룹 4597" transform="translate(11.023 160.746)">
      <path id="패스_1058" data-name="패스 1058" d="M118.889,111.254l-3.537-2.815A19.2,19.2,0,0,1,118.4,104.5a29.184,29.184,0,0,1,5.5-4.614c.808-.621,3.178-2.021,3.852-3.443a3.718,3.718,0,0,0-.33-3.708,4.138,4.138,0,0,0-3.931-1.229c-1.851.429-2.972,2.005-4.03,4.947a14.157,14.157,0,0,1-2.618,4.934,9.03,9.03,0,0,1-4.068,2.567,8.476,8.476,0,0,1-4.156.166,8.091,8.091,0,0,1-3.673-1.842,9.1,9.1,0,0,1-2.963-6.495,8.135,8.135,0,0,1,2.715-6.164,8.432,8.432,0,0,1,4.189-2.228,7.837,7.837,0,0,1,3.764.219,9.756,9.756,0,0,1,3.511,1.93l-2.838,3.061.012.011a5.658,5.658,0,0,0-2.011-1.056,3.7,3.7,0,0,0-3.746,1.082,4.049,4.049,0,0,0-1.4,3.085,4.973,4.973,0,0,0,1.563,3.454,4.074,4.074,0,0,0,3.836.792c1.051-.31,2.684-1.4,3.833-4.595A14.5,14.5,0,0,1,118.222,90a8.534,8.534,0,0,1,4.307-2.539,8.351,8.351,0,0,1,8.035,2.529,7.2,7.2,0,0,1,1.9,5.359,7.8,7.8,0,0,1-2.849,5.275c-1.6,1.447-3.73,2.66-6.044,4.912a23.743,23.743,0,0,0-4.682,5.716" transform="translate(0)" fill="#bc8877"/>
      <g id="그룹_765" data-name="그룹 765" transform="translate(142.399 90.174)">
        <path id="패스_1059" data-name="패스 1059" d="M451.116,112.937a16.111,16.111,0,0,1-.379,3.939h1.677v-4.687h2.714v15.42h-2.714V119.3h-2.495a11.136,11.136,0,0,1-5.448,5.416l-1.617-2.186a8.775,8.775,0,0,0,4.271-3.486l-3.493.335-.419-2.4,4.83-.256a11,11,0,0,0,.2-1.418h-4.451v-2.363Zm4.93-.985h2.794v16.424h-2.794Z" transform="translate(-442.853 -111.932)" fill="#bc8877"/>
        <path id="패스_1060" data-name="패스 1060" d="M604.787,112.9a4.861,4.861,0,0,1,5.01,4.037h2.475v-4.982h2.834v16.4h-2.834v-9.1H609.8a4.813,4.813,0,0,1-5.01,3.978,5.169,5.169,0,0,1,0-10.339Zm0,7.838a2.413,2.413,0,0,0,2.315-2.678,2.34,2.34,0,1,0-2.315,2.678Z" transform="translate(-580.976 -111.932)" fill="#bc8877"/>
        <path id="패스_1061" data-name="패스 1061" d="M762.314,123.059a35.052,35.052,0,0,1-7.9.492V112.838h2.814v8.114a19.645,19.645,0,0,0,4.75-.354Zm1.158,4.569v-9.275H759.9v-2.363h3.572v-3.8h2.694v15.439Zm3.912-15.676h2.774v16.424h-2.774Z" transform="translate(-717.327 -111.932)" fill="#bc8877"/>
        <path id="패스_1062" data-name="패스 1062" d="M913.475,112.9a5.169,5.169,0,0,1,0,10.339,5.17,5.17,0,0,1,0-10.339Zm0,7.838a2.4,2.4,0,0,0,2.3-2.678,2.363,2.363,0,0,0-2.3-2.639c-1.337,0-2.275,1-2.275,2.639S912.138,120.735,913.475,120.735Zm7.285-8.783h2.854v16.4H920.76Z" transform="translate(-852.939 -111.932)" fill="#bc8877"/>
        <path id="패스_1063" data-name="패스 1063" d="M1068.5,122.571a8.653,8.653,0,0,1-4.052-3.806,9.21,9.21,0,0,1-4.031,4.239l-1.656-2.09a7.272,7.272,0,0,0,4.131-6.27v-2.228h3.034V114.6a6.443,6.443,0,0,0,4.031,5.817Zm-4.79,7.375v-6.507h2.854v4.141h8.462v2.366Zm8.123-5.127v-5.245h-3.153v-2.267h3.153v-1.2h-3.153v-2.287h3.153v-2.031h2.834v13.034Z" transform="translate(-985.45 -111.785)" fill="#bc8877"/>
      </g>
    </g>
    <path id="패스_14667" data-name="패스 14667" d="M-32.688-9.084v1.008h3.78c-.216,1.716-1.752,3.12-4.236,3.876l.516.984c3.156-.96,5.064-3,5.064-5.868Zm2.412,6.228h-1.248V.72h7.3V-.288h-6.048Zm5.616-3.888V-9.912H-25.9v7.848h1.236v-3.66h1.548v-1.02Zm9.732-.48v1.212h-2.256V-7.224ZM-18.4-5.088h-2.556V-6.672H-18.4ZM-17.184-5h2.256v1.62h1.236V-9.912h-1.236v1.68h-2.256v-1.02H-18.4v1.608h-2.556V-9.252h-1.224V-4.1h4.992ZM-17.3-.036c-1.536,0-2.412-.384-2.412-1.092S-18.84-2.22-17.3-2.22s2.424.384,2.424,1.092S-15.768-.036-17.3-.036Zm0-3.144c-2.256,0-3.648.768-3.648,2.052S-19.56.924-17.3.924s3.66-.756,3.66-2.052S-15.036-3.18-17.3-3.18Zm14-6.732H-4.536V-2.04H-3.3ZM-10.812-6.48A1.581,1.581,0,0,1-9.144-8.124,1.588,1.588,0,0,1-7.476-6.48,1.594,1.594,0,0,1-9.144-4.836,1.588,1.588,0,0,1-10.812-6.48Zm4.536,0A2.711,2.711,0,0,0-9.144-9.192a2.721,2.721,0,0,0-2.88,2.712,2.728,2.728,0,0,0,2.88,2.712A2.718,2.718,0,0,0-6.276-6.48ZM-9.132-.288V-2.832H-10.38V.72h7.392V-.288ZM10.116-4.62H8.6A19.04,19.04,0,0,0,8.88-8.3v-.948H1.488v1h6.18A16.488,16.488,0,0,1,7.356-4.62H.312V-3.6H4.548V.924H5.8V-3.6h4.32ZM17.16-9H14.58v-1.02H13.344V-9h-2.58v.936h6.4ZM12.516-5.9c0-.564.564-.888,1.44-.888s1.452.324,1.452.888-.564.876-1.452.876S12.516-5.352,12.516-5.9Zm4.068,0c0-1.1-1.032-1.788-2.628-1.788s-2.628.684-2.628,1.788S12.372-4.14,13.956-4.14,16.584-4.812,16.584-5.9ZM13.452-.948h5.76V-3.5h-7v.912h5.772v.78H12.24V.828h7.332V-.1h-6.12Zm5.76-6.516V-9.936H17.976V-4h1.236V-6.444h1.536v-1.02ZM30.48-5.832h1.008v3.96H32.64v-8.04H31.488v3.084H30.48v-2.88H29.34V-2.2h1.14Zm-1.656.888a9.288,9.288,0,0,1-1.38.18V-7.908H28.68v-.984H26.328v5.148h.456a9.786,9.786,0,0,0,2.136-.192Zm-2.916,0a7.234,7.234,0,0,1-1.224.168V-7.908h1.14v-.984H23.556v5.148H24a8.935,8.935,0,0,0,2-.192ZM26.46-.288V-2.76H25.224V.72h7.7V-.288Z" transform="translate(187 244)" fill="#a16f5e"/>
  </g>
</svg>
