<svg xmlns="http://www.w3.org/2000/svg" width="206" height="38" viewBox="0 0 206 38">
    <defs>
        <clipPath id="clip-path">
            <path id="사각형_3151" data-name="사각형 3151" transform="translate(79 133)" style="fill:#fff;stroke:#707070" d="M0 0h206v38H0z"/>
        </clipPath>
        <style>
            .cls-3{fill:#003288}
        </style>
    </defs>
    <g id="logo_samsung" transform="translate(-79 -133)" style="clip-path:url(#clip-path)">
        <g id="그룹_8130" data-name="그룹 8130" transform="translate(-430.259 -166.776)">
            <path id="패스_21700" data-name="패스 21700" class="cls-3" d="M616.894 309.626c-1.424-8.22-26.113-10.782-55.141-5.727a156.325 156.325 0 0 0-31.761 8.772 4.183 4.183 0 0 1 2.885.927 2.592 2.592 0 0 1 .7 1.9v.813h-2.851v-.718a.907.907 0 0 0-1-.973.886.886 0 0 0-.972.714 1.445 1.445 0 0 0 .017.577c.3 1.244 4.527 2.014 4.985 4.311a5.279 5.279 0 0 1 .011 1.832c-.262 1.854-1.887 2.575-3.961 2.575-2.894 0-4.066-1.375-4.066-3.261l.006-.9h3.042l.011 1.113a.957.957 0 0 0 1.07.976.94.94 0 0 0 1.048-.72 1.386 1.386 0 0 0-.021-.8c-.566-1.417-4.508-2.074-5-4.364a3.807 3.807 0 0 1-.029-1.51 3.125 3.125 0 0 1 .253-.79c-9.506 4.447-15.066 9.335-14.331 13.564 1.428 8.215 26.118 10.776 55.136 5.723a153.758 153.758 0 0 0 32.963-9.272c-.129.007-.254.021-.385.021-1.985 0-3.756-.742-3.943-2.772-.026-.376-.038-.53-.038-.741v-4.667c0-.2.027-.551.049-.735.236-1.96 1.789-2.771 3.942-2.771 1.66 0 3.7.475 3.918 2.773a6.275 6.275 0 0 1 .034.7v.442H600.6v-.663a3.668 3.668 0 0 0-.036-.412 1.125 1.125 0 0 0-2.14 0 2.47 2.47 0 0 0-.049.516v5.074a2.127 2.127 0 0 0 .032.417 1.162 1.162 0 0 0 2.193 0 2.261 2.261 0 0 0 .023-.417v-1.57h-1.133v-1.692h4v3.006a6.011 6.011 0 0 1-.042.741 2.7 2.7 0 0 1-.48 1.363c9.265-4.4 14.656-9.209 13.928-13.367m-75.252 14.559-1.456-9.891h-.053l-1.493 9.891h-3.071l2.065-11.17h5.009l2.043 11.17zm14.76 0-.072-9.7h-.042l-1.808 9.7H551.6l-1.8-9.7h-.051l-.066 9.7h-2.85l.245-11.17h4.595l1.334 8.3h.066l1.337-8.3H559l.245 11.17zm13.435-2.165c-.3 2.165-2.426 2.541-3.925 2.541-2.482 0-4.022-1.065-4.022-3.227v-.883h3.008v1.1a.95.95 0 0 0 1.073.965.929.929 0 0 0 1.038-.716 1.442 1.442 0 0 0-.019-.794c-.555-1.389-4.474-2.066-4.949-4.323a3.679 3.679 0 0 1-.024-1.492c.33-2.045 2.286-2.47 3.868-2.47a4.207 4.207 0 0 1 3.057.928 2.523 2.523 0 0 1 .691 1.873v.807h-2.82v-.708a.9.9 0 0 0-.987-.963.871.871 0 0 0-.961.711 1.2 1.2 0 0 0 .01.56c.3 1.24 4.487 2 4.946 4.275a5.283 5.283 0 0 1 .01 1.811M580.281 321c0 .211-.019.629-.032.74-.172 1.837-1.487 2.771-3.9 2.771-2.429 0-3.743-.934-3.914-2.771a8.083 8.083 0 0 1-.032-.737v-7.994h2.885v8.247a1.918 1.918 0 0 0 .029.412.955.955 0 0 0 1.031.788.974.974 0 0 0 1.031-.784 3.5 3.5 0 0 0 .026-.417v-8.247h2.873zm12.421 3.069h-4.012l-2.69-8.841h-.046l.146 8.845h-2.8v-11.058h4.187l2.484 8.5h.059l-.146-8.5h2.816z"/>
            <path id="패스_21701" data-name="패스 21701" class="cls-3" d="M627.761 313.061s2.2 4.163 4.394 4.865l1.623-1.626a10.763 10.763 0 0 1-4.517-9.323h-3.006s.689 6.2-4.634 9.2l1.618 1.859a11.65 11.65 0 0 0 4.522-4.979m19.452 0s2.2 4.163 4.4 4.865l1.618-1.626a10.757 10.757 0 0 1-4.51-9.323H645.7s.7 6.2-4.626 9.2l1.615 1.859a11.616 11.616 0 0 0 4.52-4.979m-8.224 0h2.43v-2.668h-2.43v-3.877h-2.9v11.752h2.9zm-13.78 16.323h13.9v-9.956h-13.9zm2.892-7.408h8v4.745h-8zm27.8-3.473h3.125v-11.921H655.9v3.819h-3.6v2.668h3.6zm-4.284 0c-4.221 0-7.647 2.594-7.647 5.788s3.426 5.788 7.647 5.788 7.64-2.588 7.64-5.788-3.419-5.788-7.64-5.788m0 9.035c-2.622 0-4.75-1.451-4.75-3.246s2.127-3.243 4.75-3.243 4.746 1.453 4.746 3.243-2.126 3.246-4.746 3.246m21.534-19.113h-4.166V306.4h-3.008v1.914h-4.518v2.431h11.692zm7.181 6.873h-2.776v-8.724h-2.778v22.81h2.778v-11.764h2.776zm6.718-5.107h3.475v-2.573h-9.263v2.573h3.242s.692 10.629-4.629 14.219l1.849 1.968a10.43 10.43 0 0 0 3.938-5.446s2.087 4.291 3.821 5.446l1.967-1.968s-4.716-2.911-4.4-14.219m9.035-3.617v8.147h-1.392v-8.147h-2.779v22.81h2.778v-12.341h1.392v12.349h2.9v-22.81zm-27.214 14.964c2.552-.522 4.449-2.459 4.449-4.774 0-2.71-2.605-4.913-5.824-4.913s-5.82 2.2-5.82 4.913a5.13 5.13 0 0 0 4.3 4.74v1.873h-4.637v2.423h12.278v-2.312h-4.747zm-4.476-4.774a3.138 3.138 0 1 1 3.1 2.647 2.9 2.9 0 0 1-3.1-2.647" transform="translate(14.198 .658)"/>
        </g>
    </g>
</svg>
