<svg xmlns="http://www.w3.org/2000/svg" width="119.082" height="131" viewBox="0 0 119.082 131">
    <defs>
        <style>
            .cls-1{fill:#fff;stroke:#686868}.cls-3{fill:#c2c4c6}
        </style>
    </defs>
    <g id="icon_signup" transform="translate(160.703 -202.472)">
        <g id="그룹_3271" transform="translate(-160.121 202.972)">
            <g id="그룹_3263">
                <g id="그룹_3262">
                    <path id="패스_13131" d="M-44.628 321.5l-19.73-105.58a11.043 11.043 0 0 1-5.881-1.017 38.232 38.232 0 0 1-10.823-7.853c-.362-.368-.706-.749-1.042-1.138a16.3 16.3 0 0 1-3.573-2.892l-74.443 14.691 20.213 108.161z" class="cls-1" transform="translate(160.121 -202.958)"/>
                    <path id="패스_13155" fill="#9e9e9e" stroke="#686868" stroke-linecap="round" stroke-linejoin="round" d="M-81.7 215.394l-17.6 4.871-3.37-17.293z" transform="translate(177.511 -202.972)"/>
                </g>
            </g>
            <g id="그룹_3268" transform="translate(7.675 7.552)">
                <g id="그룹_3267">
                    <path id="패스_13156" d="M-144.938 208.814l-9.246 96.129a12.61 12.61 0 0 1 5.577 2.458 37.379 37.379 0 0 1 8.627 9.669c.259.415.5.834.726 1.259a15.654 15.654 0 0 1 2.767 3.45l78.139 7.4 10.692-111.149z" class="cls-1" transform="translate(154.184 -208.814)"/>
                    <g id="그룹_3266" transform="translate(67.135 25.555)">
                        <g id="그룹_3264" transform="translate(.74)">
                            <path id="사각형_1476" d="M0 0H1.244V20.02H0z" class="cls-3" transform="rotate(-84.55 1.668 -.466)"/>
                            <path id="사각형_1477" d="M0 0H1.244V20.02H0z" class="cls-3" transform="rotate(-84.55 3.744 1.818)"/>
                            <path id="사각형_1478" d="M0 0H1.244V20.02H0z" class="cls-3" transform="rotate(-84.55 5.82 4.102)"/>
                            <path id="사각형_1479" d="M0 0H1.244V20.02H0z" class="cls-3" transform="rotate(-84.55 7.897 6.386)"/>
                            <path id="사각형_1480" d="M0 0H1.244V20.02H0z" class="cls-3" transform="rotate(-84.55 9.973 8.67)"/>
                            <path id="사각형_1481" d="M0 0H1.244V20.02H0z" class="cls-3" transform="matrix(.095 -.995 .995 .095 0 21.897)"/>
                        </g>
                        <g id="그룹_3265" transform="translate(0 24.424)">
                            <path id="사각형_1482" d="M0 0H1.244V20.02H0z" class="cls-3" transform="rotate(-84.55 .878 .402)"/>
                            <path id="사각형_1483" d="M0 0H1.244V20.02H0z" class="cls-3" transform="matrix(.095 -.995 .995 .095 0 5.37)"/>
                        </g>
                    </g>
                </g>
            </g>
            <g id="그룹_3270" transform="translate(.578 63.59)">
                <g id="그룹_3269">
                    <path id="패스_13157" fill="#ffefe9" stroke="#686868" d="M-50.25 258.2l-44.956-.259-4.878-4.269a4.883 4.883 0 0 0-3.236-1.132l-51.881-.3c-2.276-.013-4.132 1.279-4.142 2.885l-.047 8.115-.1 17.1-.186 32.016c-.018 3.128 3.568 5.688 8 5.713l101.074.58c4.433.025 8.046-2.494 8.065-5.622l.285-49.117c.018-3.127-3.565-5.685-7.998-5.71z" transform="translate(159.674 -252.243)"/>
                </g>
            </g>
        </g>
        <g id="그룹_3272" transform="translate(-133.27 224.705)">
            <path id="패스_13158" fill="#fd0" stroke="#686868" d="M-134.807 245.954a45.977 45.977 0 0 0 5.383-.238 1.405 1.405 0 0 1-.041-.2 25.185 25.185 0 0 1 3.88-1.8l.014.061a18.021 18.021 0 0 0 .151-2.654 6.39 6.39 0 0 1-2.08-4.2c-.507-.085-.853-.818-.776-1.682a1.992 1.992 0 0 1 .579-1.319 4.876 4.876 0 0 1-.106-2.342 5.971 5.971 0 0 1 4.646-5.189 4.785 4.785 0 0 1 1.555-.063 5.372 5.372 0 0 1 4 2.366c4.787.582 2.7 5.13 2.116 6.245a1.878 1.878 0 0 1 .414 1.48c-.072.812-.493 1.444-.971 1.509a6.349 6.349 0 0 1-2.794 3.776 18.586 18.586 0 0 0-.317 2.564l.022.035a15.911 15.911 0 0 1 2.724 2l-.005.012c.336.249.561.419.561.419a1.471 1.471 0 0 1-.061.147l1.074.323a36.961 36.961 0 0 0 4.385.924c.406.036.714.958.936 2.243a17.668 17.668 0 0 0 5.41-11.242 17.746 17.746 0 0 0-16.1-19.253 17.747 17.747 0 0 0-19.253 16.1 17.669 17.669 0 0 0 3.334 12.02c.446-1.226.913-2.078 1.32-2.042z" transform="translate(139.532 -219.802)"/>
            <path id="패스_13159" d="M-110.289 248.9c-.222-1.285-.53-2.207-.936-2.243a36.954 36.954 0 0 1-4.385-.924l-1.074-.323a1.471 1.471 0 0 0 .061-.147l-.561-.419.005-.012a15.911 15.911 0 0 0-2.724-2l-.022-.035a18.586 18.586 0 0 1 .317-2.564 6.349 6.349 0 0 0 2.794-3.776c.478-.065.9-.7.971-1.509a1.878 1.878 0 0 0-.414-1.48c.587-1.116 2.671-5.663-2.116-6.245a5.372 5.372 0 0 0-4-2.366 4.785 4.785 0 0 0-1.555.063 5.971 5.971 0 0 0-4.646 5.189 4.876 4.876 0 0 0 .106 2.342 1.992 1.992 0 0 0-.579 1.319c-.078.864.269 1.6.776 1.682a6.39 6.39 0 0 0 2.08 4.2 18.025 18.025 0 0 1-.151 2.654l-.014-.061a25.184 25.184 0 0 0-3.88 1.8 1.405 1.405 0 0 0 .041.2 45.97 45.97 0 0 1-5.383.238c-.407-.036-.874.816-1.32 2.04a17.707 17.707 0 0 0 12.766 7.233 17.7 17.7 0 0 0 13.843-4.856z" class="cls-1" transform="translate(140.303 -218.333)"/>
        </g>
        <g id="타원_383" class="cls-1" transform="translate(-116.121 287.972)">
            <circle cx="15" cy="15" r="15"/>
            <circle cx="15" cy="15" r="14.5" fill="none"/>
        </g>
        <path id="패스_13160" fill="#a16f5e" stroke="#686868" d="M562.471 566.43a.7.7 0 0 1-.494-.2l-5.352-5.352a.7.7 0 0 1 .986-.986l4.859 4.859 9-9a.7.7 0 0 1 .986.985l-9.489 9.489a.7.7 0 0 1-.496.205z" transform="translate(-665.66 -257.772)"/>
    </g>
</svg>
