<svg xmlns="http://www.w3.org/2000/svg" width="14" height="16" viewBox="0 0 14 16">
    <defs>
        <style>
            .cls-2{fill:#3d3736}
        </style>
    </defs>
    <g id="그룹_4382" transform="translate(-412 -641.837)">
        <path id="패스_7556" fill="#fd0" d="M412.359 644.415v13.141h11.3v-13.219z"/>
        <g id="그룹_4381" transform="translate(414.694 647.696)">
            <path id="패스_7551" d="M421.755 651.379h-5.712a.377.377 0 0 1 0-.753h5.712a.377.377 0 0 1 0 .753z" class="cls-2" transform="translate(-415.685 -650.626)"/>
            <path id="패스_7552" d="M421.755 655.6h-5.712a.377.377 0 0 1 0-.753h5.712a.377.377 0 0 1 0 .753z" class="cls-2" transform="translate(-415.685 -652.032)"/>
            <path id="패스_7553" d="M421.755 659.814h-5.712a.377.377 0 0 1 0-.753h5.712a.377.377 0 0 1 0 .753z" class="cls-2" transform="translate(-415.685 -653.438)"/>
        </g>
        <path id="패스_7554" d="M423.629 658.884h-11.25a.378.378 0 0 1-.379-.377v-13.151a.378.378 0 0 1 .379-.377h11.25a.378.378 0 0 1 .379.377v13.152a.378.378 0 0 1-.379.376zm-10.871-.753h10.492v-12.4h-10.492z" class="cls-2" transform="translate(0 -1.047)"/>
        <path id="패스_7555" d="M426.617 655.742h-2.109c-.21 0 0-.168 0-.376s-.21-.377 0-.377h1.73v-12.4h-10.492v.671a.379.379 0 0 1-.758 0v-1.047a.378.378 0 0 1 .379-.377h11.25a.378.378 0 0 1 .379.377v13.152a.377.377 0 0 1-.379.377z" class="cls-2" transform="translate(-.996)"/>
    </g>
</svg>
