<svg xmlns="http://www.w3.org/2000/svg" width="14" height="18" viewBox="0 0 14 18">
    <g fill="#fd0">
        <path d="M14.337 13.5H3.663c-.557 0-1.05-.292-1.316-.781-.267-.49-.247-1.061.055-1.53l5.336-8.302C8.02 2.45 8.48 2.2 9 2.2s.98.25 1.262.688l5.336 8.302c.302.469.322 1.04.055 1.53-.267.489-.759.781-1.316.781z" transform="rotate(90 7 7)"/>
        <path fill="#333" d="M9 2.699c-.347 0-.654.167-.841.459l-5.337 8.301c-.29.45-.122.864-.036 1.02.085.157.342.521.877.521h10.674c.535 0 .792-.364.877-.52.086-.157.253-.57-.036-1.02L9.84 3.157c-.187-.292-.494-.46-.841-.46m0-1c.644 0 1.289.307 1.682.919l5.337 8.301c.856 1.332-.1 3.082-1.682 3.082H3.663c-1.582 0-2.538-1.75-1.682-3.082l5.337-8.301C7.71 2.005 8.356 1.699 9 1.699z" transform="rotate(90 7 7)"/>
    </g>
</svg>
