<svg xmlns="http://www.w3.org/2000/svg" width="20" height="16" viewBox="0 0 20 16">
    <path fill="#bc8877" d="M34.438 35.945l-2.319-1.877a12.784 12.784 0 0 1 2-2.623 19.211 19.211 0 0 1 3.6-3.076c.53-.414 2.083-1.348 2.525-2.3a2.514 2.514 0 0 0-.216-2.472 2.685 2.685 0 0 0-2.577-.819c-1.214.286-1.949 1.337-2.642 3.3a9.491 9.491 0 0 1-1.716 3.289 5.909 5.909 0 0 1-2.667 1.711 5.47 5.47 0 0 1-2.725.111 5.271 5.271 0 0 1-2.408-1.228 6.108 6.108 0 0 1-1.943-4.33 5.82 5.82 0 0 1 4.526-5.595 5.057 5.057 0 0 1 2.468.146 6.371 6.371 0 0 1 2.3 1.287l-1.861 2.04.008.008a3.692 3.692 0 0 0-1.318-.7 2.4 2.4 0 0 0-2.456.722 2.719 2.719 0 0 0-.919 2.057 3.339 3.339 0 0 0 1.025 2.3 2.638 2.638 0 0 0 2.515.528c.689-.207 1.76-.934 2.513-3.063A9.722 9.722 0 0 1 34 21.777a5.576 5.576 0 0 1 2.824-1.693 5.419 5.419 0 0 1 5.268 1.686 4.849 4.849 0 0 1 1.246 3.573 5.227 5.227 0 0 1-1.868 3.517c-1.046.965-2.445 1.773-3.963 3.274a15.782 15.782 0 0 0-3.069 3.811" transform="translate(-23.349 -19.945)"/>
</svg>
