<svg xmlns="http://www.w3.org/2000/svg" width="13.003" height="14.997" viewBox="0 0 13.003 14.997">
    <path fill="#333" d="M3339.527 1568.312l-2.629-1.335a.567.567 0 0 1-.307-.507v-.884q.08-.1.166-.226a6.532 6.532 0 0 0 .79-1.538.206.206 0 0 1 .088-.1 1.279 1.279 0 0 0 .607-1.1v-1.12a1.288 1.288 0 0 0-.235-.741.2.2 0 0 1-.041-.111v-.65a2.691 2.691 0 0 0-.617-1.958 4.42 4.42 0 0 0-5.713 0 2.643 2.643 0 0 0-.606 1.418v.061l-.008 1.187a1.3 1.3 0 0 0-.276.8v1.12a1.28 1.28 0 0 0 .032.284.573.573 0 0 0 .029.092l.017.051.031.093v.138h.069a1.3 1.3 0 0 0 .252.309l.045.162.023.072.011.038c.01.033.021.067.031.092l.056.163.026.064c.023.062.047.121.074.183l.053.121c.028.062.055.122.083.179l.067.133.093.174.042.075c.041.069.079.133.114.189l.027.043c.068.109.128.2.191.283l.008.67a.92.92 0 0 1-.47.805l-2.274 1.261a2.7 2.7 0 0 0-1.384 2.369v.795a.524.524 0 0 0 .519.527h11.965a.524.524 0 0 0 .519-.527v-.74a2.688 2.688 0 0 0-1.468-2.414zm-7.239-4.244l-.019-.043-.037-.089-.017-.043c-.014-.034-.028-.069-.042-.111-.027-.074-.053-.15-.078-.228l-.02-.068c-.024-.084-.048-.168-.068-.259l-.042-.179-.152-.1a.386.386 0 0 1-.176-.322v-1.12a.382.382 0 0 1 .127-.282l.148-.136v-1.218l-.008-.089a1.78 1.78 0 0 1 .405-1.137 3.608 3.608 0 0 1 4.363-.005 1.821 1.821 0 0 1 .4 1.294v1.155l.148.14a.373.373 0 0 1 .126.28v1.12a.381.381 0 0 1-.269.364l-.223.069-.072.225a5.742 5.742 0 0 1-.756 1.55c-.078.112-.153.212-.219.287l-.111.129v1a1.822 1.822 0 0 0 .994 1.635l2.241 1.138a2.135 2.135 0 0 1 1.166 1.917.177.177 0 0 1-.175.178h-10.863a.177.177 0 0 1-.175-.178v-.064a2.144 2.144 0 0 1 1.1-1.879l2.095-1.162a1.831 1.831 0 0 0 .935-1.6v-.979l-.151-.187-.022-.03-.014-.019-.01-.014-.051-.074-.085-.129-.032-.053-.059-.1-.011-.019c-.055-.093-.113-.2-.17-.311l-.018-.037c-.034-.069-.068-.141-.1-.219zm-.232-.11zm-.442.376zm.447.846z" transform="translate(-3327.991 -1556.996)"/>
</svg>
