<svg xmlns="http://www.w3.org/2000/svg" xmlns:xlink="http://www.w3.org/1999/xlink" width="162" height="34" viewBox="0 0 162 34">
    <defs>
        <linearGradient id="linear-gradient" x1=".006" y1=".531" x2="1.004" y2=".484" gradientUnits="objectBoundingBox">
            <stop offset="0" stop-color="#ffbc00"/>
            <stop offset=".467" stop-color="#fff364"/>
            <stop offset=".736" stop-color="#ffc535"/>
            <stop offset=".768" stop-color="#e6b230"/>
            <stop offset=".846" stop-color="#b08726"/>
            <stop offset=".914" stop-color="#88681f"/>
            <stop offset=".967" stop-color="#6f551b"/>
            <stop offset="1" stop-color="#674f1a"/>
        </linearGradient>
        <linearGradient id="linear-gradient-4" x1=".651" y1=".186" x2=".393" y2="1.153" gradientUnits="objectBoundingBox">
            <stop offset="0" stop-color="#c2c1c1"/>
            <stop offset=".166" stop-color="#d5d5d5"/>
            <stop offset=".419" stop-color="#c7c7c7"/>
            <stop offset=".495" stop-color="#b9b9b9"/>
            <stop offset=".561" stop-color="#d6d6d6"/>
            <stop offset=".61" stop-color="#bbb"/>
            <stop offset=".885" stop-color="#d8d8d8"/>
            <stop offset="1" stop-color="#e3e3e3"/>
        </linearGradient>
        <linearGradient id="linear-gradient-5" x1=".349" y1=".186" x2=".607" y2="1.153" xlink:href="#linear-gradient-4"/>
        <radialGradient id="radial-gradient" cx=".5" cy=".5" r=".772" gradientUnits="objectBoundingBox">
            <stop offset="0" stop-color="#d6d6d6"/>
            <stop offset="1" stop-color="#b8b8b8"/>
        </radialGradient>
        <radialGradient id="radial-gradient-3" cx=".5" cy=".5" r=".5" gradientUnits="objectBoundingBox">
            <stop offset="0" stop-color="#f3e0b2"/>
            <stop offset="1" stop-color="#e5a517"/>
        </radialGradient>
        <style>
            .cls-1{fill:url(#radial-gradient)}.cls-2{fill:url(#linear-gradient)}
        </style>
    </defs>
    <g id="imgMain_1st_m" transform="translate(-311.443 -168.333)">
        <path id="패스_15820" data-name="패스 15820" class="cls-1" d="M6.987-11.7H2.88v-13.985h5.587v1.979H5.108v10.028h2.328a4.041 4.041 0 0 0 2.428-.532v-11.658h2.212v5.77h1.181v-5.854h2.212v15.266h-2.212V-18.1h-1.181v7.234H9.864v-1.48a4.808 4.808 0 0 1-2.877.646zm13.6-14.7h2.278v1.53h3.143v1.879h-8.7v-1.879h3.282zm-2.827 7.267a2.907 2.907 0 0 1 .948-2.212 4.339 4.339 0 0 1 2.977-1 4.414 4.414 0 0 1 2.993 1 2.967 2.967 0 0 1 .948 2.212 2.957 2.957 0 0 1-.948 2.2 4.333 4.333 0 0 1-2.993 1 4.26 4.26 0 0 1-2.977-1 2.9 2.9 0 0 1-.945-2.2zm2.2 0a1.166 1.166 0 0 0 .349.865 1.944 1.944 0 0 0 1.38.5 1.958 1.958 0 0 0 1.4-.5 1.166 1.166 0 0 0 .349-.865 1.177 1.177 0 0 0-.349-.881 1.958 1.958 0 0 0-1.4-.5 1.944 1.944 0 0 0-1.38.5 1.177 1.177 0 0 0-.351.881zM30-21.794h2.112v2H30v5.005h-2.276v-11.162H30zm-9.08 9.2h9.346v1.979H18.645v-4.689h2.278zm12.226-13.174h7.6v8.431h-7.6zm2.228 1.946v4.54h3.143v-4.54zm7.882 8.581v-10.71h2.278v10.709zm-9.229 4.623v-5.4h2.278v3.418h9.5v1.979zm24.262-13.188h-9.628v-1.962h11.907v2.827a8.518 8.518 0 0 1-.266 2.378h-2.229a9.7 9.7 0 0 0 .216-2.295zM47.8-19.815h13.732v1.979h-5.754v2.045h4.789v5.355h-2.278v-3.392h-9.628v-1.962h4.872v-2.045H47.8z" transform="translate(322.642 207.348)"/>
        <path id="패스_15819" data-name="패스 15819" class="cls-1" d="M7.408-23.512H2.269v-1.962h7.417v1.314c0 4.939-2.627 7.367-7.766 7.932v-1.979c3.725-.499 5.488-2.361 5.488-5.305zm7.034 1.846h2.112v1.979h-2.112v4.739h-2.278v-10.709h2.278zM5.362-12.3h9.346v1.979H3.084v-5.4h2.278zm17.511-10.9v-2.278h2.212v1.447H27.7v-1.63h2.278v9.08H27.7v-2.129h-2.615v1.3h-7.5v-8.065h2.228v2.275zm2.212 1.1v1.48H27.7v-1.48zm-2.212.831h-3.06v1.929h3.06zM18.3-13.285a2.608 2.608 0 0 1 1.447-2.378 9.826 9.826 0 0 1 4.556-.865 9.782 9.782 0 0 1 4.556.865 2.594 2.594 0 0 1 1.463 2.378 2.587 2.587 0 0 1-1.463 2.361 9.782 9.782 0 0 1-4.556.865 9.826 9.826 0 0 1-4.556-.865 2.6 2.6 0 0 1-1.447-2.361zm2.278 0a.855.855 0 0 0 .482.765 7.1 7.1 0 0 0 3.243.532 7.129 7.129 0 0 0 3.259-.532.887.887 0 0 0 .482-.765.85.85 0 0 0-.482-.765 6.873 6.873 0 0 0-3.262-.55 6.84 6.84 0 0 0-3.243.549.821.821 0 0 0-.479.766zm11.873-8.348a4.2 4.2 0 0 1 1.3-3.509 3.162 3.162 0 0 1 2-.6 3.162 3.162 0 0 1 2 .6 4.2 4.2 0 0 1 1.3 3.509 4.246 4.246 0 0 1-1.3 3.509 3.266 3.266 0 0 1-2 .6 3.266 3.266 0 0 1-2-.6 4.246 4.246 0 0 1-1.299-3.509zm2.1 0a2.744 2.744 0 0 0 .5 1.929.94.94 0 0 0 .7.266.94.94 0 0 0 .7-.266 2.754 2.754 0 0 0 .482-1.929 2.8 2.8 0 0 0-.482-1.946.94.94 0 0 0-.7-.266.94.94 0 0 0-.7.266 2.794 2.794 0 0 0-.504 1.946zm8.581-4.024h2.178v8.248h-2.182v-3.06h-1.181v2.977H39.8v-8.082h2.145v3.126h1.181zm-.1 8.8h2.278v6.635H33.7v-6.638h2.278v1.547h7.051zm-7.051 3.476v1.214h7.051v-1.214z" transform="translate(413.671 206.832)"/>
        <g id="그룹_7410" data-name="그룹 7410" transform="translate(383.929 168.333)">
            <path id="패스_15801" data-name="패스 15801" class="cls-2" d="m146.724 56.329 1.033 3.179h3.343l-2.7 1.965 1.033 3.179-2.7-1.965-2.7 1.965 1.033-3.179-2.7-1.965h3.343z" transform="translate(-130.891 -56.329)"/>
            <path id="패스_15802" data-name="패스 15802" class="cls-2" d="m180.388 61.451 1.033 3.179h3.343l-2.7 1.965 1.033 3.179-2.7-1.965-2.7 1.965 1.033-3.179-2.7-1.965h3.343z" transform="translate(-152.842 -59.642)"/>
            <path id="패스_15803" data-name="패스 15803" class="cls-2" d="m113.792 61.451 1.033 3.179h3.343l-2.7 1.965 1.033 3.179-2.7-1.965-2.7 1.965 1.019-3.174-2.7-1.965h3.343z" transform="translate(-109.416 -59.642)"/>
        </g>
        <path id="패스_15822" data-name="패스 15822" d="M9.055-11.225v-13.154H7.043l-3.293 1.5v2.2L6.693-22v10.776zm6.519-12.123v1.729H25.2v1.879H13.3v-5.52h11.8v1.912zm-3.243 4.706h13.736v1.929H12.331zm.7 5.87a2.374 2.374 0 0 1 1.314-2.212 10.681 10.681 0 0 1 4.872-.815 10.681 10.681 0 0 1 4.872.815 2.347 2.347 0 0 1 1.311 2.213 2.306 2.306 0 0 1-1.314 2.2 10.436 10.436 0 0 1-4.872.831 10.436 10.436 0 0 1-4.872-.831 2.333 2.333 0 0 1-1.313-2.2zm2.278 0a.73.73 0 0 0 .449.682 8.469 8.469 0 0 0 3.459.416 8.469 8.469 0 0 0 3.459-.416.73.73 0 0 0 .449-.682.769.769 0 0 0-.449-.7 8.776 8.776 0 0 0-3.459-.416 8.776 8.776 0 0 0-3.459.416.769.769 0 0 0-.451.701z" transform="translate(384.941 206.215)" style="fill:url(#radial-gradient-3)"/>
        <path id="패스_15824" data-name="패스 15824" d="M831.684 109.236a3.568 3.568 0 0 0-1.741.908 18.425 18.425 0 0 0 .517-1.82 3.756 3.756 0 0 0 2.266.03 3.921 3.921 0 0 0 1.884-1.681 3.922 3.922 0 0 0-2.523-.119 3.509 3.509 0 0 0-1.489 1.11 18.637 18.637 0 0 0 .262-1.907 3.229 3.229 0 0 0 1.849-.332 3.442 3.442 0 0 0 1.372-1.741 3.443 3.443 0 0 0-2.2.281 2.92 2.92 0 0 0-.969.942q.034-.825 0-1.695a3.046 3.046 0 0 0 1.684-.609 3.223 3.223 0 0 0 .982-1.828 3.221 3.221 0 0 0-1.981.617 2.726 2.726 0 0 0-.737 1.018q-.056-.662-.156-1.348a2.755 2.755 0 0 0 1.542-.551 2.9 2.9 0 0 0 .886-1.648 2.9 2.9 0 0 0-1.786.556 2.557 2.557 0 0 0-.732 1.087q-.116-.666-.278-1.355a2.456 2.456 0 0 0 1.343-.728 2.523 2.523 0 0 0 .509-1.544 2.525 2.525 0 0 0-1.445.745 2.318 2.318 0 0 0-.488 1.2q-.18-.72-.414-1.463a2.249 2.249 0 0 0 1.107-.872 2.3 2.3 0 0 0 .213-1.466 2.3 2.3 0 0 0-1.179.9 2.081 2.081 0 0 0-.249 1.1q-.221-.67-.487-1.36a2.136 2.136 0 0 0 .922-1.011 2.162 2.162 0 0 0-.042-1.391 2.161 2.161 0 0 0-.944 1.022 2 2 0 0 0-.036 1.126 31.769 31.769 0 0 0-.393-.946 1.578 1.578 0 0 0 .674-.743.556.556 0 1 0-.729-.273.612.612 0 0 0-.022.069 1.168 1.168 0 0 0-.063-.176 1.6 1.6 0 0 0-.749-.705 1.6 1.6 0 0 0 .041 1.028 1.579 1.579 0 0 0 .728.7l.018.043a1.467 1.467 0 0 0-.908-.078 1.51 1.51 0 0 0-.763.6 1.511 1.511 0 0 0 .967.1 1.475 1.475 0 0 0 .733-.56c.082.2.23.569.408 1.09a1.969 1.969 0 0 0-1.2-.093 2.042 2.042 0 0 0-1.031.816 2.041 2.041 0 0 0 1.307.14 1.971 1.971 0 0 0 .968-.724c.141.421.3.928.451 1.507a2.057 2.057 0 0 0-1.176-.283 2.174 2.174 0 0 0-1.232.665 2.174 2.174 0 0 0 1.345.388 2.076 2.076 0 0 0 1.12-.554c.113.442.224.922.326 1.436a2.179 2.179 0 0 0-1.117-.452 2.385 2.385 0 0 0-1.458.484 2.386 2.386 0 0 0 1.38.676 2.243 2.243 0 0 0 1.264-.352c.087.474.165.974.229 1.5a2.548 2.548 0 0 0-1.22-.783 2.746 2.746 0 0 0-1.749.257 2.747 2.747 0 0 0 1.428 1.042 2.63 2.63 0 0 0 1.58-.178c.064.582.108 1.188.129 1.815a2.852 2.852 0 0 0-1.387-.907 3.044 3.044 0 0 0-1.94.285 3.044 3.044 0 0 0 1.584 1.156 2.916 2.916 0 0 0 1.752-.2c.012.676-.007 1.374-.062 2.086a3.039 3.039 0 0 0-1.284-1.2 3.253 3.253 0 0 0-2.094-.06 3.252 3.252 0 0 0 1.453 1.51 3.124 3.124 0 0 0 1.894.114 19.96 19.96 0 0 1-.278 1.92 3.362 3.362 0 0 0-1.133-1.432 3.706 3.706 0 0 0-2.337-.482 3.706 3.706 0 0 0 1.331 1.981 3.511 3.511 0 0 0 2.017.506q-.186.814-.456 1.636a3.3 3.3 0 0 0-.839-1.5 3.705 3.705 0 0 0-2.218-.88 3.705 3.705 0 0 0 .967 2.182 3.492 3.492 0 0 0 1.864.844 17.512 17.512 0 0 1-.748 1.724 3.338 3.338 0 0 0-.572-1.693 3.707 3.707 0 0 0-2.032-1.252 3.705 3.705 0 0 0 .573 2.317 3.527 3.527 0 0 0 1.747 1.174q-.393.722-.874 1.433a3.3 3.3 0 0 0-.566-1.624 3.705 3.705 0 0 0-2.031-1.252 3.706 3.706 0 0 0 .573 2.317 3.451 3.451 0 0 0 1.622 1.132 18.625 18.625 0 0 1-1.357 1.638 3.3 3.3 0 0 0-.276-1.692 3.707 3.707 0 0 0-1.783-1.586 3.7 3.7 0 0 0 .162 2.381 3.46 3.46 0 0 0 1.412 1.4 21.426 21.426 0 0 1-2.549 2.179.367.367 0 1 0 .428.6 18.911 18.911 0 0 0 2.575-2.3 3.737 3.737 0 0 0 1.932 1.143 3.921 3.921 0 0 0 2.472-.514 3.922 3.922 0 0 0-2.125-1.365 3.472 3.472 0 0 0-1.79.2 20.835 20.835 0 0 0 1.372-1.738 3.785 3.785 0 0 0 2.169.841 3.921 3.921 0 0 0 2.345-.936 3.92 3.92 0 0 0-2.329-.975 3.555 3.555 0 0 0-1.849.577c.31-.467.612-.964.9-1.493a3.727 3.727 0 0 0 2.086.778 3.921 3.921 0 0 0 2.346-.936 3.921 3.921 0 0 0-2.33-.975 3.521 3.521 0 0 0-1.8.544 18.85 18.85 0 0 0 .779-1.785 3.773 3.773 0 0 0 2.252.436 3.921 3.921 0 0 0 2.147-1.329 3.921 3.921 0 0 0-2.463-.557zM828.673 94.3v-.009z" transform="translate(-361.169 82.645)" style="fill:url(#linear-gradient-4)"/>
        <path id="패스_15825" data-name="패스 15825" d="M825.337 109.236a3.569 3.569 0 0 1 1.741.908 18.46 18.46 0 0 1-.518-1.82 3.756 3.756 0 0 1-2.266.03 3.921 3.921 0 0 1-1.884-1.681 3.921 3.921 0 0 1 2.523-.119 3.508 3.508 0 0 1 1.489 1.11 18.6 18.6 0 0 1-.262-1.907 3.228 3.228 0 0 1-1.849-.332 3.444 3.444 0 0 1-1.372-1.741 3.443 3.443 0 0 1 2.2.281 2.915 2.915 0 0 1 .969.942q-.034-.825 0-1.695a3.045 3.045 0 0 1-1.683-.609 3.222 3.222 0 0 1-.982-1.828 3.222 3.222 0 0 1 1.981.617 2.724 2.724 0 0 1 .736 1.018c.037-.441.089-.89.156-1.348a2.755 2.755 0 0 1-1.542-.551 2.905 2.905 0 0 1-.886-1.648 2.905 2.905 0 0 1 1.786.556 2.557 2.557 0 0 1 .732 1.087q.116-.666.278-1.355a2.455 2.455 0 0 1-1.342-.728 2.523 2.523 0 0 1-.509-1.544 2.525 2.525 0 0 1 1.445.745 2.319 2.319 0 0 1 .487 1.2q.18-.72.414-1.463a2.248 2.248 0 0 1-1.107-.872 2.3 2.3 0 0 1-.212-1.466 2.3 2.3 0 0 1 1.178.9 2.082 2.082 0 0 1 .25 1.1q.22-.671.487-1.36a2.134 2.134 0 0 1-.922-1.011 2.161 2.161 0 0 1 .043-1.391 2.16 2.16 0 0 1 .944 1.022 2 2 0 0 1 .037 1.126q.186-.469.393-.946a1.579 1.579 0 0 1-.675-.743.556.556 0 1 1 .73-.273.612.612 0 0 1 .022.069 1.168 1.168 0 0 1 .063-.176 1.6 1.6 0 0 1 .75-.705 1.6 1.6 0 0 1-.041 1.028 1.579 1.579 0 0 1-.728.7l-.019.043a1.468 1.468 0 0 1 .909-.078 1.51 1.51 0 0 1 .763.6 1.51 1.51 0 0 1-.967.1 1.475 1.475 0 0 1-.733-.56c-.082.2-.23.569-.408 1.09a1.969 1.969 0 0 1 1.2-.093 2.041 2.041 0 0 1 1.031.816 2.041 2.041 0 0 1-1.307.14 1.97 1.97 0 0 1-.968-.724c-.141.421-.3.928-.451 1.507a2.057 2.057 0 0 1 1.176-.283 2.175 2.175 0 0 1 1.232.665 2.175 2.175 0 0 1-1.345.388 2.076 2.076 0 0 1-1.12-.554c-.113.442-.224.922-.326 1.436a2.179 2.179 0 0 1 1.118-.452 2.385 2.385 0 0 1 1.458.484 2.386 2.386 0 0 1-1.379.676 2.243 2.243 0 0 1-1.264-.352c-.087.474-.165.974-.229 1.5a2.545 2.545 0 0 1 1.22-.783 2.745 2.745 0 0 1 1.749.257 2.744 2.744 0 0 1-1.428 1.042 2.629 2.629 0 0 1-1.58-.178 24.48 24.48 0 0 0-.129 1.815 2.852 2.852 0 0 1 1.387-.907 3.045 3.045 0 0 1 1.94.285 3.045 3.045 0 0 1-1.584 1.156 2.916 2.916 0 0 1-1.752-.2c-.012.676.006 1.374.062 2.086a3.037 3.037 0 0 1 1.283-1.2 3.253 3.253 0 0 1 2.095-.06 3.252 3.252 0 0 1-1.453 1.51 3.124 3.124 0 0 1-1.894.114c.061.631.151 1.272.278 1.92a3.358 3.358 0 0 1 1.133-1.432 3.706 3.706 0 0 1 2.337-.482 3.706 3.706 0 0 1-1.331 1.981 3.512 3.512 0 0 1-2.017.506q.186.814.456 1.636a3.3 3.3 0 0 1 .839-1.5 3.7 3.7 0 0 1 2.218-.88 3.7 3.7 0 0 1-.966 2.182 3.494 3.494 0 0 1-1.865.844 17.565 17.565 0 0 0 .748 1.724 3.341 3.341 0 0 1 .572-1.693 3.706 3.706 0 0 1 2.032-1.252 3.706 3.706 0 0 1-.573 2.317 3.528 3.528 0 0 1-1.747 1.174q.393.722.874 1.434a3.294 3.294 0 0 1 .566-1.624 3.706 3.706 0 0 1 2.032-1.252 3.707 3.707 0 0 1-.573 2.317 3.452 3.452 0 0 1-1.623 1.132 18.609 18.609 0 0 0 1.357 1.638 3.292 3.292 0 0 1 .276-1.692 3.707 3.707 0 0 1 1.783-1.586 3.705 3.705 0 0 1-.162 2.381 3.459 3.459 0 0 1-1.411 1.4 21.423 21.423 0 0 0 2.548 2.179.367.367 0 1 1-.428.6 18.915 18.915 0 0 1-2.575-2.3 3.738 3.738 0 0 1-1.932 1.143 3.922 3.922 0 0 1-2.473-.514 3.922 3.922 0 0 1 2.125-1.365 3.471 3.471 0 0 1 1.79.2 20.811 20.811 0 0 1-1.372-1.738 3.786 3.786 0 0 1-2.169.841 3.921 3.921 0 0 1-2.345-.936 3.92 3.92 0 0 1 2.329-.975 3.554 3.554 0 0 1 1.849.577c-.31-.467-.612-.964-.9-1.493a3.727 3.727 0 0 1-2.086.778 3.921 3.921 0 0 1-2.346-.936 3.921 3.921 0 0 1 2.33-.975 3.522 3.522 0 0 1 1.8.544 18.817 18.817 0 0 1-.779-1.785 3.773 3.773 0 0 1-2.252.436 3.921 3.921 0 0 1-2.147-1.329 3.921 3.921 0 0 1 2.459-.558zm3.01-14.934v-.009z" transform="translate(-510.967 82.645)" style="fill:url(#linear-gradient-5)"/>
    </g>
</svg>
