<svg xmlns="http://www.w3.org/2000/svg" width="13" height="15.996" viewBox="0 0 13 15.996">
    <path fill="#333" d="M2.256 16A2.267 2.267 0 0 1 0 13.723V8.065a2.264 2.264 0 0 1 1.724-2.208V4.38A4.6 4.6 0 0 1 6.5 0a4.6 4.6 0 0 1 4.775 4.38v1.477A2.263 2.263 0 0 1 13 8.063v5.659A2.267 2.267 0 0 1 10.745 16zM.935 8.063v5.659a1.329 1.329 0 0 0 1.321 1.333h8.489a1.329 1.329 0 0 0 1.323-1.333V8.063a1.329 1.329 0 0 0-1.323-1.331H2.256A1.328 1.328 0 0 0 .935 8.063zM2.657 4.38v1.41h7.687V4.38A3.662 3.662 0 0 0 6.5.942 3.662 3.662 0 0 0 2.657 4.38zm2.514 7.14V9.446a1.329 1.329 0 1 1 2.659 0v2.073a1.329 1.329 0 1 1-2.659 0zm.935-2.073v2.073a.395.395 0 1 0 .789 0V9.446a.395.395 0 1 0-.789 0z"/>
</svg>
