<svg xmlns="http://www.w3.org/2000/svg" width="130" height="24" viewBox="0 0 130 24">
    <defs>
        <style>
            .cls-1{fill:#bc8877}
        </style>
    </defs>
    <g id="그룹_4489" transform="translate(-101.976 -87.254)">
        <path id="패스_1058" d="M118.889 111.254l-3.537-2.815a19.2 19.2 0 0 1 3.048-3.939 29.184 29.184 0 0 1 5.5-4.614c.808-.621 3.178-2.021 3.852-3.443a3.718 3.718 0 0 0-.33-3.708 4.138 4.138 0 0 0-3.931-1.229c-1.851.429-2.972 2.005-4.03 4.947a14.157 14.157 0 0 1-2.618 4.934 9.03 9.03 0 0 1-4.068 2.567 8.476 8.476 0 0 1-4.156.166 8.091 8.091 0 0 1-3.673-1.842 9.1 9.1 0 0 1-2.963-6.495 8.135 8.135 0 0 1 2.715-6.164 8.432 8.432 0 0 1 4.189-2.228 7.837 7.837 0 0 1 3.764.219 9.756 9.756 0 0 1 3.511 1.93l-2.838 3.061.012.011a5.658 5.658 0 0 0-2.011-1.056 3.7 3.7 0 0 0-3.746 1.082 4.049 4.049 0 0 0-1.4 3.085 4.973 4.973 0 0 0 1.563 3.454 4.074 4.074 0 0 0 3.836.792c1.051-.31 2.684-1.4 3.833-4.595A14.5 14.5 0 0 1 118.222 90a8.534 8.534 0 0 1 4.307-2.539 8.351 8.351 0 0 1 8.035 2.529 7.2 7.2 0 0 1 1.9 5.359 7.8 7.8 0 0 1-2.849 5.275c-1.6 1.447-3.73 2.66-6.044 4.912a23.743 23.743 0 0 0-4.682 5.716" class="cls-1"/>
        <g id="그룹_765" transform="translate(142.399 90.174)">
            <path id="패스_1059" d="M451.116 112.937a16.111 16.111 0 0 1-.379 3.939h1.677v-4.687h2.714v15.42h-2.714V119.3h-2.495a11.136 11.136 0 0 1-5.448 5.416l-1.617-2.186a8.775 8.775 0 0 0 4.271-3.486l-3.493.335-.419-2.4 4.83-.256a11 11 0 0 0 .2-1.418h-4.451v-2.363zm4.93-.985h2.794v16.424h-2.794z" class="cls-1" transform="translate(-442.853 -111.932)"/>
            <path id="패스_1060" d="M604.787 112.9a4.861 4.861 0 0 1 5.01 4.037h2.475v-4.982h2.834v16.4h-2.834v-9.1H609.8a4.813 4.813 0 0 1-5.01 3.978 5.169 5.169 0 0 1 0-10.339zm0 7.838a2.413 2.413 0 0 0 2.315-2.678 2.34 2.34 0 1 0-2.315 2.678z" class="cls-1" transform="translate(-580.976 -111.932)"/>
            <path id="패스_1061" d="M762.314 123.059a35.052 35.052 0 0 1-7.9.492v-10.713h2.814v8.114a19.645 19.645 0 0 0 4.75-.354zm1.158 4.569v-9.275H759.9v-2.363h3.572v-3.8h2.694v15.439zm3.912-15.676h2.774v16.424h-2.774z" class="cls-1" transform="translate(-717.327 -111.932)"/>
            <path id="패스_1062" d="M913.475 112.9a5.169 5.169 0 0 1 0 10.339 5.17 5.17 0 0 1 0-10.339zm0 7.838a2.4 2.4 0 0 0 2.3-2.678 2.363 2.363 0 0 0-2.3-2.639c-1.337 0-2.275 1-2.275 2.639s.938 2.675 2.275 2.675zm7.285-8.783h2.854v16.4h-2.854z" class="cls-1" transform="translate(-852.939 -111.932)"/>
            <path id="패스_1063" d="M1068.5 122.571a8.653 8.653 0 0 1-4.052-3.806 9.21 9.21 0 0 1-4.031 4.239l-1.656-2.09a7.272 7.272 0 0 0 4.131-6.27v-2.228h3.034v2.184a6.443 6.443 0 0 0 4.031 5.817zm-4.79 7.375v-6.507h2.854v4.141h8.462v2.366zm8.123-5.127v-5.245h-3.153v-2.267h3.153v-1.2h-3.153v-2.287h3.153v-2.031h2.834v13.034z" class="cls-1" transform="translate(-985.45 -111.785)"/>
        </g>
    </g>
</svg>
