<svg xmlns="http://www.w3.org/2000/svg" width="36" height="30.001" viewBox="0 0 36 30.001">
    <defs>
        <style>
            .cls-1{fill:#dc3545}
        </style>
    </defs>
    <g id="iconFree" transform="translate(-162 -1116)">
        <g id="그룹_6157" transform="translate(.314 -.765)">
            <path id="패스_16522" d="M2.373 3.924l36-3.924v27.265l-36-3.946z" class="cls-1" transform="translate(159.313 1116.765)"/>
            <path id="패스_16523" d="M-17991.75-15208.547l-4.078 7.782 10.859-5.787z" class="cls-1" transform="translate(18158.313 16347.529)"/>
        </g>
        <path id="패스_16524" fill="#fff" d="M9.072-7.308H3.766V-9.6h5.306zm1.806-3.752H1.946v5.208h8.932zm1.4 6.58H.6v1.47h4.874V1.2h1.848v-4.21h4.956zm5.278.8h2.254v1.96h-2.254zm4.074 1.96v-1.96h1.806v-1.486H15.96V-6.58h7.182v-4.284h-9.03v1.47h7.21v1.372h-7.2v4.34h1.61v1.96h-2.964V-.21h11.69v-1.512z" transform="translate(167.313 1134.765)"/>
    </g>
</svg>
