<svg xmlns="http://www.w3.org/2000/svg" width="16" height="19" viewBox="0 0 16 19">
    <defs>
        <style>
            .cls-2{fill:#3d3736}
        </style>
    </defs>
    <g id="iconLocation03" transform="translate(-694 -735.962)">
        <path id="패스_16312" fill="#b3ccef" d="M702 754.621l6.34-6.553s2.783-4.518 0-8.115-4.684-3.7-6.857-3.564a8.5 8.5 0 0 0-6.146 3.77c-1.766 2.377-.951 6.178 0 7.3s6.663 7.162 6.663 7.162z"/>
        <path id="패스_16310" d="M702 754.962a.452.452 0 0 1-.318-.131l-5.338-5.3a7.909 7.909 0 0 1 0-11.238 8.038 8.038 0 0 1 11.314 0 7.909 7.909 0 0 1 0 11.238l-5.338 5.3a.452.452 0 0 1-.32.131zm0-18.105a7.074 7.074 0 0 0-5.02 2.065 7.018 7.018 0 0 0 0 9.973l5.02 4.988 5.02-4.988a7.018 7.018 0 0 0 0-9.973 7.074 7.074 0 0 0-5.02-2.065z" class="cls-2"/>
        <path id="패스_16311" d="M703.171 748.358a3.19 3.19 0 1 1 3.177-3.19 3.187 3.187 0 0 1-3.177 3.19zm0-5.484a2.294 2.294 0 1 0 2.285 2.294 2.292 2.292 0 0 0-2.285-2.294z" class="cls-2" transform="translate(-1.171 -1.258)"/>
    </g>
</svg>
