<svg xmlns="http://www.w3.org/2000/svg" width="63" height="45" viewBox="0 0 63 45">
    <defs>
        <style>
            .cls-2{fill:#8e6051}.cls-4{fill:#fff}.cls-5{fill:#cedcdf}.cls-6{fill:#f58b93}.cls-8{fill:#fff5b1}
        </style>
    </defs>
    <g id="icon_record_02" transform="translate(.001 -.001)">
        <g id="그룹_5718" transform="translate(13.952 4.741)">
            <path id="패스_16104" fill="#bc8877" d="M269.356 385.815H225.6a2.227 2.227 0 0 0-2.222 2.233v34.946a2.227 2.227 0 0 0 2.222 2.232h43.756a2.226 2.226 0 0 0 2.22-2.232v-34.946a2.226 2.226 0 0 0-2.22-2.233z" transform="translate(-222.953 -385.39)"/>
            <path id="패스_16105" d="M269.28 425.575h-43.755a2.656 2.656 0 0 1-2.647-2.658v-34.942a2.657 2.657 0 0 1 2.647-2.66h43.755a2.656 2.656 0 0 1 2.645 2.66v34.942a2.655 2.655 0 0 1-2.645 2.658zm-43.756-39.406a1.8 1.8 0 0 0-1.8 1.806v34.942a1.8 1.8 0 0 0 1.8 1.8h43.756a1.8 1.8 0 0 0 1.8-1.8v-34.942a1.8 1.8 0 0 0-1.8-1.806z" class="cls-2" transform="translate(-222.878 -385.315)"/>
        </g>
        <g id="그룹_5719" transform="translate(11.341 4.9)">
            <path id="패스_16106" fill="#fff0eb" d="M268.161 388.035a2.22 2.22 0 0 0-2.22-2.22h-43.757a2.221 2.221 0 0 0-2.221 2.22v4.31h48.2z" transform="translate(-219.538 -385.059)"/>
            <path id="패스_16107" d="M268.51 393.026h-49.047v-4.947a2.71 2.71 0 0 1 2.646-2.764h43.756a2.709 2.709 0 0 1 2.645 2.764zm-48.2-.887h47.349v-4.06a1.84 1.84 0 0 0-1.8-1.876h-43.75a1.841 1.841 0 0 0-1.8 1.876z" class="cls-2" transform="translate(-219.463 -385.315)"/>
        </g>
        <g id="그룹_5720" transform="translate(11.341 11.497)">
            <path id="패스_16108" d="M219.963 393.506v30.436a2.221 2.221 0 0 0 2.221 2.219h43.757a2.22 2.22 0 0 0 2.22-2.219v-30.436z" class="cls-4" transform="translate(-219.538 -393.081)"/>
            <path id="패스_16109" d="M265.865 426.509h-43.756a2.648 2.648 0 0 1-2.646-2.643v-30.435a.424.424 0 0 1 .425-.425h48.2a.424.424 0 0 1 .425.425v30.435a2.647 2.647 0 0 1-2.648 2.643zm-45.553-32.654v30.011a1.8 1.8 0 0 0 1.8 1.794h43.756a1.8 1.8 0 0 0 1.8-1.794v-30.011z" class="cls-2" transform="translate(-219.463 -393.006)"/>
        </g>
        <g id="그룹_5721" transform="translate(15.951 2.79)">
            <path id="패스_16110" d="M227.53 387a.785.785 0 0 1-.784.786.785.785 0 0 1-.784-.786v-3.328a.784.784 0 0 1 .784-.785.783.783 0 0 1 .784.785z" class="cls-4" transform="translate(-225.538 -382.466)"/>
            <path id="패스_16111" d="M226.671 388.139a1.21 1.21 0 0 1-1.208-1.211V383.6a1.208 1.208 0 1 1 2.417 0v3.328a1.21 1.21 0 0 1-1.209 1.211zm0-4.9a.359.359 0 0 0-.359.36v3.328a.359.359 0 1 0 .718 0V383.6a.36.36 0 0 0-.359-.36z" class="cls-2" transform="translate(-225.463 -382.391)"/>
        </g>
        <g id="그룹_5722" transform="translate(25.08 2.79)">
            <path id="패스_16112" d="M238.261 387a.785.785 0 0 1-.785.786.784.784 0 0 1-.783-.786v-3.328a.782.782 0 0 1 .783-.785.783.783 0 0 1 .785.785z" class="cls-4" transform="translate(-236.268 -382.466)"/>
            <path id="패스_16113" d="M237.4 388.139a1.21 1.21 0 0 1-1.207-1.211V383.6a1.209 1.209 0 1 1 2.417 0v3.328a1.211 1.211 0 0 1-1.21 1.211zm0-4.9a.359.359 0 0 0-.358.36v3.328a.36.36 0 1 0 .719 0V383.6a.36.36 0 0 0-.361-.36z" class="cls-2" transform="translate(-236.193 -382.391)"/>
        </g>
        <g id="그룹_5723" transform="translate(34.209 2.79)">
            <path id="패스_16114" d="M248.99 387a.785.785 0 0 1-.784.786.785.785 0 0 1-.784-.786v-3.328a.783.783 0 0 1 .784-.785.784.784 0 0 1 .784.785z" class="cls-4" transform="translate(-246.998 -382.466)"/>
            <path id="패스_16115" d="M248.131 388.139a1.209 1.209 0 0 1-1.208-1.211V383.6a1.208 1.208 0 1 1 2.417 0v3.328a1.21 1.21 0 0 1-1.209 1.211zm0-4.9a.359.359 0 0 0-.359.36v3.328a.359.359 0 1 0 .718 0V383.6a.359.359 0 0 0-.359-.36z" class="cls-2" transform="translate(-246.923 -382.391)"/>
        </g>
        <g id="그룹_5724" transform="translate(43.338 2.79)">
            <path id="패스_16116" d="M259.72 387a.785.785 0 0 1-.784.786.785.785 0 0 1-.785-.786v-3.328a.784.784 0 0 1 .785-.785.783.783 0 0 1 .784.785z" class="cls-4" transform="translate(-257.727 -382.466)"/>
            <path id="패스_16117" d="M258.861 388.139a1.21 1.21 0 0 1-1.209-1.211V383.6a1.209 1.209 0 1 1 2.417 0v3.328a1.21 1.21 0 0 1-1.208 1.211zm0-4.9a.36.36 0 0 0-.36.36v3.328a.36.36 0 1 0 .719 0V383.6a.359.359 0 0 0-.359-.36z" class="cls-2" transform="translate(-257.652 -382.391)"/>
        </g>
        <g id="그룹_5725" transform="translate(52.6 2.79)">
            <path id="패스_16118" d="M270.45 387a.784.784 0 0 1-.782.786.785.785 0 0 1-.785-.786v-3.328a.784.784 0 0 1 .785-.785.782.782 0 0 1 .782.785z" class="cls-4" transform="translate(-268.458 -382.466)"/>
            <path id="패스_16119" d="M269.592 388.139a1.21 1.21 0 0 1-1.209-1.211V383.6a1.208 1.208 0 1 1 2.416 0v3.328a1.209 1.209 0 0 1-1.207 1.211zm0-4.9a.359.359 0 0 0-.36.36v3.328a.359.359 0 1 0 .717 0V383.6a.359.359 0 0 0-.357-.36z" class="cls-2" transform="translate(-268.383 -382.391)"/>
        </g>
        <path id="사각형_2424" d="M0 0H37.217V2.375H0z" class="cls-5" transform="translate(17.879 16.996)"/>
        <path id="사각형_2425" d="M0 0H3.793V2.121H0z" class="cls-6" transform="translate(17.424 23.215)"/>
        <path id="사각형_2426" d="M0 0H3.792V2.121H0z" class="cls-5" transform="translate(24.074 23.215)"/>
        <path id="사각형_2427" d="M0 0H3.792V2.121H0z" class="cls-5" transform="translate(30.723 23.215)"/>
        <path id="사각형_2428" d="M0 0H3.793V2.121H0z" class="cls-5" transform="translate(37.371 23.215)"/>
        <path id="사각형_2429" d="M0 0H3.792V2.121H0z" class="cls-5" transform="translate(44.022 23.215)"/>
        <path id="사각형_2430" d="M0 0H3.791V2.121H0z" class="cls-5" transform="translate(50.814 23.215)"/>
        <path id="사각형_2431" d="M0 0H3.793V2.123H0z" class="cls-6" transform="translate(17.424 27.587)"/>
        <path id="사각형_2432" d="M0 0H3.792V2.123H0z" class="cls-5" transform="translate(24.074 27.587)"/>
        <path id="사각형_2433" d="M0 0H3.792V2.123H0z" class="cls-5" transform="translate(30.723 27.587)"/>
        <path id="사각형_2434" d="M0 0H3.793V2.123H0z" class="cls-5" transform="translate(37.371 27.587)"/>
        <path id="사각형_2435" d="M0 0H3.792V2.123H0z" class="cls-5" transform="translate(44.022 27.587)"/>
        <path id="사각형_2436" d="M0 0H3.791V2.123H0z" class="cls-5" transform="translate(50.814 27.587)"/>
        <path id="사각형_2437" d="M0 0H3.793V2.119H0z" class="cls-6" transform="translate(17.424 31.962)"/>
        <path id="사각형_2438" d="M0 0H3.792V2.119H0z" class="cls-5" transform="translate(24.074 31.962)"/>
        <path id="사각형_2439" d="M0 0H3.792V2.119H0z" class="cls-5" transform="translate(30.723 31.962)"/>
        <path id="사각형_2440" d="M0 0H3.793V2.119H0z" class="cls-5" transform="translate(37.371 31.962)"/>
        <path id="사각형_2441" d="M0 0H3.792V2.119H0z" class="cls-5" transform="translate(44.022 31.962)"/>
        <path id="사각형_2442" d="M0 0H3.791V2.119H0z" class="cls-5" transform="translate(50.814 31.962)"/>
        <path id="사각형_2443" d="M0 0H3.793V2.121H0z" class="cls-6" transform="translate(17.424 36.28)"/>
        <path id="사각형_2444" d="M0 0H3.792V2.121H0z" class="cls-5" transform="translate(24.074 36.28)"/>
        <path id="사각형_2445" d="M0 0H3.792V2.121H0z" class="cls-5" transform="translate(30.723 36.28)"/>
        <path id="사각형_2446" d="M0 0H3.793V2.121H0z" class="cls-5" transform="translate(37.371 36.28)"/>
        <path id="사각형_2447" d="M0 0H3.792V2.121H0z" class="cls-5" transform="translate(44.022 36.28)"/>
        <path id="사각형_2448" d="M0 0H3.791V2.121H0z" class="cls-5" transform="translate(50.814 36.28)"/>
        <path id="패스_16120" d="M236.922 413.873l-1.98-1.917.59-.61 1.333 1.291 1.6-1.863.643.554z" class="cls-2" transform="translate(-210.924 -384.062)"/>
        <path id="패스_16121" fill="#bc8877" d="M239.709 386.1h-19.061v25.04a16.825 16.825 0 0 0 6.08 1.142 16.361 16.361 0 0 0 16.54-16.177 15.872 15.872 0 0 0-3.559-10.005z" transform="translate(-208.769 -380.071)" style="mix-blend-mode:multiply;isolation:isolate" opacity="0.08"/>
        <g id="그룹_5729" transform="translate(-.001 .001)">
            <g id="그룹_5726">
                <path id="패스_16122" d="M234.679 393.226a13.743 13.743 0 1 1-13.745-13.742 13.745 13.745 0 0 1 13.745 13.742z" class="cls-8" transform="translate(-206.767 -379.059)"/>
                <path id="패스_16123" d="M220.858 407.323a14.17 14.17 0 1 1 14.17-14.173 14.185 14.185 0 0 1-14.17 14.173zm0-27.49a13.32 13.32 0 1 0 13.321 13.317 13.332 13.332 0 0 0-13.321-13.317z" class="cls-2" transform="translate(-206.692 -378.984)"/>
            </g>
            <g id="그룹_5727" transform="translate(3.399 3.193)">
                <path id="패스_16124" d="M221.643 404.14a10.448 10.448 0 1 1 10.449-10.447 10.459 10.459 0 0 1-10.449 10.447z" class="cls-4" transform="translate(-210.77 -382.819)"/>
                <path id="패스_16125" d="M221.568 404.489a10.872 10.872 0 1 1 10.874-10.872 10.885 10.885 0 0 1-10.874 10.872zm0-20.9a10.023 10.023 0 1 0 10.024 10.024 10.035 10.035 0 0 0-10.024-10.02z" class="cls-2" transform="translate(-210.695 -382.744)"/>
            </g>
            <path id="패스_16126" d="M222.838 395.109H216.3v-.849h5.691v-6.695h.849z" class="cls-2" transform="translate(-208.142 -380.279)"/>
            <g id="그룹_5728" transform="translate(12.573 12.458)">
                <path id="패스_16127" d="M224.21 395.264a1.106 1.106 0 1 1-1.106-1.108 1.107 1.107 0 0 1 1.106 1.108z" class="cls-8" transform="translate(-221.574 -393.731)"/>
                <path id="패스_16128" d="M223.028 396.718a1.531 1.531 0 1 1 1.531-1.529 1.53 1.53 0 0 1-1.531 1.529zm0-2.213a.682.682 0 1 0 .682.684.683.683 0 0 0-.682-.684z" class="cls-2" transform="translate(-221.499 -393.656)"/>
            </g>
            <path id="사각형_2449" d="M0 0H0.849V1.295H0z" class="cls-2" transform="translate(13.953 3.758)"/>
            <path id="사각형_2450" d="M0 0H0.849V1.297H0z" class="cls-2" transform="translate(13.953 22.681)"/>
            <path id="사각형_2451" d="M0 0H1.194V0.849H0z" class="cls-2" transform="translate(23.19 14.377)"/>
            <path id="사각형_2452" d="M0 0H1.194V0.849H0z" class="cls-2" transform="translate(4.268 14.377)"/>
        </g>
    </g>
</svg>
