<svg xmlns="http://www.w3.org/2000/svg" width="62" height="62" viewBox="0 0 62 62">
    <defs>
        <clipPath id="clip-path">
            <path id="사각형_3151" data-name="사각형 3151" transform="translate(265 909)" style="stroke:#707070;fill:#fff" d="M0 0h62v62H0z"/>
        </clipPath>
        <style>
            .cls-6{fill:#fff}.cls-3{fill:#fff0eb}.cls-3,.cls-6,.cls-8{stroke:#8e6051;stroke-width:1.2px}.cls-3,.cls-8{stroke-linecap:round}.cls-8{stroke-linejoin:round;fill:none}
        </style>
    </defs>
    <g id="icon_record_03" transform="translate(-265 -909)" style="clip-path:url(#clip-path)">
        <g id="그룹_7725" data-name="그룹 7725" transform="translate(531.129 773.423)">
            <rect id="사각형_3152" data-name="사각형 3152" class="cls-3" width="10.369" height="9.657" rx="2" transform="translate(-258.107 183.118)"/>
            <rect id="사각형_3153" data-name="사각형 3153" class="cls-3" width="10.368" height="17.043" rx="2" transform="translate(-244.125 175.732)"/>
            <rect id="사각형_3154" data-name="사각형 3154" class="cls-3" width="10.369" height="27.102" rx="2" transform="translate(-230.143 165.672)"/>
            <g id="그룹_7721" data-name="그룹 7721" transform="translate(-216.161 155.492)" style="mix-blend-mode:darken;isolation:isolate">
                <g id="그룹_7720" data-name="그룹 7720">
                    <rect id="사각형_3155" data-name="사각형 3155" width="10.368" height="37.283" rx="2" style="fill:#bc8877;stroke-linecap:round;stroke:#8e6051;stroke-width:1.2px"/>
                </g>
            </g>
            <path id="선_607" data-name="선 607" class="cls-6" transform="translate(-246.974 148.675)" d="M0 2.088V0"/>
            <path id="선_609" data-name="선 609" class="cls-6" transform="translate(-246.974 164.58)" d="M0 0v2.087"/>
            <g id="그룹_7727" data-name="그룹 7727" transform="translate(-1 -4)">
                <circle id="타원_773" data-name="타원 773" cx="13.595" cy="13.595" r="13.595" transform="rotate(-76.7 -25.665 250.326)" style="stroke-linejoin:round;fill:#fff18f;stroke-linecap:round;stroke:#8e6051;stroke-width:1.2px"/>
                <path id="패스_21480" data-name="패스 21480" class="cls-8" d="M-240.872 167.346a3.455 3.455 0 0 0 3.454 3.455 3.455 3.455 0 0 0 3.455-3.455 3.454 3.454 0 0 0-3.455-3.454 3.455 3.455 0 0 1-3.454-3.455 3.455 3.455 0 0 1 3.454-3.454 3.455 3.455 0 0 1 3.455 3.454" transform="translate(-9.556 -6.221)"/>
                <path id="선_608" data-name="선 608" class="cls-8" transform="translate(-246.974 148.675)" d="M0 2.088V0"/>
                <path id="선_610" data-name="선 610" class="cls-8" transform="translate(-246.974 150.077)" d="M0 0v16.59"/>
            </g>
            <path id="선_611" data-name="선 611" class="cls-8" transform="translate(-210.976 141.741)" d="M0 7.977V0"/>
            <path id="패스_21483" data-name="패스 21483" class="cls-8" d="m-181.611 143.805 2.991-2.991 2.99 2.991" transform="translate(-32.356)"/>
        </g>
    </g>
</svg>
