<svg xmlns="http://www.w3.org/2000/svg" width="15" height="18" viewBox="0 0 15 18">
    <g fill="#fd0">
        <path d="M14.468 14.5H3.532c-.547 0-1.035-.284-1.305-.761-.27-.476-.263-1.041.02-1.51l5.467-9.113c.273-.456.754-.729 1.286-.729s1.013.273 1.286.729l5.468 9.112c.282.47.289 1.035.019 1.511-.27.477-.758.761-1.305.761z" transform="rotate(90 7.5 7.5)"/>
        <path fill="#333" d="M9 2.887c-.17 0-.595.048-.857.486l-5.468 9.112c-.27.452-.1.855-.013 1.008.087.152.344.507.87.507h10.936c.526 0 .783-.355.87-.507.086-.153.258-.556-.013-1.007L9.857 3.373c-.262-.438-.687-.486-.857-.486m0-1c.663 0 1.327.324 1.715.971l5.468 9.113c.8 1.333-.16 3.029-1.715 3.029H3.532c-1.554 0-2.514-1.696-1.715-3.029l5.468-9.113c.388-.647 1.052-.97 1.715-.97z" transform="rotate(90 7.5 7.5)"/>
    </g>
</svg>
