<svg xmlns="http://www.w3.org/2000/svg" width="193.001" height="18" viewBox="0 0 193.001 18">
    <defs>
        <clipPath id="xnrt1lqdja">
            <path data-name="사각형 3151" transform="translate(83.145 133.17)" style="stroke:#707070;fill:#003f98" d="M0 0h94v18H0z"/>
        </clipPath>
    </defs>
    <g data-name="그룹 8130" transform="translate(15.856 -133.17)" style="clip-path:url(#xnrt1lqdja)">
        <path data-name="패스 21700" d="M561.975 305.281c-.68-3.927-12.475-5.151-26.344-2.736a74.68 74.68 0 0 0-15.174 4.191 2 2 0 0 1 1.378.443 1.238 1.238 0 0 1 .336.906v.388h-1.362v-.343a.434.434 0 0 0-.476-.465.423.423 0 0 0-.464.341.689.689 0 0 0 .008.276c.145.594 2.163.962 2.382 2.06a2.522 2.522 0 0 1 .005.875c-.125.886-.9 1.23-1.893 1.23-1.383 0-1.943-.657-1.943-1.558v-.429h1.453l.005.532a.457.457 0 0 0 .511.466.449.449 0 0 0 .5-.344.662.662 0 0 0-.01-.384c-.27-.677-2.154-.991-2.387-2.085a1.817 1.817 0 0 1-.014-.721 1.492 1.492 0 0 1 .121-.378c-4.541 2.124-7.2 4.46-6.846 6.48.682 3.925 12.478 5.148 26.341 2.734a73.457 73.457 0 0 0 15.748-4.43c-.062 0-.121.01-.184.01-.948 0-1.794-.354-1.884-1.324-.012-.18-.018-.253-.018-.354v-2.23c0-.1.013-.263.023-.351.113-.936.855-1.324 1.883-1.324.793 0 1.768.227 1.872 1.325a3.006 3.006 0 0 1 .016.334v.211h-1.373v-.317a1.764 1.764 0 0 0-.017-.2.538.538 0 0 0-1.022 0 1.179 1.179 0 0 0-.023.247v2.424a1.012 1.012 0 0 0 .015.2.555.555 0 0 0 1.048 0 1.081 1.081 0 0 0 .011-.2v-.75h-.541v-.808h1.91v1.436a2.874 2.874 0 0 1-.02.354 1.288 1.288 0 0 1-.229.651c4.426-2.1 7-4.4 6.654-6.386m-35.952 6.955-.7-4.725h-.019l-.713 4.725h-1.467l.987-5.336h2.393l.976 5.336zm7.052 0-.035-4.635h-.02l-.864 4.635h-1.376l-.86-4.635h-.016l-.031 4.635H528.5l.117-5.336h2.2l.637 3.964h.031l.639-3.964h2.193l.117 5.336zm6.419-1.034c-.145 1.034-1.159 1.214-1.875 1.214-1.186 0-1.922-.509-1.922-1.542v-.422h1.44v.527a.454.454 0 0 0 .513.461.444.444 0 0 0 .5-.342.689.689 0 0 0-.009-.379c-.265-.664-2.137-.987-2.365-2.065a1.758 1.758 0 0 1-.011-.713c.158-.977 1.092-1.18 1.848-1.18a2.01 2.01 0 0 1 1.46.443 1.205 1.205 0 0 1 .33.895v.386h-1.347v-.338a.428.428 0 0 0-.471-.46.416.416 0 0 0-.459.34.573.573 0 0 0 0 .268c.143.592 2.144.954 2.363 2.042a2.525 2.525 0 0 1 0 .865m4.99-.486c0 .1-.009.3-.015.353-.082.878-.711 1.324-1.862 1.324s-1.788-.446-1.87-1.324a3.729 3.729 0 0 1-.015-.352V306.9h1.387v3.94a.913.913 0 0 0 .014.2.456.456 0 0 0 .492.377.465.465 0 0 0 .493-.374 1.677 1.677 0 0 0 .012-.2V306.9h1.372zm5.934 1.466H548.5l-1.287-4.226h-.022l.07 4.226h-1.335V306.9h2l1.187 4.062h.028l-.07-4.062h1.345z" transform="translate(-426.561 -167.56)" style="fill:#003f98"/>
        <path data-name="패스 21701" d="M624.554 309.582s1.05 1.989 2.1 2.324l.775-.777a5.142 5.142 0 0 1-2.158-4.454h-1.436a4.686 4.686 0 0 1-2.214 4.4l.773.888a5.566 5.566 0 0 0 2.161-2.379m9.293 0s1.052 1.989 2.1 2.324l.773-.777a5.139 5.139 0 0 1-2.155-4.454h-1.441a4.68 4.68 0 0 1-2.21 4.4l.771.888a5.549 5.549 0 0 0 2.16-2.379m-3.929 0h1.161v-1.275h-1.161v-1.852h-1.384v5.614h1.384zm-6.583 7.8h6.639v-4.757h-6.639zm1.382-3.539h3.82v2.267h-3.82zM638 312.182h1.493v-5.7H638v1.825h-1.72v1.275H638zm-2.047 0c-2.017 0-3.653 1.239-3.653 2.765s1.637 2.765 3.653 2.765 3.65-1.236 3.65-2.765-1.633-2.765-3.65-2.765m0 4.316c-1.253 0-2.269-.693-2.269-1.551s1.016-1.549 2.269-1.549 2.267.694 2.267 1.549-1.016 1.551-2.267 1.551m10.288-9.131h-1.99v-.967h-1.441v.914h-2.158v1.161h5.586zm3.431 3.284h-1.326v-4.168h-1.327v10.9h1.327v-5.624h1.326zm3.209-2.44h1.66v-1.229h-4.425v1.229h1.549s.331 5.078-2.211 6.793l.883.94a4.983 4.983 0 0 0 1.881-2.6 8.948 8.948 0 0 0 1.826 2.6l.94-.94s-2.253-1.391-2.1-6.793m4.316-1.728v3.892h-.665v-3.892H655.2v10.9h1.327v-5.9h.665v5.9h1.384v-10.9zm-13 7.145a2.468 2.468 0 0 0 2.125-2.281 2.822 2.822 0 0 0-5.563 0 2.451 2.451 0 0 0 2.055 2.265v.9h-2.215v1.158h5.866v-1.1H644.2zm-2.138-2.281a1.5 1.5 0 1 1 1.481 1.265 1.386 1.386 0 0 1-1.481-1.265" transform="translate(-482.165 -169.905)" style="fill:#003f98"/>
    </g>
    <g data-name="그룹 22702">
        <path data-name="패스 1058" d="M111.994 101.47 109.9 99.8a11.373 11.373 0 0 1 1.8-2.331 17.285 17.285 0 0 1 3.256-2.733c.479-.368 1.882-1.2 2.282-2.04a2.2 2.2 0 0 0-.2-2.2 2.451 2.451 0 0 0-2.328-.728c-1.1.254-1.761 1.188-2.387 2.93a8.385 8.385 0 0 1-1.55 2.922 5.349 5.349 0 0 1-2.41 1.52 5.02 5.02 0 0 1-2.462.1 4.792 4.792 0 0 1-2.176-1.091 5.388 5.388 0 0 1-1.755-3.847 4.819 4.819 0 0 1 1.608-3.651 4.994 4.994 0 0 1 2.481-1.319 4.642 4.642 0 0 1 2.23.13 5.779 5.779 0 0 1 2.079 1.143l-1.681 1.813.007.007a3.351 3.351 0 0 0-1.191-.625 2.191 2.191 0 0 0-2.219.641 2.4 2.4 0 0 0-.83 1.827 2.946 2.946 0 0 0 .926 2.046 2.413 2.413 0 0 0 2.272.469c.622-.184 1.59-.83 2.27-2.722a8.591 8.591 0 0 1 1.67-3.185 5.055 5.055 0 0 1 2.551-1.5 4.946 4.946 0 0 1 4.759 1.5 4.265 4.265 0 0 1 1.126 3.174 4.62 4.62 0 0 1-1.688 3.125c-.945.857-2.209 1.576-3.58 2.909a14.063 14.063 0 0 0-2.773 3.386" transform="translate(-101.976 -84.469)" style="fill:#bc8877"/>
        <g data-name="그룹 765">
            <path data-name="패스 1059" d="M447.747 112.535a9.542 9.542 0 0 1-.225 2.333h.993v-2.776h1.608v9.133h-1.608V116.3h-1.478a6.6 6.6 0 0 1-3.227 3.208l-.958-1.295a5.2 5.2 0 0 0 2.53-2.065l-2.069.2-.248-1.423 2.861-.152a6.519 6.519 0 0 0 .118-.84h-2.636v-1.4zm2.92-.583h1.655v9.728h-1.655z" transform="translate(-418.91 -107.425)" style="fill:#bc8877"/>
            <path data-name="패스 1060" d="M602.688 112.512a2.879 2.879 0 0 1 2.967 2.391h1.466v-2.951h1.679v9.716h-1.679v-5.389h-1.466a2.851 2.851 0 0 1-2.967 2.356 3.062 3.062 0 0 1 0-6.124zm0 4.642a1.429 1.429 0 0 0 1.371-1.586 1.386 1.386 0 1 0-1.371 1.586z" transform="translate(-564.641 -107.425)" style="fill:#bc8877"/>
            <path data-name="패스 1061" d="M759.092 118.531a20.762 20.762 0 0 1-4.681.292v-6.345h1.667v4.806a11.636 11.636 0 0 0 2.813-.21zm.686 2.706v-5.494h-2.116v-1.4h2.116v-2.251h1.6v9.145zm2.317-9.285h1.643v9.728h-1.643z" transform="translate(-708.502 -107.425)" style="fill:#bc8877"/>
            <path data-name="패스 1062" d="M911.384 112.512a3.062 3.062 0 0 1 0 6.124 3.062 3.062 0 0 1 0-6.124zm0 4.642a1.421 1.421 0 0 0 1.359-1.586 1.4 1.4 0 0 0-1.359-1.568 1.379 1.379 0 0 0-1.348 1.563 1.4 1.4 0 0 0 1.348 1.591zm4.315-5.2h1.69v9.716H915.7z" transform="translate(-851.585 -107.425)" style="fill:#bc8877"/>
            <path data-name="패스 1063" d="M1064.53 118.174a5.126 5.126 0 0 1-2.4-2.254 5.454 5.454 0 0 1-2.388 2.511l-.981-1.238a4.307 4.307 0 0 0 2.447-3.714v-1.32h1.8v1.3a3.816 3.816 0 0 0 2.388 3.445zm-2.837 4.368v-3.854h1.69v2.453h5.012v1.4zm4.811-3.037V116.4h-1.868v-1.343h1.868v-.712h-1.868v-1.355h1.868v-1.2h1.678v7.72z" transform="translate(-991.395 -107.27)" style="fill:#bc8877"/>
        </g>
    </g>
    <g data-name="그룹 22703">
        <path data-name="사각형 4061" transform="translate(84.001 6)" style="fill:none" d="M0 0h8v8H0z"/>
        <path data-name="패스 24179" d="m103.9 187.173-5.591 5.591" transform="translate(-13.126 -179.9)" style="stroke:#777;stroke-linecap:round;stroke-width:1.5px;fill:none"/>
        <path data-name="패스 24180" d="m98.312 187.173 5.591 5.591" transform="translate(-13.126 -179.9)" style="stroke:#777;stroke-linecap:round;stroke-width:1.5px;fill:none"/>
    </g>
</svg>
