<svg xmlns="http://www.w3.org/2000/svg" width="64" height="47" viewBox="0 0 64 47">
    <defs>
        <style>
            .cls-1{fill:#fff}.cls-2{fill:#8e6051}.cls-4{fill:#fff0eb}.cls-8{fill:#fff5b1}
        </style>
    </defs>
    <g id="icon_record_01" transform="translate(0 -.001)">
        <g id="그룹_5705" transform="translate(14.669 .001)">
            <path id="패스_16081" d="M374.156 379.307c-4.412 0-7.986 2.831-7.986 6.322v39.8h36.242v-46.122z" class="cls-1" transform="translate(-365.741 -378.859)"/>
            <path id="패스_16082" d="M402.341 425.787H366.1a.428.428 0 0 1-.429-.427v-39.8c0-3.722 3.775-6.75 8.416-6.75l26.732-.019c.237 0 1.219.347 1.219.584l.735 45.989a.428.428 0 0 1-.432.423zm-35.813-.854h35.384v-45.272h-27.826c-4.167 0-7.557 2.645-7.557 5.9z" class="cls-2" transform="translate(-365.67 -378.787)"/>
        </g>
        <g id="그룹_5706" transform="translate(44.309 .02)">
            <path id="패스_16083" fill="#bc8877" d="M410.7 419.649v-34.02c0-3.491-2.108-6.322-4.71-6.322s-4.705 2.831-4.705 6.322v39.8h14.576z" transform="translate(-400.858 -378.878)"/>
            <path id="패스_16084" d="M416.748 425.788h-15.961v-40.231c0-3.722 2.3-6.75 5.135-6.75s5.139 3.028 5.139 6.75v33.861zm-15.1-.854h13.19l-4.634-5.191v-34.186c0-3.251-1.92-5.9-4.28-5.9s-4.276 2.645-4.276 5.9z" class="cls-2" transform="translate(-400.787 -378.807)"/>
        </g>
        <g id="그룹_5707" transform="translate(53.73 30.953)">
            <path id="패스_16085" d="M412.254 415.6v8.835c0 3.51 2.106 6.355 4.7 6.355s4.707-2.845 4.707-6.355V415.6z" class="cls-4" transform="translate(-411.825 -415.169)"/>
            <path id="패스_16086" d="M416.888 431.146c-2.831 0-5.134-3.043-5.134-6.784v-8.835a.428.428 0 0 1 .429-.429h9.411a.428.428 0 0 1 .429.429v8.835c.001 3.738-2.303 6.784-5.135 6.784zm-4.275-15.189v8.405c0 3.267 1.918 5.925 4.275 5.925s4.278-2.658 4.278-5.925v-8.405z" class="cls-2" transform="translate(-411.754 -415.098)"/>
        </g>
        <path id="사각형_2410" fill="#f58b93" d="M0 0H6.296V5.587H0z" transform="translate(19.086 10.96)"/>
        <path id="사각형_2411" fill="#f7d979" d="M0 0H6.296V5.587H0z" transform="translate(19.086 20.832)"/>
        <path id="사각형_2412" fill="#cedcdf" d="M0 0H6.296V5.587H0z" transform="translate(19.086 31.778)"/>
        <path id="사각형_2413" d="M0 0H10.416V0.858H0z" class="cls-2" transform="translate(28.543 11.826)"/>
        <path id="사각형_2414" d="M0 0H10.416V0.858H0z" class="cls-2" transform="translate(28.543 15.104)"/>
        <path id="사각형_2415" d="M0 0H5.208V0.858H0z" class="cls-2" transform="translate(28.593 22.509)"/>
        <path id="사각형_2416" d="M0 0H3.625V0.858H0z" class="cls-2" transform="translate(35.277 22.509)"/>
        <path id="사각형_2417" d="M0 0H5.208V0.858H0z" class="cls-2" transform="translate(28.593 34.924)"/>
        <path id="사각형_2418" d="M0 0H3.625V0.858H0z" class="cls-2" transform="translate(35.277 34.924)"/>
        <path id="사각형_2419" d="M0 0H10.416V0.858H0z" class="cls-2" transform="translate(28.543 19.362)"/>
        <path id="사각형_2420" d="M0 0H10.416V0.858H0z" class="cls-2" transform="translate(28.543 25.787)"/>
        <path id="사각형_2421" d="M0 0H10.416V0.858H0z" class="cls-2" transform="translate(28.543 31.605)"/>
        <path id="사각형_2422" d="M0 0H10.416V0.858H0z" class="cls-2" transform="translate(28.543 38.165)"/>
        <g id="그룹_5710" transform="translate(0 16.519)">
            <g id="그룹_5708">
                <path id="패스_16087" d="M366.919 407.952a9.257 9.257 0 1 1-9.256-9.255 9.257 9.257 0 0 1 9.256 9.255z" class="cls-8" transform="translate(-347.977 -398.268)"/>
                <path id="패스_16088" d="M357.592 417.567a9.685 9.685 0 1 1 9.685-9.685 9.7 9.7 0 0 1-9.685 9.685zm0-18.512a8.827 8.827 0 1 0 8.827 8.826 8.837 8.837 0 0 0-8.827-8.826z" class="cls-2" transform="translate(-347.906 -398.197)"/>
            </g>
            <g id="그룹_5709" transform="translate(4.323 6.006)">
                <path id="패스_16089" d="M357.974 412.7l-4.532-4.366 1.321-1.372 3.132 3.015 3.962-4.286 1.4 1.293z" class="cls-1" transform="translate(-353.012 -405.265)"/>
                <path id="패스_16090" d="M357.9 413.062a.428.428 0 0 1-.3-.119l-4.532-4.366a.428.428 0 0 1-.012-.606l1.321-1.374a.426.426 0 0 1 .3-.13.359.359 0 0 1 .306.119l2.817 2.712 3.665-3.965a.43.43 0 0 1 .3-.137.415.415 0 0 1 .308.114l1.4 1.293a.429.429 0 0 1 .023.606l-5.281 5.717a.429.429 0 0 1-.3.137zm-3.926-4.806l3.908 3.764 4.693-5.081-.769-.71-3.67 3.971a.43.43 0 0 1-.3.138.461.461 0 0 1-.311-.119L354.7 407.5z" class="cls-2" transform="translate(-352.941 -405.194)"/>
            </g>
        </g>
        <path id="패스_16091" fill="#bc8877" d="M407.368 389.66l-29.85 30.979s-3.208 3.7-1.92 6.347h13.9l17.527-17.24z" transform="translate(-352.783 -380.545)" style="mix-blend-mode:multiply;isolation:isolate" opacity="0.04"/>
        <g id="그룹_5717" transform="translate(27.117 12.246)">
            <g id="그룹_5711" transform="translate(0 29.288)">
                <path id="패스_16092" fill="#ad8b80" d="M382.239 430.8a.573.573 0 0 1-.81 0 .575.575 0 0 1 0-.811l1.91-1.91a.575.575 0 0 1 .81 0 .576.576 0 0 1 0 .812z" transform="translate(-380.834 -427.493)"/>
                <path id="패스_16093" d="M381.765 431.329a1 1 0 0 1-.711-1.711l1.911-1.911a1.027 1.027 0 0 1 1.416 0 1 1 0 0 1 0 1.417l-1.912 1.911a.992.992 0 0 1-.704.294zm1.909-3.056a.147.147 0 0 0-.1.043l-1.909 1.908a.147.147 0 0 0 0 .207.123.123 0 0 0 .2 0l1.912-1.91a.144.144 0 0 0-.1-.246z" class="cls-2" transform="translate(-380.764 -427.424)"/>
            </g>
            <g id="그룹_5712" transform="translate(24.27)">
                <path id="패스_16094" d="M416.7 398.7a2.885 2.885 0 1 0-4.081-4.079l-3.08 3.082 4.079 4.079z" class="cls-4" transform="translate(-409.106 -393.373)"/>
                <path id="패스_16095" d="M413.544 402.142a.425.425 0 0 1-.3-.126l-4.079-4.08a.428.428 0 0 1 0-.607l3.079-3.082a3.394 3.394 0 0 1 4.688 0 3.319 3.319 0 0 1 0 4.686l-3.081 3.082a.428.428 0 0 1-.307.127zm-3.473-4.509l3.473 3.473 2.778-2.779a2.459 2.459 0 0 0 0-3.473 2.513 2.513 0 0 0-3.473 0z" class="cls-2" transform="translate(-409.035 -393.308)"/>
            </g>
            <g id="그룹_5713" transform="translate(4.82 3.718)">
                <path id="사각형_2423" d="M0 0H27.254V5.769H0z" class="cls-8" transform="rotate(-45 24.297 9.21)"/>
                <path id="패스_16096" d="M391.065 422.2l-4.686-4.686 19.879-19.877 4.686 4.686zm-3.473-4.686l3.473 3.473 18.665-18.664-3.473-3.473z" class="cls-2" transform="translate(-386.379 -397.639)"/>
            </g>
            <g id="그룹_5714" transform="translate(1.347 23.172)">
                <path id="패스_16097" fill="#efe9e7" d="M386.484 420.793l-2.384 2.387c-1.131 1.127-1.493 3.342-1.131 5.208a5.539 5.539 0 0 0 5.208-1.129l2.387-2.387z" transform="translate(-382.403 -420.369)"/>
                <path id="패스_16098" d="M384.456 428.969a5.872 5.872 0 0 1-1.681-.239.431.431 0 0 1-.3-.33 6.555 6.555 0 0 1 1.249-5.593l2.385-2.387a.441.441 0 0 1 .607 0l4.084 4.08a.428.428 0 0 1 0 .607l-2.387 2.388a5.739 5.739 0 0 1-3.957 1.474zm-1.183-.993a5.175 5.175 0 0 0 4.528-1.089l2.084-2.084-3.473-3.473-2.083 2.084a5.651 5.651 0 0 0-1.056 4.562z" class="cls-2" transform="translate(-382.332 -420.299)"/>
            </g>
            <g id="그룹_5715" transform="translate(19.448 7.571)">
                <path id="패스_16099" d="M405.113 414.457a.679.679 0 0 1-.933-.124.673.673 0 0 1-.123-.932l10.652-10.652a.678.678 0 0 1 .932.122.679.679 0 0 1 .123.934z" class="cls-1" transform="translate(-403.489 -402.195)"/>
                <path id="패스_16100" d="M404.687 414.954a1.322 1.322 0 0 1-1.269-1.27.921.921 0 0 1 .266-.658l10.651-10.65a1.127 1.127 0 0 1 1.538.122 1.092 1.092 0 0 1 .124 1.54l-10.651 10.654a.928.928 0 0 1-.659.262zm10.305-11.983l-10.7 10.664a.375.375 0 0 0 .122.325c.136.135.3.151.328.123l10.649-10.651c.026-.025.025-.179-.123-.326a.418.418 0 0 0-.276-.134z" class="cls-2" transform="translate(-403.418 -402.127)"/>
            </g>
            <g id="그룹_5716" transform="translate(26.77 6.914)">
                <path id="패스_16101" d="M415.916 402.643l-2.674 2.674-.795-.817 2.639-2.639z" class="cls-1" transform="translate(-412.018 -401.432)"/>
                <path id="패스_16102" d="M413.171 405.676a.432.432 0 0 1-.3-.13l-.795-.816a.429.429 0 0 1 0-.6l2.639-2.639a.428.428 0 0 1 .6-.009l.83.78a.431.431 0 0 1 .009.617l-2.674 2.674a.429.429 0 0 1-.309.123zm-.192-1.242l.2.2 2.053-2.053-.2-.191z" class="cls-2" transform="translate(-411.947 -401.362)"/>
            </g>
            <path id="패스_16103" d="M386.583 421.707l1.529 1.536a8.067 8.067 0 0 0-4.572 4.572s-.166-2.885 1.1-4.143z" class="cls-4" transform="translate(-381.156 -397.327)"/>
        </g>
    </g>
</svg>
