<svg xmlns="http://www.w3.org/2000/svg" width="79.999" height="15" viewBox="0 0 79.999 15">
    <defs>
        <style>
            .cls-1{fill:#fff}
        </style>
    </defs>
    <g id="icon_logo" transform="translate(-243.999 -76)">
        <path id="패스_545" d="M112.309 102.254l-2.161-1.759a11.978 11.978 0 0 1 1.86-2.459 17.927 17.927 0 0 1 3.358-2.884c.494-.388 1.942-1.263 2.353-2.152a2.369 2.369 0 0 0-.2-2.317 2.493 2.493 0 0 0-2.4-.768c-1.131.268-1.816 1.253-2.462 3.092a8.917 8.917 0 0 1-1.6 3.084 5.5 5.5 0 0 1-2.486 1.6 5.066 5.066 0 0 1-2.539.1 4.9 4.9 0 0 1-2.244-1.151 5.742 5.742 0 0 1-1.81-4.059 5.446 5.446 0 0 1 4.218-5.245 4.685 4.685 0 0 1 2.3.137 5.931 5.931 0 0 1 2.145 1.206l-1.736 1.921.008.007a3.436 3.436 0 0 0-1.229-.66 2.227 2.227 0 0 0-2.289.677 2.556 2.556 0 0 0-.856 1.928 3.139 3.139 0 0 0 .955 2.158 2.447 2.447 0 0 0 2.344.495c.642-.194 1.64-.876 2.342-2.872a9.135 9.135 0 0 1 1.722-3.361 5.191 5.191 0 0 1 2.631-1.587 5.032 5.032 0 0 1 4.909 1.58 4.563 4.563 0 0 1 1.161 3.349 4.909 4.909 0 0 1-1.741 3.3c-.975.9-2.279 1.663-3.693 3.07a14.781 14.781 0 0 0-2.86 3.573" class="cls-1" transform="translate(142.023 -11.254)"/>
        <g id="그룹_348" transform="translate(269.27 77.784)">
            <path id="패스_540" d="M447.9 112.574a10.505 10.505 0 0 1-.232 2.487h1.024V112.1h1.658v9.737h-1.658v-5.247h-1.522a6.92 6.92 0 0 1-3.329 3.42l-.988-1.38a5.406 5.406 0 0 0 2.61-2.2l-2.134.211-.256-1.517 2.951-.162a7.162 7.162 0 0 0 .122-.9h-2.719v-1.492zm3.012-.622h1.707v10.371h-1.707z" class="cls-1" transform="translate(-442.853 -111.94)"/>
            <path id="패스_541" d="M602.784 112.549a3 3 0 0 1 3.061 2.549h1.512v-3.146h1.732v10.359h-1.732v-5.745h-1.512a2.964 2.964 0 0 1-3.061 2.512 3.036 3.036 0 0 1-3.146-3.246 3.066 3.066 0 0 1 3.146-3.283zm0 4.95a1.506 1.506 0 0 0 1.414-1.691 1.434 1.434 0 1 0-2.829 0c0 1.031.598 1.692 1.415 1.692z" class="cls-1" transform="translate(-588.236 -111.94)"/>
            <path id="패스_542" d="M759.24 118.966a20.735 20.735 0 0 1-4.829.311v-6.765h1.719v5.123a11.622 11.622 0 0 0 2.9-.224zm.707 2.885v-5.857h-2.183V114.5h2.183v-2.4h1.646v9.749zm2.39-9.9h1.7v10.371h-1.7z" class="cls-1" transform="translate(-731.754 -111.94)"/>
            <path id="패스_543" d="M911.48 112.549a3.066 3.066 0 0 1 3.146 3.283 3.143 3.143 0 1 1-3.146-3.283zm0 4.95a1.5 1.5 0 0 0 1.4-1.691 1.474 1.474 0 0 0-1.4-1.666c-.817 0-1.39.634-1.39 1.666s.573 1.692 1.39 1.692zm4.451-5.546h1.744v10.359h-1.744z" class="cls-1" transform="translate(-874.494 -111.94)"/>
            <path id="패스_544" d="M1064.712 118.575a5.353 5.353 0 0 1-2.475-2.4 5.73 5.73 0 0 1-2.463 2.669l-1.012-1.316a4.585 4.585 0 0 0 2.524-3.947v-1.4h1.853v1.378a4.052 4.052 0 0 0 2.463 3.662zm-2.927 4.642v-4.1h1.744v2.607h5.17v1.49zm4.963-3.227v-3.3h-1.927v-1.427h1.927v-.763h-1.927v-1.44h1.927v-1.279h1.732v8.2z" class="cls-1" transform="translate(-1013.97 -111.785)"/>
        </g>
    </g>
</svg>
