<svg xmlns="http://www.w3.org/2000/svg" width="24" height="24" viewBox="0 0 24 24">
    <defs>
        <style>
            .cls-1{fill:#3d3736}
        </style>
    </defs>
    <g id="icon_setting" transform="translate(-269.024 -688.9)">
        <path id="패스_1228" d="M283.979 712.9h-5.911a.566.566 0 0 1-.568-.565v-2.1a9.923 9.923 0 0 1-2.843-1.634l-1.826 1.049a.574.574 0 0 1-.431.057.567.567 0 0 1-.345-.264l-2.955-5.093a.563.563 0 0 1 .207-.771l1.825-1.048a10.029 10.029 0 0 1 0-3.268l-1.825-1.049a.563.563 0 0 1-.207-.771l2.955-5.093a.571.571 0 0 1 .776-.207l1.826 1.05a9.951 9.951 0 0 1 2.843-1.635v-2.1a.565.565 0 0 1 .568-.564h5.911a.565.565 0 0 1 .568.564v2.1a9.952 9.952 0 0 1 2.843 1.635l1.826-1.05a.571.571 0 0 1 .776.207l2.955 5.093a.563.563 0 0 1-.207.771l-1.825 1.049a9.958 9.958 0 0 1 0 3.268l1.825 1.048a.563.563 0 0 1 .207.771l-2.955 5.093a.567.567 0 0 1-.345.264.574.574 0 0 1-.431-.057l-1.826-1.05a9.923 9.923 0 0 1-2.843 1.634v2.1a.566.566 0 0 1-.568.566zm-5.344-1.13h4.776v-1.932a.565.565 0 0 1 .391-.536 8.846 8.846 0 0 0 3.145-1.808.569.569 0 0 1 .662-.068l1.683.966 2.388-4.114-1.68-.966a.562.562 0 0 1-.272-.6 8.885 8.885 0 0 0 0-3.617.562.562 0 0 1 .272-.6l1.68-.965-2.388-4.115-1.683.967a.569.569 0 0 1-.662-.068 8.83 8.83 0 0 0-3.147-1.814.566.566 0 0 1-.391-.537v-1.932h-4.776v1.932a.565.565 0 0 1-.39.537 8.848 8.848 0 0 0-3.145 1.808.569.569 0 0 1-.662.068l-1.683-.967-2.388 4.115 1.681.965a.565.565 0 0 1 .272.6 8.833 8.833 0 0 0 0 3.616.564.564 0 0 1-.272.6l-1.681.966 2.388 4.114 1.683-.966a.569.569 0 0 1 .662.068 8.864 8.864 0 0 0 3.145 1.808.564.564 0 0 1 .39.536z" class="cls-1"/>
        <path id="패스_1229" d="M281.024 705.288a4.389 4.389 0 1 1 4.411-4.388 4.4 4.4 0 0 1-4.411 4.388zm0-7.647a3.259 3.259 0 1 0 3.276 3.259 3.271 3.271 0 0 0-3.276-3.259z" class="cls-1"/>
    </g>
</svg>
