<svg xmlns="http://www.w3.org/2000/svg" width="24" height="24" viewBox="0 0 24 24">
    <defs>
        <style>
            .cls-1{fill:#303030}
        </style>
    </defs>
    <g id="icon_noti" transform="translate(-457 -688.9)">
        <path id="패스_1226" d="M480.435 708.463h-22.87a.569.569 0 0 1-.458-.9l2.35-3.282V698.5a9.543 9.543 0 1 1 19.086 0v5.778l2.35 3.282a.569.569 0 0 1-.458.9zm-21.767-1.137h20.664l-1.812-2.53a.573.573 0 0 1-.106-.332V698.5a8.414 8.414 0 1 0-16.828 0v5.962a.573.573 0 0 1-.106.332z" class="cls-1"/>
        <path id="패스_1227" d="M469 712.9a3.366 3.366 0 0 1-3.351-3.371.565.565 0 1 1 1.13 0 2.221 2.221 0 1 0 4.442 0 .565.565 0 1 1 1.13 0A3.366 3.366 0 0 1 469 712.9z" class="cls-1"/>
    </g>
</svg>
