<svg xmlns="http://www.w3.org/2000/svg" width="144.479" height="118.98" viewBox="0 0 144.479 118.98">
    <g opacity="0.2">
        <path fill="#8a381c" d="M182.081 206.235l-16.75-13.955c4.119-6.693 3.981-7.547 14.416-19.508 11.743-13.462 18.3-16.648 26.034-22.872 3.827-3.079 15.051-10.021 18.243-17.071 3.015-6.657 1.423-14.868-1.561-18.381a19.062 19.062 0 0 0-18.617-6.092c-8.767 2.129-14.077 9.941-19.087 24.523-3.265 9.5-6.692 17.974-12.4 24.46a42.562 42.562 0 0 1-19.269 12.725 38.416 38.416 0 0 1-19.684.824 37.7 37.7 0 0 1-17.4-9.131c-8.494-7.87-13.87-20.207-14.033-32.2A41.216 41.216 0 0 1 114.837 99c6.009-5.892 12.685-9.607 19.842-11.043a35.528 35.528 0 0 1 17.829 1.087 45.776 45.776 0 0 1 16.627 9.569l-13.444 15.173.059.056a26.486 26.486 0 0 0-9.524-5.234c-6.478-1.855-12.116-.149-17.742 5.366a20.491 20.491 0 0 0-6.639 15.294 25.153 25.153 0 0 0 7.4 17.121 18.644 18.644 0 0 0 18.168 3.926c4.977-1.538 12.714-6.945 18.154-22.779 4.154-12.089 7.316-19.882 13.35-26.659a40.08 40.08 0 0 1 20.4-12.586 38.475 38.475 0 0 1 38.055 12.536 36.718 36.718 0 0 1 9 26.568c-.62 9.526-5.125 18.209-13.495 26.152-7.558 7.172-17.665 13.188-28.626 24.35-11.327 11.535-16.956 18.654-22.173 28.337" transform="translate(-243.999 -76) translate(142.023 -11.254)"/>
    </g>
</svg>
