<svg xmlns="http://www.w3.org/2000/svg" width="23.999" height="24" viewBox="0 0 23.999 24">
  <g id="그룹_2784" data-name="그룹 2784" transform="translate(-550.93 -735.889)">
    <g id="그룹_1235" data-name="그룹 1235">
      <path id="패스_2240" data-name="패스 2240" d="M156.25,758.917V744.188l11.417-7.833,11.5,7.792L179,759.25Z" transform="translate(395.262)" fill="#bc8877"/>
      <path id="패스_1160" data-name="패스 1160" d="M574.365,759.889H551.494a.564.564,0,0,1-.564-.565V744.078a.564.564,0,0,1,.251-.47l11.435-7.624a.565.565,0,0,1,.626,0l11.436,7.624a.564.564,0,0,1,.251.47v15.246A.564.564,0,0,1,574.365,759.889Zm-22.306-1.129H573.8V744.38l-10.871-7.247-10.87,7.247Z" fill="#bc8877"/>
    </g>
    <path id="패스_1161" data-name="패스 1161" d="M566.923,757.434a.565.565,0,0,1-.565-.565v-3.708a3.428,3.428,0,1,0-6.857,0v3.708a.565.565,0,0,1-1.13,0v-3.708a4.559,4.559,0,0,1,9.117,0v3.708A.565.565,0,0,1,566.923,757.434Z" fill="#fff"/>
  </g>
</svg>
