<svg xmlns="http://www.w3.org/2000/svg" width="24" height="24" viewBox="0 0 24 24">
  <g id="그룹_4859" data-name="그룹 4859" transform="translate(-234 -1647)">
    <rect id="사각형_1186" data-name="사각형 1186" width="24" height="24" transform="translate(234 1647)" fill="none"/>
    <g id="그룹_2779" data-name="그룹 2779" transform="translate(-82 863.975)">
      <g id="그룹_1239" data-name="그룹 1239">
        <g id="그룹_1238" data-name="그룹 1238">
          <path id="패스_1162" data-name="패스 1162" d="M337.235,806.025h-18.47A2.7,2.7,0,0,1,316,803.4V788.041a2.7,2.7,0,0,1,2.765-2.623h18.47A2.7,2.7,0,0,1,340,788.041V803.4A2.7,2.7,0,0,1,337.235,806.025Zm-18.47-19.535a1.6,1.6,0,0,0-1.635,1.551V803.4a1.6,1.6,0,0,0,1.635,1.551h18.47a1.6,1.6,0,0,0,1.635-1.551V788.041a1.6,1.6,0,0,0-1.635-1.551Z" fill="#777"/>
          <g id="그룹_1237" data-name="그룹 1237">
            <path id="패스_1163" data-name="패스 1163" d="M321.073,787.937a.551.551,0,0,1-.565-.536V784.56a.565.565,0,0,1,1.129,0V787.4A.55.55,0,0,1,321.073,787.937Z" fill="#777"/>
            <path id="패스_1164" data-name="패스 1164" d="M334.927,787.937a.551.551,0,0,1-.565-.536V784.56a.566.566,0,0,1,1.13,0V787.4A.551.551,0,0,1,334.927,787.937Z" fill="#777"/>
          </g>
        </g>
        <path id="패스_1165" data-name="패스 1165" d="M337.454,791.387H318.546a.537.537,0,1,1,0-1.072h18.908a.537.537,0,1,1,0,1.072Z" fill="#777"/>
      </g>
      <path id="패스_1166" data-name="패스 1166" d="M326.611,801.683a.584.584,0,0,1-.4-.157l-3.765-3.572a.515.515,0,0,1,0-.757.585.585,0,0,1,.8,0l3.366,3.192,6.144-5.829a.587.587,0,0,1,.8,0,.516.516,0,0,1,0,.758l-6.544,6.208A.584.584,0,0,1,326.611,801.683Z" fill="#777"/>
    </g>
  </g>
</svg>
