<svg xmlns="http://www.w3.org/2000/svg" width="24" height="24" viewBox="0 0 24 24">
  <g id="그룹_2780" data-name="그룹 2780" transform="translate(-213 -10)">
    <rect id="사각형_113" data-name="사각형 113" width="24" height="24" transform="translate(213 10)" fill="none"/>
    <g id="그룹_1853" data-name="그룹 1853" transform="translate(-385 -631.838)">
      <g id="그룹_1852" data-name="그룹 1852">
        <g id="그룹_1851" data-name="그룹 1851">
          <path id="패스_2394" data-name="패스 2394" d="M610.011,665.834h0a11.98,11.98,0,0,1-6.016-1.614l-5.026,1.347a.565.565,0,0,1-.692-.692l1.347-5.025a12,12,0,1,1,10.387,5.984Zm-5.933-2.785a.561.561,0,0,1,.294.082,10.87,10.87,0,1,0-3.658-3.658.568.568,0,0,1,.063.439l-1.155,4.311,4.31-1.155A.557.557,0,0,1,604.078,663.049Z" fill="#777"/>
        </g>
      </g>
    </g>
    <path id="패스_3989" data-name="패스 3989" d="M685.238,493.869a4.191,4.191,0,0,0,.109,2.131c.662,2.293,2.63,3.647,4.659,4.769a.292.292,0,0,0,.282,0c2.028-1.122,4-2.476,4.658-4.769a4.2,4.2,0,0,0,.109-2.131,2.582,2.582,0,0,0-2.572-2.063h-.019a2.655,2.655,0,0,1-4.635,0h-.019A2.582,2.582,0,0,0,685.238,493.869Zm2.575-1.5h.013a2.06,2.06,0,0,1,2.042,1.674.288.288,0,0,0,.56,0,2.06,2.06,0,0,1,2.042-1.674A2.034,2.034,0,0,1,694.5,494a3.654,3.654,0,0,1-.1,1.853c-.591,2.046-2.377,3.308-4.248,4.355-1.872-1.048-3.658-2.309-4.248-4.355a3.659,3.659,0,0,1-.1-1.853A2.03,2.03,0,0,1,687.812,492.367Z" transform="translate(-465.146 -473.805)" fill="#777" stroke="#777" stroke-width="0.5"/>
  </g>
</svg>
