<svg xmlns="http://www.w3.org/2000/svg" width="24.001" height="24" viewBox="0 0 24.001 24">
  <g id="그룹_4860" data-name="그룹 4860" transform="translate(-234 -1781)">
    <rect id="사각형_1193" data-name="사각형 1193" width="24" height="24" transform="translate(234 1781)" fill="none"/>
    <g id="그룹_2783" data-name="그룹 2783" transform="translate(-724.332 1185.907)">
      <rect id="사각형_732" data-name="사각형 732" width="22.673" height="19.249" rx="2.062" transform="translate(958.875 598.05)" fill="#bc8877"/>
      <g id="그룹_1249" data-name="그룹 1249">
        <g id="그룹_1248" data-name="그룹 1248">
          <g id="그룹_1247" data-name="그룹 1247">
            <path id="패스_1176" data-name="패스 1176" d="M979.568,618.093H961.1a2.7,2.7,0,0,1-2.765-2.623V600.11a2.7,2.7,0,0,1,2.765-2.623h18.47a2.7,2.7,0,0,1,2.765,2.623v15.36A2.7,2.7,0,0,1,979.568,618.093ZM961.1,598.558a1.6,1.6,0,0,0-1.635,1.552v15.36a1.6,1.6,0,0,0,1.635,1.552h18.47a1.6,1.6,0,0,0,1.636-1.552V600.11a1.6,1.6,0,0,0-1.636-1.552Z" fill="#bc8877"/>
            <g id="그룹_1246" data-name="그룹 1246">
              <path id="패스_1177" data-name="패스 1177" d="M963.406,600.006a.551.551,0,0,1-.565-.536v-2.841a.566.566,0,0,1,1.13,0v2.841A.551.551,0,0,1,963.406,600.006Z" fill="#bc8877"/>
              <path id="패스_1178" data-name="패스 1178" d="M977.26,600.006a.55.55,0,0,1-.564-.536v-2.841a.565.565,0,0,1,1.129,0v2.841A.551.551,0,0,1,977.26,600.006Z" fill="#bc8877"/>
            </g>
          </g>
          <path id="패스_1179" data-name="패스 1179" d="M979.787,603.455H960.88a.536.536,0,1,1,0-1.071h18.907a.536.536,0,1,1,0,1.071Z" fill="#fff"/>
        </g>
        <path id="패스_1180" data-name="패스 1180" d="M968.944,613.751a.577.577,0,0,1-.4-.157l-3.766-3.571a.518.518,0,0,1,0-.758.588.588,0,0,1,.8,0l3.366,3.193,6.145-5.829a.586.586,0,0,1,.8,0,.516.516,0,0,1,0,.758l-6.544,6.207A.577.577,0,0,1,968.944,613.751Z" fill="#fff"/>
      </g>
    </g>
  </g>
</svg>
