<svg xmlns="http://www.w3.org/2000/svg" width="24" height="24" viewBox="0 0 24 24">
  <g id="그룹_2781" data-name="그룹 2781" transform="translate(-551 -830.087)">
    <path id="패스_1167" data-name="패스 1167" d="M562.994,842.712a3.911,3.911,0,1,1,3.912-3.912A3.916,3.916,0,0,1,562.994,842.712Zm0-6.863a2.952,2.952,0,1,0,2.952,2.951A2.955,2.955,0,0,0,562.994,835.849Z" fill="#777"/>
    <path id="패스_1168" data-name="패스 1168" d="M570.019,851.863l-.031-1A7,7,0,0,0,556,850.855l-.032,1-.76-.65a12,12,0,1,1,15.571.01Zm-7.025-8.748a7.918,7.918,0,0,1,7.862,6.719,11.041,11.041,0,1,0-15.721-.011A7.919,7.919,0,0,1,562.994,843.115Z" fill="#777"/>
    <path id="패스_1169" data-name="패스 1169" d="M563,854.087a12,12,0,0,1-7.791-2.883l-.175-.15.008-.229a7.957,7.957,0,0,1,15.906.009l.007.231-.175.149A12,12,0,0,1,563,854.087Zm-6.988-3.462a11.009,11.009,0,0,0,13.966.008,7,7,0,0,0-13.966-.008Z" fill="#777"/>
  </g>
</svg>
