<svg xmlns="http://www.w3.org/2000/svg" width="24" height="24" viewBox="0 0 24 24">
  <g id="그룹_2363" data-name="그룹 2363" transform="translate(-213 -10)">
    <rect id="사각형_113" data-name="사각형 113" width="24" height="24" transform="translate(213 10)" fill="none"/>
    <g id="그룹_2362" data-name="그룹 2362" transform="translate(-385 -631.838)">
      <path id="패스_2396" data-name="패스 2396" d="M604.781,643.781s-6.2,3.227-6.031,8.931,1.375,6.976,1.375,6.976l-1.378,5.187,5.347-1.219s6.039,3.469,10.719.5,7.5-6.031,6.5-12.281S613.656,639.906,604.781,643.781Z" fill="#bc8877"/>
      <path id="패스_2397" data-name="패스 2397" d="M610.011,665.834h0a11.98,11.98,0,0,1-6.016-1.614l-5.026,1.347a.565.565,0,0,1-.692-.692l1.347-5.025a12,12,0,1,1,10.387,5.984Zm-5.933-2.785a.561.561,0,0,1,.294.082,10.87,10.87,0,1,0-3.658-3.658.568.568,0,0,1,.063.439l-1.155,4.311,4.31-1.155A.557.557,0,0,1,604.078,663.049Z" fill="#bc8877"/>
      <path id="합치기_1" data-name="합치기 1" d="M8603.091,16862.9a4.186,4.186,0,0,0,.109,2.131c.661,2.293,2.63,3.646,4.659,4.77a.294.294,0,0,0,.141.035.3.3,0,0,0,.142-.035c2.028-1.123,4-2.477,4.658-4.77a4.208,4.208,0,0,0,.109-2.131,2.583,2.583,0,0,0-2.572-2.064h-.02a2.654,2.654,0,0,1-4.636,0h-.019A2.583,2.583,0,0,0,8603.091,16862.9Zm2.574-1.5h.013a2.063,2.063,0,0,1,2.042,1.674.288.288,0,0,0,.561,0,2.062,2.062,0,0,1,2.041-1.674,2.036,2.036,0,0,1,2.028,1.629,3.656,3.656,0,0,1-.1,1.854c-.591,2.047-2.377,3.307-4.248,4.355-1.871-1.049-3.657-2.311-4.248-4.355a3.657,3.657,0,0,1-.1-1.854A2.031,2.031,0,0,1,8605.665,16861.4Z" transform="translate(-7998 -16210.999)" fill="#fff" stroke="#fff" stroke-width="0.5"/>
    </g>
  </g>
</svg>
