<svg xmlns="http://www.w3.org/2000/svg" width="24" height="24" viewBox="0 0 24 24">
  <g id="그룹_2782" data-name="그룹 2782" transform="translate(-1005.333 -594.775)">
    <circle id="타원_168" data-name="타원 168" cx="12" cy="12" r="12" transform="translate(1005.333 594.775)" fill="#bc8877"/>
    <path id="패스_1174" data-name="패스 1174" d="M1017.328,607.4a3.912,3.912,0,1,1,3.911-3.912A3.917,3.917,0,0,1,1017.328,607.4Zm0-6.864a2.952,2.952,0,1,0,2.951,2.952A2.955,2.955,0,0,0,1017.328,600.536Z" fill="#fff"/>
    <path id="패스_1175" data-name="패스 1175" d="M1025.293,615.738a7.955,7.955,0,0,0-15.806-1.268,7.906,7.906,0,0,0-.113,1.268,12.112,12.112,0,0,0,1.05.838,7.039,7.039,0,0,1-.051-.813c0-.156.013-.309.023-.462a6.952,6.952,0,0,1,13.875,0c.01.154.023.306.023.462a7.039,7.039,0,0,1-.051.813A12.27,12.27,0,0,0,1025.293,615.738Z" fill="#fff"/>
  </g>
</svg>
