<svg xmlns="http://www.w3.org/2000/svg" width="80.098" height="72.625" viewBox="0 0 80.098 72.625">
    <defs>
        <style>
            .cls-1,.cls-4{fill:#e1e1e1}.cls-3{fill:#fff}.cls-4{stroke-width:1.5px;stroke:#aeb0b5}
        </style>
    </defs>
    <g id="icon_badge_dis" transform="translate(-140 -668.375)">
        <g id="icon_gc" transform="translate(140 669)">
            <g id="그룹_4633">
                <path id="패스_14382" d="M331.488 265.139a36 36 0 1 1 36-36 36.041 36.041 0 0 1-36 36zm0-69.426a33.426 33.426 0 1 0 33.426 33.426 33.464 33.464 0 0 0-33.426-33.426z" class="cls-1" transform="translate(-295.488 -193.139)"/>
            </g>
            <g id="그룹_4634" transform="translate(11.758 7.155)">
                <path id="패스_14383" d="M337.964 256.739a1.006 1.006 0 0 0 1.491-.087 2 2 0 0 0 .44-.7 1.562 1.562 0 0 1 .151-.4.6.6 0 0 1 .651-.3.626.626 0 0 1 .5.715 2.8 2.8 0 0 1-.761 1.563c-.888.983-2.257 1.522-3.476.42l-1.147-1.036c-1.219-1.1-.821-2.516.068-3.5a2.742 2.742 0 0 1 1.282-.875.641.641 0 0 1 .616 1.114 1.9 1.9 0 0 1-.4.208 1.807 1.807 0 0 0-.523.435 1 1 0 0 0 .064 1.492z" class="cls-1" transform="translate(-335.042 -242.814)"/>
                <path id="패스_14384" d="M352.21 242a1.014 1.014 0 0 1 .422-1.086.987.987 0 0 1 1.124-.071l4.832 3.123-1.349 1.01-.791-.559-1.576 1.18.319.912-1.325.991zm2.228 2.352l.938-.7-1.574-1.133z" class="cls-1" transform="translate(-347.31 -234.353)"/>
                <path id="패스_14385" d="M372.389 230.985l2.319 1.536-1.57.73-1.885-1.328-.889.413.843 1.813-1.424.662-2.028-4.36c-.36-.775-.245-1.181.588-1.568l1.278-.594c1.2-.558 2.341-.416 2.9.79l.038.081a1.829 1.829 0 0 1-.17 1.825zm-2.554.212l.9-.42a.7.7 0 0 0 .414-.963l-.022-.047a.7.7 0 0 0-1-.3l-.7.326c-.16.074-.186.127-.111.289z" class="cls-1" transform="translate(-358.331 -225.24)"/>
                <path id="패스_14386" d="M390.654 223.266l2.03-.5a.611.611 0 0 1 .759.487.589.589 0 0 1-.451.762l-2.03.5.208.845c.043.173.1.2.267.156l1.956-.481a.591.591 0 0 1 .755.472.613.613 0 0 1-.444.79l-2.536.625c-.893.22-1.237-.024-1.441-.855l-.869-3.53c-.2-.83-.013-1.206.879-1.426l2.461-.606a.613.613 0 0 1 .761.494.591.591 0 0 1-.45.769l-1.882.463c-.171.042-.207.089-.164.263z" class="cls-1" transform="translate(-373.527 -219.875)"/>
                <path id="패스_14387" d="M412.584 222.04l-.128-2.963a.7.7 0 1 1 1.392-.061l.2 4.678a.758.758 0 0 1-.719.745 1.091 1.091 0 0 1-1.021-.387l-2.005-3.126.154 3.549-1.392.06-.227-5.25a.793.793 0 0 1 .733-.776 1.047 1.047 0 0 1 1.005.388z" class="cls-1" transform="translate(-387.89 -218.34)"/>
                <path id="패스_14388" d="M430.771 220.593a1.013 1.013 0 0 1 1.08-.437.987.987 0 0 1 .821.771l1.033 5.659-1.659-.292-.134-.959-1.94-.335-.446.857-1.629-.287zm-.189 3.233l1.154.2-.252-1.923z" class="cls-1" transform="translate(-401.537 -219.627)"/>
                <path id="패스_14389" d="M451.668 229.258l1.662-4.363-1.095-.416a.613.613 0 0 1-.344-.839.592.592 0 0 1 .807-.377l3.679 1.4a.591.591 0 0 1 .352.818.613.613 0 0 1-.815.4l-1.095-.416-1.661 4.362z" class="cls-1" transform="translate(-418.56 -221.83)"/>
                <path id="패스_14390" d="M465.891 232.293a.8.8 0 0 1 1.392.774l-2.565 4.6-1.392-.774z" class="cls-1" transform="translate(-426.909 -228.053)"/>
                <path id="패스_14391" d="M474.245 240.121a2.586 2.586 0 0 1 4.08 3.113l-.988 1.294a2.586 2.586 0 0 1-4.08-3.113zm2.865 2.129a1 1 0 0 0-1.6-1.217l-1.042 1.365a1 1 0 0 0 1.6 1.217z" class="cls-1" transform="translate(-433.671 -233.296)"/>
                <path id="패스_14392" d="M489.61 257.652l2.291-1.884a.7.7 0 1 1 .885 1.077l-3.617 2.975a.758.758 0 0 1-1.028-.127 1.09 1.09 0 0 1-.3-1.049l1.293-3.483-2.744 2.257-.886-1.077 4.055-3.341a.794.794 0 0 1 1.061.119 1.049 1.049 0 0 1 .295 1.037z" class="cls-1" transform="translate(-442.788 -243.051)"/>
            </g>
            <g id="그룹_4638" transform="translate(7.995 7.997)">
                <path id="패스_14627" fill="#fff" stroke="#f1f1f1" stroke-width="1.5px" d="M19.8 0A19.8 19.8 0 1 1 0 19.8 19.8 19.8 0 0 1 19.8 0z" transform="rotate(-45 33.805 14.002)"/>
            </g>
            <g id="그룹_4644" transform="translate(57.484 43.165)">
                <path id="패스_14427" d="M499.065 344.283a2.94 2.94 0 0 1 1.023 1.329 6.084 6.084 0 0 1 .354 1.154c.067.314.138.692-.156.9a2.978 2.978 0 0 1-.749.338 4.75 4.75 0 0 1-1.5.234 2.242 2.242 0 0 1-1.554-.471 1.121 1.121 0 0 1-.05-1.612 1.172 1.172 0 0 1 .535-.292 1.02 1.02 0 0 1 .574-.013 1.213 1.213 0 0 1-.181-1.313c.377-.702 1.119-.627 1.704-.254z" class="cls-1" transform="translate(-496.12 -344.004)"/>
            </g>
            <g id="그룹_4645" transform="translate(11.029 47.431)">
                <path id="패스_14428" d="M337.689 362.66a2.938 2.938 0 0 1-1.6.5 6.078 6.078 0 0 1-1.205-.069c-.318-.046-.7-.112-.787-.458a2.981 2.981 0 0 1-.057-.82 4.75 4.75 0 0 1 .3-1.484 2.242 2.242 0 0 1 .982-1.294 1.121 1.121 0 0 1 1.529.513 1.171 1.171 0 0 1 .088.6 1.02 1.02 0 0 1-.187.543 1.212 1.212 0 0 1 1.294.287c.525.593.196 1.264-.357 1.682z" class="cls-1" transform="translate(-334.035 -358.911)"/>
            </g>
            <g id="그룹_4655" transform="translate(18.23 27.241)">
                <g id="그룹_4648" transform="translate(6.678)">
                    <g id="그룹_4647">
                        <path id="패스_14430" d="M394.191 292.841c-.873-3.95-6.391-4.919-9.071-2.248a7.351 7.351 0 0 0-1.534 7.026 18.254 18.254 0 0 0 3.8 6.96 41.1 41.1 0 0 0 5.814 5.621 1.337 1.337 0 0 0 1.3.419 5.035 5.035 0 0 0 1.564-1.254q1.671-1.555 3.219-3.235a25.618 25.618 0 0 0 4.9-6.685c1.027-2.323 1.481-5.211.036-7.467a6.236 6.236 0 0 0-6.535-2.692c-2.373.58-3.76 2.767-4.625 4.888-.168.41.5.589.665.183.7-1.717 1.782-3.538 3.6-4.237a5.437 5.437 0 0 1 5.688 1.432c1.722 1.8 1.681 4.394.93 6.626a18.666 18.666 0 0 1-3.886 6.059 46.175 46.175 0 0 1-5.355 5.445.709.709 0 0 1-1.078-.024c-.208-.168-.411-.341-.614-.513q-.716-.6-1.414-1.229c-.84-.755-1.656-1.537-2.429-2.36a22.751 22.751 0 0 1-4.025-5.695c-1.035-2.162-1.622-4.716-.684-7.018a4.838 4.838 0 0 1 5.049-3.069 4.466 4.466 0 0 1 4.022 3.251c.1.433.76.25.665-.183z" class="cls-1" transform="translate(-383.015 -288.802)"/>
                        <path id="패스_14431" d="M393.46 310.234a1.89 1.89 0 0 1-1.166-.536 40.978 40.978 0 0 1-5.855-5.662 18.252 18.252 0 0 1-3.858-7.071 7.564 7.564 0 0 1 1.609-7.3 6.019 6.019 0 0 1 5.891-1.328 5.153 5.153 0 0 1 3.26 2.592 6.1 6.1 0 0 1 3.546-2.644 6.531 6.531 0 0 1 6.841 2.814c1.28 2 1.274 4.817-.015 7.735a25.514 25.514 0 0 1-4.947 6.763c-1.032 1.12-2.121 2.214-3.235 3.251-.1.095-.2.2-.312.307a3.724 3.724 0 0 1-1.358 1.009 1.277 1.277 0 0 1-.401.07zm-5.2-21.589a5.186 5.186 0 0 0-3.665 1.425 7.007 7.007 0 0 0-1.459 6.756 17.7 17.7 0 0 0 3.746 6.849 40.441 40.441 0 0 0 5.776 5.583c.4.328.684.484 1.032.369a3.275 3.275 0 0 0 1.132-.869c.113-.114.222-.224.329-.323 1.1-1.027 2.181-2.11 3.2-3.22a25.069 25.069 0 0 0 4.845-6.608c.573-1.3 1.725-4.594.057-7.2a5.951 5.951 0 0 0-6.228-2.57 5.656 5.656 0 0 0-3.421 2.718l.044.138a5.866 5.866 0 0 1 2.847-2.563 5.716 5.716 0 0 1 6 1.5c1.56 1.632 1.923 4.152.994 6.913a19.072 19.072 0 0 1-3.94 6.154 46.251 46.251 0 0 1-5.389 5.478.982.982 0 0 1-1.438-.022c-.169-.137-.336-.278-.5-.418l-.117-.1c-.517-.437-.981-.84-1.42-1.235-.919-.826-1.72-1.6-2.446-2.377a22.823 22.823 0 0 1-4.074-5.767c-.9-1.876-1.747-4.656-.691-7.248a5.1 5.1 0 0 1 5.342-3.244 4.9 4.9 0 0 1 4.088 2.873l.082-.14a4.539 4.539 0 0 0-3.053-2.616 5.935 5.935 0 0 0-1.677-.236zm-.023.66a4.538 4.538 0 0 0-4.244 2.921c-.978 2.4-.171 5.016.677 6.788a22.273 22.273 0 0 0 3.976 5.623c.716.761 1.5 1.528 2.412 2.343.435.39.9.791 1.407 1.223l.117.1c.163.138.327.277.493.411.319.258.433.262.719.026a45.766 45.766 0 0 0 5.321-5.411 18.588 18.588 0 0 0 3.832-5.964c.859-2.554.543-4.865-.866-6.339a5.136 5.136 0 0 0-5.381-1.363c-1.416.544-2.54 1.879-3.438 4.079a.661.661 0 0 1-.873.355.559.559 0 0 1-.317-.753q.214-.526.449-1a4.19 4.19 0 0 0-3.771-3.012 4.877 4.877 0 0 0-.517-.032zm4.688 3.5q-.17.359-.329.751c0 .01.033.027.077.02a.075.075 0 0 0 .063-.051q.148-.364.3-.7a.633.633 0 0 1-.115-.019z" class="cls-1" transform="translate(-382.286 -288.078)"/>
                    </g>
                </g>
                <g id="그룹_4651" transform="translate(0 5.866)">
                    <g id="그룹_4649" transform="translate(.481 .48)">
                        <path id="패스_14432" d="M368.946 316.077a.883.883 0 0 0-.826-.805 1.068 1.068 0 0 0-1 .651c-.648 1.5 1.555 2.452 2.576 1.473a2.217 2.217 0 0 0 .5-2.288c-.7-2.136-2.919-3.027-4.86-3.708a18.066 18.066 0 0 0-3.357-.932 1.5 1.5 0 0 0-1.2.194 1.215 1.215 0 0 0-.264 1.238 2.987 2.987 0 0 0 1.013 1.482 7.511 7.511 0 0 0 1.558.939c-.46-.085-1.02-.136-1.312.23a.854.854 0 0 0 0 .956 1.908 1.908 0 0 0 .777.641 5.317 5.317 0 0 0 2.111.586c-.3-.086-.553.31-.45.6a.988.988 0 0 0 .711.536 4.73 4.73 0 0 0 2.76-.16" class="cls-3" transform="translate(-360.459 -310.431)"/>
                    </g>
                    <g id="그룹_4650">
                        <path id="패스_14433" d="M368.435 315.224a1.25 1.25 0 0 0-1.878-.968 1.563 1.563 0 0 0-.6 1.99 2.02 2.02 0 0 0 1.693 1.036 1.961 1.961 0 0 0 1.93-1.2c.858-1.876-.754-3.774-2.273-4.68a15 15 0 0 0-2.734-1.19 15.494 15.494 0 0 0-3.606-.964 1.432 1.432 0 0 0-1.639 1.888c.334 1.316 1.6 2.072 2.73 2.627l.265-.63a1.893 1.893 0 0 0-1.482.167 1.12 1.12 0 0 0-.321 1.313c.438 1.155 2.216 1.524 3.287 1.61v-.69a.762.762 0 0 0-.8.684 1.013 1.013 0 0 0 .678 1.02 4.481 4.481 0 0 0 3.238-.051c.41-.157.233-.824-.183-.665a4.388 4.388 0 0 1-1.643.281 3.785 3.785 0 0 1-.736-.074 1.728 1.728 0 0 1-.326-.088c-.082-.035-.553-.442-.225-.418.443.032.439-.654 0-.69a4.869 4.869 0 0 1-2.087-.621c-.272-.162-.707-.488-.592-.871.124-.41.71-.3 1.011-.244.355.061.644-.445.266-.63a5.58 5.58 0 0 1-1.959-1.354c-.478-.585-.893-1.9.281-1.891a8.671 8.671 0 0 1 2.468.549c.695.222 1.387.461 2.067.724a7.023 7.023 0 0 1 3.178 2.067 2.928 2.928 0 0 1 .673 1.9 1.473 1.473 0 0 1-1.073 1.4 1.423 1.423 0 0 1-1.419-.546.846.846 0 0 1-.03-.83c.224-.456 1.064-.659 1.152.025.056.434.746.439.69 0z" class="cls-1" transform="translate(-359.122 -309.098)"/>
                        <path id="패스_14434" d="M364.75 317.307a3.534 3.534 0 0 1-1.485-.3 1.168 1.168 0 0 1-.763-1.132 3.156 3.156 0 0 1-2.472-1.571 1.256 1.256 0 0 1 .368-1.477 3.547 3.547 0 0 1-1.565-2.015 1.671 1.671 0 0 1 .284-1.539 1.722 1.722 0 0 1 1.506-.525 14.994 14.994 0 0 1 3.506.924l.134.047a15.186 15.186 0 0 1 2.759 1.2c1.723 1.027 3.187 2.986 2.329 4.861a2.107 2.107 0 0 1-2.068 1.28 2.421 2.421 0 0 1-.619-.123l-.05.022a5.423 5.423 0 0 1-1.864.348zm-1.968-1.377c-.037.487.449.753.6.824a4.277 4.277 0 0 0 2.9.024 2.144 2.144 0 0 1-.425-.305 4.654 4.654 0 0 1-1.13.118 3.941 3.941 0 0 1-.763-.077l-.042-.009a1.584 1.584 0 0 1-.311-.088 1.093 1.093 0 0 1-.412-.429c-.121-.015-.264-.034-.417-.059zm4.106.784a2.136 2.136 0 0 0 .413.068 1.831 1.831 0 0 0 1.792-1.115c.785-1.715-.6-3.535-2.216-4.5a14.952 14.952 0 0 0-2.708-1.178l-.134-.047a14.774 14.774 0 0 0-3.438-.91 1.426 1.426 0 0 0-1.264.428 1.4 1.4 0 0 0-.225 1.285 3.38 3.38 0 0 0 1.567 1.929 1.621 1.621 0 0 1 .587-.109 4.312 4.312 0 0 1-1.283-1.018 1.879 1.879 0 0 1-.431-1.7.793.793 0 0 1 .822-.422 8.179 8.179 0 0 1 2.354.506l.157.05c.744.237 1.423.475 2.075.727a7.148 7.148 0 0 1 3.24 2.114 3.05 3.05 0 0 1 .7 2 1.617 1.617 0 0 1-1.188 1.534 1.7 1.7 0 0 1-.8-.055.553.553 0 0 1 .026.275.512.512 0 0 1-.046.138zm-.692-.333a1.942 1.942 0 0 0 .419.24.222.222 0 0 0 .035-.09.242.242 0 0 0-.07-.219.142.142 0 0 0-.15-.012q-.116.043-.23.081zm-2.626-.362a1.054 1.054 0 0 0 .164.137 1.38 1.38 0 0 0 .253.069l.043.009a3.674 3.674 0 0 0 .708.071 4.469 4.469 0 0 0 .905-.078 1.669 1.669 0 0 1 .483-2.454 1.357 1.357 0 0 1 1.3-.058 1.457 1.457 0 0 1 .789 1.13.413.413 0 0 1-.373.484.525.525 0 0 1-.6-.447.316.316 0 0 0-.26-.314.653.653 0 0 0-.625.333.7.7 0 0 0 .022.692 1.29 1.29 0 0 0 1.272.481 1.336 1.336 0 0 0 .958-1.275 2.771 2.771 0 0 0-.644-1.809 6.9 6.9 0 0 0-3.116-2.02c-.647-.25-1.321-.485-2.059-.721l-.157-.05a7.978 7.978 0 0 0-2.268-.492h-.007a.556.556 0 0 0-.557.26 1.616 1.616 0 0 0 .394 1.4 5.218 5.218 0 0 0 1.829 1.275l.138.024-.016.038a.42.42 0 0 1 .2.508.539.539 0 0 1-.566.371l-.007.016-.052-.026c-.372-.063-.739-.1-.813.152-.091.3.34.6.529.708a4.722 4.722 0 0 0 2.024.6l.131.01v.017a.508.508 0 0 1 .33.528.431.431 0 0 1-.33.407v.024zm3.268-2.157a1.13 1.13 0 0 0-.568.158 1.421 1.421 0 0 0-.543 1.8 1.479 1.479 0 0 0 .225.333q.192-.052.377-.123l.051-.017a1.158 1.158 0 0 1-.236-.272.992.992 0 0 1-.036-.967.932.932 0 0 1 .926-.487.593.593 0 0 1 .495.557.245.245 0 0 0 .281.2.131.131 0 0 0 .127-.165 1.174 1.174 0 0 0-.633-.913 1.05 1.05 0 0 0-.466-.103zm-3.979 1.79c.171.027.324.046.448.059v-.388a.6.6 0 0 0-.447.33zm.732-.253v.285a.187.187 0 0 0 .047-.117.261.261 0 0 0-.046-.167zm-2.935-2.4a.964.964 0 0 0-.088.058.982.982 0 0 0-.273 1.149c.319.842 1.423 1.223 2.277 1.394a.943.943 0 0 1 .263-.362 4.7 4.7 0 0 1-1.544-.561c-.529-.314-.762-.681-.656-1.033a.542.542 0 0 1 .472-.384c-.152-.081-.307-.169-.451-.26zm1.381-.027l-.134.319a.26.26 0 0 0 .172-.165.134.134 0 0 0-.038-.153zm-1.038-.1c.207.121.418.233.629.339l.137-.325a2.323 2.323 0 0 0-.765-.012z" class="cls-1" transform="translate(-358.764 -308.74)"/>
                    </g>
                </g>
                <g id="그룹_4654" transform="translate(25.101 5.819)">
                    <g id="그룹_4652" transform="translate(.488 .486)">
                        <path id="패스_14435" d="M450.275 315.933a.883.883 0 0 1 .826-.805 1.069 1.069 0 0 1 1 .651c.648 1.5-1.555 2.452-2.576 1.473a2.217 2.217 0 0 1-.5-2.288c.7-2.136 2.919-3.027 4.86-3.708a18.075 18.075 0 0 1 3.357-.932 1.5 1.5 0 0 1 1.2.194 1.216 1.216 0 0 1 .264 1.238 2.991 2.991 0 0 1-1.013 1.482 7.524 7.524 0 0 1-1.558.939c.46-.085 1.02-.136 1.312.23a.854.854 0 0 1 0 .956 1.91 1.91 0 0 1-.777.641 5.319 5.319 0 0 1-2.111.586c.3-.086.553.31.45.6a.986.986 0 0 1-.711.535 4.73 4.73 0 0 1-2.76-.159" class="cls-3" transform="translate(-448.902 -310.287)"/>
                    </g>
                    <g id="그룹_4653">
                        <path id="패스_14436" d="M449.748 315.063a.575.575 0 0 1 .994-.257.892.892 0 0 1 .218.873 1.254 1.254 0 0 1-1.056.743 1.272 1.272 0 0 1-1.373-.809 2.331 2.331 0 0 1 .247-2.091 5.863 5.863 0 0 1 2.927-2.273 21.314 21.314 0 0 1 4.277-1.381c.414-.081 1.194-.286 1.471.177a1.365 1.365 0 0 1-.175 1.273 4.775 4.775 0 0 1-2.192 1.691c-.375.184-.093.692.266.63.3-.051.72-.138.927.133.3.4-.2.792-.507.981a4.8 4.8 0 0 1-2.087.621c-.439.035-.444.722 0 .69.358-.026-.123.368-.144.379a1.441 1.441 0 0 1-.338.113 3.732 3.732 0 0 1-.8.089 4.384 4.384 0 0 1-1.643-.281c-.415-.158-.595.508-.183.665a4.475 4.475 0 0 0 3.238.05 1.034 1.034 0 0 0 .686-.954.771.771 0 0 0-.81-.75v.69c1.074-.087 2.848-.454 3.287-1.61a1.12 1.12 0 0 0-.321-1.314 1.894 1.894 0 0 0-1.482-.167l.266.63a4.98 4.98 0 0 0 2.587-2.232c.355-.8.29-1.946-.7-2.231a3.3 3.3 0 0 0-1.523.063 16.025 16.025 0 0 0-1.962.535 23.316 23.316 0 0 0-3.012 1.16c-1.6.79-3.408 2.358-3.108 4.355a2.113 2.113 0 0 0 1.6 1.836 2.183 2.183 0 0 0 1.9-.569 1.568 1.568 0 0 0 0-2.2 1.263 1.263 0 0 0-2.171.744c-.057.439.633.435.69 0z" class="cls-1" transform="translate(-447.542 -308.931)"/>
                        <path id="패스_14437" d="M452.028 317.148a5.422 5.422 0 0 1-1.865-.343c-.017-.007-.033-.013-.049-.021a2.36 2.36 0 0 1-1.177.088 2.266 2.266 0 0 1-1.719-1.954c-.3-2.015 1.448-3.647 3.186-4.5a23.555 23.555 0 0 1 3.03-1.167 15.923 15.923 0 0 1 1.979-.539 3.425 3.425 0 0 1 1.589-.06 1.3 1.3 0 0 1 .847.711 2.143 2.143 0 0 1-.056 1.714 3.855 3.855 0 0 1-1.414 1.6 1.255 1.255 0 0 1 .367 1.476 3.159 3.159 0 0 1-2.471 1.571v.04a1.161 1.161 0 0 1-.767 1.091 3.516 3.516 0 0 1-1.48.293zm-1.537-.529a4.265 4.265 0 0 0 2.9-.025c.149-.07.634-.334.6-.817v-.007c-.145.024-.281.041-.4.055a.974.974 0 0 1-.342.387 1.534 1.534 0 0 1-.372.125 3.85 3.85 0 0 1-.835.093 4.742 4.742 0 0 1-1.126-.117 2.11 2.11 0 0 1-.424.306zm5.948-7.762a5.035 5.035 0 0 0-.944.124 15.691 15.691 0 0 0-1.972.535 23.265 23.265 0 0 0-2.993 1.153c-1.649.812-3.31 2.343-3.031 4.206a1.983 1.983 0 0 0 1.49 1.717 2.07 2.07 0 0 0 .9-.037.511.511 0 0 1-.043-.14.548.548 0 0 1 .028-.28 1.738 1.738 0 0 1-.31.07 1.406 1.406 0 0 1-1.522-.892 2.477 2.477 0 0 1 .254-2.219 6.1 6.1 0 0 1 2.994-2.334 21.455 21.455 0 0 1 4.306-1.39l.106-.021c.452-.092 1.208-.247 1.514.265a1.516 1.516 0 0 1-.174 1.417 3.907 3.907 0 0 1-1.527 1.373 1.618 1.618 0 0 1 .587.11 3.692 3.692 0 0 0 1.432-1.558 1.883 1.883 0 0 0 .058-1.479 1.011 1.011 0 0 0-.668-.558 1.752 1.752 0 0 0-.484-.062zm-6.164 7.268a.12.12 0 0 0-.078.028.242.242 0 0 0-.07.219.219.219 0 0 0 .036.092 1.942 1.942 0 0 0 .421-.241q-.12-.038-.237-.083a.194.194 0 0 0-.072-.015zm.858-.056a4.392 4.392 0 0 0 .905.077 3.579 3.579 0 0 0 .774-.085 1.313 1.313 0 0 0 .305-.1 1.185 1.185 0 0 0 .112-.1h-.044v-.024a.43.43 0 0 1-.329-.407.508.508 0 0 1 .329-.528v-.017l.131-.01a4.64 4.64 0 0 0 2.024-.6 1.064 1.064 0 0 0 .528-.555.264.264 0 0 0-.06-.219c-.145-.191-.481-.133-.751-.086l-.053.026-.007-.016a.541.541 0 0 1-.565-.369.421.421 0 0 1 .194-.51l-.016-.038.138-.024a4.583 4.583 0 0 0 2.048-1.593c.1-.17.4-.754.176-1.13-.2-.339-.811-.214-1.214-.132l-.109.022a21.158 21.158 0 0 0-4.248 1.372 5.836 5.836 0 0 0-2.86 2.214 2.206 2.206 0 0 0-.241 1.964 1.135 1.135 0 0 0 1.224.725 1.121 1.121 0 0 0 .94-.646.756.756 0 0 0-.182-.728.538.538 0 0 0-.525-.12.335.335 0 0 0-.229.293.5.5 0 0 1-.313.408.519.519 0 0 1-.507-.049.409.409 0 0 1-.151-.4 1.427 1.427 0 0 1 .943-1.184 1.408 1.408 0 0 1 1.469.357 1.66 1.66 0 0 1 .491 1.184 1.735 1.735 0 0 1-.327 1.028zm-.737-.211a.522.522 0 0 1 .052.017 3.966 3.966 0 0 0 .379.124 1.444 1.444 0 0 0 .351-.952 1.377 1.377 0 0 0-.407-.983 1.121 1.121 0 0 0-1.931.661.126.126 0 0 0 .042.133.239.239 0 0 0 .225.013.22.22 0 0 0 .141-.182.619.619 0 0 1 .417-.525.814.814 0 0 1 .817.184 1.027 1.027 0 0 1 .255 1.019 1.06 1.06 0 0 1-.337.491zm3.073-.694v.388c.124-.013.277-.032.448-.059a.645.645 0 0 0-.148-.19.58.58 0 0 0-.3-.139zm-.284.077a.257.257 0 0 0-.046.169.184.184 0 0 0 .046.116zm.759-.161l.011.01a.944.944 0 0 1 .25.351c.853-.171 1.957-.553 2.276-1.394a.981.981 0 0 0-.273-1.149.907.907 0 0 0-.087-.058c-.149.093-.3.181-.458.265a.6.6 0 0 1 .371.224.549.549 0 0 1 .113.444 1.352 1.352 0 0 1-.659.745 4.574 4.574 0 0 1-1.543.563zm.8-2.267a.136.136 0 0 0-.037.156.268.268 0 0 0 .174.168zm.272-.084l.137.325c.213-.107.425-.219.63-.338a2.3 2.3 0 0 0-.771.013z" class="cls-1" transform="translate(-447.184 -308.574)"/>
                    </g>
                </g>
            </g>
            <g id="그룹_4662" transform="translate(32.639 35.131)">
                <g id="그룹_4658" transform="translate(.7 4.454)">
                    <g id="그룹_4656" transform="translate(.318 .319)">
                        <path id="패스_14438" d="M413.117 332.695a2.633 2.633 0 0 0 2.357 1.653 2.54 2.54 0 0 0 2.548-1.618" class="cls-1" transform="translate(-413.117 -332.695)"/>
                    </g>
                    <g id="그룹_4657">
                        <path id="패스_14439" d="M414.811 333.867c-.057 0-.11 0-.161-.005a2.932 2.932 0 0 1-2.638-1.871.318.318 0 0 1 .6-.2 2.307 2.307 0 0 0 2.077 1.436 2.2 2.2 0 0 0 2.222-1.4.318.318 0 0 1 .606.2 2.779 2.779 0 0 1-2.706 1.84z" class="cls-1" transform="translate(-411.996 -331.573)"/>
                    </g>
                </g>
                <g id="그룹_4661">
                    <g id="그룹_4659">
                        <path id="패스_14440" d="M410.317 318.6a.786.786 0 0 1-.786-.786v-1.144a.786.786 0 0 1 .786-.786.786.786 0 0 1 .786.786v1.145a.786.786 0 0 1-.786.785z" class="cls-1" transform="translate(-409.531 -315.884)"/>
                    </g>
                    <g id="그룹_4660" transform="translate(5.175)">
                        <path id="패스_14441" d="M428.546 318.6a.786.786 0 0 1-.786-.786v-1.144a.786.786 0 0 1 .786-.786.787.787 0 0 1 .787.786v1.145a.787.787 0 0 1-.787.785z" class="cls-1" transform="translate(-427.76 -315.884)"/>
                    </g>
                </g>
            </g>
            <g id="그룹_4698" transform="translate(15.157 48.701)">
                <path id="패스_14493" d="M352.1 378.789c-1.175 1.1-2.419.712-3.346-.278s-1.389-2.47-.121-3.657l1.262-1.182c1.28-1.2 2.7-.641 3.657.378a3.172 3.172 0 0 1 .866 1.493.72.72 0 0 1-.488.859.685.685 0 0 1-.742-.294 1.921 1.921 0 0 1-.176-.432 2.477 2.477 0 0 0-.483-.667 1.084 1.084 0 0 0-1.578-.108l-1.158 1.084a1.058 1.058 0 0 0-.012 1.565.9.9 0 0 0 1.312.194l.069-.065c.116-.109.112-.148.009-.258l-.179-.191a.612.612 0 0 1 .053-.918.636.636 0 0 1 .937-.009l.493.527c.64.683.588 1.057-.061 1.665z" class="cls-1" transform="translate(-347.851 -370.107)"/>
                <path id="패스_14494" d="M365.229 386.915a2.669 2.669 0 0 1 4.456 2.9l-.947 1.456a2.669 2.669 0 0 1-4.456-2.9zm3.125 1.976a1.039 1.039 0 0 0-1.742-1.133l-1 1.536a1.04 1.04 0 0 0 1.742 1.133z" class="cls-1" transform="translate(-359.312 -379.282)"/>
                <path id="패스_14495" d="M384.166 396.613a2.67 2.67 0 0 1 5.03 1.718l-.562 1.644a2.67 2.67 0 0 1-5.031-1.718zm3.514 1.15a1.04 1.04 0 0 0-1.967-.672l-.592 1.735a1.04 1.04 0 0 0 1.967.672z" class="cls-1" transform="translate(-373.344 -385.863)"/>
                <path id="패스_14496" d="M407.75 399.208a2.644 2.644 0 0 1 2.557 3.165l-.044.514a2.644 2.644 0 0 1-3.057 2.686l-1.178-.1c-.949-.081-1.2-.445-1.127-1.354l.33-3.866c.078-.909.391-1.225 1.34-1.144zm.955 2.9c.079-.925-.376-1.474-1.119-1.537l-.522-.044c-.182-.016-.233.02-.249.209l-.271 3.171c-.016.19.028.233.21.249l.522.044c.743.063 1.284-.4 1.364-1.325z" class="cls-1" transform="translate(-388.696 -388.799)"/>
                <path id="패스_14497" d="M435.192 401.156a1.056 1.056 0 0 0 1.336.826 2.019 2.019 0 0 0 .782-.345 1.586 1.586 0 0 1 .361-.26.618.618 0 0 1 .734.131.681.681 0 0 1 .014.927 2.842 2.842 0 0 1-1.559.91 2.441 2.441 0 0 1-3.239-1.734l-.391-1.6a2.441 2.441 0 0 1 2.079-3.03 2.771 2.771 0 0 1 1.61.008.72.72 0 0 1 .509.848.686.686 0 0 1-.62.5 1.918 1.918 0 0 1-.464-.058 1.824 1.824 0 0 0-.7.065 1.056 1.056 0 0 0-.806 1.348z" class="cls-1" transform="translate(-408.931 -387.203)"/>
                <path id="패스_14498" d="M453.557 392.254a1.048 1.048 0 0 1 .61-1.053 1.022 1.022 0 0 1 1.169.141l4.472 4.18-1.553.8-.724-.734-1.814.931.181 1.013-1.525.782zm1.914 2.879l1.08-.554-1.438-1.482z" class="cls-1" transform="translate(-423.543 -383.059)"/>
                <path id="패스_14499" d="M470.889 380.941l2.8.906-1.347 1.183-2.3-.818-.763.67 1.408 1.6-1.222 1.073-3.387-3.855c-.6-.686-.612-1.13.1-1.758l1.1-.963c1.031-.906 2.217-1.082 3.154-.015l.063.072a1.963 1.963 0 0 1 .394 1.905zm-2.494.935l.775-.68a.734.734 0 0 0 .115-1.094l-.037-.042a.734.734 0 0 0-1.1-.026l-.6.529c-.137.12-.147.181-.021.325z" class="cls-1" transform="translate(-432.199 -373.859)"/>
                <path id="패스_14500" d="M481.87 366.349l1.26-1.762a.645.645 0 0 1 .942-.117.622.622 0 0 1 .174.915l-1.26 1.762.755.54c.155.111.215.1.321-.053l1.214-1.7a.623.623 0 0 1 .929-.125.647.647 0 0 1 .2.933l-1.574 2.2c-.554.774-1 .808-1.74.277l-3.156-2.257c-.742-.531-.854-.962-.3-1.736l1.528-2.136a.647.647 0 0 1 .948-.112.624.624 0 0 1 .181.92l-1.168 1.633c-.106.148-.1.21.053.321z" class="cls-1" transform="translate(-441.976 -362.825)"/>
            </g>
        </g>
        <g id="icon_lock" transform="translate(187.155 669.125)">
            <path id="패스_14644" d="M-161.149 296.318h-2.319v-7.579a6.345 6.345 0 0 0-6.282-6.379h-.01a6.345 6.345 0 0 0-6.272 6.4l.01 7.039h-2.319l-.01-7.039a8.687 8.687 0 0 1 8.587-8.76h.014a8.687 8.687 0 0 1 8.6 8.737z" class="cls-4" transform="translate(186.183 -280.001)"/>
            <g id="그룹_4795" transform="translate(0 12.966)">
                <path id="패스_14642" d="M-168.428 301.984a8.919 8.919 0 0 0-7.118 3.579 8.9 8.9 0 0 0-7.125-3.556 9.036 9.036 0 0 0-8.96 9.118c.008 5.027 8.995 13.188 8.995 13.188l7.128 5.84 7.115-5.863s8.963-8.189 8.955-13.217a9.041 9.041 0 0 0-8.99-9.089z" class="cls-4" transform="translate(191.631 -301.984)"/>
            </g>
            <path id="합치기_12" fill="#fff" stroke="#aeb0b5" stroke-miterlimit="10" stroke-width="1.5px" d="M1.862 6.088a3.187 3.187 0 1 1 2.66-.005l.008 4.539-2.66.005z" transform="translate(13.006 21.549)"/>
        </g>
    </g>
</svg>
