<svg xmlns="http://www.w3.org/2000/svg" width="140" height="102">
    <defs>
        <style>
            .cls-7{fill:none}.cls-11,.cls-3,.cls-4,.cls-7,.cls-9{stroke:#a16f5e;stroke-linecap:round;stroke-linejoin:round;stroke-width:1.25px}.cls-3{fill:#ffddc6}.cls-4{fill:#fff3e3}.cls-5{fill:#ffddcb}.cls-6{fill:#a16f5e}.cls-9{fill:#b28247}.cls-11{fill:#7a6a56}
        </style>
    </defs>
    <g id="imgNouser" transform="translate(-110 -113)">
        <path id="사각형_2966" data-name="사각형 2966" transform="translate(110 113)" style="fill:none" d="M0 0h140v102H0z"/>
        <g id="그룹_7506" data-name="그룹 7506" transform="translate(-.559)">
            <g id="그룹_7493" data-name="그룹 7493" transform="translate(112.558 114.826)">
                <path id="패스_21152" data-name="패스 21152" d="M614.7 252.488a32.75 32.75 0 1 0-10.58 10.58l15.494 4.915z" transform="translate(-554.123 -202.493)" style="stroke:#a16f5e;stroke-linecap:round;stroke-linejoin:round;stroke-width:1.25px;fill:#fff8c4"/>
                <g id="그룹_7492" data-name="그룹 7492" transform="translate(9.868 12.91)">
                    <g id="그룹_7490" data-name="그룹 7490">
                        <g id="그룹_7489" data-name="그룹 7489" transform="translate(0 5.008)">
                            <g id="그룹_7488" data-name="그룹 7488">
                                <g id="그룹_7486" data-name="그룹 7486">
                                    <g id="그룹_7484" data-name="그룹 7484">
                                        <g id="그룹_7483" data-name="그룹 7483" transform="translate(0 15.89)">
                                            <path id="패스_21153" data-name="패스 21153" class="cls-3" d="M582.726 275.582a4.256 4.256 0 1 0-4.256 4.256 4.256 4.256 0 0 0 4.256-4.256z" transform="translate(-574.213 -271.326)"/>
                                            <path id="패스_21154" data-name="패스 21154" class="cls-3" d="M658.549 275.582a4.256 4.256 0 1 0-4.256 4.256 4.256 4.256 0 0 0 4.256-4.256z" transform="translate(-612.794 -271.326)"/>
                                        </g>
                                        <ellipse id="타원_770" data-name="타원 770" class="cls-4" cx="18.586" cy="19.295" rx="18.586" ry="19.295" transform="translate(4.292)"/>
                                    </g>
                                    <g id="그룹_7485" data-name="그룹 7485" transform="translate(7.449 18.231)">
                                        <path id="패스_21155" data-name="패스 21155" class="cls-5" d="M599.168 280.986a4.895 4.895 0 1 1-4.895-4.894 4.895 4.895 0 0 1 4.895 4.894z" transform="translate(-589.378 -276.092)"/>
                                        <path id="패스_21156" data-name="패스 21156" class="cls-5" d="M642.062 280.986a4.895 4.895 0 1 1-4.9-4.894 4.9 4.9 0 0 1 4.9 4.894z" transform="translate(-611.204 -276.092)"/>
                                    </g>
                                </g>
                                <g id="그룹_7487" data-name="그룹 7487" transform="translate(15.11 18.018)">
                                    <path id="패스_21157" data-name="패스 21157" class="cls-6" d="M608.169 277.467a1.608 1.608 0 1 1-1.6-1.809 1.712 1.712 0 0 1 1.6 1.809z" transform="translate(-604.977 -275.658)"/>
                                    <path id="패스_21158" data-name="패스 21158" class="cls-6" d="M633.3 277.467a1.609 1.609 0 1 1-1.6-1.809 1.712 1.712 0 0 1 1.6 1.809z" transform="translate(-617.763 -275.658)"/>
                                </g>
                            </g>
                            <path id="패스_21159" data-name="패스 21159" class="cls-7" d="M618.339 283.237a1.7 1.7 0 0 0 2.408 0" transform="translate(-596.666 -261.496)"/>
                            <path id="패스_21160" data-name="패스 21160" d="M611.258 290.748a4.682 4.682 0 0 0 9.364 0z" transform="translate(-593.063 -265.318)" style="fill:#ff5728;stroke:#a16f5e;stroke-linecap:round;stroke-linejoin:round;stroke-width:1.25px"/>
                        </g>
                        <path id="패스_21161" data-name="패스 21161" class="cls-9" d="M644.238 243.962a24.665 24.665 0 0 0 4.257 8.091 15.431 15.431 0 0 0 2.813 6.546s5.273-15.623-1.324-18.977" transform="translate(-609.844 -234.295)"/>
                        <path id="패스_21162" data-name="패스 21162" class="cls-9" d="M581.957 253.081s5.2-2.606 6.906-10.069c0 0 1.7-5.6 8.938-4.9s19.792 2.566 21.706-2.565l-2.979-.234s2.554-.466 3.192-3.965a39.717 39.717 0 0 1-10.641-.7c-4.895-1.166-20.856-5.6-24.9 5.364.001.002-5.298 4.048-2.222 17.069z" transform="translate(-577.665 -228.777)"/>
                    </g>
                    <g id="그룹_7491" data-name="그룹 7491" transform="translate(15.004 17.818)">
                        <path id="패스_21163" data-name="패스 21163" class="cls-7" d="M604.76 266.608a2.987 2.987 0 0 1 3.831-1.277" transform="translate(-604.76 -265.054)"/>
                        <path id="패스_21164" data-name="패스 21164" class="cls-7" d="M632.853 266.608a2.987 2.987 0 0 0-3.831-1.277" transform="translate(-617.105 -265.054)"/>
                    </g>
                </g>
            </g>
            <g id="그룹_7505" data-name="그룹 7505" transform="translate(183.529 147.57)">
                <path id="패스_21165" data-name="패스 21165" d="M886.271 331.453a32.751 32.751 0 1 0-10.579-10.58l-4.915 15.494z" transform="translate(-870.777 -270.879)" style="fill:#fff1ec;stroke:#a16f5e;stroke-linecap:round;stroke-linejoin:round;stroke-width:1.25px"/>
                <g id="그룹_7504" data-name="그룹 7504" transform="translate(8.115 10.318)">
                    <g id="그룹_7503" data-name="그룹 7503">
                        <g id="그룹_7502" data-name="그룹 7502">
                            <path id="패스_21166" data-name="패스 21166" class="cls-11" d="M894.619 350.5a19.082 19.082 0 0 1 0 6.2c-.591 2.954 3.84 8.271 9.452 6.2" transform="translate(-890.997 -321.71)"/>
                            <g id="그룹_7501" data-name="그룹 7501" transform="translate(0 4.679)">
                                <g id="그룹_7500" data-name="그룹 7500">
                                    <g id="그룹_7499" data-name="그룹 7499">
                                        <g id="그룹_7497" data-name="그룹 7497">
                                            <g id="그룹_7495" data-name="그룹 7495">
                                                <g id="그룹_7494" data-name="그룹 7494" transform="translate(0 16.542)">
                                                    <path id="패스_21167" data-name="패스 21167" class="cls-3" d="M896.16 339.522a4.431 4.431 0 1 0-4.431 4.431 4.43 4.43 0 0 0 4.431-4.431z" transform="translate(-887.299 -335.091)"/>
                                                    <path id="패스_21168" data-name="패스 21168" class="cls-3" d="M975.092 339.522a4.431 4.431 0 1 0-4.431 4.431 4.431 4.431 0 0 0 4.431-4.431z" transform="translate(-927.461 -335.091)"/>
                                                </g>
                                                <path id="패스_21169" data-name="패스 21169" class="cls-4" d="M935.089 321.5c0 11.338-8.662 20.087-19.348 20.087s-19.348-8.749-19.348-20.087 8.662-20.086 19.348-20.086 19.348 8.747 19.348 20.086z" transform="translate(-891.926 -301.413)"/>
                                            </g>
                                            <g id="그룹_7496" data-name="그룹 7496" transform="translate(7.753 18.979)">
                                                <path id="패스_21170" data-name="패스 21170" class="cls-5" d="M913.276 345.148a5.1 5.1 0 1 1-5.1-5.1 5.1 5.1 0 0 1 5.1 5.1z" transform="translate(-903.084 -340.053)"/>
                                                <path id="패스_21171" data-name="패스 21171" class="cls-5" d="M957.929 345.148a5.1 5.1 0 1 1-5.1-5.1 5.095 5.095 0 0 1 5.1 5.1z" transform="translate(-925.805 -340.053)"/>
                                            </g>
                                        </g>
                                        <g id="그룹_7498" data-name="그룹 7498" transform="translate(15.729 18.757)">
                                            <path id="패스_21172" data-name="패스 21172" class="cls-6" d="M922.645 341.485a1.675 1.675 0 1 1-1.662-1.883 1.783 1.783 0 0 1 1.662 1.883z" transform="translate(-919.322 -339.602)"/>
                                            <path id="패스_21173" data-name="패스 21173" class="cls-6" d="M948.805 341.485a1.675 1.675 0 1 1-1.662-1.883 1.782 1.782 0 0 1 1.662 1.883z" transform="translate(-932.633 -339.602)"/>
                                        </g>
                                    </g>
                                    <path id="패스_21174" data-name="패스 21174" class="cls-6" d="M935.738 346.266a1.329 1.329 0 1 0-1.33 1.329 1.329 1.329 0 0 0 1.33-1.329z" transform="translate(-910.594 -323.559)"/>
                                </g>
                                <path id="패스_21175" data-name="패스 21175" class="cls-7" d="M930.373 353.958a2.659 2.659 0 0 0 5.317 0" transform="translate(-909.216 -328.15)"/>
                            </g>
                            <path id="패스_21176" data-name="패스 21176" class="cls-11" d="M895.639 317.538s5.4-3.657 6.872-8.088 4.136-6.2 6.5-5.908c0 0 5.907-6.2 13.883-.591s7.68 23.631 3.249 28.948c0 0 4.726 3.249 8.566.3s5.908-11.816 4.135-21.858-11.814-23.041-27.47-16.841c0 0-20.243 2-15.735 24.038z" transform="translate(-891.21 -291.886)"/>
                        </g>
                        <path id="선_797" data-name="선 797" class="cls-7" transform="translate(17.653 5.601)" d="M0 6.203.591 0"/>
                    </g>
                    <path id="패스_21177" data-name="패스 21177" class="cls-7" d="M964.736 311.107s8.566 11.373 9.157 23.631" transform="translate(-926.701 -301.666)"/>
                </g>
                <path id="패스_21178" data-name="패스 21178" class="cls-7" d="M919.3 331.66a3.551 3.551 0 0 1 3.929-.164" transform="translate(-895.469 -301.447)"/>
                <path id="패스_21179" data-name="패스 21179" class="cls-7" d="M948.568 331.66a3.551 3.551 0 0 0-3.929-.164" transform="translate(-908.36 -301.447)"/>
            </g>
        </g>
    </g>
</svg>
