<svg xmlns="http://www.w3.org/2000/svg" width="93" height="90" viewBox="0 0 93 90">
    <defs>
        <style>
            .cls-2{fill:#e1e1e1}.cls-4{fill:#aeb0b5}
        </style>
    </defs>
    <g id="iconNoQ" transform="translate(-134 -278)">
        <path id="사각형_767" fill="none" d="M0 0H90V90H0z" transform="translate(135 278)"/>
        <g id="그룹_6098" transform="translate(-212.633 73.358)">
            <g id="그룹_6097" transform="translate(346.633 204.642)">
                <path id="패스_16489" d="M407.837 301.259a1.4 1.4 0 0 1-1.378-1.626l1.832-10.991h-31.158a1.4 1.4 0 0 1-1.4-1.4v-48.37a1.4 1.4 0 0 1 1.4-1.4h67.3a1.4 1.4 0 0 1 1.4 1.4v48.37a1.4 1.4 0 0 1-1.4 1.4h-19.3l-16.457 12.338a1.392 1.392 0 0 1-.839.279zm-29.307-15.412h31.41a1.4 1.4 0 0 1 1.378 1.626l-1.53 9.178 14.035-10.525a1.394 1.394 0 0 1 .838-.279h18.371v-45.575h-64.5z" class="cls-2" transform="translate(-352.828 -211.259)"/>
                <g id="그룹_6096">
                    <g id="그룹_6094">
                        <path id="패스_16490" fill="#f6f6f6" d="M414 234.094c0-15.3-14.689-27.7-32.807-27.7s-32.806 12.4-32.806 27.7 14.688 27.7 32.806 27.7c.875 0 1.739-.038 2.6-.093 6.984 8.322 18.993 5.842 18.993 5.842-4.25-3.112-5.376-6.682-5.517-9.3 9.98-4.753 16.731-13.784 16.731-24.149z" transform="translate(-346.986 -204.995)"/>
                        <path id="패스_16491" d="M398.292 268.934c-4.55 0-10.854-1.085-15.459-6.151-.726.038-1.373.056-2 .056-18.86 0-34.2-13.053-34.2-29.1s15.344-29.1 34.2-29.1 34.2 13.053 34.2 29.1c0 10.239-6.352 19.727-16.646 24.972a11.094 11.094 0 0 0 4.858 7.35 1.4 1.4 0 0 1-.543 2.5 23.808 23.808 0 0 1-4.41.373zm-14.858-8.983a1.4 1.4 0 0 1 1.07.5c3.946 4.7 9.676 5.688 13.787 5.689.285 0 .559-.006.82-.014a12.808 12.808 0 0 1-3.6-8.164 1.4 1.4 0 0 1 .8-1.337c9.829-4.676 15.936-13.444 15.936-22.884 0-14.5-14.091-26.3-31.41-26.3s-31.409 11.8-31.409 26.3 14.09 26.3 31.409 26.3c.752 0 1.549-.029 2.507-.09l.09.001z" class="cls-2" transform="translate(-346.633 -204.642)"/>
                    </g>
                    <g id="그룹_6095" transform="translate(23.133 12.759)">
                        <path id="패스_16492" d="M386.676 247.811a1.4 1.4 0 0 1-1.4-1.4v-5.048a1.4 1.4 0 0 1 1.4-1.4 8.276 8.276 0 1 0-8.276-8.276 1.4 1.4 0 0 1-2.795 0 11.071 11.071 0 1 1 12.468 10.984v3.738a1.4 1.4 0 0 1-1.397 1.402z" class="cls-4" transform="translate(-375.605 -220.621)"/>
                        <path id="패스_16493" d="M390.937 258.575a1.963 1.963 0 1 0-1.963 1.962 1.963 1.963 0 0 0 1.963-1.962z" class="cls-4" transform="translate(-377.904 -227.875)"/>
                    </g>
                </g>
            </g>
            <path id="패스_16494" d="M444.2 274.439a1.4 1.4 0 0 1-1.4-1.4v-20.225a1.4 1.4 0 0 1 2.795 0v20.227a1.4 1.4 0 0 1-1.395 1.398z" class="cls-4" transform="translate(-19.711 -9.427)"/>
            <path id="패스_16495" d="M445.948 284.7a1.863 1.863 0 1 0-1.864 1.863 1.863 1.863 0 0 0 1.864-1.863z" class="cls-4" transform="translate(-19.594 -15.759)"/>
            <circle id="타원_571" cx="1.863" cy="1.863" r="1.863" class="cls-4" transform="translate(415.252 267.075)"/>
            <path id="패스_16496" d="M427.28 284.7a1.863 1.863 0 1 0-1.862 1.863 1.863 1.863 0 0 0 1.862-1.863z" class="cls-4" transform="translate(-15.728 -15.759)"/>
        </g>
    </g>
</svg>
