<svg xmlns="http://www.w3.org/2000/svg" width="119.2" height="129.2" viewBox="0 0 119.2 129.2">
    <defs>
        <style>
            .cls-1{fill:#ccc}.cls-1,.cls-10,.cls-11,.cls-12,.cls-13,.cls-4,.cls-5,.cls-6,.cls-9{stroke:#3e3a39;stroke-linecap:round;stroke-linejoin:round;stroke-width:1.2px}.cls-4{fill:#fca88c}.cls-5{fill:#ffddc6}.cls-6{fill:#fff3e3}.cls-7{fill:#ffddcb}.cls-8{fill:#3e3a39}.cls-9{fill:none}.cls-10{fill:#ff8571}.cls-11{fill:#7a6a56}.cls-12{fill:#bc8877}.cls-13{fill:#fff}
        </style>
    </defs>
    <g id="imgNocaregiver" transform="translate(-453.881 -199.902)">
        <g id="그룹_7371" transform="translate(454.481 200.502)">
            <path id="패스_21022" d="M607.5 472.523s0 3.013-1.808 4.519-5.122 3.013-4.821 6.93h21.694l-1.206-11.449" class="cls-1" transform="translate(-538.507 -355.973)"/>
            <path id="패스_21023" d="M685.07 472.523s0 3.013 1.808 4.519 5.123 3.013 4.822 6.93H670l1.205-11.449" class="cls-1" transform="translate(-578.214 -355.973)"/>
            <path id="패스_21024" fill="#fff1ec" stroke="#3e3a39" stroke-linecap="round" stroke-linejoin="round" stroke-width="1.2px" d="M613.817 398.433l-3.039 32.843h17.476l1.507-11.968 2.108-7.342 2.109 7.342 1.507 11.968h17.476l-3.461-32.843" transform="translate(-544.279 -313.52)"/>
            <path id="사각형_2919" fill="#ffc881" stroke="#3e3a39" stroke-linecap="round" stroke-linejoin="round" stroke-width="1.2px" d="M0 0H26.214V39.171H0z" transform="translate(74.219 46.155)"/>
            <path id="패스_21025" d="M673.681 316.46s-4.821 11.149-3.314 20.79 5.423 14.162 5.423 14.162l9.792-.9-2.259-29.83-3.013-9.039" class="cls-4" transform="translate(-578.255 -263.969)"/>
            <path id="패스_21026" d="M658.113 317.666a6.026 6.026 0 1 0-6.026 6.026 6.026 6.026 0 0 0 6.026-6.026z" class="cls-5" transform="translate(-564.44 -264.021)"/>
            <g id="그룹_7363" transform="translate(61.371 7.382)">
                <g id="그룹_7362">
                    <g id="그룹_7361">
                        <g id="그룹_7359">
                            <g id="그룹_7357">
                                <g id="그룹_7356" transform="translate(0 19.666)">
                                    <path id="패스_21027" d="M609.3 269.112a5.268 5.268 0 1 0-5.268 5.268 5.268 5.268 0 0 0 5.268-5.268z" class="cls-5" transform="translate(-598.769 -263.844)"/>
                                    <path id="패스_21028" d="M717.247 269.112a5.268 5.268 0 1 0-5.268 5.268 5.268 5.268 0 0 0 5.268-5.268z" class="cls-5" transform="translate(-660.618 -263.844)"/>
                                </g>
                                <path id="패스_21029" d="M657.213 241.669c0 13.48-10.3 23.881-23 23.881s-23-10.4-23-23.881 10.3-23.88 23-23.88 23 10.4 23 23.88z" class="cls-6" transform="translate(-605.896 -217.789)"/>
                            </g>
                            <g id="그룹_7358" transform="translate(9.218 22.563)">
                                <path id="패스_21030" d="M632.473 276.686a6.058 6.058 0 1 1-6.058-6.058 6.058 6.058 0 0 1 6.058 6.058z" class="cls-7" transform="translate(-620.357 -270.628)"/>
                                <path id="패스_21031" d="M693.537 276.686a6.058 6.058 0 1 1-6.058-6.058 6.058 6.058 0 0 1 6.058 6.058z" class="cls-7" transform="translate(-655.346 -270.628)"/>
                            </g>
                        </g>
                        <g id="그룹_7360" transform="translate(18.7 22.3)">
                            <path id="패스_21032" d="M646.514 272.25a1.991 1.991 0 1 1-1.976-2.238 2.12 2.12 0 0 1 1.976 2.238z" class="cls-8" transform="translate(-642.562 -270.012)"/>
                            <path id="패스_21033" d="M682.288 272.25a1.991 1.991 0 1 1-1.975-2.238 2.119 2.119 0 0 1 1.975 2.238z" class="cls-8" transform="translate(-663.06 -270.012)"/>
                        </g>
                    </g>
                    <path id="패스_21034" d="M664.5 280.175a2.372 2.372 0 0 0-3.353 0" class="cls-9" transform="translate(-634.512 -253.137)"/>
                </g>
                <path id="패스_21035" d="M650.89 291.592a6.058 6.058 0 1 0 12.116 0z" class="cls-10" transform="translate(-628.634 -260.077)"/>
            </g>
            <path id="패스_21036" d="M613.693 234.146s4.218-3.314 6.027-10.546c0 0 5.423-5.424 9.039-3.616s13.86 6.327 19.887 5.423c0 0 3.917 8.135 7.532 9.341 0 0 3.616-18.079-7.834-23.2s-30.734-5.424-34.048 3.314a21.46 21.46 0 0 0-5.122 19.886" class="cls-11" transform="translate(-542.976 -204.767)"/>
            <g id="그룹_7365" transform="translate(18.981 19.559)">
                <g id="그룹_7364">
                    <path id="패스_21037" d="M563.6 277.009l-32.232-30.995-32.233 30.995v35.25H563.6z" class="cls-12" transform="translate(-499.133 -246.014)"/>
                    <path id="사각형_2920" d="M0 0H45.498V39.472H0z" class="cls-13" transform="translate(9.484 9.943)"/>
                    <path id="패스_21038" d="M499.133 318.6v35.25H563.6z" class="cls-12" transform="translate(-499.133 -287.604)"/>
                    <path id="패스_21039" d="M563.6 318.6v35.25h-64.467z" class="cls-12" transform="translate(-499.133 -287.604)"/>
                    <path id="패스_21040" fill="#ecc4b7" stroke="#3e3a39" stroke-linecap="round" stroke-linejoin="round" stroke-width="1.2px" d="M531.365 328.563l-32.233 30.995H563.6z" transform="translate(-499.133 -293.313)"/>
                </g>
                <path id="선_766" d="M0 0L24.406 0" class="cls-9" transform="translate(20.029 20.79)"/>
                <path id="선_767" d="M0 0L24.406 0" class="cls-9" transform="translate(20.029 27.118)"/>
            </g>
            <path id="패스_21041" d="M499.661 343.971c0 3.827-1.821 6.93-4.067 6.93s-4.068-3.1-4.068-6.93 1.821-6.93 4.068-6.93 4.067 3.102 4.067 6.93z" class="cls-6" transform="translate(-475.707 -278.535)"/>
            <g id="그룹_7370">
                <g id="그룹_7366" transform="translate(7.629)">
                    <path id="패스_21042" d="M497.693 241.873a4.668 4.668 0 1 0-4.669 4.668 4.669 4.669 0 0 0 4.669-4.668z" class="cls-10" transform="translate(-481.52 -221.532)"/>
                    <path id="패스_21043" fill="#fd0" stroke="#3e3a39" stroke-linecap="round" stroke-linejoin="round" stroke-width="1.2px" d="M477.424 217.508v-7.669a9.337 9.337 0 0 1 9.337-9.337 9.337 9.337 0 0 1 9.336 9.337v7.669" transform="translate(-475.257 -200.502)"/>
                    <path id="패스_21044" d="M495.356 240.935a2.167 2.167 0 0 1-2.167 2.167h-18.673a2.168 2.168 0 0 1-2.168-2.167 2.168 2.168 0 0 1 2.168-2.168h18.673a2.167 2.167 0 0 1 2.167 2.168z" class="cls-13" transform="translate(-472.348 -222.427)"/>
                </g>
                <g id="그룹_7367" transform="translate(0 14.915)">
                    <path id="선_768" d="M3.314 0L0 0" class="cls-9"/>
                    <path id="선_769" d="M3.315 0L0 0" class="cls-9" transform="translate(34.952)"/>
                </g>
                <g id="그룹_7368" transform="translate(1.793 6.829)">
                    <path id="선_770" d="M3.004 0L0 1.401" class="cls-9" transform="translate(0 14.771)"/>
                    <path id="선_771" d="M3.004 0L0 1.401" class="cls-9" transform="translate(31.677)"/>
                </g>
                <g id="그룹_7369" transform="translate(1.793 6.829)">
                    <path id="선_772" d="M0 0L3.004 1.401" class="cls-9" transform="translate(31.677 14.771)"/>
                    <path id="선_773" d="M0 0L3.004 1.401" class="cls-9"/>
                </g>
            </g>
            <path id="패스_21045" d="M648.425 361.157a7.533 7.533 0 1 0-7.533 7.533 7.532 7.532 0 0 0 7.533-7.533z" class="cls-6" transform="translate(-557.155 -288.01)"/>
            <path id="패스_21046" d="M670.918 328.7l-3.315 8.135h-6.327l-1.808 13.258s15.367 5.725 19.886-5.725.6-21.393-4.219-23.2" class="cls-4" transform="translate(-572.177 -269.432)"/>
        </g>
        <path id="선_774" d="M0 0L4.068 6.179" class="cls-11" transform="translate(527.244 213.157)"/>
        <path id="패스_21047" d="M640.06 259.9s2.562-2.26 5.123-1.205" class="cls-9" transform="translate(-106.503 -33.104)"/>
        <path id="패스_21048" d="M681.875 259.9s-2.561-2.26-5.122-1.205" class="cls-9" transform="translate(-127.599 -33.104)"/>
    </g>
</svg>
