<svg xmlns="http://www.w3.org/2000/svg" width="51.998" height="59.998" viewBox="0 0 51.998 59.998">
    <defs>
        <style>
            .cls-1{fill:#aeb0b5}.cls-2{fill:#a87463;stroke:#a87463}
        </style>
    </defs>
    <g id="그룹_1089" data-name="그룹 1089" transform="translate(-141.001 -200.001)">
        <g id="icon-2" transform="translate(141.001 200.001)">
            <path id="패스_367" d="M555.73 604.662h-39.972a6.006 6.006 0 0 1-6.013-5.987v-41.7a6.006 6.006 0 0 1 6.013-5.987 1.161 1.161 0 1 1 0 2.323 3.676 3.676 0 0 0-3.68 3.664v41.7a3.676 3.676 0 0 0 3.68 3.664h39.972a3.676 3.676 0 0 0 3.68-3.664v-41.7a3.676 3.676 0 0 0-3.68-3.664 1.161 1.161 0 1 1 0-2.323 6.006 6.006 0 0 1 6.013 5.987v41.7a6.006 6.006 0 0 1-6.013 5.987z" class="cls-1" data-name="패스 367" transform="translate(-509.745 -544.664)"/>
            <path id="패스_368" d="M558.858 599.316h-37.993a1.163 1.163 0 0 1-1.165-1.16v-46a1.163 1.163 0 0 1 1.165-1.16h8.844a1.16 1.16 0 1 1 0 2.32h-7.679V597h35.663v-43.687h-4.477a1.16 1.16 0 1 1 0-2.32h5.643a1.163 1.163 0 0 1 1.165 1.16v46a1.163 1.163 0 0 1-1.166 1.163z" class="cls-1" data-name="패스 368" transform="translate(-513.863 -544.664)"/>
            <path id="패스_369" d="M556.4 554.652h-19.807a1.173 1.173 0 0 1-1.173-1.173V544.4a1.172 1.172 0 0 1 1.173-1.173h4.948a5.574 5.574 0 0 1 9.916 0h4.943a1.173 1.173 0 0 1 1.173 1.173v9.08a1.173 1.173 0 0 1-1.173 1.172zm-18.639-2.346h17.466v-6.734h-4.553a1.172 1.172 0 0 1-1.113-.806 3.227 3.227 0 0 0-6.132 0 1.172 1.172 0 0 1-1.113.806h-4.553z" class="cls-1" data-name="패스 369" transform="translate(-520.5 -540.2)"/>
        </g>
        <g id="그룹_1088" data-name="그룹 1088" transform="translate(159 223.999)">
            <path id="패스_1103" d="M747.237 619.115a.9.9 0 0 1-.638-1.536l14.2-14.2a.9.9 0 0 1 1.273 1.273l-14.2 14.2a.9.9 0 0 1-.635.263z" class="cls-2" data-name="패스 1103" transform="translate(-746.335 -603.115)"/>
            <path id="패스_1104" d="M761.436 619.115a.9.9 0 0 1-.638-.263l-14.2-14.2a.9.9 0 0 1 1.273-1.273l14.2 14.2a.9.9 0 0 1-.635 1.536z" class="cls-2" data-name="패스 1104" transform="translate(-746.335 -603.115)"/>
        </g>
    </g>
</svg>
