<svg xmlns="http://www.w3.org/2000/svg" width="90" height="90.001" viewBox="0 0 90 90.001">
  <g id="그룹_5091" data-name="그룹 5091" transform="translate(-135 -220)">
    <g id="icon-2" transform="translate(-368.745 -320.199)">
      <rect id="사각형_203" data-name="사각형 203" width="90" height="90" transform="translate(503.745 540.199)" fill="none"/>
      <path id="패스_367" data-name="패스 367" d="M578.725,631.5h-59.96a9.01,9.01,0,0,1-9.02-8.98V559.973a9.01,9.01,0,0,1,9.02-8.98,1.742,1.742,0,1,1,0,3.484,5.514,5.514,0,0,0-5.52,5.5v62.546a5.514,5.514,0,0,0,5.52,5.5h59.96a5.514,5.514,0,0,0,5.52-5.5V559.973a5.514,5.514,0,0,0-5.52-5.5,1.742,1.742,0,1,1,0-3.484,9.01,9.01,0,0,1,9.02,8.98v62.546A9.01,9.01,0,0,1,578.725,631.5Z" transform="translate(0 -1.3)" fill="#e1e1e1"/>
      <path id="패스_368" data-name="패스 368" d="M578.439,623.48H521.448a1.745,1.745,0,0,1-1.748-1.74V552.733a1.744,1.744,0,0,1,1.748-1.74h13.267a1.74,1.74,0,1,1,0,3.481H523.2V620h53.5V554.474h-6.716a1.74,1.74,0,1,1,0-3.481h8.464a1.744,1.744,0,0,1,1.747,1.74V621.74A1.745,1.745,0,0,1,578.439,623.48Z" transform="translate(-1.199 -1.3)" fill="#e1e1e1"/>
      <path id="패스_369" data-name="패스 369" d="M566.9,561.879H537.179a1.759,1.759,0,0,1-1.759-1.759V546.5a1.759,1.759,0,0,1,1.759-1.759H544.6a8.361,8.361,0,0,1,14.874,0H566.9a1.759,1.759,0,0,1,1.759,1.759v13.62A1.76,1.76,0,0,1,566.9,561.879Zm-27.959-3.518h26.2v-10.1h-6.83a1.758,1.758,0,0,1-1.67-1.209,4.841,4.841,0,0,0-9.2,0,1.759,1.759,0,0,1-1.67,1.209h-6.83Z" transform="translate(-3.294)" fill="#e1e1e1"/>
      <path id="패스_370" data-name="패스 370" d="M563.541,537.148h0a1.22,1.22,0,0,1-.849-.337l-9.232-8.853a1.119,1.119,0,0,1,0-1.631,1.241,1.241,0,0,1,1.7,0l8.38,8.039,15.516-14.88a1.235,1.235,0,0,1,1.7,0,1.119,1.119,0,0,1,0,1.631L564.39,536.812A1.225,1.225,0,0,1,563.541,537.148Z" transform="translate(-18.362 60.051)" fill="#e1e1e1" stroke="#e1e1e1" stroke-width="1"/>
    </g>
  </g>
</svg>
