<svg xmlns="http://www.w3.org/2000/svg" width="54" height="72" viewBox="0 0 54 72">
    <defs>
        <style>
            .cls-3{fill:#bc8877;stroke:#bc8877;stroke-width:.25px}
        </style>
    </defs>
    <g id="그룹_1697" transform="translate(-155 -380)">
        <g id="그룹_178" transform="translate(155 380)">
            <g id="그룹_176">
                <path id="패스_291" fill="#e1e1e1" fill-rule="evenodd" d="M-876.36 3445.23a25.878 25.878 0 0 1 19.192-8.147 25.617 25.617 0 0 1 19.111 8.147 26.765 26.765 0 0 1 7.888 19.419 27.55 27.55 0 0 1-7.562 19.255l-19.356 25.179-19.357-25.179a27.239 27.239 0 0 1-7.725-19.255 26.914 26.914 0 0 1 7.809-19.419z" transform="translate(884.168 -3437.083)"/>
            </g>
            <g id="그룹_177" transform="translate(8.047 7.959)">
                <path id="패스_292" fill="#fff" fill-rule="evenodd" d="M-830.8 3462.7a18.564 18.564 0 0 1 5.661 13.621 17.671 17.671 0 0 1-5.661 13.29 17.669 17.669 0 0 1-13.291 5.662 18.562 18.562 0 0 1-13.62-5.662 18.067 18.067 0 0 1-5.415-13.29 19 19 0 0 1 5.415-13.621 19 19 0 0 1 13.62-5.415 18.068 18.068 0 0 1 13.291 5.415z" transform="translate(863.127 -3457.288)"/>
            </g>
        </g>
        <g id="그룹_1696" transform="translate(174.441 399.689)">
            <path id="패스_2331" d="M370.773 569.755a.85.85 0 0 1-.6-1.452l13.419-13.419a.851.851 0 0 1 1.2 1.2l-13.419 13.418a.848.848 0 0 1-.6.253z" class="cls-3" transform="translate(-369.923 -554.635)"/>
            <path id="패스_2332" d="M384.192 569.755a.848.848 0 0 1-.6-.249l-13.419-13.418a.851.851 0 0 1 1.2-1.2l13.421 13.412a.85.85 0 0 1-.6 1.452z" class="cls-3" transform="translate(-369.923 -554.635)"/>
        </g>
    </g>
</svg>
