<svg xmlns="http://www.w3.org/2000/svg" width="90" height="64">
    <defs>
        <style>
            .cls-1{fill:#f6f6f6}.cls-2{fill:#e1e1e1}.cls-4{fill:#bc8877}
        </style>
    </defs>
    <g id="icon_no_event" data-name="icon_no event" transform="translate(-456.491 -877.023)">
        <g id="그룹_2250" data-name="그룹 2250" transform="translate(456.491 877.023)">
            <g id="그룹_2247" data-name="그룹 2247" transform="translate(0 .947)">
                <g id="그룹_2245" data-name="그룹 2245">
                    <path id="사각형_1080" data-name="사각형 1080" class="cls-1" transform="translate(1.836 1.836)" d="M0 0h72.768v16.429H0z"/>
                    <path id="패스_2658" data-name="패스 2658" class="cls-2" d="M531.123 897.434H458.3a1.823 1.823 0 0 1-1.808-1.836v-16.43a1.822 1.822 0 0 1 1.808-1.836h72.824a1.821 1.821 0 0 1 1.808 1.836V895.6a1.823 1.823 0 0 1-1.809 1.834zm-71.016-3.672h69.207V881h-69.207z" transform="translate(-456.491 -877.332)"/>
                </g>
                <g id="그룹_2246" data-name="그룹 2246" transform="translate(3.791 16.43)">
                    <path id="사각형_1081" data-name="사각형 1081" class="cls-1" transform="translate(1.836 1.835)" d="M0 0h65.186v41.706H0z"/>
                    <path id="패스_2659" data-name="패스 2659" class="cls-2" d="M524.781 928.07h-65.248a1.82 1.82 0 0 1-1.805-1.836v-41.705a1.82 1.82 0 0 1 1.805-1.836h65.247a1.82 1.82 0 0 1 1.805 1.836v41.705a1.82 1.82 0 0 1-1.804 1.836zm-63.442-3.67h61.637v-38.035h-61.637z" transform="translate(-457.728 -882.693)"/>
                </g>
            </g>
            <g id="그룹_2248" data-name="그룹 2248" transform="translate(29.118)">
                <path id="사각형_1082" data-name="사각형 1082" class="cls-1" transform="translate(1.834 1.835)" d="M0 0h14.535v60.032H0z"/>
                <path id="패스_2660" data-name="패스 2660" class="cls-2" d="M482.551 940.724h-14.533a1.835 1.835 0 0 1-1.836-1.836v-60.03a1.835 1.835 0 0 1 1.836-1.836h14.533a1.835 1.835 0 0 1 1.836 1.836v60.03a1.835 1.835 0 0 1-1.836 1.836zm-12.7-3.672h10.862v-56.357h-10.859z" transform="translate(-466.182 -877.023)"/>
            </g>
        </g>
        <g id="그룹_2253" data-name="그룹 2253" transform="translate(510.238 904.767)">
            <g id="그룹_2252" data-name="그룹 2252">
                <g id="그룹_2251" data-name="그룹 2251">
                    <path id="패스_2661" data-name="패스 2661" d="M505.958 909.086a16.291 16.291 0 1 0-16.289 16.289 16.29 16.29 0 0 0 16.289-16.289z" transform="translate(-471.54 -890.954)" style="fill:#fff"/>
                    <path id="패스_2662" data-name="패스 2662" class="cls-2" d="M490.905 928.448a18.128 18.128 0 1 1 18.125-18.125 18.146 18.146 0 0 1-18.125 18.125zm0-32.585a14.457 14.457 0 1 0 14.454 14.46 14.473 14.473 0 0 0-14.454-14.46z" transform="translate(-472.777 -892.191)"/>
                </g>
                <path id="패스_2663" data-name="패스 2663" class="cls-4" d="M478.278 909.641a1.837 1.837 0 0 1-1.3-3.135l10.111-10.11a1.835 1.835 0 1 1 2.6 2.6L479.577 909.1a1.836 1.836 0 0 1-1.299.541z" transform="translate(-465.206 -884.62)"/>
                <path id="패스_2664" data-name="패스 2664" class="cls-4" d="M488.388 909.641a1.829 1.829 0 0 1-1.3-.539l-10.111-10.111a1.835 1.835 0 0 1 2.6-2.6l10.111 10.11a1.837 1.837 0 0 1-1.3 3.135z" transform="translate(-465.206 -884.62)"/>
            </g>
        </g>
    </g>
</svg>
