<svg xmlns="http://www.w3.org/2000/svg" width="90" height="90" viewBox="0 0 90 90">
    <defs>
        <style>
            .cls-2{fill:#fff}.cls-3{fill:#e1e1e1}.cls-4{fill:#bc8877}
        </style>
    </defs>
    <g id="그룹_1385" transform="translate(-135 -200)">
        <path id="사각형_767" fill="none" d="M0 0H90V90H0z" transform="translate(135 200)"/>
        <g id="그룹_1384" transform="translate(82.034 -23.599)">
            <g id="그룹_1380" transform="translate(53.123 227.599)">
                <path id="패스_1299" d="M53.8 265.294l39.17-36.944 38.5 35.673-37.7 21.225-39.117-19.285" class="cls-2" transform="translate(-52.474 -227.018)"/>
                <path id="패스_1300" d="M94.354 287.16a1.337 1.337 0 0 1-.593-.137l-39.115-19.285a1.345 1.345 0 0 1-.589-.575 1.31 1.31 0 0 1-.637-.374 1.325 1.325 0 0 1 .053-1.879l39.16-36.946a1.335 1.335 0 0 1 1.827-.009l38.5 35.673a1.326 1.326 0 0 1-.251 2.132l-37.7 21.227a1.331 1.331 0 0 1-.655.173zm-37.828-21.465l37.786 18.63 35.494-19.985-36.247-33.587z" class="cls-3" transform="translate(-53.054 -227.599)"/>
            </g>
            <g id="그룹_1381" transform="translate(63.25 241.673)">
                <path id="패스_1301" d="M59.513 266.006v-29.967h57.034v28.352l-28.7 14.11z" class="cls-2" transform="translate(-58.182 -234.708)"/>
                <path id="패스_1302" d="M88.433 280.413a1.323 1.323 0 0 1-.538-.114L59.558 267.8a1.327 1.327 0 0 1-.795-1.215v-29.966a1.331 1.331 0 0 1 1.33-1.33h57.035a1.331 1.331 0 0 1 1.33 1.33v28.353a1.328 1.328 0 0 1-.743 1.192l-28.7 14.112a1.369 1.369 0 0 1-.582.137zM61.424 265.72l26.977 11.9 27.4-13.471V237.95H61.424z" class="cls-3" transform="translate(-58.763 -235.289)"/>
            </g>
            <g id="그룹_1382" transform="translate(52.966 264.534)">
                <path id="패스_1303" d="M53.873 249.731l39.687 18.647 37.983-19.919V292.1H53.716z" class="cls-2" transform="translate(-52.385 -247.128)"/>
                <path id="패스_1304" d="M132.118 294.008H54.3a1.335 1.335 0 0 1-1.335-1.336l.157-42.364a1.336 1.336 0 0 1 1.907-1.2l39.078 18.364 37.393-19.61a1.345 1.345 0 0 1 1.312.037 1.329 1.329 0 0 1 .645 1.141v43.638a1.332 1.332 0 0 1-1.339 1.33zm-76.476-2.661h75.14v-40.1l-36.019 18.89a1.338 1.338 0 0 1-1.193.023l-37.784-17.753z" class="cls-3" transform="translate(-52.966 -247.709)"/>
            </g>
            <path id="사각형_764" d="M0 0H38.206V1.128H0z" class="cls-3" transform="translate(74.445 254.569)"/>
            <path id="사각형_765" d="M0 0H38.206V1.126H0z" class="cls-3" transform="translate(74.556 262.586)"/>
            <path id="사각형_766" d="M0 0H38.206V1.128H0z" class="cls-3" transform="translate(74.448 270.715)"/>
            <g id="그룹_1383" transform="translate(111.966 282.599)">
                <path id="패스_1305" d="M114.581 272.8a13.616 13.616 0 1 1-13.618-13.614 13.617 13.617 0 0 1 13.618 13.614z" class="cls-2" transform="translate(-85.06 -256.893)"/>
                <path id="패스_1306" d="M102.1 289.434a15.5 15.5 0 1 1 15.5-15.5 15.518 15.518 0 0 1-15.5 15.5zm0-28.342a12.842 12.842 0 1 0 12.844 12.842 12.856 12.856 0 0 0-12.844-12.842z" class="cls-3" transform="translate(-86.599 -258.434)"/>
            </g>
            <path id="패스_1308" d="M93.195 273.921a1.3 1.3 0 0 1 0-1.84l7.4-7.4a1.3 1.3 0 1 1 1.84 1.84l-7.4 7.4a1.3 1.3 0 0 1-1.84 0z" class="cls-4" transform="translate(30.153 29.298)"/>
            <path id="패스_1309" d="M102.432 273.921a1.3 1.3 0 0 0 0-1.84l-7.4-7.4a1.3 1.3 0 1 0-1.84 1.84l7.4 7.4a1.3 1.3 0 0 0 1.84 0z" class="cls-4" transform="translate(30.153 29.297)"/>
        </g>
    </g>
</svg>
