<svg xmlns="http://www.w3.org/2000/svg" width="92.414" height="74" viewBox="0 0 92.414 74">
  <g id="그룹_2375" data-name="그룹 2375" transform="translate(-744.866 -842.837)">
    <path id="패스_4002" data-name="패스 4002" d="M795.828,847.479c0,.014,0,.029,0,.041v-.041Z" transform="translate(28.965 2.113)" fill="#fff" stroke="#e1e1e1" stroke-linecap="round" stroke-linejoin="round" stroke-width="2"/>
    <path id="패스_4003" data-name="패스 4003" d="M795.832,847.443c0,.016,0,.032,0,.049v.008h0Z" transform="translate(28.964 2.092)" fill="#fff" stroke="#e1e1e1" stroke-linecap="round" stroke-linejoin="round" stroke-width="2"/>
    <path id="패스_4004" data-name="패스 4004" d="M807.315,849.583a5.743,5.743,0,0,0-5.73-5.742l-.014,0a5.742,5.742,0,0,0-5.741,5.7v5.814h11.485v-5.757h0Z" transform="translate(28.966 0.001)" fill="#fff" stroke="#e1e1e1" stroke-linecap="round" stroke-linejoin="round" stroke-width="2"/>
    <path id="패스_4005" data-name="패스 4005" d="M795.828,886.2h0v-.041C795.831,886.177,795.828,886.19,795.828,886.2Z" transform="translate(28.965 23.878)" fill="#fff" stroke="#e1e1e1" stroke-linecap="round" stroke-linejoin="round" stroke-width="2"/>
    <path id="패스_4006" data-name="패스 4006" d="M795.827,886.2c0,.016,0,.032,0,.049v-.058h0Z" transform="translate(28.964 23.893)" fill="#fff" stroke="#e1e1e1" stroke-linecap="round" stroke-linejoin="round" stroke-width="2"/>
    <path id="패스_4007" data-name="패스 4007" d="M795.812,886.426c0-.074.024-.144.024-.218v-.019C795.836,886.27,795.815,886.346,795.812,886.426Z" transform="translate(28.955 23.893)" fill="#fff" stroke="#e1e1e1" stroke-linecap="round" stroke-linejoin="round" stroke-width="2"/>
    <path id="패스_4008" data-name="패스 4008" d="M816.31,843.837H766.273a5.719,5.719,0,0,0-5.738,5.7V879.5h0v24.9H804.82v5.7h0l0,.008a5.718,5.718,0,0,0,5.73,5.69l.016,0a5.707,5.707,0,0,0,5.716-5.426c0-.08.024-.155.024-.235V880.177h0v-30.6c0-.012,0-.027,0-.041v-.008c0-.017,0-.033,0-.049a5.716,5.716,0,0,1,5.741-5.642l.014,0v0Z" transform="translate(8.486)" fill="#fff" stroke="#e1e1e1" stroke-linecap="round" stroke-linejoin="round" stroke-width="2"/>
    <path id="패스_4009" data-name="패스 4009" d="M814.987,894.031l-.016,0a5.755,5.755,0,0,1-5.748-5.744l0-.008h0v-5.755H753.255v5.755h0v.008A5.753,5.753,0,0,0,759,894.029l.016,0,55.971.041a5.742,5.742,0,0,0,5.732-5.518A5.741,5.741,0,0,1,814.987,894.031Z" transform="translate(4.047 21.765)" fill="#fff" stroke="#e1e1e1" stroke-linecap="round" stroke-linejoin="round" stroke-width="2"/>
    <g id="그룹_2374" data-name="그룹 2374" transform="translate(746.281 850.855)">
      <path id="패스_4010" data-name="패스 4010" d="M772.84,867.961l4.128,7.535,4.2,7.679-7.667-4.212-7.535-4.128Z" transform="translate(-734.86 -836.859)" fill="#fff" stroke="#e1e1e1" stroke-linecap="round" stroke-linejoin="round" stroke-width="2"/>
      <path id="패스_4011" data-name="패스 4011" d="M747.337,856.217l29.429,29.428c.921.923,3.209.13,5.11-1.77s2.693-4.189,1.77-5.11l-29.428-29.429Z" transform="translate(-745.668 -847.666)" fill="#a87463" stroke="#e1e1e1" stroke-linecap="round" stroke-linejoin="round" stroke-width="2"/>
      <ellipse id="타원_258" data-name="타원 258" cx="4.865" cy="2.362" rx="4.865" ry="2.362" transform="translate(0 6.881) rotate(-45)" fill="#fff" stroke="#e1e1e1" stroke-linecap="round" stroke-linejoin="round" stroke-width="2"/>
      <path id="패스_4012" data-name="패스 4012" d="M774.2,872.73l4.2,7.679-7.667-4.212Z" transform="translate(-732.093 -834.092)" fill="#a87463" stroke="#e1e1e1" stroke-linecap="round" stroke-linejoin="round" stroke-width="2"/>
    </g>
    <line id="선_263" data-name="선 263" x2="32.404" transform="translate(780.438 855.966)" fill="none" stroke="#e1e1e1" stroke-linecap="round" stroke-linejoin="round" stroke-width="2"/>
    <line id="선_264" data-name="선 264" x2="32.404" transform="translate(780.438 865.742)" fill="none" stroke="#e1e1e1" stroke-linecap="round" stroke-linejoin="round" stroke-width="2"/>
    <line id="선_265" data-name="선 265" x2="23.958" transform="translate(788.895 875.63)" fill="none" stroke="#e1e1e1" stroke-linecap="round" stroke-linejoin="round" stroke-width="2"/>
    <line id="선_266" data-name="선 266" x2="18.069" transform="translate(794.79 885.519)" fill="none" stroke="#e1e1e1" stroke-linecap="round" stroke-linejoin="round" stroke-width="2"/>
    <line id="선_267" data-name="선 267" x2="11.609" transform="translate(801.256 895.408)" fill="none" stroke="#e1e1e1" stroke-linecap="round" stroke-linejoin="round" stroke-width="2"/>
  </g>
</svg>
