<svg xmlns="http://www.w3.org/2000/svg" width="64" height="64" viewBox="0 0 64 64">
    <defs>
        <style>
            .cls-5{fill:none}.cls-2{fill:#fff}.cls-2,.cls-5{stroke:#aeb0b5}.cls-2{stroke-width:2.5px}.cls-5{stroke-linecap:round;stroke-linejoin:round;stroke-width:3px}
        </style>
    </defs>
    <g id="img_pw" transform="translate(-207.181 -174.181)">
        <path id="사각형_3174" data-name="사각형 3174" transform="translate(207.181 174.181)" style="fill:none" d="M0 0h64v64H0z"/>
        <g id="그룹_8163" data-name="그룹 8163" transform="translate(228.259 190.389)">
            <path id="패스_21711" data-name="패스 21711" class="cls-2" d="M237.19 351.341v-4.732a5.128 5.128 0 0 1 5.129-5.127 5.128 5.128 0 0 1 5.129 5.127v4.732" transform="translate(-230.987 -341.482)"/>
            <path id="패스_21712" data-name="패스 21712" class="cls-2" d="M245.638 352.166h4.035a3.456 3.456 0 0 1 3.458 3.458v12.657a3.456 3.456 0 0 1-3.458 3.458h-15.747a3.458 3.458 0 0 1-3.458-3.458v-12.656a3.458 3.458 0 0 1 3.458-3.458h11.712z" transform="translate(-230.468 -342.307)"/>
            <path id="패스_21713" data-name="패스 21713" d="M245.115 362.68a2.584 2.584 0 1 1-2.584-2.584 2.584 2.584 0 0 1 2.584 2.584z" transform="translate(-231.2 -344.92)" style="stroke:#dc3345;stroke-width:2.5px;fill:#fff"/>
            <path id="패스_21718" data-name="패스 21718" d="M11.331 20.344v2.4" transform="translate(0 1)" style="stroke-linecap:round;stroke:#dc3345;stroke-width:2.5px;fill:none"/>
        </g>
        <g id="그룹_8175" data-name="그룹 8175" transform="translate(-307.748 -41.826)">
            <g id="그룹_8173" data-name="그룹 8173" transform="translate(548.943 230.238)">
                <path id="패스_21714" data-name="패스 21714" class="cls-5" d="M556.312 224.752a28 28 0 0 1-19.8 47.794" transform="translate(-536.516 -224.751)"/>
                <path id="패스_21715" data-name="패스 21715" class="cls-5" d="m548.818 231.642.777-6.891 6.891.778" transform="translate(-529.853 -224.751)"/>
            </g>
            <g id="그룹_8174" data-name="그룹 8174" transform="translate(517.014 218.077)">
                <path id="패스_21716" data-name="패스 21716" class="cls-5" d="M525.245 265.914a28 28 0 0 1 19.8-47.794" transform="translate(-517.042 -218.12)"/>
                <path id="패스_21717" data-name="패스 21717" class="cls-5" d="m525.6 244.653-.777 6.891-6.89-.778" transform="translate(-516.562 -203.749)"/>
            </g>
        </g>
    </g>
</svg>
