<svg xmlns="http://www.w3.org/2000/svg" width="14" height="14" viewBox="0 0 14 14">
    <path data-name="사각형 3176" style="fill:#fff" d="M0 0h14v14H0z"/>
    <g data-name="icon_check">
        <path data-name="패스 4160" d="M561.168 565.556a.511.511 0 0 1-.387-.188l-4.2-4.922a.721.721 0 0 1 0-.907.492.492 0 0 1 .774 0l3.813 4.469 7.058-8.273a.492.492 0 0 1 .774 0 .719.719 0 0 1 0 .906l-7.445 8.727a.509.509 0 0 1-.387.188z" transform="translate(-555.79 -553.546)" style="fill:#4288ce;stroke:#4288ce;stroke-width:.75px"/>
    </g>
</svg>
