<svg xmlns="http://www.w3.org/2000/svg" width="26" height="20" viewBox="0 0 26 20">
    <defs>
        <style>
            .cls-1{fill:#333}
        </style>
    </defs>
    <g id="icon_pay" transform="translate(-645 -645.077)">
        <g id="그룹_566" transform="translate(645 645.077)">
            <path id="패스_919" d="M668.06 665.077h-20.12a3.025 3.025 0 0 1-2.94-3.1v-13.8a3.026 3.026 0 0 1 2.94-3.1h20.12a3.026 3.026 0 0 1 2.94 3.1v13.8a3.026 3.026 0 0 1-2.94 3.1zm-20.12-18.711a1.767 1.767 0 0 0-1.716 1.81v13.8a1.767 1.767 0 0 0 1.716 1.809h20.12a1.766 1.766 0 0 0 1.716-1.809v-13.8a1.767 1.767 0 0 0-1.716-1.81z" class="cls-1" transform="translate(-645 -645.077)"/>
            <path id="패스_920" d="M670.206 649.477h-22.751a.638.638 0 0 1 0-1.275h22.751a.638.638 0 0 1 0 1.275z" class="cls-1" transform="translate(-644.818 -644.727)"/>
            <path id="패스_921" d="M670.206 652.827h-22.751a.638.638 0 0 1 0-1.276h22.751a.638.638 0 0 1 0 1.276z" class="cls-1" transform="translate(-644.818 -644.352)"/>
        </g>
        <path id="패스_922" d="M654.1 660.112h-6.09a.638.638 0 0 1 0-1.275h6.09a.638.638 0 0 1 0 1.275z" class="cls-1" transform="translate(.236 1.54)"/>
    </g>
</svg>
