<svg xmlns="http://www.w3.org/2000/svg" xmlns:xlink="http://www.w3.org/1999/xlink" width="83.621" height="66.614" viewBox="0 0 83.621 66.614">
    <defs>
        <linearGradient id="linear-gradient" x1=".468" x2=".763" y1=".49" y2="1.035" gradientUnits="objectBoundingBox">
            <stop offset=".101" stop-color="#ebbc63"/>
            <stop offset="1" stop-color="#dbaa4d"/>
        </linearGradient>
        <linearGradient id="linear-gradient-2" x1="-.271" x2=".45" y1="-.094" y2=".506" gradientUnits="objectBoundingBox">
            <stop offset=".028" stop-color="#9b6e25"/>
            <stop offset="1" stop-color="#ebbc63"/>
        </linearGradient>
        <linearGradient id="linear-gradient-3" x1=".374" x2=".555" y1=".077" y2=".858" gradientUnits="objectBoundingBox">
            <stop offset=".131" stop-color="#f4be69"/>
            <stop offset="1" stop-color="#dbaa4d"/>
        </linearGradient>
        <linearGradient id="linear-gradient-4" x1="4.33" x2="4.269" y1="3.435" y2="3.914" xlink:href="#linear-gradient-3"/>
        <linearGradient id="linear-gradient-5" x1="9.826" x2="11.946" y1="3.673" y2="4.316" xlink:href="#linear-gradient-2"/>
        <linearGradient id="linear-gradient-6" x1="16.911" x2="17.719" y1="4.1" y2="4.1" xlink:href="#linear-gradient-3"/>
        <linearGradient id="linear-gradient-7" x1="5.187" x2="5.119" y1="2.639" y2="3.103" xlink:href="#linear-gradient-3"/>
        <linearGradient id="linear-gradient-8" x1="3.137" x2="3.668" y1="9.503" y2="12.071" xlink:href="#linear-gradient-2"/>
        <linearGradient id="linear-gradient-9" x1="4.133" x2="4.327" y1="11.854" y2="11.854" xlink:href="#linear-gradient-3"/>
        <clipPath id="clip-path">
            <path id="패스_4537" d="M470.784 405.541v.522a17.385 17.385 0 0 1-7.015 5.451v-.522a17.386 17.386 0 0 0 7.015-5.451z" class="cls-1" transform="translate(-463.769 -405.541)"/>
        </clipPath>
        <clipPath id="clip-path-2">
            <path id="패스_4543" d="M379.934 301.45c1.215 7.425 4.538 18.6 13.607 22.346v.522c-9.07-3.744-12.393-14.922-13.607-22.347v-.521z" class="cls-1" transform="translate(-379.934 -301.45)"/>
        </clipPath>
        <clipPath id="clip-path-3">
            <path id="패스_4545" d="M378.7 293.182v.522c-.091-.557-.17-1.092-.239-1.6v-.522c.068.508.147 1.043.239 1.6z" class="cls-1" transform="translate(-378.46 -291.58)"/>
        </clipPath>
        <clipPath id="clip-path-4">
            <path id="패스_4547" d="M506.979 310.077c4.387-5.558 6.137-13.346 6.832-18.5v.522c-.7 5.151-2.445 12.939-6.832 18.5v-.487a.1.1 0 0 1 0-.035z" class="cls-1" transform="translate(-506.977 -291.58)"/>
        </clipPath>
        <clipPath id="clip-path-5">
            <path id="패스_4551" d="M376.407 270.018v-.518c.083.931.171 1.868.258 2.783v.522c-.087-.92-.175-1.856-.258-2.787z" class="cls-1" transform="translate(-376.407 -269.496)"/>
        </clipPath>
        <clipPath id="clip-path-6">
            <path id="패스_4553" d="M549.554 272.8v-.522c.087-.916.175-1.852.256-2.783v.522c-.081.932-.169 1.868-.256 2.783z" class="cls-1" transform="translate(-549.554 -269.496)"/>
        </clipPath>
        <clipPath id="clip-path-7">
            <path id="패스_4556" d="M376.407 230.749v-.522a13 13 0 0 0 7.146-7.609v.521a13 13 0 0 1-7.146 7.61z" class="cls-1" transform="translate(-376.407 -222.619)"/>
        </clipPath>
        <clipPath id="clip-path-8">
            <path id="패스_4561" d="M507.106 223.141v-.521a13.015 13.015 0 0 0 7.146 7.609v.522a13.015 13.015 0 0 1-7.146-7.61z" class="cls-1" transform="translate(-507.106 -222.619)"/>
        </clipPath>
        <style>
            .cls-1,.cls-41,.cls-46,.cls-6{fill:none}.cls-2{fill:#386392}.cls-44,.cls-5{fill:#fff}.cls-6{stroke:#fff;stroke-miterlimit:10}.cls-8{isolation:isolate}.cls-11{fill:#858585}.cls-13{fill:#9e9e9e}.cls-15{fill:#a8a8a8}.cls-29{fill:#0087a8}.cls-32{fill:#2f5f94}.cls-34{fill:#f4be69}.cls-41,.cls-46{stroke:#b27e32;stroke-linecap:round;stroke-linejoin:round}.cls-41{stroke-width:.431px}.cls-44{opacity:.5}.cls-46{stroke-width:.666px}
        </style>
    </defs>
    <g id="그룹_3106" transform="translate(-32.614 -261.259)">
        <g id="그룹_3099" transform="translate(32.614 271.561)">
            <g id="그룹_3098">
                <ellipse id="타원_318" cx="1.068" cy="1.085" class="cls-1" rx="1.068" ry="1.085" transform="translate(45.146 1.881)"/>
                <path id="패스_4608" d="M2493.817 248.633h13.073a1.085 1.085 0 0 0 0-2.17h-13.073a1.085 1.085 0 0 0 0 2.17z" class="cls-1" transform="translate(-2464.365 -244.582)"/>
                <path id="패스_4609" d="M2470.516 248.633a1.085 1.085 0 1 0-1.068-1.085 1.077 1.077 0 0 0 1.068 1.085z" class="cls-1" transform="translate(-2444.743 -244.582)"/>
                <path id="패스_4610" d="M2305.822 206.143h45.984v40.718h1.982v-45.3a5.781 5.781 0 0 0-5.68-5.878h-38.588a5.781 5.781 0 0 0-5.68 5.878v45.3h1.982zm29.829-5.018a.742.742 0 1 1-.717.742.73.73 0 0 1 .717-.742zm-11.224 0h8.773a.742.742 0 0 1 0 1.484h-8.773a.742.742 0 0 1 0-1.484zm-2.451 0a.742.742 0 1 1-.717.742.73.73 0 0 1 .717-.742z" class="cls-2" transform="translate(-2297.395 -195.683)"/>
                <rect id="사각형_1305" width="39.737" height="24.881" fill="#d6d6d6" rx="4" transform="translate(.985 16.994)"/>
                <g id="그룹_3097" transform="translate(0 16.168)">
                    <rect id="사각형_1306" width="39.737" height="24.881" fill="#bcbcbc" rx="4"/>
                    <g id="그룹_3094" transform="translate(3.232 3.856)">
                        <g id="그룹_3086" transform="translate(.169 11.847)">
                            <path id="패스_4611" d="M2291.579 472.556v.133h-.548v1.54h-.154v-1.54h-.55v-.133z" class="cls-5" transform="translate(-2290.327 -472.545)"/>
                            <path id="패스_4612" d="M2301.663 474.171a.707.707 0 0 1-.313-.07.769.769 0 0 1-.245-.187.853.853 0 0 1-.163-.273.937.937 0 0 1-.058-.326.916.916 0 0 1 .056-.318.868.868 0 0 1 .158-.273.774.774 0 0 1 .246-.188.711.711 0 0 1 .319-.071.7.7 0 0 1 .309.069.794.794 0 0 1 .247.184.879.879 0 0 1 .164.272.907.907 0 0 1 .059.325.919.919 0 0 1-.057.317.888.888 0 0 1-.16.274.793.793 0 0 1-.246.193.689.689 0 0 1-.316.072zm0-1.572a.548.548 0 0 0-.244.057.648.648 0 0 0-.2.153.737.737 0 0 0-.138.229.758.758 0 0 0-.05.278.767.767 0 0 0 .05.279.707.707 0 0 0 .138.228.647.647 0 0 0 .2.156.539.539 0 0 0 .244.058.525.525 0 0 0 .242-.058.691.691 0 0 0 .2-.156.728.728 0 0 0 .135-.228.778.778 0 0 0 .05-.279.768.768 0 0 0-.05-.278.76.76 0 0 0-.135-.229.692.692 0 0 0-.2-.153.535.535 0 0 0-.242-.056z" class="cls-5" transform="translate(-2299.625 -472.466)"/>
                            <path id="패스_4613" d="M2316.906 474.227l-.477-.687-.477-.687v1.373h-.152v-1.671h.124l.476.69.476.69v-1.38h.152v1.671z" class="cls-5" transform="translate(-2312.761 -472.545)"/>
                            <path id="패스_4614" d="M2329.466 473.954a.623.623 0 0 1-.123.094.924.924 0 0 1-.318.122.855.855 0 0 1-.169.017.737.737 0 0 1-.324-.07.764.764 0 0 1-.247-.187.844.844 0 0 1-.158-.272.948.948 0 0 1-.055-.323.99.99 0 0 1 .052-.321.814.814 0 0 1 .153-.272.742.742 0 0 1 .247-.188.754.754 0 0 1 .332-.071.733.733 0 0 1 .3.06.965.965 0 0 1 .259.169l-.1.107a.7.7 0 0 0-.207-.146.594.594 0 0 0-.5 0 .635.635 0 0 0-.2.152.735.735 0 0 0-.134.229.8.8 0 0 0-.048.28.823.823 0 0 0 .047.28.721.721 0 0 0 .13.227.594.594 0 0 0 .46.21.711.711 0 0 0 .119-.011.793.793 0 0 0 .125-.032.917.917 0 0 0 .12-.051.621.621 0 0 0 .1-.066v-.5h-.381v-.135h.527z" class="cls-5" transform="translate(-2323.569 -472.482)"/>
                            <path id="패스_4615" d="M2343.139 473.082a.575.575 0 0 1-.027.179.517.517 0 0 1-.074.147.5.5 0 0 1-.11.11.442.442 0 0 1-.136.067l.385.642h-.167q-.1-.154-.188-.309t-.188-.311h-.5v.62h-.152v-1.671h.648a.522.522 0 0 1 .195.036.489.489 0 0 1 .163.1.5.5 0 0 1 .109.166.564.564 0 0 1 .042.224zm-.507.389a.367.367 0 0 0 .136-.026.331.331 0 0 0 .114-.075.367.367 0 0 0 .076-.122.5.5 0 0 0 0-.334.393.393 0 0 0-.076-.124.34.34 0 0 0-.112-.075.353.353 0 0 0-.134-.026h-.5v.781z" class="cls-5" transform="translate(-2335.822 -472.545)"/>
                            <path id="패스_4616" d="M2353.824 474.171a.7.7 0 0 1-.313-.07.768.768 0 0 1-.245-.187.856.856 0 0 1-.163-.273.926.926 0 0 1-.058-.326.911.911 0 0 1 .056-.318.876.876 0 0 1 .158-.273.788.788 0 0 1 .247-.188.743.743 0 0 1 .628 0 .81.81 0 0 1 .247.184.869.869 0 0 1 .163.272.919.919 0 0 1 0 .642.888.888 0 0 1-.16.274.8.8 0 0 1-.246.193.691.691 0 0 1-.314.07zm0-1.572a.548.548 0 0 0-.244.057.649.649 0 0 0-.2.153.743.743 0 0 0-.138.229.773.773 0 0 0-.05.278.783.783 0 0 0 .05.279.712.712 0 0 0 .138.228.648.648 0 0 0 .2.156.538.538 0 0 0 .244.058.527.527 0 0 0 .242-.058.689.689 0 0 0 .2-.156.734.734 0 0 0 .136-.228.772.772 0 0 0 .05-.279.774.774 0 0 0-.186-.507.69.69 0 0 0-.2-.153.536.536 0 0 0-.242-.056z" class="cls-5" transform="translate(-2345.563 -472.466)"/>
                            <path id="패스_4617" d="M2374.987 474.229h-.152v-1.673h.152z" class="cls-5" transform="translate(-2364.755 -472.545)"/>
                            <path id="패스_4618" d="M2379.965 472.556l.075 1.673h-.154l-.047-1.352-.556 1.078-.56-1.08-.045 1.354h-.154l.075-1.673h.1l.586 1.1.58-1.1z" class="cls-5" transform="translate(-2368.003 -472.545)"/>
                            <path id="패스_4619" d="M2393.421 472.556l.325.836.325.834h-.165c-.032-.088-.066-.176-.1-.264l-.1-.266h-.725q-.049.135-.1.266t-.1.264h-.162l.327-.834q.163-.415.325-.836zm.231 1.005l-.155-.4-.155-.4-.153.4-.153.4z" class="cls-5" transform="translate(-2380.415 -472.545)"/>
                            <path id="패스_4620" d="M2404.874 472.556v.133h-.548v1.54h-.154v-1.54h-.55v-.133z" class="cls-5" transform="translate(-2390.107 -472.545)"/>
                            <path id="패스_4621" d="M2416.569 472.689h-.952v.633h.881v.133h-.881v.64h.952v.135h-1.1v-1.673h1.1z" class="cls-5" transform="translate(-2400.538 -472.545)"/>
                        </g>
                        <g id="그룹_3087" transform="translate(.176)">
                            <path id="패스_4622" d="M2291.2 374.043a.5.5 0 0 1-.148.1.439.439 0 0 1-.187.04.445.445 0 0 1-.2-.042.462.462 0 0 1-.15-.114.508.508 0 0 1-.1-.165.567.567 0 0 1-.034-.2.6.6 0 0 1 .032-.195.5.5 0 0 1 .093-.165.453.453 0 0 1 .15-.114.459.459 0 0 1 .2-.043.445.445 0 0 1 .181.036.6.6 0 0 1 .157.1l-.062.065a.422.422 0 0 0-.126-.089.347.347 0 0 0-.149-.033.351.351 0 0 0-.153.034.382.382 0 0 0-.123.092.444.444 0 0 0-.081.139.516.516 0 0 0 0 .34.433.433 0 0 0 .079.138.359.359 0 0 0 .279.127.352.352 0 0 0 .149-.032.413.413 0 0 0 .125-.088z" class="cls-5" transform="translate(-2290.387 -373.152)"/>
                            <path id="패스_4623" d="M2298.483 373.2l.2.507.2.506h-.1l-.06-.16-.062-.162h-.44l-.062.162-.061.16h-.1l.2-.506.2-.507zm.14.61l-.094-.24-.094-.241-.093.241-.093.24z" class="cls-5" transform="translate(-2297.088 -373.19)"/>
                            <path id="패스_4624" d="M2307.042 373.514a.359.359 0 0 1-.016.108.323.323 0 0 1-.045.089.3.3 0 0 1-.067.067.268.268 0 0 1-.083.041l.234.389h-.1l-.114-.188-.114-.189h-.3v.376h-.092V373.2h.393a.318.318 0 0 1 .118.022.3.3 0 0 1 .1.064.309.309 0 0 1 .066.1.344.344 0 0 1 .02.128zm-.307.236a.221.221 0 0 0 .082-.016.2.2 0 0 0 .069-.045.218.218 0 0 0 .046-.074.3.3 0 0 0 0-.2.233.233 0 0 0-.046-.075.2.2 0 0 0-.068-.045.212.212 0 0 0-.081-.016h-.3v.474z" class="cls-5" transform="translate(-2304.438 -373.19)"/>
                            <path id="패스_4625" d="M2314.235 373.7a.566.566 0 0 1-.032.191.5.5 0 0 1-.092.162.465.465 0 0 1-.145.112.412.412 0 0 1-.187.042h-.344V373.2h.344a.407.407 0 0 1 .181.041.481.481 0 0 1 .146.11.51.51 0 0 1 .1.161.557.557 0 0 1 .029.188zm-.708-.427v.853h.252a.312.312 0 0 0 .147-.035.357.357 0 0 0 .115-.095.432.432 0 0 0 .075-.135.491.491 0 0 0 .027-.161.5.5 0 0 0-.026-.16.455.455 0 0 0-.073-.137.359.359 0 0 0-.116-.095.319.319 0 0 0-.149-.035z" class="cls-5" transform="translate(-2310.685 -373.19)"/>
                            <path id="패스_4626" d="M2326.018 374.209l-.289-.417-.29-.417v.833h-.092V373.2h.075l.289.418.289.419v-.837h.092v1.014z" class="cls-5" transform="translate(-2321.177 -373.19)"/>
                            <path id="패스_4627" d="M2333.806 373.2v.7a.317.317 0 0 1-.03.139.331.331 0 0 1-.08.1.36.36 0 0 1-.116.065.411.411 0 0 1-.136.023.417.417 0 0 1-.134-.022.355.355 0 0 1-.116-.065.305.305 0 0 1-.081-.1.329.329 0 0 1-.032-.141v-.7h.092v.7a.224.224 0 0 0 .021.1.229.229 0 0 0 .059.077.251.251 0 0 0 .086.052.318.318 0 0 0 .211 0 .255.255 0 0 0 .086-.052.241.241 0 0 0 .057-.077.228.228 0 0 0 .021-.1v-.7z" class="cls-5" transform="translate(-2327.988 -373.19)"/>
                            <path id="패스_4628" d="M2341.387 373.2l.045 1.015h-.093l-.029-.82-.337.654-.34-.655-.027.821h-.094l.045-1.015h.06l.355.668.352-.668z" class="cls-5" transform="translate(-2334.533 -373.19)"/>
                            <path id="패스_4629" d="M2350.123 373.676a.225.225 0 0 1 .084.039.257.257 0 0 1 .059.062.282.282 0 0 1 .033.074.276.276 0 0 1 .011.076.263.263 0 0 1-.022.108.277.277 0 0 1-.061.088.3.3 0 0 1-.09.062.27.27 0 0 1-.11.023h-.462V373.2h.435a.261.261 0 0 1 .1.021.28.28 0 0 1 .085.056.289.289 0 0 1 .057.084.251.251 0 0 1 .021.1.263.263 0 0 1-.01.067.334.334 0 0 1-.029.069.24.24 0 0 1-.045.057.091.091 0 0 1-.056.022zm-.466-.4v.367h.343a.163.163 0 0 0 .069-.015.182.182 0 0 0 .057-.041.2.2 0 0 0 .039-.059.18.18 0 0 0 .014-.071.184.184 0 0 0-.051-.13.179.179 0 0 0-.056-.038.171.171 0 0 0-.068-.014zm.37.851a.174.174 0 0 0 .074-.016.2.2 0 0 0 .061-.043.2.2 0 0 0 .056-.14.222.222 0 0 0-.013-.074.232.232 0 0 0-.035-.065.17.17 0 0 0-.053-.046.142.142 0 0 0-.068-.018h-.391v.4z" class="cls-5" transform="translate(-2342.506 -373.19)"/>
                            <path id="패스_4630" d="M2357.662 373.275h-.578v.384h.535v.08h-.535v.388h.578v.082h-.67V373.2h.67z" class="cls-5" transform="translate(-2349.047 -373.19)"/>
                            <path id="패스_4631" d="M2364.315 373.514a.366.366 0 0 1-.016.108.323.323 0 0 1-.045.089.31.31 0 0 1-.067.067.271.271 0 0 1-.082.041l.233.389h-.1c-.039-.062-.077-.125-.114-.188l-.114-.189h-.3v.376h-.092V373.2h.393a.322.322 0 0 1 .119.022.3.3 0 0 1 .1.064.308.308 0 0 1 .066.1.339.339 0 0 1 .019.128zm-.308.236a.221.221 0 0 0 .083-.016.2.2 0 0 0 .069-.045.226.226 0 0 0 .046-.074.3.3 0 0 0 0-.2.242.242 0 0 0-.046-.075.205.205 0 0 0-.068-.045.217.217 0 0 0-.082-.016h-.3v.474z" class="cls-5" transform="translate(-2354.879 -373.19)"/>
                        </g>
                        <g id="그룹_3088" transform="translate(0 3.425)">
                            <circle id="타원_319" cx=".334" cy=".334" r=".334" class="cls-5"/>
                            <circle id="타원_320" cx=".334" cy=".334" r=".334" class="cls-5" transform="translate(1.557)"/>
                            <circle id="타원_321" cx=".334" cy=".334" r=".334" class="cls-5" transform="translate(3.114)"/>
                            <circle id="타원_322" cx=".334" cy=".334" r=".334" class="cls-5" transform="translate(4.67)"/>
                        </g>
                        <g id="그룹_3089" transform="translate(7.465 3.425)">
                            <circle id="타원_323" cx=".334" cy=".334" r=".334" class="cls-5"/>
                            <circle id="타원_324" cx=".334" cy=".334" r=".334" class="cls-5" transform="translate(1.557)"/>
                            <circle id="타원_325" cx=".334" cy=".334" r=".334" class="cls-5" transform="translate(3.114)"/>
                            <path id="패스_4632" d="M2391.316 402.2a.334.334 0 1 1-.334-.334.334.334 0 0 1 .334.334z" class="cls-5" transform="translate(-2385.977 -401.864)"/>
                        </g>
                        <g id="그룹_3090" transform="translate(14.93 3.425)">
                            <circle id="타원_326" cx=".334" cy=".334" r=".334" class="cls-5"/>
                            <path id="패스_4633" d="M2427.793 402.2a.334.334 0 1 1-.334-.334.334.334 0 0 1 .334.334z" class="cls-5" transform="translate(-2425.567 -401.864)"/>
                            <circle id="타원_327" cx=".334" cy=".334" r=".334" class="cls-5" transform="translate(3.114)"/>
                            <circle id="타원_328" cx=".334" cy=".334" r=".334" class="cls-5" transform="translate(4.67)"/>
                        </g>
                        <g id="그룹_3091" transform="translate(22.394 3.425)">
                            <circle id="타원_329" cx=".334" cy=".334" r=".334" class="cls-5"/>
                            <circle id="타원_330" cx=".334" cy=".334" r=".334" class="cls-5" transform="translate(1.557)"/>
                            <circle id="타원_331" cx=".334" cy=".334" r=".334" class="cls-5" transform="translate(3.114)"/>
                            <circle id="타원_332" cx=".334" cy=".334" r=".334" class="cls-5" transform="translate(4.67)"/>
                        </g>
                        <path id="선_356" d="M0 0L32.95 0" class="cls-6" transform="translate(.119 6.248)"/>
                        <g id="그룹_3092" transform="translate(.176 8.799)">
                            <path id="패스_4634" d="M2291.2 447.8a.5.5 0 0 1-.148.1.44.44 0 0 1-.187.04.445.445 0 0 1-.2-.042.459.459 0 0 1-.15-.114.507.507 0 0 1-.1-.165.568.568 0 0 1-.034-.2.6.6 0 0 1 .032-.195.5.5 0 0 1 .093-.165.453.453 0 0 1 .15-.114.46.46 0 0 1 .2-.043.446.446 0 0 1 .181.036.6.6 0 0 1 .157.1l-.062.065a.421.421 0 0 0-.126-.089.348.348 0 0 0-.149-.033.351.351 0 0 0-.153.034.38.38 0 0 0-.123.092.444.444 0 0 0-.081.139.516.516 0 0 0 0 .34.433.433 0 0 0 .079.138.358.358 0 0 0 .279.127.35.35 0 0 0 .149-.032.413.413 0 0 0 .125-.088z" class="cls-5" transform="translate(-2290.387 -446.913)"/>
                            <path id="패스_4635" d="M2298.483 446.957l.2.507.2.506h-.1l-.06-.16-.062-.162h-.44l-.062.162-.061.16h-.1l.2-.506.2-.507zm.14.61l-.094-.24-.094-.241-.093.241-.093.24z" class="cls-5" transform="translate(-2297.088 -446.952)"/>
                            <path id="패스_4636" d="M2307.042 447.276a.358.358 0 0 1-.016.108.321.321 0 0 1-.045.089.3.3 0 0 1-.067.067.269.269 0 0 1-.083.041l.234.389h-.1q-.058-.093-.114-.188t-.114-.189h-.3v.376h-.092v-1.013h.393a.316.316 0 0 1 .118.022.3.3 0 0 1 .1.064.309.309 0 0 1 .066.1.344.344 0 0 1 .02.134zm-.307.236a.221.221 0 0 0 .082-.016.2.2 0 0 0 .069-.045.22.22 0 0 0 .046-.074.3.3 0 0 0 0-.2.232.232 0 0 0-.046-.075.2.2 0 0 0-.068-.046.212.212 0 0 0-.081-.016h-.3v.474z" class="cls-5" transform="translate(-2304.438 -446.952)"/>
                            <path id="패스_4637" d="M2314.235 447.464a.566.566 0 0 1-.032.191.5.5 0 0 1-.092.162.466.466 0 0 1-.145.112.412.412 0 0 1-.187.042h-.344v-1.015h.344a.407.407 0 0 1 .181.041.479.479 0 0 1 .146.11.507.507 0 0 1 .1.161.557.557 0 0 1 .029.196zm-.708-.427v.853h.252a.312.312 0 0 0 .147-.035.359.359 0 0 0 .115-.095.431.431 0 0 0 .075-.135.49.49 0 0 0 .027-.161.5.5 0 0 0-.026-.16.454.454 0 0 0-.073-.137.359.359 0 0 0-.116-.095.317.317 0 0 0-.149-.035z" class="cls-5" transform="translate(-2310.685 -446.952)"/>
                            <path id="패스_4638" d="M2326.018 447.971l-.289-.417-.29-.417v.833h-.092v-1.013h.075l.289.418.289.419v-.837h.092v1.013z" class="cls-5" transform="translate(-2321.177 -446.952)"/>
                            <path id="패스_4639" d="M2333.1 446.957l.2.507.2.506h-.1l-.061-.16-.062-.162h-.44l-.061.162-.061.16h-.1l.2-.506.2-.507zm.14.61l-.094-.24-.094-.241-.093.241-.093.24z" class="cls-5" transform="translate(-2327.574 -446.952)"/>
                            <path id="패스_4640" d="M2341.826 446.957l.045 1.015h-.093l-.029-.82-.337.654-.34-.655-.027.821h-.093l.045-1.015h.06l.355.668.352-.668z" class="cls-5" transform="translate(-2334.919 -446.952)"/>
                            <path id="패스_4641" d="M2350.673 447.037h-.578v.384h.535v.081h-.535v.388h.578v.082H2350v-1.015h.67z" class="cls-5" transform="translate(-2342.892 -446.952)"/>
                        </g>
                        <g id="그룹_3093" transform="translate(.16 16.785)">
                            <path id="패스_4642" d="M2290.455 513.966v1.015h-.091v-.934h-.108v-.08z" class="cls-5" transform="translate(-2290.256 -513.954)"/>
                            <path id="패스_4643" d="M2294.016 514.386a.871.871 0 0 1-.024.211.521.521 0 0 1-.068.164.344.344 0 0 1-.114.107.322.322 0 0 1-.3 0 .331.331 0 0 1-.112-.107.507.507 0 0 1-.07-.164.971.971 0 0 1 0-.422.507.507 0 0 1 .07-.164.326.326 0 0 1 .112-.107.328.328 0 0 1 .3 0 .339.339 0 0 1 .114.107.522.522 0 0 1 .068.164.871.871 0 0 1 .024.211zm-.63 0a.725.725 0 0 0 .021.186.451.451 0 0 0 .059.137.258.258 0 0 0 .086.086.2.2 0 0 0 .21 0 .269.269 0 0 0 .087-.086.476.476 0 0 0 .058-.137.824.824 0 0 0 0-.372.5.5 0 0 0-.058-.139.273.273 0 0 0-.087-.085.2.2 0 0 0-.21 0 .261.261 0 0 0-.086.085.468.468 0 0 0-.059.139.728.728 0 0 0-.021.186z" class="cls-5" transform="translate(-2292.936 -513.867)"/>
                            <path id="패스_4644" d="M2304.114 514.981l.492-1.015h.092l-.493 1.015z" class="cls-5" transform="translate(-2302.46 -513.954)"/>
                            <path id="패스_4645" d="M2314.207 513.911a.313.313 0 0 1 .124.025.319.319 0 0 1 .1.067.322.322 0 0 1 .067.1.306.306 0 0 1 .025.122.336.336 0 0 1-.155.28l-.125.084q-.064.042-.117.085a.557.557 0 0 0-.087.089.144.144 0 0 0-.034.089h.539v.08h-.661a.3.3 0 0 1 .035-.143.516.516 0 0 1 .095-.124 1.064 1.064 0 0 1 .136-.113c.052-.037.106-.074.165-.111a.262.262 0 0 0 .085-.1.252.252 0 0 0 .03-.119.233.233 0 0 0-.063-.161.242.242 0 0 0-.072-.049.206.206 0 0 0-.087-.018.226.226 0 0 0-.08.015.221.221 0 0 0-.069.042.211.211 0 0 0-.05.066.192.192 0 0 0-.019.084h-.1a.254.254 0 0 1 .026-.113.3.3 0 0 1 .07-.094.346.346 0 0 1 .1-.062.31.31 0 0 1 .122-.021z" class="cls-5" transform="translate(-2311.064 -513.906)"/>
                            <path id="패스_4646" d="M2320.695 513.966v.08h-.437v.033c0 .018 0 .039-.007.063s-.005.052-.009.08l-.009.079-.007.064v.033a.236.236 0 0 1 .042-.031.347.347 0 0 1 .052-.025.339.339 0 0 1 .055-.016.25.25 0 0 1 .051-.006.3.3 0 0 1 .128.027.347.347 0 0 1 .1.073.354.354 0 0 1 .068.107.323.323 0 0 1 .026.128.32.32 0 0 1-.026.128.343.343 0 0 1-.071.108.355.355 0 0 1-.106.075.309.309 0 0 1-.131.028.325.325 0 0 1-.21-.077.29.29 0 0 1-.073-.084.34.34 0 0 1-.041-.106h.095a.249.249 0 0 0 .031.076.2.2 0 0 0 .053.058.218.218 0 0 0 .067.038.23.23 0 0 0 .079.014.215.215 0 0 0 .093-.021.251.251 0 0 0 .078-.057.262.262 0 0 0 .052-.082.247.247 0 0 0 .02-.1.252.252 0 0 0-.019-.1.273.273 0 0 0-.051-.081.235.235 0 0 0-.076-.055.229.229 0 0 0-.1-.02.226.226 0 0 0-.1.024.245.245 0 0 0-.081.063h-.113l.06-.523z" class="cls-5" transform="translate(-2316.528 -513.954)"/>
                        </g>
                        <path id="선_357" d="M0 0L32.95 0" class="cls-6" transform="translate(.119 15.047)"/>
                    </g>
                    <g id="그룹_3096" transform="translate(30.53 11.471)">
                        <rect id="사각형_1307" width="5.747" height="5.747" fill="#ffca00" rx="2.873"/>
                        <g id="그룹_3095">
                            <path id="패스_4647" d="M2517.76 451.024h1.127a.448.448 0 0 0 .448-.448v-2.253a.448.448 0 0 0-.448-.449h-1.127" class="cls-6" transform="translate(-2517.76 -446.576)"/>
                            <path id="패스_4648" d="M2554.306 447.874h-1.127a.448.448 0 0 0-.448.449v2.253a.448.448 0 0 0 .448.448h1.127" class="cls-6" transform="translate(-2548.559 -446.576)"/>
                            <path id="선_358" d="M0 0L5.747 0" class="cls-6" transform="translate(0 2.873)"/>
                            <path id="선_359" d="M0 0L0 5.747" class="cls-6" transform="translate(2.873)"/>
                        </g>
                    </g>
                </g>
            </g>
            <g id="그룹_3085" transform="translate(32.009 19.204)">
                <g id="그룹_3082">
                    <g id="그룹_3080">
                        <g id="그룹_3079" class="cls-8">
                            <g id="그룹_3022" class="cls-8" transform="translate(16.499 28.841)">
                                <g id="그룹_3021" clip-path="url(#clip-path)">
                                    <g id="그룹_3020" class="cls-8" transform="translate(0 -18.497)">
                                        <path id="패스_4535" fill="#8a8a8a" d="M463.769 436.395v-.522q.7-.287 1.345-.63v.522q-.651.343-1.345.63" transform="translate(-463.769 -411.925)"/>
                                        <path id="패스_4536" d="M472.058 315.42v-.52c8.7-4.581 11.562-16.357 12.5-23.318v.522c-.939 6.961-3.8 18.737-12.5 23.318" class="cls-11" transform="translate(-470.713 -291.58)"/>
                                    </g>
                                </g>
                            </g>
                            <g id="그룹_3025" class="cls-8" transform="translate(2.857 11.946)">
                                <g id="그룹_3024" clip-path="url(#clip-path-2)">
                                    <g id="그룹_3023" class="cls-8" transform="translate(-.239 -1.602)">
                                        <path id="패스_4538" d="M378.46 292.1v-.522a54.922 54.922 0 0 0 1.268 6.487v.522a54.938 54.938 0 0 1-1.268-6.487" class="cls-13" transform="translate(-378.46 -291.58)"/>
                                        <path id="패스_4539" fill="#a3a3a3" d="M386.274 332.07v-.522a41.928 41.928 0 0 0 1.807 5.437v.522a41.933 41.933 0 0 1-1.807-5.437" transform="translate(-385.006 -325.061)"/>
                                        <path id="패스_4540" d="M397.409 365.569v-.522a29.931 29.931 0 0 0 2.482 4.786v.522a29.93 29.93 0 0 1-2.482-4.786" class="cls-15" transform="translate(-394.333 -353.122)"/>
                                        <path id="패스_4541" fill="#adadad" d="M412.7 395.054v-.522a18.713 18.713 0 0 0 7.157 6.718v.522a18.714 18.714 0 0 1-7.157-6.718" transform="translate(-407.141 -377.822)"/>
                                        <path id="패스_4542" d="M456.8 436.444v-.522q.55.28 1.132.52v.522q-.582-.24-1.132-.52" class="cls-15" transform="translate(-444.08 -412.494)"/>
                                    </g>
                                </g>
                            </g>
                            <g id="그룹_3028" class="cls-8" transform="translate(2.618 11.949)">
                                <g id="그룹_3027" clip-path="url(#clip-path-3)">
                                    <g id="그룹_3026" class="cls-8">
                                        <path id="패스_4544" d="M378.46 292.1v-.522a54.922 54.922 0 0 0 1.268 6.487v.522a54.938 54.938 0 0 1-1.268-6.487" class="cls-13" transform="translate(-378.46 -291.58)"/>
                                    </g>
                                </g>
                            </g>
                            <g id="그룹_3031" class="cls-8" transform="translate(23.532 11.254)">
                                <g id="그룹_3030" clip-path="url(#clip-path-4)">
                                    <g id="그룹_3029" class="cls-8" transform="translate(-5.668)">
                                        <path id="패스_4546" d="M472.058 315.42v-.52c8.7-4.581 11.562-16.357 12.5-23.318v.522c-.939 6.961-3.8 18.737-12.5 23.318" class="cls-11" transform="translate(-472.058 -291.58)"/>
                                    </g>
                                </g>
                            </g>
                            <g id="그룹_3032" transform="translate(30.365 11.217)">
                                <path id="패스_4548" fill="gray" d="M549.079 287.968v-.522l.077-.8v.522z" transform="translate(-549.079 -286.645)"/>
                            </g>
                            <g id="그룹_3033" transform="translate(2.542 11.217)">
                                <path id="패스_4549" fill="#989898" d="M378 287.167v-.522l.075.8v.522z" transform="translate(-377.997 -286.645)"/>
                            </g>
                            <g id="그룹_3036" class="cls-8" transform="translate(2.284 8.577)">
                                <g id="그룹_3035" clip-path="url(#clip-path-5)">
                                    <g id="그룹_3034" class="cls-8">
                                        <path id="패스_4550" fill="#999" d="M376.407 270.018v-.518c.083.931.171 1.868.258 2.783v.522c-.087-.916-.175-1.852-.258-2.783" transform="translate(-376.407 -269.496)"/>
                                    </g>
                                </g>
                            </g>
                            <g id="그룹_3039" class="cls-8" transform="translate(30.442 8.577)">
                                <g id="그룹_3038" clip-path="url(#clip-path-6)">
                                    <g id="그룹_3037" class="cls-8">
                                        <path id="패스_4552" d="M549.554 272.8v-.522c.087-.916.175-1.852.256-2.783v.522c-.081.931-.169 1.868-.256 2.783" class="cls-11" transform="translate(-549.554 -269.496)"/>
                                    </g>
                                </g>
                            </g>
                            <g id="그룹_3042" class="cls-8" transform="translate(2.284 1.62)">
                                <g id="그룹_3041" clip-path="url(#clip-path-7)">
                                    <g id="그룹_3040" class="cls-8">
                                        <path id="패스_4554" fill="#006e8a" d="M376.407 267.7v-.522q.483-.206.945-.449v.522q-.462.243-.945.449" transform="translate(-376.407 -259.569)"/>
                                        <path id="패스_4555" fill="#006a85" d="M382.231 230.3v-.522a13 13 0 0 0 6.2-7.159v.521a13 13 0 0 1-6.2 7.159" transform="translate(-381.286 -222.619)"/>
                                    </g>
                                </g>
                            </g>
                            <g id="그룹_3045" class="cls-8" transform="translate(23.553 1.62)">
                                <g id="그룹_3044" clip-path="url(#clip-path-8)">
                                    <g id="그룹_3043" class="cls-8">
                                        <path id="패스_4557" fill="#0083a3" d="M507.106 223.141v-.521q.117.331.251.655v.521q-.134-.323-.251-.655" transform="translate(-507.106 -222.619)"/>
                                        <path id="패스_4558" d="M508.652 227.175v-.522a12.827 12.827 0 0 0 1.077 2.048v.522a12.822 12.822 0 0 1-1.077-2.048" class="cls-29" transform="translate(-508.401 -225.998)"/>
                                        <path id="패스_4559" fill="#008bad" d="M515.289 239.794v-.521a13.058 13.058 0 0 0 5.066 4.556v.522a13.058 13.058 0 0 1-5.066-4.556" transform="translate(-513.961 -236.57)"/>
                                        <path id="패스_4560" d="M546.5 267.862v-.522q.369.187.752.35v.522q-.383-.163-.752-.35" class="cls-29" transform="translate(-540.105 -260.081)"/>
                                    </g>
                                </g>
                            </g>
                            <g id="그룹_3046" transform="translate(9.457 1.619)">
                                <path id="사각형_1303" fill="#007e9d" d="M0 0H14.068V0.522H0z"/>
                            </g>
                            <g id="그룹_3047">
                                <path id="패스_4562" d="M387.52 212.641a10.4 10.4 0 0 0 7.8 7.761c-.133 1.646-.309 3.313-.475 4.969-1.084 7.548-4.613 20.572-16.019 24.378-11.4-3.805-14.933-16.83-16.017-24.378-.166-1.656-.341-3.323-.475-4.969a10.4 10.4 0 0 0 7.8-7.761zm5.252 11.752c.087-.859.175-1.737.257-2.61a12.574 12.574 0 0 1-7.158-7.134h-14.092a12.563 12.563 0 0 1-7.158 7.134c.083.873.172 1.751.258 2.61l.075.751c.99 6.853 4.1 18.681 13.869 22.455 9.768-3.773 12.882-15.6 13.87-22.455l.077-.751" class="cls-5" transform="translate(-362.333 -212.641)"/>
                            </g>
                            <g id="그룹_3048" transform="translate(2.284 2.141)">
                                <path id="패스_4563" d="M397.662 225.834h-14.1a12.507 12.507 0 0 1-7.159 7.074c.084.866.172 1.737.259 2.589l.075.744a47.309 47.309 0 0 0 1.494 6.8c1.3 4.282 3.45 8.866 7.027 12.136a16.749 16.749 0 0 0 5.352 3.329c9.179-3.514 12.481-14.078 13.667-20.978q.116-.668.206-1.287l.077-.744c.086-.852.176-1.723.257-2.589a12.519 12.519 0 0 1-7.155-7.074zm-4.955 19.432h-4.188l1.158-5.231a1.919 1.919 0 0 1-1.158-1.725 2.1 2.1 0 0 1 4.188 0 1.917 1.917 0 0 1-1.156 1.725z" class="cls-2" transform="translate(-376.406 -225.834)"/>
                                <path id="패스_4564" d="M402.305 267.2a14.792 14.792 0 0 1-3.847-2.534c-2.811-2.54-4.988-6.285-6.471-11.133a44.236 44.236 0 0 1-1.429-6.418s-.154-1.5-.2-1.9a14.484 14.484 0 0 0 6.326-6.2h11.232a14.5 14.5 0 0 0 6.327 6.2l-.124 1.209-.073.693c-.056.38-.121.78-.193 1.188-.972 5.626-3.764 15.381-11.548 18.895z" class="cls-5" transform="translate(-388.098 -236.878)"/>
                            </g>
                            <g id="그룹_3084" transform="translate(14.402 12.51)">
                                <path id="패스_4594" d="M452.984 295.724a2.072 2.072 0 0 1 .935 3.93l-.219-1.054h-1.437l-.217 1.056a2.072 2.072 0 0 1 .935-3.93z" class="cls-32" transform="translate(-450.894 -295.724)"/>
                                <path id="패스_4606" d="M453.7 313.427l.217 1.057 1.154 5.627h-4.18l1.155-5.627.217-1.056z" class="cls-32" transform="translate(-450.894 -310.809)"/>
                            </g>
                        </g>
                    </g>
                    <circle id="타원_316" cx="6.32" cy="6.32" r="6.32" class="cls-32" transform="translate(18.786 23.108)"/>
                </g>
                <path id="패스_4607" d="M558.666 559.923a.25.25 0 0 1-.183-.082l-1.986-2.152a.3.3 0 0 1 0-.4.245.245 0 0 1 .366 0l1.8 1.954L562 555.63a.245.245 0 0 1 .366 0 .3.3 0 0 1 0 .4l-3.521 3.815a.249.249 0 0 1-.179.078z" class="cls-5" transform="translate(-534.344 -528.324)"/>
            </g>
        </g>
        <g id="그룹_3105" transform="translate(78.105 267.873)">
            <g id="그룹_3102">
                <g id="그룹_3100" transform="translate(.773)">
                    <circle id="타원_333" cx="8.274" cy="8.274" r="8.274" fill="url(#linear-gradient)" transform="translate(.379 .554)"/>
                    <circle id="타원_334" cx="8.274" cy="8.274" r="8.274" class="cls-34" transform="translate(.251 .346)"/>
                    <ellipse id="타원_335" cx="6.867" cy="6.609" fill="#ffd86c" rx="6.867" ry="6.609" transform="rotate(-69.388 9.42 6.521)"/>
                    <ellipse id="타원_336" cx="6.494" cy="6.62" fill="url(#linear-gradient-2)" rx="6.494" ry="6.62" transform="rotate(-69.388 8.818 6.023)"/>
                    <circle id="타원_337" cx="6.564" cy="6.564" r="6.564" fill="url(#linear-gradient-3)" transform="translate(1.861 2.358)"/>
                </g>
                <g id="그룹_3101" opacity="0.9" transform="translate(0 .054)"/>
                <path id="패스_4649" fill="#f4f4f4" d="M247.689 167.175l-.229-.086.255-.342a.715.715 0 0 0 .126-.157.929.929 0 0 0 .065-.135.543.543 0 0 0-.04-.463.7.7 0 0 0-1.024-.171l-.591.814-1.134-.426.122-.745a.876.876 0 0 0-.109-.5.742.742 0 0 0-.381-.325h-.006a.707.707 0 0 0-.479 0 .884.884 0 0 0-.412.3l-.407.649-1.137-.428.069-.729a.789.789 0 0 0-.017-.446.578.578 0 0 0-.34-.355 1.079 1.079 0 0 0-.3-.061.508.508 0 0 0-.479.231.526.526 0 0 0-.1.271c0 .04-.007.082-.012.133l-.042.5-.23-.086a.655.655 0 1 0-.461 1.226l.578.217-.244 2.926a1.555 1.555 0 0 0 .021.405.832.832 0 0 0 .087.253.444.444 0 0 0 .184.22.975.975 0 0 0 .15.078l.081.029a.726.726 0 0 0 .529-.063 1.276 1.276 0 0 0 .443-.373l1.511-2.436.153.058-.461 2.823a1 1 0 0 0 .057.57.74.74 0 0 0 .37.4l.083.032a.688.688 0 0 0 .516-.047 1.2 1.2 0 0 0 .433-.39l1.754-2.354.583.219a.655.655 0 0 0 .461-1.226zm-5.631.613l.122-1.286.555.209zm2.64.987l.2-1.249.551.207z" transform="translate(-234.544 -158.262)"/>
            </g>
            <g id="그룹_3103" transform="translate(21.542 3.993)">
                <path id="패스_4650" fill="url(#linear-gradient-4)" d="M351.1 164.4c1.316 2.169 2.9 3.613 3.541 3.225.16-.1.669-.379.788-.473.417-.329-.266-.841-.292-1.141-.075-.869-.809-1.514-1.72-3.017-.955-1.574-1.448-2.669-2.286-3.025-.242-.1-.044-.866-.474-.669-.132.061-.629.377-.781.469-.642.387-.094 2.46 1.224 4.631z" transform="translate(-349.607 -158.595)"/>
                <path id="선_360" d="M0.85 0L0 0.567" class="cls-41" transform="translate(3.999 8.179)"/>
                <path id="선_361" d="M0.85 0L0 0.567" class="cls-41" transform="translate(3.231 7.51)"/>
                <path id="선_362" d="M0.85 0L0 0.567" class="cls-41" transform="translate(2.623 6.784)"/>
                <path id="선_363" d="M0.85 0L0 0.567" class="cls-41" transform="translate(1.98 5.942)"/>
                <path id="선_364" d="M0.85 0L0 0.567" class="cls-41" transform="translate(1.389 4.954)"/>
                <path id="선_365" d="M0.85 0L0 0.567" class="cls-41" transform="translate(.855 3.948)"/>
                <path id="선_366" d="M0.929 0L0 0.549" class="cls-41" transform="translate(.396 3.009)"/>
                <path id="선_367" d="M0.929 0L0 0.549" class="cls-41" transform="translate(.106 2.032)"/>
                <path id="선_368" d="M0.929 0L0 0.549" class="cls-41" transform="translate(.053 1.097)"/>
                <ellipse id="타원_338" cx="1.247" cy="4.594" class="cls-34" rx="1.247" ry="4.594" transform="rotate(-31.238 2.348 .521)"/>
                <ellipse id="타원_339" cx=".929" cy="3.71" fill="url(#linear-gradient-5)" rx=".929" ry="3.71" transform="rotate(-31.238 3.415 -.65)"/>
                <ellipse id="타원_340" cx=".929" cy="3.87" fill="url(#linear-gradient-6)" rx=".929" ry="3.87" transform="rotate(-31.238 3.445 -.543)"/>
                <path id="패스_4651" d="M360.795 164.215c-.237.228.614 1.347.95 1.7s1.765 2.33 1.917 2.039c.274-.525-.914-2.1-1.456-2.768-.306-.38-1.174-1.199-1.411-.971z" class="cls-44" transform="translate(-359.116 -162.782)"/>
            </g>
            <g id="그룹_3104" transform="translate(13.866 16.001)">
                <path id="패스_4652" fill="url(#linear-gradient-7)" d="M299.2 242.5c-1.764 3.5-2.357 6.759-1.325 7.28.259.13 1.044.566 1.265.645.773.277.884-1.037 1.255-1.316 1.076-.81 1.321-2.3 2.543-4.724 1.28-2.54 2.31-4.083 2.091-5.472-.064-.4 1.1-.767.488-1.169-.188-.123-1.009-.516-1.254-.639-1.033-.523-3.3 1.895-5.063 5.395z" transform="translate(-297.367 -236.942)"/>
                <path id="선_369" d="M1.438 0.649L0 0" class="cls-46" transform="translate(.032 11.252)"/>
                <path id="선_370" d="M1.438 0.649L0 0" class="cls-46" transform="translate(.279 9.697)"/>
                <path id="선_371" d="M1.438 0.649L0 0" class="cls-46" transform="translate(.733 8.306)"/>
                <path id="선_372" d="M1.438 0.649L0 0" class="cls-46" transform="translate(1.308 6.774)"/>
                <path id="선_373" d="M1.438 0.649L0 0" class="cls-46" transform="translate(2.119 5.19)"/>
                <path id="선_374" d="M1.438 0.649L0 0" class="cls-46" transform="translate(3 3.667)"/>
                <path id="선_375" d="M1.48 0.767L0 0" class="cls-46" transform="translate(3.877 2.283)"/>
                <path id="선_376" d="M1.48 0.767L0 0" class="cls-46" transform="translate(4.919 1.103)"/>
                <path id="선_377" d="M1.48 0.767L0 0" class="cls-46" transform="translate(6.1 .268)"/>
                <ellipse id="타원_341" cx="7.097" cy="1.926" class="cls-34" rx="7.097" ry="1.926" transform="rotate(-63.249 10.385 6.184)"/>
                <ellipse id="타원_342" cx="5.732" cy="1.436" fill="url(#linear-gradient-8)" rx="5.732" ry="1.436" transform="rotate(-63.249 10.147 4.526)"/>
                <ellipse id="타원_343" cx="5.98" cy="1.436" fill="url(#linear-gradient-9)" rx="5.98" ry="1.436" transform="rotate(-63.249 10.32 4.974)"/>
                <path id="패스_4653" d="M334.456 251.513c-.493-.123-1.261 1.907-1.443 2.633s-1.607 4.221-1.1 4.181c.913-.071 2.005-2.919 2.433-4.175.241-.708.602-2.516.11-2.639z" class="cls-44" transform="translate(-326.744 -249.29)"/>
            </g>
        </g>
    </g>
</svg>
