<svg xmlns="http://www.w3.org/2000/svg" width="146" height="116" viewBox="0 0 146 116">
    <path fill="#bc8877" d="M182.924 203.254L166 189.649c4.162-6.525 4.023-7.358 14.568-19.02 11.867-13.125 18.491-16.231 26.308-22.3 3.868-3 15.209-9.77 18.435-16.643 3.047-6.49 1.438-14.5-1.578-17.921a19.686 19.686 0 0 0-18.813-5.939c-8.859 2.076-14.225 9.692-19.288 23.909-3.3 9.266-6.762 17.523-12.528 23.847a43.165 43.165 0 0 1-19.472 12.406 40.182 40.182 0 0 1-19.891.8 38.58 38.58 0 0 1-17.579-8.9A44.154 44.154 0 0 1 101.98 128.5c-.159-11.3 4.334-21.6 12.992-29.794a40.23 40.23 0 0 1 20.051-10.766A37.156 37.156 0 0 1 153.04 89a46.59 46.59 0 0 1 16.8 9.329l-13.585 14.793.06.054a27.007 27.007 0 0 0-9.624-5.1c-6.546-1.808-12.243-.145-17.929 5.232-4.53 4.286-6.786 9.3-6.708 14.911a24.138 24.138 0 0 0 7.481 16.692 19.353 19.353 0 0 0 18.359 3.828c5.029-1.5 12.847-6.771 18.345-22.208 4.2-11.786 7.393-19.384 13.49-25.991a40.761 40.761 0 0 1 20.613-12.271 39.726 39.726 0 0 1 38.458 12.219 35.009 35.009 0 0 1 9.1 25.9c-.626 9.288-5.179 17.753-13.637 25.5-7.637 6.993-17.851 12.857-28.927 23.74-11.447 11.246-17.135 18.187-22.407 27.627" opacity="0.06" transform="translate(-101.976 -87.254)"/>
</svg>
