<svg xmlns="http://www.w3.org/2000/svg" xmlns:xlink="http://www.w3.org/1999/xlink" width="360" height="238" viewBox="0 0 360 238">
    <defs>
        <linearGradient id="linear-gradient" x2="1" y1=".5" y2=".5" gradientUnits="objectBoundingBox">
            <stop offset="0" stop-color="#9eb6df"/>
            <stop offset="1" stop-color="#434483"/>
        </linearGradient>
        <linearGradient id="linear-gradient-2" x1=".256" x2=".752" y1=".959" y2=".063" gradientUnits="objectBoundingBox">
            <stop offset=".015" stop-color="#9eb6df"/>
            <stop offset=".052" stop-color="#a6bce1"/>
            <stop offset=".222" stop-color="#c6d4ec"/>
            <stop offset=".398" stop-color="#dfe7f4"/>
            <stop offset=".581" stop-color="#f0f4fa"/>
            <stop offset=".776" stop-color="#fbfcfd"/>
            <stop offset="1" stop-color="#fff"/>
        </linearGradient>
        <linearGradient id="linear-gradient-4" x2="1" y1=".5" y2=".5" gradientUnits="objectBoundingBox">
            <stop offset="0" stop-color="#fea972"/>
            <stop offset="1" stop-color="#f3925f"/>
        </linearGradient>
        <linearGradient id="linear-gradient-6" x1="0" x2="1" y1=".5" y2=".5" xlink:href="#linear-gradient-2"/>
        <linearGradient id="linear-gradient-7" x2="1" y1=".5" y2=".5" gradientUnits="objectBoundingBox">
            <stop offset="0" stop-color="#bc8877"/>
            <stop offset="1" stop-color="#a16f5e"/>
        </linearGradient>
        <linearGradient id="linear-gradient-12" x2="1" y1=".5" y2=".5" gradientUnits="objectBoundingBox">
            <stop offset="0" stop-color="#e46379"/>
            <stop offset="1" stop-color="#b53a5a"/>
        </linearGradient>
        <linearGradient id="linear-gradient-15" x1="-183.428" x2="-182.428" y1=".5" y2=".5" xlink:href="#linear-gradient-4"/>
        <linearGradient id="linear-gradient-16" x1="-131.79" x2="-131.79" y1="0" y2="1" xlink:href="#linear-gradient-4"/>
        <linearGradient id="linear-gradient-17" x1="-124.524" x2="-123.524" y1=".5" y2=".5" xlink:href="#linear-gradient-4"/>
        <linearGradient id="linear-gradient-18" x2="1" y1=".5" y2=".5" gradientUnits="objectBoundingBox">
            <stop offset=".015" stop-color="#e8eff9"/>
            <stop offset="1" stop-color="#fff"/>
        </linearGradient>
        <clipPath id="clip-path">
            <path id="사각형_2536" fill="#e9f8ff" d="M0 0H360V238H0z" transform="translate(0 60)"/>
        </clipPath>
        <style>
            .cls-4{fill:#e8eff9}.cls-5{fill:url(#linear-gradient)}.cls-6{fill:none;stroke-linecap:round;stroke-miterlimit:10;stroke:#9eb6df;stroke-width:4px}.cls-11,.cls-25{mix-blend-mode:multiply}.cls-11,.cls-13,.cls-25{isolation:isolate}.cls-8{fill:url(#linear-gradient-4)}.cls-9{fill:#8e5441}.cls-10{fill:#f9e8a0}.cls-11{fill:url(#linear-gradient-6)}.cls-14{fill:#fea972}.cls-15{fill:#f3925f}.cls-16{fill:#dfebfc}.cls-17{fill:#fafcff}.cls-18{fill:#b6cbea}.cls-19{fill:#994868}.cls-20{fill:url(#linear-gradient-12)}.cls-25{fill:url(#linear-gradient-18)}.cls-26{fill:#282861}.cls-27{fill:#f2b481}.cls-28{fill:#9eb6df}.cls-29{fill:#fff}
        </style>
    </defs>
    <g id="마스크_그룹_72" clip-path="url(#clip-path)" transform="translate(0 -60)">
        <g id="그룹_6064" transform="translate(43.786 -6)">
            <circle id="타원_520" cx="86.5" cy="86.5" r="86.5" fill="#d1effe" transform="translate(155.214 177)"/>
            <g id="그룹_6052" transform="translate(142.221 184.865)">
                <g id="_레이어_" transform="translate(0 21.06)">
                    <g id="그룹_5997" transform="translate(0 19.897)">
                        <path id="패스_16401" d="M290.74 910.416l-74.346-40.937a3.518 3.518 0 0 1-.09-6.113l67.757-39.939a9.952 9.952 0 0 1 9.854-.144l74.346 40.936a3.518 3.518 0 0 1 .09 6.113l-67.757 39.94a9.952 9.952 0 0 1-9.854.144z" class="cls-4" transform="translate(-214.044 -822.049)"/>
                        <g id="그룹_5996" transform="translate(0 42.012)">
                            <path id="패스_16402" d="M307.641 1115.411l-9.7 5.719a9.952 9.952 0 0 1-9.854.144l-74.346-40.937a3.519 3.519 0 0 1-.931-5.419 3.36 3.36 0 0 0-1.124 2.248V1083.985c-.1 1.258.7 2.525 2.391 3.454l73.227 40.32a12.8 12.8 0 0 0 11.4-.167l66.656-39.291a4.03 4.03 0 0 0 2.3-3.139v-.094-.1-.1-.1-.094-.1-.093-.1-.095-.1-.094-.1-.1-.093-.1-.1-.1-.093-.1-.094-.1-.094-.1-.1-.094-.1-.094-.094-.1-.093-.1-.1-.093-.1-.094-.1-.1-.094-.1-.094-.1-.1-.093-.1-.095-.095-.1-.095-.1-.1-.093-.1-.095-.095-.1-.095-.1-.094-.095-.1-.1-.094-.1-.094-.1-.1-.094-.1-.093-.1a3.227 3.227 0 0 0-1.224-2.636 3.521 3.521 0 0 1-.737 5.483l-58.056 34.221" class="cls-5" transform="translate(-211.389 -1074.918)"/>
                        </g>
                        <path id="선_607" d="M63.178 35.251L0 0" class="cls-6" transform="translate(17.95 41.952)"/>
                        <path id="선_608" d="M19.509 10.741L0 0" class="cls-6" transform="translate(71.073 60.915)"/>
                        <path id="선_609" d="M20.364 11.227L0 0" class="cls-6" transform="translate(79.672 54.881)"/>
                        <path id="선_610" d="M20.441 11.271L0 0" class="cls-6" transform="translate(89.05 49.29)"/>
                        <path id="선_611" d="M63.178 35.251L0 0" class="cls-6" transform="translate(55.767 19.764)"/>
                        <path id="선_612" d="M63.178 35.251L0 0" class="cls-6" transform="translate(65.221 14.216)"/>
                        <path id="선_613" d="M63.178 35.251L0 0" class="cls-6" transform="translate(74.675 8.669)"/>
                    </g>
                    <path id="패스_16403" d="M406.932 851.319l63.7-37.55a3.518 3.518 0 0 0-.09-6.113L396.2 766.72a9.952 9.952 0 0 0-9.854.144L318.589 806.8a1.175 1.175 0 1 0 .1 2.345l74.346 40.936a9.943 9.943 0 0 0 5.091 1.226v.008z" transform="translate(-299.792 -754.985)" style="isolation:isolate;mix-blend-mode:multiply" fill="url(#linear-gradient-2)"/>
                    <g id="그룹_5999" transform="translate(16.536)">
                        <path id="패스_16404" d="M390.273 790.654l-74.346-40.937a3.518 3.518 0 0 1-.09-6.113l67.757-39.939a9.952 9.952 0 0 1 9.854-.144l74.346 40.936a3.518 3.518 0 0 1 .09 6.113l-67.757 39.939a9.952 9.952 0 0 1-9.854.145z" class="cls-4" transform="translate(-313.577 -702.286)"/>
                        <g id="그룹_5998" transform="translate(0 42.012)">
                            <path id="패스_16405" d="M407.174 995.649l-9.7 5.718a9.952 9.952 0 0 1-9.854.144l-74.346-40.937a3.519 3.519 0 0 1-.931-5.419 3.358 3.358 0 0 0-1.124 2.247V964.227c-.1 1.258.7 2.524 2.391 3.454l73.227 40.32a12.8 12.8 0 0 0 11.4-.167l66.656-39.29a4.031 4.031 0 0 0 2.3-3.14v-.093-.1-.1-.1-.094-.1-.093-.1-.095-.1-.093-.1-.1-.094-.1-.1-.1-.093-.1-.094-.1-.094-.1-.1-.094-.1-.094-.094-.1-.093-.1-.1-.093-.1-.094-.1-.1-.094-.1-.094-.1-.095-.094-.1-.095-.094-.1-.095-.1-.1-.093-.1-.095-.095-.1-.095-.1-.095-.095-.1-.1-.093-.1-.094-.1-.095-.094-.1-.093-.1a3.227 3.227 0 0 0-1.224-2.635 3.52 3.52 0 0 1-.738 5.483l-58.056 34.221" class="cls-5" transform="translate(-310.922 -955.156)"/>
                        </g>
                        <path id="선_614" d="M63.178 35.251L0 0" class="cls-6" transform="translate(17.95 41.952)"/>
                        <path id="선_615" d="M19.509 10.741L0 0" class="cls-6" transform="translate(71.073 60.915)"/>
                        <path id="선_616" d="M20.364 11.227L0 0" class="cls-6" transform="translate(79.672 54.881)"/>
                        <path id="선_617" d="M20.441 11.271L0 0" class="cls-6" transform="translate(89.05 49.29)"/>
                        <path id="선_618" d="M63.178 35.251L0 0" class="cls-6" transform="translate(55.767 19.764)"/>
                        <path id="선_619" d="M63.178 35.251L0 0" class="cls-6" transform="translate(65.221 14.216)"/>
                        <path id="선_620" d="M63.178 35.251L0 0" class="cls-6" transform="translate(74.675 8.669)"/>
                    </g>
                    <g id="그룹_6003" transform="translate(49.464 4.71)">
                        <path id="패스_16406" d="M527.57 833.306l-7.987-4.544 4.091-3.375-14.56-11.9V837.4c.01 3.793 2.527 7.575 7.558 10.438l10.99-6.481c-3.855-2.199-3.909-5.801-.092-8.051z" class="cls-8" transform="translate(-509.113 -799.723)"/>
                        <path id="패스_16407" d="M579.517 794.87c3.818-2.251 3.775-5.846-.095-8.049a15.308 15.308 0 0 0-13.9.088l-1.715-.976c-5.4 5.678-9.179 15.5-9.179 15.5l10.991-6.48a15.287 15.287 0 0 0 13.898-.083z" class="cls-9" transform="translate(-547.069 -776.133)"/>
                        <path id="사각형_2532" d="M0 0H10.342V20.162H0z" class="cls-8" transform="translate(8.115 10.776)"/>
                        <g id="그룹_6000" transform="translate(0 4.437)">
                            <path id="패스_16408" d="M516.676 778.21c-9.078-5.166-9.984-13.323-2.713-19.141 1.135-.84 1.985-1.411 2.307-1.624l.157-.1 11.143 6.34c-3.817 2.25-3.763 5.852.1 8.047z" class="cls-10" transform="translate(-509.113 -757.342)"/>
                        </g>
                        <path id="사각형_2533" d="M0 0h47.715a12.838 12.838 0 0 1 12.837 12.838 12.838 12.838 0 0 1-12.837 12.838H0V0z" class="cls-11" transform="translate(24.135 26.625)"/>
                        <g id="그룹_6001" transform="translate(7.314)">
                            <path id="패스_16409" fill="url(#linear-gradient-7)" d="M553.384 755.943l10.991-6.481a15.285 15.285 0 0 0 13.894-.087c3.818-2.251 3.775-5.846-.095-8.048a15.309 15.309 0 0 0-13.9.088l-11.143-6.34c9.884-5.828 26.015-5.924 36.028-.228s10.134 15.04.249 20.868-26.003 5.929-36.024.228z" transform="translate(-553.135 -730.638)"/>
                        </g>
                        <g id="그룹_6002" transform="translate(7.563 14.87)">
                            <path id="패스_16410" d="M590.66 830.346c-9.874 5.823-26.007 5.93-36.028.228v22.807c10.021 5.7 26.154 5.594 36.028-.228 4.873-2.873 7.311-6.6 7.336-10.322v-.114V820.14h-.007c-.07 3.684-2.506 7.36-7.329 10.206z" class="cls-9" transform="translate(-554.632 -820.139)"/>
                        </g>
                    </g>
                    <g id="그룹_6012" transform="translate(32.55 63.41)">
                        <path id="패스_16411" d="M461.477 1162.018h-18.515v7.3h18.515l5.939-3.652z" class="cls-11" transform="translate(-437.038 -1149.047)"/>
                        <g id="그룹_6011">
                            <g id="그룹_6010">
                                <g id="그룹_6009">
                                    <g id="그룹_6008">
                                        <g id="그룹_6007" class="cls-13">
                                            <g id="그룹_6004" transform="translate(0 3.49)">
                                                <path id="패스_16412" d="M413.232 1121.741l-5.9-3.429-.023-13.355 5.9 3.428z" class="cls-14" transform="translate(-407.308 -1104.956)"/>
                                            </g>
                                            <g id="그룹_6005">
                                                <path id="패스_16413" d="M413.209 1090.868l-5.9-3.428 5.923-3.49 5.9 3.429z" class="cls-10" transform="translate(-407.308 -1083.949)"/>
                                            </g>
                                            <g id="그룹_6006" transform="translate(5.9 3.429)">
                                                <path id="패스_16414" d="M448.745 1104.587l.023 13.356-5.923 3.49-.023-13.356z" class="cls-15" transform="translate(-442.822 -1104.587)"/>
                                            </g>
                                        </g>
                                    </g>
                                </g>
                            </g>
                        </g>
                    </g>
                    <g id="그룹_6021" transform="translate(46.81 58.462)">
                        <path id="패스_16415" d="M547.31 1208.438H528.8v7.3h18.51l5.939-3.652z" class="cls-11" transform="translate(-522.872 -1182.808)"/>
                        <g id="그룹_6020">
                            <g id="그룹_6019">
                                <g id="그룹_6018">
                                    <g id="그룹_6017">
                                        <g id="그룹_6016" class="cls-13">
                                            <g id="그룹_6013" transform="translate(0 3.49)">
                                                <path id="패스_16416" d="M499.065 1104.621l-5.9-3.429-.023-26.015 5.9 3.428z" class="cls-16" transform="translate(-493.142 -1075.177)"/>
                                            </g>
                                            <g id="그룹_6014">
                                                <path id="패스_16417" d="M499.042 1061.089l-5.9-3.428 5.923-3.49 5.9 3.429z" class="cls-17" transform="translate(-493.142 -1054.17)"/>
                                            </g>
                                            <g id="그룹_6015" transform="translate(5.9 3.429)">
                                                <path id="패스_16418" d="M534.578 1074.808l.023 26.016-5.923 3.49-.023-26.016z" class="cls-18" transform="translate(-528.655 -1074.808)"/>
                                            </g>
                                        </g>
                                    </g>
                                </g>
                            </g>
                        </g>
                    </g>
                    <g id="그룹_6030" transform="translate(61.071 86.72)">
                        <path id="패스_16419" d="M633.144 1254.858h-18.515v7.3h18.515l5.938-3.652z" class="cls-11" transform="translate(-608.705 -1249.774)"/>
                        <g id="그룹_6029">
                            <g id="그룹_6028">
                                <g id="그룹_6027">
                                    <g id="그룹_6026">
                                        <g id="그룹_6025" class="cls-13">
                                            <g id="그룹_6022" transform="translate(0 3.49)">
                                                <path id="패스_16420" d="M584.9 1254.162l-5.9-3.429-.024-5.469 5.9 3.428z" class="cls-16" transform="translate(-578.975 -1245.264)"/>
                                            </g>
                                            <g id="그룹_6023">
                                                <path id="패스_16421" d="M584.875 1231.176l-5.9-3.429 5.924-3.49 5.9 3.429z" class="cls-17" transform="translate(-578.975 -1224.257)"/>
                                            </g>
                                            <g id="그룹_6024" transform="translate(5.9 3.429)">
                                                <path id="패스_16422" d="M620.411 1244.9l.024 5.469-5.923 3.49-.023-5.47z" class="cls-18" transform="translate(-614.488 -1244.895)"/>
                                            </g>
                                        </g>
                                    </g>
                                </g>
                            </g>
                        </g>
                    </g>
                    <g id="그룹_6039" transform="translate(30.799 34.947)">
                        <path id="패스_16423" d="M435.659 948.636h-6.947v6.544h6.947l5.32-3.272z" class="cls-11" transform="translate(-423.405 -942.654)"/>
                        <g id="그룹_6038">
                            <g id="그룹_6037">
                                <g id="그룹_6036">
                                    <g id="그룹_6035">
                                        <g id="그룹_6034" class="cls-13">
                                            <g id="그룹_6031" transform="translate(0 3.127)">
                                                <path id="패스_16424" d="M402.076 940.854l-5.286-3.072-.021-6.326 5.286 3.072z" class="cls-19" transform="translate(-396.769 -931.456)"/>
                                            </g>
                                            <g id="그룹_6032">
                                                <path id="패스_16425" d="M402.055 918.833l-5.286-3.072 5.307-3.127 5.286 3.072z" class="cls-14" transform="translate(-396.769 -912.635)"/>
                                            </g>
                                            <g id="그룹_6033" transform="translate(5.286 3.072)">
                                                <path id="패스_16426" d="M433.893 931.125l.021 6.327-5.307 3.127-.021-6.327z" class="cls-20" transform="translate(-428.587 -931.125)"/>
                                            </g>
                                        </g>
                                    </g>
                                </g>
                            </g>
                        </g>
                    </g>
                    <g id="그룹_6048" transform="translate(85.624 64.093)">
                        <path id="패스_16427" d="M765.652 1124.061H758.7v6.544h6.947l5.32-3.272z" class="cls-11" transform="translate(-753.398 -1118.08)"/>
                        <g id="그룹_6047">
                            <g id="그룹_6046">
                                <g id="그룹_6045">
                                    <g id="그룹_6044">
                                        <g id="그룹_6043" class="cls-13">
                                            <g id="그룹_6040" transform="translate(0 3.127)">
                                                <path id="패스_16428" d="M732.069 1116.279l-5.286-3.072-.021-6.326 5.286 3.072z" class="cls-19" transform="translate(-726.761 -1106.881)"/>
                                            </g>
                                            <g id="그룹_6041">
                                                <path id="패스_16429" d="M732.048 1094.259l-5.286-3.072 5.307-3.127 5.286 3.072z" class="cls-14" transform="translate(-726.761 -1088.06)"/>
                                            </g>
                                            <g id="그룹_6042" transform="translate(5.286 3.072)">
                                                <path id="패스_16430" d="M763.886 1106.551l.021 6.327L758.6 1116l-.021-6.327z" class="cls-20" transform="translate(-758.579 -1106.551)"/>
                                            </g>
                                        </g>
                                    </g>
                                </g>
                            </g>
                        </g>
                    </g>
                    <g id="그룹_6049" transform="translate(103.407 33.97)" style="isolation:isolate;mix-blend-mode:multiply">
                        <path id="패스_16431" d="M874.967 930.772l-10.433-6.152a14.511 14.511 0 0 1-13.189-.083c-3.625-2.137-3.584-5.55.09-7.64a14.534 14.534 0 0 1 13.191.084l10.578-6.018c-9.383-5.533-24.7-5.624-34.2-.216s-9.62 14.277-.236 19.809 24.686 5.629 34.199.216z" class="cls-16" transform="translate(-833.797 -906.751)"/>
                    </g>
                    <path id="패스_16432" fill="url(#linear-gradient-15)" d="M1087.916 948.417v7.439c-.01 3.6-2.4 7.191-7.174 9.909v-7.749c5.226-2.981 7.174-9.599 7.174-9.599z" transform="translate(-936.303 -907.525)"/>
                    <path id="패스_16433" fill="url(#linear-gradient-16)" d="M1028.306 942.3l-9.818-6.271v-12.872h9.818z" transform="translate(-884.396 -886.462)"/>
                    <g id="그룹_6050" transform="translate(134 30.677)">
                        <path id="패스_16434" d="M1028.372 906.742c8.617-4.9 9.478-12.647 2.575-18.17-1.077-.8-1.884-1.34-2.189-1.542l-.149-.1-10.578 6.018c3.624 2.136 3.573 5.555-.091 7.639z" class="cls-10" transform="translate(-1017.938 -886.932)"/>
                    </g>
                    <path id="패스_16435" fill="url(#linear-gradient-17)" d="M1017.938 969.139l10.434 6.152v7.749l-10.433-6.152z" transform="translate(-883.938 -924.804)"/>
                </g>
                <g id="_레이어_2" transform="translate(107.438)">
                    <rect id="사각형_2534" width="24.039" height="3.314" class="cls-25" rx="1.657" transform="translate(2.943 47.451)"/>
                    <path id="패스_16436" d="M889.738 608.2a4.025 4.025 0 0 1 2.552 5.013s-4.221-3.263-4.221-3.37 1.669-1.643 1.669-1.643z" class="cls-26" transform="translate(-883.082 -602.77)"/>
                    <path id="패스_16437" d="M859.333 615.933l.648 11.311.017-.211-.998 7.637a.668.668 0 0 0 1.312.24l1.771-7.495a.579.579 0 0 0 .015-.118v-.093l.226-11.327a1.5 1.5 0 1 0-3-.06c.005.038.006.083.009.116z" class="cls-27" transform="translate(-858.841 -607.897)"/>
                    <path id="패스_16438" d="M872.578 704.381l1.32 23.608a.68.68 0 0 0 1.358 0l1.32-23.608a2 2 0 1 0-4-.223 2.083 2.083 0 0 0 .002.223z" class="cls-14" transform="translate(-870.163 -681.211)"/>
                    <path id="패스_16439" d="M891.269 720.49l1.32 23.608a.68.68 0 0 0 1.358 0l1.319-23.608a2 2 0 1 0-4 0z" class="cls-14" transform="translate(-885.749 -694.643)"/>
                    <g id="그룹_6051" transform="translate(0 5.708)">
                        <path id="패스_16440" d="M862.808 614.505a1.55 1.55 0 0 1 1.456 1.639s-.457 6.949-.488 8.254-2.565.715-2.569-.069l-.04-8.268v-.1a1.55 1.55 0 0 1 1.641-1.456z" class="cls-17" transform="translate(-860.65 -613.735)"/>
                        <path id="패스_16441" d="M869.888 698.683a46.187 46.187 0 0 1 1.5 14.1s-1.232 3.9-5.894 2.188-5.168-4.079-4.975-5.686c.327-2.727.4-2.717 2.042-11.595z" class="cls-28" transform="translate(-860.085 -683.103)"/>
                        <path id="패스_16442" d="M858.277 616.993a3.253 3.253 0 0 1 .45-3.1c-.069-.839-.112-1.38-.112-1.414 0-1.077.628-1.629 1.485-1.434a12.344 12.344 0 0 1 7.374 4.789 4.409 4.409 0 0 1 .856 2.432c0 .234-1.414 6.109 0 9.365-1.386 3.523-8.657 1.214-8.28-.862 0 0-.268-4.293-.284-5.007a42.144 42.144 0 0 0-1.489-4.769z" class="cls-18" transform="translate(-858.058 -610.822)"/>
                        <path id="패스_16443" d="M870.8 619.406l1.122 2.064s3.434-2.6 2.009-4.2-3.99-.147-4.689 2.7z" class="cls-17" transform="translate(-867.381 -615.486)"/>
                        <path id="패스_16444" d="M877.427 609.883a13.771 13.771 0 0 1 .7 2.115c.261 1.1-2.678 1.806-2.678 1.806-.515-.771.484-.924-.631-2.132a8.772 8.772 0 0 0 2.609-1.789z" class="cls-15" transform="translate(-872.033 -609.883)"/>
                    </g>
                    <path id="패스_16445" d="M865.687 590.275a9.44 9.44 0 0 0 3.894.963s.951.363.964 1.113c.145-.143.372-.279.567-.007.312.437-.471 1.509-.743 1.232a7.268 7.268 0 0 1-.369 1.09 6.29 6.29 0 0 1-2.031 1.324c-2.19.808-2.554-1.827-2.413-4.837a4.408 4.408 0 0 1 .131-.878z" class="cls-14" transform="translate(-864.286 -587.824)"/>
                    <path id="패스_16446" d="M889.806 860.695a11.19 11.19 0 0 1 1.436-1.459l-.109-2.719c1.261.642 1.746-.042 1.746-.042l-.09 2.687a.762.762 0 0 1-.255.811c-2.365 2.017-2.984 1.151-2.728.722z" class="cls-26" transform="translate(-884.486 -809.798)"/>
                    <path id="패스_16447" d="M871.076 846.573a11.2 11.2 0 0 1 1.436-1.458l-.087-2.761c1.261.642 1.709 0 1.709 0l-.075 2.688a.762.762 0 0 1-.255.811c-2.364 2.015-2.983 1.147-2.728.72z" class="cls-26" transform="translate(-868.868 -798.022)"/>
                    <path id="패스_16448" d="M863.167 577.987c.07-1.274 2.683-2.4 3.176-2.435 1.38-.171 3.143.466 3.525 2.037.885 3.644-1.868 4.778-1.868 4.778s.345-.993.369-1.09c.272.277 1.055-.795.743-1.232-.195-.271-.422-.136-.567.007-1.292 1.678-3.436-.516-3.436-.516-.637.135-.048.728-.048.728-2.161.227-1.961-2.15-1.894-2.277z" class="cls-26" transform="translate(-862.288 -575.525)"/>
                    <path id="패스_16449" d="M898.272 641.09l5.385 7.006.02-1.236-4.224 6.367a.668.668 0 0 0 1.072.794l4.858-5.9a.985.985 0 0 0 .077-1.144l-.058-.092-4.666-7.5a1.5 1.5 0 1 0-2.549 1.585c.027.04.056.082.085.12z" class="cls-27" transform="translate(-891.331 -628.183)"/>
                    <path id="패스_16450" d="M896.79 636.9a1.549 1.549 0 0 1 2.143.459l4.495 6.94-2.112 1.465-4.928-6.638c-.019-.025-.039-.055-.057-.082a1.55 1.55 0 0 1 .459-2.144z" class="cls-17" transform="translate(-889.765 -626.496)"/>
                </g>
            </g>
            <g id="그룹_6063" transform="translate(100.688 221.582)">
                <rect id="사각형_2535" width="39.226" height="5.408" class="cls-25" rx="2.704" transform="translate(9.037 64.86)"/>
                <path id="패스_16462" d="M686.391 420.06a26.145 26.145 0 0 0-2.557-2.36l-1.463.3a1.027 1.027 0 0 0 .344 1.093c3.185 2.713 4.02 1.546 3.676.967z" class="cls-26" transform="translate(-674.188 -351.055)"/>
                <path id="패스_16463" d="M706.113 406.926a25.866 25.866 0 0 0-2.539-2.517l-1.481.452a1.027 1.027 0 0 0 .344 1.093c3.186 2.717 4.02 1.546 3.676.972z" class="cls-26" transform="translate(-688.701 -341.275)"/>
                <path id="패스_16464" d="M709.644 199.732l3.47 11.079a1.61 1.61 0 0 1-3.034 1.069l-4.245-10.805a2.021 2.021 0 0 1 3.765-1.475l.044.132z" class="cls-16" transform="translate(-691.37 -189.615)"/>
                <path id="패스_16465" d="M680.408 289.311l-1.778 31.815a.916.916 0 0 1-1.83 0l-1.778-31.815a2.7 2.7 0 0 1 5.387-.3 2.815 2.815 0 0 1-.001.3z" class="cls-14" transform="translate(-668.796 -254.481)"/>
                <g id="그룹_6059" transform="translate(5.21 7.69)">
                    <path id="패스_16466" d="M672.754 284.975c-.32 4.04.245 12.284.319 14.921s10.221-.7 10.534-4.16 0-14.02 0-14.02-10.532-.781-10.853 3.259z" class="cls-26" transform="translate(-672.269 -258.634)"/>
                    <path id="패스_16467" d="M684.28 197.431c0-1.451-.847-2.2-2-1.932-6.32 1.106-9.938 6.454-9.938 6.454a5.944 5.944 0 0 0-1.153 3.277c0 .316 1.906 11.076 0 15.464 1.867 4.748 12.4 1.216 11.9-1.582 0 0-.375-8.208-.354-9.171-.004.001 1.545-12.465 1.545-12.51z" class="cls-28" transform="translate(-671.19 -195.195)"/>
                    <path id="패스_16468" d="M693.426 213.5s-9.3-4.1-5.579-9z" class="cls-16" transform="translate(-682.801 -201.852)"/>
                    <path id="패스_16469" d="M705.29 209.281s2.98-9.106.368-10.517l-2.567.376z" class="cls-16" transform="translate(-694.665 -197.636)"/>
                    <path id="패스_16470" d="M693.111 203.967l-1.512 2.782s-4.627-3.5-2.707-5.664 5.377-.2 6.319 3.635z" class="cls-29" transform="translate(-683.873 -198.683)"/>
                    <path id="패스_16471" d="M693.384 194.492a18.546 18.546 0 0 0-.942 2.85c-.352 1.48 3.609 2.433 3.609 2.433.694-1.039-.653-1.245.85-2.873a11.82 11.82 0 0 1-3.517-2.41z" class="cls-15" transform="translate(-686.812 -194.492)"/>
                </g>
                <path id="패스_16472" d="M695.81 177.87a12.716 12.716 0 0 1-5.248 1.3s-1.282.489-1.3 1.5c-.2-.193-.5-.376-.764-.01-.421.589.634 2.034 1 1.66a9.793 9.793 0 0 0 .5 1.469 8.476 8.476 0 0 0 2.738 1.785c2.951 1.089 3.442-2.462 3.252-6.519a5.948 5.948 0 0 0-.178-1.185z" class="cls-14" transform="translate(-678.646 -174.571)"/>
                <path id="패스_16473" d="M660.492 229.868l-5.917 9.818-.489-2.085 8.2 6.684a1.029 1.029 0 0 1-1.2 1.665l-8.91-5.7a1.524 1.524 0 0 1-.568-1.911l.079-.174 4.725-10.444a2.313 2.313 0 1 1 4.214 1.906 2.624 2.624 0 0 1-.134.241z" class="cls-16" transform="translate(-651.465 -210.254)"/>
                <path id="패스_16474" d="M688.334 168.694c-.094-1.717-3.616-3.232-4.281-3.282a4.587 4.587 0 0 0-4.75 2.746c-.609 1.4-1.9 6.948-1.9 6.948-1.114 5.628 6.12 3.991 6.12 3.991-1 .019-1.277-1.3-1.4-2.929a11.491 11.491 0 0 0-.8-3.041c-.367.374-1.422-1.071-1-1.66.262-.366.568-.183.764.01 1.742 2.261 4.63-.7 4.63-.7.858.181.066.982.066.982 2.911.308 2.638-2.894 2.551-3.065z" class="cls-26" transform="translate(-670.468 -165.379)"/>
                <path id="패스_16475" d="M702.564 214.5l-1.293 2.379 2.68 3.982.359-5.735z" class="cls-29" transform="translate(-688.116 -201.523)"/>
                <path id="선_621" fill="none" stroke="#b6cbea" stroke-linecap="round" stroke-miterlimit="10" stroke-width="12px" d="M8.424 0.997L0 0" transform="translate(18.15 34.863)"/>
                <g id="그룹_6060" transform="translate(22.357 11.654)">
                    <path id="패스_16476" d="M755.674 212.2c10.855-6.262 19.671-1.245 19.706 11.216s-8.722 27.624-19.576 33.891-19.655 1.235-19.692-11.222 8.723-27.626 19.562-33.885z" class="cls-18" transform="translate(-736.113 -209.503)"/>
                </g>
                <g id="그룹_6061" transform="translate(25.71 13.772)">
                    <path id="패스_16477" d="M768.366 220.218c10.856-6.262 19.671-1.245 19.707 11.216s-8.722 27.624-19.576 33.891-19.656 1.234-19.697-11.225 8.727-27.623 19.566-33.882z" class="cls-28" transform="translate(-748.805 -217.522)"/>
                </g>
                <g id="그룹_6062" transform="translate(30.079 19.39)">
                    <path id="패스_16478" d="M780.555 240.888c8.44-4.869 15.294-.967 15.322 8.721s-6.781 21.477-15.22 26.349-15.282.96-15.31-8.725 6.782-21.478 15.208-26.345z" class="cls-4" transform="translate(-765.347 -238.792)"/>
                </g>
                <path id="선_622" fill="none" stroke="#434483" stroke-linecap="round" stroke-miterlimit="10" stroke-width="22px" d="M14.346 1.699L0 0" transform="translate(3.804 33.164)"/>
                <path id="패스_16479" d="M714.486 243.107l-4.818 11.171a.953.953 0 0 1-1.791-.639l3.348-11.7a1.735 1.735 0 1 1 3.336.955 1.9 1.9 0 0 1-.075.213z" class="cls-16" transform="translate(-692.951 -220.794)"/>
                <path id="패스_16480" d="M707.428 291.183a1.3 1.3 0 1 1-1.669-.306 1.206 1.206 0 0 1 1.669.306z" class="cls-14" transform="translate(-690.919 -257.582)"/>
            </g>
        </g>
    </g>
</svg>
