<svg xmlns="http://www.w3.org/2000/svg" width="360" height="143" viewBox="0 0 360 143">
    <defs>
        <clipPath id="clip-path">
            <path id="사각형_3167" data-name="사각형 3167" transform="translate(0 60)" style="fill:#ffe3d6" d="M0 0h360v143H0z"/>
        </clipPath>
        <style>
            .cls-3{fill:#fcdbdb}.cls-4{fill:#5e5d5e}.cls-5{fill:#5b4e4a}.cls-6{fill:#ffbf80}.cls-8{fill:#141316}.cls-10{fill:#ff9f9f}.cls-12{fill:#fff}
        </style>
    </defs>
    <g id="img_banner" transform="translate(0 -60)" style="clip-path:url(#clip-path)">
        <g id="그룹_7882" data-name="그룹 7882">
            <g id="그룹_7870" data-name="그룹 7870" transform="translate(2.439 7.72)">
                <g id="그룹_7743" data-name="그룹 7743" transform="translate(263.231 130.812)">
                    <g id="그룹_7741" data-name="그룹 7741" transform="translate(.304 .303)">
                        <path id="패스_21484" data-name="패스 21484" class="cls-3" d="m287.646 156.511-4.294 5.309s.191 2.888 3.967 6.267l-.025 4.51 8.23-.182.309-7.286s-3.475-10.464-8.187-8.618z" transform="translate(-283.352 -156.293)"/>
                    </g>
                    <g id="그룹_7742" data-name="그룹 7742">
                        <path id="패스_21485" data-name="패스 21485" class="cls-4" d="M287.1 172.7a.3.3 0 0 1-.3-.305l.024-4.374c-3.727-3.383-3.958-6.26-3.966-6.382a.3.3 0 0 1 .067-.211l4.295-5.309a.3.3 0 0 1 .125-.092 3.358 3.358 0 0 1 1.231-.239c4.3 0 7.231 8.675 7.353 9.045a.3.3 0 0 1 .015.108l-.309 7.285a.3.3 0 0 1-.3.292l-8.23.182zm-3.624-10.99c.085.551.638 3.074 3.852 5.95a.3.3 0 0 1 .1.228l-.023 4.2 7.633-.169.294-6.944c-.248-.717-3.052-8.577-6.759-8.577a2.745 2.745 0 0 0-.936.169z" transform="translate(-282.852 -155.793)"/>
                    </g>
                </g>
                <g id="그룹_7745" data-name="그룹 7745" transform="translate(315.356 98.001)">
                    <g id="그룹_7744" data-name="그룹 7744">
                        <path id="패스_21486" data-name="패스 21486" class="cls-5" d="M368.682 104.323s1.875-3.3 6.84-2.4c0 0 5.341.52 6.364 10.082 0 0 2.63 12.177 9.377 17.693 0 0 7.046 4.039 4.385 8.728 0 0 3.584 6.617-2.971 10.222 0 0-6.99 3.581-13.084-5.739 0 0-.274-.408-.728-1.152a3.157 3.157 0 0 1-2.532-1.233c-2.009-1.973-3.744-10.994-3.744-10.994-1.73-5.811-3.118-11.366-3.21-17.663z" transform="translate(-368.682 -101.766)"/>
                    </g>
                </g>
                <g id="그룹_7747" data-name="그룹 7747" transform="translate(293.149 100.719)">
                    <g id="그룹_7746" data-name="그룹 7746">
                        <path id="패스_21487" data-name="패스 21487" class="cls-5" d="M339.15 106.242a8.531 8.531 0 0 0-6.784 6.122s-1.278 5.021 1.942 8.917z" transform="translate(-332.116 -106.242)"/>
                    </g>
                </g>
                <g id="그룹_7750" data-name="그룹 7750" transform="translate(283.315 131.234)">
                    <g id="그룹_7749" data-name="그룹 7749">
                        <g id="그룹_7748" data-name="그룹 7748">
                            <path id="패스_21488" data-name="패스 21488" class="cls-6" d="m347.929 156.489 9.662 3.7c2.6 1.485 13.16 4.767 10.789 20.5-2.868 19.025-5.635 38.813-5.949 39.534 0 0-40.664.172-42.883 0-.419-3.781-1.89-30.334-1.767-38.763 0 0-6.179-15.058 4-19.077l10.828-4.623z" transform="translate(-315.924 -156.489)"/>
                        </g>
                    </g>
                </g>
                <g id="그룹_7755" data-name="그룹 7755" transform="translate(295.286 97.963)">
                    <g id="그룹_7754" data-name="그룹 7754">
                        <g id="그룹_7753" data-name="그룹 7753">
                            <g id="그룹_7752" data-name="그룹 7752">
                                <g id="그룹_7751" data-name="그룹 7751">
                                    <path id="패스_21489" data-name="패스 21489" class="cls-5" d="M335.952 115.485s-1.665-4.678 2.627-9.212a13.489 13.489 0 0 1 12.757-4.3s7.661.081 10.7 8.9c0 0 5.175 15.983-8.57 19.2z" transform="translate(-335.634 -101.705)"/>
                                </g>
                            </g>
                        </g>
                    </g>
                </g>
                <g id="그룹_7760" data-name="그룹 7760" transform="translate(295.16 105.943)">
                    <g id="그룹_7757" data-name="그룹 7757" transform="translate(6.349 26.995)">
                        <g id="그룹_7756" data-name="그룹 7756">
                            <path id="패스_21490" data-name="패스 21490" class="cls-3" d="M345.974 159.294s-1.147 3.782 4.588 4.458 9.66-4.02 9.66-4.02" transform="translate(-345.881 -159.294)"/>
                        </g>
                    </g>
                    <g id="그룹_7759" data-name="그룹 7759">
                        <g id="그룹_7758" data-name="그룹 7758">
                            <path id="패스_21491" data-name="패스 21491" class="cls-3" d="m355.044 143.381-.1-11.4a4.756 4.756 0 0 0 3.446-5.169s-.3-2.749-2.618-2.927a2.5 2.5 0 0 0-2.721 1.5s-8.025-1.72-8.025-9.936c-4.577-1.887-8.7 1-8.985 3.554 0 0-.614 6.837-.612 9.892 0 0-.259 4.846 3.533 7.319a8.379 8.379 0 0 0 2.952 1.09l-.046 4.939" transform="translate(-335.427 -114.844)"/>
                        </g>
                    </g>
                </g>
                <g id="그룹_7765" data-name="그룹 7765" transform="translate(313.567 116.295)">
                    <g id="그룹_7764" data-name="그룹 7764">
                        <g id="그룹_7763" data-name="그룹 7763">
                            <g id="그룹_7762" data-name="그룹 7762">
                                <g id="그룹_7761" data-name="그룹 7761">
                                    <path id="패스_21492" data-name="패스 21492" class="cls-4" d="M365.934 133.475a.234.234 0 0 0 .246-.138c.018-.046.48-1.107 1.427-.975h.018a1.41 1.41 0 0 1 1.175 1.319.228.228 0 0 0 .247.212.231.231 0 0 0 .213-.247 1.865 1.865 0 0 0-1.566-1.74h-.027a1.93 1.93 0 0 0-1.913 1.254.233.233 0 0 0 .122.3.282.282 0 0 0 .058.015z" transform="translate(-365.736 -131.889)"/>
                                </g>
                            </g>
                        </g>
                    </g>
                </g>
                <g id="그룹_7770" data-name="그룹 7770" transform="translate(301.602 128.164)">
                    <g id="그룹_7769" data-name="그룹 7769">
                        <g id="그룹_7768" data-name="그룹 7768">
                            <g id="그룹_7767" data-name="그룹 7767">
                                <g id="그룹_7766" data-name="그룹 7766">
                                    <path id="패스_21493" data-name="패스 21493" d="m346.035 151.433 3.026.114-2.995 2.387z" transform="translate(-346.035 -151.433)" style="fill:#ead0d0"/>
                                </g>
                            </g>
                        </g>
                    </g>
                </g>
                <g id="그룹_7772" data-name="그룹 7772" transform="translate(296.591 112.729)">
                    <g id="그룹_7771" data-name="그룹 7771">
                        <path id="패스_21494" data-name="패스 21494" class="cls-8" d="M339.7 126.21a2.486 2.486 0 0 0-1.462-.145s-.372.078-.451.349c0 0-.02.323.432.412a11.766 11.766 0 0 1 1.554.216.467.467 0 0 0 .511-.276s.141-.249-.584-.556z" transform="translate(-337.784 -126.018)"/>
                    </g>
                </g>
                <g id="그룹_7774" data-name="그룹 7774" transform="translate(302.861 112.985)">
                    <g id="그룹_7773" data-name="그룹 7773">
                        <path id="패스_21495" data-name="패스 21495" class="cls-8" d="M348.916 126.446a4.017 4.017 0 0 1 1.818.327s.425.163.434.487c0 0-.076.324-.6.3a17.944 17.944 0 0 0-1.967-.2s-.494-.038-.49-.455c-.003-.005-.047-.391.805-.459z" transform="translate(-348.107 -126.439)"/>
                    </g>
                </g>
                <g id="그룹_7776" data-name="그룹 7776" transform="translate(303.368 115.48)">
                    <g id="그룹_7775" data-name="그룹 7775">
                        <path id="패스_21496" data-name="패스 21496" class="cls-8" d="M348.942 131.243a.7.7 0 1 0 .7-.7.7.7 0 0 0-.7.7z" transform="translate(-348.942 -130.547)"/>
                    </g>
                </g>
                <g id="그룹_7778" data-name="그룹 7778" transform="translate(297.15 115.48)">
                    <g id="그룹_7777" data-name="그룹 7777">
                        <path id="패스_21497" data-name="패스 21497" class="cls-8" d="M338.7 131.243a.7.7 0 1 0 .695-.7.695.695 0 0 0-.695.7z" transform="translate(-338.704 -130.547)"/>
                    </g>
                </g>
                <g id="그룹_7780" data-name="그룹 7780" transform="translate(298.737 114.478)">
                    <g id="그룹_7779" data-name="그룹 7779">
                        <path id="패스_21498" data-name="패스 21498" class="cls-8" d="M342.585 135a.291.291 0 0 1-.082-.012 1.66 1.66 0 0 1-1.063-.847 1.131 1.131 0 0 1 .212-1.274 4.167 4.167 0 0 0 .659-3.584.3.3 0 0 1 .582-.174 4.73 4.73 0 0 1-.784 4.158s-.285.336-.129.6a1.062 1.062 0 0 0 .687.539.3.3 0 0 1-.081.6z" transform="translate(-341.317 -128.898)"/>
                    </g>
                </g>
                <g id="그룹_7786" data-name="그룹 7786" transform="translate(299.701 121.059)">
                    <g id="그룹_7785" data-name="그룹 7785">
                        <g id="그룹_7784" data-name="그룹 7784">
                            <g id="그룹_7783" data-name="그룹 7783">
                                <g id="그룹_7781" data-name="그룹 7781" transform="translate(.303 .303)">
                                    <path id="패스_21499" data-name="패스 21499" d="M343.4 140.813s2.854-.406 3.658-.58a2.032 2.032 0 0 1-1.575 2.325 1.708 1.708 0 0 1-2.083-1.745z" transform="translate(-343.404 -140.233)" style="fill:#fce8e8"/>
                                </g>
                                <g id="그룹_7782" data-name="그룹 7782">
                                    <path id="패스_21500" data-name="패스 21500" class="cls-8" d="M344.931 142.7a1.973 1.973 0 0 1-2.025-2.052.3.3 0 0 1 .259-.33c.029 0 2.852-.406 3.636-.576a.308.308 0 0 1 .237.047.3.3 0 0 1 .128.205 2.29 2.29 0 0 1-1.813 2.668 2.1 2.1 0 0 1-.422.038zm-1.379-1.825a1.322 1.322 0 0 0 1.379 1.218 1.593 1.593 0 0 0 .3-.025 1.628 1.628 0 0 0 1.353-1.664c-.844.15-2.384.376-3.032.47z" transform="translate(-342.904 -139.734)"/>
                                </g>
                            </g>
                        </g>
                    </g>
                </g>
                <g id="그룹_7788" data-name="그룹 7788" transform="translate(310.145 114.703)">
                    <g id="그룹_7787" data-name="그룹 7787">
                        <path id="패스_21501" data-name="패스 21501" class="cls-4" d="M360.405 137.3a.3.3 0 0 1-.176-.551c2.828-2 1.269-7.03 1.253-7.081a.3.3 0 1 1 .579-.184c.071.224 1.705 5.508-1.481 7.761a.3.3 0 0 1-.175.055z" transform="translate(-360.101 -129.268)"/>
                    </g>
                </g>
                <g id="그룹_7790" data-name="그룹 7790" transform="translate(327.335 104.338)">
                    <g id="그룹_7789" data-name="그룹 7789">
                        <path id="패스_21502" data-name="패스 21502" class="cls-5" d="M404.2 148.336a.224.224 0 0 1-.113-.03A.228.228 0 0 1 404 148a5.461 5.461 0 0 0 .178-5.551.227.227 0 0 1-.016-.222c2.281-4.906-3.487-8.366-3.545-8.4-7.737-5.985-12.16-21.177-12.2-21.329a.228.228 0 1 1 .438-.126c.043.151 4.425 15.2 12.02 21.079.038.019 6.071 3.64 3.754 8.857a5.9 5.9 0 0 1-.229 5.919.229.229 0 0 1-.2.109z" transform="translate(-388.407 -112.201)"/>
                    </g>
                </g>
                <g id="그룹_7792" data-name="그룹 7792" transform="translate(292.424 100.464)">
                    <g id="그룹_7791" data-name="그룹 7791">
                        <path id="패스_21503" data-name="패스 21503" class="cls-5" d="M332.738 118.746a.228.228 0 0 1-.183-.091c-2.522-3.375-1.385-7.7-1.336-7.885 1.8-5.6 7.84-4.926 7.9-4.919a.228.228 0 0 1-.055.452c-.234-.027-5.731-.635-7.409 4.6-.009.032-1.123 4.289 1.263 7.483a.227.227 0 0 1-.182.364z" transform="translate(-330.921 -105.822)"/>
                    </g>
                </g>
                <g id="그룹_7807" data-name="그룹 7807" transform="translate(245.952 95.238)">
                    <g id="그룹_7794" data-name="그룹 7794" transform="translate(19.073 28.218)">
                        <g id="그룹_7793" data-name="그룹 7793">
                            <path id="패스_21504" data-name="패스 21504" class="cls-10" d="M291.933 143.714s-3.643 10.034-6.126 13.149a3.884 3.884 0 0 0 3.634 2.375 88.471 88.471 0 0 0 9.723-14.214 18.5 18.5 0 0 0-7.231-1.31z" transform="translate(-285.807 -143.681)"/>
                        </g>
                    </g>
                    <g id="그룹_7796" data-name="그룹 7796" transform="translate(26.827 16.996)">
                        <g id="그룹_7795" data-name="그룹 7795">
                            <path id="패스_21505" data-name="패스 21505" d="M303.775 125.2q1.909 1.059 4.021 2.077a6.151 6.151 0 0 1 2.766 7.5s-.844 4.49-8.4 3.1c0 0-1.354-.431-3.591-.9 3.629-2.557 5.357-7.359 5.204-11.777z" transform="translate(-298.575 -125.203)" style="fill:#ed896e"/>
                        </g>
                    </g>
                    <g id="그룹_7798" data-name="그룹 7798" transform="translate(3.521 1.038)">
                        <g id="그룹_7797" data-name="그룹 7797">
                            <path id="패스_21506" data-name="패스 21506" class="cls-10" d="m260.2 127.45 9.455-28.524s5.675 8.542 19.051 15.958c.154 4.415-1.58 9.217-5.2 11.774-5.046-1.058-14.597-2.297-23.306.792z" transform="translate(-260.198 -98.926)"/>
                        </g>
                    </g>
                    <g id="그룹_7800" data-name="그룹 7800">
                        <g id="그룹_7799" data-name="그룹 7799">
                            <path id="패스_21507" data-name="패스 21507" class="cls-12" d="M256.626 110.6c-2.815 8.235-2.981 15.635-.373 16.526s7-5.063 9.815-13.3 2.98-15.634.373-16.525-7.004 5.069-9.815 13.299z" transform="translate(-254.401 -97.217)"/>
                        </g>
                    </g>
                    <g id="그룹_7802" data-name="그룹 7802" transform="translate(.59 .761)">
                        <g id="그룹_7801" data-name="그룹 7801">
                            <path id="패스_21508" data-name="패스 21508" class="cls-10" d="M257.639 111.217c-2.645 7.744-3.032 14.621-.864 15.363s6.072-4.936 8.717-12.681 3.03-14.622.863-15.363-6.071 4.936-8.716 12.681z" transform="translate(-255.372 -98.471)"/>
                        </g>
                    </g>
                    <g id="그룹_7804" data-name="그룹 7804" transform="translate(5.169 11.162)">
                        <g id="그룹_7803" data-name="그룹 7803">
                            <path id="패스_21509" data-name="패스 21509" class="cls-8" d="m265.254 115.6 4.558.332s-1.671 6.761-3.218 9.377l-3.682-2.053z" transform="translate(-262.912 -115.597)"/>
                        </g>
                    </g>
                    <g id="그룹_7806" data-name="그룹 7806" transform="translate(4.096 11.061)">
                        <g id="그룹_7805" data-name="그룹 7805">
                            <path id="패스_21510" data-name="패스 21510" class="cls-12" d="M261.44 118.8c-.6 2.13-.252 4.1.779 4.385s2.355-1.2 2.956-3.334.253-4.1-.779-4.387-2.355 1.205-2.956 3.336z" transform="translate(-261.145 -115.431)"/>
                        </g>
                    </g>
                </g>
                <g id="그룹_7810" data-name="그룹 7810" transform="translate(266.976 128.382)">
                    <g id="그룹_7808" data-name="그룹 7808" transform="translate(.304 .288)">
                        <path id="패스_21511" data-name="패스 21511" class="cls-3" d="M289.879 152.716a1.173 1.173 0 0 0-.039 1.651l3.652 3.319a1.174 1.174 0 0 0 1.639-.2 1.173 1.173 0 0 0 .04-1.651l-3.653-3.318a1.173 1.173 0 0 0-1.64.2z" transform="translate(-289.519 -152.267)"/>
                    </g>
                    <g id="그룹_7809" data-name="그룹 7809">
                        <path id="패스_21512" data-name="패스 21512" class="cls-4" d="M293.968 158.055a1.3 1.3 0 0 1-.877-.33l-3.652-3.319a1.3 1.3 0 0 1-.419-.913 1.641 1.641 0 0 1 .438-1.166 1.514 1.514 0 0 1 2.069-.219l3.652 3.318a1.306 1.306 0 0 1 .42 1.016 1.65 1.65 0 0 1-.439 1.064 1.624 1.624 0 0 1-1.192.549zm-3.318-5.67a1.019 1.019 0 0 0-.743.35 1.029 1.029 0 0 0-.28.729.7.7 0 0 0 .221.493l3.652 3.319a.9.9 0 0 0 1.21-.178 1.041 1.041 0 0 0 .281-.67.707.707 0 0 0-.22-.552l-3.653-3.318a.682.682 0 0 0-.469-.174z" transform="translate(-289.019 -151.792)"/>
                    </g>
                </g>
                <g id="그룹_7813" data-name="그룹 7813" transform="translate(265.235 130.165)">
                    <g id="그룹_7811" data-name="그룹 7811" transform="translate(.303 .288)">
                        <path id="패스_21513" data-name="패스 21513" class="cls-3" d="M287.013 155.652a1.17 1.17 0 0 0-.039 1.649l3.652 3.319a1.173 1.173 0 0 0 1.64-.2 1.171 1.171 0 0 0 .039-1.649l-3.652-3.319a1.173 1.173 0 0 0-1.64.2z" transform="translate(-286.653 -155.203)"/>
                    </g>
                    <g id="그룹_7812" data-name="그룹 7812">
                        <path id="패스_21514" data-name="패스 21514" class="cls-4" d="M291.1 160.99a1.3 1.3 0 0 1-.878-.331l-3.652-3.319a1.3 1.3 0 0 1-.418-.907 1.642 1.642 0 0 1 .437-1.172 1.514 1.514 0 0 1 2.069-.219l3.652 3.319a1.3 1.3 0 0 1 .418.909 1.641 1.641 0 0 1-.438 1.17 1.624 1.624 0 0 1-1.19.55zm-3.318-5.67a1.019 1.019 0 0 0-.742.35 1.033 1.033 0 0 0-.281.733.691.691 0 0 0 .22.487l3.652 3.32a.894.894 0 0 0 1.21-.177 1.03 1.03 0 0 0 .281-.732.692.692 0 0 0-.219-.488l-3.653-3.32a.682.682 0 0 0-.466-.173z" transform="translate(-286.153 -154.728)"/>
                    </g>
                </g>
                <g id="그룹_7816" data-name="그룹 7816" transform="translate(263.743 131.91)">
                    <g id="그룹_7814" data-name="그룹 7814" transform="translate(.302 .289)">
                        <path id="패스_21515" data-name="패스 21515" class="cls-3" d="M284.564 158.541a1.154 1.154 0 0 0-.077 1.615l3.479 3.163a1.158 1.158 0 0 0 1.6-.233 1.156 1.156 0 0 0 .077-1.617l-3.479-3.16a1.154 1.154 0 0 0-1.6.233z" transform="translate(-284.193 -158.077)"/>
                    </g>
                    <g id="그룹_7815" data-name="그룹 7815">
                        <path id="패스_21516" data-name="패스 21516" class="cls-4" d="M288.394 163.666a1.208 1.208 0 0 1-.827-.309l-3.479-3.163a1.456 1.456 0 0 1 .056-2.044 1.491 1.491 0 0 1 2.032-.253l3.479 3.16a1.237 1.237 0 0 1 .392 1 1.686 1.686 0 0 1-.449 1.046 1.652 1.652 0 0 1-1.204.563zm-3.047-5.472a1.053 1.053 0 0 0-.753.364.858.858 0 0 0-.1 1.187l3.479 3.163a.618.618 0 0 0 .419.151 1.063 1.063 0 0 0 .755-.364 1.085 1.085 0 0 0 .292-.666.646.646 0 0 0-.195-.522l-3.479-3.16a.615.615 0 0 0-.418-.153z" transform="translate(-283.696 -157.601)"/>
                    </g>
                </g>
                <g id="그룹_7819" data-name="그룹 7819" transform="translate(262.596 134.115)">
                    <g id="그룹_7817" data-name="그룹 7817" transform="translate(.3 .29)">
                        <path id="패스_21517" data-name="패스 21517" class="cls-3" d="M282.66 162.153a1.031 1.031 0 0 0-.124 1.427l2.933 2.665a1.033 1.033 0 0 0 1.408-.261 1.033 1.033 0 0 0 .125-1.428l-2.933-2.664a1.032 1.032 0 0 0-1.408.261z" transform="translate(-282.302 -161.71)"/>
                    </g>
                    <g id="그룹_7818" data-name="그룹 7818">
                        <path id="패스_21518" data-name="패스 21518" class="cls-4" d="M285.773 166.543a1.027 1.027 0 0 1-.7-.26l-2.933-2.666a1.332 1.332 0 0 1 .1-1.855 1.36 1.36 0 0 1 1.838-.281l2.933 2.664a1.333 1.333 0 0 1-.1 1.857 1.581 1.581 0 0 1-1.138.541zm-2.4-4.716a.969.969 0 0 0-.684.344c-.3.335-.371.792-.145 1l2.933 2.665a.433.433 0 0 0 .3.1.969.969 0 0 0 .684-.343c.3-.335.371-.793.145-1l-2.933-2.664a.432.432 0 0 0-.299-.103z" transform="translate(-281.807 -161.232)"/>
                    </g>
                </g>
                <g id="그룹_7822" data-name="그룹 7822" transform="translate(269.477 126.032)">
                    <g id="그룹_7820" data-name="그룹 7820" transform="translate(.304 .299)">
                        <path id="패스_21519" data-name="패스 21519" class="cls-3" d="M299.563 162.948a9.213 9.213 0 0 0 .991-6.524 9.747 9.747 0 0 0-2.563-4.926s-2.8-3.278-3.5-3.073c0 0-1.595.456-.411 2.482a15.25 15.25 0 0 0 1.614 2.031c.335.795 1.436 2.253 1.51 2.927 0 0-1.171.467-2.225 4.965" transform="translate(-293.639 -148.416)"/>
                    </g>
                    <g id="그룹_7821" data-name="그룹 7821">
                        <path id="패스_21520" data-name="패스 21520" class="cls-4" d="M299.367 163.058a.3.3 0 0 1-.256-.468 8.993 8.993 0 0 0 .95-6.293 9.536 9.536 0 0 0-2.486-4.783c-1.241-1.453-2.819-2.989-3.213-2.989a.978.978 0 0 0-.553.518 1.85 1.85 0 0 0 .335 1.516 15.03 15.03 0 0 0 1.569 1.973.318.318 0 0 1 .063.094 10.4 10.4 0 0 0 .63 1.133 5.985 5.985 0 0 1 .9 1.878.3.3 0 0 1-.189.315s-1.064.581-2.042 4.753a.3.3 0 0 1-.592-.139c.829-3.538 1.753-4.676 2.18-5.03a9.035 9.035 0 0 0-.779-1.463 11.855 11.855 0 0 1-.647-1.158 15.5 15.5 0 0 1-1.611-2.037 2.37 2.37 0 0 1-.38-2.067 1.578 1.578 0 0 1 .961-.872c.775-.225 2.726 1.888 3.819 3.168a9.932 9.932 0 0 1 2.633 5.083 9.4 9.4 0 0 1-1.037 6.728.3.3 0 0 1-.255.14z" transform="translate(-293.138 -147.923)"/>
                    </g>
                </g>
                <g id="그룹_7824" data-name="그룹 7824" transform="translate(265.53 137.127)">
                    <g id="그룹_7823" data-name="그룹 7823">
                        <path id="패스_21521" data-name="패스 21521" class="cls-6" d="M310.284 166.191a19.4 19.4 0 0 0-8.533 7.9s-9.75 15.048-13.757 23.061c0 0-4.5 9.875 2.888 12.48 0 0 4.858 2.543 10.793-5.469l9.637-13.567" transform="translate(-286.638 -166.191)"/>
                    </g>
                </g>
                <g id="그룹_7826" data-name="그룹 7826" transform="translate(265.085 144.255)">
                    <g id="그룹_7825" data-name="그룹 7825">
                        <path id="패스_21522" data-name="패스 21522" class="cls-6" d="m297.733 177.928-10.649 1.3s-2.22 20.528-.568 30.394l11.235-8.592s.509-18.049-.018-23.102z" transform="translate(-285.906 -177.928)"/>
                    </g>
                </g>
                <g id="그룹_7828" data-name="그룹 7828" transform="translate(325.694 137.127)">
                    <g id="그룹_7827" data-name="그룹 7827">
                        <path id="패스_21523" data-name="패스 21523" class="cls-6" d="M388.946 166.191s7.772 2.752 11.69 20.69c0 0 4.458 18.562.932 29.123a24.5 24.5 0 0 1-3 8.1H385.7" transform="translate(-385.704 -166.191)"/>
                    </g>
                </g>
                <g id="그룹_7830" data-name="그룹 7830" transform="translate(325.389 152.433)">
                    <g id="그룹_7829" data-name="그룹 7829">
                        <path id="패스_21524" data-name="패스 21524" class="cls-4" d="M385.507 234.24a.285.285 0 0 1-.068-.008.3.3 0 0 1-.229-.363c1.793-7.883 2.6-11.961 3.4-16.113.409-10.31-2.652-25.843-2.683-26a.3.3 0 1 1 .6-.118c.031.156 3.107 15.76 2.689 26.187-.807 4.2-1.615 8.286-3.411 16.178a.3.3 0 0 1-.298.237z" transform="translate(-385.203 -191.394)"/>
                    </g>
                </g>
                <g id="그룹_7832" data-name="그룹 7832" transform="translate(277.057 149.886)">
                    <g id="그룹_7831" data-name="그룹 7831">
                        <path id="패스_21525" data-name="패스 21525" class="cls-4" d="M306.943 205.7a.3.3 0 0 1-.3-.3c-.058-5.622-1.011-17.749-1.02-17.87a.3.3 0 0 1 .279-.327.3.3 0 0 1 .327.279c.01.122.964 12.268 1.022 17.911a.3.3 0 0 1-.3.307z" transform="translate(-305.619 -187.201)"/>
                    </g>
                </g>
                <g id="그룹_7834" data-name="그룹 7834" transform="translate(329.222 176.789)">
                    <g id="그룹_7833" data-name="그룹 7833">
                        <path id="패스_21526" data-name="패스 21526" class="cls-4" d="M391.817 232.925a.3.3 0 0 1-.205-.525c.1-.092 1.1-.9 4.789-.9a.3.3 0 1 1 .012.607h-.013c-3.45 0-4.377.739-4.385.747a.312.312 0 0 1-.198.071z" transform="translate(-391.513 -231.5)"/>
                    </g>
                </g>
                <g id="그룹_7836" data-name="그룹 7836" transform="translate(303.142 137.42)">
                    <g id="그룹_7835" data-name="그룹 7835">
                        <path id="패스_21527" data-name="패스 21527" class="cls-4" d="M348.875 180.926a.3.3 0 0 1-.3-.3v-13.648a.3.3 0 1 1 .607 0v13.644a.3.3 0 0 1-.307.304z" transform="translate(-348.571 -166.674)"/>
                    </g>
                </g>
                <g id="그룹_7838" data-name="그룹 7838" transform="translate(296.991 130.663)">
                    <g id="그룹_7837" data-name="그룹 7837">
                        <path id="패스_21528" data-name="패스 21528" class="cls-12" d="m341.84 155.548 4.324 6.4-4.842 4.248-2.88-8.119z" transform="translate(-338.442 -155.548)"/>
                    </g>
                </g>
                <g id="그룹_7840" data-name="그룹 7840" transform="translate(304.713 129.013)">
                    <g id="그룹_7839" data-name="그룹 7839">
                        <path id="패스_21529" data-name="패스 21529" class="cls-12" d="m362.294 152.831-11.137 8.054 3.777 5.636 10.893-10.178z" transform="translate(-351.157 -152.831)"/>
                    </g>
                </g>
                <g id="그룹_7842" data-name="그룹 7842" transform="translate(304.783 141.296)">
                    <g id="그룹_7841" data-name="그룹 7841">
                        <path id="패스_21530" data-name="패스 21530" class="cls-12" d="M351.273 173.758a.7.7 0 1 0 .7-.7.7.7 0 0 0-.7.7z" transform="translate(-351.273 -173.056)"/>
                    </g>
                </g>
                <g id="그룹_7844" data-name="그룹 7844" transform="translate(304.783 145.028)">
                    <g id="그룹_7843" data-name="그룹 7843">
                        <path id="패스_21531" data-name="패스 21531" class="cls-12" d="M351.273 179.9a.7.7 0 1 0 .7-.7.7.7 0 0 0-.7.7z" transform="translate(-351.273 -179.202)"/>
                    </g>
                </g>
                <g id="그룹_7846" data-name="그룹 7846" transform="translate(304.783 149.025)">
                    <g id="그룹_7845" data-name="그룹 7845">
                        <path id="패스_21532" data-name="패스 21532" class="cls-12" d="M351.273 186.487a.7.7 0 1 0 .7-.7.7.7 0 0 0-.7.7z" transform="translate(-351.273 -185.783)"/>
                    </g>
                </g>
                <g id="그룹_7853" data-name="그룹 7853" transform="translate(241.847 92.177)">
                    <g id="그룹_7848" data-name="그룹 7848" transform="translate(5.13 6.552)">
                        <g id="그룹_7847" data-name="그룹 7847">
                            <path id="사각형_3160" data-name="사각형 3160" class="cls-8" transform="rotate(-38.05 .543 .187)" d="M0 0h.607v.911H0z"/>
                        </g>
                    </g>
                    <g id="그룹_7850" data-name="그룹 7850" transform="translate(1.476 1.884)">
                        <g id="그룹_7849" data-name="그룹 7849">
                            <path id="패스_21533" data-name="패스 21533" class="cls-8" d="m252.813 99.155-.913-1.167.478-.374.913 1.167zm-1.827-2.333-.913-1.167.478-.374.913 1.167z" transform="translate(-250.072 -95.28)"/>
                        </g>
                    </g>
                    <g id="그룹_7852" data-name="그룹 7852">
                        <g id="그룹_7851" data-name="그룹 7851">
                            <path id="사각형_3161" data-name="사각형 3161" class="cls-8" transform="rotate(-38.1 .542 .187)" d="M0 0h.607v.911H0z"/>
                        </g>
                    </g>
                </g>
                <g id="그룹_7860" data-name="그룹 7860" transform="translate(235.297 102.551)">
                    <g id="그룹_7855" data-name="그룹 7855" transform="translate(7.358 3.889)">
                        <g id="그룹_7854" data-name="그룹 7854">
                            <path id="사각형_3162" data-name="사각형 3162" class="cls-8" transform="rotate(-62.15 .446 .269)" d="M0 0h.607v.911H0z"/>
                        </g>
                    </g>
                    <g id="그룹_7857" data-name="그룹 7857" transform="translate(2.116 1.118)">
                        <g id="그룹_7856" data-name="그룹 7856">
                            <path id="패스_21534" data-name="패스 21534" class="cls-8" d="m244.272 113.714-1.311-.692.284-.537 1.311.693zm-2.621-1.385-1.311-.692.284-.537 1.311.692z" transform="translate(-240.34 -111.1)"/>
                        </g>
                    </g>
                    <g id="그룹_7859" data-name="그룹 7859">
                        <g id="그룹_7858" data-name="그룹 7858">
                            <path id="사각형_3163" data-name="사각형 3163" class="cls-8" transform="rotate(-62.15 .446 .269)" d="M0 0h.607v.911H0z"/>
                        </g>
                    </g>
                </g>
                <g id="그룹_7867" data-name="그룹 7867" transform="translate(232.885 115.254)">
                    <g id="그룹_7862" data-name="그룹 7862" transform="translate(8.26)">
                        <g id="그룹_7861" data-name="그룹 7861">
                            <path id="사각형_3164" data-name="사각형 3164" class="cls-8" transform="rotate(-6.896 .905 .055)" d="M0 0h.911v.608H0z"/>
                        </g>
                    </g>
                    <g id="그룹_7864" data-name="그룹 7864" transform="translate(2.376 .288)">
                        <g id="그룹_7863" data-name="그룹 7863">
                            <path id="패스_21535" data-name="패스 21535" class="cls-8" d="m236.87 131.786-.073-.6 1.471-.178.073.6zm2.942-.356-.073-.6 1.471-.178.073.6z" transform="translate(-236.797 -130.649)"/>
                        </g>
                    </g>
                    <g id="그룹_7866" data-name="그룹 7866" transform="translate(0 1)">
                        <g id="그룹_7865" data-name="그룹 7865">
                            <path id="사각형_3165" data-name="사각형 3165" class="cls-8" transform="rotate(-6.896 .905 .055)" d="M0 0h.911v.608H0z"/>
                        </g>
                    </g>
                </g>
                <g id="그룹_7869" data-name="그룹 7869" transform="translate(285.137 152.433)">
                    <g id="그룹_7868" data-name="그룹 7868">
                        <path id="패스_21536" data-name="패스 21536" class="cls-4" d="M319.227 207.346a.3.3 0 0 1-.3-.3V191.7a.3.3 0 1 1 .607 0v15.344a.3.3 0 0 1-.307.302z" transform="translate(-318.923 -191.395)"/>
                    </g>
                </g>
            </g>
            <g id="그룹_7877" data-name="그룹 7877" transform="translate(-139.787 211.859)">
                <g id="그룹_7872" data-name="그룹 7872" transform="translate(353.201 -59.428)">
                    <g id="그룹_7871" data-name="그룹 7871">
                        <path id="패스_21537" data-name="패스 21537" class="cls-12" d="M381.857-59.428h-27.238a1.565 1.565 0 0 0-1.419 1.678v17.513a1.565 1.565 0 0 0 1.418 1.679h11.262l1.666 2.167a.867.867 0 0 0 1.377 0l1.642-2.162h11.291a1.564 1.564 0 0 0 1.419-1.679V-57.75a1.564 1.564 0 0 0-1.418-1.678z" transform="translate(-353.201 59.428)"/>
                    </g>
                </g>
                <g id="그룹_7878" data-name="그룹 7878" transform="translate(362.115 -56.317)">
                    <g id="그룹_7874" data-name="그룹 7874" transform="translate(3.311)">
                        <g id="그룹_7873" data-name="그룹 7873">
                            <path id="패스_21538" data-name="패스 21538" d="M373.421-50.739a4.531 4.531 0 0 0 2.8-2.53 9.872 9.872 0 0 0 .482-2.359.86.86 0 0 1 .96-.881s1.091-.134 1.361 1.668a9.932 9.932 0 0 1-.085 3.2h4.093a1.77 1.77 0 0 1 1.124 1.47 1.561 1.561 0 0 1-.613 1.1 1.483 1.483 0 0 1 .2 1.406s-.231.691-.69.82a1.705 1.705 0 0 1 .257 1.252s-.1.767-.615.921a1.168 1.168 0 0 1 .1 1.125s-.026.869-1.355.971c0 0-5.824.166-8.023-.729z" transform="translate(-373.421 56.512)" style="fill:#feabad"/>
                        </g>
                    </g>
                    <g id="그룹_7876" data-name="그룹 7876" transform="translate(0 5.026)">
                        <g id="그룹_7875" data-name="그룹 7875">
                            <path id="사각형_3166" data-name="사각형 3166" style="fill:#3b81ff" d="M0 0h3.311v8.698H0z"/>
                        </g>
                    </g>
                </g>
            </g>
            <g id="그룹_7879" data-name="그룹 7879" transform="translate(-81.496 138.639)">
                <g id="그룹_7872-2" data-name="그룹 7872" transform="translate(353.201 -59.428)">
                    <g id="그룹_7871-2" data-name="그룹 7871">
                        <path id="패스_21537-2" data-name="패스 21537" class="cls-12" d="M377.492-59.428H354.4a1.327 1.327 0 0 0-1.2 1.422v14.846a1.327 1.327 0 0 0 1.2 1.423h9.547l1.412 1.836a.735.735 0 0 0 1.167 0l1.392-1.833h9.571a1.326 1.326 0 0 0 1.2-1.423v-14.849a1.326 1.326 0 0 0-1.197-1.422z" transform="translate(-353.201 59.428)"/>
                    </g>
                </g>
                <g id="그룹_7881" data-name="그룹 7881" transform="translate(359.901 -55.62)">
                    <g id="그룹_7880" data-name="그룹 7880">
                        <path id="패스_21539" data-name="패스 21539" d="M220.02 199.361a3.164 3.164 0 0 0-4.475 0l-.59.59-.59-.59a3.164 3.164 0 0 0-4.474 4.475l.59.59 4.474 4.476 4.475-4.476.59-.59a3.161 3.161 0 0 0 0-4.475z" transform="translate(-208.964 -198.434)" style="fill:#ff5562"/>
                    </g>
                </g>
            </g>
        </g>
    </g>
</svg>
