<svg xmlns="http://www.w3.org/2000/svg" width="40" height="38.002" viewBox="0 0 40 38.002">
  <path id="합치기_15" data-name="합치기 15" d="M15091.444,8736.23l-7.445-5.345-7.441,5.345a4.113,4.113,0,0,1-4.791,0,3.99,3.99,0,0,1-1.482-4.507l2.84-8.65-7.441-5.345a4,4,0,0,1-1.482-4.508,4.066,4.066,0,0,1,3.878-2.786h9.2l2.843-8.65a4.095,4.095,0,0,1,7.76,0l2.839,8.65h9.2a4.059,4.059,0,0,1,3.878,2.786,3.991,3.991,0,0,1-1.482,4.508l-7.44,5.345,2.843,8.65a3.99,3.99,0,0,1-1.482,4.507,4.113,4.113,0,0,1-4.791,0Z" transform="translate(-15064 -8698.998)" fill="#fd0"/>
</svg>
