<svg xmlns="http://www.w3.org/2000/svg" width="114" height="114" viewBox="0 0 114 114">
    <g transform="translate(2527.93 -661.155)">
        <ellipse cx="56.974" cy="57" fill="#f1f1f1" rx="56.974" ry="57" transform="translate(-2527.877 661.155)"/>
        <path fill="#ffd59e" d="M-2042.022 1103.541h.539a4.48 4.48 0 0 0 4.44-4.471 4.48 4.48 0 0 0-4.44-4.471h-1.74a4.358 4.358 0 0 0 3.673-4.432v.015a4.347 4.347 0 0 0-4.374-4.382h-15.029c6.653-7.5 5.607-15.319 5.607-15.319a4.465 4.465 0 0 0-4.44-4.454c-2.442 0-4.105 2.016-4.456 4.433-1.832 12.634-14.448 16.139-14.448 16.139-.865.232-1.959.509-2.923.835l-8.616 2.917v26.105l8.082 2.825a31.832 31.832 0 0 0 10.483 1.783h8.265c.158.072.318 0 .479 0h15.741a4.414 4.414 0 0 0 4.44-4.394 4.421 4.421 0 0 0-3.738-4.332h1.753a4.444 4.444 0 0 0 4.44-4.43 4.348 4.348 0 0 0-3.738-4.367z" transform="translate(-409.914 -377.43)"/>
        <rect width="6.828" height="33.194" fill="#fff" rx="3.414" transform="translate(-2503.417 709.557)"/>
        <path fill="#262626" d="M-2501.216 1379.823v-35.21a1.064 1.064 0 0 0-1.052-1.086h-24.673a57.459 57.459 0 0 0-.989 10.636 56.9 56.9 0 0 0 6.618 26.72h19.044a1.042 1.042 0 0 0 1.052-1.06z" transform="translate(0 -636.066)"/>
        <circle cx="3.037" cy="3.037" r="3.037" fill="#efd03a" transform="rotate(-80.903 -821.548 1842.742)"/>
        <path fill="#e2bd20" d="M-2231.618 1742.507a3.037 3.037 0 0 1 3.037 3.037 3.037 3.037 0 0 1-3.037 3.037z" transform="translate(-276.188 -1007.885)"/>
    </g>
</svg>
