<svg xmlns="http://www.w3.org/2000/svg" width="150" height="114" viewBox="0 0 150 114">
    <defs>
        <style>
            .cls-1{fill:#d8a79a}.cls-2{fill:#bc8877}.cls-3{fill:#fff}.cls-4{fill:#f4f4f4}.cls-5{fill:#fd0}.cls-6{fill:#0868af}.cls-7{fill:#bababa}.cls-8{fill:#ededed}.cls-10{fill:#f1e6e3}
        </style>
    </defs>
    <g id="그룹_2733" transform="translate(-104 -143)">
        <g id="그룹_2725" transform="translate(-1135.527 -5763.736)">
            <g id="그룹_2724" transform="translate(1270.092 5906.737)">
                <g id="그룹_2692" transform="translate(28.033 2.064)">
                    <path id="패스_4224" d="M2034.67 5955.925h-20.364a6.581 6.581 0 0 0-6.581 6.581v20.485h33.525v-20.485a6.581 6.581 0 0 0-6.58-6.581z" class="cls-1" transform="translate(-2007.087 -5955.287)"/>
                    <path id="패스_4225" d="M2023.219 5943.835h-20.364a7.227 7.227 0 0 0-7.219 7.219v20.484a.638.638 0 0 0 .638.638h33.526a.638.638 0 0 0 .638-.638v-20.484a7.227 7.227 0 0 0-7.219-7.219zm5.943 27.065h-32.249v-19.846a5.949 5.949 0 0 1 5.943-5.943h20.364a5.95 5.95 0 0 1 5.943 5.943z" class="cls-2" transform="translate(-1995.636 -5943.835)"/>
                </g>
                <g id="그룹_2693" transform="translate(30.502 39.331)">
                    <path id="패스_4226" d="M2075.486 6673.063v-8.634h-13.443v8.634c0 3.509-3.38 6.354-7.55 6.354h28.543c-4.17 0-7.55-2.845-7.55-6.354z" class="cls-3" transform="translate(-2053.855 -6663.791)"/>
                    <path id="패스_4227" d="M2071.585 6667.327c-3.812 0-6.913-2.564-6.913-5.715v-8.635a.638.638 0 0 0-.638-.638h-13.443a.638.638 0 0 0-.638.638v8.635c0 3.151-3.1 5.715-6.912 5.715a.638.638 0 1 0 0 1.276h28.543a.638.638 0 1 0 0-1.276zm-23.821 0a8.083 8.083 0 0 0 1.027-.734 6.481 6.481 0 0 0 2.438-4.98v-8h12.171v8a6.481 6.481 0 0 0 2.438 4.98 8.075 8.075 0 0 0 1.027.734z" class="cls-2" transform="translate(-2042.404 -6652.34)"/>
                </g>
                <g id="그룹_2694" transform="translate(17.746 49.923)">
                    <path id="패스_4228" d="M1853.926 6904.085h-28.2c-7.14 0-12.928 4.617-12.928 10.313v52.488h54.055V6914.4c.001-5.7-5.787-10.315-12.927-10.315z" class="cls-4" transform="translate(-1812.161 -6903.577)"/>
                    <path id="패스_4229" d="M1842.475 6894.442h-28.2a15.379 15.379 0 0 0-9.593 3.169 9.789 9.789 0 0 0-3.973 7.652v52.489a.584.584 0 0 0 .638.509h54.053a.584.584 0 0 0 .638-.509v-52.489a9.789 9.789 0 0 0-3.973-7.652 15.378 15.378 0 0 0-9.59-3.169zm12.29 62.8h-52.779v-51.98a8.868 8.868 0 0 1 3.6-6.932 13.933 13.933 0 0 1 8.69-2.872h28.2a14.154 14.154 0 0 1 8.69 2.872 8.492 8.492 0 0 1 3.6 6.932z" class="cls-2" transform="translate(-1800.71 -6894.442)"/>
                </g>
                <g id="그룹_2695" transform="translate(69.299 55.813)">
                    <path id="패스_4230" d="M2795.718 7012.455l-1.169 43.354a11.727 11.727 0 0 0 14.084 5.547c5.333-1.868 7.674-7.379 5.229-12.311z" class="cls-4" transform="translate(-2793.901 -7012.116)"/>
                    <path id="패스_4231" d="M2784.562 7006.374a.687.687 0 0 0-.834-.289.51.51 0 0 0-.344.7l18.143 36.59a8.172 8.172 0 0 1 .291 6.917 8.552 8.552 0 0 1-5.176 4.692 11.056 11.056 0 0 1-13.25-5.259.686.686 0 0 0-.834-.289c-.325.114-.368.313-.232.586a11.664 11.664 0 0 0 6.166 5.718 12.792 12.792 0 0 0 4.684.9 11.954 11.954 0 0 0 3.957-.666 9.718 9.718 0 0 0 5.887-5.321 9.087 9.087 0 0 0-.315-7.691z" class="cls-2" transform="translate(-2782.254 -7006.044)"/>
                </g>
                <g id="그룹_2703" transform="translate(51.733 56.847)">
                    <g id="그룹_2696" transform="translate(5.429)">
                        <path id="사각형_1166" d="M0 0H22.622V2.404H0z" class="cls-5" transform="rotate(-74.733 15.026 10.813)"/>
                        <path id="패스_4232" d="M2559.275 7024.448l-2.318-.633a.638.638 0 0 0-.783.447l-5.957 21.825a.638.638 0 0 0 .448.783l2.319.633a.656.656 0 0 0 .168.022.638.638 0 0 0 .615-.47l5.957-21.823a.639.639 0 0 0-.449-.784zm-6.575 21.652l-1.088-.3 5.621-20.593 1.088.3z" class="cls-2" transform="translate(-2550.194 -7023.793)"/>
                    </g>
                    <g id="그룹_2697" transform="translate(2.96 14.485)">
                        <path id="패스_4233" d="M2527.243 7311.709a3.914 3.914 0 0 0-2.972-1.367h-6.935l-1.571 1.069-.279 11.5h8.574l1.983 2.545 9.426-3.865-6.582-7.962z" class="cls-3" transform="translate(-2514.848 -7309.704)"/>
                        <path id="패스_4234" d="M2517.929 7301.772l-.007-.009-1.645-1.919a4.547 4.547 0 0 0-3.456-1.59h-6.935a.638.638 0 0 0-.358.111l-1.571 1.069a.638.638 0 0 0-.279.512l-.279 11.5a.637.637 0 0 0 .638.653h8.263l1.792 2.3a.638.638 0 0 0 1.006-.784l-1.983-2.545a.638.638 0 0 0-.5-.246h-7.921l.255-10.519 1.138-.773h6.739a3.272 3.272 0 0 1 2.487 1.144l1.642 1.915 6.578 7.958a.638.638 0 1 0 .984-.813z" class="cls-2" transform="translate(-2503.397 -7298.254)"/>
                    </g>
                    <g id="그룹_2702" transform="translate(0 14.485)">
                        <g id="그룹_2698" transform="translate(.54)">
                            <path id="패스_4235" d="M2469.644 7311.914a1.571 1.571 0 0 0 1.571 1.571h2.761l3.676-3.142h-6.438a1.571 1.571 0 0 0-1.57 1.571z" class="cls-3" transform="translate(-2469.006 -7309.704)"/>
                            <path id="패스_4236" d="M2466.2 7298.254h-6.437a2.209 2.209 0 1 0 0 4.418h2.761a.638.638 0 1 0 0-1.276h-2.761a.933.933 0 1 1 0-1.866h6.438a.638.638 0 0 0 0-1.276z" class="cls-2" transform="translate(-2457.554 -7298.254)"/>
                        </g>
                        <g id="그룹_2699" transform="translate(.54 6.284)">
                            <path id="패스_4237" d="M2469.644 7430.985a1.571 1.571 0 0 0 1.571 1.571h5.024v-3.142h-5.024a1.571 1.571 0 0 0-1.571 1.571z" class="cls-3" transform="translate(-2469.006 -7428.777)"/>
                            <path id="패스_4238" d="M2459.764 7418.6h5.024a.638.638 0 1 0 0-1.276h-5.024a2.209 2.209 0 1 0 0 4.418h5.024a.638.638 0 1 0 0-1.276h-5.024a.933.933 0 1 1 0-1.866z" class="cls-6" transform="translate(-2457.554 -7417.326)"/>
                        </g>
                        <g id="그룹_2700" transform="translate(1.389 9.426)">
                            <path id="패스_4239" d="M2487.289 7488.95a1.571 1.571 0 0 0-1.571 1.57 1.571 1.571 0 0 0 1.571 1.571h8.574l-4.4-3.142z" class="cls-3" transform="translate(-2485.08 -7488.312)"/>
                            <path id="패스_4240" d="M2484.413 7480h-8.574a.933.933 0 1 1 0-1.866h4.175a.638.638 0 1 0 0-1.275h-4.175a2.209 2.209 0 0 0 0 4.418h8.574a.638.638 0 0 0 0-1.276z" class="cls-2" transform="translate(-2473.63 -7476.862)"/>
                        </g>
                        <g id="그룹_2701" transform="translate(0 3.142)">
                            <path id="패스_4241" d="M2459.406 7371.45a1.464 1.464 0 0 0 1.326 1.57h5.809v-3.142h-5.809a1.464 1.464 0 0 0-1.326 1.572z" class="cls-3" transform="translate(-2458.768 -7369.241)"/>
                            <path id="패스_4242" d="M2449.282 7359.067h5.809a.638.638 0 0 0 0-1.276h-5.809a2.225 2.225 0 0 0 0 4.418h5.809a.638.638 0 0 0 0-1.276h-5.809c-.373 0-.688-.427-.688-.933s.315-.933.688-.933z" class="cls-2" transform="translate(-2447.318 -7357.791)"/>
                        </g>
                    </g>
                </g>
                <g id="그룹_2704" transform="translate(23.389 72.374)">
                    <path id="패스_4243" d="M1922.254 7334.439a16.483 16.483 0 0 0-4.462 8.3l.628 4.273 9.929-7.1-.5-9.426a24.747 24.747 0 0 0-5.595 3.953z" class="cls-3" transform="translate(-1917.154 -7329.842)"/>
                    <path id="패스_4244" d="M1916.722 7318.48a.64.64 0 0 0-.6-.025 25.2 25.2 0 0 0-5.755 4.071 16.987 16.987 0 0 0-4.652 8.652.652.652 0 0 0 0 .2l.628 4.273a.637.637 0 0 0 .382.494.621.621 0 0 0 .25.051.639.639 0 0 0 .371-.119l9.929-7.1a.637.637 0 0 0 .266-.553l-.5-9.426a.639.639 0 0 0-.319-.518zm-9.272 15.95l-.461-3.132a15.95 15.95 0 0 1 4.254-7.846 24.772 24.772 0 0 1 4.571-3.382l.43 8.071z" class="cls-6" transform="translate(-1905.704 -7318.392)"/>
                </g>
                <g id="그룹_2705" transform="translate(0 56)">
                    <path id="패스_4245" d="M1472.807 7049.044c-2.445 4.932-.1 10.443 5.229 12.311a11.727 11.727 0 0 0 14.084-5.547l-1.169-43.354z" class="cls-4" transform="translate(-1471.198 -7012.304)"/>
                    <path id="패스_4246" d="M1480.886 7052.991a.688.688 0 0 0-.834.289 11.055 11.055 0 0 1-13.249 5.259 8.552 8.552 0 0 1-5.176-4.692 8.173 8.173 0 0 1 .29-6.917l18.143-36.59a.51.51 0 0 0-.344-.7.687.687 0 0 0-.834.289l-18.143 36.589a9.086 9.086 0 0 0-.315 7.691 9.719 9.719 0 0 0 5.887 5.322 11.981 11.981 0 0 0 3.957.666 12.774 12.774 0 0 0 4.684-.9 11.7 11.7 0 0 0 6.277-5.6.51.51 0 0 0-.343-.706z" class="cls-2" transform="translate(-1459.717 -7009.597)"/>
                </g>
                <g id="그룹_2706" transform="translate(27.704 60.877)">
                    <path id="사각형_1167" d="M0 0H29.222V35.245H0z" class="cls-5" transform="translate(.638 .497)"/>
                    <path id="패스_4247" d="M2018.87 7101.993h-29.222a.581.581 0 0 0-.638.5v35.245a.581.581 0 0 0 .638.5h29.222a.581.581 0 0 0 .638-.5v-35.248a.581.581 0 0 0-.638-.497zm-.638 35.245h-27.945v-34.251h27.945z" class="cls-2" transform="translate(-1989.01 -7101.993)"/>
                </g>
                <g id="그룹_2707" transform="translate(26.814 67.522)">
                    <path id="패스_4248" d="M1987.811 7238.1a3.914 3.914 0 0 0-2.972 1.367l-1.645 1.919.429 9.848 11.877-.816.817-11.249-1.571-1.068z" class="cls-3" transform="translate(-1982.556 -7237.466)"/>
                    <path id="패스_4249" d="M1985.225 7227.194l-1.571-1.067a.635.635 0 0 0-.359-.11h-6.935a4.545 4.545 0 0 0-3.456 1.589l-1.645 1.919a.638.638 0 1 0 .969.83l1.645-1.919a3.271 3.271 0 0 1 2.487-1.145h6.739l1.1.751-.75 10.33-11.325.779a.638.638 0 0 0 .043 1.274h.044l11.877-.817a.639.639 0 0 0 .593-.59l.817-11.249a.638.638 0 0 0-.273-.575z" class="cls-2" transform="translate(-1971.105 -7226.017)"/>
                </g>
                <g id="그룹_2712" transform="translate(31.838 67.523)">
                    <g id="그룹_2708" transform="translate(2.985)">
                        <path id="패스_4250" d="M2149.848 7238.1h-13.857l3.676 3.142h10.18a1.571 1.571 0 0 0 1.571-1.571 1.571 1.571 0 0 0-1.57-1.571z" class="cls-3" transform="translate(-2135.353 -7237.466)"/>
                        <path id="패스_4251" d="M2138.4 7226.017h-13.86a.638.638 0 1 0 0 1.275h13.86a.933.933 0 0 1 0 1.866h-10.18a.638.638 0 1 0 0 1.275h10.18a2.208 2.208 0 1 0 0-4.417z" class="cls-2" transform="translate(-2123.902 -7226.017)"/>
                    </g>
                    <g id="그룹_2709" transform="translate(4.399 6.284)">
                        <path id="패스_4252" d="M2175.225 7357.175h-12.443v3.143h12.443a1.571 1.571 0 0 0 1.571-1.571 1.571 1.571 0 0 0-1.571-1.572z" class="cls-3" transform="translate(-2162.144 -7356.537)"/>
                        <path id="패스_4253" d="M2163.774 7345.087h-12.443a.638.638 0 1 0 0 1.276h12.443a.933.933 0 1 1 0 1.866h-12.443a.638.638 0 1 0 0 1.276h12.443a2.209 2.209 0 0 0 0-4.418z" class="cls-2" transform="translate(-2150.693 -7345.087)"/>
                    </g>
                    <g id="그룹_2710" transform="translate(0 9.426)">
                        <path id="패스_4254" d="M2091.886 7416.71h-8.055l-4.4 3.142h12.454a1.571 1.571 0 0 0 1.571-1.57 1.572 1.572 0 0 0-1.57-1.572z" class="cls-3" transform="translate(-2078.794 -7416.072)"/>
                        <path id="패스_4255" d="M2080.436 7404.622h-8.056a.638.638 0 0 0 0 1.276h8.056a.933.933 0 0 1 0 1.866h-12.454a.638.638 0 1 0 0 1.275h12.454a2.209 2.209 0 1 0 0-4.418z" class="cls-2" transform="translate(-2067.343 -7404.622)"/>
                    </g>
                    <g id="그룹_2711" transform="translate(4.399 3.142)">
                        <path id="패스_4256" d="M2177.083 7297.64h-14.3v3.143h14.3a1.571 1.571 0 0 0 1.571-1.571 1.571 1.571 0 0 0-1.571-1.572z" class="cls-3" transform="translate(-2162.144 -7297.001)"/>
                        <path id="패스_4257" d="M2165.633 7285.551h-14.3a.638.638 0 1 0 0 1.276h14.3a.933.933 0 1 1 0 1.865h-14.3a.638.638 0 1 0 0 1.276h14.3a2.209 2.209 0 1 0 0-4.418z" class="cls-2" transform="translate(-2150.693 -7285.551)"/>
                    </g>
                </g>
                <g id="그룹_2713" transform="translate(8.714 72.329)">
                    <path id="사각형_1168" d="M0 0H24.46V13.715H0z" class="cls-4" transform="rotate(-52.417 20.656 9.363)"/>
                    <path id="패스_4258" d="M1651.638 7327.49l-10.869-8.365a.638.638 0 0 0-.895.117l-14.918 19.384a.638.638 0 0 0 1.011.778l14.529-18.878 9.857 7.586-14.529 18.878a.638.638 0 0 0 1.011.778l14.918-19.384a.637.637 0 0 0-.116-.895z" class="cls-2" transform="translate(-1624.824 -7318.992)"/>
                </g>
                <g id="그룹_2714" transform="translate(61.152 77.451)">
                    <path id="패스_4259" d="M2639.98 7436.487l9.083 14.541 10.868-8.365-9.084-14.54z" class="cls-4" transform="translate(-2639.342 -7427.485)"/>
                    <path id="패스_4260" d="M2639.938 7416.334a.637.637 0 0 0-.93-.167l-10.868 8.364a.638.638 0 0 0-.152.844l9.083 14.54a.638.638 0 1 0 1.082-.677l-8.777-14.049 9.852-7.582 8.711 13.942a.638.638 0 1 0 1.082-.676z" class="cls-2" transform="translate(-2627.89 -7416.034)"/>
                </g>
                <g id="그룹_2717" transform="translate(26.517 20.618)">
                    <g id="그룹_2715">
                        <path id="패스_4261" d="M1986.3 6308.692h-4.232a2.946 2.946 0 0 0-3.058 3.153l.823 4.943c.267 1.833 1.369 3.152 3.058 3.152h4.232a.335.335 0 0 0 .33-.34l-.823-10.568a.335.335 0 0 0-.33-.34z" class="cls-3" transform="translate(-1978.345 -6308.054)"/>
                        <path id="패스_4262" d="M1975.815 6297.551a.974.974 0 0 0-.967-.947h-4.232a3.9 3.9 0 0 0-2.9 1.3 3.217 3.217 0 0 0-.794 2.573v.021l.822 4.938c.329 2.244 1.776 3.692 3.688 3.692h4.232a.974.974 0 0 0 .968-.978v-.05zm-4.376 10.3c-1.282 0-2.189-.975-2.427-2.605v-.013l-.821-4.934a1.942 1.942 0 0 1 .49-1.554 2.606 2.606 0 0 1 1.937-.867h3.945l.776 9.973z" class="cls-2" transform="translate(-1966.897 -6296.604)"/>
                    </g>
                    <g id="그룹_2716" transform="translate(28.093)">
                        <path id="패스_4263" d="M2516.673 6308.692h-4.232a.336.336 0 0 0-.33.341l-.823 10.568a.335.335 0 0 0 .33.34h4.232c1.689 0 2.792-1.319 3.058-3.152l.823-4.943a2.945 2.945 0 0 0-3.058-3.154z" class="cls-3" transform="translate(-2510.65 -6308.054)"/>
                        <path id="패스_4264" d="M2505.223 6296.6h-4.232a.974.974 0 0 0-.967.947l-.822 10.55v.05a.974.974 0 0 0 .968.978h4.232c1.912 0 3.359-1.449 3.688-3.692l.822-4.937v-.021a3.217 3.217 0 0 0-.794-2.573 3.9 3.9 0 0 0-2.895-1.302zm2.427 3.7l-.821 4.934a.129.129 0 0 0 0 .013c-.238 1.631-1.145 2.605-2.427 2.605h-3.9l.777-9.973h3.945a2.6 2.6 0 0 1 1.936.867 1.941 1.941 0 0 1 .489 1.554z" class="cls-2" transform="translate(-2499.2 -6296.604)"/>
                    </g>
                </g>
                <g id="그룹_2718" transform="translate(30.692 8.709)">
                    <path id="패스_4265" d="M2079.818 6081.847h-15.243a6.483 6.483 0 0 0-6.483 6.483v14.734c0 8.611 6.222 16.411 13.827 16.411h.556c7.6 0 13.826-7.8 13.826-16.411v-14.734a6.483 6.483 0 0 0-6.483-6.483z" class="cls-3" transform="translate(-2057.454 -6081.209)"/>
                    <path id="패스_4266" d="M2068.368 6069.757h-15.243a7.129 7.129 0 0 0-7.121 7.122v14.734a18.816 18.816 0 0 0 1.129 6.414 18.151 18.151 0 0 0 3.079 5.427 15.048 15.048 0 0 0 4.592 3.782 12.108 12.108 0 0 0 5.665 1.426h.556a12.106 12.106 0 0 0 5.665-1.426 15.042 15.042 0 0 0 4.592-3.782 18.147 18.147 0 0 0 3.079-5.427 18.813 18.813 0 0 0 1.129-6.414v-14.734a7.129 7.129 0 0 0-7.122-7.122zm5.845 21.855a17.542 17.542 0 0 1-3.915 11.028 13.765 13.765 0 0 1-4.2 3.464 10.84 10.84 0 0 1-5.073 1.281h-.556a10.843 10.843 0 0 1-5.073-1.281 13.764 13.764 0 0 1-4.2-3.464 17.541 17.541 0 0 1-3.915-11.028v-14.734a5.852 5.852 0 0 1 5.845-5.845h15.243a5.852 5.852 0 0 1 5.845 5.845z" class="cls-2" transform="translate(-2046.004 -6069.757)"/>
                </g>
                <path id="패스_4267" d="M2245.219 6637.278a6.7 6.7 0 0 1-3.134.792h-.355a6.767 6.767 0 0 1-3.506-1 .638.638 0 0 0-.654 1.1 8.028 8.028 0 0 0 4.16 1.181h.355a7.968 7.968 0 0 0 3.727-.938.638.638 0 1 0-.592-1.13z" class="cls-2" transform="translate(-2196.472 -6598.442)"/>
                <g id="그룹_2719" transform="translate(36.888 26.325)">
                    <path id="패스_4268" d="M2164.722 6404.926a1.324 1.324 0 0 0-1.32 1.319 1.32 1.32 0 0 0 2.639 0 1.323 1.323 0 0 0-1.319-1.319z" class="cls-2" transform="translate(-2163.402 -6404.926)"/>
                    <path id="패스_4269" d="M2438.586 6404.926a1.323 1.323 0 0 0-1.32 1.319 1.323 1.323 0 0 0 1.32 1.319 1.323 1.323 0 0 0 1.32-1.319 1.323 1.323 0 0 0-1.32-1.319z" class="cls-2" transform="translate(-2422.813 -6404.926)"/>
                </g>
                <path id="패스_4270" d="M2280.339 6339.939a.638.638 0 0 0-.638.638v9.7a1.342 1.342 0 0 1-2.683 0 .638.638 0 1 0-1.276 0 2.618 2.618 0 0 0 5.235 0v-9.7a.638.638 0 0 0-.638-.638z" class="cls-2" transform="translate(-2232.926 -6317.042)"/>
                <g id="그룹_2720" transform="translate(34.884 21.749)">
                    <path id="패스_4271" d="M2130.824 6317.968h-4.807a.583.583 0 1 0 0 1.165h4.807a.583.583 0 1 0 0-1.165z" class="cls-7" transform="translate(-2125.434 -6317.968)"/>
                    <path id="패스_4272" d="M2417.473 6317.968h-4.807a.583.583 0 1 0 0 1.165h4.807a.583.583 0 0 0 0-1.165z" class="cls-7" transform="translate(-2396.955 -6317.968)"/>
                </g>
                <g id="그룹_2721" transform="translate(36.18)">
                    <path id="패스_4273" d="M2179.527 5916.826h-16.808s-.671 8.709 6.624 8.709h7.556c5 0 8.492 4 8.492 6.483l2.658.063v-6.611c.036-5.392-4.89-8.644-8.522-8.644z" class="cls-1" transform="translate(-2162.063 -5916.188)"/>
                    <path id="패스_4274" d="M2168.052 5904.737h-16.809a.638.638 0 0 0-.636.589c-.014.188-.326 4.643 2.2 7.37a6.593 6.593 0 0 0 5.062 2.026h7.556a8.661 8.661 0 0 1 5.7 2.153 5.632 5.632 0 0 1 2.154 3.692.638.638 0 0 0 1.276 0c0-2.868-3.834-7.121-9.13-7.121h-7.556a5.371 5.371 0 0 1-4.122-1.613c-1.655-1.784-1.869-4.6-1.879-5.82h16.186a8.32 8.32 0 0 1 5.616 2.52 7.591 7.591 0 0 1 2.267 5.487v6.611a.638.638 0 0 0 1.276 0v-6.607a8.839 8.839 0 0 0-2.638-6.39 9.635 9.635 0 0 0-6.523-2.897z" class="cls-2" transform="translate(-2150.588 -5904.737)"/>
                </g>
                <g id="그룹_2722" transform="translate(34.743 31.577)">
                    <circle id="타원_292" cx="1.838" cy="1.838" r="1.838" class="cls-8" transform="rotate(-7 6.55 .4)"/>
                    <circle id="타원_293" cx="1.838" cy="1.838" r="1.838" class="cls-8" transform="rotate(-22.5 12.001 -41.85)"/>
                </g>
                <g id="그룹_2723" transform="translate(30.719 59.275)">
                    <path id="패스_4275" d="M2046.8 7068.958a.638.638 0 0 0-.638.638v3.2a.638.638 0 1 0 1.276 0v-3.2a.638.638 0 0 0-.638-.638z" class="cls-2" transform="translate(-2046.164 -7068.958)"/>
                    <path id="패스_4276" d="M2120.031 7068.958a.638.638 0 0 0-.638.638v3.2a.638.638 0 1 0 1.276 0v-3.2a.638.638 0 0 0-.638-.638z" class="cls-2" transform="translate(-2115.528 -7068.958)"/>
                    <path id="패스_4277" d="M2193.26 7068.958a.638.638 0 0 0-.638.638v3.2a.638.638 0 1 0 1.276 0v-3.2a.638.638 0 0 0-.638-.638z" class="cls-2" transform="translate(-2184.892 -7068.958)"/>
                    <path id="패스_4278" d="M2266.489 7068.958a.638.638 0 0 0-.638.638v3.2a.638.638 0 1 0 1.276 0v-3.2a.638.638 0 0 0-.638-.638z" class="cls-2" transform="translate(-2254.257 -7068.958)"/>
                    <path id="패스_4279" d="M2339.718 7068.958a.638.638 0 0 0-.638.638v3.2a.638.638 0 1 0 1.276 0v-3.2a.638.638 0 0 0-.638-.638z" class="cls-2" transform="translate(-2323.621 -7068.958)"/>
                    <path id="패스_4280" d="M2412.946 7068.958a.638.638 0 0 0-.638.638v3.2a.638.638 0 1 0 1.276 0v-3.2a.638.638 0 0 0-.638-.638z" class="cls-2" transform="translate(-2392.984 -7068.958)"/>
                    <path id="패스_4281" d="M2486.176 7068.958a.638.638 0 0 0-.638.638v3.2a.638.638 0 1 0 1.276 0v-3.2a.638.638 0 0 0-.638-.638z" class="cls-2" transform="translate(-2462.349 -7068.958)"/>
                </g>
            </g>
            <path id="패스_4282" d="M1408.677 8084.375h-148.3c-.47 0-.851.286-.851.639s.381.638.851.638h148.3c.47 0 .851-.286.851-.638s-.382-.639-.851-.639z" class="cls-2" transform="translate(-20 -2064.915)"/>
        </g>
        <g id="그룹_2730" opacity="0.2" transform="translate(-831.142 -5769.361)">
            <path id="패스_4283" d="M1070.4 6175.419h-12.83a1.669 1.669 0 0 0-1.667 1.668v9.081a1.669 1.669 0 0 0 1.667 1.667h3.217v3.626a.494.494 0 0 0 .306.457.476.476 0 0 0 .189.038.5.5 0 0 0 .35-.146l3.976-3.976h4.792a1.669 1.669 0 0 0 1.667-1.667v-9.081a1.67 1.67 0 0 0-1.667-1.667zm.677 10.749a.679.679 0 0 1-.677.678h-5a.494.494 0 0 0-.35.145l-3.276 3.275v-2.926a.494.494 0 0 0-.5-.494h-3.712a.679.679 0 0 1-.677-.678v-9.081a.678.678 0 0 1 .677-.678h12.83a.678.678 0 0 1 .677.678z" class="cls-2" transform="translate(0 -208.772)"/>
            <g id="그룹_2729" transform="translate(1059.4 5969.884)">
                <g id="그룹_2726">
                    <path id="패스_4284" d="M1142.659 6247.592h-8.17a.495.495 0 1 0 0 .99h8.17a.495.495 0 1 0 0-.99z" class="cls-2" transform="translate(-1133.994 -6247.592)"/>
                    <path id="패스_4285" d="M1142.659 6307.457h-8.17a.5.5 0 0 0 0 .99h8.17a.5.5 0 0 0 0-.99z" class="cls-2" transform="translate(-1133.994 -6304.772)"/>
                </g>
                <g id="그룹_2727" transform="translate(0 2.685)">
                    <path id="패스_4286" d="M1142.659 6307.457h-8.17a.5.5 0 0 0 0 .99h8.17a.5.5 0 0 0 0-.99z" class="cls-2" transform="translate(-1133.994 -6307.457)"/>
                </g>
                <g id="그룹_2728" transform="translate(0 5.37)">
                    <path id="패스_4287" d="M1138.958 6367.323h-4.469a.5.5 0 0 0 0 .99h4.469a.5.5 0 0 0 0-.99z" class="cls-2" transform="translate(-1133.994 -6367.323)"/>
                </g>
            </g>
            <path id="패스_4288" d="M1322.128 5956.844h-8.556a1.278 1.278 0 0 0-1.277 1.277v6.057a1.278 1.278 0 0 0 1.277 1.276h3.128l2.6 2.6a.495.495 0 0 0 .845-.35v-2.253h1.98a1.278 1.278 0 0 0 1.277-1.276v-6.057a1.278 1.278 0 0 0-1.274-1.274zm.287 7.333a.287.287 0 0 1-.287.287h-2.476a.5.5 0 0 0-.495.495v1.553l-1.9-1.9a.5.5 0 0 0-.35-.145h-3.333a.287.287 0 0 1-.287-.287v-6.057a.287.287 0 0 1 .287-.287h8.556a.287.287 0 0 1 .287.287z" class="cls-2" transform="translate(-244.898)"/>
            <path id="패스_4289" d="M1367.61 6016.6h-5.71a.5.5 0 0 0 0 .99h5.715a.5.5 0 0 0 0-.99z" class="cls-2" transform="translate(-291.801 -57.076)"/>
            <path id="패스_4290" d="M1365.44 6070.577h-3.54a.495.495 0 1 0 0 .99h3.545a.495.495 0 1 0 0-.99z" class="cls-2" transform="translate(-291.801 -108.632)"/>
        </g>
        <g id="그룹_2732" transform="translate(-1534.495 -5852.641)">
            <g id="그룹_2731" transform="translate(1647.526 6067.457)">
                <path id="패스_4291" d="M1674.316 6170.891h-3.762a.557.557 0 0 0-.557.557v8.845a.557.557 0 0 0 .557.557h3.762a.557.557 0 0 0 .557-.557v-8.845a.557.557 0 0 0-.557-.557zm-.557 8.845h-2.648V6172h2.648z" class="cls-10" transform="translate(-1669.997 -6165.671)"/>
                <path id="패스_4292" d="M1795.271 6117.746h-3.762a.558.558 0 0 0-.557.557v11.527a.557.557 0 0 0 .557.557h3.762a.557.557 0 0 0 .557-.557v-11.53a.558.558 0 0 0-.557-.554zm-.557 11.527h-2.648v-10.413h2.648z" class="cls-10" transform="translate(-1784.849 -6115.208)"/>
                <path id="패스_4293" d="M1916.229 6067.457h-3.762a.557.557 0 0 0-.557.557v14.064a.557.557 0 0 0 .557.557h3.762a.557.557 0 0 0 .557-.557v-14.064a.557.557 0 0 0-.557-.557zm-.557 14.064h-2.648v-12.951h2.648z" class="cls-10" transform="translate(-1899.704 -6067.457)"/>
            </g>
            <path id="패스_4294" d="M1666.375 6346.19h-19.486a.557.557 0 0 0 0 1.114h19.486a.557.557 0 0 0 0-1.114z" class="cls-10" transform="translate(0 -264.669)"/>
        </g>
    </g>
</svg>
