<svg xmlns="http://www.w3.org/2000/svg" width="16" height="16" viewBox="0 0 16 16">
    <g>
        <path fill="none" d="M0 0H16V16H0z" transform="translate(-111 -511) translate(111 511)"/>
        <path d="M-40.91 19.693a3.069 3.069 0 0 0 2.13-1.139 3.675 3.675 0 0 0 .829-2.238A1.5 1.5 0 0 0-37.98 16a3.477 3.477 0 0 0-2.31 1.22 3.486 3.486 0 0 0-.86 2.167 1.382 1.382 0 0 0 .031.285 1.054 1.054 0 0 0 .209.021zM-43.41 32c.97 0 1.4-.661 2.61-.661 1.23 0 1.5.641 2.58.641 1.06 0 1.77-1 2.44-1.973a9.038 9.038 0 0 0 1.08-2.269 3.508 3.508 0 0 1-2.1-3.238 3.636 3.636 0 0 1 1.69-3.052 3.676 3.676 0 0 0-3.11-1.587c-1.19 0-2.16.733-2.77.733-.66 0-1.53-.692-2.56-.692-1.96 0-3.95 1.648-3.95 4.76a9.952 9.952 0 0 0 1.65 5.3c.78 1.123 1.46 2.038 2.44 2.038z" transform="translate(-111 -511) translate(160.1 495)"/>
    </g>
</svg>
