<svg xmlns="http://www.w3.org/2000/svg" width="162" height="104" viewBox="0 0 162 104">
    <defs>
        <clipPath id="clip-path">
            <path id="사각형_1459" d="M0 0H3.579V3.685H0z" class="cls-1"/>
        </clipPath>
        <clipPath id="clip-path-2">
            <path id="사각형_1460" d="M0 0H3.582V3.682H0z" class="cls-1"/>
        </clipPath>
        <style>
            .cls-1{fill:#ffc8b4}.cls-2{fill:#fec379}.cls-3{fill:#faefea}.cls-4{fill:#d85e4f}.cls-5{fill:#bc685d}.cls-6{fill:#8786a7}.cls-7{fill:#fff}.cls-8{fill:#aab6d1}.cls-9{fill:#4c4c4c}.cls-10{fill:#6d6d6d}.cls-11{fill:#ffd6c7}.cls-12{fill:#eabbaa}.cls-13{fill:#b88473}.cls-14{fill:#a87463}.cls-15{fill:#2e2546}.cls-16{fill:#a87263}.cls-18{fill:#9a9d9e}.cls-22{fill:#aee3f3}
        </style>
    </defs>
    <g id="그룹_3073" transform="translate(4.463 11.27)">
        <g id="그룹_3075" transform="translate(111.64 23.33)">
            <path id="패스_4975" d="M-1327.946 1148.031h-31.39a3.7 3.7 0 0 1-3.7-3.7v-21.071a3.7 3.7 0 0 1 3.7-3.7h31.39a3.7 3.7 0 0 1 3.7 3.7v21.071a3.7 3.7 0 0 1-3.7 3.7" class="cls-2" transform="translate(1370.142 -1119.558)"/>
            <path id="패스_4976" d="M-1117.552 1259.759v7.434h-10.657z" class="cls-2" transform="translate(1128.209 -1242.719)"/>
            <path id="패스_5019" d="M-1212.595 1189.638a2.649 2.649 0 0 1-2.915 2.353 2.649 2.649 0 0 1-2.353-2.915 2.649 2.649 0 0 1 2.915-2.353 2.649 2.649 0 0 1 2.353 2.915" class="cls-3" transform="translate(1236.693 -1177.631)"/>
            <path id="패스_5020" d="M-1286.895 1240.175a1.965 1.965 0 0 1-1.671-2.527l2.089-6.842 3.979.424-2.31 7.565a1.964 1.964 0 0 1-2.087 1.38" class="cls-4" transform="translate(1317.232 -1215.111)"/>
            <path id="패스_5021" d="M-1284.318 1157.231l-6.876-4.119-1.64 15.382 7.59-2.577a15.2 15.2 0 0 1 6.5-.721l.628-5.888a15.2 15.2 0 0 1-6.2-2.076" class="cls-3" transform="translate(1313.479 -1149.077)"/>
            <path id="패스_5022" d="M-1316.537 1200.54l-2.406-.256.628-5.888 2.406.257a1.691 1.691 0 0 1 1.5 1.861l-.269 2.525a1.691 1.691 0 0 1-1.86 1.5" class="cls-4" transform="translate(1353.677 -1184.164)"/>
            <path id="패스_5023" d="M-1211.531 1166.347a1.09 1.09 0 0 0 1.2-.969l1.506-14.119a1.09 1.09 0 0 0-.968-1.2 1.09 1.09 0 0 0-1.2.968l-1.506 14.119a1.09 1.09 0 0 0 .968 1.2" class="cls-4" transform="translate(1232.126 -1146.477)"/>
            <path id="패스_5024" d="M-1165.591 1196.676l-2.446-.261a.525.525 0 0 1-.467-.578.525.525 0 0 1 .578-.467l2.446.261a.525.525 0 0 1 .467.578.525.525 0 0 1-.578.467" class="cls-5" transform="translate(1181.715 -1184.992)"/>
            <path id="패스_5025" d="M-1174.142 1220.4a.525.525 0 0 1-.452-.386.525.525 0 0 1 .371-.643l2.205-.592a.525.525 0 0 1 .643.371.525.525 0 0 1-.371.644l-2.206.592a.524.524 0 0 1-.192.015" class="cls-5" transform="translate(1188.976 -1204.873)"/>
            <path id="패스_5026" d="M-1176.541 1172.359a.524.524 0 0 1-.184-.055l-2.031-1.044a.525.525 0 0 1-.227-.707.525.525 0 0 1 .707-.227l2.031 1.044a.525.525 0 0 1 .227.707.525.525 0 0 1-.523.282" class="cls-5" transform="translate(1194.245 -1163.658)"/>
        </g>
        <g id="그룹_3074" transform="translate(-4.463 -1.05)">
            <path id="패스_4980" d="M-571.182 988.83h33.392a3.937 3.937 0 0 1 3.937 3.937v27.171a3.937 3.937 0 0 1-3.937 3.937h-33.392a3.937 3.937 0 0 1-3.937-3.937v-27.171a3.937 3.937 0 0 1 3.937-3.937" class="cls-6" transform="translate(575.119 -988.83)"/>
            <path id="패스_4981" d="M-622.461 1132.915v-7.908l11.336 3.954z" class="cls-6" transform="translate(659.947 -1103.268)"/>
            <path id="패스_5027" d="M-492.626 1048.017l-16.426 9.453a3.138 3.138 0 0 1-4.284-1.154l-4.9-8.52a3.137 3.137 0 0 1 1.155-4.284l16.426-9.453a3.137 3.137 0 0 1 4.284 1.155l4.9 8.52a3.138 3.138 0 0 1-1.155 4.284" class="cls-7" transform="translate(525.304 -1028.242)"/>
            <path id="패스_5028" d="M-428.132 1114.929a.161.161 0 0 1-.056-.01.16.16 0 0 1-.094-.205l2.677-7.217a.16.16 0 0 1 .205-.094.159.159 0 0 1 .094.205l-2.677 7.217a.159.159 0 0 1-.149.104z" class="cls-8" transform="translate(443.123 -1088.466)"/>
            <path id="패스_5029" d="M-502.7 1089.09h-.028l-7.585-1.312a.16.16 0 0 1-.13-.184.16.16 0 0 1 .185-.13l7.585 1.312a.16.16 0 0 1 .13.185.16.16 0 0 1-.157.129z" class="cls-8" transform="translate(533.486 -1071.714)"/>
            <path id="패스_5030" d="M-468.961 1053.518a1.78 1.78 0 0 1-.306-.026l-10.333-1.792a.16.16 0 0 1-.13-.185.16.16 0 0 1 .185-.13l10.334 1.788a1.474 1.474 0 0 0 1.634-.941l3.647-9.833a.16.16 0 0 1 .205-.094.16.16 0 0 1 .094.205l-3.647 9.833a1.8 1.8 0 0 1-1.683 1.175z" class="cls-8" transform="translate(489.661 -1033.765)"/>
        </g>
        <g id="그룹_3076" transform="translate(39.387 7.58)">
            <path id="패스_4970" d="M-941.795 1103.82a5.225 5.225 0 0 1-5.225 5.225 5.225 5.225 0 0 1-5.225-5.225 5.224 5.224 0 0 1 5.225-5.224 5.225 5.225 0 0 1 5.225 5.224" class="cls-9" transform="translate(995.946 -1083.78)"/>
            <path id="패스_4971" d="M-923.762 1109.322a.216.216 0 0 1-.191-.116.216.216 0 0 1 .092-.291c.03-.016 2.967-1.572 3.1-3.988a.217.217 0 0 1 .227-.2.216.216 0 0 1 .2.227c-.151 2.662-3.206 4.278-3.336 4.346a.216.216 0 0 1-.092.022z" class="cls-10" transform="translate(970.592 -1089.065)"/>
            <path id="패스_4972" d="M-939.739 1120.811a.215.215 0 0 1-.214-.216.215.215 0 0 1 .216-.215c.236 0 4.753-.06 5.443-4.423a.217.217 0 0 1 .246-.179.216.216 0 0 1 .179.247c-.747 4.74-5.792 4.786-5.87 4.786z" class="cls-10" transform="translate(986.325 -1098.598)"/>
            <path id="패스_4973" d="M-928.644 1150.389c-1.687 0-3.047-1.946-3.107-2.034a.215.215 0 0 1 .055-.3.215.215 0 0 1 .3.055c.014.021 1.433 2.048 2.993 1.83a.215.215 0 0 1 .243.183.215.215 0 0 1-.183.243 2.163 2.163 0 0 1-.301.023z" class="cls-10" transform="translate(979.497 -1126.41)"/>
            <path id="패스_4974" d="M-942.757 1142.7a4.091 4.091 0 0 1-2.444-.75.215.215 0 0 1-.033-.3.215.215 0 0 1 .3-.033 3.865 3.865 0 0 0 2.764.615.216.216 0 0 1 .242.185.216.216 0 0 1-.185.242 4.83 4.83 0 0 1-.644.041z" class="cls-10" transform="translate(995.116 -1120.848)"/>
            <path id="패스_4977" d="M-793.925 1416.518l13.737-.549c-1.906 3.859-3.268 7.283-4.47 9.576-3.752 7.159-7.582 17.14-7.582 17.14l-8.854-3.447s6.543-20.561 7.169-22.72" class="cls-11" transform="translate(813.566 -1357.535)"/>
            <path id="패스_4978" d="M-860.516 1261.411c7.318-7.508 15.3-.286 14.067 7.023-.544 3.219-6.382 11.537-11.87 18.833l-11.134-6.806c4.209-8.32 8.937-19.051 8.937-19.051" class="cls-12" transform="translate(889.094 -1221.479)"/>
            <path id="패스_4979" d="M-794.369 1395.346l.094 2.465a5.557 5.557 0 0 1-.777 3.609c-1.063 1.3-6.69 1.5-6.69 1.5l-3.407-5.745z" class="cls-12" transform="translate(828.175 -1339.746)"/>
            <path id="패스_4982" d="M-982.563 1250.759l-35.219-.015s-1.319-19.623.715-31.134c1.286-7.275 3.546-12.2 7.6-14.837a16.218 16.218 0 0 1 9.074-2.3 37.4 37.4 0 0 1 5.558.4c7.891 1.191 14.358 5.142 14.456 13.169.118 9.856-1.452 24.081-2.184 34.719" class="cls-13" transform="translate(1043.588 -1173.381)"/>
            <path id="패스_4983" d="M-803.729 1209.6s-5.09.246-9.525 5.3c-4.739 5.4-11.2 31.172-12.761 37.594a1.837 1.837 0 0 0 1.036 2.112c2.115.942 6.228 2.511 9.281 2.03a1.875 1.875 0 0 0 1.468-1.24l10.5-30.031z" class="cls-13" transform="translate(840.538 -1179.527)"/>
            <path id="패스_4984" d="M-887.218 1373.823l-1.916 1.876s-1.654 1.92-3.474 2.01-6.1-4.289-6.1-4.289l2.138-6.939z" class="cls-12" transform="translate(934.011 -1314.848)"/>
            <path id="패스_4985" d="M-747.436 1419.422a.215.215 0 0 1-.215-.2c-.5-8.364-.418-15.4-.265-19.823a.211.211 0 0 1 .223-.208.215.215 0 0 1 .208.223c-.153 4.417-.232 11.434.264 19.782a.215.215 0 0 1-.2.228z" class="cls-14" transform="translate(773.305 -1343.06)"/>
            <path id="패스_4986" d="M-744.228 1155.461h6.936a1.556 1.556 0 0 1 1.543 1.352l2.163 16.33h-9.427l-2.194-16.565a.987.987 0 0 1 .979-1.117" class="cls-15" transform="translate(759.285 -1132.829)"/>
            <path id="패스_4987" d="M-752.006 1225.985a11.019 11.019 0 0 0-.353-4.986 4.737 4.737 0 0 0-2.153-2.2l.185 1.257s.124.955.261 1.987a.332.332 0 0 1-.584.28 4 4 0 0 0-.42-.466s-3.593-6.822-4.111-7.369-1.308-.091-1.308-.091a.783.783 0 0 0-.913-.426.774.774 0 0 0-.648.821.651.651 0 0 0-.57.365c-1.279 1.46 1.167 8.33 1.167 8.33a14.456 14.456 0 0 1-.993-1.857 8.541 8.541 0 0 1-.556-1.7c-.235-.917-1.172-.413-1.133.465a30.162 30.162 0 0 0 1.2 4.859 22.959 22.959 0 0 0 2.007 3.619 22.538 22.538 0 0 0 3.54 3.344l5.547-2.453.577-.412a9.042 9.042 0 0 1-.746-3.372" class="cls-11" transform="translate(779.559 -1183.284)"/>
            <path id="패스_4988" d="M-698.818 1228.037a.215.215 0 0 1-.195-.123 37.416 37.416 0 0 1-1.869-6.765.216.216 0 0 1 .173-.251.216.216 0 0 1 .251.173 37.875 37.875 0 0 0 1.834 6.659.215.215 0 0 1-.1.287.216.216 0 0 1-.094.02z" class="cls-16" transform="translate(718.209 -1189.271)"/>
            <path id="패스_4989" d="M-712.074 1225.158a.215.215 0 0 1-.189-.112 50.641 50.641 0 0 1-2.267-6.367.215.215 0 0 1 .146-.267.215.215 0 0 1 .267.146 51.7 51.7 0 0 0 2.232 6.282.215.215 0 0 1-.085.292.213.213 0 0 1-.104.026z" class="cls-16" transform="translate(733.341 -1187.12)"/>
            <path id="패스_4990" d="M-884.932 1318.607c1.312 1.416 2.928 3.045 4.678 4.751l-4.739 4.671a6.149 6.149 0 0 1-8.924-.3 56.946 56.946 0 0 1-4.141-5.224c-4.945-7.262-8.88-12.489-8.88-12.489l5.606-4.812s9.647 6.119 16.4 13.405" class="cls-11" transform="translate(928.178 -1261.991)"/>
            <path id="패스_4991" d="M-996.535 1253.551s10.563-11.289 13.993-15.2 5.862-8.685 2.988-13.734a10.438 10.438 0 0 0-8.37-5.134c-3.617.067-6.515 4.388-6.515 4.388l-9.52 14.014s-4.2-4.08-5.263-3.962l-1.059.118s-1.48 4.553-3.108 5.913a21.569 21.569 0 0 1-2.4 1.817 3.491 3.491 0 0 0 .312 2.2c.569.959 7.259 9.866 7.259 9.866s2.779 3.025 5.677 2.789a9.52 9.52 0 0 0 6.005-3.077" class="cls-13" transform="translate(1041.174 -1188.051)"/>
            <path id="패스_4992" d="M-844.083 1330.972a.215.215 0 0 1-.168-.08 15.067 15.067 0 0 0-3.141-3.029.2.2 0 0 1-.039-.032c-1.426-1.472-3.964-3.809-4.7-3.813-1.069-.007-1.438.033-1.442.033a.216.216 0 0 1-.238-.19.216.216 0 0 1 .19-.238c.015 0 .386-.042 1.491-.036 1.147.006 4.529 3.449 4.992 3.927a15.472 15.472 0 0 1 3.223 3.107.215.215 0 0 1-.033.3.215.215 0 0 1-.135.051z" class="cls-14" transform="translate(884.491 -1277.849)"/>
            <path id="패스_4993" d="M-904.576 1260.971a.217.217 0 0 1-.1-.025.215.215 0 0 1-.089-.291c.043-.08 4.306-8.072 6.736-11.46 2.408-3.356 2.687-3.769 2.7-3.785a.216.216 0 0 1 .3-.059.215.215 0 0 1 .059.3c-.01.015-.281.416-2.705 3.8s-6.663 11.331-6.706 11.411a.215.215 0 0 1-.195.109z" class="cls-14" transform="translate(942.567 -1210.334)"/>
            <path id="패스_4994" d="M-972.38 1386.157c-2.82 0-5.114-2.325-5.219-2.433l-.017-.02c-.062-.082-6.193-8.18-7.157-9.514a5.077 5.077 0 0 1-.878-3.118.217.217 0 0 1 .232-.2.216.216 0 0 1 .2.233 4.721 4.721 0 0 0 .8 2.83c.945 1.307 6.878 9.145 7.143 9.5.17.17 2.756 2.692 5.615 2.238 2.991-.475 5.551-1.972 10.5-8.505 4.306-5.679 7.225-8.2 8.928-7.7a.215.215 0 0 1 .146.267.214.214 0 0 1-.267.146c-1.024-.3-3.323.764-8.463 7.544-5.041 6.649-7.678 8.177-10.779 8.67a4.974 4.974 0 0 1-.784.062z" class="cls-14" transform="translate(1010.822 -1317.371)"/>
            <path id="패스_4995" d="M-900.2 1126.157a31.077 31.077 0 0 1-.368-3.919 35.658 35.658 0 0 1 .264-6.65l-8.959 4.846-1.706.923a20.341 20.341 0 0 1 1.311 4.823 10.88 10.88 0 0 1 .157 1.8 24.516 24.516 0 0 0-3.478 1.3c1.025.958 3.124 2.747 4.916 2.758 4.98.035 7.9-.909 10.153-4.1a3.927 3.927 0 0 1-2.291-1.77" class="cls-11" transform="translate(946.659 -1098.437)"/>
            <path id="패스_4996" fill="#e8bbab" d="M-867.417 1151.49a12.061 12.061 0 0 1-6.57 5.107 20.344 20.344 0 0 0-1.312-4.824l1.706-.923z" transform="translate(910.993 -1128.853)"/>
            <path id="패스_4997" d="M-892.114 1001.647a11.518 11.518 0 0 1-10.285 12.635 11.543 11.543 0 0 1-12.2-10.824 11.518 11.518 0 0 1 10.285-12.635 11.543 11.543 0 0 1 12.2 10.824" class="cls-9" transform="translate(941.055 -990.788)"/>
            <path id="패스_4998" d="M-821.837 1024.7a7.541 7.541 0 0 1-6.734 8.273 7.558 7.558 0 0 1-7.986-7.087 7.541 7.541 0 0 1 6.734-8.273 7.558 7.558 0 0 1 7.986 7.087" class="cls-9" transform="translate(860.065 -1013.904)"/>
            <path id="패스_4999" d="M-882.419 1017.274c.531 6.43-3.533 12-9.077 12.439s-10.467-4.417-11-10.846 3.534-12 9.077-12.438 10.467 4.416 11 10.846" class="cls-11" transform="translate(929.693 -1004.255)"/>
            <path id="패스_5000" d="M-810.5 1104.913a1.1 1.1 0 0 1-.469-.1.9.9 0 0 1-.5-.573.9.9 0 0 1 .129-.75 1.145 1.145 0 0 1 .649-.461.215.215 0 0 1 .266.149.215.215 0 0 1-.149.266.714.714 0 0 0-.406.285.477.477 0 0 0-.073.395.477.477 0 0 0 .268.3.715.715 0 0 0 .495.033.215.215 0 0 1 .266.149.216.216 0 0 1-.149.266 1.21 1.21 0 0 1-.327.041z" class="cls-16" transform="translate(844.825 -1087.594)"/>
            <path id="패스_5001" d="M-822.58 1069.421a.563.563 0 0 1-.475-.259.563.563 0 0 1 .17-.778 2.04 2.04 0 0 1 1.166-.268.564.564 0 0 1 .528.6.566.566 0 0 1-.6.528.989.989 0 0 0-.49.091.56.56 0 0 1-.3.089" class="cls-18" transform="translate(857.598 -1057.484)"/>
            <path id="패스_5002" d="M-783.423 1079.985a.565.565 0 0 1-.388-.155.568.568 0 0 1-.02-.8 2.043 2.043 0 0 1 1.064-.545.564.564 0 0 1 .659.449.564.564 0 0 1-.449.659.945.945 0 0 0-.461.218.553.553 0 0 1-.4.175" class="cls-18" transform="translate(813.124 -1066.424)"/>
            <g id="그룹_3070" transform="translate(36.263 12.706)">
                <g id="그룹_3069" clip-path="url(#clip-path)">
                    <path id="패스_5003" d="M-844.6 1084.7a1.816 1.816 0 0 1-1.355 2.181 1.816 1.816 0 0 1-2.137-1.425 1.816 1.816 0 0 1 1.355-2.181 1.816 1.816 0 0 1 2.136 1.425" class="cls-1" transform="translate(848.13 -1083.234)"/>
                </g>
            </g>
            <g id="그룹_3072" transform="translate(28.491 15.192)">
                <g id="그룹_3071" clip-path="url(#clip-path-2)">
                    <path id="패스_5004" d="M-788.093 1102.687a1.816 1.816 0 0 1-1.223 2.258 1.816 1.816 0 0 1-2.217-1.3 1.816 1.816 0 0 1 1.223-2.258 1.816 1.816 0 0 1 2.217 1.295" class="cls-1" transform="translate(791.604 -1101.328)"/>
                </g>
            </g>
            <path id="패스_5005" d="M-789.419 1096.782a.756.756 0 0 1-.42.97.756.756 0 0 1-.862-.611.755.755 0 0 1 .419-.97.755.755 0 0 1 .862.611" class="cls-15" transform="translate(821.337 -1081.67)"/>
            <path id="패스_5006" d="M-788.192 1097.656a1.634 1.634 0 0 1 1.309-1.358l.549.54a3.674 3.674 0 0 0-1.859.818" class="cls-15" transform="translate(817.938 -1081.797)"/>
            <path id="패스_5007" d="M-825.73 1085.008a.755.755 0 0 0 .824.661.755.755 0 0 0 .477-.943.756.756 0 0 0-.824-.661.756.756 0 0 0-.477.943" class="cls-15" transform="translate(861.173 -1071.234)"/>
            <path id="패스_5008" d="M-830.6 1084.211a1.634 1.634 0 0 0-1.792-.588l-.233.734a3.675 3.675 0 0 1 2.026-.146" class="cls-15" transform="translate(868.314 -1070.792)"/>
            <path id="패스_5009" d="M-787.914 1097.768a1.634 1.634 0 0 1 1.309-1.358l.55.54a3.676 3.676 0 0 0-1.859.818" class="cls-15" transform="translate(817.622 -1081.894)"/>
            <path id="패스_5010" d="M-908.576 1001.714a4.443 4.443 0 0 0-1.745 3.969 3.85 3.85 0 0 0 2.3 2.706 6.8 6.8 0 0 0 3.633.377c1.056-.143 2.2-.5 3.153-.023 5.622 2.806 2.16 8.4 8.044 8.976 1.457.143 1.479-5.165 1.652-6.618a8 8 0 0 0-.95-4.229 13.847 13.847 0 0 0-3.391-4.792 8.081 8.081 0 0 0-3.074-1.668 19.767 19.767 0 0 0-3.039-.208c-2.4-.3-4.649-.142-6.587 1.511" class="cls-9" transform="translate(939.897 -998.802)"/>
            <path id="패스_5011" d="M-887.94 1022.854a.221.221 0 0 1-.052-.006 3.944 3.944 0 0 1-1.648-.855 7.586 7.586 0 0 1-1.629-2.414 8.621 8.621 0 0 0-1.275-2.045 6.144 6.144 0 0 0-3.3-1.656c-.688-.146-1.4-.233-2.094-.317-.572-.07-1.164-.142-1.744-.247a7.188 7.188 0 0 1-3.627-1.574 3.711 3.711 0 0 1-1.213-3.719 3.532 3.532 0 0 1 .446-.915.215.215 0 0 1 .3-.061.215.215 0 0 1 .061.3 3.109 3.109 0 0 0-.393.8 3.3 3.3 0 0 0 1.09 3.271 6.78 6.78 0 0 0 3.416 1.471c.567.1 1.153.174 1.719.244.7.085 1.425.173 2.131.323a6.557 6.557 0 0 1 3.53 1.784 8.939 8.939 0 0 1 1.345 2.145 7.158 7.158 0 0 0 1.529 2.284 3.51 3.51 0 0 0 1.467.761.216.216 0 0 1 .157.261.215.215 0 0 1-.216.165z" class="cls-10" transform="translate(935.335 -1006.503)"/>
            <path id="패스_5012" d="M-873.163 1012.364a.216.216 0 0 1-.214-.2c-.184-1.959-2.885-3.664-7.413-4.677-4.623-1.034-4.146-4.915-4.14-4.954a.215.215 0 0 1 .242-.184.216.216 0 0 1 .184.242c-.019.144-.421 3.529 3.807 4.475 4.792 1.072 7.543 2.868 7.748 5.057a.216.216 0 0 1-.194.235z" class="cls-10" transform="translate(917.849 -1000.763)"/>
            <path id="패스_5013" d="M-895.492 1069.427a1.348 1.348 0 0 1 1.244-1.695c.5-.005 1.073.275 1.625 1.187 1.473 2.432-1.256 4.213-1.927 4.246z" class="cls-11" transform="translate(938.55 -1057.157)"/>
            <path id="패스_5014" d="M-885.709 1079.742a.215.215 0 0 1-.145-.056.216.216 0 0 1-.014-.3l1.4-1.537a.216.216 0 0 1 .3-.014.216.216 0 0 1 .014.3l-1.4 1.537a.215.215 0 0 1-.155.07z" class="cls-16" transform="translate(929.128 -1065.819)"/>
            <path id="패스_5015" d="M-886 1087.278h-.025l-1.342-.154a.216.216 0 0 1-.19-.239.216.216 0 0 1 .239-.189l1.342.153a.216.216 0 0 1 .19.239.216.216 0 0 1-.214.19z" class="cls-16" transform="translate(931.05 -1073.513)"/>
            <path id="패스_5016" d="M-895.475 1008.5a.216.216 0 0 1-.216-.213c0-.055-.11-5.484-5.015-7.533-5.15-2.151-5.8-5.631-5.825-5.778a.215.215 0 0 1 .176-.249.215.215 0 0 1 .248.176c.006.036.651 3.4 5.567 5.454 5.172 2.16 5.28 7.869 5.28 7.926a.215.215 0 0 1-.213.217z" class="cls-10" transform="translate(943.128 -994.183)"/>
            <path id="패스_5017" d="M-892.285 1007.063a.215.215 0 0 1-.107-.029 19.274 19.274 0 0 1-4.667-4.337.215.215 0 0 1 .041-.3.215.215 0 0 1 .3.04 19.222 19.222 0 0 0 4.539 4.225.215.215 0 0 1 .079.294.215.215 0 0 1-.185.107z" class="cls-10" transform="translate(938.643 -1000.762)"/>
            <path id="패스_5018" d="M-764.132 1040.326a.215.215 0 0 1-.184-.1c-.04-.065-3.943-6.57 1.516-10.913a.216.216 0 0 1 .3.035.215.215 0 0 1-.034.3c-5.158 4.1-1.572 10.1-1.417 10.35a.216.216 0 0 1-.071.3.214.214 0 0 1-.11.028z" class="cls-10" transform="translate(790.964 -1023.975)"/>
            <path id="패스_5031" d="M-825.078 1126.974a.215.215 0 0 1-.213-.188.216.216 0 0 1 .186-.241 2.186 2.186 0 0 0 1.644-1.144.215.215 0 0 1 .279-.122.215.215 0 0 1 .122.279 2.579 2.579 0 0 1-1.991 1.414z" class="cls-16" transform="translate(859.748 -1106.783)"/>
            <path id="패스_5032" fill="#303340" d="M-996.43 1538.848s4.346-1.676 15.467-2.656a5.928 5.928 0 0 0 4.313-2.059l17.2-.109 13.706-.651s3.379 5.476 2.48 10.581h-61.172a23.387 23.387 0 0 1 8.006-5.106z" transform="translate(1004.436 -1458.803)"/>
        </g>
        <path id="패스_4879" d="M-1279.79 785.942h-24.3a2.365 2.365 0 0 0-2.365 2.365V807.2a2.365 2.365 0 0 0 2.365 2.365h24.3a2.365 2.365 0 0 0 2.365-2.365v-18.893a2.365 2.365 0 0 0-2.365-2.365" class="cls-22" transform="translate(1407.603 -797.212)"/>
        <path id="패스_4880" d="M-1023.52 832.8v-7.4l-7.974 8.058z" class="cls-22" transform="translate(1127.379 -824.972)"/>
        <g id="그룹_3078" transform="translate(110.262 -6.905)">
            <path id="패스_5033" d="M885.639 591.992a4.9 4.9 0 0 1-.736-2.6 4.965 4.965 0 1 1 9.2 2.6c-.515.879-2.1 2.791-2.1 3.99h-4.278c0-1.2-1.571-3.108-2.086-3.988z" class="cls-7" transform="translate(-884.903 -584.426)"/>
            <path id="패스_5034" fill="#fd0" d="M907.383 676.439l.094 1.439a2.044 2.044 0 1 0 4.086 0l.095-1.439z" transform="translate(-904.56 -664.885)"/>
            <path id="사각형_1461" d="M0 0H4.151V0.528H0z" class="cls-7" transform="translate(2.885 12.752)"/>
            <g id="그룹_3077" transform="translate(4.251 2.787)">
                <path id="패스_5035" d="M919.465 649.477a.717.717 0 1 0 .719.722.708.708 0 0 0-.719-.722z" class="cls-22" transform="translate(-918.755 -644.096)"/>
                <path id="패스_5036" d="M919.09 611.206a.364.364 0 0 0 .04.2.131.131 0 0 0 .125.069h.683c.157 0 .189-.029.2-.043a.158.158 0 0 0 .047-.088.1.1 0 0 0 0-.03l.13-4.332c.006-.16.009-.241-.049-.3a.278.278 0 0 0-.216-.056h-.821a.288.288 0 0 0-.223.058c-.062.063-.058.157-.053.3z" class="cls-22" transform="translate(-918.932 -606.623)"/>
            </g>
        </g>
    </g>
</svg>
