<svg xmlns="http://www.w3.org/2000/svg" width="360" height="198">
    <defs>
        <clipPath id="clip-path">
            <path id="사각형_3098" data-name="사각형 3098" transform="translate(0 60)" style="fill:#fff4f1" d="M0 0h360v198H0z"/>
        </clipPath>
        <clipPath id="clip-path-2">
            <path id="사각형_3094" data-name="사각형 3094" transform="translate(-.09)" style="fill:#fffcec" d="M0 0h168v125H0z"/>
        </clipPath>
        <style>
            .cls-15{fill:none}.cls-8{fill:#ffd1bb}.cls-11{fill:#ffdccc}.cls-13{fill:#f4a6a6}.cls-14{fill:#f2b095}.cls-15{stroke:#001240;stroke-miterlimit:10;stroke-width:.25px}.cls-18{fill:#fff}.cls-19{fill:#d4dee7}.cls-22{fill:#fc6}
        </style>
    </defs>
    <g id="img_com" transform="translate(0 -60)" style="clip-path:url(#clip-path)">
        <path id="패스_21795" data-name="패스 21795" d="M0 0h360v207H0z" transform="translate(-7 38)" style="fill:none"/>
        <g id="마스크_그룹_95" data-name="마스크 그룹 95" transform="translate(192.09 133)" style="clip-path:url(#clip-path-2)">
            <path id="패스_21796" data-name="패스 21796" d="M77.867 0A77.867 77.867 0 1 1 0 77.867 77.867 77.867 0 0 1 77.867 0z" transform="translate(18.444 15.533)" style="fill:#fef3b8"/>
        </g>
        <g id="그룹_7913" data-name="그룹 7913" transform="translate(-208.391 90.879)">
            <g id="그룹_7909" data-name="그룹 7909">
                <path id="패스_21797" data-name="패스 21797" d="M559.187 102.636c-6.215-14.427-22.4-7.975-30.055-13.972-5.44-4.264-6-10.754-12.409-14.683-8.756-5.367-20.525 1.933-18.405 11.581a28.4 28.4 0 0 0 2.46 6.62c-2.5 4.545-3.863 12.954 1.591 17.5-1.249 12.235 12.042 19.647 33.182 21.591 19.773 1.818 29.427-15.194 23.636-28.637z" style="fill:#422d2d"/>
                <g id="그룹_7905" data-name="그룹 7905">
                    <path id="패스_21798" data-name="패스 21798" class="cls-8" d="M475.67 138.411s-2.562-7.044-5.124-13.662c-2.988 1.067-4.91 1.86-4.91 1.86a296.07 296.07 0 0 1-8.752-28.544 59.174 59.174 0 0 0-1.921-13.665c-.857-3.212-1.747-5.414-2.564-5.007-.727.362.292 6.945.292 6.945-1.18-.743-1.882-.556-2.068.751-.789-.541-1.329-.4-1.633.813-1.2-1.172-1.926.341-1.285 3.756a19.585 19.585 0 0 0 2.775 7.472s1.286 19.72 3.629 29.886c1.646 7.142 3.872 13.663 8.539 13.663 2.561.002 9.606-2.56 13.022-4.268z"/>
                    <path id="패스_21799" data-name="패스 21799" d="M455.34 90.593a19.428 19.428 0 0 0-.955-1.868 7.626 7.626 0 0 0-.585-.865c-.214-.253-.472-.562-.785-.563-.322.071-.317.527-.317.846a8.472 8.472 0 0 0 .108 1.039c.113.69.267 1.374.447 2.051l-.049.013a8.67 8.67 0 0 1-.781-2 5.224 5.224 0 0 1-.18-1.091 2.83 2.83 0 0 1 .027-.626.874.874 0 0 1 .672-.727.9.9 0 0 1 .5.1 1.083 1.083 0 0 1 .306.215 2.756 2.756 0 0 1 .406.457 4.954 4.954 0 0 1 .564.953 8.261 8.261 0 0 1 .665 2.044z" style="fill:#ffceb9"/>
                    <path id="패스_21800" data-name="패스 21800" d="M504.275 107.609c-7.258 1.281-20.493 7.685-36.542 16.011 0 0 2.48 6.356 6.869 17.676l14.3-5.118s1.254 23.451.427 30.943h49.033l3.055-20.446 4.269-.854a109.92 109.92 0 0 0-12.381-25.4c-8.172-12.153-17.932-11.741-17.932-11.741z" style="fill:#ff948e"/>
                    <path id="패스_21801" data-name="패스 21801" class="cls-8" d="m541.42 146.462-13.876 2.138s.865 4.564 1.708 7.9c-15.371-.214-28.747 3.528-34.37 2.562-13.662-2.349-20.557 1.442-20.69 2.007s.316.806 1.907.215a11.763 11.763 0 0 1 2.505-.692s-3.09.992-3.586 2.214c-1.106 2.716.287 3.351 1.813.7.689-1.2 2.89-1.5 3.569-1.6 0 0-2.833 1.413-3.306 2.657-.653 1.718.878 1.47 1.931.366a17.109 17.109 0 0 1 2.217-1.5s-1.677 1.225-1.948 2.265.533 1.1 2-.3c.684-.657 1.352-.343 2.32-.653a10.435 10.435 0 0 1 5.073.6 14.67 14.67 0 0 0 6.066 1.254c2.851.046 20.124.48 41.757.48 6.475-.013 8.752-1.828 4.91-20.613z"/>
                </g>
                <g id="그룹_7906" data-name="그룹 7906">
                    <path id="패스_21802" data-name="패스 21802" class="cls-11" d="m504.093 98.626-.018.512-.707 8.911c2.03 5.265 11.1 4.946 13.1.572l.11-18.543z"/>
                    <path id="패스_21803" data-name="패스 21803" d="M511.989 97.359s-3.042 5.313-8.272 5.558l.293-3.783z" style="fill:#efb8a1"/>
                    <path id="패스_21804" data-name="패스 21804" class="cls-11" d="M516.323 86.531a9.741 9.741 0 0 1-7.958-7.946 12.935 12.935 0 0 1-8.865 4.3c-.936 4.995-.688 11.225 1.58 14.172 3.781 4.912 12.968 3.291 14.975-6.135 0 0 2.025 1.015 3.053-1.573.653-1.649-.716-4.03-2.785-2.818z"/>
                </g>
                <g id="그룹_7907" data-name="그룹 7907">
                    <path id="패스_21805" data-name="패스 21805" class="cls-13" d="M499.315 89.754a2.025 2.025 0 0 0-.279.059c.039.658.034 1.3.123 1.907a3.007 3.007 0 0 0 .361-.026c1.039-.109 1.836-.632 1.779-1.168s-.944-.881-1.984-.772z"/>
                    <path id="패스_21806" data-name="패스 21806" class="cls-13" d="M512.156 90.767c.045.537-.763 1.043-1.8 1.13s-1.922-.277-1.967-.814.763-1.042 1.8-1.13 1.922.278 1.967.814z"/>
                    <path id="패스_21807" data-name="패스 21807" d="M502.1 88.151a.622.622 0 1 1-.683-.553.621.621 0 0 1 .683.553z"/>
                    <path id="패스_21808" data-name="패스 21808" d="M508.814 88.3a.622.622 0 1 1-.683-.553.622.622 0 0 1 .683.553z"/>
                    <path id="패스_21809" data-name="패스 21809" class="cls-14" d="M503.414 92.889a1.322 1.322 0 0 0 .571 1.162 2.361 2.361 0 0 0 1.264.424 2.223 2.223 0 0 0 1.273-.475 1.27 1.27 0 0 0 .455-1.226l-.068-.026a1.7 1.7 0 0 1-1.667 1 1.94 1.94 0 0 1-1.763-.886z"/>
                    <path id="패스_21810" data-name="패스 21810" class="cls-14" d="M504.066 88.581a6.225 6.225 0 0 1-.8 2.288l-.028.053.045.032 1.317.937.043-.059a2.814 2.814 0 0 0-.42-.791 2.72 2.72 0 0 0-.546-.622l.154.8a2.917 2.917 0 0 0 .365-.592c.072-.215.133-.432.185-.653a2.253 2.253 0 0 0 .006-.7 1.655 1.655 0 0 0-.25-.691z"/>
                </g>
                <g id="그룹_7908" data-name="그룹 7908">
                    <path id="패스_21811" data-name="패스 21811" class="cls-15" d="M504.035 87.734a2.963 2.963 0 1 1-3.3-2.582 2.963 2.963 0 0 1 3.3 2.582z"/>
                    <circle id="타원_789" data-name="타원 789" class="cls-15" cx="2.963" cy="2.963" r="2.963" transform="translate(505.918 85.29)"/>
                    <path id="선_812" data-name="선 812" class="cls-15" transform="translate(503.749 86.73)" d="m0 0 2.595.113"/>
                </g>
            </g>
            <g id="그룹_7910" data-name="그룹 7910">
                <path id="패스_21812" data-name="패스 21812" d="M489.058 167.121h-63.877l-.881-4h64.758a2 2 0 0 1 2 2 2 2 0 0 1-2 2z" style="fill:#b07461"/>
                <path id="패스_21813" data-name="패스 21813" d="M473.386 167.121H425.83a3.526 3.526 0 0 1-3.314-2.323l-9.676-26.667c-.934-1.99-.335-3.377 1.109-3.828h45.621a3.6 3.6 0 0 1 2.44 1.846z" style="fill:#bd8471"/>
                <path id="패스_21814" data-name="패스 21814" class="cls-18" d="M442.22 149.273a2.414 2.414 0 1 1-2.9-2 2.495 2.495 0 0 1 2.9 2z"/>
            </g>
            <g id="그룹_7912" data-name="그룹 7912" transform="translate(-4 -4)">
                <path id="패스_21815" data-name="패스 21815" class="cls-18" d="M521.109 56.278a8.3 8.3 0 0 0 .685-3.312 8.968 8.968 0 0 0-17.922.007 8.317 8.317 0 0 0 .688 3.311l.009.022.012.026c1.346 3.176 3.007 3.8 3.884 5.251a5.125 5.125 0 0 1 .875 2.377h6.994a5.135 5.135 0 0 1 .873-2.378c.877-1.455 2.537-2.077 3.881-5.255l.011-.025z"/>
                <path id="패스_21816" data-name="패스 21816" class="cls-19" d="M517.117 63.957H508.558a2.18 2.18 0 0 0 .795 1.864h6.97a2.184 2.184 0 0 0 .794-1.864z"/>
                <path id="패스_21817" data-name="패스 21817" d="M516.323 65.822h-6.97a2.177 2.177 0 0 0 .414 1.773h6.144a2.173 2.173 0 0 0 .412-1.773z" style="fill:#baccd8"/>
                <path id="패스_21818" data-name="패스 21818" d="M512.839 67.6h-2.18a2.483 2.483 0 0 0 4.36 0z" style="fill:#788999"/>
                <g id="그룹_7911" data-name="그룹 7911">
                    <path id="패스_21819" data-name="패스 21819" class="cls-19" d="M507.757 52.967c-.372 1.354.526 2.226 1.318 2.994.215.208.417.4.6.609 1.585 1.752 1.8 4.587 1.806 7.389h.458c0-2.894-.235-5.829-1.922-7.693-.19-.217-.408-.428-.619-.633-.77-.747-1.5-1.452-1.2-2.544.007-.027.016-.053.025-.079l-.395-.249a1.614 1.614 0 0 0-.071.206z"/>
                    <path id="패스_21820" data-name="패스 21820" class="cls-19" d="M515.776 55.56a5.3 5.3 0 0 0-1.187 1.354c-.9 1.625-.765 6.83-.759 7.051l.458-.013c0-.053-.143-5.3.7-6.815a4.887 4.887 0 0 1 1.093-1.237 4.481 4.481 0 0 0 1.426-1.884 2.035 2.035 0 0 0 .069-1.24l-.408.281a1.657 1.657 0 0 1-.093.807 4.068 4.068 0 0 1-1.299 1.696z"/>
                    <path id="패스_21821" data-name="패스 21821" class="cls-22" d="M517.262 52.171a2.482 2.482 0 0 0-2.26-.778 2.3 2.3 0 0 0-1.289.613l-.081-.057a1.814 1.814 0 0 0-2.419-.008.952.952 0 0 0-.087.09 2.686 2.686 0 0 0-2.143-.263 1.776 1.776 0 0 0-1.155.993l.395.249a1.312 1.312 0 0 1 .9-.8 2.236 2.236 0 0 1 1.743.2 2.021 2.021 0 0 0-.337 1.289.715.715 0 0 0 .484.552h.005a.555.555 0 0 0 .508-.04 1.077 1.077 0 0 0 .409-.8 1.448 1.448 0 0 0-.449-1.093.545.545 0 0 1 .035-.034c.543-.473 1.1-.459 1.859.048l.039.026a2.123 2.123 0 0 0-.215.4v.005c-.135.384-.115 1.281.321 1.539.144.085.444.162.834-.277a.949.949 0 0 0 .222-.766 1.839 1.839 0 0 0-.515-.947 1.849 1.849 0 0 1 1-.468 2.055 2.055 0 0 1 1.845.612 1.233 1.233 0 0 1 .263.6l.408-.281a1.7 1.7 0 0 0-.32-.604zm-5.786 1.2a.676.676 0 0 1-.193.45c-.015.009-.042.026-.114 0a.262.262 0 0 1-.192-.214 1.555 1.555 0 0 1 .244-.9.966.966 0 0 1 .255.663zm2.644-.045a.486.486 0 0 1-.114.4c-.145.163-.236.193-.255.182a1.2 1.2 0 0 1-.123-.986 1.565 1.565 0 0 1 .133-.257 1.354 1.354 0 0 1 .359.66z"/>
                </g>
                <path id="사각형_3095" data-name="사각형 3095" class="cls-22" transform="rotate(-.758 3068.414 -38666.367)" d="M0 0h.641v3.94H0z"/>
                <path id="사각형_3096" data-name="사각형 3096" class="cls-22" transform="rotate(-59.548 295.337 -431.636)" d="M0 0h4.516v.641H0z"/>
                <path id="사각형_3097" data-name="사각형 3097" class="cls-22" transform="rotate(-37.38 309.72 -724.796)" d="M0 0h.641v4.516H0z"/>
            </g>
        </g>
    </g>
</svg>
