<svg xmlns="http://www.w3.org/2000/svg" width="16.001" height="16" viewBox="0 0 16.001 16">
    <defs>
        <style>
            .cls-3{fill:#555}
        </style>
    </defs>
    <g id="icon_money" transform="translate(-597.946 -735.889)">
        <circle id="타원_477" cx="8" cy="8" r="8" fill="#fd0" transform="translate(597.947 735.889)"/>
        <path id="패스_14677" fill="#e6c800" d="M605.826 751.648a7.88 7.88 0 1 1 7.88-7.88 7.888 7.888 0 0 1-7.88 7.88zm0-15.017a7.138 7.138 0 1 0 7.138 7.138 7.146 7.146 0 0 0-7.138-7.138z" transform="translate(0 0)"/>
        <g id="그룹_4813" transform="translate(600.794 741.023)">
            <path id="패스_14678" d="M611.987 748.8h-9.32a.371.371 0 1 1 0-.742h9.32a.371.371 0 1 1 0 .742z" class="cls-3" transform="translate(-602.295 -745.203)"/>
            <path id="패스_14679" d="M609.671 750.169a.373.373 0 0 1-.351-.251l-1.615-4.689-1.614 4.689a.373.373 0 0 1-.351.251.372.372 0 0 1-.351-.251l-1.964-5.71a.371.371 0 1 1 .7-.241l1.613 4.689 1.614-4.689a.371.371 0 0 1 .7 0l1.615 4.689 1.614-4.689a.371.371 0 0 1 .7.241l-1.966 5.71a.372.372 0 0 1-.344.251z" class="cls-3" transform="translate(-602.675 -743.716)"/>
        </g>
    </g>
</svg>
