<svg xmlns="http://www.w3.org/2000/svg" width="16" height="16" viewBox="0 0 16 16">
    <defs>
        <style>
            .cls-1{fill:none}
        </style>
    </defs>
    <g id="iconIden" transform="translate(-8.834 -25.834)">
        <path id="사각형_2691" d="M0 0H16V16H0z" class="cls-1" transform="translate(8.834 25.834)"/>
        <g id="그룹_6808" transform="translate(11.042 26)">
            <path id="패스_20615" d="M161.143 829.835a4.535 4.535 0 1 0 4.535-4.536 4.541 4.541 0 0 0-4.535 4.536zm7.466 0a2.931 2.931 0 1 1-2.931-2.931 2.931 2.931 0 0 1 2.931 2.931z" class="cls-1" transform="translate(-159.887 -824.042)"/>
            <circle id="타원_725" cx="2.931" cy="2.931" r="2.931" fill="#f8b62d" transform="matrix(0.755, -0.656, 0.656, 0.755, 1.656, 5.504)"/>
            <path id="패스_20616" d="M175.986 821.319c-.206-.017-.349-.02-.4-.02.136.001.268.011.4.02z" class="cls-1" transform="translate(-169.794 -821.299)"/>
            <path id="패스_20617" d="M165.678 825.3a4.536 4.536 0 1 0 4.536 4.536 4.541 4.541 0 0 0-4.536-4.536z" class="cls-1" transform="translate(-159.887 -824.042)"/>
            <path id="패스_20618" d="M166.112 855.534v3.3l2.709-1.264a.629.629 0 0 1 .531 0l2.709 1.264v-3.3a5.736 5.736 0 0 1-5.949 0z" class="cls-1" transform="translate(-163.295 -844.781)"/>
            <path id="패스_20620" fill="#f8a14b" d="M164.677 821.573a6.53 6.53 0 0 0-1.342-.254c-.132-.009-.264-.02-.4-.02a5.783 5.783 0 0 0-4.23 9.735v5.3a.628.628 0 0 0 .894.569l3.337-1.558 3.337 1.558a.629.629 0 0 0 .894-.569v-5.3a5.776 5.776 0 0 0-2.489-9.461zm1.232 13.779l-2.709-1.264a.629.629 0 0 0-.531 0l-2.709 1.264v-3.3a5.736 5.736 0 0 0 5.949 0zm-2.975-3.725a4.536 4.536 0 1 1 4.536-4.536 4.541 4.541 0 0 1-4.535 4.537z" transform="translate(-157.143 -821.299)"/>
        </g>
    </g>
</svg>
