<svg xmlns="http://www.w3.org/2000/svg" width="16" height="16" viewBox="0 0 16 16">
  <g id="그룹_6748" data-name="그룹 6748" transform="translate(-157.96 -319.96)">
    <rect id="사각형_2684" data-name="사각형 2684" width="16" height="16" transform="translate(157.96 319.96)" fill="none"/>
    <g id="그룹_6742" data-name="그룹 6742" transform="translate(160.592 322.724)">
      <path id="패스_20596" data-name="패스 20596" d="M370.526,1197.285a.6.6,0,0,1-.427-1.031l9.525-9.523a.6.6,0,0,1,.854.854l-9.525,9.523A.6.6,0,0,1,370.526,1197.285Z" transform="translate(-369.922 -1186.554)" fill="#dc3545" stroke="#dc3545" stroke-width="0.5"/>
      <path id="패스_20597" data-name="패스 20597" d="M380.051,1197.285a.6.6,0,0,1-.427-.177l-9.525-9.523a.6.6,0,0,1,.854-.854l9.525,9.523a.6.6,0,0,1-.427,1.031Z" transform="translate(-369.922 -1186.554)" fill="#dc3545" stroke="#dc3545" stroke-width="0.5"/>
    </g>
  </g>
</svg>
