<svg xmlns="http://www.w3.org/2000/svg" width="16" height="16" viewBox="0 0 16 16">
    <defs>
        <style>
            .cls-1{fill:none}.cls-2{fill:#999}
        </style>
    </defs>
    <g id="iconNoiden" transform="translate(-9 -26)">
        <path id="사각형_2691" d="M0 0H16V16H0z" class="cls-1" transform="translate(9 26)"/>
        <g id="그룹_6808" transform="translate(11.085 26)">
            <path id="패스_20615" d="M161.143 829.931a4.631 4.631 0 1 0 4.631-4.632 4.637 4.637 0 0 0-4.631 4.632zm7.624 0a2.993 2.993 0 1 1-2.993-2.993 2.993 2.993 0 0 1 2.993 2.993z" class="cls-1" transform="translate(-159.86 -824.016)"/>
            <circle id="타원_725" cx="2.993" cy="2.993" r="2.993" class="cls-2" transform="matrix(0.755, -0.656, 0.656, 0.755, 1.691, 5.621)"/>
            <path id="패스_20616" d="M175.995 821.32c-.21-.018-.357-.02-.408-.021.138.001.273.011.408.021z" class="cls-1" transform="translate(-169.671 -821.299)"/>
            <path id="패스_20617" d="M165.774 825.3a4.632 4.632 0 1 0 4.632 4.632 4.637 4.637 0 0 0-4.632-4.632z" class="cls-1" transform="translate(-159.86 -824.016)"/>
            <path id="패스_20618" d="M166.112 855.534v3.37l2.766-1.291a.642.642 0 0 1 .543 0l2.766 1.291v-3.37a5.857 5.857 0 0 1-6.075 0z" class="cls-1" transform="translate(-163.235 -844.553)"/>
            <path id="패스_20620" d="M164.837 821.579a6.665 6.665 0 0 0-1.37-.259c-.135-.009-.27-.021-.408-.021a5.906 5.906 0 0 0-4.319 9.941v5.417a.641.641 0 0 0 .913.581l3.408-1.591 3.408 1.591a.642.642 0 0 0 .913-.581v-5.417a5.9 5.9 0 0 0-2.541-9.661zm1.258 14.071l-2.766-1.291a.643.643 0 0 0-.543 0l-2.766 1.291v-3.37a5.856 5.856 0 0 0 6.075 0zm-3.038-3.8a4.632 4.632 0 1 1 4.632-4.632 4.637 4.637 0 0 1-4.632 4.628z" class="cls-2" transform="translate(-157.143 -821.299)"/>
        </g>
    </g>
</svg>
