<svg xmlns="http://www.w3.org/2000/svg" width="62" height="62">
    <defs>
        <style>
            .cls-3{fill:#fff}.cls-2,.cls-3,.cls-4{stroke:#1bb480}.cls-2{fill:#affce2}.cls-2,.cls-3,.cls-4{stroke-linecap:round;stroke-linejoin:round;stroke-width:1.7px}.cls-4{fill:#c3e0fc}
        </style>
    </defs>
    <g id="img_vac" transform="translate(-40.52 -445.52)">
        <g id="타원_793" data-name="타원 793" transform="translate(40.52 445.52)" style="stroke:#1bb480;fill:#fff">
            <circle cx="31" cy="31" r="31" style="stroke:none"/>
            <circle cx="31" cy="31" r="30.5" style="fill:none"/>
        </g>
        <g id="그룹_7380" data-name="그룹 7380" transform="translate(54.384 459.384)">
            <path id="사각형_2894" data-name="사각형 2894" class="cls-2" transform="rotate(135 10.254 21.284)" d="M0 0h4.909v7.079H0z"/>
            <path id="사각형_2895" data-name="사각형 2895" class="cls-3" transform="rotate(135 10.188 17.164)" d="M0 0h10.51v23.976H0z"/>
            <path id="사각형_2896" data-name="사각형 2896" class="cls-2" transform="rotate(135 3.823 5.757)" d="M0 0h4.909v5.612H0z"/>
            <path id="선_611" data-name="선 611" class="cls-4" d="M4.891 4.891 0 0"/>
            <path id="선_612" data-name="선 612" class="cls-3" transform="translate(27.103 27.103)" d="M7.432 0 0 7.432"/>
            <path id="선_613" data-name="선 613" class="cls-4" transform="translate(17.327 22.437)" d="M0 2.321 2.321 0"/>
            <path id="선_614" data-name="선 614" class="cls-4" transform="translate(14.647 19.757)" d="M0 2.321 2.321 0"/>
            <path id="선_615" data-name="선 615" class="cls-4" transform="translate(11.967 17.078)" d="M0 2.321 2.321 0"/>
            <path id="선_616" data-name="선 616" class="cls-4" transform="translate(9.288 14.398)" d="M0 2.321 2.321 0"/>
        </g>
    </g>
</svg>
